<?xml version="1.0" encoding="UTF-8"?>
<svg id="Layer_2" data-name="Layer 2" xmlns="http://www.w3.org/2000/svg" viewBox="0 0 31.11 31.11">
  <defs>
    <style>
      .cls-1 {
        fill: #fca311;
      }

      .cls-1, .cls-2 {
        stroke-width: 0px;
      }

      .cls-2 {
        fill: #fff;
      }
    </style>
  </defs>
  <g id="AI_Engineer" data-name="AI Engineer">
    <g id="Anconda">
      <rect id="BC_White" data-name="BC White" class="cls-2" width="31.11" height="31.11" rx="8" ry="8"/>
      <g id="Anconda_Icon" data-name="Anconda Icon">
        <path class="cls-1" d="M14.87,7.83c.39-.6.85-1,1.29-1.42.22-.21.27-.35,0-.56-.57-.46-1.12-.94-1.75-1.47,1.23-.23,2.38-.09,3.51.14,1.82.38,3.46,1.17,4.88,2.37,2.61,2.22,4,5.07,4.1,8.49.17,5.9-4.52,11.02-10.4,11.45-2.43.18-4.68-.34-6.78-1.57-.36-.21-.53-.48-.55-.88-.04-.59-.08-1.19-.14-1.78-.03-.3.09-.39.38-.38.64.01,1.27.03,1.9-.08.22-.04.39.08.57.17,4.96,2.48,10.45-.36,11.28-5.85.65-4.28-2.94-8.53-7.29-8.63-.3,0-.6,0-1,0Z"/>
        <path class="cls-1" d="M7.37,10.3c.29-.05.43.04.48.25.02.08.04.16.06.24.31,1.64.3,1.63-1.18,2.5-.25.14-.36.11-.47-.12-.32-.64-.63-1.28-.95-1.92-.07-.14-.18-.28.08-.38.67-.25,1.35-.44,1.98-.57Z"/>
        <path class="cls-1" d="M8.44,20.62q-.06,1.02-1.06.84c-.08-.01-.16-.05-.24-.06q-1.53-.32-.94-1.79.41-1.03,1.34-.56t.89,1.57Z"/>
        <path class="cls-1" d="M7.44,16.07c.01.17-.86,1.43-1.02,1.49-.16.05-.28-.01-.39-.1-.44-.33-.88-.66-1.33-.99-.21-.15-.26-.29-.05-.48.43-.4.86-.82,1.29-1.23.09-.08.17-.18.32-.14.12.03,1.17,1.32,1.18,1.46Z"/>
        <path class="cls-1" d="M8.57,8.09q0-1.1,1.08-.9c.2.04.42.06.59.15.29.15.56.35.37.76-.07.15-.11.31-.13.47-.04.45-.27.65-.72.59-.02,0-.04,0-.06,0q-1.14.05-1.14-1.07Z"/>
        <path class="cls-1" d="M14.76,6.2c-.35.41-.66.79-.99,1.14-.22.23-.42-.02-.6-.1-1.06-.44-1.06-.45-.53-1.48q.45-.86,1.24-.27c.29.22.56.45.87.7Z"/>
        <path class="cls-1" d="M6.06,21.74c.7.11,1.34.23,1.99.31.29.04.35.18.38.44.07.62,0,1.24-.02,1.81-1.06-.77-1.82-1.57-2.35-2.55Z"/>
        <path class="cls-1" d="M5.23,20.38c-.45-.97-.73-1.88-.88-2.83-.02-.13-.1-.29.08-.38.13-.07.23.04.33.11.37.27.74.55,1.12.8.22.14.23.28.12.5-.26.55-.48,1.12-.77,1.8Z"/>
        <path class="cls-1" d="M4.77,11.94c.37.65.68,1.21,1.01,1.77.1.17.02.26-.1.36-.38.34-.76.68-1.13,1.02-.07.07-.17.17-.26.08-.06-.06-.07-.18-.07-.27,0-.98.26-1.92.55-2.96Z"/>
        <path class="cls-1" d="M10.88,21.61c-.67,0-1.17-.01-1.68,0-.27,0-.31-.13-.29-.34.05-.48.1-.97.16-1.67.55.79,1.08,1.38,1.8,2Z"/>
        <path class="cls-1" d="M8.01,16.41c.12.91.38,1.59.64,2.35-.59-.1-1-.4-1.45-.62-.18-.09-.15-.21-.06-.35.26-.41.52-.82.87-1.38Z"/>
        <path class="cls-1" d="M11.74,5.25c-.16.31-.34.62-.48.95-.24.56-.59.11-.87.09-.24-.02-.66.02-.69-.23-.04-.3.38-.35.62-.48.34-.18.7-.33,1.05-.48.15-.07.32-.1.37.15Z"/>
        <path class="cls-1" d="M7.95,15.35c-.45-.29-.67-.71-.95-1.07-.2-.26,0-.37.17-.46.31-.17.6-.61.93-.41.27.16-.01.6-.04.91-.03.32-.07.64-.11,1.04Z"/>
        <path class="cls-1" d="M7.06,9.49c-.32.02-.73.37-.91.1-.2-.3.24-.59.42-.86.21-.3.48-.55.72-.83.2.57.3,1.12-.23,1.58Z"/>
        <path class="cls-1" d="M8.97,11.58c-.38-1.47-.62-1.47,1.1-1.41-.19.23-.37.44-.54.66-.17.22-.34.44-.56.75Z"/>
        <path class="cls-1" d="M12.95,8.35c-.49.22-.94.42-1.45.65.03-.45.05-.97.35-1.08.33-.12.74.2,1.1.43Z"/>
        <path class="cls-1" d="M7.06,9.49c.54-.46.43-1.01.23-1.58.07-.07.13-.19.2-.2.15-.02.1.12.11.22,0,.28-.02.57.02.85.07.47-.04.74-.57.72Z"/>
      </g>
    </g>
  </g>
</svg>