<?xml version="1.0" encoding="UTF-8"?>
<svg id="Layer_2" data-name="Layer 2" xmlns="http://www.w3.org/2000/svg" viewBox="0 0 31.11 31.11">
  <defs>
    <style>
      .cls-1 {
        fill: #fca311;
      }

      .cls-1, .cls-2, .cls-3, .cls-4 {
        stroke-width: 0px;
      }

      .cls-2 {
        fill: #d88c0f;
      }

      .cls-3 {
        fill: #fff;
      }

      .cls-4 {
        fill: #734a08;
      }
    </style>
  </defs>
  <g id="Layer_5" data-name="Layer 5">
    <g id="Catia">
      <rect id="BC_White" data-name="BC White" class="cls-3" width="31.11" height="31.11" rx="8" ry="8"/>
      <g id="OpenCV_Logo" data-name="OpenCV Logo">
        <path class="cls-2" d="M16.38,5.26c-.02.13.09.09.14.1.65.14,1.25.38,1.81.73,2.77,1.78,3.17,5.71.83,8.02-.27.27-.57.5-.89.71-.11.07-.17.08-.25-.05-.46-.81-.93-1.62-1.4-2.43-.08-.13,0-.17.08-.23.81-.59,1.08-1.6.69-2.52-.46-1.07-1.78-1.52-2.83-.96-1.04.55-1.4,1.91-.78,2.89.17.26.37.48.63.64.11.07.11.11.05.21-.47.8-.93,1.61-1.39,2.41-.07.12-.12.14-.24.07-2.32-1.36-3.17-4.52-1.85-6.87.8-1.42,1.98-2.29,3.57-2.63.04,0,.09,0,.12-.05,0,0,.01-.02.01-.02-.01,0-.02-.02-.04-.03.58,0,1.16,0,1.74,0Z"/>
        <path class="cls-1" d="M9.88,25.85c-4.09.02-6.6-4.28-4.64-7.74,1.36-2.41,4.43-3.31,6.89-2.03.14.07.17.13.08.28-.46.78-.91,1.57-1.36,2.35-.07.13-.13.16-.28.09-.82-.36-1.72-.18-2.33.45-.57.58-.72,1.48-.37,2.27.36.82,1.26,1.31,2.17,1.17.93-.15,1.66-.89,1.72-1.81.02-.24.1-.28.31-.28.88.01,1.75,0,2.63,0,.16,0,.21.04.21.2-.04,2.42-1.92,4.57-4.32,4.95-.27.04-.54.06-.7.08Z"/>
        <path class="cls-4" d="M16.22,20.55c.07-1.77.85-3.24,2.41-4.28.14-.09.2-.07.28.07.45.79.91,1.59,1.37,2.37.07.13.06.18-.06.27-.91.64-1.13,1.86-.51,2.82.58.89,1.8,1.17,2.72.62,1.32-.78,1.37-2.63.09-3.48-.11-.07-.12-.12-.06-.23.47-.8.93-1.6,1.39-2.41.09-.16.16-.11.27-.04,1.36.87,2.21,2.11,2.39,3.71.25,2.17-.57,3.89-2.4,5.09-1.96,1.28-4.73.93-6.36-.74-1-1.02-1.49-2.24-1.52-3.75Z"/>
      </g>
    </g>
  </g>
</svg>