<?xml version="1.0" encoding="UTF-8"?>
<svg id="Layer_2" data-name="Layer 2" xmlns="http://www.w3.org/2000/svg" viewBox="0 0 31.11 31.11">
  <defs>
    <style>
      .cls-1 {
        fill: #fca311;
      }

      .cls-1, .cls-2, .cls-3 {
        stroke-width: 0px;
      }

      .cls-2 {
        fill: #fff;
      }

      .cls-3 {
        fill: #734a08;
      }
    </style>
  </defs>
  <g id="Full_Stack_Devloper" data-name="Full Stack Devloper">
    <g id="Python">
      <rect id="BC_White" data-name="BC White" class="cls-2" width="31.11" height="31.11" rx="8" ry="8"/>
      <g id="Python_Logo" data-name="Python Logo">
        <path class="cls-3" d="M12,10.72c1.16,0,2.31,0,3.47,0,.11,0,.16-.02.15-.14,0-.13,0-.26,0-.4,0-.12-.04-.16-.16-.16-.96,0-1.92,0-2.88,0-.58,0-1.16,0-1.74,0-.12,0-.14-.04-.14-.15,0-.74,0-1.49,0-2.23,0-.5.27-.88.64-1.18.53-.43,1.16-.65,1.82-.77,1.58-.29,3.16-.3,4.73.03.74.15,1.43.42,1.98.96.42.41.62.91.61,1.51-.02,1.47,0,2.94,0,4.41,0,.86-.26,1.61-1,2.12-.53.37-1.14.52-1.78.52-1.58,0-3.15,0-4.73,0-.54,0-1.07.08-1.56.32-.29.14-.56.34-.74.59-.34.47-.54,1.01-.59,1.6-.06.7-.01,1.4-.02,2.1,0,.19,0,.37,0,.56,0,.06,0,.11-.08.11-.65-.01-1.31.06-1.96-.04-.58-.08-1.03-.4-1.41-.84-.19-.22-.34-.47-.47-.72-.3-.55-.45-1.15-.53-1.77-.16-1.21-.18-2.42.09-3.61.16-.71.43-1.38.93-1.92.55-.6,1.23-.9,2.03-.91,1.12-.01,2.24,0,3.35,0h0ZM12.81,7.04c-.49,0-.88.39-.88.89,0,.48.4.88.88.88.48,0,.89-.4.89-.88,0-.5-.4-.89-.89-.89Z"/>
        <path class="cls-1" d="M19.24,20.4c-1.17,0-2.34,0-3.5,0-.13,0-.18.03-.17.16.01.13,0,.26,0,.4,0,.11.04.14.14.14.48,0,.96,0,1.44,0,1.05,0,2.1,0,3.16,0,.15,0,.18.04.18.18,0,.7,0,1.4,0,2.1.01.54-.23.94-.63,1.27-.58.48-1.27.69-2,.81-1.31.23-2.62.24-3.93.06-.76-.1-1.5-.3-2.16-.72-.58-.37-.99-.87-1.06-1.57-.04-.38-.01-.76-.01-1.14,0-1.27,0-2.53.02-3.8.02-1.14.71-1.98,1.81-2.28.34-.09.68-.14,1.03-.14,1.6,0,3.19,0,4.79,0,.47,0,.93-.08,1.36-.3.7-.35,1.09-.94,1.29-1.66.1-.35.14-.71.13-1.08,0-.69,0-1.39,0-2.08,0-.13.04-.17.17-.17.46,0,.91.01,1.37,0,.86-.02,1.52.35,2.03,1.01.5.64.73,1.4.87,2.18.13.77.04,1.54.07,2.31.03.6-.03,1.2-.2,1.78-.26.87-.67,1.64-1.47,2.14-.42.26-.88.4-1.38.4-1.12,0-2.24,0-3.35,0h0ZM17.49,23.17c-.06.46.4.89.85.91.47.02.9-.36.92-.83.03-.49-.35-.91-.83-.94-.53-.03-.92.33-.94.86Z"/>
      </g>
    </g>
  </g>
</svg>