<?xml version="1.0" encoding="UTF-8"?>
<svg id="Layer_2" data-name="Layer 2" xmlns="http://www.w3.org/2000/svg" viewBox="0 0 31.11 31.11">
  <defs>
    <style>
      .cls-1 {
        fill: #fca311;
      }

      .cls-1, .cls-2, .cls-3 {
        stroke-width: 0px;
      }

      .cls-2 {
        fill: #8c5506;
      }

      .cls-3 {
        fill: #fff;
      }
    </style>
  </defs>
  <g id="AI_Engineer" data-name="AI Engineer">
    <g id="SciPy">
      <rect id="BC_White" data-name="BC White" class="cls-3" width="31.11" height="31.11" rx="8" ry="8"/>
      <g>
        <path class="cls-1" d="M20.04,8.28c.1,0,.19.02.29.02,1.13.1,2.17.44,3.08,1.13.92.69,1.56,1.6,1.92,2.69.21.63.31,1.27.32,1.93.02,1.17-.23,2.28-.68,3.35-.01.03-.02.06-.04.09.03,0,.05,0,.07.01,0,.03-.02.05-.02.07-.19.55-.39,1.09-.58,1.64-.05.14-.06.28-.08.43,0,.02,0,.05,0,.07.02.22.17.33.38.26.06-.02.11-.05.16-.09.17-.14.33-.29.49-.44.02-.02.04-.05.05-.08.08-.55.27-1.06.48-1.57.04-.1.1-.15.21-.17.24-.04.47-.09.71-.13.01,0,.03,0,.05,0-.14.39-.28.78-.36,1.19.1-.1.19-.21.29-.31.22-.23.45-.46.71-.65.15-.11.31-.19.5-.22.28-.05.52.14.54.43.01.18-.02.35-.07.52-.1.32-.22.64-.33.96-.05.15-.09.29-.13.44,0,0,0,.02,0,.03-.02.21.11.32.3.22.13-.07.26-.17.37-.27.14-.12.26-.27.4-.41,0,.14,0,.27,0,.4,0,.01,0,.02-.02.03-.29.29-.58.57-.96.76-.15.07-.31.12-.47.13-.28.01-.48-.14-.55-.41-.05-.2-.03-.4.02-.6.08-.34.21-.66.33-.98.05-.12.08-.25.12-.38,0-.02,0-.05,0-.08,0-.08-.05-.12-.12-.09-.06.02-.13.06-.18.1-.18.17-.35.35-.53.53-.04.04-.07.09-.12.13-.19.18-.28.41-.3.67-.02.28-.04.56-.05.85,0,.02,0,.04,0,.06-.27.06-.54.13-.83.19-.01-.29-.03-.58-.04-.87,0,0-.02.02-.03.03-.27.25-.54.5-.87.68-.1.06-.21.1-.32.13-.28.08-.53-.04-.65-.31-.05-.12-.07-.25-.07-.38,0-.03,0-.06,0-.11-.1.12-.19.22-.28.32-.85.99-1.92,1.64-3.15,2.05-.73.24-1.47.39-2.23.46-.55.06-1.11.08-1.67.06-1.05-.03-2.09-.17-3.1-.49-.27-.08-.53-.19-.76-.34-.23-.14-.37-.36-.49-.59-.24-.47-.38-.97-.49-1.48-.15-.72-.23-1.46-.24-2.2-.02-.93.07-1.86.28-2.77.21-.94.55-1.82,1.06-2.64.39-.63.89-1.17,1.45-1.66,1.11-.96,2.35-1.67,3.77-2.08.59-.17,1.19-.27,1.8-.3.02,0,.05,0,.07-.01.2,0,.4,0,.61,0ZM23.44,19.9c.61-.72,1.1-1.52,1.49-2.39-.08,0-.14,0-.2,0-.04,0-.06.02-.08.05-.08.13-.15.25-.24.37-.15.21-.34.38-.58.47-.07.03-.14.04-.23.06.04-.14.09-.26.12-.39.02-.12.04-.25.03-.37,0-.11-.08-.18-.19-.2-.23-.04-.42.04-.56.22-.12.16-.21.34-.24.54-.05.28.02.43.27.57,0,0,.02.01.03.02-.01.02-.03.04-.04.06-.2.3-.45.56-.72.8-.1.09-.2.19-.31.26-.22.13-.41.03-.4-.22,0-.19.03-.38.08-.56.13-.48.28-.96.42-1.44.03-.09.05-.17.08-.26-.12,0-.22,0-.32.06-.15.1-.31.17-.47.26-.06.03-.12.06-.18.1-.02-.03-.03-.06-.05-.09-.1-.18-.25-.3-.46-.32-.12-.01-.25,0-.37.02-.35.08-.64.26-.91.5-.42.37-.7.82-.79,1.38,0,.02-.02.05-.03.06-.16.15-.32.3-.49.45-.21.18-.46.25-.74.21-.33-.05-.63-.38-.63-.72.02,0,.05-.02.07-.02.33-.1.65-.22.95-.4.2-.12.39-.26.51-.47.25-.43.03-.91-.46-.99-.34-.06-.66,0-.94.2-.59.4-.94.94-1.02,1.65,0,.03-.01.06-.03.08-.2.18-.39.36-.6.53-.13.11-.28.17-.44.18-.14.01-.25-.04-.33-.14-.08-.11-.13-.24-.13-.37,0-.22,0-.43.01-.65,0-.04.02-.08.05-.11.31-.35.61-.71.85-1.11.35-.57.56-1.18.55-1.86,0-.13-.03-.27-.07-.39-.05-.16-.14-.19-.29-.13-.28.1-.56.21-.84.31-.03.01-.07.04-.08.07-.24.45-.44.92-.61,1.41-.26.72-.47,1.46-.52,2.23-.02.26,0,.51.08.75.13.37.44.6.8.59.24,0,.46-.07.67-.19.32-.18.61-.42.88-.66.02-.02.04-.03.06-.06,0,.04.02.06.02.08.11.4.35.68.76.78.37.09.74.04,1.08-.14.31-.16.58-.39.83-.63.02-.02.04-.03.05-.04.05.14.09.28.15.41.09.19.23.35.44.41.26.08.51.02.73-.13.23-.15.41-.35.57-.56.08-.1.15-.19.23-.3,0,.03,0,.06,0,.08,0,.19.01.38.07.57.09.28.29.41.56.38.17-.02.33-.09.46-.19.22-.18.43-.36.64-.55.36-.32.67-.67.92-1.09.01-.02.04-.03.07-.04.16-.05.32-.11.49-.16.01,0,.03,0,.06-.02-.23.39-.45.76-.53,1.2ZM20.05,16.25c0-.14,0-.28,0-.41,0-.02,0-.05.01-.06.05-.06.11-.11.17-.17.02.03.03.05.05.07.11.18.22.35.33.53.01.02.03.04.05.04.06,0,.12,0,.2,0-.02-.03-.03-.05-.04-.07-.14-.22-.27-.44-.41-.65-.02-.03-.02-.06,0-.08.08-.08.16-.15.23-.23.04-.04.08-.08.13-.12,0,0,0-.01-.01-.02-.04,0-.07,0-.11,0-.06,0-.11.02-.15.06-.09.1-.19.19-.28.28-.05.05-.11.1-.17.17v-.96h-.18v1.63h.18ZM17.97,15.4c0-.14-.05-.25-.17-.3-.19-.09-.37-.09-.55.02-.12.07-.16.18-.15.32,0,.13.09.2.2.25.08.03.16.05.24.07.06.02.13.03.19.05.06.02.1.06.1.13,0,.07-.03.12-.09.15-.08.04-.17.05-.26.03-.1-.02-.18-.07-.2-.18,0-.02-.02-.04-.04-.04-.05,0-.1,0-.16,0-.01.15.06.3.19.35.19.08.38.07.57-.02.12-.06.18-.17.18-.31,0-.14-.07-.22-.19-.27-.04-.02-.09-.03-.13-.04-.11-.03-.22-.05-.33-.1-.11-.05-.11-.19,0-.25.17-.1.35-.03.42.15h.19ZM19.18,15.85s-.06,0-.08,0c-.07-.01-.11,0-.13.09-.03.12-.11.19-.24.2-.13,0-.23-.04-.29-.16-.1-.2-.09-.41,0-.61.06-.11.17-.16.3-.14.12.02.19.09.23.21,0,.02.02.04.04.04.05,0,.1,0,.15,0,0-.12-.04-.22-.12-.3-.23-.22-.63-.16-.78.13-.12.24-.12.5,0,.74.1.2.32.3.56.25.21-.04.34-.2.36-.45ZM21.39,15.23s.06,0,.08,0c.06,0,.08.02.08.08,0,.27,0,.54,0,.81,0,.08.03.15.11.16.08.02.16.01.25.01,0,0,.02-.02.02-.03,0-.04,0-.08,0-.12-.02,0-.03,0-.04,0-.13,0-.15-.01-.15-.14,0-.23,0-.47,0-.7,0-.02,0-.05,0-.08h.18v-.15h-.19v-.32h-.19v.32h-.16v.15ZM21.19,16.25v-1.17h-.18v1.17h.18ZM19.39,16.25h.18v-1.17h-.18v1.17ZM21.01,14.85c.05,0,.1,0,.14,0,.01,0,.04-.02.04-.03,0-.07,0-.13,0-.2h-.18v.23ZM19.39,14.85c.05,0,.1,0,.14,0,.01,0,.04-.02.04-.03,0-.07,0-.13,0-.2h-.18v.23Z"/>
        <path class="cls-2" d="M2.05,17.4c.02-.14.03-.28.05-.42.17-.98.66-1.76,1.52-2.28.48-.29,1.01-.44,1.57-.48,1.15-.07,2.18.28,3.13.91.45.3.86.64,1.19,1.07.38.48.62,1.03.78,1.62.21.79.25,1.6.18,2.42-.04.49-.13.97-.29,1.43-.01.04-.03.07-.04.1-.09.25-.27.42-.51.53-.35.16-.71.25-1.09.31-.93.15-1.86.12-2.77-.11-.61-.16-1.18-.41-1.69-.8-.4-.31-.73-.69-1.03-1.11-.44-.62-.75-1.29-.9-2.03-.04-.21-.06-.43-.09-.64,0-.02,0-.04-.01-.06,0-.15,0-.31,0-.46Z"/>
        <path class="cls-1" d="M20.91,18.28c0,.4-.14.76-.31,1.1-.1.19-.2.37-.36.51-.04.04-.09.07-.14.1-.26.14-.51,0-.55-.28-.03-.19,0-.39.05-.57.09-.37.25-.72.48-1.03.06-.08.13-.14.2-.2.03-.03.07-.05.11-.07.26-.11.49.02.52.3,0,.05,0,.09,0,.14Z"/>
        <path class="cls-1" d="M14.42,18.35c.02-.07.03-.15.05-.22.12-.55.25-1.1.45-1.64.07-.18.15-.35.23-.53.02-.05.06-.1.1-.14.06-.07.14-.06.17.03.03.08.05.17.05.26,0,.39-.14.75-.29,1.1-.18.4-.41.77-.71,1.11-.01.01-.03.03-.04.04,0,0,0,0-.01,0Z"/>
        <path class="cls-1" d="M16.67,19.15c0-.3.04-.58.16-.85.06-.14.14-.27.26-.37.06-.05.13-.09.2-.11.17-.05.3.04.33.21.05.3-.03.56-.26.77-.19.18-.42.28-.68.35Z"/>
      </g>
    </g>
  </g>
</svg>