<?xml version="1.0" encoding="UTF-8"?>
<svg id="Layer_2" data-name="Layer 2" xmlns="http://www.w3.org/2000/svg" viewBox="0 0 31.11 31.11">
  <defs>
    <style>
      .cls-1 {
        fill: #fca311;
      }

      .cls-1, .cls-2, .cls-3, .cls-4, .cls-5, .cls-6 {
        stroke-width: 0px;
      }

      .cls-2 {
        fill: #d88c0f;
      }

      .cls-3 {
        fill: #fff;
      }

      .cls-4 {
        fill: #eb8d24;
      }

      .cls-5 {
        fill: #734a08;
      }

      .cls-6 {
        fill: #e45b2d;
      }
    </style>
  </defs>
  <g id="AI_Engineer" data-name="AI Engineer">
    <g id="Tensorflow">
      <rect id="BC_White" data-name="BC White" class="cls-3" width="31.11" height="31.11" rx="8" ry="8"/>
      <g id="Tensorflow_Logo" data-name="Tensorflow Logo">
        <path class="cls-1" d="M17.04,4.79s.03.04.05.05c.38.22.76.44,1.13.65,2.44,1.41,4.87,2.81,7.31,4.22.01,0,.03.02.04.03,0,.04-.04.05-.07.07-.06.03-.12.07-.18.1-.57.33-1.13.65-1.7.98-.29.17-.59.34-.88.52-.03-.02-.06-.03-.09-.05-.53-.3-1.05-.61-1.58-.91-1.08-.62-2.16-1.25-3.24-1.87-.28-.16-.56-.32-.85-.48-.02.01-.05.02-.07.03-.52.3-1.03.59-1.55.89-1,.58-2.01,1.16-3.01,1.74-.58.34-1.16.67-1.75,1.01-.52.3-1.04.6-1.56.9-.22.13-.44.26-.66.39-.03,0-.05-.01-.08-.03-.82-.47-1.63-.94-2.45-1.41-.12-.07-.23-.15-.36-.19v-.03s.06-.02.09-.03c1.66-.96,3.33-1.92,4.99-2.88,2.11-1.22,4.21-2.43,6.32-3.65.02-.01.05-.01.05-.05h.08Z"/>
        <path class="cls-5" d="M5.51,11.43c.13.04.24.12.36.19.82.47,1.63.94,2.45,1.41.02.01.05.03.08.03-.02.04-.01.09-.01.13,0,1.06,0,2.12,0,3.18-.04,0-.06-.02-.09-.04-.9-.52-1.8-1.04-2.69-1.55-.03-.02-.05-.04-.09-.04v-3.31Z"/>
        <path class="cls-5" d="M14.1,26.31c-.28-.16-.57-.32-.85-.49-.64-.37-1.28-.74-1.92-1.11-.06-.03-.07-.07-.07-.13,0-3.25,0-6.51,0-9.76,0-.03,0-.06,0-.08,0-.02.02-.04.04-.05.15-.08.29-.17.44-.25.6-.35,1.21-.7,1.82-1.05.18-.1.36-.22.55-.31.03.03.02.08.02.11,0,1.02,0,2.04,0,3.07,0,.04,0,.08.01.11,0,0,.01.01.02.02.23.13.45.26.68.39.72.42,1.44.83,2.16,1.25,0,.05,0,.1,0,.15,0,1.05,0,2.11,0,3.16,0,0,0,0,0,0-.06-.01-.1-.04-.15-.07-.53-.3-1.05-.61-1.58-.91-.37-.22-.75-.43-1.12-.65-.07,0-.03.06-.03.09,0,2.13,0,4.25,0,6.38,0,.04.01.08-.02.12Z"/>
        <path class="cls-2" d="M14.15,16.4s-.01-.01-.02-.02c0-.01,0-.03,0-.04,0-1.06,0-2.12,0-3.18,0-.02,0-.04,0-.06,0-.02-.02-.02-.03-.01-.19.09-.37.2-.55.31-.61.35-1.21.7-1.82,1.05-.15.08-.29.17-.44.25-.02.01-.04.02-.04.05-.04,0-.06.02-.09.04-.9.52-1.79,1.03-2.69,1.55-.03.02-.06.04-.1.05,0-1.06,0-2.12,0-3.18,0-.04,0-.09.01-.13.22-.13.44-.26.66-.39.52-.3,1.04-.6,1.56-.9.58-.34,1.16-.67,1.75-1.01,1-.58,2.01-1.16,3.01-1.74.52-.3,1.03-.6,1.55-.89.02-.01.05-.02.07-.03,0,1.11,0,2.22,0,3.32,0,1.07,0,2.13,0,3.2,0,.04,0,.07,0,.11-.23.13-.46.27-.69.4-.7.4-1.4.81-2.11,1.21-.02.01-.05.02-.05.05Z"/>
        <path class="cls-5" d="M16.99,11.43c0-1.11,0-2.22,0-3.32.28.16.56.32.85.48,1.08.62,2.16,1.24,3.24,1.87.53.3,1.05.61,1.58.91.03.02.06.03.09.05,0,1.1,0,2.21,0,3.31-.03,0-.06-.02-.08-.03-1.86-1.07-3.72-2.14-5.58-3.22-.03-.02-.05-.04-.09-.04Z"/>
        <path class="cls-2" d="M14.15,19.72c.37.22.74.43,1.12.65.53.3,1.05.61,1.58.91.05.03.09.06.15.07,0,.11,0,.22,0,.33,0,.97,0,1.94,0,2.92,0,.05,0,.08-.05.11-.92.53-1.85,1.06-2.77,1.6,0,0-.02,0-.02,0-.02-.03-.02-.06-.02-.1,0-2.13,0-4.26,0-6.4,0-.03,0-.07.02-.1Z"/>
        <path class="cls-4" d="M16.99,21.35c0-1.05,0-2.11,0-3.16,0-.05,0-.1,0-.15.13-.07.26-.15.39-.22.72-.42,1.45-.83,2.17-1.25.1-.06.21-.09.28-.19.05.02.03.06.03.09,0,1.06,0,2.12,0,3.18,0,.04,0,.07-.05.09-.93.54-1.86,1.07-2.79,1.61,0,0-.02,0-.03.01Z"/>
        <path class="cls-2" d="M22.74,14.72c0-1.1,0-2.21,0-3.31.29-.17.59-.35.88-.52.57-.33,1.13-.65,1.7-.98.06-.03.12-.07.18-.1.03-.02.06-.03.07-.07.04.01.03.05.03.08,0,1.07,0,2.13,0,3.2,0,.04,0,.06-.04.08-.93.54-1.87,1.08-2.8,1.61,0,0-.02,0-.02,0Z"/>
        <path class="cls-1" d="M19.83,16.37c-.07.09-.19.13-.28.19-.72.42-1.44.84-2.17,1.25-.13.08-.26.15-.39.22-.72-.42-1.44-.83-2.16-1.25-.23-.13-.45-.26-.68-.39,0-.03.02-.04.05-.05.7-.4,1.4-.81,2.11-1.21.23-.13.46-.27.69-.4.31.17.61.35.92.52.62.36,1.23.71,1.85,1.07.02.01.05.03.07.04Z"/>
        <path class="cls-6" d="M14.15,19.72s-.02.06-.02.1c0,2.13,0,4.26,0,6.4,0,.03,0,.07.02.1-.02.02-.03.02-.05,0,.03-.04.02-.08.02-.12,0-2.13,0-4.25,0-6.38,0-.03-.04-.08.03-.09Z"/>
        <path class="cls-6" d="M14.1,13.09s.03,0,.03.01c0,.02,0,.04,0,.06,0,1.06,0,2.12,0,3.18,0,.01,0,.03,0,.04-.02-.04-.01-.08-.01-.11,0-1.02,0-2.04,0-3.07,0-.04,0-.08-.02-.11Z"/>
      </g>
    </g>
  </g>
</svg>