<svg id="VS_Code_Logo" data-name="VS Code Logo" xmlns="http://www.w3.org/2000/svg" xmlns:xlink="http://www.w3.org/1999/xlink" width="40.471" height="40.471" viewBox="0 0 40.471 40.471">
  <defs>
    <clipPath id="clip-path">
      <rect id="Rectangle_223" data-name="Rectangle 223" width="40.471" height="40.471" fill="none"/>
    </clipPath>
  </defs>
  <g id="Group_386" data-name="Group 386" clip-path="url(#clip-path)">
    <path id="Path_371" data-name="Path 371" d="M30.592,40.471H9.879A9.879,9.879,0,0,1,0,30.592V9.879A9.879,9.879,0,0,1,9.879,0H30.592a9.879,9.879,0,0,1,9.879,9.879V30.592a9.879,9.879,0,0,1-9.879,9.879" fill="#fff"/>
    <path id="Path_372" data-name="Path 372" d="M363.1,99.23a1.635,1.635,0,0,1,1.511,0l5.361,2.581A1.693,1.693,0,0,1,371,103.467q-.007,8.82,0,17.641a1.694,1.694,0,0,1-1.028,1.654q-2.665,1.285-5.332,2.566a1.635,1.635,0,0,1-1.537,0,1.5,1.5,0,0,1,.2-.038.967.967,0,0,0,1.04-1.091q0-2.962,0-5.924,0-6,0-11.993c0-2.007.006-4.013,0-6.02a.943.943,0,0,0-.98-1,.432.432,0,0,1-.259-.039" transform="translate(-337.45 -92.048)" fill="#fca311"/>
    <path id="Path_373" data-name="Path 373" d="M118.027,202.034q0,2.962,0,5.924a.967.967,0,0,1-1.04,1.091,1.5,1.5,0,0,0-.2.038.908.908,0,0,1-.317-.212q-5.145-4.694-10.293-9.386c-.109-.1-.185-.271-.382-.238a.506.506,0,0,0-.216-.307q-1.466-1.35-2.937-2.7a.509.509,0,0,0-.283-.149c.011-.147-.118-.2-.2-.273q-1.8-1.652-3.612-3.3a1.126,1.126,0,0,1,.008-1.853c.425-.385.845-.774,1.273-1.156a1.108,1.108,0,0,1,1.556-.068c1.428,1.076,2.85,2.159,4.277,3.237.088.067.163.189.307.122a.322.322,0,0,0,.166.231c.362.274.72.553,1.082.826q1.439,1.088,2.881,2.172c.06.051.117.1.18.152q2.96,2.246,5.922,4.489c.6.456,1.185.947,1.826,1.354" transform="translate(-91.139 -175.802)" fill="#c17d0d"/>
    <path id="Path_374" data-name="Path 374" d="M214.077,114.722q-1.441-1.086-2.881-2.172c-.362-.274-.72-.552-1.082-.826a.321.321,0,0,1-.166-.231c.871-.8,1.739-1.612,2.614-2.412q3.931-3.593,7.867-7.181a.9.9,0,0,1,.338-.232.433.433,0,0,0,.259.039.943.943,0,0,1,.98,1c0,2.006,0,4.013,0,6.02a2.45,2.45,0,0,0-.224.136q-2.361,1.787-4.718,3.578-1.5,1.138-2.985,2.284" transform="translate(-195.118 -94.485)" fill="#855609"/>
    <path id="Path_375" data-name="Path 375" d="M102.337,287.32a.509.509,0,0,1,.283.149q1.469,1.347,2.937,2.7a.506.506,0,0,1,.215.307c-.659.568-1.376,1.062-2.064,1.594-.767.593-1.543,1.175-2.318,1.758a1.126,1.126,0,0,1-1.606-.067c-.457-.41-.915-.818-1.362-1.239a1.087,1.087,0,0,1,0-1.653c1.267-1.166,2.543-2.323,3.817-3.483a.652.652,0,0,1,.1-.062" transform="translate(-91.115 -267.024)" fill="#855609"/>
  </g>
</svg>
