<svg xmlns="http://www.w3.org/2000/svg" xmlns:xlink="http://www.w3.org/1999/xlink" width="1920" height="1080" viewBox="0 0 1920 1080">
  <defs>
    <clipPath id="clip-path">
      <path id="Path_223" data-name="Path 223" d="M244.212,430.815c-43.878-28.354-73.093-69.1-79.994-112.013-5.067-31.7,2.371-61.127,21.67-85.061,25.335-31.48,67.058-47.543,112.551-47.543,38.273,0,79.132,11.427,115.248,34.606,43.878,28.354,73.093,69.1,79.992,112.012,5.068,31.7-2.371,61.128-21.669,85.061C446.6,449.319,404.881,465.4,359.418,465.4c-38.249,0-79.149-11.386-115.206-34.586M184.918,232.879c-19.514,24.256-27.061,54.011-21.885,86.03,6.9,43.231,36.331,84.413,80.533,112.876,36.224,23.394,77.406,34.821,115.893,34.821,45.819,0,87.972-16.171,113.522-47.974,19.514-24.257,27.06-54.013,21.885-86.03-6.9-43.233-36.33-84.414-80.532-112.876-36.28-23.383-77.426-34.852-115.928-34.851-45.819,0-87.887,16.252-113.487,48" transform="translate(-161.448 -184.876)" fill="none"/>
    </clipPath>
    <linearGradient id="linear-gradient" x1="-0.525" y1="1.745" x2="-0.521" y2="1.745" gradientUnits="objectBoundingBox">
      <stop offset="0" stop-color="#fca311"/>
      <stop offset="0.356" stop-color="#fca611"/>
      <stop offset="0.615" stop-color="#fcaf11"/>
      <stop offset="0.843" stop-color="#fcbf11"/>
      <stop offset="1" stop-color="#fccf11"/>
    </linearGradient>
    <clipPath id="clip-path-2">
      <path id="Path_224" data-name="Path 224" d="M392.573,197.056c46.9,20.376,82.8,56.493,98.538,99.076,12.4,33.528,11.1,68.674-3.666,99.075-34.714,71.477-133.9,98.86-221.006,61.02-46.9-20.376-82.8-56.493-98.537-99.075-12.4-33.528-11.1-68.675,3.666-99.076l-.647-.323.647.323c34.714-71.477,133.9-98.86,221.006-61.02M170.382,257.428c-14.985,30.726-16.279,66.3-3.773,100.155,15.955,42.907,52.071,79.346,99.289,99.83a204.083,204.083,0,0,0,81.4,17.142c61.126,0,116.864-28.677,141.335-78.809,14.987-30.725,16.279-66.3,3.773-100.154-15.955-42.907-52.071-79.346-99.291-99.829a205.069,205.069,0,0,0-81.447-17.1c-61.191,0-116.925,28.625-141.284,78.763" transform="translate(-158.099 -178.665)" fill="none"/>
    </clipPath>
    <linearGradient id="linear-gradient-2" x1="-0.5" y1="1.547" x2="-0.496" y2="1.547" xlink:href="#linear-gradient"/>
    <clipPath id="clip-path-3">
      <path id="Path_225" data-name="Path 225" d="M292.474,479.2c-47.435-11.428-88.511-40.644-112.552-80.1-21.024-34.5-27.491-74.173-18.328-111.69,17.249-70.075,84.738-116.325,160.742-116.325a187.574,187.574,0,0,1,44.525,5.39c47.435,11.428,88.51,40.644,112.551,80.1,21.024,34.5,27.492,74.172,18.329,111.689-17.172,69.953-84.651,116.266-160.646,116.266a190.583,190.583,0,0,1-44.62-5.331M160.193,287.088l.647.216-.647-.216c-9.272,37.84-2.7,77.946,18.543,112.767,24.149,39.782,65.547,69.213,113.414,80.749a190.483,190.483,0,0,0,44.955,5.39c76.652-.108,144.679-46.789,162.036-117.4,9.272-37.84,2.7-77.945-18.543-112.767-24.149-39.781-65.547-69.213-113.414-80.749a192.244,192.244,0,0,0-44.859-5.341c-76.663,0-144.772,46.734-162.132,117.355" transform="translate(-156.095 -169.733)" fill="none"/>
    </clipPath>
    <linearGradient id="linear-gradient-3" x1="-0.481" y1="1.608" x2="-0.478" y2="1.608" xlink:href="#linear-gradient"/>
    <clipPath id="clip-path-4">
      <path id="Path_226" data-name="Path 226" d="M322.1,498.62c-95.194-4.528-169.258-84.2-165.055-177.561,1.94-44.524,21.454-85.815,54.659-116.11a172.646,172.646,0,0,1,116.973-45.063c2.91,0,5.82.107,8.625.215,95.195,4.528,169.258,84.2,165.053,177.56-1.94,44.524-21.454,85.816-54.659,116.11a172.364,172.364,0,0,1-116.857,45.059q-4.355,0-8.739-.211M210.73,203.872a167.627,167.627,0,0,0-55.089,117.079c-4.2,94.118,70.4,174.433,166.455,179.069,2.911.109,5.822.215,8.732.215a173.724,173.724,0,0,0,117.943-45.493,167.633,167.633,0,0,0,55.09-117.081c4.2-94.116-70.4-174.433-166.456-179.069q-4.4-.211-8.767-.21A173.722,173.722,0,0,0,210.73,203.872" transform="translate(-155.472 -158.383)" fill="none"/>
    </clipPath>
    <linearGradient id="linear-gradient-4" x1="-0.483" y1="1.526" x2="-0.48" y2="1.526" xlink:href="#linear-gradient"/>
    <clipPath id="clip-path-5">
      <path id="Path_227" data-name="Path 227" d="M230.572,482.35c-39.458-29.324-65.008-73.417-71.908-124.194C144.973,257.677,210.627,163.777,304.959,148.9a157,157,0,0,1,25.55-2.048c35.038,0,69.321,11.428,98.429,33.1,39.458,29.323,65.008,73.417,71.908,124.194C514.537,404.619,448.882,498.52,354.551,513.4A163.931,163.931,0,0,1,329,515.407c-35.064,0-69.267-11.359-98.431-33.058M304.743,147.5C209.657,162.483,143.462,257.031,157.261,358.37c6.9,51.1,32.666,95.624,72.448,125.164a166.074,166.074,0,0,0,99.4,33.312,160.6,160.6,0,0,0,25.767-2.048c95.087-14.985,161.28-109.532,147.481-210.872-6.9-51.1-32.665-95.626-72.447-125.165-29.4-21.854-63.884-33.315-99.261-33.313a165.456,165.456,0,0,0-25.9,2.048" transform="translate(-155.442 -145.449)" fill="none"/>
    </clipPath>
    <linearGradient id="linear-gradient-5" x1="-0.441" y1="1.444" x2="-0.438" y2="1.444" xlink:href="#linear-gradient"/>
    <clipPath id="clip-path-6">
      <path id="Path_228" data-name="Path 228" d="M266.624,517.545c-46.25-22.1-82.581-65.871-99.507-120.206-32.665-104.467,13.8-218.2,103.6-253.673a150.755,150.755,0,0,1,55.522-10.673,155,155,0,0,1,66.841,15.415c46.249,22.1,82.582,65.873,99.506,120.207,32.667,104.467-13.8,218.2-103.6,253.672a150.176,150.176,0,0,1-55.515,10.678,154.716,154.716,0,0,1-66.847-15.422m3.558-375.388C179.623,177.948,132.727,292.549,165.609,397.77c17.033,54.767,53.579,98.86,100.262,121.176a156.45,156.45,0,0,0,67.6,15.525,153.534,153.534,0,0,0,56.06-10.674C480.085,488.005,526.981,373.4,494.1,268.184c-17.034-54.765-53.581-98.86-100.261-121.176a156.312,156.312,0,0,0-67.6-15.6,152.213,152.213,0,0,0-56.06,10.749" transform="translate(-155.104 -131.408)" fill="none"/>
    </clipPath>
    <linearGradient id="linear-gradient-6" x1="-0.389" y1="1.37" x2="-0.387" y2="1.37" xlink:href="#linear-gradient"/>
    <clipPath id="clip-path-7">
      <path id="Path_229" data-name="Path 229" d="M306.619,545.811c-50.994-13.154-96.272-52.718-123.98-108.564-51.963-104.681-28.029-235.776,53.366-292.267,34.822-24.257,76.543-31.8,117.511-21.239,50.993,13.152,96.273,52.719,123.979,108.563,51.963,104.682,28.03,235.776-53.365,292.268a141.3,141.3,0,0,1-81.251,25.895,145.064,145.064,0,0,1-36.259-4.657M235.034,143.687C152.993,200.61,128.843,332.674,181.131,438c27.921,56.276,73.524,96.165,125.056,109.424a147.281,147.281,0,0,0,36.655,4.636,143.1,143.1,0,0,0,82.149-26.09c82.043-56.922,106.191-188.986,53.9-294.315-27.921-56.277-73.525-96.165-125.057-109.426a147.174,147.174,0,0,0-36.529-4.652,143.491,143.491,0,0,0-82.275,26.106" transform="translate(-153.512 -117.581)" fill="none"/>
    </clipPath>
    <linearGradient id="linear-gradient-7" x1="-0.371" y1="1.304" x2="-0.369" y2="1.304" xlink:href="#linear-gradient"/>
    <clipPath id="clip-path-8">
      <path id="Path_230" data-name="Path 230" d="M348.779,566.627C295.845,563.5,243.558,530.727,205.5,476.5c-71.045-101.016-72.555-245.8-3.45-322.992,27.49-30.618,63.5-47.221,102.31-47.221,2.7,0,5.391.108,8.086.216,52.933,3.127,105.113,35.9,143.277,90.127,71.045,101.017,72.555,245.8,3.45,322.994-27.422,30.647-63.508,47.248-102.281,47.246-2.69,0-5.4-.081-8.114-.242m-148.021-414.2c-69.644,77.621-68.242,223.486,3.235,325.042,38.379,54.658,91.1,87.755,144.57,90.882,2.8.108,5.5.215,8.192.215,39.351,0,75.79-16.818,103.6-47.76C530,443.186,528.6,297.323,457.125,195.767c-38.379-54.659-91.1-87.756-144.57-90.883q-4.1-.24-8.168-.239c-39.279,0-75.795,16.723-103.629,47.783" transform="translate(-149.441 -104.645)" fill="none"/>
    </clipPath>
    <linearGradient id="linear-gradient-8" x1="-0.379" y1="1.256" x2="-0.376" y2="1.256" xlink:href="#linear-gradient"/>
    <clipPath id="clip-path-9">
      <path id="Path_231" data-name="Path 231" d="M235.477,513.382C146.428,420.344,117.319,266.07,170.47,169.366c22.962-41.722,58.863-67.81,101.231-73.31a135.753,135.753,0,0,1,17.465-1.077c47.005,0,96.6,24.041,138.427,67.811C516.641,255.829,545.749,410.1,492.6,506.805c-22.963,41.723-58.863,67.811-101.231,73.31a133.656,133.656,0,0,1-17.343,1.118c-47.027,0-96.631-24.113-138.548-67.852M271.484,94.441c-42.907,5.606-79.345,31.91-102.524,74.171-53.581,97.349-24.257,252.594,65.223,346.064,42.262,44.093,92.284,68.35,139.827,68.35a158.367,158.367,0,0,0,17.573-1.078c42.908-5.607,79.346-31.911,102.525-74.172,53.581-97.35,24.257-252.593-65.224-346.063-42.163-44.176-92.157-68.421-139.7-68.419a136,136,0,0,0-17.7,1.147" transform="translate(-142.164 -93.294)" fill="none"/>
    </clipPath>
    <linearGradient id="linear-gradient-9" x1="-0.311" y1="1.216" x2="-0.308" y2="1.216" xlink:href="#linear-gradient"/>
    <clipPath id="clip-path-10">
      <path id="Path_232" data-name="Path 232" d="M272.288,546.342C167.174,465.594,109.066,306.9,142.81,192.731c15.093-50.994,46.9-86.786,89.372-100.585a130.114,130.114,0,0,1,40.537-6.253c39.026,0,81.5,15.956,121.283,46.465C499.008,213.108,557.116,371.8,523.373,485.97c-15.093,50.994-46.9,86.786-89.372,100.584a130.864,130.864,0,0,1-40.524,6.242c-39.1,0-81.518-15.987-121.188-46.454M231.537,90.206c-43.124,14.015-75.251,50.239-90.56,101.879C107.126,307.008,165.449,466.564,271.1,547.744c40,30.833,82.8,46.9,122.254,46.9a130.409,130.409,0,0,0,41.074-6.36c43.124-14.015,75.251-50.238,90.56-101.879,33.959-114.924-24.365-274.479-130.018-355.659-40.028-30.754-82.792-46.88-122.3-46.88a132.82,132.82,0,0,0-41.135,6.345" transform="translate(-131.355 -83.861)" fill="none"/>
    </clipPath>
    <linearGradient id="linear-gradient-10" x1="-0.276" y1="1.187" x2="-0.274" y2="1.187" xlink:href="#linear-gradient"/>
    <clipPath id="clip-path-11">
      <path id="Path_233" data-name="Path 233" d="M314.721,573.776C196.132,509.414,108.916,352.122,120.235,223.184c5.284-60.372,31.48-106.191,73.741-128.831,19.083-10.242,40.428-15.309,63.177-15.309,30.724,0,64.036,9.271,97.889,27.6C473.63,171.112,560.846,328.3,549.528,457.235c-5.284,60.372-31.48,106.191-73.74,128.831-19.1,10.282-40.429,15.386-63.2,15.383-30.7,0-64.007-9.286-97.87-27.673M192.9,92.628c-42.8,23.07-69.32,69.321-74.711,130.448C106.866,352.66,194.515,510.815,313.75,575.5c34.176,18.543,67.811,27.922,98.86,27.922,23.071,0,44.74-5.175,64.039-15.632,42.8-23.071,69.32-69.32,74.711-130.448C562.679,327.757,475.03,169.6,355.8,104.918c-34.172-18.537-67.735-27.867-98.733-27.865-23.083,0-44.747,5.176-64.166,15.575" transform="translate(-117.202 -77.053)" fill="none"/>
    </clipPath>
    <linearGradient id="linear-gradient-11" x1="-0.269" y1="1.166" x2="-0.266" y2="1.166" xlink:href="#linear-gradient"/>
    <clipPath id="clip-path-12">
      <path id="Path_234" data-name="Path 234" d="M361.976,594.261c-128.723-44.2-244.4-193.839-257.878-333.774-6.684-69.212,12.183-125.164,53.258-157.508C180.967,84.33,210.29,74.95,243.172,74.95c21.669,0,44.955,4.205,69.1,12.4,128.723,44.2,244.4,193.839,257.877,333.774,6.684,69.212-12.182,125.165-53.257,157.508-23.555,18.624-52.89,28.029-85.75,28.029-21.732,0-45.008-4.114-69.169-12.4M156.169,101.471c-41.505,32.773-60.7,89.374-54.011,159.232,13.477,140.582,129.8,291.083,259.17,335.391C385.694,604.5,409.2,608.6,431.081,608.6c33.313,0,63.068-9.486,87.11-28.46,41.5-32.774,60.7-89.373,54.011-159.233C558.726,280.324,442.4,129.824,313.031,85.515c-24.417-8.352-47.925-12.5-69.888-12.5-33.313,0-63.063,9.55-86.974,28.457" transform="translate(-100.855 -73.014)" fill="none"/>
    </clipPath>
    <linearGradient id="linear-gradient-12" x1="-0.225" y1="1.155" x2="-0.223" y2="1.155" xlink:href="#linear-gradient"/>
    <clipPath id="clip-path-13">
      <path id="Path_235" data-name="Path 235" d="M412.139,606.379C277.378,586,135.287,450.274,95.4,303.762c-20.483-75.142-10.566-142.631,27.167-185,26.629-29.863,65.332-45.6,111.15-45.6a218.965,218.965,0,0,1,32.991,2.588c134.759,20.377,276.85,156.107,316.739,302.617,20.484,75.142,10.565,142.631-27.168,185-26.594,29.919-65.322,45.568-111.126,45.567a221.872,221.872,0,0,1-33.012-2.553M121.056,117.363C82.892,160.27,72.758,228.4,93.457,304.3c40.106,147.266,182.951,283.643,318.465,304.126a223.127,223.127,0,0,0,33.313,2.588c46.466,0,85.708-15.956,112.66-46.25,38.164-42.908,48.3-111.042,27.6-186.939C545.389,230.56,402.544,94.184,267.028,73.7a221.909,221.909,0,0,0-33.461-2.62c-46.284,0-85.5,15.945-112.51,46.282" transform="translate(-82.927 -71.081)" fill="none"/>
    </clipPath>
    <linearGradient id="linear-gradient-13" x1="-0.157" y1="1.149" x2="-0.155" y2="1.149" xlink:href="#linear-gradient"/>
    <clipPath id="clip-path-14">
      <path id="Path_236" data-name="Path 236" d="M95.362,351.908c-36.007-79.455-37.84-155.784-5.067-209.363C116.168,100.391,162.2,75.6,219.881,73.007c136.161-6.144,301.432,109.21,368.6,257.231,36.008,79.454,37.841,155.782,5.068,209.363-25.875,42.153-71.908,66.948-129.586,69.536v0c-3.541.162-7.082.242-10.66.242-134.012-.01-292.518-113.2-357.936-257.472M219.773,70.853c-58.54,2.694-105.113,27.706-131.417,70.613C55.15,195.693,56.982,272.776,93.314,352.879c65.762,145,225.319,258.738,360.078,258.738q5.338,0,10.674-.323c58.54-2.7,105.113-27.707,131.417-70.615,33.205-54.227,31.373-131.31-4.959-211.411C524.779,184.438,365.214,70.61,230.434,70.611q-5.357,0-10.661.242" transform="translate(-64.696 -70.611)" fill="none"/>
    </clipPath>
    <linearGradient id="linear-gradient-14" x1="-0.111" y1="1.147" x2="-0.109" y2="1.147" xlink:href="#linear-gradient"/>
    <clipPath id="clip-path-15">
      <path id="Path_237" data-name="Path 237" d="M104.243,403.877C52.063,323.883,36.322,240.871,61.335,175.97c18.543-48.189,57.246-81.179,112.013-95.626A242.486,242.486,0,0,1,234.582,72.8c123.333,0,269.305,82.688,349.621,205.589,52.18,79.887,67.919,162.9,42.908,227.8-18.543,48.191-57.246,81.18-112.013,95.626a240.564,240.564,0,0,1-61.249,7.564c-123.345-.005-269.318-82.628-349.607-205.5M172.809,78.187c-55.414,14.556-94.765,48.084-113.523,97.028C34.059,240.871,49.8,324.637,102.409,405.171c80.749,123.548,227.475,206.56,351.562,206.56a241.887,241.887,0,0,0,61.775-7.655c55.412-14.555,94.762-48.083,113.521-97.027,25.227-65.655,9.489-149.421-43.122-229.954C505.4,153.587,358.628,70.56,234.511,70.57a242.721,242.721,0,0,0-61.7,7.617" transform="translate(-47.512 -70.57)" fill="none"/>
    </clipPath>
    <linearGradient id="linear-gradient-15" x1="-0.065" y1="1.148" x2="-0.063" y2="1.148" xlink:href="#linear-gradient"/>
    <clipPath id="clip-path-16">
      <path id="Path_238" data-name="Path 238" d="M122.782,458.157C55.079,382.368,24.137,295.8,37.722,220.548c9.7-53.689,41.182-95.95,91.1-122.039C163.425,80.4,203.961,71.773,246.976,71.773c110.073,0,236.639,56.275,322.778,152.764,67.7,75.79,98.645,162.359,85.06,237.609-9.7,53.689-41.183,95.95-91.1,122.039-34.605,18.113-75.142,26.738-118.157,26.738-110.073,0-236.639-56.384-322.778-152.765m5.067-361.8c-50.562,26.52-82.473,69.32-92.392,123.762-13.8,75.9,17.466,163.223,85.6,239.55,86.569,96.919,213.782,153.519,324.609,153.519,43.339,0,84.2-8.625,119.236-26.952l-.539-1.079.539,1.079c50.562-26.521,82.473-69.321,92.391-123.765,13.8-75.9-17.464-163.221-85.6-239.549C484.986,125.983,357.79,69.37,246.986,69.37c-43.358,0-84.208,8.669-119.138,26.984" transform="translate(-32.257 -69.37)" fill="none"/>
    </clipPath>
    <linearGradient id="linear-gradient-16" x1="-0.04" y1="1.145" x2="-0.038" y2="1.145" xlink:href="#linear-gradient"/>
    <clipPath id="clip-path-17">
      <path id="Path_239" data-name="Path 239" d="M150.9,512.921C70.147,446.186,23.144,360.372,22.065,277.251c-.755-59.509,22.1-111.257,66.195-149.529C134.724,87.4,198.654,67.781,267.868,67.781c92.823,0,195.133,35.253,277.067,102.957,80.748,66.733,127.752,152.548,128.83,235.668.754,59.509-22.1,111.257-66.194,149.529l.863.971-.863-.971c-46.369,40.338-110.309,59.925-179.522,59.923-92.83,0-195.135-35.249-277.153-102.938M86.642,125.89C42.01,164.7,18.831,216.988,19.585,277.251c1.186,83.768,48.406,170.338,129.8,237.5,82.473,68.027,185.322,103.5,278.684,103.5,69.859,0,134.436-19.728,181.225-60.588,44.633-38.811,67.812-91.1,67.056-151.362-1.186-83.767-48.4-170.337-129.8-237.5C464.074,100.755,361.292,65.364,267.9,65.371c-69.82,0-134.4,19.795-181.26,60.519" transform="translate(-19.567 -65.371)" fill="none"/>
    </clipPath>
    <linearGradient id="linear-gradient-17" x1="-0.033" y1="1.134" x2="-0.031" y2="1.134" xlink:href="#linear-gradient"/>
    <clipPath id="clip-path-18">
      <path id="Path_240" data-name="Path 240" d="M188.583,566.343C98.349,513.085,36.251,432.876,18.032,346.2,4.339,281.19,16.63,219.632,53.5,168.315,104.924,96.838,195.376,59.428,294.128,59.428c71.476,0,147.373,19.622,215.832,60.049,90.235,53.257,152.333,133.467,170.552,220.144,13.692,65.008,1.4,126.567-35.469,177.884-51.425,71.477-141.877,108.886-240.628,108.886-71.477,0-147.373-19.621-215.833-60.049M51.451,166.914c-36.763,51.209-49.483,115.139-35.9,179.932C33.879,434.17,96.516,515.026,187.29,568.715c68.781,40.643,145.11,60.372,217.018,60.372,99.615,0,190.82-37.841,242.783-109.964l-1.077-.755,1.077.755c36.763-51.209,49.484-115.14,35.9-179.932-18.329-87.324-80.964-168.18-171.738-221.869C442.376,76.619,366.129,56.9,294.183,56.9c-99.558.007-190.851,37.788-242.732,110.009" transform="translate(-10.251 -56.905)" fill="none"/>
    </clipPath>
    <linearGradient id="linear-gradient-18" x1="-0.005" y1="1.113" x2="-0.003" y2="1.113" xlink:href="#linear-gradient"/>
    <clipPath id="clip-path-19">
      <path id="Path_241" data-name="Path 241" d="M235.018,616.747C140.039,579.985,65,510.34,29.1,425.712c-29-68.243-29.862-141.337-2.587-205.807C72.875,110.373,190.385,45.688,319.863,45.688A401.745,401.745,0,0,1,465.081,73.072c94.979,36.763,170.012,106.406,205.913,191.036,29,68.241,29.863,141.337,2.587,205.805-46.312,109.56-163.777,174.236-293.3,174.227a403.342,403.342,0,0,1-145.261-27.392M24.038,218.613C-3.454,283.836-2.591,357.685,26.625,426.574c36.116,85.384,111.8,155.567,207.424,192.545a404.817,404.817,0,0,0,146.186,27.6c130.556,0,249.038-65.223,295.826-175.835,27.492-65.223,26.629-139.072-2.587-207.961-36.117-85.384-111.8-155.567-207.424-192.545A405.6,405.6,0,0,0,319.836,42.8c-130.561,0-249.08,65.284-295.8,175.816" transform="translate(-4.047 -42.796)" fill="none"/>
    </clipPath>
    <linearGradient id="linear-gradient-19" x1="0.004" y1="1.081" x2="0.006" y2="1.081" xlink:href="#linear-gradient"/>
    <clipPath id="clip-path-20">
      <path id="Path_242" data-name="Path 242" d="M289.468,661.357C198.262,643.568,118.807,594.3,65.874,522.393,12.94,450.593-7.22,364.885,9.058,281.011,38.382,130.187,179.179,26.475,339.49,26.475a375.6,375.6,0,0,1,72.124,7.008c188.232,36.654,313.936,207.206,280.3,380.345-29.323,150.824-170.12,254.536-330.431,254.536a374.59,374.59,0,0,1-72.016-7.007M6.363,280.579C-10.131,365.1,10.244,451.671,63.609,524.118S197.076,646.264,288.928,664.16a380.934,380.934,0,0,0,72.555,7.007c161.6,0,303.587-104.682,333.127-256.907l-1.4-.323,1.4.323c33.96-174.648-92.823-346.71-282.565-383.582a379.812,379.812,0,0,0-72.478-7.016c-161.594,0-303.609,104.716-333.2,256.916" transform="translate(-0.785 -23.663)" fill="none"/>
    </clipPath>
    <linearGradient id="linear-gradient-20" x1="0.014" y1="1.041" x2="0.015" y2="1.041" xlink:href="#linear-gradient"/>
    <clipPath id="clip-path-21">
      <path id="Path_243" data-name="Path 243" d="M2.911,350.592c0-191.682,156-347.681,347.681-347.681,191.791,0,347.681,156,347.681,347.681s-156,347.681-347.681,347.681S2.911,542.275,2.911,350.592M350.592,0C157.292,0,0,157.292,0,350.592S157.292,701.184,350.592,701.184c193.407,0,350.7-157.292,350.7-350.592S544,0,350.592,0Z" transform="translate(0 0)" fill="none"/>
    </clipPath>
    <linearGradient id="linear-gradient-21" x1="0" y1="1" x2="0.002" y2="1" xlink:href="#linear-gradient"/>
    <clipPath id="clip-path-22">
      <path id="Path_267" data-name="Path 267" d="M557.615,146.9c20.238,20.633,15.477,65.473-12.7,123.011C489.363,384.192,358.812,516.331,254.052,564.741c-46.823,21.824-82.538,23.807-100.393,5.556-20.238-20.634-15.477-65.475,12.7-123.012C221.911,333,352.462,200.863,457.221,152.451l-.4-1.191.4,1.191c46.825-21.824,82.538-23.809,100.394-5.554m-101.187,3.174C351.271,198.482,220.323,331.415,164.373,445.7c-28.572,58.729-32.937,104.759-12.3,125.79,8.334,8.73,20.636,13.1,36.111,13.1,18.253,0,40.87-5.952,67.061-18.254C360.4,517.916,491.346,384.985,547.3,270.7c28.571-58.728,32.935-104.757,12.3-125.789-8.52-8.7-20.763-13.012-36.128-13.012-18.273,0-40.961,6.1-67.042,18.171" transform="translate(-139.241 -131.9)" fill="none"/>
    </clipPath>
    <linearGradient id="linear-gradient-22" x1="-0.398" y1="1.376" x2="-0.395" y2="1.376" gradientUnits="objectBoundingBox">
      <stop offset="0"/>
      <stop offset="1" stop-color="#14213d"/>
    </linearGradient>
    <clipPath id="clip-path-23">
      <path id="Path_268" data-name="Path 268" d="M141.513,571.346c-20.238-23.412-12.3-72.221,21.825-134.124,65.076-118.25,206.739-249.2,315.466-291.657,23.015-9.126,42.856-13.492,59.522-13.492,17.46,0,30.555,4.763,39.284,14.682,20.238,23.412,12.3,72.219-21.824,134.122-65.078,118.251-206.741,249.2-315.467,291.659-22.8,9.08-42.864,13.55-59.381,13.55-17.408,0-30.873-4.968-39.425-14.741m336.5-427.765c-109.124,42.855-251.184,173.8-316.657,292.45-34.92,62.7-42.46,112.7-21.429,136.9,8.73,10.317,23.016,15.477,40.872,15.477,17.064,0,37.3-4.763,60.713-13.492,109.123-42.856,251.184-173.8,316.657-292.45,34.919-62.7,42.46-112.7,21.427-136.9-9-10.428-22.946-15.589-40.926-15.589-16.91,0-37.386,4.566-60.658,13.605" transform="translate(-128.255 -129.976)" fill="none"/>
    </clipPath>
    <linearGradient id="linear-gradient-23" x1="-0.337" y1="1.379" x2="-0.334" y2="1.379" xlink:href="#linear-gradient-22"/>
    <clipPath id="clip-path-24">
      <path id="Path_269" data-name="Path 269" d="M129.383,571.188c-20.633-26.587-9.127-79.76,31.746-145.63C236.522,303.736,388.9,175.566,500.8,139.853c19.444-6.349,36.905-9.524,51.586-9.524,20.238,0,35.713,5.952,45.236,17.858,20.636,26.585,9.128,79.759-31.745,145.629C490.483,415.637,338.106,543.807,226.2,579.52c-19.61,6.317-36.987,9.429-51.736,9.429-20.464,0-35.86-6-45.086-17.761M500.4,137.471c-112.7,36.11-265.467,164.678-341.26,286.9-41.268,66.663-52.775,121.026-31.347,148.407,9.524,12.3,25.792,18.651,46.823,18.651,14.682,0,32.539-3.176,52.379-9.524,112.694-36.111,265.468-164.678,341.26-286.9,41.269-66.665,52.775-121.027,31.348-148.408-9.752-12.306-25.75-18.5-46.888-18.5-14.988,0-32.562,3.114-52.316,9.37" transform="translate(-117.229 -128.101)" fill="none"/>
    </clipPath>
    <linearGradient id="linear-gradient-24" x1="-0.284" y1="1.37" x2="-0.281" y2="1.37" xlink:href="#linear-gradient-22"/>
    <clipPath id="clip-path-25">
      <path id="Path_270" data-name="Path 270" d="M117.345,569.711c-21.031-30.157-5.556-87.7,42.458-157.534,85.712-124.6,248.8-249.2,363.481-277.373,15.873-3.969,30.157-5.952,42.458-5.952,23.81,0,41.27,7.539,51.587,21.824,21.031,30.157,5.556,87.7-42.46,157.536-85.713,124.6-248.8,249.2-363.481,277.373-15.781,3.911-29.956,5.85-42.387,5.85-24.142,0-41.7-7.317-51.657-21.725M522.491,132.425C407.415,160.6,243.929,285.595,157.82,410.591,109.408,481.223,93.933,539.95,115.362,570.9c10.317,15.079,28.569,22.617,53.57,22.617,12.3,0,26.983-1.982,42.855-5.951C326.863,559.4,490.35,434.4,576.457,309.4c48.412-70.635,63.887-129.362,42.46-160.313C608.658,134.1,590.561,126.6,565.652,126.6c-12.67,0-27.106,1.941-43.161,5.821" transform="translate(-105.93 -126.604)" fill="none"/>
    </clipPath>
    <linearGradient id="linear-gradient-25" x1="-0.238" y1="1.364" x2="-0.235" y2="1.364" xlink:href="#linear-gradient-22"/>
    <clipPath id="clip-path-26">
      <path id="Path_271" data-name="Path 271" d="M105.225,566.3c-20.633-34.126,0-97.22,54.76-169.44,96.029-126.98,269.437-246.025,386.1-265.865a171.315,171.315,0,0,1,30.555-2.777c28.967,0,49.6,8.729,60.315,26.189,20.633,34.126,0,97.22-54.76,169.439C486.165,450.823,312.758,569.865,196.1,589.707a190.259,190.259,0,0,1-30.846,2.76c-29.062,0-49.53-8.782-60.024-26.171M545.687,129.007v0C428.629,148.848,254.427,268.287,158,395.666c-55.951,73.808-76.188,136.5-54.762,171.819,10.715,18.254,32.144,27.38,61.9,27.38,9.523,0,19.84-1.191,31.347-2.776,117.06-19.842,291.261-139.282,387.687-266.659,55.951-73.808,76.189-136.5,54.76-171.819-11.146-18.076-32.353-27.46-62.234-27.459a185.045,185.045,0,0,0-31.017,2.856" transform="translate(-94.872 -126.151)" fill="none"/>
    </clipPath>
    <linearGradient id="linear-gradient-26" x1="-0.197" y1="1.36" x2="-0.195" y2="1.36" xlink:href="#linear-gradient-22"/>
    <clipPath id="clip-path-27">
      <path id="Path_272" data-name="Path 272" d="M93.022,560.918c-20.237-38.092,5.159-105.947,67.855-180.946C268.017,251.8,450.949,139.107,568.8,128.789v0c44.045-3.969,74.2,7.143,86.9,31.348,20.237,38.095-5.158,105.949-67.855,180.946C480.709,469.255,297.778,581.95,179.924,592.267q-8.77.79-16.8.787c-34.947,0-59.092-11.145-70.106-32.137M568.8,126.408c-118.646,10.316-302.371,123.409-409.51,251.977C96.2,454.175,70.406,522.824,91.04,562.11c11.507,21.824,36.108,33.33,72.219,33.33,5.556,0,11.11-.4,17.064-.793C298.97,584.33,482.694,471.238,589.833,342.672c63.093-75.793,88.886-144.441,68.252-183.725-11.366-22.043-36.182-33.324-72.119-33.324q-8.2,0-17.164.785" transform="translate(-84.058 -125.623)" fill="none"/>
    </clipPath>
    <linearGradient id="linear-gradient-27" x1="-0.163" y1="1.358" x2="-0.16" y2="1.358" xlink:href="#linear-gradient-22"/>
    <clipPath id="clip-path-28">
      <path id="Path_273" data-name="Path 273" d="M81.043,553.382C62,510.128,92.949,438.305,163.581,360.927,281.434,232.359,473.491,127.6,591.742,127.6c42.856.4,71.824,13.889,82.933,39.683,19.047,43.253-11.9,115.075-82.538,192.454C474.284,488.3,282.228,593.062,163.976,593.062c-42.855,0-71.425-13.888-82.933-39.68M162.39,359.736C90.964,437.511,60.014,510.524,79.457,554.571c11.507,26.587,40.87,40.871,84.916,40.871,118.647,0,311.5-105.154,429.75-234.119,71.425-77.775,102.377-150.788,82.934-194.835-11.906-26.587-41.269-40.871-84.919-40.871-118.647,0-311.5,105.156-429.748,234.119" transform="translate(-73.757 -125.617)" fill="none"/>
    </clipPath>
    <linearGradient id="linear-gradient-28" x1="-0.134" y1="1.358" x2="-0.132" y2="1.358" xlink:href="#linear-gradient-22"/>
    <clipPath id="clip-path-29">
      <path id="Path_274" data-name="Path 274" d="M148.427,591.808c-41.269-3.969-68.252-20.633-78.173-48.014-17.46-48.412,19.047-124.6,98.014-203.169C289.693,219.2,475.8,127.536,595.239,127.536c6.746,0,13.492.4,19.84.8,41.269,3.967,68.252,20.633,78.171,48.014,17.461,48.41-19.047,124.6-98.011,203.167C473.506,500.87,287.4,592.7,167.919,592.689c-6.709,0-13.228-.291-19.492-.881m17.858-252.372C86.922,418.4,50.018,495.384,67.874,544.985c10.317,28.57,38.095,45.633,80.156,49.6,6.35.4,13.1.793,19.84.793,120.235,0,306.737-92.059,428.955-213.483,79.363-78.967,116.266-155.948,98.411-205.55-10.317-28.57-38.093-45.634-80.156-49.6q-9.744-.944-20.2-.939c-120.256,0-306.692,92.1-428.6,213.632" transform="translate(-63.453 -125.804)" fill="none"/>
    </clipPath>
    <linearGradient id="linear-gradient-29" x1="-0.108" y1="1.358" x2="-0.106" y2="1.358" xlink:href="#linear-gradient-22"/>
    <clipPath id="clip-path-30">
      <path id="Path_275" data-name="Path 275" d="M132.266,589.573c-39.682-7.935-64.68-27.776-73.013-57.139C44.174,477.672,87.03,397.913,173.932,318.948,297.34,206.649,475.113,127.682,594.95,127.682a205.908,205.908,0,0,1,42.46,3.969c39.68,7.937,64.68,27.777,73.013,57.142,15.079,54.76-27.777,134.52-114.679,213.486-123.41,112.3-301.182,191.263-421.02,191.263a205.718,205.718,0,0,1-42.458-3.969m40.08-272.214C84.649,397.119,41.4,478.068,56.871,533.227c8.334,30.157,34.522,50.4,75,58.729,13.1,2.776,27.381,3.967,42.856,3.967,120.236-.4,298.8-79.363,422.607-192.058C685.027,324.106,728.279,243.155,712.8,188c-8.332-30.157-34.524-50.792-75-58.728a218.238,218.238,0,0,0-42.67-3.9c-120.39.005-298.8,79.267-422.79,191.986" transform="translate(-53.78 -125.373)" fill="none"/>
    </clipPath>
    <linearGradient id="linear-gradient-30" x1="-0.087" y1="1.357" x2="-0.085" y2="1.357" xlink:href="#linear-gradient-22"/>
    <clipPath id="clip-path-31">
      <path id="Path_276" data-name="Path 276" d="M116.691,585.036c-38.095-12.3-61.109-35.315-67.458-67.061-11.906-60.713,37.7-143.645,132.534-222.215C304.779,193.382,472.235,127.113,590.882,127.113q38.092,0,69.045,9.524c38.095,12.3,61.109,35.317,67.458,67.061,11.9,60.713-37.7,143.646-132.534,222.216-123.22,102.3-290.582,168.528-409.415,168.526-25.44,0-48.664-3.038-68.745-9.405m63.093-291.261C84.55,373.138,34.551,456.865,46.454,518.372c6.35,32.538,30.157,56.346,69.045,68.648,20.239,6.349,43.65,9.523,69.444,9.523,119.44,0,287.292-66.663,410.7-169.043,95.234-79.362,145.234-163.089,133.328-224.595-6.347-32.54-30.156-56.349-69.043-68.65-20.242-6.466-43.637-9.547-69.3-9.544-119.245.008-287.087,66.534-410.842,169.063" transform="translate(-44.722 -124.712)" fill="none"/>
    </clipPath>
    <linearGradient id="linear-gradient-31" x1="-0.07" y1="1.355" x2="-0.069" y2="1.355" xlink:href="#linear-gradient-22"/>
    <clipPath id="clip-path-32">
      <path id="Path_277" data-name="Path 277" d="M100.489,578.324C64.38,561.657,42.951,535.072,39.38,500.55c-7.143-67.063,49.6-152.775,151.581-229.359C311.2,180.717,465.954,125.957,581.823,125.957c38.094,0,71.824,5.952,99.2,18.254,36.108,16.665,57.538,43.253,61.108,77.775,7.143,67.061-49.6,152.773-151.583,229.359-120.5,90.6-275,145.151-391.054,145.143-37.957,0-71.821-5.841-99.009-18.163m88.885-309.515C86.6,346.188,29.46,432.694,37,500.55c3.969,35.315,25.4,63.093,62.7,79.758,27.777,12.3,61.9,18.253,100,18.253,116.664,0,271.422-54.759,392.449-145.234,102.774-77.378,159.914-163.883,152.376-231.738-3.969-35.318-25.4-63.094-62.7-79.76-27.505-12.476-61.722-18.386-100.081-18.386-116.59,0-271.441,54.6-392.365,145.365" transform="translate(-36.336 -123.444)" fill="none"/>
    </clipPath>
    <linearGradient id="linear-gradient-32" x1="-0.058" y1="1.349" x2="-0.056" y2="1.349" xlink:href="#linear-gradient-22"/>
    <clipPath id="clip-path-33">
      <path id="Path_278" data-name="Path 278" d="M85.186,569.5c-34.92-21.031-53.57-52.379-54.363-89.679C29.236,406.406,93.123,318.71,201.85,245.3,316.926,167.127,457,123.478,568.107,123.478c52.777,0,99.2,9.919,132.932,30.952,34.922,21.031,53.57,52.379,54.365,89.679,1.586,73.41-62.3,161.106-171.028,234.515C469.221,556.382,329.264,600.207,218.171,600.205c-52.751,0-99-9.885-132.985-30.709M200.66,243.316c-109.124,73.806-173.408,162.3-171.822,236.5.8,38.093,20.239,69.839,55.555,91.663,34.127,21.032,80.951,30.953,134.122,30.953,111.5,0,251.977-43.649,367.45-121.822,109.123-73.808,173.406-162.3,171.819-236.5-.793-38.093-20.238-69.838-55.553-91.664-34.267-21.047-81.019-31.053-134.366-31.052-111.6,0-252.03,43.8-367.2,121.923" transform="translate(-28.81 -121.393)" fill="none"/>
    </clipPath>
    <linearGradient id="linear-gradient-33" x1="-0.051" y1="1.338" x2="-0.049" y2="1.338" xlink:href="#linear-gradient-22"/>
    <clipPath id="clip-path-34">
      <path id="Path_279" data-name="Path 279" d="M71.2,558.994c-33.333-26.585-49.2-62.3-46.428-103.569,5.159-79.362,76.586-167.851,190.47-236.9,106.744-64.681,230.946-98.806,334.515-98.806,69.839,0,130.552,15.475,170.63,47.618,33.332,26.587,49.2,62.3,46.425,103.567-5.158,79.363-76.584,167.852-190.47,236.9-106.936,64.731-230.866,99-334.555,99-69.84,0-130.5-15.55-170.587-47.81M214.052,216.545C99.373,285.987,27.947,375.271,22.392,455.426c-2.779,42.063,13.49,78.569,47.218,105.554,40.476,32.537,101.585,48.014,171.822,48.014,103.964,0,228.563-34.126,336.1-99.2,114.679-69.443,186.105-158.724,191.661-238.882,2.776-42.06-13.492-78.568-47.221-105.551-40.448-32.454-101.565-48.1-171.9-48.1-104.232,0-228.691,34.364-336.026,99.285" transform="translate(-22.087 -117.26)" fill="none"/>
    </clipPath>
    <linearGradient id="linear-gradient-34" x1="-0.036" y1="1.32" x2="-0.034" y2="1.32" xlink:href="#linear-gradient-22"/>
    <clipPath id="clip-path-35">
      <path id="Path_280" data-name="Path 280" d="M56.988,546.29c-30.952-32.537-43.65-73.806-36.506-119.044,13.492-84.52,92.061-172.612,210.31-235.706,96.424-51.586,203.565-77.378,297.213-77.378,88.489,0,165.471,23.014,210.31,69.839,30.952,32.539,43.649,73.806,36.507,119.044-13.491,84.521-92.061,172.613-210.31,235.706C468,590.171,360.913,616.094,267.1,616.089c-88.62,0-165.4-23.15-210.116-69.8M229.6,189.159C110.558,252.648,31.592,341.534,18.1,426.85c-7.539,46.427,5.554,88.092,37.3,121.425,45.236,47.22,122.615,70.632,211.9,70.632,94.441,0,201.58-26.189,298.4-77.776,119.044-63.491,198.009-152.376,211.5-237.69,7.541-46.428-5.554-88.092-37.3-121.425-45.22-47.153-122.692-70.589-212.078-70.584-94.157,0-201.529,26.02-298.223,77.727" transform="translate(-16.022 -111.432)" fill="none"/>
    </clipPath>
    <linearGradient id="linear-gradient-35" x1="-0.021" y1="1.295" x2="-0.019" y2="1.295" xlink:href="#linear-gradient-22"/>
    <clipPath id="clip-path-36">
      <path id="Path_281" data-name="Path 281" d="M44.378,532.3c-29.364-39.68-37.7-86.9-25-137.3C42,306.116,127.71,220.006,248.339,164.055c84.126-38.887,173.8-57.933,255.549-57.933,108.329,0,202.771,33.33,250.786,97.616,29.365,39.68,37.7,86.9,25,137.3C757.056,429.92,671.344,516.029,550.712,571.979,466.482,611.025,376.545,630,294.738,630c-108.582,0-202.835-33.427-250.36-97.7M247.151,161.675C125.725,217.624,40.014,304.924,17,394.208,3.9,445,12.635,493.41,42.394,533.488,90.408,598.566,185.643,632.3,295.164,632.3c82.141,0,172.217-19.047,256.342-58.331,121.425-55.952,207.136-143.25,230.152-232.533,13.1-51.19,4.366-99.2-25.4-139.282-48.069-64.849-143.135-98.6-252.545-98.594-82.064.005-172.212,19-256.566,58.12" transform="translate(-11.085 -103.555)" fill="none"/>
    </clipPath>
    <linearGradient id="linear-gradient-36" x1="-0.01" y1="1.263" x2="-0.008" y2="1.263" xlink:href="#linear-gradient-22"/>
    <clipPath id="clip-path-37">
      <path id="Path_282" data-name="Path 282" d="M32.672,515.939C6.085,468.321,2.116,413.561,21.958,358.006c32.537-91.265,124.6-174.2,246.023-221.818,69.838-27.777,142.853-40.871,211.1-40.871,128.965,0,241.658,46.823,289.674,132.139,26.587,47.618,30.554,102.378,10.714,157.931-32.539,91.268-124.6,174.2-246.023,221.82-70.087,27.43-142.8,40.5-211.008,40.495C193.323,647.7,80.449,600.847,32.672,515.939M266.792,134.2C144.573,182.218,52.115,265.549,19.577,357.61c-19.84,55.951-16.268,111.108,11.11,159.52,48.412,85.712,161.9,132.932,291.659,132.932,68.647,0,141.662-13.492,211.9-40.872,122.219-48.014,214.677-131.345,247.214-223.405,19.84-55.95,16.269-111.108-11.11-159.518C722.051,140.577,608.705,93.29,478.956,93.3c-68.536,0-141.667,13.2-212.164,40.907" transform="translate(-6.997 -93.297)" fill="none"/>
    </clipPath>
    <linearGradient id="linear-gradient-37" x1="-0.003" y1="1.224" x2="-0.001" y2="1.224" xlink:href="#linear-gradient-22"/>
    <clipPath id="clip-path-38">
      <path id="Path_283" data-name="Path 283" d="M22.572,497.2c-23.81-57.142-21.429-119.44,6.746-180.551,42.457-91.663,140.075-169.439,260.7-208.327A547.946,547.946,0,0,1,456.287,82.132c148.8,0,279.356,64.283,324.594,172.612,23.809,57.142,21.427,119.442-6.745,180.551-42.46,91.664-140.076,169.439-260.707,208.327a547.862,547.862,0,0,1-166.265,26.19c-148.8,0-279.356-64.283-324.593-172.613M289.228,105.941C167.8,145.225,70.188,223.4,27.332,315.855c-28.57,61.9-30.952,125-6.745,182.533C66.219,607.513,197.564,672.193,347.559,672.193A550.38,550.38,0,0,0,514.221,646c121.425-39.284,219.042-117.457,261.9-209.914,28.57-61.9,30.95-125,6.745-182.534C737.408,144.285,605.972,79.52,456.046,79.531a548.16,548.16,0,0,0-166.818,26.41" transform="translate(-4.02 -79.531)" fill="none"/>
    </clipPath>
    <linearGradient id="linear-gradient-38" x1="0.003" y1="1.181" x2="0.004" y2="1.181" xlink:href="#linear-gradient-22"/>
    <clipPath id="clip-path-39">
      <path id="Path_284" data-name="Path 284" d="M13.71,477.652C-6.131,409.8,3.788,338.766,41.883,272.1,94.659,180.439,193.863,111,314.1,81.235A501.79,501.79,0,0,1,435.919,66.156c168.248,0,315.466,85.711,354.355,219.835,19.84,67.855,9.919,138.884-28.175,205.549C709.322,583.2,610.12,652.645,489.884,682.406a501.718,501.718,0,0,1-121.82,15.08c-167.852,0-315.07-85.712-354.354-219.834M314.1,78.457c-120.631,30.157-220.231,100-273.4,192.057C1.8,337.576-7.719,409.4,12.122,477.65,51.405,612.567,199.814,699.072,368.856,699.072a504.938,504.938,0,0,0,122.218-15.079C611.706,653.836,711.307,584,764.48,491.936c38.887-67.061,48.41-138.885,28.57-207.137C753.566,149.977,605.571,63.455,436.384,63.467A511.214,511.214,0,0,0,314.1,78.457" transform="translate(-2.067 -63.467)" fill="none"/>
    </clipPath>
    <linearGradient id="linear-gradient-39" x1="0.009" y1="1.135" x2="0.01" y2="1.135" xlink:href="#linear-gradient-22"/>
    <clipPath id="clip-path-40">
      <path id="Path_285" data-name="Path 285" d="M7.436,454.516C-6.848,375.552,12.2,293.41,61.4,223.175c61.507-87.7,163.488-149.2,279.754-169.043a448.5,448.5,0,0,1,78.966-6.746c186.5,0,348,111.9,377.764,273.8,14.284,78.966-4.761,161.107-53.966,231.342-61.506,87.7-163.487,149.2-279.753,169.043a448.52,448.52,0,0,1-78.966,6.745c-186.5,0-348-112.3-377.766-273.8M341.155,51.751C224.1,71.591,121.719,133.494,59.815,221.983,10.214,293.014-9.23,375.948,5.453,455.31,35.61,618,197.906,730.7,385.6,730.7c25.792,0,52.378-2.381,79.361-6.35C582.021,704.508,684.4,642.607,746.3,554.116c49.206-71.028,68.65-153.963,53.968-233.326C770.288,157.986,607.7,45.1,420.117,45.11a475.435,475.435,0,0,0-78.962,6.641" transform="translate(-0.675 -45.11)" fill="none"/>
    </clipPath>
    <linearGradient id="linear-gradient-40" x1="0.011" y1="1.088" x2="0.013" y2="1.088" xlink:href="#linear-gradient-22"/>
    <clipPath id="clip-path-41">
      <path id="Path_286" data-name="Path 286" d="M3.3,429.976C-14.159,227.205,150.518,47.052,370.75,27.608c13.094-1.191,26.189-1.587,38.887-1.587,92.854,0,181.74,29.363,252.372,84.52,81.347,62.7,130.948,151.583,139.678,249.6s-24.6,194.042-94.043,269.832C638.2,706.158,541.379,752.983,434.637,762.506c-12.7,1.191-25.4,1.587-38.095,1.587C192.58,764.093,19.966,620.844,3.3,429.976M370.75,25.624C160.424,44.094.224,208.651,0,399.907v.833q.02,14.714,1.317,29.634c16.666,191.661,190.47,336.1,395.622,336.1,12.7,0,25.792-.793,38.492-1.586,107.139-9.128,204.755-56.348,274.594-132.932s103.567-173.011,94.839-271.818S746.532,172.048,664.392,108.956C592.3,53.578,503.1,23.88,409.915,23.881q-19.478,0-39.165,1.743" transform="translate(0 -23.881)" fill="none"/>
    </clipPath>
    <linearGradient id="linear-gradient-41" x1="0.017" y1="1.043" x2="0.019" y2="1.043" xlink:href="#linear-gradient-22"/>
    <clipPath id="clip-path-42">
      <path id="Path_287" data-name="Path 287" d="M2.474,402.764C2.474,181.74,182.23,1.984,403.256,1.984s400.782,180.153,400.782,400.78c0,221.025-179.756,400.782-400.782,400.782S2.474,623.789,2.474,402.764M403.256,0C181.041,0,.094,180.947.094,403.162S181.041,806.323,403.256,806.323,806.417,625.376,806.417,403.162,625.472,0,403.256,0Z" transform="translate(-0.094)" fill="none"/>
    </clipPath>
    <linearGradient id="linear-gradient-42" x1="0" y1="1" x2="0.002" y2="1" xlink:href="#linear-gradient-22"/>
  </defs>
  <g id="Group_1033" data-name="Group 1033" transform="translate(987 -5603)">
    <g id="Rectangle_498" data-name="Rectangle 498" transform="translate(-987 5603)" fill="#fff" stroke="#707070" stroke-width="1">
      <rect width="1920" height="1080" stroke="none"/>
      <rect x="0.5" y="0.5" width="1919" height="1079" fill="none"/>
    </g>
    <g id="Group_1031" data-name="Group 1031" transform="translate(-954.645 5695.408)">
      <g id="Group_77" data-name="Group 77" transform="translate(183.09 209.659)">
        <g id="Group_76" data-name="Group 76" clip-path="url(#clip-path)">
          <rect id="Rectangle_84" data-name="Rectangle 84" width="342.183" height="281.731" transform="translate(-3.59 -0.001)" fill="url(#linear-gradient)"/>
        </g>
      </g>
      <g id="Group_79" data-name="Group 79" transform="translate(179.292 202.615)">
        <g id="Group_78" data-name="Group 78" clip-path="url(#clip-path-2)">
          <rect id="Rectangle_85" data-name="Rectangle 85" width="350.807" height="334.851" transform="translate(-3.996 -19.449)" fill="url(#linear-gradient-2)"/>
        </g>
      </g>
      <g id="Group_81" data-name="Group 81" transform="translate(177.02 192.486)">
        <g id="Group_80" data-name="Group 80" clip-path="url(#clip-path-3)">
          <rect id="Rectangle_86" data-name="Rectangle 86" width="357.492" height="316.261" transform="translate(-5.173)" fill="url(#linear-gradient-3)"/>
        </g>
      </g>
      <g id="Group_83" data-name="Group 83" transform="translate(176.313 179.614)">
        <g id="Group_82" data-name="Group 82" clip-path="url(#clip-path-4)">
          <rect id="Rectangle_87" data-name="Rectangle 87" width="356.628" height="341.853" transform="translate(-4.036)" fill="url(#linear-gradient-4)"/>
        </g>
      </g>
      <g id="Group_85" data-name="Group 85" transform="translate(176.279 164.947)">
        <g id="Group_84" data-name="Group 84" clip-path="url(#clip-path-5)">
          <rect id="Rectangle_88" data-name="Rectangle 88" width="372.692" height="371.401" transform="translate(-11.98 -0.002)" fill="url(#linear-gradient-5)"/>
        </g>
      </g>
      <g id="Group_87" data-name="Group 87" transform="translate(175.896 149.023)">
        <g id="Group_86" data-name="Group 86" clip-path="url(#clip-path-6)">
          <rect id="Rectangle_89" data-name="Rectangle 89" width="394.254" height="403.063" transform="translate(-22.377 -0.001)" fill="url(#linear-gradient-6)"/>
        </g>
      </g>
      <g id="Group_89" data-name="Group 89" transform="translate(174.091 133.343)">
        <g id="Group_88" data-name="Group 88" clip-path="url(#clip-path-7)">
          <rect id="Rectangle_90" data-name="Rectangle 90" width="402.34" height="438.887" transform="translate(-24.669 -4.405)" fill="url(#linear-gradient-7)"/>
        </g>
      </g>
      <g id="Group_91" data-name="Group 91" transform="translate(169.474 118.673)">
        <g id="Group_90" data-name="Group 90" clip-path="url(#clip-path-8)">
          <rect id="Rectangle_91" data-name="Rectangle 91" width="398.89" height="463.922" transform="translate(-18.327 0)" fill="url(#linear-gradient-8)"/>
        </g>
      </g>
      <g id="Group_93" data-name="Group 93" transform="translate(161.222 105.8)">
        <g id="Group_92" data-name="Group 92" clip-path="url(#clip-path-9)">
          <rect id="Rectangle_92" data-name="Rectangle 92" width="432.312" height="489.734" transform="translate(-26.786 -0.002)" fill="url(#linear-gradient-9)"/>
        </g>
      </g>
      <g id="Group_95" data-name="Group 95" transform="translate(148.964 95.103)">
        <g id="Group_94" data-name="Group 94" clip-path="url(#clip-path-10)">
          <rect id="Rectangle_93" data-name="Rectangle 93" width="451.823" height="510.778" transform="translate(-24.229 0)" fill="url(#linear-gradient-10)"/>
        </g>
      </g>
      <g id="Group_97" data-name="Group 97" transform="translate(132.913 87.382)">
        <g id="Group_96" data-name="Group 96" clip-path="url(#clip-path-11)">
          <rect id="Rectangle_94" data-name="Rectangle 94" width="455.813" height="526.371" transform="translate(-10.336 -0.002)" fill="url(#linear-gradient-11)"/>
        </g>
      </g>
      <g id="Group_99" data-name="Group 99" transform="translate(114.375 82.802)">
        <g id="Group_98" data-name="Group 98" clip-path="url(#clip-path-12)">
          <rect id="Rectangle_95" data-name="Rectangle 95" width="483.412" height="535.586" transform="translate(-5.381 -0.001)" fill="url(#linear-gradient-12)"/>
        </g>
      </g>
      <g id="Group_101" data-name="Group 101" transform="translate(94.043 80.61)">
        <g id="Group_100" data-name="Group 100" clip-path="url(#clip-path-13)">
          <rect id="Rectangle_96" data-name="Rectangle 96" width="533.435" height="539.935" transform="translate(-10.169 -0.001)" fill="url(#linear-gradient-13)"/>
        </g>
      </g>
      <g id="Group_103" data-name="Group 103" transform="translate(73.369 80.076)">
        <g id="Group_102" data-name="Group 102" clip-path="url(#clip-path-14)">
          <rect id="Rectangle_97" data-name="Rectangle 97" width="573.539" height="544.754" transform="translate(-9.546 -3.748)" fill="url(#linear-gradient-14)"/>
        </g>
      </g>
      <g id="Group_105" data-name="Group 105" transform="translate(53.882 80.03)">
        <g id="Group_104" data-name="Group 104" clip-path="url(#clip-path-15)">
          <rect id="Rectangle_98" data-name="Rectangle 98" width="620.435" height="541.17" transform="translate(-13.454 -0.01)" fill="url(#linear-gradient-15)"/>
        </g>
      </g>
      <g id="Group_107" data-name="Group 107" transform="translate(36.581 78.669)">
        <g id="Group_106" data-name="Group 106" clip-path="url(#clip-path-16)">
          <rect id="Rectangle_99" data-name="Rectangle 99" width="649.436" height="543.815" transform="translate(-10.6 0)" fill="url(#linear-gradient-16)"/>
        </g>
      </g>
      <g id="Group_109" data-name="Group 109" transform="translate(22.19 74.134)">
        <g id="Group_108" data-name="Group 108" clip-path="url(#clip-path-17)">
          <rect id="Rectangle_100" data-name="Rectangle 100" width="658.276" height="552.884" transform="translate(-0.736 -0.007)" fill="url(#linear-gradient-17)"/>
        </g>
      </g>
      <g id="Group_111" data-name="Group 111" transform="translate(11.625 64.533)">
        <g id="Group_110" data-name="Group 110" clip-path="url(#clip-path-18)">
          <rect id="Rectangle_101" data-name="Rectangle 101" width="694.608" height="572.188" transform="translate(-8.283 -0.006)" fill="url(#linear-gradient-18)"/>
        </g>
      </g>
      <g id="Group_113" data-name="Group 113" transform="translate(4.589 48.533)">
        <g id="Group_112" data-name="Group 112" clip-path="url(#clip-path-19)">
          <rect id="Rectangle_102" data-name="Rectangle 102" width="707.006" height="603.921" transform="translate(-7.5 0)" fill="url(#linear-gradient-19)"/>
        </g>
      </g>
      <g id="Group_115" data-name="Group 115" transform="translate(0.89 26.835)">
        <g id="Group_114" data-name="Group 114" clip-path="url(#clip-path-20)">
          <rect id="Rectangle_103" data-name="Rectangle 103" width="738.702" height="647.505" transform="translate(-10.916 0)" fill="url(#linear-gradient-20)"/>
        </g>
      </g>
      <g id="Group_117" data-name="Group 117">
        <g id="Group_116" data-name="Group 116" clip-path="url(#clip-path-21)">
          <rect id="Rectangle_104" data-name="Rectangle 104" width="701.291" height="701.184" transform="translate(0 0)" fill="url(#linear-gradient-21)"/>
        </g>
      </g>
    </g>
    <g id="Group_1032" data-name="Group 1032" transform="translate(88 5876.677)" opacity="0.44">
      <g id="Group_183" data-name="Group 183" transform="translate(186.496 176.664)">
        <g id="Group_182" data-name="Group 182" clip-path="url(#clip-path-22)">
          <rect id="Rectangle_128" data-name="Rectangle 128" width="448.796" height="459.906" transform="translate(-7.804 -3.257)" fill="url(#linear-gradient-22)"/>
        </g>
      </g>
      <g id="Group_185" data-name="Group 185" transform="translate(171.782 174.087)">
        <g id="Group_184" data-name="Group 184" clip-path="url(#clip-path-23)">
          <rect id="Rectangle_129" data-name="Rectangle 129" width="481.732" height="458.432" transform="translate(-9.36 0)" fill="url(#linear-gradient-23)"/>
        </g>
      </g>
      <g id="Group_187" data-name="Group 187" transform="translate(157.013 171.576)">
        <g id="Group_186" data-name="Group 186" clip-path="url(#clip-path-24)">
          <rect id="Rectangle_130" data-name="Rectangle 130" width="514.666" height="463.327" transform="translate(-10.86 -0.001)" fill="url(#linear-gradient-24)"/>
        </g>
      </g>
      <g id="Group_189" data-name="Group 189" transform="translate(141.88 169.57)">
        <g id="Group_188" data-name="Group 188" clip-path="url(#clip-path-25)">
          <rect id="Rectangle_131" data-name="Rectangle 131" width="546.411" height="466.917" transform="translate(-11.997 -0.001)" fill="url(#linear-gradient-25)"/>
        </g>
      </g>
      <g id="Group_191" data-name="Group 191" transform="translate(127.07 168.964)">
        <g id="Group_190" data-name="Group 190" clip-path="url(#clip-path-26)">
          <rect id="Rectangle_132" data-name="Rectangle 132" width="578.553" height="468.715" transform="translate(-13.058 -0.001)" fill="url(#linear-gradient-26)"/>
        </g>
      </g>
      <g id="Group_193" data-name="Group 193" transform="translate(112.586 168.257)">
        <g id="Group_192" data-name="Group 192" clip-path="url(#clip-path-27)">
          <rect id="Rectangle_133" data-name="Rectangle 133" width="608.314" height="470.619" transform="translate(-13.653 -0.802)" fill="url(#linear-gradient-27)"/>
        </g>
      </g>
      <g id="Group_195" data-name="Group 195" transform="translate(98.789 168.248)">
        <g id="Group_194" data-name="Group 194" clip-path="url(#clip-path-28)">
          <rect id="Rectangle_134" data-name="Rectangle 134" width="636.486" height="469.825" transform="translate(-13.744 0)" fill="url(#linear-gradient-28)"/>
        </g>
      </g>
      <g id="Group_197" data-name="Group 197" transform="translate(84.987 168.499)">
        <g id="Group_196" data-name="Group 196" clip-path="url(#clip-path-29)">
          <rect id="Rectangle_135" data-name="Rectangle 135" width="663.074" height="469.575" transform="translate(-13.435 0)" fill="url(#linear-gradient-29)"/>
        </g>
      </g>
      <g id="Group_199" data-name="Group 199" transform="translate(72.031 167.922)">
        <g id="Group_198" data-name="Group 198" clip-path="url(#clip-path-30)">
          <rect id="Rectangle_136" data-name="Rectangle 136" width="686.883" height="470.55" transform="translate(-12.383 0)" fill="url(#linear-gradient-30)"/>
        </g>
      </g>
      <g id="Group_201" data-name="Group 201" transform="translate(59.9 167.036)">
        <g id="Group_200" data-name="Group 200" clip-path="url(#clip-path-31)">
          <rect id="Rectangle_137" data-name="Rectangle 137" width="706.327" height="471.834" transform="translate(-10.171 -0.003)" fill="url(#linear-gradient-31)"/>
        </g>
      </g>
      <g id="Group_203" data-name="Group 203" transform="translate(48.668 165.338)">
        <g id="Group_202" data-name="Group 202" clip-path="url(#clip-path-32)">
          <rect id="Rectangle_138" data-name="Rectangle 138" width="722.595" height="475.117" transform="translate(-6.876 0)" fill="url(#linear-gradient-32)"/>
        </g>
      </g>
      <g id="Group_205" data-name="Group 205" transform="translate(38.587 162.591)">
        <g id="Group_204" data-name="Group 204" clip-path="url(#clip-path-33)">
          <rect id="Rectangle_139" data-name="Rectangle 139" width="732.119" height="481.041" transform="translate(-1.557 -0.001)" fill="url(#linear-gradient-33)"/>
        </g>
      </g>
      <g id="Group_207" data-name="Group 207" transform="translate(29.583 157.055)">
        <g id="Group_206" data-name="Group 206" clip-path="url(#clip-path-34)">
          <rect id="Rectangle_140" data-name="Rectangle 140" width="752.357" height="491.735" transform="translate(-2.474 -0.001)" fill="url(#linear-gradient-34)"/>
        </g>
      </g>
      <g id="Group_209" data-name="Group 209" transform="translate(21.46 149.249)">
        <g id="Group_208" data-name="Group 208" clip-path="url(#clip-path-35)">
          <rect id="Rectangle_141" data-name="Rectangle 141" width="774.184" height="507.48" transform="translate(-5.461 -0.005)" fill="url(#linear-gradient-35)"/>
        </g>
      </g>
      <g id="Group_211" data-name="Group 211" transform="translate(14.847 138.699)">
        <g id="Group_210" data-name="Group 210" clip-path="url(#clip-path-36)">
          <rect id="Rectangle_142" data-name="Rectangle 142" width="790.848" height="528.748" transform="translate(-7.181 -0.008)" fill="url(#linear-gradient-36)"/>
        </g>
      </g>
      <g id="Group_213" data-name="Group 213" transform="translate(9.371 124.96)">
        <g id="Group_212" data-name="Group 212" clip-path="url(#clip-path-37)">
          <rect id="Rectangle_143" data-name="Rectangle 143" width="801.561" height="556.771" transform="translate(-7.26 -0.007)" fill="url(#linear-gradient-37)"/>
        </g>
      </g>
      <g id="Group_215" data-name="Group 215" transform="translate(5.384 106.522)">
        <g id="Group_214" data-name="Group 214" clip-path="url(#clip-path-38)">
          <rect id="Rectangle_144" data-name="Rectangle 144" width="810.688" height="592.673" transform="translate(-7.64 -0.011)" fill="url(#linear-gradient-38)"/>
        </g>
      </g>
      <g id="Group_217" data-name="Group 217" transform="translate(2.769 85.006)">
        <g id="Group_216" data-name="Group 216" clip-path="url(#clip-path-39)">
          <rect id="Rectangle_145" data-name="Rectangle 145" width="820.609" height="635.617" transform="translate(-9.786 -0.012)" fill="url(#linear-gradient-39)"/>
        </g>
      </g>
      <g id="Group_219" data-name="Group 219" transform="translate(0.904 60.419)">
        <g id="Group_218" data-name="Group 218" clip-path="url(#clip-path-40)">
          <rect id="Rectangle_146" data-name="Rectangle 146" width="824.18" height="685.595" transform="translate(-9.904 -0.005)" fill="url(#linear-gradient-40)"/>
        </g>
      </g>
      <g id="Group_221" data-name="Group 221" transform="translate(0 31.986)">
        <g id="Group_220" data-name="Group 220" clip-path="url(#clip-path-41)">
          <rect id="Rectangle_147" data-name="Rectangle 147" width="827.751" height="742.593" transform="translate(-14.159 -0.001)" fill="url(#linear-gradient-41)"/>
        </g>
      </g>
      <g id="Group_223" data-name="Group 223" transform="translate(0.126)">
        <g id="Group_222" data-name="Group 222" clip-path="url(#clip-path-42)">
          <rect id="Rectangle_148" data-name="Rectangle 148" width="806.323" height="806.323" transform="translate(0 0)" fill="url(#linear-gradient-42)"/>
        </g>
      </g>
    </g>
  </g>
</svg>
