<svg xmlns="http://www.w3.org/2000/svg" xmlns:xlink="http://www.w3.org/1999/xlink" width="806.449" height="806.323" viewBox="0 0 806.449 806.323">
  <defs>
    <clipPath id="clip-path">
      <path id="Path_267" data-name="Path 267" d="M557.615,146.9c20.238,20.633,15.477,65.473-12.7,123.011C489.363,384.192,358.812,516.331,254.052,564.741c-46.823,21.824-82.538,23.807-100.393,5.556-20.238-20.634-15.477-65.475,12.7-123.012C221.911,333,352.462,200.863,457.221,152.451l-.4-1.191.4,1.191c46.825-21.824,82.538-23.809,100.394-5.554m-101.187,3.174C351.271,198.482,220.323,331.415,164.373,445.7c-28.572,58.729-32.937,104.759-12.3,125.79,8.334,8.73,20.636,13.1,36.111,13.1,18.253,0,40.87-5.952,67.061-18.254C360.4,517.916,491.346,384.985,547.3,270.7c28.571-58.728,32.935-104.757,12.3-125.789-8.52-8.7-20.763-13.012-36.128-13.012-18.273,0-40.961,6.1-67.042,18.171" transform="translate(-139.241 -131.9)" fill="none"/>
    </clipPath>
    <linearGradient id="linear-gradient" x1="-0.398" y1="1.376" x2="-0.395" y2="1.376" gradientUnits="objectBoundingBox">
      <stop offset="0"/>
      <stop offset="1" stop-color="#14213d"/>
    </linearGradient>
    <clipPath id="clip-path-2">
      <path id="Path_268" data-name="Path 268" d="M141.513,571.346c-20.238-23.412-12.3-72.221,21.825-134.124,65.076-118.25,206.739-249.2,315.466-291.657,23.015-9.126,42.856-13.492,59.522-13.492,17.46,0,30.555,4.763,39.284,14.682,20.238,23.412,12.3,72.219-21.824,134.122-65.078,118.251-206.741,249.2-315.467,291.659-22.8,9.08-42.864,13.55-59.381,13.55-17.408,0-30.873-4.968-39.425-14.741m336.5-427.765c-109.124,42.855-251.184,173.8-316.657,292.45-34.92,62.7-42.46,112.7-21.429,136.9,8.73,10.317,23.016,15.477,40.872,15.477,17.064,0,37.3-4.763,60.713-13.492,109.123-42.856,251.184-173.8,316.657-292.45,34.919-62.7,42.46-112.7,21.427-136.9-9-10.428-22.946-15.589-40.926-15.589-16.91,0-37.386,4.566-60.658,13.605" transform="translate(-128.255 -129.976)" fill="none"/>
    </clipPath>
    <linearGradient id="linear-gradient-2" x1="-0.337" y1="1.379" x2="-0.334" y2="1.379" xlink:href="#linear-gradient"/>
    <clipPath id="clip-path-3">
      <path id="Path_269" data-name="Path 269" d="M129.383,571.188c-20.633-26.587-9.127-79.76,31.746-145.63C236.522,303.736,388.9,175.566,500.8,139.853c19.444-6.349,36.905-9.524,51.586-9.524,20.238,0,35.713,5.952,45.236,17.858,20.636,26.585,9.128,79.759-31.745,145.629C490.483,415.637,338.106,543.807,226.2,579.52c-19.61,6.317-36.987,9.429-51.736,9.429-20.464,0-35.86-6-45.086-17.761M500.4,137.471c-112.7,36.11-265.467,164.678-341.26,286.9-41.268,66.663-52.775,121.026-31.347,148.407,9.524,12.3,25.792,18.651,46.823,18.651,14.682,0,32.539-3.176,52.379-9.524,112.694-36.111,265.468-164.678,341.26-286.9,41.269-66.665,52.775-121.027,31.348-148.408-9.752-12.306-25.75-18.5-46.888-18.5-14.988,0-32.562,3.114-52.316,9.37" transform="translate(-117.229 -128.101)" fill="none"/>
    </clipPath>
    <linearGradient id="linear-gradient-3" x1="-0.284" y1="1.37" x2="-0.281" y2="1.37" xlink:href="#linear-gradient"/>
    <clipPath id="clip-path-4">
      <path id="Path_270" data-name="Path 270" d="M117.345,569.711c-21.031-30.157-5.556-87.7,42.458-157.534,85.712-124.6,248.8-249.2,363.481-277.373,15.873-3.969,30.157-5.952,42.458-5.952,23.81,0,41.27,7.539,51.587,21.824,21.031,30.157,5.556,87.7-42.46,157.536-85.713,124.6-248.8,249.2-363.481,277.373-15.781,3.911-29.956,5.85-42.387,5.85-24.142,0-41.7-7.317-51.657-21.725M522.491,132.425C407.415,160.6,243.929,285.595,157.82,410.591,109.408,481.223,93.933,539.95,115.362,570.9c10.317,15.079,28.569,22.617,53.57,22.617,12.3,0,26.983-1.982,42.855-5.951C326.863,559.4,490.35,434.4,576.457,309.4c48.412-70.635,63.887-129.362,42.46-160.313C608.658,134.1,590.561,126.6,565.652,126.6c-12.67,0-27.106,1.941-43.161,5.821" transform="translate(-105.93 -126.604)" fill="none"/>
    </clipPath>
    <linearGradient id="linear-gradient-4" x1="-0.238" y1="1.364" x2="-0.235" y2="1.364" xlink:href="#linear-gradient"/>
    <clipPath id="clip-path-5">
      <path id="Path_271" data-name="Path 271" d="M105.225,566.3c-20.633-34.126,0-97.22,54.76-169.44,96.029-126.98,269.437-246.025,386.1-265.865a171.315,171.315,0,0,1,30.555-2.777c28.967,0,49.6,8.729,60.315,26.189,20.633,34.126,0,97.22-54.76,169.439C486.165,450.823,312.758,569.865,196.1,589.707a190.259,190.259,0,0,1-30.846,2.76c-29.062,0-49.53-8.782-60.024-26.171M545.687,129.007v0C428.629,148.848,254.427,268.287,158,395.666c-55.951,73.808-76.188,136.5-54.762,171.819,10.715,18.254,32.144,27.38,61.9,27.38,9.523,0,19.84-1.191,31.347-2.776,117.06-19.842,291.261-139.282,387.687-266.659,55.951-73.808,76.189-136.5,54.76-171.819-11.146-18.076-32.353-27.46-62.234-27.459a185.045,185.045,0,0,0-31.017,2.856" transform="translate(-94.872 -126.151)" fill="none"/>
    </clipPath>
    <linearGradient id="linear-gradient-5" x1="-0.197" y1="1.36" x2="-0.195" y2="1.36" xlink:href="#linear-gradient"/>
    <clipPath id="clip-path-6">
      <path id="Path_272" data-name="Path 272" d="M93.022,560.918c-20.237-38.092,5.159-105.947,67.855-180.946C268.017,251.8,450.949,139.107,568.8,128.789v0c44.045-3.969,74.2,7.143,86.9,31.348,20.237,38.095-5.158,105.949-67.855,180.946C480.709,469.255,297.778,581.95,179.924,592.267q-8.77.79-16.8.787c-34.947,0-59.092-11.145-70.106-32.137M568.8,126.408c-118.646,10.316-302.371,123.409-409.51,251.977C96.2,454.175,70.406,522.824,91.04,562.11c11.507,21.824,36.108,33.33,72.219,33.33,5.556,0,11.11-.4,17.064-.793C298.97,584.33,482.694,471.238,589.833,342.672c63.093-75.793,88.886-144.441,68.252-183.725-11.366-22.043-36.182-33.324-72.119-33.324q-8.2,0-17.164.785" transform="translate(-84.058 -125.623)" fill="none"/>
    </clipPath>
    <linearGradient id="linear-gradient-6" x1="-0.163" y1="1.358" x2="-0.16" y2="1.358" xlink:href="#linear-gradient"/>
    <clipPath id="clip-path-7">
      <path id="Path_273" data-name="Path 273" d="M81.043,553.382C62,510.128,92.949,438.305,163.581,360.927,281.434,232.359,473.491,127.6,591.742,127.6c42.856.4,71.824,13.889,82.933,39.683,19.047,43.253-11.9,115.075-82.538,192.454C474.284,488.3,282.228,593.062,163.976,593.062c-42.855,0-71.425-13.888-82.933-39.68M162.39,359.736C90.964,437.511,60.014,510.524,79.457,554.571c11.507,26.587,40.87,40.871,84.916,40.871,118.647,0,311.5-105.154,429.75-234.119,71.425-77.775,102.377-150.788,82.934-194.835-11.906-26.587-41.269-40.871-84.919-40.871-118.647,0-311.5,105.156-429.748,234.119" transform="translate(-73.757 -125.617)" fill="none"/>
    </clipPath>
    <linearGradient id="linear-gradient-7" x1="-0.134" y1="1.358" x2="-0.132" y2="1.358" xlink:href="#linear-gradient"/>
    <clipPath id="clip-path-8">
      <path id="Path_274" data-name="Path 274" d="M148.427,591.808c-41.269-3.969-68.252-20.633-78.173-48.014-17.46-48.412,19.047-124.6,98.014-203.169C289.693,219.2,475.8,127.536,595.239,127.536c6.746,0,13.492.4,19.84.8,41.269,3.967,68.252,20.633,78.171,48.014,17.461,48.41-19.047,124.6-98.011,203.167C473.506,500.87,287.4,592.7,167.919,592.689c-6.709,0-13.228-.291-19.492-.881m17.858-252.372C86.922,418.4,50.018,495.384,67.874,544.985c10.317,28.57,38.095,45.633,80.156,49.6,6.35.4,13.1.793,19.84.793,120.235,0,306.737-92.059,428.955-213.483,79.363-78.967,116.266-155.948,98.411-205.55-10.317-28.57-38.093-45.634-80.156-49.6q-9.744-.944-20.2-.939c-120.256,0-306.692,92.1-428.6,213.632" transform="translate(-63.453 -125.804)" fill="none"/>
    </clipPath>
    <linearGradient id="linear-gradient-8" x1="-0.108" y1="1.358" x2="-0.106" y2="1.358" xlink:href="#linear-gradient"/>
    <clipPath id="clip-path-9">
      <path id="Path_275" data-name="Path 275" d="M132.266,589.573c-39.682-7.935-64.68-27.776-73.013-57.139C44.174,477.672,87.03,397.913,173.932,318.948,297.34,206.649,475.113,127.682,594.95,127.682a205.908,205.908,0,0,1,42.46,3.969c39.68,7.937,64.68,27.777,73.013,57.142,15.079,54.76-27.777,134.52-114.679,213.486-123.41,112.3-301.182,191.263-421.02,191.263a205.718,205.718,0,0,1-42.458-3.969m40.08-272.214C84.649,397.119,41.4,478.068,56.871,533.227c8.334,30.157,34.522,50.4,75,58.729,13.1,2.776,27.381,3.967,42.856,3.967,120.236-.4,298.8-79.363,422.607-192.058C685.027,324.106,728.279,243.155,712.8,188c-8.332-30.157-34.524-50.792-75-58.728a218.238,218.238,0,0,0-42.67-3.9c-120.39.005-298.8,79.267-422.79,191.986" transform="translate(-53.78 -125.373)" fill="none"/>
    </clipPath>
    <linearGradient id="linear-gradient-9" x1="-0.087" y1="1.357" x2="-0.085" y2="1.357" xlink:href="#linear-gradient"/>
    <clipPath id="clip-path-10">
      <path id="Path_276" data-name="Path 276" d="M116.691,585.036c-38.095-12.3-61.109-35.315-67.458-67.061-11.906-60.713,37.7-143.645,132.534-222.215C304.779,193.382,472.235,127.113,590.882,127.113q38.092,0,69.045,9.524c38.095,12.3,61.109,35.317,67.458,67.061,11.9,60.713-37.7,143.646-132.534,222.216-123.22,102.3-290.582,168.528-409.415,168.526-25.44,0-48.664-3.038-68.745-9.405m63.093-291.261C84.55,373.138,34.551,456.865,46.454,518.372c6.35,32.538,30.157,56.346,69.045,68.648,20.239,6.349,43.65,9.523,69.444,9.523,119.44,0,287.292-66.663,410.7-169.043,95.234-79.362,145.234-163.089,133.328-224.595-6.347-32.54-30.156-56.349-69.043-68.65-20.242-6.466-43.637-9.547-69.3-9.544-119.245.008-287.087,66.534-410.842,169.063" transform="translate(-44.722 -124.712)" fill="none"/>
    </clipPath>
    <linearGradient id="linear-gradient-10" x1="-0.07" y1="1.355" x2="-0.069" y2="1.355" xlink:href="#linear-gradient"/>
    <clipPath id="clip-path-11">
      <path id="Path_277" data-name="Path 277" d="M100.489,578.324C64.38,561.657,42.951,535.072,39.38,500.55c-7.143-67.063,49.6-152.775,151.581-229.359C311.2,180.717,465.954,125.957,581.823,125.957c38.094,0,71.824,5.952,99.2,18.254,36.108,16.665,57.538,43.253,61.108,77.775,7.143,67.061-49.6,152.773-151.583,229.359-120.5,90.6-275,145.151-391.054,145.143-37.957,0-71.821-5.841-99.009-18.163m88.885-309.515C86.6,346.188,29.46,432.694,37,500.55c3.969,35.315,25.4,63.093,62.7,79.758,27.777,12.3,61.9,18.253,100,18.253,116.664,0,271.422-54.759,392.449-145.234,102.774-77.378,159.914-163.883,152.376-231.738-3.969-35.318-25.4-63.094-62.7-79.76-27.505-12.476-61.722-18.386-100.081-18.386-116.59,0-271.441,54.6-392.365,145.365" transform="translate(-36.336 -123.444)" fill="none"/>
    </clipPath>
    <linearGradient id="linear-gradient-11" x1="-0.058" y1="1.349" x2="-0.056" y2="1.349" xlink:href="#linear-gradient"/>
    <clipPath id="clip-path-12">
      <path id="Path_278" data-name="Path 278" d="M85.186,569.5c-34.92-21.031-53.57-52.379-54.363-89.679C29.236,406.406,93.123,318.71,201.85,245.3,316.926,167.127,457,123.478,568.107,123.478c52.777,0,99.2,9.919,132.932,30.952,34.922,21.031,53.57,52.379,54.365,89.679,1.586,73.41-62.3,161.106-171.028,234.515C469.221,556.382,329.264,600.207,218.171,600.205c-52.751,0-99-9.885-132.985-30.709M200.66,243.316c-109.124,73.806-173.408,162.3-171.822,236.5.8,38.093,20.239,69.839,55.555,91.663,34.127,21.032,80.951,30.953,134.122,30.953,111.5,0,251.977-43.649,367.45-121.822,109.123-73.808,173.406-162.3,171.819-236.5-.793-38.093-20.238-69.838-55.553-91.664-34.267-21.047-81.019-31.053-134.366-31.052-111.6,0-252.03,43.8-367.2,121.923" transform="translate(-28.81 -121.393)" fill="none"/>
    </clipPath>
    <linearGradient id="linear-gradient-12" x1="-0.051" y1="1.338" x2="-0.049" y2="1.338" xlink:href="#linear-gradient"/>
    <clipPath id="clip-path-13">
      <path id="Path_279" data-name="Path 279" d="M71.2,558.994c-33.333-26.585-49.2-62.3-46.428-103.569,5.159-79.362,76.586-167.851,190.47-236.9,106.744-64.681,230.946-98.806,334.515-98.806,69.839,0,130.552,15.475,170.63,47.618,33.332,26.587,49.2,62.3,46.425,103.567-5.158,79.363-76.584,167.852-190.47,236.9-106.936,64.731-230.866,99-334.555,99-69.84,0-130.5-15.55-170.587-47.81M214.052,216.545C99.373,285.987,27.947,375.271,22.392,455.426c-2.779,42.063,13.49,78.569,47.218,105.554,40.476,32.537,101.585,48.014,171.822,48.014,103.964,0,228.563-34.126,336.1-99.2,114.679-69.443,186.105-158.724,191.661-238.882,2.776-42.06-13.492-78.568-47.221-105.551-40.448-32.454-101.565-48.1-171.9-48.1-104.232,0-228.691,34.364-336.026,99.285" transform="translate(-22.087 -117.26)" fill="none"/>
    </clipPath>
    <linearGradient id="linear-gradient-13" x1="-0.036" y1="1.32" x2="-0.034" y2="1.32" xlink:href="#linear-gradient"/>
    <clipPath id="clip-path-14">
      <path id="Path_280" data-name="Path 280" d="M56.988,546.29c-30.952-32.537-43.65-73.806-36.506-119.044,13.492-84.52,92.061-172.612,210.31-235.706,96.424-51.586,203.565-77.378,297.213-77.378,88.489,0,165.471,23.014,210.31,69.839,30.952,32.539,43.649,73.806,36.507,119.044-13.491,84.521-92.061,172.613-210.31,235.706C468,590.171,360.913,616.094,267.1,616.089c-88.62,0-165.4-23.15-210.116-69.8M229.6,189.159C110.558,252.648,31.592,341.534,18.1,426.85c-7.539,46.427,5.554,88.092,37.3,121.425,45.236,47.22,122.615,70.632,211.9,70.632,94.441,0,201.58-26.189,298.4-77.776,119.044-63.491,198.009-152.376,211.5-237.69,7.541-46.428-5.554-88.092-37.3-121.425-45.22-47.153-122.692-70.589-212.078-70.584-94.157,0-201.529,26.02-298.223,77.727" transform="translate(-16.022 -111.432)" fill="none"/>
    </clipPath>
    <linearGradient id="linear-gradient-14" x1="-0.021" y1="1.295" x2="-0.019" y2="1.295" xlink:href="#linear-gradient"/>
    <clipPath id="clip-path-15">
      <path id="Path_281" data-name="Path 281" d="M44.378,532.3c-29.364-39.68-37.7-86.9-25-137.3C42,306.116,127.71,220.006,248.339,164.055c84.126-38.887,173.8-57.933,255.549-57.933,108.329,0,202.771,33.33,250.786,97.616,29.365,39.68,37.7,86.9,25,137.3C757.056,429.92,671.344,516.029,550.712,571.979,466.482,611.025,376.545,630,294.738,630c-108.582,0-202.835-33.427-250.36-97.7M247.151,161.675C125.725,217.624,40.014,304.924,17,394.208,3.9,445,12.635,493.41,42.394,533.488,90.408,598.566,185.643,632.3,295.164,632.3c82.141,0,172.217-19.047,256.342-58.331,121.425-55.952,207.136-143.25,230.152-232.533,13.1-51.19,4.366-99.2-25.4-139.282-48.069-64.849-143.135-98.6-252.545-98.594-82.064.005-172.212,19-256.566,58.12" transform="translate(-11.085 -103.555)" fill="none"/>
    </clipPath>
    <linearGradient id="linear-gradient-15" x1="-0.01" y1="1.263" x2="-0.008" y2="1.263" xlink:href="#linear-gradient"/>
    <clipPath id="clip-path-16">
      <path id="Path_282" data-name="Path 282" d="M32.672,515.939C6.085,468.321,2.116,413.561,21.958,358.006c32.537-91.265,124.6-174.2,246.023-221.818,69.838-27.777,142.853-40.871,211.1-40.871,128.965,0,241.658,46.823,289.674,132.139,26.587,47.618,30.554,102.378,10.714,157.931-32.539,91.268-124.6,174.2-246.023,221.82-70.087,27.43-142.8,40.5-211.008,40.495C193.323,647.7,80.449,600.847,32.672,515.939M266.792,134.2C144.573,182.218,52.115,265.549,19.577,357.61c-19.84,55.951-16.268,111.108,11.11,159.52,48.412,85.712,161.9,132.932,291.659,132.932,68.647,0,141.662-13.492,211.9-40.872,122.219-48.014,214.677-131.345,247.214-223.405,19.84-55.95,16.269-111.108-11.11-159.518C722.051,140.577,608.705,93.29,478.956,93.3c-68.536,0-141.667,13.2-212.164,40.907" transform="translate(-6.997 -93.297)" fill="none"/>
    </clipPath>
    <linearGradient id="linear-gradient-16" x1="-0.003" y1="1.224" x2="-0.001" y2="1.224" xlink:href="#linear-gradient"/>
    <clipPath id="clip-path-17">
      <path id="Path_283" data-name="Path 283" d="M22.572,497.2c-23.81-57.142-21.429-119.44,6.746-180.551,42.457-91.663,140.075-169.439,260.7-208.327A547.946,547.946,0,0,1,456.287,82.132c148.8,0,279.356,64.283,324.594,172.612,23.809,57.142,21.427,119.442-6.745,180.551-42.46,91.664-140.076,169.439-260.707,208.327a547.862,547.862,0,0,1-166.265,26.19c-148.8,0-279.356-64.283-324.593-172.613M289.228,105.941C167.8,145.225,70.188,223.4,27.332,315.855c-28.57,61.9-30.952,125-6.745,182.533C66.219,607.513,197.564,672.193,347.559,672.193A550.38,550.38,0,0,0,514.221,646c121.425-39.284,219.042-117.457,261.9-209.914,28.57-61.9,30.95-125,6.745-182.534C737.408,144.285,605.972,79.52,456.046,79.531a548.16,548.16,0,0,0-166.818,26.41" transform="translate(-4.02 -79.531)" fill="none"/>
    </clipPath>
    <linearGradient id="linear-gradient-17" x1="0.003" y1="1.181" x2="0.004" y2="1.181" xlink:href="#linear-gradient"/>
    <clipPath id="clip-path-18">
      <path id="Path_284" data-name="Path 284" d="M13.71,477.652C-6.131,409.8,3.788,338.766,41.883,272.1,94.659,180.439,193.863,111,314.1,81.235A501.79,501.79,0,0,1,435.919,66.156c168.248,0,315.466,85.711,354.355,219.835,19.84,67.855,9.919,138.884-28.175,205.549C709.322,583.2,610.12,652.645,489.884,682.406a501.718,501.718,0,0,1-121.82,15.08c-167.852,0-315.07-85.712-354.354-219.834M314.1,78.457c-120.631,30.157-220.231,100-273.4,192.057C1.8,337.576-7.719,409.4,12.122,477.65,51.405,612.567,199.814,699.072,368.856,699.072a504.938,504.938,0,0,0,122.218-15.079C611.706,653.836,711.307,584,764.48,491.936c38.887-67.061,48.41-138.885,28.57-207.137C753.566,149.977,605.571,63.455,436.384,63.467A511.214,511.214,0,0,0,314.1,78.457" transform="translate(-2.067 -63.467)" fill="none"/>
    </clipPath>
    <linearGradient id="linear-gradient-18" x1="0.009" y1="1.135" x2="0.01" y2="1.135" xlink:href="#linear-gradient"/>
    <clipPath id="clip-path-19">
      <path id="Path_285" data-name="Path 285" d="M7.436,454.516C-6.848,375.552,12.2,293.41,61.4,223.175c61.507-87.7,163.488-149.2,279.754-169.043a448.5,448.5,0,0,1,78.966-6.746c186.5,0,348,111.9,377.764,273.8,14.284,78.966-4.761,161.107-53.966,231.342-61.506,87.7-163.487,149.2-279.753,169.043a448.52,448.52,0,0,1-78.966,6.745c-186.5,0-348-112.3-377.766-273.8M341.155,51.751C224.1,71.591,121.719,133.494,59.815,221.983,10.214,293.014-9.23,375.948,5.453,455.31,35.61,618,197.906,730.7,385.6,730.7c25.792,0,52.378-2.381,79.361-6.35C582.021,704.508,684.4,642.607,746.3,554.116c49.206-71.028,68.65-153.963,53.968-233.326C770.288,157.986,607.7,45.1,420.117,45.11a475.435,475.435,0,0,0-78.962,6.641" transform="translate(-0.675 -45.11)" fill="none"/>
    </clipPath>
    <linearGradient id="linear-gradient-19" x1="0.011" y1="1.088" x2="0.013" y2="1.088" xlink:href="#linear-gradient"/>
    <clipPath id="clip-path-20">
      <path id="Path_286" data-name="Path 286" d="M3.3,429.976C-14.159,227.205,150.518,47.052,370.75,27.608c13.094-1.191,26.189-1.587,38.887-1.587,92.854,0,181.74,29.363,252.372,84.52,81.347,62.7,130.948,151.583,139.678,249.6s-24.6,194.042-94.043,269.832C638.2,706.158,541.379,752.983,434.637,762.506c-12.7,1.191-25.4,1.587-38.095,1.587C192.58,764.093,19.966,620.844,3.3,429.976M370.75,25.624C160.424,44.094.224,208.651,0,399.907v.833q.02,14.714,1.317,29.634c16.666,191.661,190.47,336.1,395.622,336.1,12.7,0,25.792-.793,38.492-1.586,107.139-9.128,204.755-56.348,274.594-132.932s103.567-173.011,94.839-271.818S746.532,172.048,664.392,108.956C592.3,53.578,503.1,23.88,409.915,23.881q-19.478,0-39.165,1.743" transform="translate(0 -23.881)" fill="none"/>
    </clipPath>
    <linearGradient id="linear-gradient-20" x1="0.017" y1="1.043" x2="0.019" y2="1.043" xlink:href="#linear-gradient"/>
    <clipPath id="clip-path-21">
      <path id="Path_287" data-name="Path 287" d="M2.474,402.764C2.474,181.74,182.23,1.984,403.256,1.984s400.782,180.153,400.782,400.78c0,221.025-179.756,400.782-400.782,400.782S2.474,623.789,2.474,402.764M403.256,0C181.041,0,.094,180.947.094,403.162S181.041,806.323,403.256,806.323,806.417,625.376,806.417,403.162,625.472,0,403.256,0Z" transform="translate(-0.094)" fill="none"/>
    </clipPath>
    <linearGradient id="linear-gradient-21" x1="0" y1="1" x2="0.002" y2="1" xlink:href="#linear-gradient"/>
  </defs>
  <g id="Gray_-_circles" data-name="Gray - circles" opacity="0.44">
    <g id="Group_183" data-name="Group 183" transform="translate(186.496 176.664)">
      <g id="Group_182" data-name="Group 182" clip-path="url(#clip-path)">
        <rect id="Rectangle_128" data-name="Rectangle 128" width="448.796" height="459.906" transform="translate(-7.804 -3.257)" fill="url(#linear-gradient)"/>
      </g>
    </g>
    <g id="Group_185" data-name="Group 185" transform="translate(171.782 174.087)">
      <g id="Group_184" data-name="Group 184" clip-path="url(#clip-path-2)">
        <rect id="Rectangle_129" data-name="Rectangle 129" width="481.732" height="458.432" transform="translate(-9.36 0)" fill="url(#linear-gradient-2)"/>
      </g>
    </g>
    <g id="Group_187" data-name="Group 187" transform="translate(157.013 171.576)">
      <g id="Group_186" data-name="Group 186" clip-path="url(#clip-path-3)">
        <rect id="Rectangle_130" data-name="Rectangle 130" width="514.666" height="463.327" transform="translate(-10.86 -0.001)" fill="url(#linear-gradient-3)"/>
      </g>
    </g>
    <g id="Group_189" data-name="Group 189" transform="translate(141.88 169.57)">
      <g id="Group_188" data-name="Group 188" clip-path="url(#clip-path-4)">
        <rect id="Rectangle_131" data-name="Rectangle 131" width="546.411" height="466.917" transform="translate(-11.997 -0.001)" fill="url(#linear-gradient-4)"/>
      </g>
    </g>
    <g id="Group_191" data-name="Group 191" transform="translate(127.07 168.964)">
      <g id="Group_190" data-name="Group 190" clip-path="url(#clip-path-5)">
        <rect id="Rectangle_132" data-name="Rectangle 132" width="578.553" height="468.715" transform="translate(-13.058 -0.001)" fill="url(#linear-gradient-5)"/>
      </g>
    </g>
    <g id="Group_193" data-name="Group 193" transform="translate(112.586 168.257)">
      <g id="Group_192" data-name="Group 192" clip-path="url(#clip-path-6)">
        <rect id="Rectangle_133" data-name="Rectangle 133" width="608.314" height="470.619" transform="translate(-13.653 -0.802)" fill="url(#linear-gradient-6)"/>
      </g>
    </g>
    <g id="Group_195" data-name="Group 195" transform="translate(98.789 168.248)">
      <g id="Group_194" data-name="Group 194" clip-path="url(#clip-path-7)">
        <rect id="Rectangle_134" data-name="Rectangle 134" width="636.486" height="469.825" transform="translate(-13.744 0)" fill="url(#linear-gradient-7)"/>
      </g>
    </g>
    <g id="Group_197" data-name="Group 197" transform="translate(84.987 168.499)">
      <g id="Group_196" data-name="Group 196" clip-path="url(#clip-path-8)">
        <rect id="Rectangle_135" data-name="Rectangle 135" width="663.074" height="469.575" transform="translate(-13.435 0)" fill="url(#linear-gradient-8)"/>
      </g>
    </g>
    <g id="Group_199" data-name="Group 199" transform="translate(72.031 167.922)">
      <g id="Group_198" data-name="Group 198" clip-path="url(#clip-path-9)">
        <rect id="Rectangle_136" data-name="Rectangle 136" width="686.883" height="470.55" transform="translate(-12.383 0)" fill="url(#linear-gradient-9)"/>
      </g>
    </g>
    <g id="Group_201" data-name="Group 201" transform="translate(59.9 167.036)">
      <g id="Group_200" data-name="Group 200" clip-path="url(#clip-path-10)">
        <rect id="Rectangle_137" data-name="Rectangle 137" width="706.327" height="471.834" transform="translate(-10.171 -0.003)" fill="url(#linear-gradient-10)"/>
      </g>
    </g>
    <g id="Group_203" data-name="Group 203" transform="translate(48.668 165.338)">
      <g id="Group_202" data-name="Group 202" clip-path="url(#clip-path-11)">
        <rect id="Rectangle_138" data-name="Rectangle 138" width="722.595" height="475.117" transform="translate(-6.876 0)" fill="url(#linear-gradient-11)"/>
      </g>
    </g>
    <g id="Group_205" data-name="Group 205" transform="translate(38.587 162.591)">
      <g id="Group_204" data-name="Group 204" clip-path="url(#clip-path-12)">
        <rect id="Rectangle_139" data-name="Rectangle 139" width="732.119" height="481.041" transform="translate(-1.557 -0.001)" fill="url(#linear-gradient-12)"/>
      </g>
    </g>
    <g id="Group_207" data-name="Group 207" transform="translate(29.583 157.055)">
      <g id="Group_206" data-name="Group 206" clip-path="url(#clip-path-13)">
        <rect id="Rectangle_140" data-name="Rectangle 140" width="752.357" height="491.735" transform="translate(-2.474 -0.001)" fill="url(#linear-gradient-13)"/>
      </g>
    </g>
    <g id="Group_209" data-name="Group 209" transform="translate(21.46 149.249)">
      <g id="Group_208" data-name="Group 208" clip-path="url(#clip-path-14)">
        <rect id="Rectangle_141" data-name="Rectangle 141" width="774.184" height="507.48" transform="translate(-5.461 -0.005)" fill="url(#linear-gradient-14)"/>
      </g>
    </g>
    <g id="Group_211" data-name="Group 211" transform="translate(14.847 138.699)">
      <g id="Group_210" data-name="Group 210" clip-path="url(#clip-path-15)">
        <rect id="Rectangle_142" data-name="Rectangle 142" width="790.848" height="528.748" transform="translate(-7.181 -0.008)" fill="url(#linear-gradient-15)"/>
      </g>
    </g>
    <g id="Group_213" data-name="Group 213" transform="translate(9.371 124.96)">
      <g id="Group_212" data-name="Group 212" clip-path="url(#clip-path-16)">
        <rect id="Rectangle_143" data-name="Rectangle 143" width="801.561" height="556.771" transform="translate(-7.26 -0.007)" fill="url(#linear-gradient-16)"/>
      </g>
    </g>
    <g id="Group_215" data-name="Group 215" transform="translate(5.384 106.522)">
      <g id="Group_214" data-name="Group 214" clip-path="url(#clip-path-17)">
        <rect id="Rectangle_144" data-name="Rectangle 144" width="810.688" height="592.673" transform="translate(-7.64 -0.011)" fill="url(#linear-gradient-17)"/>
      </g>
    </g>
    <g id="Group_217" data-name="Group 217" transform="translate(2.769 85.006)">
      <g id="Group_216" data-name="Group 216" clip-path="url(#clip-path-18)">
        <rect id="Rectangle_145" data-name="Rectangle 145" width="820.609" height="635.617" transform="translate(-9.786 -0.012)" fill="url(#linear-gradient-18)"/>
      </g>
    </g>
    <g id="Group_219" data-name="Group 219" transform="translate(0.904 60.419)">
      <g id="Group_218" data-name="Group 218" clip-path="url(#clip-path-19)">
        <rect id="Rectangle_146" data-name="Rectangle 146" width="824.18" height="685.595" transform="translate(-9.904 -0.005)" fill="url(#linear-gradient-19)"/>
      </g>
    </g>
    <g id="Group_221" data-name="Group 221" transform="translate(0 31.986)">
      <g id="Group_220" data-name="Group 220" clip-path="url(#clip-path-20)">
        <rect id="Rectangle_147" data-name="Rectangle 147" width="827.751" height="742.593" transform="translate(-14.159 -0.001)" fill="url(#linear-gradient-20)"/>
      </g>
    </g>
    <g id="Group_223" data-name="Group 223" transform="translate(0.126)">
      <g id="Group_222" data-name="Group 222" clip-path="url(#clip-path-21)">
        <rect id="Rectangle_148" data-name="Rectangle 148" width="806.323" height="806.323" transform="translate(0 0)" fill="url(#linear-gradient-21)"/>
      </g>
    </g>
  </g>
</svg>
