<svg xmlns="http://www.w3.org/2000/svg" xmlns:xlink="http://www.w3.org/1999/xlink" width="1132.892" height="1194.242" viewBox="0 0 1132.892 1194.242">
  <defs>
    <clipPath id="clip-path">
      <path id="Path_222" data-name="Path 222" d="M420.342,569.754l111.417-69.808L420.33,579.7c-18.956,13.567-38.408,17.769-48.412,10.459-5.016-3.668-7.051-9.892-5.979-17.906l1.268-5.242a16.888,16.888,0,0,0,5.543,9.007c3.835,3.216,9.044,4.79,15.117,4.79,9.392,0,20.846-3.768,32.474-11.054m2,12.768,120.176-86.011L423.613,593.034c-23.374,18.973-43.7,21.231-53.488,15.058-5.521-3.489-8.183-9.731-7.784-17.956l.99-6.2a17.934,17.934,0,0,0,6.544,9.024c3.916,2.861,8.917,4.254,14.636,4.254,10.9,0,24.4-5.072,37.836-14.692m3.45,13.205L554.01,491.653,428.543,606.71c-24.669,22.626-47.253,26.541-58.694,20.388-6.077-3.27-9.421-9.488-9.763-17.9l.551-7.326a19.163,19.163,0,0,0,7.639,9.147,25.681,25.681,0,0,0,13.884,3.6c12.643,0,28.571-6.669,43.637-18.9m5.089,13.542,135.4-124.17L435.332,620.6c-21.917,22.668-48.212,33.572-63.949,26.51-6.7-3-10.8-9.166-11.956-17.721l-.108-8.46a20.6,20.6,0,0,0,8.887,9.225,27.6,27.6,0,0,0,13.212,3.047c14.445,0,32.724-8.573,49.467-23.931m6.94,13.737,141.3-146.2L444.194,634.526c-22.511,26.318-50.942,40.091-69.155,33.5-7.433-2.694-12.3-8.517-14.349-17.056l-1.054-9.931a22.389,22.389,0,0,0,10.326,9.24,30.007,30.007,0,0,0,12.369,2.469c16.453,0,37.209-10.821,55.493-29.741m9.005,13.775L592.39,466.634,455.361,648.317c-22.748,30.158-53.254,47.174-74.182,41.369-8.225-2.28-14.006-7.921-17.041-16.521l-2.253-10.927-.01-.1a24.485,24.485,0,0,0,11.983,9.145,33.034,33.034,0,0,0,11.273,1.876c18.718,0,42.085-13.449,61.7-36.38m11.3,13.624L605.9,454.471,469.056,661.747c-22.536,34.137-54.968,54.762-78.857,50.165-9.137-1.758-15.951-7.142-20.086-15.756l-3.557-11.268-.144-.694a27.1,27.1,0,0,0,13.839,8.836,35.238,35.238,0,0,0,9.432,1.228c21.27,0,48.022-16.772,68.447-43.853m13.82,13.256L619.4,440.315,485.519,674.573c-21.807,38.16-55.926,62.781-82.993,59.884a30.541,30.541,0,0,1-23.58-14.747l-5.014-11.454-.412-1.309a30.29,30.29,0,0,0,16.024,8.37,39.119,39.119,0,0,0,7.418.691c24.163,0,53.921-20.432,74.99-52.347M488.532,676.3l144.175-252.27L504.988,686.508c-20.495,42.117-55.956,71.049-86.339,70.5-11.449-.231-20.834-4.813-27.639-13.383l-6.654-11.547-.817-1.864a34.268,34.268,0,0,0,18.617,7.7,43.541,43.541,0,0,0,4.69.247c27.515-.005,60.438-24.683,81.686-61.859M212.1,655.767c-25-16.9-40.261-48.586-41.866-86.949-2.2-52.528,20.92-106.224,58.9-136.8l19.15-15.416c-32.455,27.89-54.2,73.917-56.3,120.655-1.674,37.3,9.824,69.325,31.533,87.867L435.31,805.99l.937,1.007q.286.3.573.606Zm296,32.259L645.529,405.6,527.692,697.232c-18.547,45.892-54.98,79.575-88.61,81.912-12.915.883-23.908-3.065-32.374-11.527l-8.514-11.537-1.353-2.348a39.156,39.156,0,0,0,21.743,6.737c.331,0,.66.008,1,.008,31.42,0,67.682-29.618,88.523-72.453M225.779,622.493c-20.891-17.843-31.95-48.854-30.319-85.076,2.245-50.042,27.414-99.207,64.12-125.251L274.048,401.9c-29.417,24.164-51.111,64.269-56.731,106.416-4.722,35.372,2.917,66.767,20.954,86.13L413.176,782.225l.6.814Zm15.031-30.407c-17.33-18.606-24.642-48.969-20.057-83.311,6.271-46.991,32.864-91.348,67.76-113.011l11.375-7.061c-27.01,20.582-48.734,55.488-57.248,93.373-7.564,33.639-3.417,64.434,11.381,84.488l141.07,191.154ZM439.323,782.6c34.9-2.425,72.564-37,91.581-84.071l126.678-313.5L553.859,706.4c-15.923,49.337-52.722,87.986-89.49,93.984-14.611,2.381-27.507-.724-37.944-9.022L415.849,780l-2.038-2.761a44.337,44.337,0,0,0,21.842,5.487c1.209,0,2.435-.039,3.67-.127M256.812,564.5c-14.2-19.24-18.135-49.008-10.79-81.671,9.762-43.413,37.15-82.786,69.778-100.308l8.436-4.531c-24.678,17.213-45.522,46.606-56.383,80.541-10.25,32.021-9.3,62.222,2.6,82.862L379.906,731.3Zm351.4-144.007c-.588-7.3-4.351-12.621-10.886-15.377L517.7,371.506l83.659,25.571c6.294,1.925,10.02,6.176,11.081,12.636,1.221,7.47-1.461,18.009-8.125,29.042,2.918-6.426,4.344-12.7,3.9-18.262M273.451,539.661c-11.41-19.794-12.249-48.981-2.293-80.075,12.81-40.02,39.7-73.53,70.193-87.454l6.406-2.925c-22.334,14.131-42.521,38.984-54.938,68.5-12.793,30.424-14.823,60-5.568,81.152l81.372,185.92Zm153.7-125.279c7.119-17.588,25.965-35.635,45.828-43.884a49.086,49.086,0,0,1,18.363-4.177,23.313,23.313,0,0,1,9.088,1.662l95.547,40.329c5.339,2.255,8.292,6.446,8.77,12.459,1.088,13.545-11.3,36.421-36.4,52.154L418.5,566.814c-17.848,11.185-34.931,13.747-43.519,6.544-4.55-3.815-6.018-9.981-4.34-17.738l2.506-7.752Zm188.7-5.23c-1.267-7.757-5.928-13.08-13.484-15.387l-93.267-28.512L606.2,384.8c7.289,1.466,12.037,5.876,13.732,12.749,2.022,8.211-.442,20.412-7.74,33.374,3.327-7.813,4.715-15.349,3.663-21.776M290.43,517.468c-8.878-20.287-6.838-48.866,5.59-78.418,14.991-35.642,41.46-64.279,69.089-74.74l4.712-1.785c-20.015,11.364-39.177,31.965-52.455,57.1-15.193,28.753-20,57.623-13.18,79.215l56.692,179.589ZM414.8,419.013c9.194-28.448,45.115-56.5,69.379-56.5a27.54,27.54,0,0,1,4.932.426,54.9,54.9,0,0,0-17.458,4.361c-20.655,8.578-40.278,27.4-47.716,45.786l-35.916,88.766ZM464.925,803.8c38-6.2,75.929-45.821,92.235-96.346l111.4-345.128L583.714,713.6c-12.636,52.325-49.1,96.112-88.666,106.492-16.455,4.313-31.923,2.2-44.8-5.913l-12.521-10.692-2.869-3.081a50.209,50.209,0,0,0,20.42,4.194,59.743,59.743,0,0,0,9.649-.8M623.3,396.721c-2.038-8.269-7.713-13.567-16.414-15.32L499.013,359.681l111.333,11.8c8.532.9,14.342,5.318,16.8,12.775,2.859,8.681.958,22.138-6.37,36.73,3.259-8.811,4.266-17.213,2.53-24.266M401.58,425c7.7-31.813,47.285-65.826,74.383-65.826a29.761,29.761,0,0,1,3.39.189c-25.5,3.19-58.682,30.221-67.849,58.579l-32.69,101.122Zm-94.086,72.8c-6.443-20.407-1.608-49.021,12.939-76.552,16.429-31.094,41.95-55.032,66.606-62.468l2.758-.833c-41.6,20.942-77.385,81.524-68.775,123.278l35.321,171.318Zm80.033-65.306c5.627-35.242,48.8-76.065,79.116-76.065.53,0,1.057.012,1.581.039-27.973,5.251-62.553,36.9-70.014,67.717L370.685,537.9Zm-63.108,48.032C315.185,435.74,361.574,365.5,407.15,355.266l1.458-.328c-38.734,17.041-75.262,71.044-71.029,110.932l17.127,161.547Zm306.018-97.35c-2.915-8.846-9.736-14.085-19.721-15.146l-123.6-13.1,126.5,2.194c9.937.176,16.965,4.553,20.322,12.663,4.07,9.829,2.633,25.465-5.626,42.671,3.889-10.853,4.815-21.106,2.12-29.285M372.693,441.642c2.893-38.471,49.023-86.726,82.938-87.242-30.543,7.639-66.219,44.3-71.534,77.543L363.918,558.27Zm-31.667,23.864c-4.57-43.087,42.773-105.881,84.419-111.985l.409-.061c-35.941,13.523-72.651,61.357-72.164,99.178l1.934,150.542Zm16.13-12.912c-.525-40.864,46.481-96.128,84.155-99.24-33.2,10.436-69.408,52.5-72.08,88.024L358.8,580.12ZM615.828,341.777q1.317-.086,2.574-.088c10.2,0,17.708,4.264,21.8,12.429,5.259,10.49,4.59,28.037-3.954,47.667,4.07-12.594,4.612-24.355.9-33.322-3.925-9.488-12.043-14.607-23.464-14.806l-140.26-2.437Zm-119.9,481.672c40.751-10.689,78.234-55.52,91.156-109.032L678.1,337.589,617.461,718.421c-8.855,55.6-43.338,103.478-85.809,119.129-18.63,6.864-36.76,6.327-52.455-1.314L464.21,826.109l-3.829-3.27a57.1,57.1,0,0,0,18.255,2.927,68.2,68.2,0,0,0,17.292-2.317M616.76,325.478l-.252-1.716.252,1.716c13.258-1.944,23.3,2.121,29,11.755,7.424,12.526,6.573,31.655-1.277,51.962,3.847-14.031,3.667-26.955-1.184-36.632-5.038-10.039-14.888-15.1-27.706-14.249l.113,1.733-.113-1.733-157.85,10.473ZM532.852,840.8c43.612-16.068,78.989-65.03,88.035-121.839l64.968-408.044L655.277,720.375c-4.286,57.38-36.694,110.238-80.647,131.527-20.979,10.16-42.16,11.731-61.205,4.817l-17.667-9.294-4.952-3.347a65.149,65.149,0,0,0,15.166,1.765,77.808,77.808,0,0,0,26.88-5.038M616.193,308.31l-.378-1.7.378,1.7c15.185-3.415,27.037.326,34.279,10.812,9.117,13.209,9.291,34.453,1.589,57.206,3.744-15.957,2.846-30.481-3.312-40.866-6.391-10.785-17.936-15.549-32.492-13.413l-176.2,25.825Zm-2.307-17.948a51.124,51.124,0,0,1,14.776-2.349c10.481,0,19.265,4,25.462,11.788,11.027,13.85,12.515,37.341,5.17,62.674,3.484-18.022,1.672-34.259-5.963-45.324-8-11.579-21.457-15.921-37.893-12.224L420.178,348.783Zm-37.743,564.66c45.029-21.807,78.22-75.812,82.6-134.393l32.719-438.183,5.867,436.51c.8,59.354-27.865,115.6-73.014,143.274-23.357,14.32-47.925,18.662-70.906,12.859l-20.677-8.215-6.195-3.258a74.764,74.764,0,0,0,10.988.806c12.618,0,25.663-3.124,38.62-9.4M656.52,279.282c13.281,14.55,16.543,39.675,9.9,67.449,2.864-19.806-.23-37.346-9.578-49.091-9.877-12.408-25.482-16.169-43.958-10.6l.5,1.662-.5-1.662-214.8,64.787,211.49-80.073-.615-1.616.615,1.616c19.208-7.269,35.882-4.6,46.947,7.529m-30.391,585.9c46.172-28.3,75.478-85.718,74.665-146.274l-6.266-466.624,49.2,461.326c6.369,59.705-18.3,120.14-62.847,153.969-25.394,19.28-54.373,27.186-82.1,22.9l-23.158-6.568-7.608-3.021q2.736.175,5.487.174c17.5,0,35.392-5.313,52.629-15.884M602.981,252.648c9.176-4.192,17.953-6.271,26.061-6.271a39.939,39.939,0,0,1,28.375,11.216c15.718,15.038,20.989,42.479,15.225,73.041,2.185-22.057-2.322-41.383-13.56-53.695-12.094-13.248-30.114-16.239-50.739-8.431L373.865,357.284ZM656.559,234.8c18.571,15.489,26.308,44.294,21.89,77.4,1.066-23.852-5.242-44.3-18.632-57.113-14.7-14.06-35.4-16.046-58.277-5.6l.719,1.577-.719-1.577L347.352,365.578,593.827,233.223,593,231.694l.822,1.528c23.864-12.815,46.142-12.258,62.732,1.577m26.423,635.538c45.492-34.543,70.692-96.207,64.2-157.095l-52.534-492.6L794.577,703.75c12.471,60.293-6.783,122.859-50.244,163.284-27.184,25.288-60.068,37.67-93.01,35.625l-26.637-4.828-9.679-2.745c23.339-.328,46.871-8.723,67.974-24.749M581.793,213.7c25.869-16.053,52.058-17.056,71.847-2.738,21.667,15.668,32.3,46.671,29.464,82.674-.187-26.174-8.547-48.343-24.325-61.5-17.487-14.585-41.764-15.3-66.6-1.968L318.7,377.021Zm164.9,655.877c44.348-41.249,63.993-105.06,51.28-166.53L691.39,187.783,849.9,688.746c18.784,59.358,5.222,124.894-35.4,171.036-28.289,32.133-65.042,49.873-103.782,50.807l-30.275-2.648-11.437-2.074c27.728-2.53,54.71-14.918,77.685-36.289M566.578,194.341c16.331-11.589,33.212-17.451,49.151-17.451a61.025,61.025,0,0,1,32.594,9.282c25.742,15.987,39.682,48.822,38.464,88.384-1.659-28.824-12.506-52.948-31.118-66.405-20.989-15.181-48.584-14.231-75.706,2.606l.915,1.471-.915-1.471L287.991,392.009ZM817.105,862.072c41.422-47.049,55.257-113.863,36.108-174.377l-168.1-531.242c-.277-.88-.561-1.751-.851-2.623l225.43,514.1c25.786,58.809,18.841,125.048-18.576,177.2-28.181,39.27-69.732,63.561-114.932,68.3H743.161l-13.31-1.164c32.589-5.4,62.983-22.616,87.254-50.19M640.219,160.548c29.2,15.345,47.078,49.118,48.929,90.625-3.923-30.168-17.524-54.615-38.991-67.947-25.043-15.558-56.238-12.533-85.587,8.284l1.008,1.415-1.008-1.415-307,217.827q-1.406,1-2.79,2.038L547.85,175.439l-1.086-1.349,1.086,1.349c30.3-24.387,63.965-29.815,92.368-14.891m-11.359-26.289c33.622,14.6,56.2,50,61.107,94.38-6.372-32.372-23.315-58.119-48.135-71.158-29.682-15.6-64.731-10.039-96.151,15.254L226.956,429.32c-38.8,31.243-62.428,86.05-60.188,139.643,1.655,39.476,17.466,72.164,43.392,89.678L462.12,828.882l1.125.961q.775.661,1.561,1.3l-264.6-139.211c-29.758-15.654-49.812-48.049-55.02-88.869-6.943-54.409,13.538-112.272,52.168-147.419l327.933-298.3-1.169-1.284,1.169,1.284c32.185-29.273,69.933-37.689,103.572-23.085M893.936,847.148c38.135-53.153,45.215-120.671,18.932-180.612L675.356,124.881q-1.4-3.2-2.9-6.306l301.4,522.035c32.872,56.939,32.872,124.933,0,181.877s-91.759,90.939-157.51,90.939H796.8c38.2-9.076,72.63-32.134,97.133-66.278M613.7,107.512c39.319,13.6,66.912,49.619,75.376,97.538-9.3-34.609-30.187-61.531-58.837-73.973-34.945-15.173-74.051-6.531-107.288,23.7l-327.938,298.3C155.576,488.958,134.664,548,141.746,603.5c5.352,41.959,26.07,75.307,56.843,91.5l295.36,155.392,1.376.931q1.388.937,2.8,1.809L190.563,730.946c-35.277-14.011-60.842-47.061-70.141-90.676-12.06-56.549,4.812-116.685,44.032-156.932l334.1-342.89-1.243-1.209,1.243,1.209c33.208-34.083,76.255-46.394,115.15-32.935M594.126,80.592C638.6,92.128,672.215,128.2,685.53,178c-12.869-35.872-37.8-62.387-70.691-73.769-40.2-13.913-84.6-1.275-118.772,33.793l-334.1,342.89c-40.02,41.07-57.238,102.41-44.941,160.081,9.549,44.765,35.884,78.724,72.25,93.17L531.333,870.057l1.562.823q2.174,1.142,4.376,2.158L183.691,772.759c-41.646-11.814-73.576-45.4-87.59-92.144C78.928,623.364,92.192,560.055,130.717,515.4l336.6-390.211-1.312-1.135,1.312,1.135c34.207-39.655,81.605-56.326,126.808-44.6M180.166,817.241c-48.983-8.883-88.251-42.764-107.751-92.953C50.124,666.9,59.34,600.932,96.473,552.122l334.79-440.07c29.41-38.664,71.18-60.166,114.97-60.166a135.319,135.319,0,0,1,23.156,2.008c50.884,8.838,91.782,45.178,110.444,97.727-17.044-37.74-47.135-64.6-84.836-74.39-46.505-12.065-95.219,5.014-130.307,45.689l-336.6,390.214c-39.29,45.544-52.816,110.1-35.313,168.479,14.362,47.9,47.159,82.338,89.968,94.481l391.719,111.1,1.885.748q3.134,1.244,6.31,2.27Zm.426,46.968c-56.478-4.94-105.435-39.6-130.946-92.706C21.852,713.653,26.517,647.209,62.123,593.777L390.079,101.591c31.44-47.179,80.985-74.257,134.577-74.257q6.954,0,14,.616C596.762,33.031,646.142,68.9,671.2,124.079c-22-39.408-58.1-66.118-101.213-73.6-53.237-9.242-106.116,13-141.481,59.477l1.38,1.05-1.38-1.05L93.714,550.021C55.851,599.779,46.456,667.039,69.185,725.545c19.944,51.34,60.171,86,110.362,95.1L623.9,901.214l2.172.615q4.3,1.221,8.632,2.109ZM500.994,3.467c65.746,0,124.629,34,157.5,90.939l.735,1.272c-27.868-40.911-71-66.875-120.275-71.188-60.163-5.263-116.887,22.842-151.764,75.181l1.446.963-1.446-.963L59.235,591.851c-36.292,54.466-41.05,122.187-12.719,181.154,26.053,54.223,76.059,89.607,133.771,94.657l499.691,43.718,2.459.446q5.733,1.039,11.449,1.6H185.641c-65.752,0-124.636-34-157.513-90.939s-32.874-124.938,0-181.877l315.353-546.2-1.5-.866,1.5.866C376.358,37.466,435.236,3.467,500.994,3.467m0-3.467C433.988,0,373.975,34.644,340.478,92.676L25.127,638.871c-33.5,58.032-33.5,127.321,0,185.346s93.51,92.676,160.515,92.676H743l2.763.241q7.086.621,14.1.617a159.861,159.861,0,0,0,16.548-.858h39.93c67,0,127.007-34.644,160.515-92.676s33.5-127.315,0-185.346L661.5,92.676C628,34.644,568,0,500.994,0Z" fill="none"/>
    </clipPath>
    <linearGradient id="linear-gradient" x1="0.008" y1="1" x2="0.01" y2="1" gradientUnits="objectBoundingBox">
      <stop offset="0" stop-color="#fca311"/>
      <stop offset="0.358" stop-color="#fca511"/>
      <stop offset="0.616" stop-color="#fcaf11"/>
      <stop offset="0.842" stop-color="#fcbe11"/>
      <stop offset="1" stop-color="#fccf11"/>
    </linearGradient>
  </defs>
  <g id="Right_Card_Shape" data-name="Right Card Shape" transform="translate(890.49) rotate(76)">
    <g id="Group_70" data-name="Group 70" transform="translate(0 0)" clip-path="url(#clip-path)">
      <rect id="Rectangle_80" data-name="Rectangle 80" width="1018.733" height="917.751" transform="translate(-8.376 0)" fill="url(#linear-gradient)"/>
    </g>
  </g>
</svg>
