<svg id="Flutter_Logo" data-name="Flutter Logo" xmlns="http://www.w3.org/2000/svg" xmlns:xlink="http://www.w3.org/1999/xlink" width="40.471" height="40.471" viewBox="0 0 40.471 40.471">
  <defs>
    <clipPath id="clip-path">
      <rect id="Rectangle_219" data-name="Rectangle 219" width="40.471" height="40.471" fill="none"/>
    </clipPath>
    <clipPath id="clip-path-2">
      <rect id="Rectangle_218" data-name="Rectangle 218" width="10.971" height="4.19" fill="none"/>
    </clipPath>
  </defs>
  <g id="Group_370" data-name="Group 370">
    <g id="Group_369" data-name="Group 369" clip-path="url(#clip-path)">
      <path id="Path_353" data-name="Path 353" d="M30.592,40.471H9.879A9.879,9.879,0,0,1,0,30.592V9.879A9.879,9.879,0,0,1,9.879,0H30.592a9.879,9.879,0,0,1,9.879,9.879V30.592a9.879,9.879,0,0,1-9.879,9.879" transform="translate(0)" fill="#fff"/>
      <path id="Path_354" data-name="Path 354" d="M304.736,484.506l-6.817.019h-.067a.31.31,0,0,1-.293-.12q3.336-.006,6.674-.012c.174,0,.361-.038.5.113" transform="translate(-276.857 -451.831)" fill="#004a94"/>
      <path id="Path_355" data-name="Path 355" d="M417.2,483.819l.016-.164.126.107-.142.057" transform="translate(-389.05 -451.142)" fill="#004a94"/>
      <path id="Path_356" data-name="Path 356" d="M118.5,86.363l-16.288,16.289-3.793-3.793,12.5-12.5Z" transform="translate(-90.114 -78.587)" fill="#fca311"/>
      <path id="Path_357" data-name="Path 357" d="M204.733,328.793h-7.585l-6.683-6.683,3.792-3.793,3.8,3.8,6.539,6.539.082.082Z" transform="translate(-176.431 -296.099)" fill="#9b5800"/>
      <g id="Group_368" data-name="Group 368" transform="translate(14.043 25.614)" opacity="0.5">
        <g id="Group_367" data-name="Group 367" transform="translate(0 0)">
          <g id="Group_366" data-name="Group 366" clip-path="url(#clip-path-2)">
            <path id="Path_358" data-name="Path 358" d="M201.588,376.646l-7.179.4-3.792-3.792,7.178-.4Z" transform="translate(-190.617 -372.853)"/>
          </g>
        </g>
      </g>
      <path id="Path_359" data-name="Path 359" d="M204.917,271.386l-6.721,6.721-3.789,3.788-3.792-3.792,3.788-3.789,2.929-2.927Z" transform="translate(-176.573 -252.09)" fill="#fca311"/>
    </g>
  </g>
</svg>
