<?xml version="1.0" encoding="UTF-8"?>
<svg id="Layer_2" data-name="Layer 2" xmlns="http://www.w3.org/2000/svg" viewBox="0 0 31.11 31.11">
  <defs>
    <style>
      .cls-1 {
        fill: #fca311;
      }

      .cls-1, .cls-2, .cls-3, .cls-4 {
        stroke-width: 0px;
      }

      .cls-2 {
        fill: #d88c0f;
      }

      .cls-3 {
        fill: #fff;
      }

      .cls-4 {
        fill: #734a08;
      }
    </style>
  </defs>
  <g id="Full_Stack_Devloper" data-name="Full Stack Devloper">
    <g id="C_" data-name="C#">
      <rect id="BC_White" data-name="BC White" class="cls-3" width="31.11" height="31.11" rx="8" ry="8"/>
      <g id="C_-2" data-name="C#">
        <path class="cls-2" d="M24.37,10.48c.17.26.24.56.24.87,0,2.81,0,5.63,0,8.44,0,.68-.31,1.18-.9,1.51-2.4,1.39-4.81,2.77-7.21,4.16-.62.36-1.24.37-1.87,0-2.41-1.39-4.82-2.78-7.23-4.17-.26-.15-.47-.33-.63-.58.03-.16.19-.18.3-.24,1.08-.63,2.16-1.26,3.25-1.88.4.62.84,1.2,1.44,1.66,1.36,1.05,2.9,1.5,4.6,1.29,1.87-.23,3.3-1.19,4.31-2.77.11-.17.06-.24-.09-.32-.74-.42-1.48-.84-2.21-1.28-.16-.09-.22-.07-.32.07-.77,1.1-1.95,1.56-3.17,1.25-.84-.21-1.5-.67-1.92-1.46.05-.02.1-.03.15-.06,1.69-.98,3.38-1.96,5.08-2.94.87-.49,1.74-.98,2.59-1.51.04-.02.07-.03.11-.05,1.16-.67,2.32-1.34,3.48-2.01ZM20.28,16.3c-.02.25-.05.49-.07.73,0,.05-.04.12.05.16.19.08.45-.07.47-.27,0-.11.04-.22.03-.33-.03-.27.09-.34.34-.3.26.04.15-.16.17-.28.02-.14,0-.23-.18-.2-.18.03-.26-.02-.23-.23.05-.42.03-.43.43-.46.18-.01.12-.14.11-.22,0-.09.1-.25-.12-.27-.32-.03-.32-.03-.29-.36,0-.04,0-.08,0-.12.02-.32.02-.32-.31-.32-.12,0-.17.03-.17.15,0,.15-.03.3-.04.44,0,.14-.04.2-.21.2-.38,0-.38,0-.35-.38,0-.03,0-.06.01-.09.05-.33.05-.32-.28-.33-.15,0-.21.04-.21.2,0,.09-.03.18-.03.27.02.25-.07.38-.34.33-.06-.01-.14-.03-.16.08-.06.3,0,.39.29.4.04,0,.08,0,.11.01,0,.09-.01.18-.02.26,0,.09-.03.17-.03.26,0,.12-.05.16-.17.16-.36,0-.35.01-.33.36,0,.09.02.12.12.13.3.02.3.03.27.34,0,.09,0,.17-.02.26-.04.3.03.37.33.28.12-.03.16-.1.16-.23.02-.68.03-.68.63-.65Z"/>
        <path class="cls-1" d="M24.37,10.48c-1.16.67-2.32,1.34-3.48,2.01-.03.02-.07.03-.11.05-.06-.09-.12-.18-.19-.27-1.3-1.85-3.06-2.81-5.34-2.7-1.63.08-3.03.72-4.14,1.92-1.3,1.39-1.77,3.04-1.51,4.92.11.78.37,1.5.72,2.2-1.08.63-2.17,1.25-3.25,1.88-.11.06-.26.08-.3.24-.2-.29-.28-.6-.28-.95,0-2.82,0-5.64,0-8.47,0-.62.29-1.13.83-1.44,2.45-1.42,4.91-2.84,7.37-4.25.56-.32,1.14-.32,1.7,0,2.45,1.4,4.89,2.82,7.33,4.23.27.16.49.36.64.64Z"/>
        <path class="cls-4" d="M10.32,18.59c-.35-.69-.61-1.42-.72-2.2-.26-1.87.22-3.53,1.51-4.92,1.11-1.19,2.51-1.83,4.14-1.92,2.29-.12,4.04.85,5.34,2.7.06.09.13.18.19.27-.85.52-1.72,1.02-2.59,1.51-.05-.07-.1-.14-.15-.21-1.1-1.54-3.24-1.74-4.56-.45-.62.6-.91,1.35-.93,2.19-.01.52.11,1.02.42,1.46.41.78,1.08,1.24,1.92,1.46,1.23.31,2.4-.16,3.17-1.25.1-.15.17-.16.32-.07.73.44,1.47.86,2.21,1.28.15.08.2.15.09.32-1.02,1.58-2.44,2.54-4.31,2.77-1.7.21-3.24-.24-4.6-1.29-.59-.46-1.03-1.04-1.44-1.66Z"/>
        <path class="cls-1" d="M12.96,17.05c-.31-.44-.43-.95-.42-1.46.02-.84.31-1.59.93-2.19,1.33-1.3,3.46-1.09,4.56.45.05.07.1.14.15.21-1.69.98-3.38,1.96-5.08,2.94-.05.03-.1.04-.15.06Z"/>
        <path class="cls-4" d="M20.28,16.3c-.6-.04-.61-.04-.63.65,0,.13-.04.19-.16.23-.3.08-.37.02-.33-.28.01-.09.01-.17.02-.26.03-.31.03-.32-.27-.34-.1,0-.11-.04-.12-.13-.02-.35-.03-.35.33-.36.12,0,.17-.04.17-.16,0-.09.02-.17.03-.26,0-.09.01-.17.02-.26-.04,0-.08-.01-.11-.01-.29,0-.36-.1-.29-.4.02-.11.1-.09.16-.08.27.05.36-.08.34-.33,0-.09.03-.18.03-.27,0-.15.05-.2.21-.2.32,0,.32,0,.28.33,0,.03,0,.06-.01.09-.03.38-.03.37.35.38.16,0,.2-.06.21-.2,0-.15.04-.3.04-.44,0-.13.05-.15.17-.15.33,0,.33,0,.31.32,0,.04,0,.08,0,.12-.03.32-.03.33.29.36.21.02.11.17.12.27,0,.08.07.21-.11.22-.4.03-.39.04-.43.46-.02.21.05.26.23.23.17-.03.2.06.18.2-.02.11.09.32-.17.28-.24-.04-.36.03-.34.3.01.11-.03.22-.03.33-.01.2-.28.35-.47.27-.08-.04-.05-.11-.05-.16.02-.24.04-.48.07-.73ZM20.04,15.8c.33,0,.37-.05.36-.56,0-.27-.22-.11-.33-.12-.25-.03-.26.02-.28.53,0,.26.18.1.26.15Z"/>
        <path class="cls-2" d="M20.04,15.8c-.07-.05-.27.11-.26-.15.02-.51.03-.56.28-.53.11.01.32-.15.33.12.01.51-.02.56-.36.56Z"/>
      </g>
    </g>
  </g>
</svg>