<?xml version="1.0" encoding="UTF-8"?>
<svg id="Layer_2" data-name="Layer 2" xmlns="http://www.w3.org/2000/svg" viewBox="0 0 31.11 31.11">
  <defs>
    <style>
      .cls-1 {
        fill: #fca311;
      }

      .cls-1, .cls-2, .cls-3, .cls-4 {
        stroke-width: 0px;
      }

      .cls-2 {
        fill: #fff;
      }

      .cls-3 {
        fill: #cc830e;
      }

      .cls-4 {
        fill: #734a08;
      }
    </style>
  </defs>
  <g id="Full_Stack_Devloper" data-name="Full Stack Devloper">
    <g id="Html">
      <rect id="BC_White" data-name="BC White" class="cls-2" x="0" width="31.11" height="31.11" rx="8" ry="8"/>
      <g id="Html_Logo" data-name="Html Logo">
        <path class="cls-1" d="M6.69,5.5c5.91,0,11.82,0,17.74-.01-.53,6.05-1.07,12.09-1.6,18.14-2.43.67-4.85,1.33-7.28,2-2.41-.68-4.82-1.35-7.23-2.03-.54-6.03-1.08-12.07-1.62-18.1Z"/>
        <path class="cls-3" d="M15.58,6.98c2.41,0,4.81,0,7.22-.01-.46,5.16-.91,10.33-1.37,15.49-1.96.55-3.91,1.09-5.87,1.64,0-5.71,0-11.41.01-17.12Z"/>
      </g>
      <path class="cls-4" d="M10.03,9.25c.06.77.11,1.53.17,2.3,2.83.02,5.66.03,8.5.05-.07.72-.14,1.44-.22,2.15-2.67.02-5.34.05-8.02.07l.14,2.23c2.58-.02,5.15-.03,7.73-.05-.09.93-.18,1.85-.26,2.78-.83.26-1.66.51-2.49.77-.82-.22-1.64-.43-2.46-.65-.06-.59-.13-1.18-.19-1.77-.75,0-1.5-.02-2.25-.02.13,1.15.26,2.3.38,3.45,1.53.45,3.06.89,4.59,1.34,1.48-.43,2.95-.86,4.43-1.29.35-3.79.7-7.58,1.05-11.37-3.7,0-7.4.02-11.1.02Z"/>
    </g>
  </g>
</svg>