<?xml version="1.0" encoding="UTF-8"?>
<svg id="Layer_2" data-name="Layer 2" xmlns="http://www.w3.org/2000/svg" viewBox="0 0 31.11 31.11">
  <defs>
    <style>
      .cls-1 {
        fill: #fca311;
      }

      .cls-1, .cls-2, .cls-3 {
        stroke-width: 0px;
      }

      .cls-2 {
        fill: #fff;
      }

      .cls-3 {
        fill: #734a08;
      }
    </style>
  </defs>
  <g id="Android_Developer" data-name="Android Developer">
    <g id="Java">
      <rect id="BC_White" data-name="BC White" class="cls-2" width="31.11" height="31.11" rx="8" ry="8"/>
      <g id="Java_Logo" data-name="Java Logo">
        <path class="cls-1" d="M15.54,5.73c5.44.08,9.81,4.3,9.83,9.83.02,5.27-4.15,9.81-9.83,9.82-5.31.01-9.8-4.18-9.8-9.82,0-5.45,4.27-9.71,9.79-9.83ZM16.35,16.61c.38-.25.73-.52.99-.89.34-.5.35-.97.02-1.47-.08-.12-.17-.24-.25-.36-.51-.73-.47-1.06.2-1.66.54-.49,1.16-.87,1.79-1.24.11-.06.2-.14.13-.28-.06-.13-.17-.11-.29-.08-.39.11-.76.24-1.13.4-.61.27-1.2.59-1.67,1.07-.53.55-.74,1.19-.48,1.93.12.34.32.63.54.91.39.48.37.85-.05,1.3-.11.12-.21.22-.05.41-1.14.04-2.23.15-3.31-.07.37-.21.77-.31,1.17-.42.13-.04.25-.07.23-.24-.02-.17-.15-.15-.27-.15-.8-.01-1.55.21-2.27.54-.21.1-.45.19-.44.47.01.29.27.34.49.41.56.18,1.15.22,1.73.24,1.16.04,2.32.02,3.48-.13.71-.09,1.4-.21,2.02-.61.09-.06.18-.11.14-.24-.04-.12-.13-.15-.25-.13-.14.02-.28.04-.42.07-.68.11-1.36.18-2.05.22ZM11.37,20.97c.4-.2.77-.31,1.18-.32.11,0,.19-.04.21-.16.02-.1-.04-.17-.13-.21-.11-.06-.23-.08-.36-.09-.36-.02-.71.06-1.05.16-.39.12-.77.27-1.07.56-.25.25-.2.54.1.71.17.09.36.14.55.17,1.23.21,2.48.32,3.73.35,1.58.03,3.15-.07,4.69-.44.44-.11.88-.23,1.24-.51.36-.27.32-.64-.09-.84-.09-.04-.18-.07-.26.01-.07.07-.08.16-.02.24.07.1.02.15-.06.19-.09.05-.19.09-.28.12-.43.13-.88.2-1.33.25-1.95.23-3.9.27-5.85.06-.4-.04-.8-.11-1.22-.28ZM13.55,13.15c0,.19.02.34.07.48.18.6.58,1.06,1,1.5.3.32.61.62.94.91.09.08.18.11.28.03.09-.07.09-.16.04-.26-.07-.13-.14-.26-.22-.39-.25-.41-.55-.79-.77-1.22-.27-.52-.23-1.01.09-1.49.23-.35.54-.63.86-.89.64-.52,1.25-1.07,1.63-1.82.37-.72.46-1.45.03-2.18-.08-.14-.16-.34-.38-.26-.2.08-.09.27-.07.41.08.48.04.94-.2,1.38-.26.48-.64.84-1.05,1.19-.55.45-1.14.85-1.63,1.37-.33.36-.62.74-.61,1.22ZM15.86,22.86c1.27,0,2.53-.08,3.77-.37.48-.11.96-.26,1.36-.57.21-.16.35-.36.39-.62.01-.09-.01-.16-.09-.21-.08-.04-.16-.03-.22.04-.2.23-.47.33-.74.43-.85.31-1.75.44-2.64.54-1.27.15-2.54.16-3.81.1-.52-.02-1.03-.06-1.54-.16-.15-.03-.22.06-.26.18-.04.13.04.18.15.22.2.08.41.14.62.18,1,.19,2.01.21,3.03.22ZM15.08,18.12c-.5,0-1.01-.03-1.5-.1-.18-.03-.26-.08-.08-.23.08-.07.09-.15.03-.24-.05-.08-.13-.11-.21-.08-.26.09-.52.18-.73.36-.29.25-.26.57.06.77.15.1.32.16.49.21,1.76.43,3.5.24,5.22-.22.09-.02.14-.08.15-.17,0-.1-.04-.15-.12-.19-.16-.06-.32-.13-.44-.25-.13-.13-.26-.14-.43-.11-.8.15-1.61.26-2.42.24ZM15.32,19.63c-.44,0-.89-.04-1.33-.11-.1-.01-.18-.01-.1-.17.08-.15-.04-.28-.22-.24-.22.05-.44.12-.63.27-.29.22-.29.55,0,.79.13.11.29.19.45.24,1.56.51,3.09.36,4.6-.22.08-.03.14-.08.14-.18,0-.11-.06-.16-.15-.19-.2-.09-.41-.18-.6-.29-.15-.09-.29-.11-.46-.08-.56.11-1.12.19-1.69.18ZM21.38,16.89c0-.05,0-.1-.01-.16-.08-.49-.38-.82-.82-.99-.48-.19-.96-.16-1.41.11-.11.06-.22.18-.14.33.08.15.21.1.33.06.02,0,.04,0,.06-.01.36-.09.69.02.87.28.21.3.13.59-.05.87-.19.29-.44.52-.73.71-.23.15-.47.28-.7.43-.08.05-.19.15-.14.22.05.09.15.21.3.17.75-.21,1.46-.48,2.01-1.06.25-.27.4-.58.42-.95Z"/>
        <path class="cls-3" d="M16.35,16.61c.69-.04,1.37-.11,2.05-.22.14-.02.28-.05.42-.07.11-.02.21,0,.25.13.04.13-.05.18-.14.24-.61.4-1.31.52-2.02.61-1.16.15-2.32.18-3.48.13-.58-.02-1.17-.06-1.73-.24-.22-.07-.48-.12-.49-.41-.01-.28.23-.37.44-.47.72-.33,1.47-.55,2.27-.54.12,0,.25-.02.27.15.02.17-.1.2-.23.24-.4.11-.8.21-1.17.42,1.08.22,2.17.11,3.31.07-.17-.19-.06-.29.05-.41.42-.45.44-.81.05-1.3-.22-.28-.43-.57-.54-.91-.26-.75-.05-1.38.48-1.93.47-.49,1.06-.8,1.67-1.07.37-.16.74-.29,1.13-.4.11-.03.22-.05.29.08.07.14-.02.22-.13.28-.62.37-1.24.75-1.79,1.24-.67.6-.71.93-.2,1.66.08.12.17.24.25.36.33.5.32.97-.02,1.47-.26.37-.61.64-.99.89Z"/>
        <path class="cls-3" d="M11.37,20.97c.42.17.82.23,1.22.28,1.95.21,3.9.16,5.85-.06.45-.05.89-.12,1.33-.25.1-.03.19-.08.28-.12.08-.04.14-.09.06-.19-.06-.08-.05-.17.02-.24.08-.09.17-.06.26-.01.4.2.45.57.09.84-.37.28-.81.4-1.24.51-1.54.37-3.11.47-4.69.44-1.25-.02-2.5-.14-3.73-.35-.19-.03-.38-.08-.55-.17-.31-.17-.35-.46-.1-.71.3-.3.68-.44,1.07-.56.34-.11.69-.18,1.05-.16.13,0,.25.03.36.09.09.04.14.11.13.21-.02.11-.1.15-.21.16-.41.01-.78.13-1.18.32Z"/>
        <path class="cls-3" d="M13.55,13.15c0-.48.28-.86.61-1.22.49-.52,1.08-.92,1.63-1.37.41-.34.79-.71,1.05-1.19.24-.43.28-.9.2-1.38-.02-.14-.13-.33.07-.41.22-.09.3.12.38.26.43.73.34,1.46-.03,2.18-.39.75-.99,1.3-1.63,1.82-.32.26-.63.54-.86.89-.32.48-.35.97-.09,1.49.22.43.53.8.77,1.22.08.13.15.26.22.39.05.09.06.19-.04.26-.1.08-.19.04-.28-.03-.33-.29-.64-.59-.94-.91-.41-.44-.82-.9-1-1.5-.04-.14-.06-.29-.07-.48Z"/>
        <path class="cls-3" d="M15.86,22.86c-1.01,0-2.03-.03-3.03-.22-.21-.04-.42-.1-.62-.18-.11-.04-.19-.09-.15-.22.04-.12.11-.21.26-.18.51.1,1.03.13,1.54.16,1.27.06,2.54.05,3.81-.1.9-.1,1.79-.23,2.64-.54.27-.1.54-.21.74-.43.06-.07.14-.08.22-.04.08.04.11.12.09.21-.04.27-.18.46-.39.62-.4.31-.88.45-1.36.57-1.24.29-2.5.36-3.77.37Z"/>
        <path class="cls-3" d="M15.08,18.12c.82.02,1.62-.09,2.42-.24.17-.03.3-.02.43.11.12.12.28.19.44.25.08.03.13.09.12.19,0,.09-.06.15-.15.17-1.72.46-3.46.65-5.22.22-.17-.04-.34-.11-.49-.21-.32-.21-.34-.53-.06-.77.21-.18.47-.27.73-.36.09-.03.16,0,.21.08.06.09.04.17-.03.24-.18.15-.1.2.08.23.5.07,1,.09,1.5.1Z"/>
        <path class="cls-3" d="M15.32,19.63c.57,0,1.14-.08,1.69-.18.17-.03.31-.01.46.08.19.11.4.19.6.29.09.04.15.09.15.19,0,.1-.06.15-.14.18-1.51.58-3.04.73-4.6.22-.16-.05-.32-.13-.45-.24-.29-.23-.29-.56,0-.79.19-.14.4-.22.63-.27.18-.04.3.09.22.24-.08.15,0,.15.1.17.44.07.88.1,1.33.11Z"/>
        <path class="cls-3" d="M21.38,16.89c-.02.37-.17.69-.42.95-.55.58-1.26.86-2.01,1.06-.14.04-.24-.08-.3-.17-.05-.08.06-.17.14-.22.23-.15.47-.28.7-.43.28-.19.54-.42.73-.71.18-.28.25-.57.05-.87-.18-.26-.52-.36-.87-.28-.02,0-.04,0-.06.01-.12.04-.25.09-.33-.06-.08-.16.03-.27.14-.33.45-.27.93-.3,1.41-.11.45.18.75.5.82.99,0,.05,0,.1.01.16Z"/>
      </g>
    </g>
  </g>
</svg>