<?xml version="1.0" encoding="UTF-8"?>
<svg id="Layer_2" data-name="Layer 2" xmlns="http://www.w3.org/2000/svg" viewBox="0 0 31.11 31.11">
  <defs>
    <style>
      .cls-1 {
        fill: #fca311;
      }

      .cls-1, .cls-2, .cls-3, .cls-4 {
        stroke-width: 0px;
      }

      .cls-2 {
        fill: #d88c0f;
      }

      .cls-3 {
        fill: #fff;
      }

      .cls-4 {
        fill: #734a08;
      }
    </style>
  </defs>
  <g id="AI_Engineer" data-name="AI Engineer">
    <g id="Numpy">
      <rect id="BC_White" data-name="BC White" class="cls-3" width="31.11" height="31.11" rx="8" ry="8"/>
      <g id="Numpy_Logo" data-name="Numpy Logo">
        <path class="cls-4" d="M14.88,25.72c-.26-.16-.5-.3-.74-.45-.47-.28-.92-.58-1.4-.85-.45-.25-.74-.61-.97-1.05-.79-1.52-1.58-3.05-2.37-4.57-.31-.6-.63-1.2-.98-1.8v5.33c-.3-.16-.57-.3-.84-.45-.46-.25-.93-.5-1.4-.74-.13-.07-.18-.15-.18-.3,0-1.58,0-3.15,0-4.73,0-1.75,0-3.5,0-5.25,0-.21,0-.21.19-.12.71.36,1.42.73,2.13,1.09.15.08.25.18.32.34,1.14,2.42,2.28,4.84,3.42,7.26.02.05.05.1.09.16.04-.08.03-.14.03-.21,0-1.79,0-3.58,0-5.37,0-.2,0-.2.17-.11.8.4,1.61.81,2.41,1.21.1.05.14.1.14.22,0,3.41,0,6.82,0,10.23,0,.05,0,.09-.01.16Z"/>
        <path class="cls-2" d="M16.29,25.77c0-.2,0-.37,0-.54,0-1.27,0-2.55,0-3.82,0-.09,0-.16.1-.21,1.28-.63,2.55-1.27,3.83-1.91.02-.01.04-.02.09-.03,0,.06,0,.11,0,.16,0,1.4,0,2.8,0,4.2,0,.12-.03.19-.15.24-1.24.61-2.47,1.23-3.7,1.84-.05.02-.09.04-.17.08Z"/>
        <path class="cls-2" d="M20.31,13.19c0,.07,0,.11,0,.16,0,1.39,0,2.77,0,4.16,0,.12-.04.19-.15.24-1.24.61-2.47,1.22-3.7,1.84-.13.07-.17.06-.17-.1,0-1.39,0-2.77,0-4.16,0-.1.02-.16.12-.21,1.26-.62,2.51-1.25,3.77-1.87.04-.02.07-.03.13-.06Z"/>
        <path class="cls-2" d="M25.12,19.13c0,.7,0,1.4,0,2.1,0,.11-.03.17-.13.22-1.05.52-2.1,1.04-3.15,1.57-.13.07-.15.04-.15-.1,0-1.41,0-2.81,0-4.22,0-.11.04-.16.14-.21,1.04-.52,2.08-1.05,3.12-1.57.13-.07.18-.07.17.1,0,.71,0,1.41,0,2.12Z"/>
        <path class="cls-2" d="M25.12,10.83s0,.1,0,.15c0,1.37,0,2.74,0,4.11,0,.12-.04.19-.15.24-1.03.52-2.06,1.04-3.09,1.57-.19.1-.19.1-.19-.11,0-1.38,0-2.75,0-4.13,0-.09,0-.16.1-.22,1.08-.53,2.15-1.07,3.23-1.6.03-.01.05-.03.09-.01Z"/>
        <path class="cls-1" d="M19.25,12.07c-.05.07-.12.09-.18.12-1.13.57-2.26,1.14-3.39,1.71-.08.04-.14.05-.23,0-1.11-.56-2.22-1.12-3.33-1.67-.02-.01-.04-.03-.08-.05.3-.16.58-.31.87-.46.87-.46,1.75-.91,2.62-1.38.11-.06.2-.06.31,0,1.1.56,2.19,1.11,3.29,1.66.04.02.08.04.12.07Z"/>
        <path class="cls-1" d="M6.98,9.62c1.13-.56,2.26-1.12,3.37-1.69.26-.14.46-.14.73,0,1,.53,2.02,1.03,3.06,1.55-.33.17-.64.34-.95.5-.86.45-1.73.9-2.59,1.35-.07.04-.13.06-.21.01-1.12-.57-2.24-1.13-3.36-1.69,0,0-.01-.02-.04-.04Z"/>
        <path class="cls-1" d="M17.27,9.47c.4-.21.78-.41,1.17-.62.64-.34,1.28-.67,1.91-1.01.07-.04.13-.06.21-.02,1.17.59,2.34,1.18,3.52,1.77.01,0,.03.02.05.04-.2.1-.39.2-.57.29-.86.43-1.72.87-2.58,1.3-.08.04-.15.05-.23,0-1.13-.57-2.27-1.15-3.4-1.72-.02-.01-.04-.03-.07-.05Z"/>
        <path class="cls-1" d="M18.9,6.99c-.52.28-1.01.54-1.49.8-.52.28-1.04.56-1.56.84-.08.04-.14.07-.23.02-1.08-.55-2.16-1.09-3.25-1.64-.01,0-.03-.02-.04-.03.03-.06.1-.07.14-.09.99-.5,1.98-.99,2.97-1.48.07-.04.14-.07.23-.03,1.07.54,2.13,1.07,3.24,1.62Z"/>
      </g>
    </g>
  </g>
</svg>