<svg id="Group_1031" data-name="Group 1031" xmlns="http://www.w3.org/2000/svg" xmlns:xlink="http://www.w3.org/1999/xlink" width="701.291" height="701.184" viewBox="0 0 701.291 701.184">
  <defs>
    <clipPath id="clip-path">
      <path id="Path_223" data-name="Path 223" d="M244.212,430.815c-43.878-28.354-73.093-69.1-79.994-112.013-5.067-31.7,2.371-61.127,21.67-85.061,25.335-31.48,67.058-47.543,112.551-47.543,38.273,0,79.132,11.427,115.248,34.606,43.878,28.354,73.093,69.1,79.992,112.012,5.068,31.7-2.371,61.128-21.669,85.061C446.6,449.319,404.881,465.4,359.418,465.4c-38.249,0-79.149-11.386-115.206-34.586M184.918,232.879c-19.514,24.256-27.061,54.011-21.885,86.03,6.9,43.231,36.331,84.413,80.533,112.876,36.224,23.394,77.406,34.821,115.893,34.821,45.819,0,87.972-16.171,113.522-47.974,19.514-24.257,27.06-54.013,21.885-86.03-6.9-43.233-36.33-84.414-80.532-112.876-36.28-23.383-77.426-34.852-115.928-34.851-45.819,0-87.887,16.252-113.487,48" transform="translate(-161.448 -184.876)" fill="none"/>
    </clipPath>
    <linearGradient id="linear-gradient" x1="-0.525" y1="1.745" x2="-0.521" y2="1.745" gradientUnits="objectBoundingBox">
      <stop offset="0" stop-color="#fca311"/>
      <stop offset="0.356" stop-color="#fca611"/>
      <stop offset="0.615" stop-color="#fcaf11"/>
      <stop offset="0.843" stop-color="#fcbf11"/>
      <stop offset="1" stop-color="#fccf11"/>
    </linearGradient>
    <clipPath id="clip-path-2">
      <path id="Path_224" data-name="Path 224" d="M392.573,197.056c46.9,20.376,82.8,56.493,98.538,99.076,12.4,33.528,11.1,68.674-3.666,99.075-34.714,71.477-133.9,98.86-221.006,61.02-46.9-20.376-82.8-56.493-98.537-99.075-12.4-33.528-11.1-68.675,3.666-99.076l-.647-.323.647.323c34.714-71.477,133.9-98.86,221.006-61.02M170.382,257.428c-14.985,30.726-16.279,66.3-3.773,100.155,15.955,42.907,52.071,79.346,99.289,99.83a204.083,204.083,0,0,0,81.4,17.142c61.126,0,116.864-28.677,141.335-78.809,14.987-30.725,16.279-66.3,3.773-100.154-15.955-42.907-52.071-79.346-99.291-99.829a205.069,205.069,0,0,0-81.447-17.1c-61.191,0-116.925,28.625-141.284,78.763" transform="translate(-158.099 -178.665)" fill="none"/>
    </clipPath>
    <linearGradient id="linear-gradient-2" x1="-0.5" y1="1.547" x2="-0.496" y2="1.547" xlink:href="#linear-gradient"/>
    <clipPath id="clip-path-3">
      <path id="Path_225" data-name="Path 225" d="M292.474,479.2c-47.435-11.428-88.511-40.644-112.552-80.1-21.024-34.5-27.491-74.173-18.328-111.69,17.249-70.075,84.738-116.325,160.742-116.325a187.574,187.574,0,0,1,44.525,5.39c47.435,11.428,88.51,40.644,112.551,80.1,21.024,34.5,27.492,74.172,18.329,111.689-17.172,69.953-84.651,116.266-160.646,116.266a190.583,190.583,0,0,1-44.62-5.331M160.193,287.088l.647.216-.647-.216c-9.272,37.84-2.7,77.946,18.543,112.767,24.149,39.782,65.547,69.213,113.414,80.749a190.483,190.483,0,0,0,44.955,5.39c76.652-.108,144.679-46.789,162.036-117.4,9.272-37.84,2.7-77.945-18.543-112.767-24.149-39.781-65.547-69.213-113.414-80.749a192.244,192.244,0,0,0-44.859-5.341c-76.663,0-144.772,46.734-162.132,117.355" transform="translate(-156.095 -169.733)" fill="none"/>
    </clipPath>
    <linearGradient id="linear-gradient-3" x1="-0.481" y1="1.608" x2="-0.478" y2="1.608" xlink:href="#linear-gradient"/>
    <clipPath id="clip-path-4">
      <path id="Path_226" data-name="Path 226" d="M322.1,498.62c-95.194-4.528-169.258-84.2-165.055-177.561,1.94-44.524,21.454-85.815,54.659-116.11a172.646,172.646,0,0,1,116.973-45.063c2.91,0,5.82.107,8.625.215,95.195,4.528,169.258,84.2,165.053,177.56-1.94,44.524-21.454,85.816-54.659,116.11a172.364,172.364,0,0,1-116.857,45.059q-4.355,0-8.739-.211M210.73,203.872a167.627,167.627,0,0,0-55.089,117.079c-4.2,94.118,70.4,174.433,166.455,179.069,2.911.109,5.822.215,8.732.215a173.724,173.724,0,0,0,117.943-45.493,167.633,167.633,0,0,0,55.09-117.081c4.2-94.116-70.4-174.433-166.456-179.069q-4.4-.211-8.767-.21A173.722,173.722,0,0,0,210.73,203.872" transform="translate(-155.472 -158.383)" fill="none"/>
    </clipPath>
    <linearGradient id="linear-gradient-4" x1="-0.483" y1="1.526" x2="-0.48" y2="1.526" xlink:href="#linear-gradient"/>
    <clipPath id="clip-path-5">
      <path id="Path_227" data-name="Path 227" d="M230.572,482.35c-39.458-29.324-65.008-73.417-71.908-124.194C144.973,257.677,210.627,163.777,304.959,148.9a157,157,0,0,1,25.55-2.048c35.038,0,69.321,11.428,98.429,33.1,39.458,29.323,65.008,73.417,71.908,124.194C514.537,404.619,448.882,498.52,354.551,513.4A163.931,163.931,0,0,1,329,515.407c-35.064,0-69.267-11.359-98.431-33.058M304.743,147.5C209.657,162.483,143.462,257.031,157.261,358.37c6.9,51.1,32.666,95.624,72.448,125.164a166.074,166.074,0,0,0,99.4,33.312,160.6,160.6,0,0,0,25.767-2.048c95.087-14.985,161.28-109.532,147.481-210.872-6.9-51.1-32.665-95.626-72.447-125.165-29.4-21.854-63.884-33.315-99.261-33.313a165.456,165.456,0,0,0-25.9,2.048" transform="translate(-155.442 -145.449)" fill="none"/>
    </clipPath>
    <linearGradient id="linear-gradient-5" x1="-0.441" y1="1.444" x2="-0.438" y2="1.444" xlink:href="#linear-gradient"/>
    <clipPath id="clip-path-6">
      <path id="Path_228" data-name="Path 228" d="M266.624,517.545c-46.25-22.1-82.581-65.871-99.507-120.206-32.665-104.467,13.8-218.2,103.6-253.673a150.755,150.755,0,0,1,55.522-10.673,155,155,0,0,1,66.841,15.415c46.249,22.1,82.582,65.873,99.506,120.207,32.667,104.467-13.8,218.2-103.6,253.672a150.176,150.176,0,0,1-55.515,10.678,154.716,154.716,0,0,1-66.847-15.422m3.558-375.388C179.623,177.948,132.727,292.549,165.609,397.77c17.033,54.767,53.579,98.86,100.262,121.176a156.45,156.45,0,0,0,67.6,15.525,153.534,153.534,0,0,0,56.06-10.674C480.085,488.005,526.981,373.4,494.1,268.184c-17.034-54.765-53.581-98.86-100.261-121.176a156.312,156.312,0,0,0-67.6-15.6,152.213,152.213,0,0,0-56.06,10.749" transform="translate(-155.104 -131.408)" fill="none"/>
    </clipPath>
    <linearGradient id="linear-gradient-6" x1="-0.389" y1="1.37" x2="-0.387" y2="1.37" xlink:href="#linear-gradient"/>
    <clipPath id="clip-path-7">
      <path id="Path_229" data-name="Path 229" d="M306.619,545.811c-50.994-13.154-96.272-52.718-123.98-108.564-51.963-104.681-28.029-235.776,53.366-292.267,34.822-24.257,76.543-31.8,117.511-21.239,50.993,13.152,96.273,52.719,123.979,108.563,51.963,104.682,28.03,235.776-53.365,292.268a141.3,141.3,0,0,1-81.251,25.895,145.064,145.064,0,0,1-36.259-4.657M235.034,143.687C152.993,200.61,128.843,332.674,181.131,438c27.921,56.276,73.524,96.165,125.056,109.424a147.281,147.281,0,0,0,36.655,4.636,143.1,143.1,0,0,0,82.149-26.09c82.043-56.922,106.191-188.986,53.9-294.315-27.921-56.277-73.525-96.165-125.057-109.426a147.174,147.174,0,0,0-36.529-4.652,143.491,143.491,0,0,0-82.275,26.106" transform="translate(-153.512 -117.581)" fill="none"/>
    </clipPath>
    <linearGradient id="linear-gradient-7" x1="-0.371" y1="1.304" x2="-0.369" y2="1.304" xlink:href="#linear-gradient"/>
    <clipPath id="clip-path-8">
      <path id="Path_230" data-name="Path 230" d="M348.779,566.627C295.845,563.5,243.558,530.727,205.5,476.5c-71.045-101.016-72.555-245.8-3.45-322.992,27.49-30.618,63.5-47.221,102.31-47.221,2.7,0,5.391.108,8.086.216,52.933,3.127,105.113,35.9,143.277,90.127,71.045,101.017,72.555,245.8,3.45,322.994-27.422,30.647-63.508,47.248-102.281,47.246-2.69,0-5.4-.081-8.114-.242m-148.021-414.2c-69.644,77.621-68.242,223.486,3.235,325.042,38.379,54.658,91.1,87.755,144.57,90.882,2.8.108,5.5.215,8.192.215,39.351,0,75.79-16.818,103.6-47.76C530,443.186,528.6,297.323,457.125,195.767c-38.379-54.659-91.1-87.756-144.57-90.883q-4.1-.24-8.168-.239c-39.279,0-75.795,16.723-103.629,47.783" transform="translate(-149.441 -104.645)" fill="none"/>
    </clipPath>
    <linearGradient id="linear-gradient-8" x1="-0.379" y1="1.256" x2="-0.376" y2="1.256" xlink:href="#linear-gradient"/>
    <clipPath id="clip-path-9">
      <path id="Path_231" data-name="Path 231" d="M235.477,513.382C146.428,420.344,117.319,266.07,170.47,169.366c22.962-41.722,58.863-67.81,101.231-73.31a135.753,135.753,0,0,1,17.465-1.077c47.005,0,96.6,24.041,138.427,67.811C516.641,255.829,545.749,410.1,492.6,506.805c-22.963,41.723-58.863,67.811-101.231,73.31a133.656,133.656,0,0,1-17.343,1.118c-47.027,0-96.631-24.113-138.548-67.852M271.484,94.441c-42.907,5.606-79.345,31.91-102.524,74.171-53.581,97.349-24.257,252.594,65.223,346.064,42.262,44.093,92.284,68.35,139.827,68.35a158.367,158.367,0,0,0,17.573-1.078c42.908-5.607,79.346-31.911,102.525-74.172,53.581-97.35,24.257-252.593-65.224-346.063-42.163-44.176-92.157-68.421-139.7-68.419a136,136,0,0,0-17.7,1.147" transform="translate(-142.164 -93.294)" fill="none"/>
    </clipPath>
    <linearGradient id="linear-gradient-9" x1="-0.311" y1="1.216" x2="-0.308" y2="1.216" xlink:href="#linear-gradient"/>
    <clipPath id="clip-path-10">
      <path id="Path_232" data-name="Path 232" d="M272.288,546.342C167.174,465.594,109.066,306.9,142.81,192.731c15.093-50.994,46.9-86.786,89.372-100.585a130.114,130.114,0,0,1,40.537-6.253c39.026,0,81.5,15.956,121.283,46.465C499.008,213.108,557.116,371.8,523.373,485.97c-15.093,50.994-46.9,86.786-89.372,100.584a130.864,130.864,0,0,1-40.524,6.242c-39.1,0-81.518-15.987-121.188-46.454M231.537,90.206c-43.124,14.015-75.251,50.239-90.56,101.879C107.126,307.008,165.449,466.564,271.1,547.744c40,30.833,82.8,46.9,122.254,46.9a130.409,130.409,0,0,0,41.074-6.36c43.124-14.015,75.251-50.238,90.56-101.879,33.959-114.924-24.365-274.479-130.018-355.659-40.028-30.754-82.792-46.88-122.3-46.88a132.82,132.82,0,0,0-41.135,6.345" transform="translate(-131.355 -83.861)" fill="none"/>
    </clipPath>
    <linearGradient id="linear-gradient-10" x1="-0.276" y1="1.187" x2="-0.274" y2="1.187" xlink:href="#linear-gradient"/>
    <clipPath id="clip-path-11">
      <path id="Path_233" data-name="Path 233" d="M314.721,573.776C196.132,509.414,108.916,352.122,120.235,223.184c5.284-60.372,31.48-106.191,73.741-128.831,19.083-10.242,40.428-15.309,63.177-15.309,30.724,0,64.036,9.271,97.889,27.6C473.63,171.112,560.846,328.3,549.528,457.235c-5.284,60.372-31.48,106.191-73.74,128.831-19.1,10.282-40.429,15.386-63.2,15.383-30.7,0-64.007-9.286-97.87-27.673M192.9,92.628c-42.8,23.07-69.32,69.321-74.711,130.448C106.866,352.66,194.515,510.815,313.75,575.5c34.176,18.543,67.811,27.922,98.86,27.922,23.071,0,44.74-5.175,64.039-15.632,42.8-23.071,69.32-69.32,74.711-130.448C562.679,327.757,475.03,169.6,355.8,104.918c-34.172-18.537-67.735-27.867-98.733-27.865-23.083,0-44.747,5.176-64.166,15.575" transform="translate(-117.202 -77.053)" fill="none"/>
    </clipPath>
    <linearGradient id="linear-gradient-11" x1="-0.269" y1="1.166" x2="-0.266" y2="1.166" xlink:href="#linear-gradient"/>
    <clipPath id="clip-path-12">
      <path id="Path_234" data-name="Path 234" d="M361.976,594.261c-128.723-44.2-244.4-193.839-257.878-333.774-6.684-69.212,12.183-125.164,53.258-157.508C180.967,84.33,210.29,74.95,243.172,74.95c21.669,0,44.955,4.205,69.1,12.4,128.723,44.2,244.4,193.839,257.877,333.774,6.684,69.212-12.182,125.165-53.257,157.508-23.555,18.624-52.89,28.029-85.75,28.029-21.732,0-45.008-4.114-69.169-12.4M156.169,101.471c-41.505,32.773-60.7,89.374-54.011,159.232,13.477,140.582,129.8,291.083,259.17,335.391C385.694,604.5,409.2,608.6,431.081,608.6c33.313,0,63.068-9.486,87.11-28.46,41.5-32.774,60.7-89.373,54.011-159.233C558.726,280.324,442.4,129.824,313.031,85.515c-24.417-8.352-47.925-12.5-69.888-12.5-33.313,0-63.063,9.55-86.974,28.457" transform="translate(-100.855 -73.014)" fill="none"/>
    </clipPath>
    <linearGradient id="linear-gradient-12" x1="-0.225" y1="1.155" x2="-0.223" y2="1.155" xlink:href="#linear-gradient"/>
    <clipPath id="clip-path-13">
      <path id="Path_235" data-name="Path 235" d="M412.139,606.379C277.378,586,135.287,450.274,95.4,303.762c-20.483-75.142-10.566-142.631,27.167-185,26.629-29.863,65.332-45.6,111.15-45.6a218.965,218.965,0,0,1,32.991,2.588c134.759,20.377,276.85,156.107,316.739,302.617,20.484,75.142,10.565,142.631-27.168,185-26.594,29.919-65.322,45.568-111.126,45.567a221.872,221.872,0,0,1-33.012-2.553M121.056,117.363C82.892,160.27,72.758,228.4,93.457,304.3c40.106,147.266,182.951,283.643,318.465,304.126a223.127,223.127,0,0,0,33.313,2.588c46.466,0,85.708-15.956,112.66-46.25,38.164-42.908,48.3-111.042,27.6-186.939C545.389,230.56,402.544,94.184,267.028,73.7a221.909,221.909,0,0,0-33.461-2.62c-46.284,0-85.5,15.945-112.51,46.282" transform="translate(-82.927 -71.081)" fill="none"/>
    </clipPath>
    <linearGradient id="linear-gradient-13" x1="-0.157" y1="1.149" x2="-0.155" y2="1.149" xlink:href="#linear-gradient"/>
    <clipPath id="clip-path-14">
      <path id="Path_236" data-name="Path 236" d="M95.362,351.908c-36.007-79.455-37.84-155.784-5.067-209.363C116.168,100.391,162.2,75.6,219.881,73.007c136.161-6.144,301.432,109.21,368.6,257.231,36.008,79.454,37.841,155.782,5.068,209.363-25.875,42.153-71.908,66.948-129.586,69.536v0c-3.541.162-7.082.242-10.66.242-134.012-.01-292.518-113.2-357.936-257.472M219.773,70.853c-58.54,2.694-105.113,27.706-131.417,70.613C55.15,195.693,56.982,272.776,93.314,352.879c65.762,145,225.319,258.738,360.078,258.738q5.338,0,10.674-.323c58.54-2.7,105.113-27.707,131.417-70.615,33.205-54.227,31.373-131.31-4.959-211.411C524.779,184.438,365.214,70.61,230.434,70.611q-5.357,0-10.661.242" transform="translate(-64.696 -70.611)" fill="none"/>
    </clipPath>
    <linearGradient id="linear-gradient-14" x1="-0.111" y1="1.147" x2="-0.109" y2="1.147" xlink:href="#linear-gradient"/>
    <clipPath id="clip-path-15">
      <path id="Path_237" data-name="Path 237" d="M104.243,403.877C52.063,323.883,36.322,240.871,61.335,175.97c18.543-48.189,57.246-81.179,112.013-95.626A242.486,242.486,0,0,1,234.582,72.8c123.333,0,269.305,82.688,349.621,205.589,52.18,79.887,67.919,162.9,42.908,227.8-18.543,48.191-57.246,81.18-112.013,95.626a240.564,240.564,0,0,1-61.249,7.564c-123.345-.005-269.318-82.628-349.607-205.5M172.809,78.187c-55.414,14.556-94.765,48.084-113.523,97.028C34.059,240.871,49.8,324.637,102.409,405.171c80.749,123.548,227.475,206.56,351.562,206.56a241.887,241.887,0,0,0,61.775-7.655c55.412-14.555,94.762-48.083,113.521-97.027,25.227-65.655,9.489-149.421-43.122-229.954C505.4,153.587,358.628,70.56,234.511,70.57a242.721,242.721,0,0,0-61.7,7.617" transform="translate(-47.512 -70.57)" fill="none"/>
    </clipPath>
    <linearGradient id="linear-gradient-15" x1="-0.065" y1="1.148" x2="-0.063" y2="1.148" xlink:href="#linear-gradient"/>
    <clipPath id="clip-path-16">
      <path id="Path_238" data-name="Path 238" d="M122.782,458.157C55.079,382.368,24.137,295.8,37.722,220.548c9.7-53.689,41.182-95.95,91.1-122.039C163.425,80.4,203.961,71.773,246.976,71.773c110.073,0,236.639,56.275,322.778,152.764,67.7,75.79,98.645,162.359,85.06,237.609-9.7,53.689-41.183,95.95-91.1,122.039-34.605,18.113-75.142,26.738-118.157,26.738-110.073,0-236.639-56.384-322.778-152.765m5.067-361.8c-50.562,26.52-82.473,69.32-92.392,123.762-13.8,75.9,17.466,163.223,85.6,239.55,86.569,96.919,213.782,153.519,324.609,153.519,43.339,0,84.2-8.625,119.236-26.952l-.539-1.079.539,1.079c50.562-26.521,82.473-69.321,92.391-123.765,13.8-75.9-17.464-163.221-85.6-239.549C484.986,125.983,357.79,69.37,246.986,69.37c-43.358,0-84.208,8.669-119.138,26.984" transform="translate(-32.257 -69.37)" fill="none"/>
    </clipPath>
    <linearGradient id="linear-gradient-16" x1="-0.04" y1="1.145" x2="-0.038" y2="1.145" xlink:href="#linear-gradient"/>
    <clipPath id="clip-path-17">
      <path id="Path_239" data-name="Path 239" d="M150.9,512.921C70.147,446.186,23.144,360.372,22.065,277.251c-.755-59.509,22.1-111.257,66.195-149.529C134.724,87.4,198.654,67.781,267.868,67.781c92.823,0,195.133,35.253,277.067,102.957,80.748,66.733,127.752,152.548,128.83,235.668.754,59.509-22.1,111.257-66.194,149.529l.863.971-.863-.971c-46.369,40.338-110.309,59.925-179.522,59.923-92.83,0-195.135-35.249-277.153-102.938M86.642,125.89C42.01,164.7,18.831,216.988,19.585,277.251c1.186,83.768,48.406,170.338,129.8,237.5,82.473,68.027,185.322,103.5,278.684,103.5,69.859,0,134.436-19.728,181.225-60.588,44.633-38.811,67.812-91.1,67.056-151.362-1.186-83.767-48.4-170.337-129.8-237.5C464.074,100.755,361.292,65.364,267.9,65.371c-69.82,0-134.4,19.795-181.26,60.519" transform="translate(-19.567 -65.371)" fill="none"/>
    </clipPath>
    <linearGradient id="linear-gradient-17" x1="-0.033" y1="1.134" x2="-0.031" y2="1.134" xlink:href="#linear-gradient"/>
    <clipPath id="clip-path-18">
      <path id="Path_240" data-name="Path 240" d="M188.583,566.343C98.349,513.085,36.251,432.876,18.032,346.2,4.339,281.19,16.63,219.632,53.5,168.315,104.924,96.838,195.376,59.428,294.128,59.428c71.476,0,147.373,19.622,215.832,60.049,90.235,53.257,152.333,133.467,170.552,220.144,13.692,65.008,1.4,126.567-35.469,177.884-51.425,71.477-141.877,108.886-240.628,108.886-71.477,0-147.373-19.621-215.833-60.049M51.451,166.914c-36.763,51.209-49.483,115.139-35.9,179.932C33.879,434.17,96.516,515.026,187.29,568.715c68.781,40.643,145.11,60.372,217.018,60.372,99.615,0,190.82-37.841,242.783-109.964l-1.077-.755,1.077.755c36.763-51.209,49.484-115.14,35.9-179.932-18.329-87.324-80.964-168.18-171.738-221.869C442.376,76.619,366.129,56.9,294.183,56.9c-99.558.007-190.851,37.788-242.732,110.009" transform="translate(-10.251 -56.905)" fill="none"/>
    </clipPath>
    <linearGradient id="linear-gradient-18" x1="-0.005" y1="1.113" x2="-0.003" y2="1.113" xlink:href="#linear-gradient"/>
    <clipPath id="clip-path-19">
      <path id="Path_241" data-name="Path 241" d="M235.018,616.747C140.039,579.985,65,510.34,29.1,425.712c-29-68.243-29.862-141.337-2.587-205.807C72.875,110.373,190.385,45.688,319.863,45.688A401.745,401.745,0,0,1,465.081,73.072c94.979,36.763,170.012,106.406,205.913,191.036,29,68.241,29.863,141.337,2.587,205.805-46.312,109.56-163.777,174.236-293.3,174.227a403.342,403.342,0,0,1-145.261-27.392M24.038,218.613C-3.454,283.836-2.591,357.685,26.625,426.574c36.116,85.384,111.8,155.567,207.424,192.545a404.817,404.817,0,0,0,146.186,27.6c130.556,0,249.038-65.223,295.826-175.835,27.492-65.223,26.629-139.072-2.587-207.961-36.117-85.384-111.8-155.567-207.424-192.545A405.6,405.6,0,0,0,319.836,42.8c-130.561,0-249.08,65.284-295.8,175.816" transform="translate(-4.047 -42.796)" fill="none"/>
    </clipPath>
    <linearGradient id="linear-gradient-19" x1="0.004" y1="1.081" x2="0.006" y2="1.081" xlink:href="#linear-gradient"/>
    <clipPath id="clip-path-20">
      <path id="Path_242" data-name="Path 242" d="M289.468,661.357C198.262,643.568,118.807,594.3,65.874,522.393,12.94,450.593-7.22,364.885,9.058,281.011,38.382,130.187,179.179,26.475,339.49,26.475a375.6,375.6,0,0,1,72.124,7.008c188.232,36.654,313.936,207.206,280.3,380.345-29.323,150.824-170.12,254.536-330.431,254.536a374.59,374.59,0,0,1-72.016-7.007M6.363,280.579C-10.131,365.1,10.244,451.671,63.609,524.118S197.076,646.264,288.928,664.16a380.934,380.934,0,0,0,72.555,7.007c161.6,0,303.587-104.682,333.127-256.907l-1.4-.323,1.4.323c33.96-174.648-92.823-346.71-282.565-383.582a379.812,379.812,0,0,0-72.478-7.016c-161.594,0-303.609,104.716-333.2,256.916" transform="translate(-0.785 -23.663)" fill="none"/>
    </clipPath>
    <linearGradient id="linear-gradient-20" x1="0.014" y1="1.041" x2="0.015" y2="1.041" xlink:href="#linear-gradient"/>
    <clipPath id="clip-path-21">
      <path id="Path_243" data-name="Path 243" d="M2.911,350.592c0-191.682,156-347.681,347.681-347.681,191.791,0,347.681,156,347.681,347.681s-156,347.681-347.681,347.681S2.911,542.275,2.911,350.592M350.592,0C157.292,0,0,157.292,0,350.592S157.292,701.184,350.592,701.184c193.407,0,350.7-157.292,350.7-350.592S544,0,350.592,0Z" transform="translate(0 0)" fill="none"/>
    </clipPath>
    <linearGradient id="linear-gradient-21" x1="0" y1="1" x2="0.002" y2="1" xlink:href="#linear-gradient"/>
  </defs>
  <g id="Group_77" data-name="Group 77" transform="translate(183.09 209.659)">
    <g id="Group_76" data-name="Group 76" clip-path="url(#clip-path)">
      <rect id="Rectangle_84" data-name="Rectangle 84" width="342.183" height="281.731" transform="translate(-3.59 -0.001)" fill="url(#linear-gradient)"/>
    </g>
  </g>
  <g id="Group_79" data-name="Group 79" transform="translate(179.292 202.615)">
    <g id="Group_78" data-name="Group 78" clip-path="url(#clip-path-2)">
      <rect id="Rectangle_85" data-name="Rectangle 85" width="350.807" height="334.851" transform="translate(-3.996 -19.449)" fill="url(#linear-gradient-2)"/>
    </g>
  </g>
  <g id="Group_81" data-name="Group 81" transform="translate(177.02 192.486)">
    <g id="Group_80" data-name="Group 80" clip-path="url(#clip-path-3)">
      <rect id="Rectangle_86" data-name="Rectangle 86" width="357.492" height="316.261" transform="translate(-5.173)" fill="url(#linear-gradient-3)"/>
    </g>
  </g>
  <g id="Group_83" data-name="Group 83" transform="translate(176.313 179.614)">
    <g id="Group_82" data-name="Group 82" clip-path="url(#clip-path-4)">
      <rect id="Rectangle_87" data-name="Rectangle 87" width="356.628" height="341.853" transform="translate(-4.036)" fill="url(#linear-gradient-4)"/>
    </g>
  </g>
  <g id="Group_85" data-name="Group 85" transform="translate(176.279 164.947)">
    <g id="Group_84" data-name="Group 84" clip-path="url(#clip-path-5)">
      <rect id="Rectangle_88" data-name="Rectangle 88" width="372.692" height="371.401" transform="translate(-11.98 -0.002)" fill="url(#linear-gradient-5)"/>
    </g>
  </g>
  <g id="Group_87" data-name="Group 87" transform="translate(175.896 149.023)">
    <g id="Group_86" data-name="Group 86" clip-path="url(#clip-path-6)">
      <rect id="Rectangle_89" data-name="Rectangle 89" width="394.254" height="403.063" transform="translate(-22.377 -0.001)" fill="url(#linear-gradient-6)"/>
    </g>
  </g>
  <g id="Group_89" data-name="Group 89" transform="translate(174.091 133.343)">
    <g id="Group_88" data-name="Group 88" clip-path="url(#clip-path-7)">
      <rect id="Rectangle_90" data-name="Rectangle 90" width="402.34" height="438.887" transform="translate(-24.669 -4.405)" fill="url(#linear-gradient-7)"/>
    </g>
  </g>
  <g id="Group_91" data-name="Group 91" transform="translate(169.474 118.673)">
    <g id="Group_90" data-name="Group 90" clip-path="url(#clip-path-8)">
      <rect id="Rectangle_91" data-name="Rectangle 91" width="398.89" height="463.922" transform="translate(-18.327 0)" fill="url(#linear-gradient-8)"/>
    </g>
  </g>
  <g id="Group_93" data-name="Group 93" transform="translate(161.222 105.8)">
    <g id="Group_92" data-name="Group 92" clip-path="url(#clip-path-9)">
      <rect id="Rectangle_92" data-name="Rectangle 92" width="432.312" height="489.734" transform="translate(-26.786 -0.002)" fill="url(#linear-gradient-9)"/>
    </g>
  </g>
  <g id="Group_95" data-name="Group 95" transform="translate(148.964 95.103)">
    <g id="Group_94" data-name="Group 94" clip-path="url(#clip-path-10)">
      <rect id="Rectangle_93" data-name="Rectangle 93" width="451.823" height="510.778" transform="translate(-24.229 0)" fill="url(#linear-gradient-10)"/>
    </g>
  </g>
  <g id="Group_97" data-name="Group 97" transform="translate(132.913 87.382)">
    <g id="Group_96" data-name="Group 96" clip-path="url(#clip-path-11)">
      <rect id="Rectangle_94" data-name="Rectangle 94" width="455.813" height="526.371" transform="translate(-10.336 -0.002)" fill="url(#linear-gradient-11)"/>
    </g>
  </g>
  <g id="Group_99" data-name="Group 99" transform="translate(114.375 82.802)">
    <g id="Group_98" data-name="Group 98" clip-path="url(#clip-path-12)">
      <rect id="Rectangle_95" data-name="Rectangle 95" width="483.412" height="535.586" transform="translate(-5.381 -0.001)" fill="url(#linear-gradient-12)"/>
    </g>
  </g>
  <g id="Group_101" data-name="Group 101" transform="translate(94.043 80.61)">
    <g id="Group_100" data-name="Group 100" clip-path="url(#clip-path-13)">
      <rect id="Rectangle_96" data-name="Rectangle 96" width="533.435" height="539.935" transform="translate(-10.169 -0.001)" fill="url(#linear-gradient-13)"/>
    </g>
  </g>
  <g id="Group_103" data-name="Group 103" transform="translate(73.369 80.076)">
    <g id="Group_102" data-name="Group 102" clip-path="url(#clip-path-14)">
      <rect id="Rectangle_97" data-name="Rectangle 97" width="573.539" height="544.754" transform="translate(-9.546 -3.748)" fill="url(#linear-gradient-14)"/>
    </g>
  </g>
  <g id="Group_105" data-name="Group 105" transform="translate(53.882 80.03)">
    <g id="Group_104" data-name="Group 104" clip-path="url(#clip-path-15)">
      <rect id="Rectangle_98" data-name="Rectangle 98" width="620.435" height="541.17" transform="translate(-13.454 -0.01)" fill="url(#linear-gradient-15)"/>
    </g>
  </g>
  <g id="Group_107" data-name="Group 107" transform="translate(36.581 78.669)">
    <g id="Group_106" data-name="Group 106" clip-path="url(#clip-path-16)">
      <rect id="Rectangle_99" data-name="Rectangle 99" width="649.436" height="543.815" transform="translate(-10.6 0)" fill="url(#linear-gradient-16)"/>
    </g>
  </g>
  <g id="Group_109" data-name="Group 109" transform="translate(22.19 74.134)">
    <g id="Group_108" data-name="Group 108" clip-path="url(#clip-path-17)">
      <rect id="Rectangle_100" data-name="Rectangle 100" width="658.276" height="552.884" transform="translate(-0.736 -0.007)" fill="url(#linear-gradient-17)"/>
    </g>
  </g>
  <g id="Group_111" data-name="Group 111" transform="translate(11.625 64.533)">
    <g id="Group_110" data-name="Group 110" clip-path="url(#clip-path-18)">
      <rect id="Rectangle_101" data-name="Rectangle 101" width="694.608" height="572.188" transform="translate(-8.283 -0.006)" fill="url(#linear-gradient-18)"/>
    </g>
  </g>
  <g id="Group_113" data-name="Group 113" transform="translate(4.589 48.533)">
    <g id="Group_112" data-name="Group 112" clip-path="url(#clip-path-19)">
      <rect id="Rectangle_102" data-name="Rectangle 102" width="707.006" height="603.921" transform="translate(-7.5 0)" fill="url(#linear-gradient-19)"/>
    </g>
  </g>
  <g id="Group_115" data-name="Group 115" transform="translate(0.89 26.835)">
    <g id="Group_114" data-name="Group 114" clip-path="url(#clip-path-20)">
      <rect id="Rectangle_103" data-name="Rectangle 103" width="738.702" height="647.505" transform="translate(-10.916 0)" fill="url(#linear-gradient-20)"/>
    </g>
  </g>
  <g id="Group_117" data-name="Group 117">
    <g id="Group_116" data-name="Group 116" clip-path="url(#clip-path-21)">
      <rect id="Rectangle_104" data-name="Rectangle 104" width="701.291" height="701.184" transform="translate(0 0)" fill="url(#linear-gradient-21)"/>
    </g>
  </g>
</svg>
