<svg xmlns="http://www.w3.org/2000/svg" xmlns:xlink="http://www.w3.org/1999/xlink" width="1318.65" height="1324.747" viewBox="0 0 1318.65 1324.747">
  <defs>
    <clipPath id="clip-path">
      <path id="Path_222" data-name="Path 222" d="M409.2,554.653,517.665,486.7l-108.476,77.64c-18.454,13.207-37.391,17.3-47.129,10.182-4.883-3.571-6.864-9.63-5.82-17.431l1.235-5.1a16.44,16.44,0,0,0,5.4,8.768c3.734,3.13,8.8,4.663,14.717,4.663,9.143,0,20.293-3.668,31.613-10.761m1.952,12.43,116.99-83.732L412.386,577.316c-22.755,18.47-42.545,20.668-52.071,14.659-5.375-3.4-7.966-9.473-7.578-17.48l.963-6.036a17.459,17.459,0,0,0,6.371,8.784c3.813,2.785,8.681,4.142,14.248,4.142,10.614,0,23.749-4.937,36.833-14.3m3.359,12.855L539.326,478.623,417.185,590.63c-24.016,22.026-46,25.837-57.138,19.848-5.915-3.183-9.171-9.237-9.5-17.421l.536-7.132a18.655,18.655,0,0,0,7.436,8.9,25,25,0,0,0,13.516,3.509c12.308,0,27.814-6.493,42.481-18.4m4.954,13.183L551.277,472.242,423.794,604.151c-21.336,22.067-46.935,32.682-62.255,25.808-6.524-2.925-10.516-8.923-11.639-17.252l-.105-8.235a20.055,20.055,0,0,0,8.651,8.98,26.873,26.873,0,0,0,12.862,2.966c14.062,0,31.856-8.346,48.156-23.3m6.756,13.373L563.776,464.168,432.421,617.708c-21.914,25.62-49.591,39.028-67.322,32.611-7.236-2.622-11.971-8.291-13.968-16.6l-1.026-9.667a21.8,21.8,0,0,0,10.052,8.995,29.212,29.212,0,0,0,12.042,2.4c16.017,0,36.223-10.534,54.022-28.953m8.766,13.409,141.7-165.637-133.4,176.868c-22.145,29.359-51.842,45.924-72.216,40.273-8.007-2.22-13.635-7.711-16.589-16.083l-2.193-10.637-.01-.1a23.837,23.837,0,0,0,11.665,8.9,32.16,32.16,0,0,0,10.974,1.827c18.222,0,40.97-13.092,60.065-35.416m11,13.263L589.842,442.426,456.624,644.208c-21.939,33.233-53.511,53.311-76.767,48.835-8.895-1.711-15.529-6.953-19.553-15.338l-3.463-10.97-.14-.676a26.376,26.376,0,0,0,13.472,8.6,34.3,34.3,0,0,0,9.182,1.2c20.706,0,46.749-16.328,66.633-42.691m13.454,12.9L602.987,428.645,472.651,656.694c-21.229,37.149-54.443,61.117-80.794,58.3A29.732,29.732,0,0,1,368.9,700.635l-4.881-11.15-.4-1.274a29.486,29.486,0,0,0,15.6,8.148,38.078,38.078,0,0,0,7.221.672c23.522,0,52.492-19.891,73-50.959m16.142,12.3L615.937,412.787,491.6,668.313c-19.951,41-54.473,69.166-84.051,68.627-11.146-.225-20.282-4.686-26.906-13.028l-6.478-11.241-.8-1.815A33.359,33.359,0,0,0,391.5,718.35a42.377,42.377,0,0,0,4.566.24c26.786,0,58.836-24.029,79.521-60.219m-269.1-19.984c-24.34-16.448-39.194-47.3-40.756-84.644-2.139-51.135,20.366-103.408,57.339-133.17l18.643-15.008c-31.6,27.151-52.763,71.958-54.8,117.457-1.629,36.312,9.564,67.488,30.7,85.539L423.773,784.628l.912.98q.279.3.557.59Zm288.156,31.4L628.419,394.848l-114.713,283.9c-18.056,44.676-53.523,77.466-86.262,79.741-12.573.86-23.274-2.984-31.516-11.221l-8.288-11.231-1.317-2.285a38.118,38.118,0,0,0,21.166,6.558c.322,0,.643.008.972.008,30.587,0,65.888-28.833,86.176-70.533M219.8,605.994c-20.338-17.37-31.1-47.559-29.515-82.821,2.185-48.715,26.687-96.577,62.421-121.931l14.084-9.991c-28.637,23.524-49.756,62.565-55.228,103.6-4.6,34.434,2.839,65,20.4,83.847l170.27,182.8.585.792Zm14.633-29.6c-16.87-18.113-23.989-47.671-19.526-81.1,6.1-45.746,31.993-88.927,65.964-110.016l11.073-6.874c-26.294,20.037-47.443,54.018-55.731,90.9-7.364,32.748-3.326,62.726,11.08,82.249L384.62,737.635ZM427.679,761.861c33.976-2.361,70.641-36.016,89.154-81.843l123.32-305.194L539.18,687.674c-15.5,48.03-51.324,85.654-87.119,91.494-14.223,2.318-26.778-.705-36.938-8.783l-10.3-11.053-1.984-2.688a43.162,43.162,0,0,0,21.263,5.342c1.177,0,2.371-.038,3.573-.123M250.006,549.54c-13.824-18.73-17.655-47.709-10.5-79.506,9.5-42.262,36.166-80.591,67.928-97.649l8.212-4.411c-24.024,16.757-44.316,45.371-54.889,78.406-9.978,31.172-9.057,60.573,2.527,80.665L369.837,711.918ZM592.091,409.349c-.572-7.111-4.235-12.287-10.6-14.97l-77.514-32.72,81.441,24.894c6.128,1.874,9.755,6.013,10.787,12.3,1.189,7.272-1.422,17.531-7.91,28.272,2.841-6.256,4.229-12.359,3.793-17.778M266.2,525.358c-11.108-19.269-11.925-47.683-2.233-77.953,12.471-38.959,38.65-71.582,68.333-85.136l6.236-2.848c-21.742,13.756-41.394,37.951-53.482,66.681-12.454,29.617-14.43,58.411-5.421,79L358.853,686.1ZM415.833,403.4c6.93-17.122,25.277-34.691,44.613-42.721a47.784,47.784,0,0,1,17.876-4.066,22.7,22.7,0,0,1,8.847,1.618l93.014,39.26c5.2,2.195,8.073,6.276,8.538,12.129,1.059,13.186-11,35.455-35.437,50.772l-145.876,91.4c-17.375,10.889-34.005,13.383-42.366,6.371-4.429-3.714-5.858-9.717-4.225-17.268l2.44-7.547Zm183.7-5.092c-1.233-7.551-5.771-12.734-13.127-14.98l-90.795-27.756,94.522,19.034c7.1,1.427,11.718,5.72,13.368,12.411,1.968,7.994-.431,19.871-7.535,32.489,3.239-7.606,4.59-14.942,3.566-21.2m-316.8,105.446c-8.643-19.749-6.657-47.571,5.442-76.34,14.593-34.7,40.361-62.575,67.258-72.759l4.587-1.738c-19.484,11.063-38.139,31.118-51.065,55.589-14.79,27.991-19.468,56.1-12.831,77.116l55.19,174.829ZM403.81,407.907c8.951-27.694,43.919-55.007,67.54-55.007a26.81,26.81,0,0,1,4.8.414,53.451,53.451,0,0,0-17,4.245c-20.108,8.35-39.211,26.676-46.451,44.572l-34.964,86.413ZM452.6,782.5c37-6.037,73.916-44.607,89.79-93.792L650.835,352.728,568.243,694.691c-12.3,50.938-47.795,93.565-86.316,103.67-16.019,4.2-31.077,2.139-43.614-5.756L426.124,782.2l-2.793-3a48.878,48.878,0,0,0,19.879,4.082,58.158,58.158,0,0,0,9.393-.779m154.18-396.293c-1.984-8.05-7.509-13.207-15.979-14.914L485.787,350.148l108.382,11.489c8.306.878,13.962,5.177,16.352,12.436,2.783,8.451.932,21.551-6.2,35.756,3.173-8.577,4.153-16.757,2.463-23.623M390.936,413.734c7.5-30.97,46.032-64.081,72.412-64.081a28.966,28.966,0,0,1,3.3.184c-24.825,3.106-57.127,29.42-66.051,57.026l-31.824,98.442ZM299.344,484.6c-6.272-19.866-1.565-47.722,12.6-74.523,15.994-30.27,40.838-53.574,64.841-60.813l2.685-.811c-40.5,20.387-75.334,79.363-66.952,120.011L346.9,635.246Zm77.911-63.575c5.478-34.308,47.51-74.049,77.019-74.049.516,0,1.029.011,1.539.038-27.232,5.112-60.895,35.921-68.159,65.923l-26.794,110.7ZM315.82,467.788c-8.988-43.6,36.171-111.974,80.539-121.938l1.419-.319c-37.708,16.589-73.267,69.162-69.147,107.992L345.3,610.788Zm297.908-94.77c-2.838-8.612-9.478-13.712-19.2-14.744l-120.323-12.75,123.151,2.136c9.674.171,16.515,4.433,19.784,12.328,3.962,9.569,2.563,24.79-5.477,41.54,3.786-10.565,4.687-20.547,2.063-28.509M362.815,429.937c2.816-37.451,47.724-84.427,80.739-84.93-29.734,7.436-64.464,43.129-69.638,75.488L354.273,543.473Zm-30.827,23.231c-4.449-41.945,41.639-103.075,82.181-109.017l.4-.059c-34.988,13.164-70.725,59.731-70.252,96.549L346.2,587.194Zm15.7-12.569c-.511-39.781,45.249-93.58,81.925-96.61-32.322,10.159-67.568,51.112-70.169,85.691L349.286,564.745Zm251.815-107.88q1.282-.084,2.506-.086c9.93,0,17.239,4.151,21.221,12.1,5.12,10.212,4.469,27.294-3.849,46.4,3.962-12.26,4.49-23.71.876-32.438-3.821-9.237-11.724-14.22-22.842-14.414l-136.542-2.372ZM482.785,801.624c39.671-10.406,76.16-54.049,88.74-106.143l88.6-366.841L601.1,699.38c-8.62,54.131-42.19,100.735-83.534,115.971-18.136,6.682-35.786,6.159-51.065-1.279l-14.59-9.858-3.727-3.183a55.59,55.59,0,0,0,17.771,2.849,66.393,66.393,0,0,0,16.834-2.256M600.414,316.851l-.245-1.67.245,1.67c12.906-1.892,22.679,2.065,28.236,11.443,7.228,12.194,6.4,30.816-1.243,50.585,3.745-13.659,3.569-26.24-1.153-35.661-4.9-9.773-14.493-14.7-26.972-13.871l.11,1.687-.11-1.687-153.666,10.2ZM518.729,818.519c42.456-15.642,76.9-63.307,85.7-118.61l63.246-397.229-29.767,398.6c-4.173,55.859-35.722,107.317-78.51,128.041-20.423,9.891-41.042,11.42-59.583,4.689l-17.2-9.048-4.821-3.259a63.42,63.42,0,0,0,14.764,1.718,75.748,75.748,0,0,0,26.168-4.9m81.132-518.381-.368-1.651.368,1.651c14.782-3.324,26.321.317,33.371,10.526,8.875,12.859,9.044,33.54,1.547,55.69,3.645-15.534,2.77-29.673-3.224-39.783-6.221-10.5-17.461-15.137-31.631-13.058L428.4,338.654Zm-2.246-17.472A49.769,49.769,0,0,1,612,280.38c10.2,0,18.754,3.895,24.787,11.476,10.734,13.483,12.183,36.351,5.033,61.013,3.392-17.544,1.628-33.351-5.805-44.123-7.783-11.272-20.889-15.5-36.889-11.9L409.041,339.538ZM560.872,832.361c43.835-21.229,76.147-73.8,80.409-130.831l31.852-426.57,5.712,424.94c.774,57.781-27.126,112.532-71.078,139.477-22.738,13.94-46.655,18.168-69.027,12.518l-20.129-8-6.031-3.172a72.773,72.773,0,0,0,10.7.784c12.283,0,24.982-3.042,37.6-9.151M639.119,271.88c12.929,14.164,16.1,38.624,9.636,65.661,2.788-19.281-.224-36.356-9.324-47.79-9.615-12.079-24.806-15.741-42.793-10.32l.488,1.618-.488-1.618L387.531,342.5,593.416,264.55l-.6-1.573.6,1.573c18.7-7.076,34.931-4.475,45.7,7.329M609.533,842.252c44.949-27.554,73.477-83.446,72.687-142.4L676.12,245.6l47.895,449.1c6.2,58.123-17.816,116.956-61.181,149.888-24.721,18.769-52.932,26.465-79.926,22.3l-22.544-6.394-7.407-2.941q2.663.17,5.342.169c17.033,0,34.454-5.172,51.234-15.463M587,245.952c8.933-4.081,17.477-6.1,25.37-6.1a38.88,38.88,0,0,1,27.623,10.919c15.3,14.639,20.433,41.353,14.822,71.1,2.128-21.472-2.261-40.286-13.2-52.271-11.773-12.9-29.316-15.808-49.394-8.207L363.956,347.815Zm52.158-17.375c18.079,15.078,25.61,43.12,21.309,75.35,1.037-23.22-5.1-43.13-18.138-55.6-14.312-13.687-34.459-15.621-56.732-5.447l.7,1.536-.7-1.536L338.145,355.889,578.088,227.041l-.8-1.488.8,1.488c23.231-12.476,44.919-11.933,61.069,1.536M664.879,847.27c44.286-33.627,68.818-93.657,62.495-152.931L676.232,214.791,773.518,685.1c12.14,58.7-6.6,119.6-48.913,158.957-26.464,24.617-58.476,36.672-90.545,34.681l-25.931-4.7-9.422-2.672c22.72-.319,45.629-8.492,66.172-24.093M566.374,208.037c25.183-15.627,50.678-16.6,69.943-2.665,21.092,15.252,31.44,45.434,28.683,80.483-.182-25.481-8.321-47.061-23.68-59.871-17.023-14.2-40.657-14.9-64.833-1.915L310.258,367.028ZM726.9,846.53c43.173-40.156,62.3-102.276,49.92-162.117L673.065,182.806,827.378,670.491c18.286,57.784,5.084,121.584-34.462,166.5-27.539,31.281-63.318,48.551-101.031,49.46l-29.472-2.578-11.134-2.019c26.993-2.463,53.26-14.523,75.626-35.327M551.562,189.19c15.9-11.282,32.332-16.989,47.849-16.989a59.408,59.408,0,0,1,31.73,9.036c25.06,15.563,38.63,47.528,37.445,86.042-1.615-28.06-12.175-51.545-30.293-64.645-20.433-14.779-47.3-13.853-73.7,2.537l.891,1.432-.891-1.432L280.358,381.62ZM795.449,839.224c40.324-45.8,53.792-110.845,35.151-169.755L666.954,152.306c-.27-.857-.546-1.7-.829-2.553L885.581,650.224c25.1,57.25,18.342,121.734-18.084,172.5-27.434,38.229-67.884,61.876-111.886,66.49H723.464l-12.957-1.133c31.725-5.26,61.314-22.016,84.942-48.86M623.25,156.293c28.422,14.938,45.83,47.816,47.632,88.223-3.819-29.369-17.059-53.168-37.958-66.146-24.379-15.146-54.748-12.2-83.319,8.064l.982,1.378-.982-1.378L250.746,398.488q-1.369.969-2.716,1.984l285.3-229.683-1.057-1.314,1.057,1.314c29.492-23.741,62.269-29.025,89.92-14.5M612.192,130.7c32.731,14.21,54.715,48.672,59.487,91.878-6.2-31.514-22.7-56.579-46.859-69.272-28.9-15.188-63.016-9.773-93.6,14.85L220.941,417.941c-37.774,30.415-60.773,83.77-58.593,135.942,1.611,38.43,17,70.252,42.242,87.3L449.872,806.914l1.095.936q.755.644,1.519,1.261L194.9,673.589c-28.969-15.239-48.492-46.775-53.562-86.514-6.759-52.967,13.179-109.3,50.785-143.512L511.365,153.174l-1.138-1.25,1.138,1.25c31.332-28.5,68.08-36.69,100.827-22.473M870.243,824.695c37.124-51.744,44.016-117.472,18.431-175.825l-231.217-527.3q-1.364-3.112-2.828-6.139l293.411,508.2c32,55.43,32,121.622,0,177.057S858.713,889.217,794.7,889.217H775.685c37.192-8.836,70.705-31.283,94.558-64.522M597.438,104.663c38.277,13.24,65.138,48.3,73.379,94.953-9.049-33.691-29.387-59.9-57.278-72.012-34.018-14.771-72.088-6.358-104.444,23.074L189.848,441.071C151.452,476,131.1,533.475,137.989,587.5c5.21,40.846,25.379,73.311,55.336,89.073L480.857,827.85l1.34.906q1.352.912,2.724,1.761L185.512,711.573c-34.342-13.64-59.229-45.813-68.282-88.273-11.741-55.05,4.684-113.592,42.865-152.773l325.244-333.8-1.21-1.177,1.21,1.177c32.328-33.18,74.234-45.164,112.1-32.062M578.379,78.456C621.672,89.687,654.4,124.8,667.36,173.284c-12.528-34.921-36.794-60.734-68.818-71.813-39.135-13.544-82.359-1.241-115.624,32.9l-325.241,333.8c-38.959,39.982-55.721,99.7-43.75,155.838,9.3,43.579,34.933,76.637,70.335,90.7L517.251,847l1.521.8q2.116,1.112,4.26,2.1L178.822,752.278c-40.542-11.5-71.626-44.2-85.269-89.7-16.717-55.734-3.8-117.365,33.7-160.837L454.932,121.87l-1.277-1.1,1.277,1.1c33.3-38.6,79.442-54.833,123.447-43.415M175.391,795.581C127.706,786.933,89.479,753.95,70.5,705.092c-21.7-55.867-12.729-120.086,23.42-167.6L419.833,109.082c28.631-37.639,69.293-58.572,111.923-58.572A131.733,131.733,0,0,1,554.3,52.465c49.536,8.6,89.35,43.98,107.517,95.137-16.592-36.739-45.886-62.892-82.587-72.418-45.272-11.746-92.7,4.881-126.854,44.478L124.694,499.534C86.446,543.871,73.278,606.717,90.318,663.548c13.982,46.63,45.909,80.156,87.584,91.977L559.238,863.678l1.835.728q3.051,1.211,6.142,2.21Zm.414,45.723c-54.981-4.809-102.641-38.548-127.475-90.249-27.057-56.316-22.516-121,12.147-173.016L379.74,98.9C410.347,52.97,458.579,26.61,510.75,26.61q6.77,0,13.626.6c56.569,4.946,104.64,39.863,129.032,93.58C632,82.426,596.849,56.424,554.878,49.136c-51.826-9-103.3,12.651-137.731,57.9l1.343,1.023-1.343-1.023L91.23,535.443C54.371,583.882,45.224,649.359,67.351,706.315c19.415,49.98,58.577,83.723,107.437,92.584l432.577,78.429,2.114.6q4.188,1.189,8.4,2.053ZM487.716,3.375c64,0,121.326,33.1,153.329,88.529l.715,1.238c-27.13-39.827-69.115-65.1-117.088-69.3C466.1,18.718,410.883,46.078,376.93,97.029l1.407.937-1.407-.937L57.665,576.165C22.335,629.188,17.7,695.114,45.284,752.518c25.362,52.786,74.043,87.232,130.226,92.148l486.447,42.56,2.394.434q5.581,1.011,11.145,1.557H180.721c-64.009,0-121.333-33.1-153.339-88.529s-32-121.627,0-177.057L334.377,91.9l-1.465-.843,1.465.843C366.383,36.473,423.7,3.375,487.716,3.375m0-3.375c-65.23,0-123.652,33.726-156.262,90.219L24.461,621.939c-32.614,56.494-32.614,123.947,0,180.434s91.032,90.219,156.26,90.219H723.3l2.69.235q6.9.6,13.73.6a155.623,155.623,0,0,0,16.109-.835H794.7c65.229,0,123.641-33.726,156.26-90.219s32.614-123.94,0-180.434L643.971,90.219C611.357,33.726,552.943,0,487.716,0Z" fill="none"/>
    </clipPath>
    <linearGradient id="linear-gradient" x1="0.008" y1="1" x2="0.01" y2="1" gradientUnits="objectBoundingBox">
      <stop offset="0" stop-color="#fca311"/>
      <stop offset="0.358" stop-color="#fca511"/>
      <stop offset="0.616" stop-color="#fcaf11"/>
      <stop offset="0.842" stop-color="#fcbe11"/>
      <stop offset="1" stop-color="#fccf11"/>
    </linearGradient>
    <clipPath id="clip-path-2">
      <rect id="Rectangle_497" data-name="Rectangle 497" width="498.566" height="489.33" transform="translate(0 120.614) rotate(-14)" fill="#fca311" stroke="rgba(0,0,0,0)" stroke-miterlimit="10" stroke-width="1"/>
    </clipPath>
  </defs>
  <g id="Group_1034" data-name="Group 1034" transform="translate(-109.766 -5383.949)">
    <g id="Group_1033" data-name="Group 1033" transform="translate(763.177 5386) rotate(47)" opacity="0.7">
      <g id="Group_70" data-name="Group 70" transform="translate(0 0)" clip-path="url(#clip-path)">
        <rect id="Rectangle_80" data-name="Rectangle 80" width="991.732" height="893.427" transform="translate(-8.154 0)" fill="url(#linear-gradient)"/>
      </g>
    </g>
    <g id="Group_1032" data-name="Group 1032" transform="translate(423.965 5383.949)">
      <g id="Group_1031" data-name="Group 1031" transform="translate(0 0)" clip-path="url(#clip-path-2)">
        <path id="Path_1301" data-name="Path 1301" d="M512.776,570.2a262.655,262.655,0,0,0,20.806-16.444c39.974-34.788,60.25-84.825,68.08-134.074s4.6-98.872,5.2-148.346c.257-21.039,1.18-42.385-4.048-62.642-10.938-42.395-48.715-75.345-93.027-90.282S415.5,104.868,368.366,114.79c-42.293,8.9-84.723,25.48-114.113,55.52-15.726,16.068-27.01,35.234-38.138,54.187q-25.992,44.3-52,88.59c-9.354,15.935-18.8,32.1-23.513,49.52-15.46,57.187,26.157,127.85,74.829,157.773,11.667,7.174,22.7,15.043,33.56,23.182,20.859,15.629,41.637,31.845,66.364,42.326a209.747,209.747,0,0,0,67.267,15.785c53.329,3.727,90.967-3.78,130.149-31.476" transform="translate(-83.239 -65.013)" fill="#fca311" stroke="rgba(0,0,0,0)" stroke-miterlimit="10" stroke-width="1"/>
      </g>
    </g>
  </g>
</svg>
