<?xml version="1.0" encoding="UTF-8"?>
<svg id="Layer_2" data-name="Layer 2" xmlns="http://www.w3.org/2000/svg" viewBox="0 0 1088.02 1088.02">
  <defs>
    <style>
      .cls-1 {
        stroke-width: 2.37px;
      }

      .cls-1, .cls-2, .cls-3, .cls-4, .cls-5, .cls-6, .cls-7, .cls-8, .cls-9, .cls-10, .cls-11, .cls-12, .cls-13, .cls-14, .cls-15, .cls-16, .cls-17, .cls-18, .cls-19, .cls-20, .cls-21, .cls-22, .cls-23, .cls-24, .cls-25, .cls-26, .cls-27, .cls-28, .cls-29, .cls-30, .cls-31 {
        fill: none;
        stroke: #fccf11;
        stroke-miterlimit: 10;
      }

      .cls-2 {
        stroke-width: 3.24px;
      }

      .cls-3 {
        stroke-width: 2.46px;
      }

      .cls-4 {
        stroke-width: 1.73px;
      }

      .cls-5 {
        stroke-width: 2.88px;
      }

      .cls-6 {
        stroke-width: 2.67px;
      }

      .cls-7 {
        stroke-width: 1.95px;
      }

      .cls-8 {
        stroke-width: 2.56px;
      }

      .cls-9 {
        stroke-width: 1.17px;
      }

      .cls-10 {
        stroke-width: 1.87px;
      }

      .cls-11 {
        stroke-width: 1.48px;
      }

      .cls-32 {
        fill: #fff;
        stroke-width: 0px;
      }

      .cls-12 {
        stroke-width: 1.67px;
      }

      .cls-13 {
        stroke-width: 1.22px;
      }

      .cls-14 {
        stroke-width: 1.42px;
      }

      .cls-15 {
        stroke-width: 1.37px;
      }

      .cls-16 {
        stroke-width: 2.77px;
      }

      .cls-17 {
        stroke-width: 1.32px;
      }

      .cls-18 {
        stroke-width: 2.28px;
      }

      .cls-20 {
        stroke-width: 1.08px;
      }

      .cls-21 {
        stroke-width: 1.12px;
      }

      .cls-22 {
        stroke-width: 1.6px;
      }

      .cls-23 {
        stroke-width: 1.27px;
      }

      .cls-24 {
        stroke-width: 3px;
      }

      .cls-25 {
        stroke-width: 1.04px;
      }

      .cls-26 {
        stroke-width: 1.54px;
      }

      .cls-27 {
        stroke-width: 2.19px;
      }

      .cls-28 {
        stroke-width: 2.11px;
      }

      .cls-29 {
        stroke-width: 2.03px;
      }

      .cls-30 {
        stroke-width: 3.12px;
      }

      .cls-31 {
        stroke-width: 1.8px;
      }
    </style>
  </defs>
  <g id="Layer_1-2" data-name="Layer 1">
    <rect class="cls-32" width="1088.02" height="1088.02"/>
    <g>
      <path class="cls-2" d="M117.93,399.55l26.39,350.99c2.93,38.91,26.39,73.31,61.55,90.23l317.16,152.65c35.16,16.92,76.68,13.8,108.92-8.19l290.78-198.35c32.24-21.99,50.29-59.51,47.37-98.42l-26.39-350.99c-2.93-38.91-26.39-73.31-61.55-90.23l-317.16-152.65c-35.16-16.92-76.68-13.8-108.92,8.19l-290.78,198.35c-32.24,21.99-50.29,59.51-47.37,98.42Z"/>
      <path class="cls-30" d="M943.02,711.16l-1.77-338.44c-.2-37.52-20.39-72.09-52.99-90.68l-293.98-167.69c-32.59-18.59-72.63-18.38-105.02.55l-292.22,170.75c-32.4,18.93-52.23,53.7-52.04,91.22l1.77,338.44c.2,37.52,20.39,72.09,52.99,90.68l293.98,167.69c32.59,18.59,72.63,18.38,105.02-.55l292.22-170.75c32.4-18.93,52.23-53.7,52.04-91.22Z"/>
      <path class="cls-24" d="M172.5,356.93l-21.01,324.75c-2.33,36,14.73,70.51,44.74,90.53l270.74,180.57c30.01,20.02,68.43,22.5,100.77,6.52l291.75-144.18c32.34-15.98,53.7-48.01,56.03-84.01l21.01-324.75c2.33-36-14.73-70.51-44.74-90.53l-270.74-180.57c-30.01-20.02-68.43-22.5-100.77-6.52l-291.75,144.18c-32.34,15.98-53.7,48.01-56.03,84.01Z"/>
      <path class="cls-5" d="M887.82,748.38l41.93-310.09c4.65-34.38-9.4-68.62-36.84-89.84l-247.58-191.36c-27.45-21.21-64.13-26.17-96.22-13.01l-289.51,118.73c-32.1,13.16-54.73,42.45-59.38,76.83l-41.93,310.09c-4.65,34.38,9.4,68.62,36.84,89.84l247.58,191.36c27.45,21.21,64.13,26.17,96.22,13.01l289.51-118.73c32.1-13.16,54.73-42.45,59.38-76.83Z"/>
      <path class="cls-16" d="M227.94,324.92l-61.02,294.63c-6.76,32.66,4.41,66.45,29.31,88.64l224.64,200.16c24.9,22.19,59.76,29.41,91.42,18.93l285.66-94.47c31.67-10.47,55.35-37.05,62.11-69.71l61.02-294.63c6.76-32.66-4.41-66.45-29.31-88.64l-224.64-200.16c-24.9-22.19-59.76-29.41-91.42-18.93l-285.66,94.47c-31.67,10.47-55.35,37.05-62.11,69.71Z"/>
      <path class="cls-6" d="M832.49,775.36l78.29-278.51c8.68-30.88.23-64.04-22.17-86.99l-202.05-207.06c-22.4-22.95-55.34-32.22-86.42-24.29l-280.34,71.45c-31.08,7.92-55.57,31.82-64.25,62.7l-78.29,278.51c-8.68,30.88-.23,64.04,22.17,86.99l202.05,207.06c22.4,22.95,55.34,32.22,86.42,24.29l280.34-71.45c31.08-7.92,55.57-31.82,64.25-62.7Z"/>
      <path class="cls-8" d="M282.82,302.75l-93.78,261.9c-10.4,29.03-4.51,61.41,15.43,84.93l179.92,212.16c19.95,23.52,50.93,34.61,81.27,29.1l273.7-49.73c30.34-5.51,55.44-26.8,65.83-55.83l93.78-261.9c10.4-29.03,4.51-61.41-15.43-84.93l-179.92-212.16c-19.95-23.52-50.93-34.61-81.27-29.1l-273.7,49.73c-30.34,5.51-55.44,26.8-65.83,55.83Z"/>
      <path class="cls-3" d="M778.36,792.95l107.52-244.92c11.92-27.15,8.45-58.6-9.11-82.5l-158.35-215.57c-17.55-23.9-46.53-36.62-76-33.36l-265.86,29.35c-29.47,3.25-54.97,21.98-66.89,49.14l-107.52,244.92c-11.92,27.15-8.45,58.6,9.11,82.5l158.35,215.57c17.55,23.9,46.53,36.62,76,33.36l265.86-29.35c29.47-3.25,54.97-21.98,66.89-49.14Z"/>
      <path class="cls-1" d="M335.92,289.52l-119.56,227.71c-13.25,25.24-12.03,55.64,3.2,79.74l137.43,217.4c15.24,24.1,42.17,38.24,70.66,37.1l256.98-10.32c28.49-1.14,54.21-17.4,67.46-42.64l119.56-227.71c13.25-25.24,12.03-55.64-3.2-79.74l-137.43-217.4c-15.24-24.1-42.17-38.24-70.66-37.1l-256.98,10.32c-28.49,1.14-54.21,17.4-67.46,42.64Z"/>
      <path class="cls-18" d="M726.54,802.08l129.95-210.4c14.41-23.33,15.28-52.57,2.28-76.7l-117.24-217.74c-13-24.14-37.89-39.51-65.29-40.33l-247.19-7.34c-27.4-.81-53.16,13.05-67.57,36.38l-129.95,210.4c-14.41,23.33-15.28,52.57-2.28,76.7l117.24,217.74c13,24.14,37.89,39.51,65.29,40.33l247.19,7.34c27.4.81,53.16-13.05,67.57-36.38Z"/>
      <path class="cls-27" d="M386.24,284.23l-138.76,193.1c-15.38,21.41-18.18,49.4-7.33,73.42l97.85,216.72c10.85,24.03,33.69,40.44,59.92,43.06l236.61,23.62c26.23,2.62,51.87-8.96,67.25-30.36l138.76-193.1c15.38-21.41,18.18-49.4,7.33-73.42l-97.85-216.72c-10.85-24.03-33.69-40.44-59.92-43.06l-236.61-23.62c-26.23-2.62-51.87,8.96-67.25,30.36Z"/>
      <path class="cls-28" d="M677.92,803.78l146.05-175.91c16.19-19.5,20.75-46.16,11.96-69.93l-79.32-214.44c-8.79-23.77-29.6-41.05-54.59-45.32l-225.37-38.53c-24.99-4.27-50.35,5.11-66.54,24.61l-146.05,175.91c-16.19,19.5-20.75,46.16-11.96,69.93l79.32,214.44c8.79,23.77,29.6,41.05,54.59,45.32l225.37,38.53c24.99,4.27,50.35-5.11,66.54-24.61Z"/>
      <path class="cls-29" d="M432.99,285.87l-151.89,158.94c-16.84,17.62-23,42.89-16.16,66.28l61.7,211.01c6.84,23.39,25.64,41.36,49.32,47.13l213.59,52.07c23.68,5.77,48.64-1.53,65.48-19.15l151.89-158.94c16.84-17.62,23-42.89,16.16-66.28l-61.7-211.01c-6.84-23.39-25.64-41.36-49.32-47.13l-213.59-52.07c-23.68-5.77-48.64,1.53-65.48,19.15Z"/>
      <path class="cls-7" d="M633.19,799.07l156.36-142.27c17.33-15.77,24.94-39.59,19.94-62.49l-45.03-206.54c-4.99-22.9-21.82-41.39-44.15-48.52l-201.38-64.27c-22.33-7.13-46.76-1.8-64.09,13.97l-156.36,142.27c-17.33,15.77-24.94,39.59-19.94,62.49l45.03,206.54c4.99,22.9,21.82,41.39,44.15,48.52l201.38,64.27c22.33,7.13,46.76,1.8,64.09-13.97Z"/>
      <path class="cls-10" d="M475.58,293.38l-159.52,125.97c-17.68,13.97-26.57,36.31-23.32,58.6l29.34,201.13c3.25,22.3,18.15,41.17,39.09,49.5l188.86,75.16c20.94,8.33,44.73,4.86,62.41-9.1l159.52-125.97c17.68-13.97,26.57-36.31,23.32-58.6l-29.34-201.13c-3.25-22.3-18.15-41.17-39.09-49.5l-188.86-75.16c-20.94-8.33-44.73-4.86-62.41,9.1Z"/>
      <path class="cls-31" d="M592.84,789.01l161.46-110.14c17.9-12.21,27.93-33.04,26.3-54.65l-14.65-194.89c-1.62-21.61-14.65-40.71-34.18-50.1l-176.11-84.76c-19.52-9.4-42.58-7.66-60.48,4.55l-161.46,110.14c-17.9,12.21-27.93,33.04-26.3,54.65l14.65,194.89c1.62,21.61,14.65,40.71,34.18,50.1l176.11,84.76c19.52,9.4,42.58,7.66,60.48-4.55Z"/>
      <path class="cls-4" d="M513.61,305.74l-162.26,94.81c-17.99,10.51-29,29.82-28.89,50.65l.98,187.92c.11,20.83,11.32,40.03,29.42,50.35l163.24,93.11c18.1,10.32,40.33,10.21,58.31-.3l162.26-94.81c17.99-10.51,29-29.82,28.89-50.65l-.98-187.92c-.11-20.83-11.32-40.03-29.42-50.35l-163.24-93.11c-18.1-10.32-40.33-10.21-58.31.3Z"/>
      <path class="cls-12" d="M557.19,774.6l162-80.06c17.96-8.88,29.82-26.66,31.11-46.65l11.66-180.32c1.29-19.99-8.18-39.15-24.84-50.27l-150.33-100.26c-16.67-11.12-38-12.5-55.96-3.62l-162,80.06c-17.96,8.88-29.82,26.66-31.11,46.65l-11.66,180.32c-1.29,19.99,8.18,39.15,24.84,50.27l150.33,100.26c16.67,11.12,38,12.5,55.96,3.62Z"/>
      <path class="cls-22" d="M546.84,321.95l-160.76,65.93c-17.82,7.31-30.39,23.57-32.97,42.66l-23.28,172.18c-2.58,19.09,5.22,38.1,20.46,49.88l137.47,106.25c15.24,11.78,35.61,14.53,53.43,7.22l160.76-65.93c17.82-7.31,30.39-23.57,32.97-42.66l23.28-172.18c2.58-19.09-5.22-38.1-20.46-49.88l-137.47-106.25c-15.24-11.78-35.61-14.53-53.43-7.22Z"/>
      <path class="cls-26" d="M526.41,756.83l158.62-52.45c17.58-5.82,30.73-20.57,34.49-38.71l33.88-163.6c3.76-18.14-2.45-36.9-16.28-49.22l-124.74-111.14c-13.83-12.32-33.18-16.33-50.76-10.51l-158.62,52.45c-17.58,5.82-30.73,20.57-34.49,38.71l-33.88,163.6c-3.76,18.14,2.45,36.9,16.28,49.22l124.74,111.14c13.83,12.32,33.18,16.33,50.76,10.51Z"/>
      <path class="cls-11" d="M575.17,341.06l-155.66,39.68c-17.26,4.4-30.86,17.67-35.68,34.81l-43.47,154.65c-4.82,17.14-.13,35.56,12.31,48.3l112.19,114.97c12.44,12.75,30.73,17.89,47.99,13.49l155.66-39.68c17.26-4.4,30.86-17.67,35.68-34.81l43.47-154.65c4.82-17.14.13-35.56-12.31-48.3l-112.19-114.97c-12.44-12.75-30.73-17.89-47.99-13.49Z"/>
      <path class="cls-14" d="M500.51,736.59l151.97-27.62c16.85-3.06,30.78-14.88,36.56-31l52.07-145.42c5.77-16.12,2.51-34.1-8.57-47.16l-99.9-117.81c-11.08-13.06-28.28-19.22-45.13-16.16l-151.97,27.62c-16.85,3.06-30.78,14.88-36.56,31l-52.07,145.42c-5.77,16.12-2.51,34.1,8.57,47.16l99.9,117.81c11.08,13.06,28.28,19.22,45.13,16.16Z"/>
      <path class="cls-15" d="M598.66,362.21l-147.63,16.3c-16.37,1.81-30.53,12.21-37.14,27.28l-59.7,135.99c-6.62,15.08-4.69,32.54,5.06,45.81l87.92,119.7c9.75,13.27,25.83,20.33,42.2,18.53l147.63-16.3c16.37-1.81,30.53-12.21,37.14-27.28l59.7-135.99c6.62-15.08,4.69-32.54-5.06-45.81l-87.92-119.7c-9.75-13.27-25.83-20.33-42.2-18.53Z"/>
      <path class="cls-17" d="M479.4,714.73l142.69-5.73c15.82-.64,30.1-9.66,37.46-23.68l66.39-126.44c7.36-14.02,6.68-30.9-1.78-44.28l-76.31-120.71c-8.46-13.38-23.42-21.24-39.24-20.6l-142.69,5.73c-15.82.64-30.1,9.66-37.46,23.68l-66.39,126.44c-7.36,14.02-6.68,30.9,1.78,44.28l76.31,120.71c8.46,13.38,23.42,21.24,39.24,20.6Z"/>
      <path class="cls-23" d="M617.43,384.59l-137.26-4.08c-15.22-.45-29.52,7.25-37.52,20.2l-72.16,116.83c-8,12.95-8.48,29.19-1.26,42.59l65.1,120.91c7.22,13.4,21.04,21.94,36.25,22.39l137.26,4.08c15.22.45,29.52-7.25,37.52-20.2l72.16-116.83c8-12.95,8.48-29.19,1.26-42.59l-65.1-120.91c-7.22-13.4-21.04-21.94-36.25-22.39Z"/>
      <path class="cls-13" d="M462.89,692l131.38,13.12c14.57,1.45,28.8-4.97,37.34-16.86l77.05-107.22c8.54-11.89,10.09-27.43,4.07-40.77l-54.33-120.34c-6.02-13.34-18.71-22.46-33.27-23.91l-131.38-13.12c-14.57-1.45-28.8,4.97-37.34,16.86l-77.05,107.22c-8.54,11.89-10.09,27.43-4.07,40.77l54.33,120.34c6.02,13.34,18.71,22.46,33.27,23.91Z"/>
      <path class="cls-9" d="M631.75,407.5l-125.14-21.39c-13.87-2.37-27.96,2.84-36.95,13.67l-81.1,97.68c-8.99,10.83-11.52,25.63-6.64,38.83l44.04,119.07c4.88,13.2,16.44,22.79,30.31,25.17l125.14,21.39c13.87,2.37,27.96-2.84,36.95-13.67l81.1-97.68c8.99-10.83,11.52-25.63,6.64-38.83l-44.04-119.07c-4.88-13.2-16.44-22.79-30.31-25.17Z"/>
      <path class="cls-21" d="M450.7,669.07l118.6,28.91c13.15,3.21,27.01-.85,36.36-10.63l84.34-88.25c9.35-9.78,12.77-23.81,8.97-36.8l-34.26-117.17c-3.8-12.99-14.24-22.97-27.39-26.17l-118.6-28.91c-13.15-3.21-27.01.85-36.36,10.63l-84.34,88.25c-9.35,9.78-12.77,23.81-8.97,36.8l34.26,117.17c3.8,12.99,14.24,22.97,27.39,26.17Z"/>
      <path class="cls-20" d="M641.9,430.32l-111.82-35.69c-12.4-3.96-25.96-1-35.59,7.76l-86.82,79c-9.62,8.76-13.85,21.98-11.07,34.7l25,114.68c2.77,12.71,12.12,22.98,24.51,26.94l111.82,35.69c12.4,3.96,25.96,1,35.59-7.76l86.82-79c9.62-8.76,13.85-21.98,11.07-34.7l-25-114.68c-2.77-12.71-12.12-22.98-24.51-26.94Z"/>
      <path class="cls-25" d="M442.49,646.5l104.87,41.73c11.63,4.63,24.84,2.7,34.66-5.06l88.57-69.95c9.82-7.75,14.76-20.16,12.95-32.54l-16.29-111.68c-1.81-12.38-10.08-22.86-21.71-27.49l-104.87-41.73c-11.63-4.63-24.84-2.7-34.66,5.06l-88.57,69.95c-9.82,7.75-14.76,20.16-12.95,32.54l16.29,111.68c1.81,12.38,10.08,22.86,21.71,27.49Z"/>
      <path class="cls-19" d="M648.27,452.51l-97.79-47.06c-10.84-5.22-23.64-4.26-33.58,2.52l-89.65,61.15c-9.94,6.78-15.51,18.35-14.6,30.34l8.14,108.22c.9,12,8.14,22.6,18.98,27.82l97.79,47.06c10.84,5.22,23.64,4.26,33.58-2.52l89.65-61.15c9.94-6.78,15.51-18.35,14.6-30.34l-8.14-108.22c-.9-12-8.14-22.6-18.98-27.82Z"/>
    </g>
  </g>
</svg>