<?xml version="1.0" encoding="UTF-8"?>
<svg id="Layer_2" data-name="Layer 2" xmlns="http://www.w3.org/2000/svg" viewBox="0 0 925.66 831.34">
  <defs>
    <style>
      .cls-1 {
        stroke-width: 2.37px;
      }

      .cls-1, .cls-2, .cls-3, .cls-4, .cls-5, .cls-6, .cls-7, .cls-8, .cls-9, .cls-10, .cls-11, .cls-12, .cls-13, .cls-14, .cls-15, .cls-16, .cls-17, .cls-18, .cls-19, .cls-20, .cls-21, .cls-22, .cls-23, .cls-24, .cls-25, .cls-26, .cls-27, .cls-28, .cls-29, .cls-30, .cls-31 {
        fill: none;
        stroke: #fccf11;
        stroke-miterlimit: 10;
      }

      .cls-2 {
        stroke-width: 3.24px;
      }

      .cls-3 {
        stroke-width: 2.46px;
      }

      .cls-4 {
        stroke-width: 1.73px;
      }

      .cls-5 {
        stroke-width: 2.88px;
      }

      .cls-6 {
        stroke-width: 2.67px;
      }

      .cls-7 {
        stroke-width: 1.95px;
      }

      .cls-8 {
        stroke-width: 2.56px;
      }

      .cls-9 {
        stroke-width: 1.17px;
      }

      .cls-10 {
        stroke-width: 1.87px;
      }

      .cls-11 {
        stroke-width: 1.48px;
      }

      .cls-12 {
        stroke-width: 1.67px;
      }

      .cls-13 {
        stroke-width: 1.22px;
      }

      .cls-14 {
        stroke-width: 1.42px;
      }

      .cls-15 {
        stroke-width: 1.37px;
      }

      .cls-16 {
        stroke-width: 2.77px;
      }

      .cls-17 {
        stroke-width: 1.32px;
      }

      .cls-18 {
        stroke-width: 2.28px;
      }

      .cls-20 {
        stroke-width: 1.08px;
      }

      .cls-21 {
        stroke-width: 1.12px;
      }

      .cls-22 {
        stroke-width: 1.6px;
      }

      .cls-23 {
        stroke-width: 1.27px;
      }

      .cls-24 {
        stroke-width: 3px;
      }

      .cls-25 {
        stroke-width: 1.04px;
      }

      .cls-26 {
        stroke-width: 1.54px;
      }

      .cls-27 {
        stroke-width: 2.19px;
      }

      .cls-28 {
        stroke-width: 2.11px;
      }

      .cls-29 {
        stroke-width: 2.03px;
      }

      .cls-30 {
        stroke-width: 3.12px;
      }

      .cls-31 {
        stroke-width: 1.8px;
      }
    </style>
  </defs>
  <g id="Layer_1-2" data-name="Layer 1">
    <g>
      <path class="cls-2" d="M16.25,470.28l175.99,304.83c19.51,33.79,55.57,54.61,94.59,54.61h351.98c39.02,0,75.08-20.82,94.59-54.61l175.99-304.83c19.51-33.79,19.51-75.43,0-109.22L733.41,56.23c-19.51-33.79-55.57-54.61-94.59-54.61h-351.98c-39.02,0-75.08,20.82-94.59,54.61L16.25,361.06c-19.51,33.79-19.51,75.43,0,109.22Z"/>
      <path class="cls-30" d="M894.85,393.24l-148.37-304.19c-16.45-33.72-49.64-56.11-87.07-58.73L321.79,6.71c-37.43-2.62-73.41,14.93-94.39,46.04L38.14,333.34c-20.98,31.11-23.77,71.04-7.33,104.77l148.37,304.19c16.45,33.72,49.64,56.11,87.07,58.73l337.62,23.61c37.43,2.62,73.41-14.93,94.39-46.04l189.26-280.59c20.98-31.11,23.77-71.04,7.33-104.77Z"/>
      <path class="cls-24" d="M46.94,408.21l121.91,301.73c13.51,33.45,43.85,57.15,79.58,62.17l322.26,45.29c35.73,5.02,71.42-9.4,93.63-37.83l200.35-256.44c22.21-28.43,27.57-66.55,14.05-100l-121.91-301.73c-13.51-33.45-43.85-57.15-79.58-62.17L354.98,13.94c-35.73-5.02-71.42,9.4-93.63,37.83L60.99,308.21c-22.21,28.43-27.57,66.55-14.05,100Z"/>
      <path class="cls-5" d="M861.25,450.73l-96.7-297.6c-10.72-32.99-38.23-57.76-72.16-64.97L386.32,23.1c-33.93-7.21-69.13,4.23-92.35,30.01l-209.38,232.54c-23.21,25.78-30.91,61.98-20.19,94.98l96.7,297.6c10.72,32.99,38.23,57.76,72.16,64.97l306.08,65.06c33.93,7.21,69.13-4.23,92.35-30.01l209.38-232.54c23.21-25.78,30.91-61.98,20.19-94.98Z"/>
      <path class="cls-16" d="M83.02,355.33l72.79,291.94c8.07,32.37,32.79,57.97,64.86,67.16l289.22,82.93c32.06,9.19,66.6.58,90.59-22.59l216.43-209.01c23.99-23.17,33.8-57.38,25.73-89.75l-72.79-291.94c-8.07-32.37-32.79-57.97-64.86-67.16L415.78,33.98c-32.06-9.19-66.6-.58-90.59,22.59l-216.43,209.01c-23.99,23.17-33.8,57.38-25.73,89.75Z"/>
      <path class="cls-6" d="M823.1,499.03l-50.24-284.91c-5.57-31.59-27.57-57.8-57.71-68.77L443.3,46.4c-30.14-10.97-63.84-5.03-88.41,15.59l-221.62,185.96c-24.57,20.62-36.27,52.77-30.7,84.36l50.24,284.91c5.57,31.59,27.57,57.8,57.71,68.77l271.86,98.95c30.14,10.97,63.84,5.03,88.41-15.59l221.62-185.96c24.57-20.62,36.27-52.77,30.7-84.36Z"/>
      <path class="cls-8" d="M122.85,311.55l29.08,276.65c3.22,30.67,22.56,57.29,50.74,69.83l254.13,113.15c28.17,12.54,60.9,9.1,85.85-9.02l225.05-163.51c24.95-18.13,38.33-48.19,35.11-78.86l-29.08-276.65c-3.22-30.67-22.56-57.29-50.74-69.83l-254.13-113.15c-28.17-12.54-60.9-9.1-85.85,9.02l-225.05,163.51c-24.95,18.13-38.33,48.19-35.11,78.86Z"/>
      <path class="cls-3" d="M781.95,538.35l-9.33-267.32c-1.03-29.64-17.8-56.47-43.98-70.39l-236.17-125.57c-26.18-13.92-57.8-12.82-82.95,2.9l-226.84,141.74c-25.15,15.71-40,43.65-38.97,73.29l9.33,267.32c1.03,29.64,17.8,56.47,43.98,70.39l236.17,125.57c26.18,13.92,57.8,12.82,82.95-2.9l226.84-141.74c25.15-15.71,40-43.65,38.97-73.29Z"/>
      <path class="cls-1" d="M164.96,276.6l-8.98,257.04c-1,28.5,13.29,55.36,37.47,70.47l218.11,136.29c24.18,15.11,54.58,16.17,79.76,2.79l227.09-120.74c25.18-13.39,41.3-39.19,42.29-67.68l8.98-257.04c1-28.5-13.29-55.36-37.47-70.47l-218.11-136.29c-24.18-15.11-54.58-16.17-79.76-2.79l-227.09,120.74c-25.18,13.39-41.3,39.19-42.29,67.68Z"/>
      <path class="cls-18" d="M739.22,569.05l25.85-245.94c2.87-27.27-9.03-53.99-31.21-70.1l-200.07-145.36c-22.18-16.11-51.27-19.17-76.32-8.02l-225.92,100.59c-25.05,11.15-42.24,34.82-45.11,62.08l-25.85,245.94c-2.87,27.27,9.03,53.99,31.21,70.1l200.07,145.36c22.18,16.11,51.27,19.17,76.32,8.02l225.92-100.59c25.05-11.15,42.24-34.82,45.11-62.08Z"/>
      <path class="cls-27" d="M208.01,250.01l-41.29,234.18c-4.58,25.96,5.04,52.39,25.24,69.34l182.16,152.85c20.19,16.94,47.89,21.83,72.67,12.81l223.45-81.33c24.77-9.02,42.85-30.56,47.43-56.52l41.29-234.18c4.58-25.96-5.04-52.39-25.24-69.34l-182.16-152.85c-20.19-16.94-47.89-21.83-72.67-12.81l-223.45,81.33c-24.77,9.02-42.85,30.56-47.43,56.52Z"/>
      <path class="cls-28" d="M696.14,591.67l55.31-221.85c6.13-24.59-1.32-50.59-19.56-68.2l-164.47-158.83c-18.23-17.61-44.48-24.15-68.84-17.16l-219.79,63.02c-24.37,6.99-43.15,26.44-49.29,51.04l-55.31,221.85c-6.13,24.59,1.32,50.59,19.56,68.2l164.47,158.83c18.23,17.61,44.48,24.15,68.84,17.16l219.79-63.02c24.37-6.99,43.15-26.44,49.29-51.04Z"/>
      <path class="cls-29" d="M250.84,231.21l-67.94,209.09c-7.53,23.18-2.12,48.62,14.18,66.73l147.11,163.38c16.31,18.11,41.04,26.15,64.88,21.08l215.04-45.71c23.84-5.07,43.17-22.47,50.7-45.65l67.94-209.09c7.53-23.18,2.12-48.62-14.18-66.73l-147.11-163.38c-16.31-18.11-41.04-26.15-64.88-21.08l-215.04,45.71c-23.84,5.07-43.17,22.47-50.7,45.65Z"/>
      <path class="cls-7" d="M653.8,606.83l79.19-196c8.78-21.73,5.3-46.49-9.13-64.96l-130.15-166.58c-14.43-18.47-37.61-27.83-60.82-24.57l-209.34,29.42c-23.21,3.26-42.91,18.66-51.69,40.39l-79.19,196c-8.78,21.73-5.3,46.49,9.13,64.96l130.15,166.58c14.43,18.47,37.61,27.83,60.82,24.57l209.34-29.42c23.21-3.26,42.91-18.66,51.69-40.39Z"/>
      <path class="cls-10" d="M292.48,219.51l-89.1,182.69c-9.88,20.25-8.2,44.24,4.4,62.92l113.66,168.51c12.6,18.68,34.21,29.22,56.69,27.65l202.77-14.18c22.48-1.57,42.41-15.02,52.29-35.27l89.1-182.69c9.88-20.25,8.2-44.24-4.4-62.92l-113.66-168.51c-12.6-18.68-34.21-29.22-56.69-27.65l-202.77,14.18c-22.48,1.57-42.41,15.02-52.29,35.27Z"/>
      <path class="cls-31" d="M613.07,615.26l97.72-169.26c10.83-18.76,10.83-41.88,0-60.65l-97.72-169.26c-10.83-18.76-30.86-30.32-52.52-30.32h-195.44c-21.67,0-41.69,11.56-52.52,30.32l-97.72,169.26c-10.83,18.76-10.83,41.88,0,60.65l97.72,169.26c10.83,18.76,30.86,30.32,52.52,30.32h195.44c21.67,0,41.69-11.56,52.52-30.32Z"/>
      <path class="cls-4" d="M332.1,214.15l-105.09,155.8c-11.65,17.27-13.2,39.45-4.07,58.17l82.38,168.91c9.13,18.73,27.56,31.16,48.35,32.61l187.47,13.11c20.78,1.45,40.76-8.29,52.41-25.56l105.09-155.8c11.65-17.27,13.2-39.45,4.07-58.17l-82.38-168.91c-9.13-18.73-27.56-31.16-48.35-32.61l-187.47-13.11c-20.78-1.45-40.76,8.29-52.41,25.56Z"/>
      <path class="cls-12" d="M574.71,617.74l111.25-142.39c12.33-15.79,15.31-36.95,7.8-55.53l-67.69-167.54c-7.5-18.57-24.35-31.73-44.19-34.52l-178.94-25.15c-19.84-2.79-39.66,5.22-51.99,21.01l-111.25,142.39c-12.33,15.79-15.31,36.95-7.8,55.53l67.69,167.54c7.5,18.57,24.35,31.73,44.19,34.52l178.94,25.15c19.84,2.79,39.66-5.22,51.99-21.01Z"/>
      <path class="cls-22" d="M369.07,214.35l-116.26,129.12c-12.89,14.31-17.16,34.42-11.21,52.74l53.69,165.25c5.95,18.32,21.23,32.07,40.07,36.08l169.95,36.12c18.84,4,38.39-2.35,51.28-16.66l116.26-129.12c12.89-14.31,17.16-34.42,11.21-52.74l-53.69-165.25c-5.95-18.32-21.23-32.07-40.07-36.08l-169.95-36.12c-18.84-4-38.39,2.35-51.28,16.66Z"/>
      <path class="cls-26" d="M539.26,615.07l120.18-116.05c13.32-12.87,18.77-31.86,14.29-49.83l-40.42-162.1c-4.48-17.97-18.21-32.19-36.01-37.29l-160.59-46.05c-17.8-5.11-36.98-.32-50.3,12.54l-120.18,116.05c-13.32,12.87-18.77,31.86-14.29,49.83l40.42,162.1c4.48,17.97,18.21,32.19,36.01,37.29l160.59,46.05c17.8,5.11,36.98.32,50.3-12.54Z"/>
      <path class="cls-11" d="M402.89,219.29l-123.06,103.26c-13.64,11.45-20.14,29.3-17.05,46.84l27.9,158.2c3.09,17.54,15.31,32.09,32.04,38.19l150.95,54.94c16.73,6.09,35.45,2.79,49.09-8.66l123.06-103.26c13.64-11.45,20.14-29.3,17.05-46.84l-27.9-158.2c-3.09-17.54-15.31-32.09-32.04-38.19l-150.95-54.94c-16.73-6.09-35.45-2.79-49.09,8.66Z"/>
      <path class="cls-14" d="M507.15,608.07l124.96-90.79c13.85-10.07,21.29-26.76,19.5-43.79l-16.15-153.62c-1.79-17.03-12.53-31.81-28.17-38.78l-141.11-62.83c-15.64-6.96-33.81-5.06-47.67,5.01l-124.96,90.79c-13.85,10.07-21.29,26.76-19.5,43.79l16.15,153.62c1.79,17.03,12.53,31.81,28.17,38.78l141.11,62.83c15.64,6.96,33.81,5.06,47.67-5.01Z"/>
      <path class="cls-15" d="M433.22,228.16l-125.95,78.7c-13.96,8.73-22.21,24.24-21.64,40.69l5.18,148.43c.57,16.46,9.88,31.35,24.42,39.08l131.14,69.73c14.54,7.73,32.1,7.12,46.06-1.61l125.95-78.7c13.96-8.73,22.21-24.24,21.64-40.69l-5.18-148.43c-.57-16.46-9.88-31.35-24.42-39.08l-131.14-69.73c-14.54-7.73-32.1-7.12-46.06,1.61Z"/>
      <path class="cls-17" d="M478.65,597.52l126.09-67.04c13.98-7.43,22.93-21.76,23.48-37.58l4.98-142.72c.55-15.82-7.38-30.74-20.8-39.13l-121.11-75.68c-13.43-8.39-30.31-8.98-44.29-1.55l-126.09,67.04c-13.98,7.43-22.93,21.76-23.48,37.58l-4.98,142.72c-.55,15.82,7.38,30.74,20.8,39.13l121.11,75.68c13.43,8.39,30.31,8.98,44.29,1.55Z"/>
      <path class="cls-23" d="M459.85,240.18l-125.45,55.85c-13.91,6.19-23.45,19.33-25.05,34.47l-14.35,136.56c-1.59,15.14,5.02,29.98,17.33,38.93l111.09,80.71c12.32,8.95,28.47,10.65,42.38,4.45l125.45-55.85c13.91-6.19,23.45-19.33,25.05-34.47l14.35-136.56c1.59-15.14-5.02-29.98-17.33-38.93l-111.09-80.71c-12.32-8.95-28.47-10.65-42.38-4.45Z"/>
      <path class="cls-13" d="M453.91,584.2l124.07-45.16c13.75-5.01,23.79-16.97,26.34-31.39l22.93-130.03c2.54-14.42-2.8-29.09-14.01-38.5l-101.14-84.87c-11.21-9.41-26.59-12.12-40.35-7.11l-124.07,45.16c-13.75,5.01-23.79,16.97-26.34,31.39l-22.93,130.03c-2.54,14.42,2.8,29.09,14.01,38.5l101.14,84.87c11.21,9.41,26.59,12.12,40.35,7.11Z"/>
      <path class="cls-9" d="M482.68,254.62l-122.04,34.99c-13.53,3.88-23.96,14.68-27.37,28.34l-30.71,123.19c-3.4,13.66.73,28.09,10.86,37.87l91.33,88.19c10.12,9.78,24.7,13.41,38.23,9.53l122.04-34.99c13.53-3.88,23.96-14.68,27.37-28.34l30.71-123.19c3.4-13.66-.73-28.09-10.86-37.87l-91.33-88.19c-10.12-9.78-24.7-13.41-38.23-9.53Z"/>
      <path class="cls-21" d="M432.98,568.82l119.41-25.38c13.24-2.81,23.97-12.48,28.15-25.35l37.72-116.1c4.18-12.87,1.18-27-7.88-37.05l-81.68-90.72c-9.06-10.06-22.79-14.52-36.03-11.71l-119.41,25.38c-13.24,2.81-23.97,12.48-28.15,25.35l-37.72,116.1c-4.18,12.87-1.18,27,7.88,37.05l81.68,90.72c9.06,10.06,22.79,14.52,36.03,11.71Z"/>
      <path class="cls-20" d="M501.73,270.77l-116.24,16.34c-12.89,1.81-23.83,10.36-28.7,22.42l-43.97,108.83c-4.87,12.07-2.94,25.81,5.07,36.07l72.27,92.5c8.01,10.25,20.89,15.46,33.77,13.64l116.24-16.34c12.89-1.81,23.83-10.36,28.7-22.42l43.97-108.83c4.87-12.07,2.94-25.81-5.07-36.07l-72.27-92.5c-8.01-10.25-20.89-15.46-33.77-13.64Z"/>
      <path class="cls-25" d="M415.8,552.05l112.59-7.87c12.48-.87,23.55-8.34,29.04-19.58l49.48-101.44c5.49-11.25,4.55-24.56-2.44-34.94l-63.11-93.57c-7-10.37-19-16.23-31.48-15.35l-112.59,7.87c-12.48.87-23.55,8.34-29.04,19.58l-49.48,101.44c-5.49,11.25-4.55,24.56,2.44,34.94l63.11,93.57c7,10.37,19,16.23,31.48,15.35Z"/>
      <path class="cls-19" d="M517.09,288.01h-108.52c-12.03,0-23.15,6.42-29.16,16.84l-54.26,93.98c-6.02,10.42-6.02,23.26,0,33.68l54.26,93.98c6.02,10.42,17.13,16.84,29.16,16.84h108.52c12.03,0,23.15-6.42,29.16-16.84l54.26-93.98c6.02-10.42,6.02-23.26,0-33.68l-54.26-93.98c-6.02-10.42-17.13-16.84-29.16-16.84Z"/>
    </g>
  </g>
</svg>