<?xml version="1.0" encoding="UTF-8"?>
<svg xmlns="http://www.w3.org/2000/svg" viewBox="0 0 500 500">
  <defs>
    <style>
      .cls-1 {
        opacity: .4;
      }

      .cls-1, .cls-2, .cls-3, .cls-4, .cls-5, .cls-6, .cls-7, .cls-8, .cls-9, .cls-10, .cls-11, .cls-12, .cls-13, .cls-14, .cls-15, .cls-16, .cls-17, .cls-18, .cls-19, .cls-20, .cls-21, .cls-22, .cls-23, .cls-24, .cls-25, .cls-26 {
        stroke-width: 0px;
      }

      .cls-1, .cls-15, .cls-19, .cls-24 {
        fill: #fff;
      }

      .cls-2 {
        fill: #ffe7bf;
      }

      .cls-3, .cls-22 {
        fill: #645d45;
      }

      .cls-27, .cls-20, .cls-22 {
        opacity: .5;
      }

      .cls-28 {
        opacity: .6;
      }

      .cls-4 {
        fill: #e6e6e6;
      }

      .cls-6 {
        opacity: .3;
      }

      .cls-7 {
        fill: #4f4a37;
      }

      .cls-8 {
        fill: #e0e0e0;
      }

      .cls-9, .cls-19 {
        opacity: .7;
      }

      .cls-29 {
        fill: none;
        stroke: #e0e0e0;
        stroke-miterlimit: 10;
        stroke-width: .75px;
      }

      .cls-10 {
        fill: #f5f5f5;
      }

      .cls-11 {
        fill: #9a7b30;
      }

      .cls-12 {
        fill: #f0f0f0;
      }

      .cls-13, .cls-24 {
        opacity: .2;
      }

      .cls-14 {
        fill: #383426;
      }

      .cls-16 {
        fill: #fafafa;
      }

      .cls-17 {
        fill: #f28f1d;
      }

      .cls-18 {
        fill: #ffcaaa;
      }

      .cls-21 {
        fill: #ebebeb;
      }

      .cls-23 {
        opacity: .15;
      }

      .cls-25 {
        opacity: .1;
      }

      .cls-26 {
        fill: #e6a22b;
      }
    </style>
  </defs>
  <g id="Floor">
    <ellipse id="Floor-2" data-name="Floor" class="cls-12" cx="250.17" cy="346.97" rx="235.61" ry="136.03"/>
  </g>
  <g id="Shadows">
    <path id="Shadow" class="cls-8" d="M71.24,395.41l-40.64-23.46c-2.29-1.32-2.29-3.47,0-4.79l236.39-136.48c2.29-1.32,6.01-1.32,8.3,0l40.64,23.46c2.29,1.32,2.29,3.47,0,4.79l-236.39,136.48c-2.29,1.32-6.01,1.32-8.3,0Z"/>
    <polygon id="Shadow-2" data-name="Shadow" class="cls-8" points="245.93 405.12 148.33 348.77 270.3 278.48 367.79 334.76 245.93 405.12"/>
    <ellipse id="Shadow-3" data-name="Shadow" class="cls-8" cx="380.69" cy="403.61" rx="46.14" ry="26.64"/>
    <path id="Shadow-4" data-name="Shadow" class="cls-8" d="M442.6,371.53c5,2.89,5,7.57,0,10.46-5,2.89-13.11,2.89-18.11,0s-5-7.57,0-10.46c5-2.89,13.11-2.89,18.11,0Z"/>
  </g>
  <g id="Device">
    <g id="Device-2" data-name="Device">
      <g>
        <path class="cls-26" d="M217.32,353.59l34.94-20.2c3.6-2.08,5.4-4.8,5.4-7.53,0-2.73.02-4.86.02-4.86l-36.25-20.44c-1.92-1.11-3.48-3.81-3.48-6.02v-43.07l-61.02,35.26v43.07c0,2.22,1.55,4.91,3.48,6.02l30.84,17.77c7.2,4.16,18.88,4.16,26.08,0Z"/>
        <g class="cls-28">
          <path class="cls-5" d="M217.32,353.59l34.94-20.2c3.6-2.08,5.4-4.8,5.4-7.53,0-2.73.02-4.86.02-4.86l-36.25-20.44c-1.92-1.11-3.48-3.81-3.48-6.02v-43.07l-61.02,35.26v43.07c0,2.22,1.55,4.91,3.48,6.02l30.84,17.77c7.2,4.16,18.88,4.16,26.08,0Z"/>
        </g>
        <path class="cls-6" d="M171.58,337.43v4.84l-11.18-6.45c-1.91-1.1-3.47-3.8-3.47-6.02v-43.07l11.63-6.71c.24,2.95.5,6,.74,8.98l-8.15,4.72v33.65c0,2.23,1.55,4.92,3.47,6.02l6.97,4.04Z"/>
        <path class="cls-26" d="M161.13,327.38c0,2.22,1.56,4.91,3.48,6.02l26.62,15.33c7.2,4.16,18.88,4.16,26.09,0l34.95-20.2c7.2-4.16,7.2-10.9,0-15.06l-26.64-15.35c-1.92-1.11-3.48-3.81-3.48-6.02v-33.66s-61.02,35.26-61.02,35.26v33.66Z"/>
        <path class="cls-6" d="M161.13,327.38c0,2.22,1.56,4.91,3.48,6.02l26.62,15.33c7.2,4.16,18.88,4.16,26.09,0l34.95-20.2c7.2-4.16,7.2-10.9,0-15.06l-26.64-15.35c-1.92-1.11-3.48-3.81-3.48-6.02v-33.66s-61.02,35.26-61.02,35.26v33.66Z"/>
        <path class="cls-20" d="M232.72,302.23h0s-7.08-4.09-7.08-4.09c-1.92-1.11-3.48-3.81-3.48-6.02v-33.66s-61.02,35.26-61.02,35.26v33.66c0,2.22,1.56,4.91,3.48,6.02l6.96,4.02,61.15-35.19Z"/>
        <path class="cls-26" d="M257.67,321.01v4.86c0,2.73-1.81,5.44-5.4,7.53l-34.94,20.19c-3.45,2.01-7.93,3.01-12.45,3.09v-4.84c4.52-.06,9-1.1,12.45-3.09l34.94-20.21c3.59-2.07,5.4-4.8,5.4-7.53Z"/>
        <path class="cls-20" d="M257.67,321.01v4.86c0,2.73-1.81,5.44-5.4,7.53l-34.94,20.19c-3.45,2.01-7.93,3.01-12.45,3.09v-4.84c4.52-.06,9-1.1,12.45-3.09l34.94-20.21c3.59-2.07,5.4-4.8,5.4-7.53Z"/>
      </g>
      <path class="cls-26" d="M63.15,369.21c2.25,1.3,6.02,1.23,8.43-.16,30-17.32,206-118.93,236-136.25,2.4-1.39,4.35-4.76,4.35-7.53V34.36c0-2.77-1.83-6.07-4.08-7.37-2.25-1.3-6.02-1.23-8.43.16L63.42,163.4c-2.4,1.39-4.35,4.76-4.35,7.53v190.91c0,2.77,1.82,6.07,4.08,7.37Z"/>
      <path class="cls-26" d="M71.58,369.05l236-136.25c2.4-1.39,4.35-4.76,4.35-7.53V34.36c0-2.77-1.95-3.9-4.35-2.51L71.58,168.1c-2.4,1.39-4.35,4.76-4.35,7.53v190.91c0,2.77,1.94,3.9,4.34,2.51Z"/>
      <path class="cls-20" d="M71.58,369.05l236-136.25c2.4-1.39,4.35-4.76,4.35-7.53V34.36c0-2.77-1.95-3.9-4.35-2.51L71.58,168.1c-2.4,1.39-4.35,4.76-4.35,7.53v190.91c0,2.77,1.94,3.9,4.34,2.51Z"/>
      <path class="cls-26" d="M70.94,374.01c-2.41,1.06-5.74,1.02-7.79-.16-2.25-1.31-4.08-4.6-4.08-7.39v-17.38l8.15,4.72v17.38c0,2.53,1.61,3.67,3.71,2.83Z"/>
      <path class="cls-20" d="M70.94,374.01c-2.41,1.06-5.74,1.02-7.79-.16-2.25-1.31-4.08-4.6-4.08-7.39v-17.38l8.15,4.72v17.38c0,2.53,1.61,3.67,3.71,2.83Z"/>
      <path class="cls-26" d="M67.22,353.8v17.38c0,2.77,1.95,3.9,4.35,2.51l236-136.25c2.4-1.39,4.35-4.76,4.35-7.53v-17.41l-244.7,141.31Z"/>
      <path class="cls-6" d="M67.23,353.76v17.41c0,2.77,1.95,3.9,4.35,2.51l236-136.25c2.4-1.39,4.35-4.76,4.35-7.53v-17.41l-244.69,141.27Z"/>
      <path class="cls-26" d="M75.38,331.99v-153.66c0-1.66,1.17-3.69,2.61-4.52L301.15,44.98c1.44-.83,2.61-.16,2.61,1.51v153.66c0,1.66-1.16,3.69-2.6,4.52l-223.17,128.84c-1.44.83-2.61.16-2.61-1.51Z"/>
      <path class="cls-14" d="M75.38,331.99v-153.66c0-1.66,1.17-3.69,2.61-4.52L301.15,44.98c1.44-.83,2.61-.16,2.61,1.51v153.66c0,1.66-1.16,3.69-2.6,4.52l-223.17,128.84c-1.44.83-2.61.16-2.61-1.51Z"/>
      <path class="cls-9" d="M68.51,171.33c-.78,1.37-1.26,2.91-1.28,4.3v178.17l-8.15-4.72v-178.16c0-1.39.5-2.93,1.28-4.3l8.15,4.7Z"/>
      <path class="cls-6" d="M311.88,33.64c-.31-2.24-2.12-3.05-4.31-1.8L71.58,168.1c-1.19.69-2.27,1.86-3.07,3.23l-8.15-4.71c.79-1.35,1.87-2.54,3.07-3.23L299.42,27.15c2.41-1.39,6.17-1.46,8.43-.15,2.06,1.18,3.75,4.05,4.03,6.65Z"/>
    </g>
  </g>
  <g id="Window">
    <g id="Window-2" data-name="Window">
      <path class="cls-26" d="M93.61,207.75c-1.12-.65-2.03-2.29-2.03-3.67v-16.9c0-1.38.97-3.06,2.16-3.75L315.87,55.17c1.2-.69,3.07-.72,4.2-.08s2.03,2.29,2.03,3.67v16.9c0,1.38-.96,3.06-2.16,3.75L97.8,207.67c-1.2.69-3.07.73-4.19.08Z"/>
      <path class="cls-1" d="M322.07,58.41c-.15-1.12-1.06-1.53-2.14-.9L97.8,185.77c-.59.35-1.13.94-1.53,1.62l-4.06-2.35c.4-.68.93-1.26,1.53-1.61L315.87,55.17c1.19-.69,3.07-.73,4.19-.08,1.03.6,1.88,2.02,2.01,3.32Z"/>
      <path class="cls-12" d="M97.8,345.24s-.55.4-1.7.52c-.89.09-1.82-.05-2.49-.44-1.13-.65-2.03-2.29-2.03-3.67v-128.84s4.06,2.35,4.06,2.35v128.83c0,.98.49,1.55,1.2,1.55.1,0,.49-.03.96-.3Z"/>
      <path class="cls-25" d="M96.27,187.39c-.39.67-.63,1.44-.63,2.13v25.65l-4.07-2.35v-25.64c0-.09,0-.17.01-.26.02-.2.04-.36.08-.54.11-.45.3-.93.54-1.34l4.06,2.35Z"/>
      <path class="cls-26" d="M322.09,58.76v11.57s-159.3,91.99-159.3,91.99c-1.19.69-2.16.13-2.16-1.25v-4.38c0-1.38-.97-1.94-2.17-1.25l-52.53,30.33c-1.2.69-2.17,2.37-2.17,3.75v4.38c0,1.38-.97,3.06-2.16,3.75l-5.96,3.44v-11.57c0-1.38.97-3.06,2.16-3.75L319.93,57.51c1.19-.69,2.16-.13,2.16,1.25Z"/>
      <g>
        <path class="cls-16" d="M96.84,345.04c-.63,0-.7-.73-.7-1.05v-142.62l5.71-3.3c.7-.4,1.26-2.21,2.39-6.22.59-2.11,1.49-5.31,1.95-5.67l51.57-29.78c.44.23,1.41,1.94,2,2.97,1.26,2.22,2.02,3.47,2.87,3.47.15,0,.29-.04.41-.11l158.55-91.56v142.04c0,1.2-.88,2.72-1.91,3.32l-222.13,128.26c-.26.15-.5.23-.71.23Z"/>
        <path class="cls-8" d="M321.09,72.06v141.17c0,1.03-.78,2.38-1.66,2.89l-222.13,128.26c-.25.14-.41.16-.46.16-.2,0-.2-.52-.2-.55v-142.33l5.46-3.15c.86-.5,1.4-2.18,2.62-6.51.54-1.93,1.35-4.82,1.79-5.41l51.19-29.55c.44.51,1.17,1.79,1.63,2.6,1.39,2.45,2.17,3.73,3.3,3.73.23,0,.46-.06.66-.18l157.8-91.12M158.08,156.81h0,0M106.54,186.55h0,0M322.09,70.33l-159.3,91.99c-.05.03-.1.04-.16.04-1.21,0-3.67-6.46-4.89-6.46-.06,0-.11.01-.16.04l-51.65,29.82c-1.2.69-3.14,11.19-4.33,11.88l-5.96,3.44v142.91c0,.98.49,1.55,1.2,1.55.29,0,.62-.09.96-.3l222.13-128.26c1.2-.69,2.16-2.37,2.16-3.75V70.33h0Z"/>
      </g>
      <g>
        <path class="cls-12" d="M133.64,263.57l29.6-17.09c.8-.46,1.44-.09,1.44.83v49.85c0,.92-.65,2.04-1.44,2.5l-29.6,17.09c-.8.46-1.44.09-1.44-.83v-49.85c0-.92.65-2.04,1.44-2.5Z"/>
        <g>
          <path class="cls-8" d="M139.05,266.69l18.77-10.84c.8-.46,1.44-.13,1.44.73s-.65,1.94-1.44,2.4l-18.78,10.84c-.8.46-1.44.13-1.44-.73,0-.86.65-1.94,1.44-2.4Z"/>
          <g>
            <path class="cls-26" d="M137.61,274.78v1.13c0,.55.39.78.87.5l.98-.56c.48-.28.87-.95.87-1.5v-1.13c0-.55-.39-.78-.87-.5l-.98.56c-.48.28-.87.95-.87,1.5Z"/>
            <path class="cls-8" d="M143.02,272.22c0,.86.65,1.19,1.44.73l13.36-7.71c.8-.46,1.44-1.53,1.44-2.4,0-.86-.65-1.19-1.44-.73l-13.36,7.71c-.8.46-1.44,1.53-1.44,2.4Z"/>
            <path class="cls-26" d="M137.61,281.04v1.13c0,.55.39.78.87.5l.98-.56c.48-.28.87-.95.87-1.5v-1.13c0-.55-.39-.78-.87-.5l-.98.56c-.48.28-.87.95-.87,1.5Z"/>
            <path class="cls-8" d="M143.02,278.48c0,.86.65,1.19,1.44.73l13.36-7.71c.8-.46,1.44-1.53,1.44-2.4,0-.86-.65-1.19-1.44-.73l-13.36,7.71c-.8.46-1.44,1.53-1.44,2.4Z"/>
            <path class="cls-26" d="M137.61,287.29v1.13c0,.55.39.78.87.5l.98-.56c.48-.28.87-.95.87-1.5v-1.13c0-.55-.39-.78-.87-.5l-.98.56c-.48.28-.87.95-.87,1.5Z"/>
            <path class="cls-8" d="M143.02,284.72c0,.86.65,1.19,1.44.73l13.36-7.71c.8-.46,1.44-1.53,1.44-2.4,0-.86-.65-1.19-1.44-.73l-13.36,7.71c-.8.46-1.44,1.53-1.44,2.4Z"/>
            <path class="cls-26" d="M137.61,293.53v1.13c0,.55.39.78.87.5l.98-.56c.48-.28.87-.95.87-1.5v-1.13c0-.55-.39-.78-.87-.5l-.98.56c-.48.28-.87.95-.87,1.5Z"/>
            <path class="cls-8" d="M143.02,290.97c0,.86.65,1.19,1.44.73l13.36-7.71c.8-.46,1.44-1.53,1.44-2.4,0-.86-.65-1.19-1.44-.73l-13.36,7.71c-.8.46-1.44,1.53-1.44,2.4Z"/>
          </g>
        </g>
        <g>
          <path class="cls-8" d="M138.94,301.15l18.77-10.84c.8-.46,1.44-.13,1.44.73s-.65,1.94-1.44,2.4l-18.78,10.84c-.8.46-1.44.13-1.44-.73,0-.86.65-1.94,1.44-2.4Z"/>
          <g>
            <path class="cls-26" d="M137.49,309.23v1.13c0,.55.39.78.87.5l.98-.56c.48-.28.87-.95.87-1.5v-1.13c0-.55-.39-.78-.87-.5l-.98.56c-.48.28-.87.95-.87,1.5Z"/>
            <path class="cls-8" d="M142.91,306.67c0,.86.65,1.19,1.44.73l13.36-7.71c.8-.46,1.44-1.53,1.44-2.4s-.65-1.19-1.44-.73l-13.36,7.71c-.8.46-1.44,1.53-1.44,2.4Z"/>
          </g>
        </g>
      </g>
      <g>
        <path class="cls-15" d="M311.94,66.01c1.5-.87,2.72-.16,2.72,1.57s-1.22,3.85-2.72,4.72c-1.5.87-2.72.16-2.72-1.57s1.22-3.85,2.72-4.72Z"/>
        <path class="cls-15" d="M302.13,71.67c1.5-.87,2.72-.16,2.72,1.57s-1.22,3.85-2.72,4.72c-1.5.87-2.72.16-2.72-1.57s1.22-3.85,2.72-4.72Z"/>
        <path class="cls-15" d="M292.32,77.32c1.5-.87,2.72-.16,2.72,1.57s-1.22,3.85-2.72,4.72c-1.5.87-2.72.16-2.72-1.57s1.22-3.85,2.72-4.72Z"/>
      </g>
      <g>
        <path class="cls-4" d="M322.09,70.33v14.08L95.64,215.17v-14.08l4.45-2.58c1.19-.69,1.59-1.74,2.16-3.75l1.51-5.24c.48-1.82.97-3.06,2.17-3.75l51.65-29.82c1.2-.69,2.14-.77,3.05.74l1.85,3.36c.68,1.17,1.02,1.86,2.21,1.17l157.4-90.89Z"/>
        <polygon class="cls-8" points="95.64 201.09 95.64 215.17 91.57 212.82 91.57 198.75 95.64 201.09"/>
      </g>
      <g>
        <path class="cls-22" d="M105.57,202.1l-3.4,1.96,1.3-2.49c.11-.22.13-.49.03-.61-.1-.12-.27-.03-.39.18l-1.84,3.55s0,0,0,.01c-.02.04-.04.09-.05.13,0,.01-.01.03-.02.04-.01.06-.02.12-.02.18s0,.11.02.16c0,.01.01.02.02.03.01.03.03.06.05.07,0,0,0,0,0,0l1.84,1.42c.05.04.12.04.18,0,.08-.04.15-.14.21-.26.1-.23.09-.49-.03-.58l-1.3-1,3.4-1.96c.15-.09.27-.35.27-.58s-.12-.35-.27-.26Z"/>
        <path class="cls-22" d="M108.41,200.46l3.4-1.96-1.3-1c-.11-.09-.13-.35-.03-.58.1-.23.27-.35.39-.26l1.84,1.42s0,0,0,0c.02.02.04.04.05.07,0,0,.01.01.02.03.01.04.02.1.02.16s0,.12-.02.18c0,.01-.01.03-.02.04-.01.05-.03.09-.05.13,0,0,0,0,0,.01l-1.84,3.55c-.05.1-.12.17-.18.21-.08.04-.15.04-.21-.03-.1-.12-.09-.39.03-.61l1.3-2.49-3.4,1.96c-.15.09-.27-.03-.27-.26s.12-.49.27-.58Z"/>
        <path class="cls-22" d="M119.56,190.67c-.02-.21-.2-.18-.29.04l-.47,1.14c-.79-.09-1.76.69-2.41,2.06-.84,1.78-.84,3.89,0,4.7.42.4.97.41,1.53.09.55-.32,1.11-.96,1.53-1.85.11-.23.11-.49,0-.6s-.28,0-.39.22c-.63,1.33-1.65,1.92-2.28,1.32-.63-.6-.63-2.18,0-3.51.45-.95,1.09-1.51,1.65-1.54l-.35.86c-.09.22,0,.43.14.34l1.39-.9c.1-.06.17-.24.15-.38l-.2-1.99Z"/>
        <path class="cls-22" d="M156.09,162.37l1.24-2.62c.15-.31.15-.68,0-.82-.15-.14-.38,0-.53.31l-1.24,2.62-1.24-1.19c-.15-.14-.38,0-.53.31s-.15.68,0,.82l1.24,1.19-1.24,2.62c-.15.31-.15.68,0,.82.07.07.17.07.27.02.1-.06.19-.17.27-.32l1.24-2.62,1.24,1.19c.07.07.17.07.27.02.1-.06.19-.17.27-.32.15-.31.15-.68,0-.82l-1.24-1.19Z"/>
        <path class="cls-16" d="M124.07,193.9v-4.38c0-1.38.97-3.06,2.17-3.75l181.51-104.76c1.2-.69,2.16-.13,2.16,1.25v4.38c0,1.38-.97,3.06-2.17,3.75l-181.51,104.76c-1.2.69-2.17.13-2.17-1.25Z"/>
        <path class="cls-29" d="M306.48,83.33l.57,1.21c.04.08.11.1.19.07l1.27-.49c.2-.08.28.21.14.48l-.92,1.73c-.06.11-.08.23-.07.33l.22,1.56c.03.25-.18.57-.36.55l-1.14-.14c-.07,0-.16.04-.23.13l-1.14,1.45c-.18.23-.39.15-.36-.14l.22-1.81c.01-.11-.01-.21-.07-.25l-.92-.66c-.15-.11-.07-.48.14-.64l1.27-.98c.08-.06.15-.17.19-.29l.57-1.86c.09-.3.35-.45.44-.25Z"/>
        <g class="cls-27">
          <path class="cls-3" d="M312.46,80.48c-.26,0-.51-.13-.65-.38-.21-.36-.08-.82.27-1.02l6.09-3.52c.36-.21.82-.08,1.02.27.21.36.08.82-.27,1.02l-6.09,3.52c-.12.07-.25.1-.37.1Z"/>
          <path class="cls-3" d="M312.46,84c-.26,0-.51-.13-.65-.38-.21-.36-.08-.82.27-1.02l6.09-3.52c.36-.21.82-.08,1.02.27.21.36.08.82-.27,1.02l-6.09,3.52c-.12.07-.25.1-.37.1Z"/>
          <path class="cls-3" d="M312.46,87.52c-.26,0-.51-.13-.65-.38-.21-.36-.08-.82.27-1.02l6.09-3.52c.36-.21.82-.08,1.02.27.21.36.08.82-.27,1.02l-6.09,3.52c-.12.07-.25.1-.37.1Z"/>
        </g>
      </g>
      <g>
        <polygon class="cls-3" points="95.64 215.17 95.63 229.23 322.07 98.49 322.09 84.41 95.64 215.17"/>
        <g>
          <g>
            <path class="cls-16" d="M121.01,206.2v2.72c0,.56.39.78.88.51l34.02-19.66v-4.74s-34.02,19.66-34.02,19.66c-.48.28-.88.96-.88,1.52Z"/>
            <path class="cls-26" d="M160.5,182.37c.48-.28.88-.05.88.51v2.72c0,.56-.39,1.24-.88,1.52l-4.6,2.65v-4.74s4.6-2.65,4.6-2.65Z"/>
            <path class="cls-16" d="M160.16,186.1l-.51-.16c.05-.22.08-.44.08-.66,0-.52-.17-.92-.47-1.1-.22-.13-.49-.11-.75.04-.57.33-1.02,1.27-1.02,2.13,0,.52.17.92.47,1.1.1.06.21.09.33.09.14,0,.28-.04.42-.12.35-.2.64-.62.83-1.11l.51.16s.04,0,.06,0c.08,0,.16-.05.18-.13.03-.1-.02-.21-.12-.24ZM158.52,187.08c-.14.08-.27.09-.37.04-.17-.1-.28-.39-.28-.77,0-.72.38-1.54.83-1.8.08-.05.16-.07.23-.07.05,0,.09.01.14.04.17.1.28.39.28.77,0,.72-.38,1.54-.83,1.8Z"/>
          </g>
          <path class="cls-16" d="M115.07,208.63l-2.33,1.34c-.48.28-.87.95-.87,1.5v2.69c0,.55.39.78.87.5l2.32-1.34c.48-.28.87-.95.87-1.5v-2.69c0-.55-.39-.78-.87-.5Z"/>
          <g>
            <g>
              <path class="cls-26" d="M195.7,160.93c-1.71.99-3.1,3.4-3.1,5.38,0,1.98,1.39,2.78,3.1,1.79,1.71-.99,3.1-3.4,3.1-5.38,0-1.98-1.39-2.78-3.1-1.79Z"/>
              <g>
                <path class="cls-15" d="M195.34,164.09c-.1,0-.19-.02-.28-.07-.19-.11-.3-.33-.3-.62,0-.53.36-1.15.82-1.42h0c.25-.14.49-.16.69-.05.19.11.3.33.3.62,0,.53-.36,1.15-.82,1.42-.14.08-.28.12-.41.12Z"/>
                <path class="cls-15" d="M196.93,164.3c-.3-.18-.69-.15-1.09.08l-.45.26c-.78.45-1.4,1.52-1.4,2.42v.32c.44.25,1.05.2,1.71-.18.67-.38,1.27-1.04,1.71-1.8v-.08c0-.48-.18-.85-.49-1.03Z"/>
              </g>
            </g>
            <path class="cls-8" d="M202.8,158.53l21.25-12.27c.86-.5,1.56-.12,1.56.84,0,.96-.7,2.15-1.56,2.64l-21.25,12.27c-.86.5-1.56.12-1.56-.84,0-.96.7-2.15,1.56-2.64Z"/>
            <path class="cls-8" d="M235.24,139.82l13.18-7.69c.86-.5,1.56-.12,1.56.84s-.7,2.15-1.56,2.64l-13.18,7.69c-.86.5-1.56.12-1.56-.84s.7-2.14,1.56-2.64Z"/>
            <path class="cls-8" d="M259.64,125.8l9.1-5.28c.86-.5,1.56-.12,1.56.84s-.7,2.15-1.56,2.64l-9.09,5.28c-.86.5-1.56.12-1.56-.84,0-.96.7-2.15,1.56-2.64Z"/>
            <path class="cls-14" d="M229.68,147.53c-.21,0-.38-.17-.38-.38v-4.69c0-.21.17-.38.38-.38s.38.17.38.38v4.69c0,.21-.17.38-.38.38Z"/>
            <g>
              <path class="cls-14" d="M254.05,133.46c-.21,0-.38-.17-.38-.38v-4.69c0-.21.17-.38.38-.38s.38.17.38.38v4.69c0,.21-.17.38-.38.38Z"/>
              <path class="cls-14" d="M274.36,121.73c-.21,0-.38-.17-.38-.38v-4.69c0-.21.17-.38.38-.38s.38.17.38.38v4.69c0,.21-.17.38-.38.38Z"/>
            </g>
          </g>
          <g>
            <g>
              <path class="cls-26" d="M282.17,114.5v-.86c0-.98-.6-1.44-1.34-1.01h0c-.74.43-1.34,1.57-1.34,2.55v.77c0,.48-.17,1.04-.45,1.51,0,0,0,0,0,0-.07.12-.11.26-.11.39h0c0,.25.15.36.34.25l3.12-1.8c.19-.11.34-.4.34-.64h0c0-.12-.04-.21-.1-.26,0,0,0,0,0,0-.28-.12-.46-.44-.46-.9Z"/>
              <path class="cls-26" d="M281.48,117.1c0,.47-.29,1.02-.64,1.23-.35.2-.64-.01-.64-.49l1.28-.74Z"/>
            </g>
            <g>
              <g>
                <path class="cls-26" d="M287.88,110.72c-.11,0-.22-.03-.31-.08-.22-.13-.34-.37-.34-.7,0-.6.4-1.3.92-1.6h0c.28-.16.56-.18.78-.06.22.13.34.37.34.7,0,.6-.41,1.3-.92,1.6-.16.09-.32.14-.47.14Z"/>
                <path class="cls-26" d="M289.67,110.95c-.34-.2-.78-.17-1.23.09l-.51.29c-.88.51-1.58,1.71-1.58,2.73v.36c.5.28,1.18.23,1.93-.2.75-.43,1.44-1.17,1.93-2.03v-.09c0-.54-.2-.96-.55-1.16Z"/>
              </g>
              <g>
                <path class="cls-26" d="M290.36,108.4c-.11,0-.22-.03-.31-.08-.22-.13-.34-.37-.34-.7,0-.6.41-1.3.92-1.6h0c.28-.16.56-.18.78-.06.22.13.34.37.34.7,0,.6-.41,1.3-.92,1.6-.16.09-.32.14-.47.14Z"/>
                <path class="cls-26" d="M292.15,108.64c-.35-.2-.78-.17-1.24.09l-.5.3c-.55.31-1.02.89-1.29,1.52.4-.19.79-.2,1.09-.02.35.2.55.62.55,1.16v.22c.76-.43,1.44-1.17,1.94-2.02v-.09c0-.54-.2-.96-.55-1.16Z"/>
              </g>
            </g>
            <path class="cls-26" d="M298.33,102.24c-1.4.81-2.54,2.79-2.54,4.42,0,.7.22,1.21.57,1.51l-.32,1.51c-.04.19.09.27.21.13l1.14-1.34c.29-.03.61-.14.94-.33,1.4-.81,2.54-2.79,2.54-4.42s-1.14-2.29-2.54-1.48Z"/>
            <path class="cls-26" d="M310.56,95.12c.22-.13.43-.2.63-.22.2-.02.37.01.51.1.15.08.26.22.34.4.08.18.13.41.13.69,0,.22-.02.43-.07.62-.05.19-.11.38-.18.56-.07.18-.15.35-.24.5-.09.16-.17.31-.25.46-.08.15-.16.3-.22.45-.07.15-.11.3-.13.45-.01.07-.03.14-.06.21s-.06.11-.1.13l-.73.42s-.08.02-.11,0c-.03-.03-.05-.08-.05-.15,0-.2.03-.4.08-.59.05-.19.12-.37.2-.55.08-.18.17-.35.26-.51.09-.16.18-.32.26-.47.08-.15.15-.29.2-.42.05-.14.08-.26.08-.39,0-.18-.04-.29-.13-.34-.09-.05-.22-.02-.41.08-.18.1-.31.22-.39.35-.08.13-.13.25-.17.37-.04.12-.07.23-.09.33-.03.1-.08.17-.15.21l-.73.42s-.07.02-.09,0c-.03-.02-.04-.06-.04-.12,0-.22.04-.46.12-.75.08-.28.18-.56.33-.84.14-.28.32-.54.52-.79.2-.25.44-.44.7-.6ZM311.08,101.1c0,.07-.02.14-.05.2-.03.07-.07.11-.11.14l-.75.43s-.08.02-.11,0c-.03-.03-.05-.08-.05-.15v-.93c0-.07.02-.13.05-.2.03-.07.07-.11.11-.14l.75-.43s.08-.02.11,0c.03.03.05.08.05.15v.93Z"/>
          </g>
        </g>
      </g>
      <g>
        <g>
          <path class="cls-26" d="M132.19,215.32v41.89c0,1.38.97,1.94,2.16,1.25l149.02-86.06c1.2-.69,2.17-2.37,2.17-3.75v-41.89c0-1.38-.97-1.94-2.17-1.25l-149.02,86.06c-1.2.69-2.16,2.37-2.16,3.75Z"/>
          <path class="cls-19" d="M132.19,215.32v41.89c0,1.38.97,1.94,2.16,1.25l149.02-86.06c1.2-.69,2.17-2.37,2.17-3.75v-41.89c0-1.38-.97-1.94-2.17-1.25l-149.02,86.06c-1.2.69-2.16,2.37-2.16,3.75Z"/>
        </g>
        <g>
          <path class="cls-26" d="M144.38,221.42c-4.49,2.59-8.12,8.89-8.12,14.07,0,5.18,3.64,7.28,8.12,4.69,4.49-2.59,8.13-8.89,8.12-14.07,0-5.18-3.64-7.28-8.12-4.69Z"/>
          <g>
            <path class="cls-15" d="M143.43,229.69c-.26,0-.5-.06-.72-.19-.5-.29-.78-.87-.78-1.63,0-1.38.94-3.01,2.14-3.71h0c.65-.38,1.29-.43,1.8-.13.5.29.78.87.78,1.63,0,1.38-.94,3.01-2.14,3.7-.37.21-.74.32-1.08.32Z"/>
            <path class="cls-15" d="M147.59,230.23c-.8-.46-1.81-.38-2.86.22l-1.18.68c-2.05,1.19-3.65,3.97-3.65,6.33v.83c1.16.64,2.74.53,4.49-.48,1.75-1.01,3.33-2.72,4.49-4.7v-.2c0-1.24-.46-2.22-1.28-2.69Z"/>
          </g>
        </g>
        <g>
          <path class="cls-3" d="M158.12,219.71l17.21-9.94c.86-.5,1.56-.18,1.56.7s-.7,2-1.56,2.5l-17.21,9.94c-.86.5-1.56.18-1.56-.7,0-.88.7-2,1.56-2.5Z"/>
          <path class="cls-3" d="M157.48,226.37l10.12-5.84c.51-.29.92-.11.92.41s-.41,1.18-.92,1.47l-10.12,5.84c-.51.29-.92.11-.92-.41,0-.52.41-1.18.92-1.47Z"/>
        </g>
        <path class="cls-10" d="M134.36,258.52l149.02-86.06c1.2-.69,2.17-2.37,2.17-3.75v-6.86l-153.35,88.54v6.88c0,1.38.97,1.94,2.16,1.25Z"/>
        <g>
          <path class="cls-21" d="M172.81,234.29c-.21,0-.38-.17-.38-.38v-4.69c0-.21.17-.38.38-.38s.38.17.38.38v4.69c0,.21-.17.38-.38.38Z"/>
          <path class="cls-8" d="M154.64,240.47l13.18-7.69c.86-.5,1.56-.12,1.56.84,0,.96-.7,2.15-1.56,2.64l-13.18,7.69c-.86.5-1.56.12-1.56-.84,0-.96.7-2.14,1.56-2.64Z"/>
          <path class="cls-21" d="M196.62,220.46c-.21,0-.38-.17-.38-.38v-4.69c0-.21.17-.38.38-.38s.38.17.38.38v4.69c0,.21-.17.38-.38.38Z"/>
          <path class="cls-8" d="M178.45,226.63l13.18-7.69c.86-.5,1.56-.12,1.56.84,0,.96-.7,2.15-1.56,2.64l-13.18,7.69c-.86.5-1.56.12-1.56-.84,0-.96.7-2.15,1.56-2.64Z"/>
          <path class="cls-21" d="M220.43,206.62c-.21,0-.38-.17-.38-.38v-4.69c0-.21.17-.38.38-.38s.38.17.38.38v4.69c0,.21-.17.38-.38.38Z"/>
          <path class="cls-8" d="M202.26,212.8l13.18-7.69c.86-.5,1.56-.12,1.56.84,0,.96-.7,2.15-1.56,2.64l-13.18,7.69c-.86.5-1.56.12-1.56-.84,0-.96.7-2.15,1.56-2.64Z"/>
          <path class="cls-21" d="M244.24,192.79c-.21,0-.38-.17-.38-.38v-4.69c0-.21.17-.38.38-.38s.38.17.38.38v4.69c0,.21-.17.38-.38.38Z"/>
          <path class="cls-8" d="M226.07,198.96l13.18-7.69c.86-.5,1.56-.12,1.56.84,0,.96-.7,2.15-1.56,2.64l-13.18,7.69c-.86.5-1.56.12-1.56-.84,0-.96.7-2.15,1.56-2.64Z"/>
          <path class="cls-8" d="M249.87,185.13l13.18-7.69c.86-.5,1.56-.12,1.56.84,0,.96-.7,2.15-1.56,2.64l-13.18,7.69c-.86.5-1.56.12-1.56-.84,0-.96.7-2.14,1.56-2.64Z"/>
        </g>
      </g>
    </g>
  </g>
  <g id="Plants">
    <g id="Plants-2" data-name="Plants">
      <path class="cls-26" d="M126.96,398.89l13.3-7.66s8.25-24.28,6.16-46.64c-2.6-27.79-15.72-37.55-23.43-34.45-7.71,3.1-6.12,14.17,2.05,29.02,6.48,11.77,6.49,38.9,1.92,59.73Z"/>
      <path class="cls-25" d="M126.96,398.89l13.3-7.66s8.25-24.28,6.16-46.64c-2.6-27.79-15.72-37.55-23.43-34.45-7.71,3.1-6.12,14.17,2.05,29.02,6.48,11.77,6.49,38.9,1.92,59.73Z"/>
      <path class="cls-15" d="M133.35,395.84c.25,0,.49-.16.57-.42,8.56-26.21,8.92-63.02-7.28-79.61-.23-.24-.61-.24-.85-.01-.24.23-.24.61,0,.85,15.29,15.66,15.57,52.16,7,78.4-.1.32.07.66.39.76.06.02.13.03.19.03Z"/>
      <g>
        <path class="cls-26" d="M103.08,412.68c-1.38.79-4.21-.94-5.3-1.67-1.86-1.25-3.37-3.02-4.37-5.01-1.17-2.33-1.46-4.82-1.09-7.39.19-1.33.56-2.64.94-3.93.37-1.27.73-2.54,1.1-3.82.36-1.26.73-2.55.56-3.85-.33-2.61-2.65-4.44-4.76-6.02-2.33-1.74-4.75-4.05-4.74-7.19.01-2.42,1.27-4.68,2.77-6.58,1.5-1.9,3.29-3.58,4.64-5.59.98-1.45,1.74-3.14,1.58-4.88-.1-1.08-.55-2.1-1.06-3.05-1.11-2.05-2.57-3.92-3.34-6.12-.77-2.2-.66-4.93,1.06-6.5,1.41-1.29,3.5-1.47,5.41-1.35,1.76.12,3.49.91,5.03,1.77,4.99,2.77,7.84,8.68,13.13,10.82,2.04.82,4.28,1,6.41,1.57,2.13.56,4.3,1.65,5.28,3.62,1.94,3.88-1.66,8.66-.3,12.78,1.21,3.65,4.75,5.04,6.74,8.33.87,1.44,1.07,3.1.93,4.77-.24,2.83-.65,4.91-2.01,8.06-1.12,2.6-4.43,7.26-4.43,7.26-.08.08-23.96,13.84-24.17,13.96Z"/>
        <path class="cls-15" d="M117.34,404.98c.27,0,.5-.2.53-.47,2.57-20.36-7.15-47.83-21.67-61.23-.22-.2-.56-.19-.76.03-.2.22-.19.56.03.76,14.29,13.19,23.86,40.24,21.33,60.3-.04.29.17.56.47.6.02,0,.05,0,.07,0Z"/>
        <path class="cls-15" d="M114.85,378.92c.16,0,.33-.07.43-.22.18-.24.13-.57-.11-.75-8.01-6.01-20.25-4.96-20.77-4.92-.3.03-.51.29-.49.59.03.3.3.51.58.49.12-.01,12.35-1.05,20.03,4.7.1.07.21.11.32.11Z"/>
        <path class="cls-15" d="M113.65,373.92c.29,0,.53-.23.54-.52.36-9.33,7.41-14.96,7.48-15.02.23-.18.27-.52.09-.75-.18-.23-.52-.27-.75-.09-.31.24-7.51,5.99-7.89,15.82-.01.3.22.55.52.56,0,0,.01,0,.02,0Z"/>
      </g>
    </g>
  </g>
  <g id="Post">
    <g id="Post-2" data-name="Post">
      <g>
        <path class="cls-21" d="M245.93,395.74c-17.97-10.37-30.23-28.37-33.32-48.88l-7.09-47.07c-2.73-18.13-12.65-34.4-27.52-45.12l-9.25-6.68v5.28s5.02,3.62,5.02,3.62c14.84,10.7,24.75,26.92,27.5,45.01l7.23,47.39c3.12,20.47,15.37,38.41,33.3,48.76l4.13,2.38v-4.69h0Z"/>
        <g>
          <path class="cls-16" d="M245.93,395.16c-17.8-10.38-29.76-27.99-32.83-48.38l-7.09-47.07c-2.73-18.15-12.84-34.71-27.72-45.45l-8.63-6.22,112.79-65.12,8.99,6.49c14.67,10.58,24.62,26.91,27.31,44.79l7.09,47.07c3.09,20.5,15.03,38.24,32.82,48.8l-112.74,65.09Z"/>
          <path class="cls-8" d="M282.43,183.51l8.73,6.3c14.56,10.51,24.44,26.71,27.11,44.46l7.09,47.07c3.07,20.37,14.82,38.03,32.33,48.72l-111.76,64.52c-17.53-10.32-29.3-27.74-32.34-47.88l-7.09-47.07c-2.75-18.28-12.93-34.97-27.92-45.79l-8-5.77,111.84-64.57M282.49,182.32l-113.74,65.67,9.25,6.68c14.87,10.73,24.79,26.99,27.52,45.12l7.09,47.07c3.09,20.52,15.36,38.51,33.32,48.88h0l113.74-65.67c-17.97-10.37-30.23-28.37-33.32-48.88l-7.09-47.07c-2.73-18.13-12.65-34.4-27.52-45.12l-9.25-6.68h0Z"/>
        </g>
        <polygon class="cls-10" points="245.93 395.74 359.67 330.07 359.67 334.76 245.93 400.43 245.93 395.74"/>
      </g>
      <g>
        <path class="cls-26" d="M190.01,244.46c-3.97,1.69-4.39,5.16-.94,7.75,3.45,2.59,9.45,3.33,13.42,1.64,3.97-1.69,4.4-5.16.94-7.75-3.45-2.59-9.46-3.32-13.42-1.64Z"/>
        <g>
          <path class="cls-15" d="M194.3,248.67c-.33.02-.68.01-1.04-.03-.83-.1-1.57-.37-2.07-.74-.92-.69-.81-1.59.25-2.04h0c.58-.25,1.35-.33,2.19-.22.83.1,1.57.37,2.07.74.92.69.81,1.59-.25,2.04-.33.14-.72.23-1.15.26Z"/>
          <path class="cls-15" d="M199.93,248.58c-1.32-.16-2.55-.03-3.48.36l-1.04.44c-1.81.77-2,2.3-.42,3.49l.56.42c1.89.22,4.09.16,5.66-.45,1.71-.66,2.77-1.43,2.92-2.51l-.78-.51c-.83-.62-2.06-1.07-3.41-1.24Z"/>
        </g>
      </g>
      <g>
        <path class="cls-3" d="M208.47,237.08l33.4-19.28c1.2-.69,3.1-.63,4.19.22.1.08.2.16.31.24,1.08.86.96,2.15-.24,2.85l-33.37,19.33c-1.19.69-3,.51-4.08-.35-.12-.09-.24-.19-.35-.28-1.09-.85-1.06-2.03.14-2.72Z"/>
        <path class="cls-3" d="M215.81,244.86l16.72-9.65c.6-.35.68-1.01.18-1.49l-.3-.29c-.5-.48-1.39-.58-1.98-.23l-16.63,9.72c-.6.35-.68,1.02-.18,1.5l.21.2c.5.48,1.39.59,1.98.24Z"/>
      </g>
      <g>
        <path class="cls-13" d="M204.88,263.19l90.15-52.05c1.2-.69,2.83-.35,3.61.79.06.09.12.18.18.27.77,1.14.39,2.66-.8,3.35l-90.17,52.09c-1.2.69-2.75.3-3.51-.85-.06-.1-.13-.19-.19-.29-.77-1.15-.46-2.61.73-3.3Z"/>
        <path class="cls-13" d="M210.35,272.07l90.22-52.09c1.2-.69,2.69-.26,3.29.98.05.1.09.2.14.29.59,1.25.06,2.84-1.14,3.53l-90.24,52.14c-1.2.69-2.59.22-3.18-1.04-.05-.11-.1-.22-.15-.33-.59-1.25-.14-2.8,1.06-3.49Z"/>
        <path class="cls-13" d="M214.41,281.72l90.29-52.13c1.2-.69,2.54-.19,2.93,1.13.04.15.09.29.13.44.38,1.33-.31,2.97-1.5,3.66l-90.32,52.17c-1.2.69-2.43.16-2.81-1.17-.05-.16-.09-.32-.14-.48-.39-1.32.21-2.94,1.41-3.63Z"/>
        <path class="cls-13" d="M217.02,292.24l52.48-30.31c1.2-.69,2.33-.14,2.54,1.22l.11.7c.21,1.36-.59,3.03-1.79,3.72l-52.49,30.34c-1.2.69-2.33.15-2.54-1.22-.04-.24-.07-.49-.11-.73-.21-1.37.59-3.03,1.79-3.72Z"/>
      </g>
      <g>
        <path class="cls-26" d="M325.54,320.76l-85.89,49.6c-2.39,1.38-5.74.76-7.25-1.56-5.43-8.32-9.06-18.69-10.88-31.09l-3.43-22.8c-.41-2.73,1.19-6.06,3.59-7.44l86.04-49.68c2.39-1.38,4.66-.29,5.07,2.44l3.44,22.81c1.38,11.77,4.96,22.15,10.77,31.13,1.5,2.32.94,5.21-1.45,6.59Z"/>
        <path class="cls-19" d="M325.54,320.76l-85.89,49.6c-2.39,1.38-5.74.76-7.25-1.56-5.43-8.32-9.06-18.69-10.88-31.09l-3.43-22.8c-.41-2.73,1.19-6.06,3.59-7.44l86.04-49.68c2.39-1.38,4.66-.29,5.07,2.44l3.44,22.81c1.38,11.77,4.96,22.15,10.77,31.13,1.5,2.32.94,5.21-1.45,6.59Z"/>
        <path class="cls-26" d="M239.65,370.36l85.89-49.6c2.39-1.38,2.96-4.27,1.45-6.59-2.79-4.31-5.06-8.96-6.82-13.91l-26.64-7.52-11.83,26.25,12.85,10.34-44.84-23.6-22.94,52.13c1.59,3.97,3.46,7.63,5.63,10.95,1.51,2.31,4.86,2.94,7.25,1.56Z"/>
        <path class="cls-26" d="M275.67,287.17c3.16-1.82,6.17-.31,6.73,3.38.56,3.69-1.56,8.16-4.71,9.98-3.16,1.82-6.17.31-6.73-3.38-.56-3.69,1.56-8.16,4.71-9.98Z"/>
      </g>
      <g>
        <g>
          <g>
            <path class="cls-26" d="M301.75,350.15c-.27.02-.57.01-.87-.03-.7-.09-1.31-.31-1.73-.62-.77-.58-.68-1.33.21-1.7h0c.48-.21,1.13-.27,1.83-.19.7.09,1.31.31,1.73.62.77.58.68,1.33-.21,1.7-.28.12-.6.19-.96.21Z"/>
            <path class="cls-26" d="M306.46,350.08c-1.1-.14-2.13-.03-2.91.3l-.87.37c-1.51.65-1.67,1.93-.35,2.91l.46.35c1.58.18,3.42.13,4.73-.37,1.43-.55,2.31-1.19,2.44-2.1l-.65-.43c-.69-.52-1.72-.9-2.85-1.03Z"/>
          </g>
          <path class="cls-26" d="M308.11,346.31l-3.21.16-.88.76c-.15.13-.14.36.01.48l.87.69,3.27-.13-.06-1.95ZM304.67,347.67c-.13,0-.24-.11-.24-.23s.11-.24.24-.24.24.11.24.24-.11.23-.24.23Z"/>
        </g>
        <g>
          <path class="cls-26" d="M324.78,340.61c-.04.49-.63.9-.98,1.1-.62.36-1.41.61-2.26.73-.78-.89.68-2.49,3.24-1.83Z"/>
          <path class="cls-26" d="M324.9,337.46c-2.36-1.95-6.06-2.67-8.67-1.18s-3.11,4.64-.72,6.59c2.39,1.96,6.67,1.99,9.24.49,2.58-1.5,2.5-3.95.14-5.9ZM320.95,337.04c.42-.23,1-.12,1.34.21.34.33.3.77-.12,1.01s-1.05.19-1.39-.15c-.34-.34-.24-.83.17-1.06ZM316.21,340.68c-.34-.34-.24-.83.17-1.06s1-.12,1.34.21c.34.33.3.77-.12,1.01-.41.24-1.05.19-1.39-.15ZM324.05,342.14c-.95.55-2.26.87-3.61.87-1.18,0-2.27-.24-3.15-.67l6.71-3.8c.86.71,1.32,1.47,1.26,2.11-.05.68-.69,1.18-1.22,1.49Z"/>
        </g>
        <path class="cls-26" d="M339.01,328.67c-.21-.34-.5-.68-.89-1-1.65-1.36-4.24-1.87-6.06-.82s-2.17,3.24-.5,4.61c.2.16.43.3.67.44,0,0,.02.01.03.01,2.98,1.71,8.45,1.92,8.45,1.92,0,0,.02-2.83-1.7-5.17ZM336.4,330.56c-.86.5-2.29.49-3.09-.16s-.63-1.71.24-2.2c.87-.5,2.11-.26,2.9.39.79.65.81,1.47-.05,1.97Z"/>
      </g>
    </g>
  </g>
  <g id="Character">
    <g id="Character-2" data-name="Character">
      <g>
        <g>
          <g>
            <path class="cls-2" d="M447.65,339.23l-12.86,37.53c-.37,1.09-1.92,1.09-2.29,0l-12.7-37.83,27.84.31Z"/>
            <path class="cls-14" d="M432.5,376.75c.37,1.09,1.91,1.1,2.29,0l2.51-7.33h0c-2.21,1.18-4.89,1.03-6.95-.39l-.56-.39,2.72,8.09Z"/>
            <path class="cls-26" d="M420.29,171.58v3.67s-.04,4.43-.04,4.43l-.45,159.24c2.94,3.36,7.3,5.07,11.72,5.52,6.73.7,13.64-1.51,16.1-5.21l.45-159.15.02-8.47c-.32,5.48-28.05,5.47-27.81-.04Z"/>
            <path class="cls-21" d="M420.21,185.55v8.2c-.09,2.38,4.97,3.91,10.82,4.45,7.76.73,16.9-1.37,17.01-4.52l.02-6.04-.03-2.16c-.11,3.15-9.25,5.26-17.02,4.52-5.6-.52-10.5-1.98-10.78-4.19v-.02c-.03-.07-.03-.15-.02-.23Z"/>
            <path class="cls-26" d="M420.23,187.6c-.2,5.52,27.62,5.45,27.82-.07l.04-8.21c-.2,5.52-28.02,5.59-27.82.07l-.04,8.21Z"/>
            <path class="cls-21" d="M420.29,171.58l-.04,8.1c-.24,5.42,26.61,5.58,27.82.4.03-.09.04-.2.05-.31l-.03-8.16c-.32,5.48-28.05,5.47-27.81-.04Z"/>
          </g>
          <path class="cls-17" d="M448.23,136.86v-.34c0-3.95-6.23-7.16-13.91-7.16s-13.91,3.21-13.91,7.16v3.73l-.12,31.34c-.11,2.35,4.9,3.9,10.69,4.47,7.76.76,16.94-1.29,17.12-4.43t.01-.04l.12-34.5c0-.05,0-.2,0-.22Z"/>
          <ellipse class="cls-24" cx="434.33" cy="136.51" rx="13.91" ry="7.16"/>
          <path class="cls-25" d="M448.08,180.08l.15-43.23c-.19,3.39-5.95,6.59-12.25,6.82l-.45,200.9-.74,32.19,12.86-37.53h-.02s0,0,0,0l.45-159.15Z"/>
        </g>
        <g>
          <path class="cls-18" d="M403.09,213.56c5.29-.77,11.81,3.21,16.35,9.59s20.36,21.91,22.09,26.85c1.26,3.6.52,10.37-6.93,7.19-7.21-3.07-30.2-25.62-30.2-25.62l-1.32-18.01Z"/>
          <path class="cls-7" d="M400.56,213.56s3.35-.7,5.18-.58c1.83.12,5.94,1.21,10.17,5.33,4.23,4.12,15.21,17.43,15.21,17.43,0,0,.49,3.73-3.19,7.9-3.68,4.17-7.11,4.17-7.11,4.17l-16.31-13.5-3.94-20.75Z"/>
          <path class="cls-18" d="M436.4,242.67l11.56-16.84.03-12.37s2.56.86,3.58,4.84c1.02,3.99,2.29,8.63,1.78,12.03-.51,3.4-8.54,23.95-12.86,26.86-4.34,2.92-4.09-14.52-4.09-14.52Z"/>
        </g>
      </g>
      <g>
        <polygon class="cls-18" points="384.2 207.97 386.45 222.21 400.56 221.45 398.54 204.91 384.2 207.97"/>
        <g>
          <path class="cls-11" d="M374.7,190.51s-3.36,5.1-2.98,5.6c.38.5,2.86.95,2.86.95l.12-6.56Z"/>
          <path class="cls-18" d="M384.04,176.39c-6.81,1.44-8.77,4.43-9.41,15.24-.67,11.3.48,14.85,1.97,16.37,1,1.03,6.57,1.21,9.38.44,3.52-.97,11.46-3.78,15.18-9.47,4.38-6.69,5.53-15.75.84-19.47-6.59-5.23-15.19-3.7-17.96-3.12Z"/>
          <path class="cls-11" d="M384.32,208.75s1.9-.34,3.59-.9c0,0-.99,1.34-3.42,1.97l-.17-1.06Z"/>
        </g>
        <g>
          <path class="cls-14" d="M374.2,179.82c.88.53,1.9.9,2.96,1.21,1.66.48,1.41,1.11,1.64,2.62.21,1.35.85,2.67,1.87,3.59.64.59,1.13.64,1.34,1.54.22.9.03,1.91.04,2.83.02,1.88,1.22,3.3,1.8.79,0,0,1.08-4.18,4.6-3.65,3.54.53,3.83,4.49,2.15,7.6-1.02,1.89-3.76,1.4-3.76,1.4,0,0-.62,5.21,3.68,9.47,0,0,3.5,2.6,8.96-.1,3.18-4.15,4.43-6.34,6.26-9.51,2.44-4.25,4.55-9.46,3.72-14.46-.31-1.84-1.06-3.61-2.37-4.96-.95-.98-.88-1.17-1.14-2.5-.22-1.11-.82-2.16-1.7-2.87-1.37-1.1-3.35-1.37-4.96-.67,0-1.74-1.48-3.24-3.16-3.7-1.68-.45-3.49-.03-5.07.7-.91-1.63-2.68-2.75-4.54-2.86-1.86-.12-3.76.77-4.86,2.28-.47-.82-1.42-1.28-2.36-1.36-.94-.08-1.88.15-2.78.44-.75.24-1.48.52-2.16.92-2.48,1.47-3.8,4.67-3.07,7.46.47,1.81,1.53,2.98,2.9,3.79Z"/>
          <path class="cls-14" d="M406.07,178.69l4.07-2.4c-.66-1.12-2.11-1.5-3.24-.84-1.12.66-1.5,2.11-.84,3.24Z"/>
        </g>
      </g>
      <g>
        <path class="cls-14" d="M409.87,390.08l.09.91c.12,1.21.24,2.42.09,3.63-.1.84-.34,1.97-1.12,2.43-.79.47-1.76.82-2.66,1.04-2.03.49-4.27.32-6.16-.6-1.6-.78-2.85-1.99-4.59-2.48-1.77-.5-3.61-.69-5.44-.9-.81-.09-1.63-.19-2.4-.44-.6-.2-1.17-.48-1.73-.78-1.89-.99-3.75-2.13-5.14-3.75-.9-1.04-1.57-2.31-1.84-3.67-.16-.8-.48-3.11.85-3.05,6.55.29,13.03,1.7,19.58,1.62.43,0,.85-.02,1.27.05.81.13,1.54.56,2.2,1.03.77.55,1.05.57,2.01.49,1.15-.1,2.27-.24,3.4.05.47.12.99.34,1.17.79.06.16.08.33.1.5.1,1.04.2,2.08.31,3.13Z"/>
        <path class="cls-18" d="M409.2,382.24l-.34,4.94c-.32,1.88-6.72,3.03-8.04-.3l-.63-5.6,9.01.96Z"/>
        <g>
          <path class="cls-14" d="M384.83,401.76s.78,2.57,1.19,4.81c.32,1.78.77,4.75.12,6.07-.65,1.32-3.09,2.12-6.84,2.01-2.43-.07-6.26,1.49-8.88,2.88-2.71,1.43-8.3,1.9-11.12,1.51-3.33-.47-6.75-2.48-7.25-3.88-.51-1.39.24-2.81,8.18-5.99.07-.03,11.02-3.32,14.92-7.43l9.69.02Z"/>
          <path class="cls-18" d="M384.9,398.59s-.06,2.18-.08,3.42c-.02,1.24-1.53,3.06-5.32,2.84-2.67-.16-4.51-.92-4.36-3.11l.07-3.17,9.69.02Z"/>
        </g>
        <g>
          <path class="cls-26" d="M411.78,344.33c-1.13-9.61-1.97-15.11-1.97-15.11,0,0,.19-13.38.98-25.85.85-13.48.66-30.44.99-33.8,0,0-43.29-9.25-43.64,6.36-.41,18.14.8,55.67,1.06,60.56.36,6.86.38,14,1.54,25.13,1.15,10.99,4.48,36.95,4.48,36.95,4.91,2.8,9.69.02,9.69.02,0,0,3.77-31.11,3.62-39.02-.18-9.66-1.64-17.1-1.64-17.1l3.41-35.21s1.34,10.89,1.7,17.75c.36,6.86,1.3,11.05,3,23.82,1.47,11.08,5.21,34.45,5.21,34.45,4.91,2.8,9.21-.37,9.21-.37,0,0,3.51-28.96,2.38-38.57Z"/>
          <path class="cls-6" d="M411.78,344.33c-1.13-9.61-1.97-15.11-1.97-15.11,0,0,.19-13.38.98-25.85.85-13.48.66-30.44.99-33.8,0,0-43.29-9.25-43.64,6.36-.41,18.14.8,55.67,1.06,60.56.36,6.86.38,14,1.54,25.13,1.15,10.99,4.48,36.95,4.48,36.95,4.91,2.8,9.69.02,9.69.02,0,0,3.77-31.11,3.62-39.02-.18-9.66-1.64-17.1-1.64-17.1l3.41-35.21s1.34,10.89,1.7,17.75c.36,6.86,1.3,11.05,3,23.82,1.47,11.08,5.21,34.45,5.21,34.45,4.91,2.8,9.21-.37,9.21-.37,0,0,3.51-28.96,2.38-38.57Z"/>
          <path class="cls-23" d="M406.76,290.88s-3,4.95-12.1,8.58l-2.53,8.5-.28,14.94c-.35-4.81-.88-10.07-1.56-15.64l1.03-8.76s10.05-3.04,15.44-7.62Z"/>
        </g>
      </g>
      <path class="cls-3" d="M413.45,222.77c-1.74-6.19-5.82-8.92-10.35-9.21-1.15-.07-3.49.03-3.49.03.32,2.62-7.76,4.47-14.04,2.99-1.89.5-5.03,1.21-6.61,1.73-4.51,1.5-9.93,7.15-10.63,21.87,0,0-.72,31.65-.49,40.85,11.15,4.7,21.91,5.29,28.41,4.03,13.53-2.64,15.75-8.43,15.75-8.43,0,0-.13-8.05-.63-20.87,2.29-18.24,2.85-30.3,2.09-32.98Z"/>
      <g>
        <path class="cls-18" d="M360.7,275.23c2.6,1.85,3.74,3.83,3.95,7.04.19,2.87.18,6,1.53,8.6.22.43,1.4,1.4,1.86,1.26v-3.68c.76-.95,2.81-2.72,3.34-3.81.89-1.82-.15-4.04.39-5.99.23-.85.67-1.51.68-2.42.02-2.14-.58-4.17-2.25-5.54-1.96-1.61-3.76-3.61-5.55-5.41-2.32-2.33-5.54-5.76-7.86-8.1l15.57-14.94c1.79-1.72,3.3-3.71,4.44-5.91,2.54-4.9,6.03-13.49,2.15-18.04-5.55,0-8.71.85-14.37,7.46-4.89,5.7-20.5,24.41-22.51,27.58s-3.16,5.34.69,8.86c2.68,2.45,6.48,5.1,9.82,7.5,2.62,1.88,5.49,3.66,8.12,5.52Z"/>
        <path class="cls-11" d="M356.79,257.19s-2.13,2.13-4.78,3.27c0,0,3.62-.46,5.85-2.17l-1.08-1.1Z"/>
        <path class="cls-7" d="M380.69,217.8s-3.35-.23-6.72.5-5.63,2.45-11.48,9.05-9.94,12.02-9.94,12.02c0,0-1.68,3.73,3.01,7.94,4.69,4.21,8.9,3.49,8.9,3.49l13.12-12.75s9.35-9.81,3.11-20.25Z"/>
      </g>
    </g>
  </g>
</svg>