<?xml version="1.0" encoding="UTF-8"?>
<svg id="Layer_2" data-name="Layer 2" xmlns="http://www.w3.org/2000/svg" xmlns:xlink="http://www.w3.org/1999/xlink" viewBox="0 0 3000 3000">
  <defs>
    <style>
      .cls-1, .cls-2 {
        fill: #d1bea0;
      }

      .cls-3 {
        clip-path: url(#clippath-11);
      }

      .cls-4 {
        clip-path: url(#clippath-16);
      }

      .cls-5, .cls-6 {
        fill: #feb824;
      }

      .cls-7, .cls-8 {
        fill: #feb725;
      }

      .cls-9, .cls-6, .cls-10, .cls-11, .cls-12, .cls-13, .cls-14, .cls-15, .cls-8, .cls-16, .cls-2, .cls-17, .cls-18 {
        stroke-width: 0px;
      }

      .cls-9, .cls-19 {
        fill: #605c5f;
      }

      .cls-10 {
        fill: #f7e1bd;
      }

      .cls-20 {
        clip-path: url(#clippath-2);
      }

      .cls-21 {
        clip-path: url(#clippath-13);
      }

      .cls-22, .cls-13 {
        fill: #ffe785;
      }

      .cls-23 {
        clip-path: url(#clippath-15);
      }

      .cls-24 {
        clip-path: url(#clippath-6);
      }

      .cls-25 {
        clip-path: url(#clippath-7);
      }

      .cls-11 {
        fill: #ffd964;
      }

      .cls-12 {
        fill: #e69600;
      }

      .cls-26 {
        clip-path: url(#clippath-1);
      }

      .cls-27 {
        clip-path: url(#clippath-4);
      }

      .cls-28 {
        clip-path: url(#clippath-12);
      }

      .cls-14 {
        fill: #fff;
      }

      .cls-29 {
        clip-path: url(#clippath-9);
      }

      .cls-15 {
        fill: #b5a58b;
      }

      .cls-30 {
        clip-path: url(#clippath);
      }

      .cls-16, .cls-31 {
        fill: #e8d3b2;
      }

      .cls-32 {
        clip-path: url(#clippath-3);
      }

      .cls-17 {
        fill: #c1ff2b;
      }

      .cls-33 {
        clip-path: url(#clippath-8);
      }

      .cls-34 {
        clip-path: url(#clippath-17);
      }

      .cls-35 {
        clip-path: url(#clippath-5);
      }

      .cls-36 {
        clip-path: url(#clippath-10);
      }

      .cls-18 {
        fill: #857e79;
      }
    </style>
    <clipPath id="clippath">
      <polygon class="cls-13" points="2077.58 2163.23 2088.52 2132.75 2034.91 2123.99 2025.51 2163.12 2077.58 2163.23"/>
    </clipPath>
    <clipPath id="clippath-1">
      <polygon class="cls-13" points="2366.97 2109.13 2365.41 2080.28 2311.01 2097.74 2318.94 2129.24 2366.97 2109.13"/>
    </clipPath>
    <clipPath id="clippath-2">
      <path class="cls-13" d="M2187.09,1503.72c-8.33,7.15-207.07,23.05-207.07,23.05,0,0-24.67,19.58-28.84,13.46-3.02-4.43-4.9-5.46-9.18-15.39-1.31-3.03-4.04-13.52-3.57-16.78,1.8-12.45,10.31-14.75,10.31-14.75,6.16-2.53,28.33-.54,28.33-.54l181.96-45.45,28.06,56.39Z"/>
    </clipPath>
    <clipPath id="clippath-3">
      <path class="cls-13" d="M2240.62,1299.01c4.4.83,8.93-3.68,10.13-10.07,1.2-6.39-1.39-12.24-5.78-13.07-2.64-.5-5.33.94-7.32,3.55-4.45-18.41-15.87-31.51-29.26-31.51-17.26,0-31.25,21.77-31.25,48.62s13.99,48.62,31.25,48.62v36.17l39.88.13-6.09-33.31c-1.69-9.23-2.54-18.6-2.54-27.98v-21.43c.31.12.63.22.97.28Z"/>
    </clipPath>
    <clipPath id="clippath-4">
      <path class="cls-6" d="M2332.92,1636.72l-34.06-218.91c-6.28-32.44-35.71-55.15-68.68-53.01h0c-18.54,1.21-35.05,10.09-46.27,23.62h0s-.07.09-.07.09c-1.41,1.7-2.72,3.48-3.96,5.32l-34.96,47.01c-17.05,22.92-16.73,54.39.76,76.97l30.95,15.96-7.09,102.94h163.37Z"/>
    </clipPath>
    <clipPath id="clippath-5">
      <path class="cls-13" d="M2227.44,1403.97h0c-1.75-.57-3.59-1.01-5.5-1.33-19.33-3.18-38.19,7.96-45.49,26.14l-27.21,67.7h0l-159.04,56.9s-22.32-3.94-28.21-.83c0,0-10.63,3.99-8.63,21.29,0,0,3.53,12.75,8.27,18.44,4.74,5.69,34.71-9.42,34.71-9.42,0,0,119.8-10.86,187.71-31.22,0,0,8.6-3.67,16.2-11.58h0s0,0,0,0c1.58-1.64,3.11-3.46,4.51-5.46,2.96-4.23,41.92-83.42,41.92-83.42,9.56-18.3.39-40.79-19.23-47.2Z"/>
    </clipPath>
    <clipPath id="clippath-6">
      <path class="cls-13" d="M1289.71,1170.99c-20.58,4.16-32.02,33.49-25.54,65.51l5.7,28.17c2.26,11.19,3.51,22.56,3.72,33.97l.78,41.19,47.52-9.77-8.72-43.13c20.58-4.16,32.02-33.49,25.54-65.51-6.48-32.02-28.41-54.59-48.99-50.43Z"/>
    </clipPath>
    <clipPath id="clippath-7">
      <polygon class="cls-9" points="1419.99 1575.41 1370.1 2139.72 1248.72 2139.72 1312.19 1640.62 1223.09 2139.72 1091.77 2139.72 1232.3 1575.41 1419.99 1575.41"/>
    </clipPath>
    <clipPath id="clippath-8">
      <rect class="cls-9" x="1668.43" y="1718.9" width="74.41" height="74.41"/>
    </clipPath>
    <clipPath id="clippath-9">
      <path class="cls-13" d="M827.61,1486.23l84.41-232.65,27.84,17.86s-3.12,215.13-34.83,232.8c-31.11,17.34-77.42-18.01-77.42-18.01Z"/>
    </clipPath>
    <clipPath id="clippath-10">
      <path class="cls-13" d="M718.19,1158.54c-20.35,4.12-31.66,33.12-25.25,64.78l5.64,27.86c.02.11.04.22.07.33,3.31,16.54,3.58,33.55,1.18,50.24l-2.38,16.58h53.83l-9.89-45.14c20.35-4.12,31.66-33.12,25.25-64.78-6.4-31.66-28.09-53.98-48.45-49.87Z"/>
    </clipPath>
    <clipPath id="clippath-11">
      <path class="cls-8" d="M822.63,1499.13l38.67-103.82-95.04-77.93c-.48-.41-.97-.8-1.46-1.2l-.75-.61h0c-10.8-8.41-24.36-13.4-39.02-13.4h-3.93c-32.64,0-55.8,20.28-64.39,56.6l-32.12,143.77,28.78,4.64c-.54,5.09-1.27,10.15-2.22,15.18l-18.12,96.42h201.34l-22.83-127.93,11.09,8.29Z"/>
    </clipPath>
    <clipPath id="clippath-12">
      <path class="cls-13" d="M912.02,1253.59s-5.48-55.34-2.5-57.9c2.98-2.56,8.09,29.36,14.91,28.95,6.82-.41,20.45-56.21,25.56-55.36,5.11.85,25.98,29.82,25.13,40.04-.85,10.22-35.26,62.12-35.26,62.12,0,0-27.36-12.83-27.84-17.86Z"/>
    </clipPath>
    <clipPath id="clippath-13">
      <path class="cls-13" d="M935.83,1449.51c-6.17-.31-297.63,54.77-297.63,54.77,0,0,2.89,55.87,28.27,68.28,31.44,15.38,217.43-72.37,217.43-72.37l.03-.46,34.28-15.97s25.26,4.8,35.79.42c10.53-4.38,27.34-19.91,27.34-19.91,0,0-39.34-14.44-45.52-14.76Z"/>
    </clipPath>
    <clipPath id="clippath-15">
      <rect class="cls-16" x="827.74" y="857.65" width="404.33" height="243.49" rx="13.1" ry="13.1"/>
    </clipPath>
    <clipPath id="clippath-16">
      <path class="cls-16" d="M2582.29,2016.81c2.36-78.84-30.37-177.75-30.37-177.75-43.54,62.04-48.61,115.34-40.23,155.97-17.42-22.86-39.28-42.64-64.67-47.53,0,0,15.15,111.29,61.78,133.16h96.5c88.57-27.85,73.52-186.81,73.52-186.81-72.73,53.2-81.91,75.37-96.52,122.97Z"/>
    </clipPath>
    <clipPath id="clippath-17">
      <polygon class="cls-2" points="2457.28 2080.66 2660.93 2080.66 2615.14 2234.28 2497.05 2234.28 2457.28 2080.66"/>
    </clipPath>
  </defs>
  <g id="Layer_1-2" data-name="Layer 1">
    <g id="Projects">
      <rect class="cls-14" width="3000" height="3000"/>
      <g>
        <path class="cls-10" d="M295.44,2234.28h2422.95s274.91-890.31-408.15-1173.84c-683.06-283.53-860.83,208.66-1421.12,277.53-560.28,68.87-853.41,369.42-593.68,896.31Z"/>
        <g>
          <path class="cls-2" d="M1744.33,942.32h-31.8c-4.42-24.13-13.86-46.9-27.79-67.09l22.48-22.48c2.83-2.83,2.83-7.42,0-10.25l-34.84-34.84c-2.83-2.83-7.42-2.83-10.25,0l-22.48,22.48c-20.19-13.93-42.97-23.37-67.09-27.79v-31.8c0-4-3.24-7.25-7.25-7.25h-49.28c-4,0-7.25,3.24-7.25,7.25v31.8c-24.13,4.42-46.9,13.86-67.09,27.79l-22.48-22.48c-2.83-2.83-7.42-2.83-10.25,0l-34.84,34.84c-2.83,2.83-2.83,7.42,0,10.25l22.48,22.48c-13.93,20.19-23.37,42.97-27.79,67.09h-31.8c-4,0-7.25,3.24-7.25,7.25v49.28c0,4,3.24,7.25,7.25,7.25h31.8c4.42,24.13,13.86,46.9,27.79,67.09l-22.48,22.48c-2.83,2.83-2.83,7.42,0,10.25l34.84,34.84c2.83,2.83,7.42,2.83,10.25,0l22.48-22.48c20.19,13.93,42.97,23.37,67.09,27.79v31.8c0,4,3.24,7.25,7.25,7.25h49.28c4,0,7.25-3.24,7.25-7.25v-31.8c24.13-4.42,46.9-13.86,67.09-27.79l22.48,22.48c2.83,2.83,7.42,2.83,10.25,0l34.84-34.84c2.83-2.83,2.83-7.42,0-10.25l-22.48-22.48c13.93-20.19,23.37-42.97,27.79-67.09h31.8c4,0,7.25-3.24,7.25-7.25v-49.28c0-4-3.24-7.25-7.25-7.25ZM1540.67,1053.57c-43.83,0-79.36-35.53-79.36-79.36s35.53-79.36,79.36-79.36,79.36,35.53,79.36,79.36-35.53,79.36-79.36,79.36Z"/>
          <path class="cls-14" d="M1540.67,1090.85c-64.32,0-116.64-52.32-116.64-116.64s52.32-116.64,116.64-116.64,116.64,52.32,116.64,116.64-52.32,116.64-116.64,116.64ZM1540.67,863.02c-61.31,0-111.19,49.88-111.19,111.19s49.88,111.19,111.19,111.19,111.19-49.88,111.19-111.19-49.88-111.19-111.19-111.19Z"/>
        </g>
        <g>
          <path class="cls-16" d="M1999.18,1160.67h-21.91c-3.05-16.62-9.55-32.31-19.15-46.22l15.49-15.49c1.95-1.95,1.95-5.11,0-7.06l-24.01-24.01c-1.95-1.95-5.11-1.95-7.06,0l-15.49,15.49c-13.91-9.6-29.6-16.1-46.22-19.15v-21.91c0-2.76-2.24-4.99-4.99-4.99h-33.95c-2.76,0-4.99,2.24-4.99,4.99v21.91c-16.62,3.05-32.32,9.55-46.22,19.15l-15.49-15.49c-1.95-1.95-5.11-1.95-7.06,0l-24.01,24.01c-1.95,1.95-1.95,5.11,0,7.06l15.49,15.49c-9.6,13.91-16.1,29.6-19.15,46.22h-21.91c-2.76,0-4.99,2.24-4.99,4.99v33.95c0,2.76,2.24,4.99,4.99,4.99h21.91c3.05,16.62,9.55,32.32,19.15,46.22l-15.49,15.49c-1.95,1.95-1.95,5.11,0,7.06l24.01,24.01c1.95,1.95,5.11,1.95,7.06,0l15.49-15.49c13.91,9.6,29.6,16.1,46.22,19.15v21.91c0,2.76,2.24,4.99,4.99,4.99h33.95c2.76,0,4.99-2.24,4.99-4.99v-21.91c16.62-3.05,32.32-9.55,46.22-19.15l15.49,15.49c1.95,1.95,5.11,1.95,7.06,0l24.01-24.01c1.95-1.95,1.95-5.11,0-7.06l-15.49-15.49c9.6-13.91,16.1-29.6,19.15-46.22h21.91c2.76,0,4.99-2.24,4.99-4.99v-33.95c0-2.76-2.24-4.99-4.99-4.99ZM1858.86,1237.31c-30.2,0-54.68-24.48-54.68-54.68s24.48-54.68,54.68-54.68,54.68,24.48,54.68,54.68-24.48,54.68-54.68,54.68Z"/>
          <path class="cls-14" d="M1858.86,1263c-44.31,0-80.36-36.05-80.36-80.36s36.05-80.36,80.36-80.36,80.36,36.05,80.36,80.36-36.05,80.36-80.36,80.36ZM1858.86,1106.03c-42.24,0-76.61,34.37-76.61,76.61s34.37,76.61,76.61,76.61,76.61-34.37,76.61-76.61-34.37-76.61-76.61-76.61Z"/>
        </g>
        <g>
          <rect class="cls-16" x="394.24" y="866.73" width="299.98" height="170.6" rx="16.07" ry="16.07"/>
          <g>
            <rect class="cls-2" x="415.18" y="896.47" width="258.09" height="22" rx="4.62" ry="4.62"/>
            <rect class="cls-10" x="415.18" y="941.03" width="258.09" height="22" rx="4.62" ry="4.62"/>
            <rect class="cls-10" x="415.18" y="985.59" width="142.42" height="22" rx="3.43" ry="3.43"/>
          </g>
        </g>
        <g>
          <rect class="cls-16" x="2131.88" y="935.87" width="193.56" height="220.93" rx="13.55" ry="13.55"/>
          <g>
            <rect class="cls-14" x="2157.45" y="954.38" width="39.65" height="39.65" rx="2.84" ry="2.84"/>
            <rect class="cls-14" x="2208.84" y="954.38" width="39.65" height="39.65" rx="2.84" ry="2.84"/>
            <rect class="cls-14" x="2260.23" y="954.38" width="39.65" height="39.65" rx="2.84" ry="2.84"/>
          </g>
          <g>
            <path class="cls-2" d="M2292.36,1028.72h-127.39c-4.16,0-7.52-3.37-7.52-7.52h0c0-4.16,3.37-7.52,7.52-7.52h127.39c4.16,0,7.52,3.37,7.52,7.52h0c0,4.16-3.37,7.52-7.52,7.52Z"/>
            <path class="cls-2" d="M2292.36,1055.32h-127.39c-4.16,0-7.52-3.37-7.52-7.52h0c0-4.16,3.37-7.52,7.52-7.52h127.39c4.16,0,7.52,3.37,7.52,7.52h0c0,4.16-3.37,7.52-7.52,7.52Z"/>
            <path class="cls-2" d="M2292.36,1081.91h-127.39c-4.16,0-7.52-3.37-7.52-7.52h0c0-4.16,3.37-7.52,7.52-7.52h127.39c4.16,0,7.52,3.37,7.52,7.52h0c0,4.16-3.37,7.52-7.52,7.52Z"/>
            <path class="cls-2" d="M2292.36,1108.51h-127.39c-4.16,0-7.52-3.37-7.52-7.52h0c0-4.16,3.37-7.52,7.52-7.52h127.39c4.16,0,7.52,3.37,7.52,7.52h0c0,4.16-3.37,7.52-7.52,7.52Z"/>
            <path class="cls-2" d="M2292.36,1135.1h-127.39c-4.16,0-7.52-3.37-7.52-7.52h0c0-4.16,3.37-7.52,7.52-7.52h127.39c4.16,0,7.52,3.37,7.52,7.52h0c0,4.16-3.37,7.52-7.52,7.52Z"/>
          </g>
        </g>
        <g>
          <path class="cls-6" d="M1342.97,1803.85h717.72c2.91,0,5.28,2.37,5.28,5.28v16.65c0,2.91-2.37,5.28-5.28,5.28h-717.72c-2.91,0-5.28-2.37-5.28-5.28v-16.65c0-2.91,2.37-5.28,5.28-5.28Z"/>
          <g>
            <polygon class="cls-12" points="1383.9 2234.28 1370.09 2234.28 1456.43 1831.06 1470.25 1831.06 1383.9 2234.28"/>
            <polygon class="cls-12" points="2019.75 2234.28 2033.56 2234.28 1947.21 1831.06 1933.4 1831.06 2019.75 2234.28"/>
          </g>
        </g>
        <g>
          <g>
            <path class="cls-9" d="M2169.55,1636.72l-154.13,484.08,88.64,14.48,153.66-388.24s73.14-29.49,70.27-110.32h-158.44Z"/>
            <g>
              <path class="cls-18" d="M2025.51,2163.12l-10.03,14.47-64.6,22.68c-10.97,3.85-20.38,13.25-23.75,23.72h138.68l11.76-60.76-52.07-.11Z"/>
              <path class="cls-9" d="M2007.7,2180.32l1.64,9.46c.36,2.08-1.37,4.6-3.8,5.53h0c-2.21.85-4.23.07-4.63-1.8l-2.17-10.04,8.97-3.15Z"/>
              <path class="cls-9" d="M1991.92,2185.88l1.64,9.46c.36,2.08-1.37,4.6-3.8,5.53h0c-2.21.85-4.23.07-4.63-1.8l-2.17-10.04,8.97-3.15Z"/>
              <path class="cls-9" d="M1974.1,2192.13l1.64,9.46c.36,2.08-1.37,4.6-3.8,5.53h0c-2.21.85-4.23.07-4.63-1.8l-2.17-10.04,8.97-3.15Z"/>
              <polygon class="cls-9" points="2065.82 2223.99 2062.51 2234.28 1923.83 2234.28 1927.14 2223.99 2065.82 2223.99"/>
            </g>
            <g>
              <polygon class="cls-22" points="2077.58 2163.23 2088.52 2132.75 2034.91 2123.99 2025.51 2163.12 2077.58 2163.23"/>
              <g class="cls-30">
                <polygon class="cls-11" points="2021.72 2121.84 2088.52 2152 2100.04 2114.01 2021.72 2121.84"/>
              </g>
            </g>
            <g>
              <polygon class="cls-9" points="2301.39 1683.88 2373.14 2077.8 2295.17 2102.82 2191.24 1726.94 2301.39 1683.88"/>
              <g>
                <path class="cls-18" d="M2318.94,2129.24l-3.62,17.23-50.73,45.97c-8.61,7.81-13.64,20.12-12.68,31.07h0l127.81-53.82-12.74-60.56-48.03,20.11Z"/>
                <path class="cls-9" d="M2309.2,2152l5.18,8.08c1.14,1.78.52,4.77-1.35,6.57h0c-1.71,1.64-3.87,1.7-4.97.14l-5.9-8.41,7.04-6.38Z"/>
                <path class="cls-9" d="M2296.82,2163.25l5.18,8.08c1.14,1.78.52,4.77-1.35,6.57h0c-1.71,1.64-3.87,1.7-4.97.14l-5.9-8.41,7.04-6.38Z"/>
                <path class="cls-9" d="M2282.82,2175.93l5.18,8.08c1.14,1.78.52,4.77-1.35,6.57h0c-1.71,1.64-3.87,1.7-4.97.14l-5.9-8.41,7.04-6.38Z"/>
                <polygon class="cls-9" points="2379.71 2169.69 2380.66 2180.46 2252.84 2234.28 2251.9 2223.51 2379.71 2169.69"/>
              </g>
              <g>
                <polygon class="cls-22" points="2366.97 2109.13 2365.41 2080.28 2311.01 2097.74 2318.94 2129.24 2366.97 2109.13"/>
                <g class="cls-26">
                  <polygon class="cls-11" points="2295.64 2101.61 2374.26 2100.19 2366.64 2067.86 2295.64 2101.61"/>
                </g>
              </g>
            </g>
            <path class="cls-18" d="M2220.27,1833.66c-.23,0-.47-.05-.7-.15-.88-.39-1.27-1.41-.89-2.29l37.7-85.46.57-.28c.35-.17,35.44-17.6,47.46-37.73.49-.82,1.56-1.09,2.38-.6.82.49,1.09,1.56.6,2.38-11.83,19.82-43.52,36.35-48.33,38.78l-37.19,84.3c-.29.65-.92,1.04-1.59,1.04Z"/>
          </g>
          <g>
            <path class="cls-22" d="M2187.09,1503.72c-8.33,7.15-207.07,23.05-207.07,23.05,0,0-24.67,19.58-28.84,13.46-3.02-4.43-4.9-5.46-9.18-15.39-1.31-3.03-4.04-13.52-3.57-16.78,1.8-12.45,10.31-14.75,10.31-14.75,6.16-2.53,28.33-.54,28.33-.54l181.96-45.45,28.06,56.39Z"/>
            <g class="cls-20">
              <path class="cls-11" d="M2046.58,1521.07c1.2-.11,68.66-29.04,68.66-29.04,0,0,3.53-31.04,15.67-44.71l20.37-3.48-2.35,82.42s-101.28,2.3-102.35-5.19"/>
              <path class="cls-11" d="M1959.61,1514.39c-5.22-5.38-10.22-10.97-15.22-16.56-7.14,1.95-12.16,8.98-13.19,16.31-1.03,7.33,1.38,14.8,5.13,21.18,2.31,3.93,5.31,7.69,9.47,9.53,4.87,2.15,10.56,1.32,15.6-.4,6.18-2.11,11.91-5.49,16.74-9.88,1.58-1.44,3.33-3.59,3.05-5.87-.24-2-2.24-1.92-3.81-2.28-4.53-1.04-8.53-3.64-12.05-6.6-2.01-1.7-3.89-3.54-5.72-5.42Z"/>
            </g>
          </g>
          <g>
            <path class="cls-9" d="M2198.6,1245.3s-21.22-2.44-31.95,18.05c-7.25,13.85,5.77,42.51,13.47,61.75,5.61,14.01,20.84,21.91,35.37,17.85,1.08-.3,2.1-.65,3.04-1.06l-19.93-96.58Z"/>
            <g>
              <path class="cls-22" d="M2240.62,1299.01c4.4.83,8.93-3.68,10.13-10.07,1.2-6.39-1.39-12.24-5.78-13.07-2.64-.5-5.33.94-7.32,3.55-4.45-18.41-15.87-31.51-29.26-31.51-17.26,0-31.25,21.77-31.25,48.62s13.99,48.62,31.25,48.62v36.17l39.88.13-6.09-33.31c-1.69-9.23-2.54-18.6-2.54-27.98v-21.43c.31.12.63.22.97.28Z"/>
              <g class="cls-32">
                <path class="cls-11" d="M2220.72,1247.91s3.86,30.15-12.33,42.21c-13.24,9.86-36,4.59-36,4.59,0,0,12.27-46.82,22.31-49.83,10.04-3.01,26.01,3.04,26.01,3.04Z"/>
                <path class="cls-14" d="M2187.54,1324.29s7.27,2.16,15.43-8.06c0,0,.6,13.1-6.25,13.7-6.85.6-9.18-5.64-9.18-5.64Z"/>
              </g>
            </g>
            <path class="cls-11" d="M2208.4,1345.15s12.47-1.88,20.27-18.45c0,0-2.53,23.14-20.27,24.6v-6.16Z"/>
            <path class="cls-9" d="M2195.43,1252.3s-5.5,34.02,42.23,27.12c0,0,6.93-7.8,11.88.04,4.95,7.85-2.14,19.47-9.88,19.26,0,0-1.95,37.54,3.3,53.61,0,0,3.96-12.89,13.7-27.66,13.19-20,13.34-46.18-.8-65.52-6.15-8.41-14.86-15.81-27.19-20.05-43.15-14.83-33.24,13.18-33.24,13.18Z"/>
          </g>
          <g>
            <path class="cls-5" d="M2332.92,1636.72l-34.06-218.91c-6.28-32.44-35.71-55.15-68.68-53.01h0c-18.54,1.21-35.05,10.09-46.27,23.62h0s-.07.09-.07.09c-1.41,1.7-2.72,3.48-3.96,5.32l-34.96,47.01c-17.05,22.92-16.73,54.39.76,76.97l30.95,15.96-7.09,102.94h163.37Z"/>
            <g class="cls-27">
              <path class="cls-12" d="M2250.47,1434.68s-5.64,109.28-49.2,130.67l-38.01,11.09-3.17-40.39,90.38-101.36"/>
            </g>
          </g>
          <g>
            <path class="cls-9" d="M2297.01,1266.89c13.77,3.1,25.77,13.19,31.19,26.21,4.21,10.12,4.52,21.39,4.37,32.35-.41,29.12-3.53,59.27,6.72,86.53-5.33.59-10.67-.63-15.88-1.9-15.8-3.84-33.28-9.56-40.55-24.11-5.13-10.27-3.76-22.56-.82-33.65,2.94-11.09,7.34-21.95,7.98-33.41.64-11.46-3.5-24.16-13.58-29.65-4.03-2.19-22.77-6.25-16.16-14.05,2.49-2.94,7.14-4.83,10.65-6.21,3.9-1.53,8.01-2.53,12.18-2.94,4.64-.46,9.35-.21,13.9.81Z"/>
            <path class="cls-17" d="M2263.13,1272.78l3.07,13.34s2.41,4.26,7.65,2.07c0,0-3.35-17.5-4.05-18.72-.7-1.22-6.72-.31-6.67,3.31Z"/>
          </g>
          <path class="cls-9" d="M1981.9,1607.05l-.61.19c-2.74.83-5.63-.72-6.46-3.46l-45.97-151.85c-.83-2.74.72-5.63,3.46-6.46l.61-.19c2.74-.83,5.63.72,6.46,3.46l45.97,151.85c.83,2.74-.72,5.63-3.46,6.46Z"/>
          <g>
            <path class="cls-22" d="M2227.44,1403.97h0c-1.75-.57-3.59-1.01-5.5-1.33-19.33-3.18-38.19,7.96-45.49,26.14l-27.21,67.7h0l-159.04,56.9s-22.32-3.94-28.21-.83c0,0-10.63,3.99-8.63,21.29,0,0,3.53,12.75,8.27,18.44,4.74,5.69,34.71-9.42,34.71-9.42,0,0,119.8-10.86,187.71-31.22,0,0,8.6-3.67,16.2-11.58h0s0,0,0,0c1.58-1.64,3.11-3.46,4.51-5.46,2.96-4.23,41.92-83.42,41.92-83.42,9.56-18.3.39-40.79-19.23-47.2Z"/>
            <g class="cls-35">
              <path class="cls-11" d="M2076.08,1575.3c35.87-2.49,97.34-8.05,114.54-17.83,24.74-14.05,65.06-97.82,65.06-97.82,0,0,38.29-47.71-13.77-43.06,0,0-38.85,106.09-50.66,116.78-11.81,10.68-141.7,43.52-141.7,43.52,0,0,10.81-.5,26.53-1.59Z"/>
            </g>
          </g>
        </g>
        <g>
          <path class="cls-13" d="M1616.88,1288.81s15.89-51.28,20.49-50.31c4.6.97-1.21,26.35,5.08,25.15,6.29-1.2,15.73-51.52,19.35-48.62,3.63,2.9,25.16,30.48,22.02,45.97-3.15,15.48-42.45,46.6-42.45,46.6l-24.49-18.78Z"/>
          <path class="cls-13" d="M1227.86,1243.74s30.48-44.19,26.88-47.21c-3.6-3.01-19.96,17.24-22.91,11.55s30.77-44.21,26.25-45.27c-4.53-1.06-39.51-.93-49.74,11.11-10.23,12.04-10.38,62.17-10.38,62.17l29.9,7.64Z"/>
          <g>
            <path class="cls-22" d="M1289.71,1170.99c-20.58,4.16-32.02,33.49-25.54,65.51l5.7,28.17c2.26,11.19,3.51,22.56,3.72,33.97l.78,41.19,47.52-9.77-8.72-43.13c20.58-4.16,32.02-33.49,25.54-65.51-6.48-32.02-28.41-54.59-48.99-50.43Z"/>
            <g class="cls-24">
              <path class="cls-11" d="M1334.55,1268.14s-19.8,10.07-24.94,4.73l3.55,14.06s20.15-2.65,21.39-18.79"/>
            </g>
          </g>
          <g>
            <g>
              <polygon class="cls-19" points="1419.99 1575.41 1370.1 2139.72 1248.72 2139.72 1312.19 1640.62 1223.09 2139.72 1091.77 2139.72 1232.3 1575.41 1419.99 1575.41"/>
              <g class="cls-25">
                <path class="cls-18" d="M1150.83,2140.72c-.22,0-.44-.07-.62-.22-.43-.34-.5-.96-.17-1.39,4.97-7.75,89.49-379.9,133.5-575.65.12-.54.66-.87,1.19-.75.54.12.88.65.75,1.19-5.22,23.23-127.97,568.99-133.87,576.44-.2.25-.49.38-.78.38Z"/>
                <path class="cls-18" d="M1320.44,2140.72s-.05,0-.08,0c-.55-.04-.96-.53-.91-1.07l46.7-581.2c.04-.55.52-.96,1.07-.91.55.04.96.53.91,1.07l-46.7,581.2c-.04.52-.48.92-.99.92Z"/>
              </g>
            </g>
            <g>
              <path class="cls-18" d="M1350.33,2139.72l-2.55,19.11,72.24,30.19c12.26,5.12,19.1,17.64,17.25,31.56h-184.56l10.77-80.86h86.85Z"/>
              <path class="cls-9" d="M1314.38,2185.19c-1.13,8.48-8.92,15.35-17.4,15.35s-14.44-6.87-13.31-15.35c1.13-8.48,8.92-15.35,17.4-15.35s14.44,6.87,13.31,15.35Z"/>
              <path class="cls-9" d="M1356.49,2162.47l-7.9,12.59c-1.74,2.77-.96,6.12,1.7,7.36h0c2.43,1.13,5.59.09,7.26-2.4l8.97-13.37-10.03-4.19Z"/>
              <path class="cls-9" d="M1374.11,2169.87l-7.9,12.59c-1.74,2.77-.96,6.12,1.7,7.36h0c2.43,1.13,5.59.09,7.26-2.4l8.97-13.37-10.03-4.19Z"/>
              <path class="cls-9" d="M1394.05,2178.19l-7.9,12.59c-1.74,2.77-.96,6.12,1.7,7.36h0c2.43,1.13,5.59.09,7.26-2.4l8.97-13.37-10.03-4.19Z"/>
              <polygon class="cls-9" points="1252.71 2220.58 1250.88 2234.28 1435.44 2234.28 1437.27 2220.58 1252.71 2220.58"/>
            </g>
            <g>
              <path class="cls-18" d="M1120.94,2139.72l-2.55,19.11-80.28,30.19c-13.63,5.12-23.8,17.64-25.65,31.56h184.56l10.77-80.86h-86.85Z"/>
              <path class="cls-9" d="M1144.77,2185.19c-1.13,8.48,4.83,15.35,13.31,15.35s16.27-6.87,17.4-15.35c1.13-8.48-4.83-15.35-13.31-15.35s-16.27,6.87-17.4,15.35Z"/>
              <path class="cls-9" d="M1108.72,2162.47l4.55,12.59c1,2.77-.67,6.12-3.67,7.36h0c-2.73,1.13-5.61.09-6.62-2.4l-5.41-13.37,11.14-4.19Z"/>
              <path class="cls-9" d="M1089.12,2169.87l4.55,12.59c1,2.77-.67,6.12-3.67,7.36h0c-2.73,1.13-5.61.09-6.62-2.4l-5.41-13.37,11.14-4.19Z"/>
              <path class="cls-9" d="M1066.97,2178.19l4.55,12.59c1,2.77-.67,6.12-3.67,7.36h0c-2.73,1.13-5.61.09-6.62-2.4l-5.41-13.37,11.14-4.19Z"/>
              <polygon class="cls-9" points="1197.02 2220.58 1195.2 2234.28 1010.64 2234.28 1012.46 2220.58 1197.02 2220.58"/>
            </g>
          </g>
          <path class="cls-8" d="M1606.1,1273.37l-101.98,137.73-.3.39-88.58-72.07c-26.29-21.39-58.35-33.28-89.72-33.28h-82.07c-3.14,0-6.24.12-9.31.36l19.11-64.34-62.69-17.47-82.52,191.66c-7.31,16.98-6.63,36.34,1.85,52.77h0c8.33,16.14,23.35,27.79,41.05,31.86h0c15.25,3.49,31.18-1.89,41.2-13.9l8.44-10.12,3.95,115.27h239.91l-29.72-121.29,26.57,23.18-.1.13,7.38,6.22,7.11,6.2.1-.13,4.94,4.16c13.89,11.7,32.23,16.7,50.13,13.66h0c18.23-3.09,34.11-14.19,43.29-30.24l103.6-181.14-51.64-39.61Z"/>
          <path class="cls-12" d="M1234.14,1306.5s-50.63,7.19-77.28,40.99l-45.42,60.97,36.22-84.13s33.75-38.02,86.48-17.83Z"/>
          <path class="cls-12" d="M1414.72,1470.93l-48.19-43.68s-9.15,68.2,77.92,164.97l-29.72-121.29Z"/>
          <path class="cls-9" d="M1318.9,1182.06s13.16,32.1,9.15,42.63c0,0-6.79-11.77-14.08-4.78-7.3,6.99,2.43,17.94,12.16,18.24,0,0-22.03,31.32-24.7,32.54-2.67,1.22-29.74,4.56-29.74,4.56,0,0-40.43-49.87-35.26-76.63,5.17-26.76,31.62-47.74,60.21-48.65,28.58-.91,59.6,20.53,59.6,20.53,0,0-13.25,15.97-37.34,11.56Z"/>
          <path class="cls-12" d="M1200.57,1476.96l-2.62-58.18s-26.51,83.15-47.01,82.21c0,0,28.98,11.24,49.63-24.02Z"/>
        </g>
        <g>
          <g>
            <g>
              <g>
                <rect class="cls-19" x="1668.43" y="1718.9" width="74.41" height="74.41"/>
                <g class="cls-33">
                  <rect class="cls-18" x="1668.43" y="1732.81" width="74.41" height="12.26"/>
                </g>
              </g>
              <path class="cls-9" d="M1622.96,1459.49h165.35c14.49,0,26.25,11.76,26.25,26.25v276.28c0,14.49-11.76,26.25-26.25,26.25h-165.35c-14.49,0-26.25-11.76-26.25-26.25v-276.28c0-14.49,11.76-26.25,26.25-26.25Z" transform="translate(3329.52 -81.75) rotate(90)"/>
              <rect class="cls-14" x="1550.79" y="1524.5" width="309.7" height="198.76" rx="16.71" ry="16.71"/>
              <path class="cls-18" d="M1658.71,1789.12h89.17c7.25,0,13.13,5.88,13.13,13.13v1.98h-115.43v-1.98c0-7.25,5.88-13.13,13.13-13.13Z"/>
            </g>
            <g>
              <rect class="cls-6" x="1616.57" y="1564.31" width="28.42" height="119.14"/>
              <rect class="cls-16" x="1666.47" y="1596.27" width="28.42" height="87.18"/>
              <rect class="cls-16" x="1716.38" y="1610.7" width="28.42" height="72.75"/>
              <rect class="cls-16" x="1766.29" y="1645.08" width="28.42" height="38.38"/>
            </g>
          </g>
          <path class="cls-9" d="M1891.75,1773.03h0c14.93,0,27.05,12.12,27.05,27.05v4.15h-54.09v-4.15c0-14.93,12.12-27.05,27.05-27.05Z"/>
        </g>
        <g>
          <g>
            <path class="cls-22" d="M827.61,1486.23l84.41-232.65,27.84,17.86s-3.12,215.13-34.83,232.8c-31.11,17.34-77.42-18.01-77.42-18.01Z"/>
            <g class="cls-29">
              <path class="cls-11" d="M915.24,1500.27c21.25-22.03,35.45-53.17,35.45-53.17-94.64-7.83-106.6-8.75-106.6-8.75l-27.78,32.55s11.72,33.75,44.98,47.87c19.84,8.42,38.7-2.7,53.94-18.5Z"/>
            </g>
          </g>
          <g>
            <path class="cls-22" d="M718.19,1158.54c-20.35,4.12-31.66,33.12-25.25,64.78l5.64,27.86c.02.11.04.22.07.33,3.31,16.54,3.58,33.55,1.18,50.24l-2.38,16.58h53.83l-9.89-45.14c20.35-4.12,31.66-33.12,25.25-64.78-6.4-31.66-28.09-53.98-48.45-49.87Z"/>
            <g class="cls-36">
              <path class="cls-11" d="M716.22,1198.62s24.4,9.88,56.67,6.26c0,0-2.63-25.68-17.78-37.87,0,0-43.8,4.28-44.78,7.24-.99,2.96,5.9,24.37,5.9,24.37Z"/>
              <path class="cls-11" d="M741.38,1273.18s-10.7-.08-17.43-6.81c0,0,1.72,14.89,19.45,16.05,17.73,1.16,0,0,0,0l-2.02-9.24"/>
            </g>
          </g>
          <g>
            <path class="cls-7" d="M822.63,1499.13l38.67-103.82-95.04-77.93c-.48-.41-.97-.8-1.46-1.2l-.75-.61h0c-10.8-8.41-24.36-13.4-39.02-13.4h-3.93c-32.64,0-55.8,20.28-64.39,56.6l-32.12,143.77,28.78,4.64c-.54,5.09-1.27,10.15-2.22,15.18l-18.12,96.42h201.34l-22.83-127.93,11.09,8.29Z"/>
            <g class="cls-3">
              <polyline class="cls-12" points="811.54 1490.84 785.62 1373.99 854.22 1447.23 831.56 1496.36 811.54 1490.84"/>
            </g>
          </g>
          <path class="cls-12" d="M653.36,1507.18l81.23,11.34,11.07-106.37s11.48,168.23,6.39,173.89c-14.85,16.52-116.98,25.69-116.98,25.69l18.29-104.56Z"/>
          <g>
            <path class="cls-22" d="M912.02,1253.59s-5.48-55.34-2.5-57.9c2.98-2.56,8.09,29.36,14.91,28.95,6.82-.41,20.45-56.21,25.56-55.36,5.11.85,25.98,29.82,25.13,40.04-.85,10.22-35.26,62.12-35.26,62.12,0,0-27.36-12.83-27.84-17.86Z"/>
            <g class="cls-28">
              <path class="cls-11" d="M949.99,1169.28s-12.95,71.32-20.8,68.9c-7.85-2.42-19.67-42.49-19.67-42.49,0,0,12.47,23.85,15.41,21.17s15.09-50.91,25.05-47.58"/>
            </g>
          </g>
          <g>
            <path class="cls-22" d="M935.83,1449.51c-6.17-.31-297.63,54.77-297.63,54.77,0,0,2.89,55.87,28.27,68.28,31.44,15.38,217.43-72.37,217.43-72.37l.03-.46,34.28-15.97s25.26,4.8,35.79.42c10.53-4.38,27.34-19.91,27.34-19.91,0,0-39.34-14.44-45.52-14.76Z"/>
            <g class="cls-21">
              <path class="cls-11" d="M729.07,1487.18s-74.84,58.49-92.52,57.62c-17.68-.88-7.76-44.47-7.76-44.47,0,0,95.66-12.28,100.28-13.15"/>
            </g>
          </g>
          <path class="cls-9" d="M697.29,1245.62c2.89-7.96,5.61-15.98,8.16-24.05,0,0-11.54-11.6-4.08-20.78,7.46-9.17,14.12,7.55,13.22,10.43,0,0,10.07-24.28,19.97-29.32,9.89-5.04,5.36,17.78,28.67,14.2,23.31-3.58,22.38-42.75,22.38-42.75,0,0-54.83-15.48-86.75-8.71-31.93,6.77-13.22,21.29-13.22,21.29,0,0-26.77,7.74-26.77,22.58s38.43,57.11,38.43,57.11Z"/>
          <g>
            <path class="cls-18" d="M610.56,2116.74l-7.28,16.24,53.29,54.69c9.05,9.28,11.51,23.15,6.2,34.98h0l-156.8-70.28,30.79-68.7,73.79,33.08Z"/>
            <path class="cls-9" d="M567.85,2143.98c-3.23,7.2-11.68,10.42-18.89,7.2s-10.42-11.68-7.2-18.89c3.23-7.2,11.68-10.42,18.89-7.2,7.2,3.23,10.42,11.68,7.2,18.89Z"/>
            <path class="cls-9" d="M609.7,2139.56l-10.09,8.33c-2.22,1.83-2.46,5.15-.52,7.28h0c1.77,1.94,4.73,2.21,6.81.61l11.2-8.62-7.4-7.59Z"/>
            <path class="cls-9" d="M622.69,2152.94l-10.09,8.33c-2.22,1.83-2.46,5.15-.52,7.28h0c1.77,1.94,4.73,2.21,6.81.61l11.2-8.62-7.4-7.59Z"/>
            <path class="cls-9" d="M637.4,2168.02l-10.09,8.33c-2.22,1.83-2.46,5.15-.52,7.28h0c1.77,1.94,4.73,2.21,6.81.61l11.2-8.62-7.4-7.59Z"/>
            <rect class="cls-9" x="575.39" y="2107.4" width="12.75" height="171.83" transform="translate(-1657.64 1827.04) rotate(-65.86)"/>
          </g>
          <path class="cls-19" d="M819.24,1618.78h-174.75l-26.97,236.95c-3.09,26.66-10.66,52.61-22.4,76.75l-74.64,153.52,113.17,41.58,70.79-175.95c4.91-12.2,7.82-25.11,8.62-38.23l21.68-228.62-4.74,461.39h113l-23.77-527.39Z"/>
          <g>
            <path class="cls-18" d="M824.6,2146.16v17.8l71,28.1c12.05,4.77,19.97,16.42,19.97,29.38h-171.83v-75.28h80.86Z"/>
            <circle class="cls-9" cx="782.48" cy="2188.49" r="14.29" transform="translate(-1526.85 2450.77) rotate(-76.81)"/>
            <path class="cls-9" d="M833.15,2167.35l-5.8,11.72c-1.28,2.58-.14,5.7,2.5,6.85h0c2.41,1.05,5.22.08,6.46-2.23l6.69-12.44-9.85-3.9Z"/>
            <path class="cls-9" d="M850.48,2174.24l-5.8,11.72c-1.28,2.58-.14,5.7,2.5,6.85h0c2.41,1.05,5.22.08,6.46-2.23l6.69-12.44-9.85-3.9Z"/>
            <path class="cls-9" d="M870.07,2181.98l-5.8,11.72c-1.28,2.58-.14,5.7,2.5,6.85h0c2.41,1.05,5.22.08,6.46-2.23l6.69-12.44-9.85-3.9Z"/>
            <rect class="cls-9" x="743.74" y="2221.45" width="171.83" height="12.75"/>
          </g>
        </g>
        <g>
          <g>
            <rect class="cls-31" x="827.74" y="857.65" width="404.33" height="243.49" rx="13.1" ry="13.1"/>
            <g class="cls-23">
              <path class="cls-8" d="M808.82,1102.12c4.06-13.15,9.54-25.86,16.31-37.85,10.21-18.08,23.71-34.78,41.41-45.64,17.7-10.86,40-15.29,59.7-8.74,14.03,4.67,25.72,14.36,38.26,22.21,12.54,7.85,27.43,14.12,41.84,10.78,12.72-2.95,22.55-12.78,31.33-22.44,15.54-17.11,30.28-35.23,48.74-49.14,18.46-13.9,41.59-23.38,64.47-20.11,21.41,3.05,39.74,16.66,55.74,31.2,16.18,14.71,31.05,30.87,44.38,48.21v120.24h-438.29l-3.89-48.71Z"/>
              <rect class="cls-9" x="809.78" y="846.73" width="437.58" height="62.85"/>
            </g>
          </g>
          <path class="cls-8" d="M871.66,879.48c0,5.06-4.1,9.16-9.16,9.16s-9.16-4.1-9.16-9.16,4.1-9.16,9.16-9.16,9.16,4.1,9.16,9.16Z"/>
          <path class="cls-14" d="M907.58,879.48c0,5.06-4.1,9.16-9.16,9.16s-9.16-4.1-9.16-9.16,4.1-9.16,9.16-9.16,9.16,4.1,9.16,9.16Z"/>
          <path class="cls-14" d="M943.51,879.48c0,5.06-4.1,9.16-9.16,9.16s-9.16-4.1-9.16-9.16,4.1-9.16,9.16-9.16,9.16,4.1,9.16,9.16Z"/>
        </g>
        <g>
          <g>
            <path class="cls-31" d="M2582.29,2016.81c2.36-78.84-30.37-177.75-30.37-177.75-43.54,62.04-48.61,115.34-40.23,155.97-17.42-22.86-39.28-42.64-64.67-47.53,0,0,15.15,111.29,61.78,133.16h96.5c88.57-27.85,73.52-186.81,73.52-186.81-72.73,53.2-81.91,75.37-96.52,122.97Z"/>
            <g class="cls-4">
              <path class="cls-15" d="M2479.13,2064.3s36.38,10.87,42.24-18.82c0,0,14.64,20.49,35.13,17.14,20.49-3.35,23.84-24.25,23.84-24.25,0,0,14.64,34.71,64.82,25.51,0,0-40.56,27.18-58.54,28.02-17.98.84-76.11-.84-78.62-1.67-2.51-.84-28.85-25.93-28.85-25.93Z"/>
            </g>
          </g>
          <g>
            <polygon class="cls-1" points="2457.28 2080.66 2660.93 2080.66 2615.14 2234.28 2497.05 2234.28 2457.28 2080.66"/>
            <g class="cls-34">
              <path class="cls-15" d="M2461.33,2179.75s139.1-42.49,199.6-118.43h20.63l-53.16,186.05h-154.73l-12.34-67.63Z"/>
            </g>
          </g>
        </g>
        <g>
          <rect class="cls-16" x="394.24" y="1070.98" width="224" height="132.6" rx="13.32" ry="13.32"/>
          <g>
            <rect class="cls-2" x="414.29" y="1096.19" width="95.1" height="15.36" rx="2.48" ry="2.48"/>
            <rect class="cls-10" x="414.29" y="1142.82" width="95.1" height="15.36" rx="2.48" ry="2.48"/>
            <path class="cls-10" d="M520.39,1142.82h79.65c1.29,0,2.34,1.05,2.34,2.34v10.68c0,1.29-1.05,2.34-2.34,2.34h-79.65c-1.29,0-2.34-1.05-2.34-2.34v-10.68c0-1.29,1.05-2.34,2.34-2.34Z"/>
            <rect class="cls-10" x="518.06" y="1096.19" width="43.89" height="15.36" rx="1.69" ry="1.69"/>
            <rect class="cls-10" x="414.29" y="1119.34" width="49.92" height="15.36" rx="1.8" ry="1.8"/>
            <rect class="cls-10" x="473.96" y="1119.34" width="87.98" height="15.36" rx="2.39" ry="2.39"/>
            <rect class="cls-10" x="568.99" y="1119.34" width="33.4" height="15.36" rx="1.47" ry="1.47"/>
            <rect class="cls-10" x="568.99" y="1096.19" width="33.4" height="15.36" rx="1.47" ry="1.47"/>
            <rect class="cls-2" x="507.28" y="1166.29" width="32.72" height="15.36" rx="1.46" ry="1.46" transform="translate(1047.28 2347.94) rotate(180)"/>
            <rect class="cls-2" x="547.72" y="1166.29" width="32.72" height="15.36" rx="1.46" ry="1.46" transform="translate(1128.17 2347.94) rotate(180)"/>
            <rect class="cls-2" x="588.17" y="1166.29" width="14.22" height="15.36" rx="3.39" ry="3.39" transform="translate(1190.55 2347.94) rotate(180)"/>
            <rect class="cls-10" x="454.73" y="1166.29" width="43.89" height="15.36" rx="1.69" ry="1.69" transform="translate(953.35 2347.94) rotate(180)"/>
            <rect class="cls-10" x="414.29" y="1166.29" width="33.4" height="15.36" rx="1.47" ry="1.47" transform="translate(861.98 2347.94) rotate(180)"/>
          </g>
        </g>
        <rect class="cls-9" x="221.95" y="2231.7" width="2578.21" height="4.99"/>
      </g>
    </g>
  </g>
</svg>