<?xml version="1.0" encoding="UTF-8"?>
<svg id="Layer_2" data-name="Layer 2" xmlns="http://www.w3.org/2000/svg" viewBox="0 0 31.11 31.11">
  <defs>
    <style>
      .cls-1 {
        fill: #fca311;
      }

      .cls-1, .cls-2 {
        stroke-width: 0px;
      }

      .cls-2 {
        fill: #fff;
      }
    </style>
  </defs>
  <g id="Full_Stack_Devloper" data-name="Full Stack Devloper">
    <g id="_.Net" data-name=".Net">
      <rect id="BC_White" data-name="BC White" class="cls-2" width="31.11" height="31.11" rx="8" ry="8"/>
      <path class="cls-1" d="M15.56,25.71c-2.01,0-4.02,0-6.04,0-2.27,0-4.11-1.84-4.11-4.11,0-4.03,0-8.05,0-12.08,0-2.27,1.84-4.11,4.11-4.11,4.03,0,8.05,0,12.08,0,2.27,0,4.11,1.84,4.11,4.11,0,4.03,0,8.05,0,12.08,0,2.27-1.84,4.11-4.11,4.11-2.01,0-4.02,0-6.04,0ZM11.21,14.12c.05.1.1.19.15.28.81,1.28,1.62,2.55,2.43,3.83.03.04.06.06.11.06.26,0,.52,0,.78,0,.07,0,.08-.02.08-.08,0-1.7,0-3.41,0-5.11,0-.06-.01-.08-.08-.08-.22,0-.45,0-.67,0-.07,0-.08.02-.07.08,0,1.25-.01,2.5.01,3.75,0,.09.01.17.02.29-.04-.07-.07-.11-.1-.16-.81-1.3-1.63-2.59-2.44-3.89-.03-.05-.06-.07-.12-.07-.28,0-.56,0-.83,0-.07,0-.09.02-.09.09,0,1.7,0,3.4,0,5.1,0,.06.01.09.08.09.22,0,.44,0,.66,0,.07,0,.09-.02.08-.08,0-.03,0-.07,0-.1,0-1.33.01-2.66-.01-3.99ZM15.89,15.66c0,.85,0,1.7,0,2.55,0,.09,0,.12.22.08.6-.11,1.22-.15,1.83-.08.76.09.85.17.85,0,0-.18,0-.36,0-.54,0-.08-.02-.11-.1-.1-.64,0-1.28,0-1.92,0,0,0-.01,0-.01-.01,0-.51,0-1.02,0-1.53,0-.01,0-.02.02-.02.55,0,1.1,0,1.65,0,.09,0,.11-.03.11-.11,0-.17,0-.35,0-.53,0-.09-.03-.11-.11-.11-.52,0-1.03,0-1.55,0-.09,0-.12-.02-.12-.11,0-.42,0-.84,0-1.26,0-.14-.02-.13.13-.13.56,0,1.13,0,1.69,0,.08,0,.11-.02.1-.11,0-.18,0-.36,0-.54,0-.08-.02-.1-.1-.1-.89,0-1.78,0-2.67,0,0,0-.01,0-.01.01,0,.88,0,1.75,0,2.63ZM20.55,16.02c0,.72,0,1.45,0,2.17,0,.08.02.11.1.11.21,0,.43,0,.64,0,.09,0,.11-.02.11-.11,0-1.46,0-2.91,0-4.37,0-.03.02-.05.05-.05.45,0,.9,0,1.34,0,.07,0,.09-.02.09-.09,0-.19,0-.38,0-.57,0-.06-.02-.08-.08-.08-.31,0-.62,0-.93,0-.9,0-1.8,0-2.7,0-.07,0-.11,0-.1.09,0,.18,0,.37,0,.55,0,.08.03.1.1.1.45,0,.9,0,1.36,0,.01,0,.02,0,.02.02,0,.75,0,1.49,0,2.24ZM9.03,18.38c.29,0,.53-.22.52-.49,0-.27-.24-.5-.52-.5-.29,0-.52.23-.52.5,0,.28.23.49.52.49Z"/>
    </g>
  </g>
</svg>