<?xml version="1.0" encoding="UTF-8"?>
<svg id="Layer_2" data-name="Layer 2" xmlns="http://www.w3.org/2000/svg" viewBox="0 0 31.11 31.11">
  <defs>
    <style>
      .cls-1 {
        fill: #fca311;
      }

      .cls-1, .cls-2, .cls-3, .cls-4 {
        stroke-width: 0px;
      }

      .cls-2 {
        fill: #fff;
      }

      .cls-3 {
        fill: #cc830e;
      }

      .cls-4 {
        fill: #734a08;
      }
    </style>
  </defs>
  <g id="Full_Stack_Devloper" data-name="Full Stack Devloper">
    <g id="Angular">
      <rect id="BC_White" data-name="BC White" class="cls-2" width="31.11" height="31.11" rx="8" ry="8"/>
      <g>
        <path class="cls-3" d="M26.8,7.54c-.57,4.93-1.13,9.86-1.69,14.79-3.17,1.77-6.32,3.54-9.48,5.31l-.05-24.17c3.74,1.35,7.48,2.71,11.22,4.07Z"/>
        <path class="cls-1" d="M15.64,27.64c-3.23-1.75-6.46-3.51-9.68-5.26-.54-4.94-1.1-9.87-1.64-14.8,3.76-1.37,7.51-2.75,11.27-4.11l.05,24.17Z"/>
        <path class="cls-4" d="M15.58,6.25l-7.1,15.64h2.73l1.39-3.38,5.86-.1,1.39,3.48h2.68l-6.95-15.64ZM13.54,16.23l2.04-4.77,2.04,4.77h-4.08Z"/>
      </g>
    </g>
  </g>
</svg>