<?xml version="1.0" encoding="UTF-8"?>
<svg id="Layer_2" data-name="Layer 2" xmlns="http://www.w3.org/2000/svg" viewBox="0 0 31.11 31.11">
  <defs>
    <style>
      .cls-1 {
        fill: #fff;
      }

      .cls-1, .cls-2 {
        stroke-width: 0px;
      }

      .cls-2 {
        fill: #734a08;
      }
    </style>
  </defs>
  <g id="Full_Stack_Devloper" data-name="Full Stack Devloper">
    <g id="MySQL">
      <rect id="BC_White" data-name="BC White" class="cls-1" width="31.11" height="31.11" rx="8" ry="8"/>
      <g id="MySQL_Logo" data-name="MySQL Logo">
        <g>
          <path class="cls-2" d="M6.52,5.13s.03.03.06.04c.15.03.3.07.44.11.5.16.97.4,1.42.67.14.08.26.17.38.28.11.1.22.19.34.27.05.03.1.05.16.05.33.02.65.03.98.05.02,0,.04,0,.06,0,.32.08.64.15.96.24.36.11.71.25,1.03.45.75.45,1.48.94,2.16,1.49.8.65,1.52,1.38,2.15,2.19.41.53.78,1.08,1.13,1.65.15.26.27.53.38.8.41,1.02.86,2.02,1.36,3.01.14.28.28.56.41.85.08.17.16.32.26.48.09.14.21.22.36.28.53.2,1.05.43,1.55.69.37.19.71.43,1.04.67.54.38,1.06.8,1.56,1.23.11.1.21.21.3.33.13.17.26.35.4.5.04.04.03.09.02.14,0,.04-.04.04-.07.04-.2.06-.4.12-.6.17-.23.06-.47.09-.7.12-.35.03-.69.09-1.03.19-.21.07-.43.12-.65.15-.07,0-.07.01-.04.07.04.11.12.2.2.29.16.16.34.29.53.41.17.11.34.21.52.31.46.25.86.58,1.24.95.23.22.44.46.64.72.03.05.08.08.12.12.09.08.17.17.26.25.08.07.13.15.17.25.03.07.06.14.09.2.01.02.02.06.06.05v.09c-.07-.02-.14-.06-.19-.11-.23-.25-.52-.42-.78-.63-.38-.3-.8-.53-1.24-.73-.31-.14-.62-.28-.91-.46-.37-.22-.71-.48-1.05-.76-.29-.24-.51-.54-.7-.86-.03-.05-.05-.11-.07-.17-.03-.07-.05-.15-.11-.21-.02-.03-.02-.06,0-.1.03-.07.07-.11.13-.15.07-.04.15-.06.22-.08.11-.03.22-.06.32-.11.35-.14.72-.23,1.09-.28.46-.07.93-.09,1.39-.08.04,0,.08,0,.12,0,.03,0,.07.01.08-.01.02-.03,0-.06-.03-.09-.04-.06-.09-.12-.15-.16-.09-.08-.18-.15-.28-.21-.36-.22-.71-.47-1.06-.72-.27-.19-.55-.38-.83-.56-.1-.06-.21-.13-.32-.17-.39-.14-.76-.3-1.16-.42-.21-.06-.43-.13-.64-.21-.07-.03-.14-.06-.2-.09-.1-.05-.19-.13-.26-.22-.22-.29-.39-.6-.55-.93-.21-.41-.38-.84-.58-1.26-.24-.52-.49-1.04-.73-1.56-.12-.25-.23-.51-.32-.78-.13-.38-.33-.72-.53-1.06-.67-1.15-1.5-2.17-2.49-3.07-.83-.75-1.74-1.39-2.75-1.88-.29-.14-.59-.26-.9-.37-.25-.09-.5-.12-.76-.13-.26-.01-.52-.02-.77-.06-.08-.01-.16,0-.25,0-.07,0-.13-.02-.2-.05-.08-.04-.16-.09-.22-.15-.38-.37-.83-.6-1.31-.82-.24-.11-.47-.21-.72-.29-.13-.05-.26-.07-.4-.09-.14-.02-.26.05-.38.11-.02.01-.04.03-.05.06-.07.13-.1.26-.07.41.03.13.09.25.15.37.11.2.24.39.38.56.27.33.52.68.76,1.03.22.32.38.66.52,1.02.14.39.26.8.39,1.2.13.39.26.78.46,1.15.08.15.17.3.26.45.09.15.2.28.33.4.07.06.13.12.19.2.14.17.19.36.15.58-.05.24-.12.47-.2.69-.07.19-.16.38-.21.58-.1.36-.16.72-.19,1.09-.04.56-.02,1.12.07,1.68.08.51.26,1,.49,1.46.06.13.14.25.25.35.08.07.17.13.27.17.08.03.12,0,.13-.08.03-.25.06-.5.09-.75.05-.4.11-.79.24-1.17.09-.26.22-.49.39-.7.11-.14.22-.28.34-.42.04-.05.05-.05.09,0,.04.04.06.09.07.14.19.6.45,1.17.74,1.73.42.84.9,1.64,1.45,2.4.25.35.52.69.82.99.07.07.14.13.22.19.04.03.08.06.11.09.04.03.07.07.11.11-.03.02-.05,0-.06,0-.12-.05-.23-.13-.33-.21-.12-.1-.23-.22-.34-.33-.13-.13-.27-.25-.41-.37-.63-.49-1.2-1.03-1.66-1.68-.07-.09-.13-.19-.18-.3-.16-.34-.33-.67-.5-1.01-.01-.02-.02-.05-.05-.06-.03.02-.04.06-.05.1-.06.36-.14.71-.17,1.07-.02.17-.05.34-.11.5-.12.35-.39.55-.75.58-.18.01-.35-.05-.5-.14-.15-.09-.28-.21-.4-.34-.33-.37-.55-.8-.71-1.27-.15-.45-.25-.92-.29-1.39-.05-.47-.04-.95,0-1.42.04-.36.1-.71.21-1.06.07-.22.12-.44.17-.67.04-.19.09-.37.19-.53.02-.03.02-.06,0-.1-.03-.08-.07-.16-.13-.21-.23-.19-.37-.44-.52-.69-.3-.51-.52-1.05-.72-1.6-.09-.27-.19-.54-.29-.82-.03-.09-.06-.17-.08-.26-.07-.36-.24-.68-.46-.98-.24-.33-.49-.65-.74-.97-.17-.22-.34-.45-.47-.7-.08-.16-.15-.33-.18-.51,0-.02,0-.06-.04-.07v-.32s.03-.06.04-.09c.12-.48.38-.81.88-.93.02,0,.05,0,.05-.03h.63Z"/>
          <path class="cls-2" d="M9.19,8.78c.09-.04.18-.05.26-.06.11-.01.22-.04.33,0,.16.13.35.21.44.42.03.06.06.12.1.18.01.02.02.03.02.06,0,.24-.05.46-.24.64,0,0,0,0,0,0-.09.08-.09.08-.14-.02-.08-.16-.16-.33-.23-.49-.05-.11-.12-.19-.19-.28-.12-.14-.24-.27-.33-.44Z"/>
        </g>
      </g>
    </g>
  </g>
</svg>