<?xml version="1.0" encoding="UTF-8"?>
<svg id="Layer_2" data-name="Layer 2" xmlns="http://www.w3.org/2000/svg" viewBox="0 0 31.11 31.11">
  <defs>
    <style>
      .cls-1 {
        fill: #fca311;
      }

      .cls-1, .cls-2 {
        stroke-width: 0px;
      }

      .cls-2 {
        fill: #fff;
      }
    </style>
  </defs>
  <g id="Full_Stack_Devloper" data-name="Full Stack Devloper">
    <g id="React">
      <rect id="BC_White" data-name="BC White" class="cls-2" width="31.11" height="31.11" rx="8" ry="8"/>
      <g>
        <path class="cls-1" d="M22.66,8.85c0,.87-.09,1.64-.27,2.39-.08.32-.03.48.33.59,1.04.31,2.03.74,2.92,1.38,2.04,1.47,2.05,3.2.02,4.69-.83.61-1.74,1.07-2.72,1.34-.51.14-.58.36-.47.84.28,1.19.34,2.39.09,3.6-.03.14-.06.28-.11.42-.47,1.49-1.53,2.08-3.03,1.68-1.37-.36-2.47-1.17-3.48-2.11-.29-.27-.43-.22-.69.02-.92.85-1.93,1.56-3.13,1.97-2.02.68-3.36-.18-3.62-2.3-.15-1.16-.03-2.29.23-3.41.09-.4-.03-.49-.36-.59-1.09-.33-2.11-.81-3.01-1.51-1.89-1.47-1.87-3.17.05-4.6.92-.68,1.96-1.12,3.04-1.45.29-.09.37-.18.3-.5-.3-1.33-.47-2.67-.15-4.03.38-1.64,1.47-2.31,3.09-1.89,1.35.35,2.45,1.14,3.46,2.05.31.28.49.33.81.01.64-.64,1.38-1.16,2.19-1.59.41-.22.84-.4,1.3-.52,1.47-.38,2.5.19,2.96,1.64.2.64.27,1.29.25,1.87ZM15.57,19.26v-.02c.61,0,1.23,0,1.84,0,.2,0,.32-.08.43-.25.66-1.03,1.28-2.09,1.83-3.19.1-.2.08-.35-.01-.54-.55-1.06-1.15-2.09-1.79-3.1-.14-.22-.3-.29-.55-.3-1.16-.05-2.32-.06-3.49,0-.27.01-.44.09-.59.32-.64.99-1.23,2.01-1.76,3.06-.12.23-.11.4,0,.63.5.98,1.05,1.92,1.63,2.86.22.36.47.57.92.53.51-.04,1.03,0,1.55,0ZM4.93,15.54c.05.52.36.91.73,1.25.9.82,2,1.29,3.14,1.67.22.07.32,0,.38-.21.26-.85.59-1.67.96-2.48.07-.14.07-.27,0-.41-.37-.81-.69-1.63-.96-2.48-.04-.13-.07-.26-.25-.2-1.36.44-2.69.92-3.66,2.06-.19.23-.31.49-.34.8ZM10.98,24.88c.08,0,.25,0,.4-.05,1.32-.33,2.37-1.13,3.37-2.02.16-.14.08-.24-.02-.35-.37-.43-.77-.83-1.08-1.3-.45-.69-.97-1.17-1.86-1.08-.22.02-.45-.06-.67-.08-.44-.05-.99-.38-1.29-.15-.32.25-.27.86-.32,1.32-.11.96-.17,1.94.19,2.87.24.63.58.85,1.28.84ZM21.7,22.07c.02-.66-.11-1.36-.24-2.06-.04-.23-.13-.32-.39-.26-.82.2-1.65.31-2.48.39-.19.02-.37.05-.5.24-.49.72-1.02,1.41-1.61,2.06-.16.18-.13.28.03.43.73.67,1.51,1.27,2.41,1.68.25.11.51.21.77.28.95.24,1.48-.05,1.79-.98.19-.56.23-1.14.22-1.77ZM9.44,8.85c0,.76.12,1.51.28,2.25.05.24.14.32.39.27.83-.19,1.68-.32,2.53-.39.15-.01.28-.06.37-.19.53-.74,1.09-1.44,1.7-2.11.1-.11.15-.2.01-.32-1.06-.94-2.15-1.82-3.59-2.09-.77-.14-1.19.14-1.46.87-.21.55-.23,1.13-.23,1.72ZM21.68,8.91c0-.52-.05-1.03-.19-1.53-.29-1.04-.84-1.35-1.89-1.05-1.24.36-2.22,1.15-3.16,1.99-.17.15-.12.25,0,.39.59.64,1.13,1.33,1.63,2.04.1.14.23.21.4.23.85.07,1.7.2,2.53.39.23.05.34,0,.39-.26.15-.73.25-1.46.27-2.2ZM26.17,15.49c-.03-.48-.35-.83-.7-1.14-.93-.82-2.05-1.27-3.21-1.64-.24-.08-.27.05-.32.21-.27.81-.58,1.61-.94,2.38-.07.16-.09.29,0,.45.38.8.72,1.62.99,2.47.05.14.09.27.3.2,1.23-.42,2.42-.9,3.36-1.85.29-.29.52-.62.52-1.09ZM19,19.07c.72-.04,1.34-.17,1.96-.31.13-.03.14-.1.1-.21-.21-.59-.39-1.2-.73-1.8-.45.78-.87,1.51-1.32,2.32ZM12.14,19.09c-.47-.81-.9-1.54-1.37-2.35-.24.66-.43,1.22-.64,1.77-.08.2-.03.3.18.33.58.09,1.16.23,1.83.25ZM12.15,12c-.7.13-1.28.24-1.87.34-.18.03-.2.11-.15.26.19.57.38,1.14.67,1.74.45-.77.86-1.49,1.35-2.34ZM18.99,12.05c.47.8.88,1.52,1.35,2.33.24-.65.45-1.21.65-1.78.06-.16,0-.23-.17-.26-.58-.11-1.16-.24-1.83-.29ZM14.21,20.31c.45.54.82.98,1.19,1.42.1.11.19.23.34.05.39-.46.79-.91,1.16-1.47h-2.69ZM14.25,10.76c.47.09,2.28.08,2.61-.02-.38-.46-.75-.9-1.12-1.34-.08-.1-.17-.21-.3-.05-.39.46-.78.92-1.19,1.41Z"/>
        <path class="cls-1" d="M15.57,17.6c-1.16,0-2.1-.93-2.09-2.08.01-1.13.94-2.06,2.07-2.06,1.15,0,2.08.93,2.08,2.09,0,1.14-.91,2.05-2.06,2.05Z"/>
      </g>
    </g>
  </g>
</svg>