<svg xmlns="http://www.w3.org/2000/svg" xmlns:xlink="http://www.w3.org/1999/xlink" width="1920" height="1080" viewBox="0 0 1920 1080">
  <defs>
    <clipPath id="clip-path">
      <rect id="Card_Background" data-name="Card Background" width="1920" height="1080" transform="translate(-2500 12064.278)"/>
    </clipPath>
  </defs>
  <g id="End_Main_Page_-_BC" data-name="End Main Page - BC" transform="translate(2500 -12064.278)">
    <rect id="Card_Background-2" data-name="Card Background" width="1920" height="1080" transform="translate(-2500 12064.278)"/>
    <g id="Mask_Group_1" data-name="Mask Group 1" clip-path="url(#clip-path)">
      <g id="Group_1031" data-name="Group 1031" transform="translate(-2546.189 12205.773) rotate(34)">
        <g id="Group_1019" data-name="Group 1019" transform="translate(0 0)">
          <path id="Path_1299" data-name="Path 1299" d="M1031.2,488.983c-16.918-45.138-52.171-80.206-91.047-107.325-43.566-30.4-93.213-52.486-144.686-65.546-97.955-24.839-204.785-17.315-297.7-61.066-44.255-20.843-81.42-53.137-113.34-89.8C314.918,85.432,266.359-22.95,138.393,4.286,78.168,17.1,26.534,64.355,8.476,123.179c-22.959,74.8,6.288,154.083,22.076,230.683,12.686,61.53,16.979,125.829,43.332,182.865,33.564,72.633,98.3,123.317,165.047,164.071,65.134,39.765,125.79,91.93,203.526,104.019,28.165,4.385,56.754,5.007,85.2,4.187,29.233-.843,58.458-2.706,87.6-5.1,56.841-4.684,113.827-11.681,169.664-23.506,49.741-10.533,99.21-26.172,142.73-53.006,40.695-25.091,74.92-60.612,95.055-104.256,19.362-41.962,24.926-90.28,8.487-134.147" fill="#fca311"/>
        </g>
      </g>
    </g>
  </g>
</svg>
