<svg id="Group_984" data-name="Group 984" xmlns="http://www.w3.org/2000/svg" xmlns:xlink="http://www.w3.org/1999/xlink" width="54" height="54" viewBox="0 0 54 54">
  <defs>
    <filter id="Ellipse_10" x="0" y="0" width="54" height="54" filterUnits="userSpaceOnUse">
      <feOffset input="SourceAlpha"/>
      <feGaussianBlur stdDeviation="5" result="blur"/>
      <feFlood flood-opacity="0.161" result="color"/>
      <feComposite operator="out" in="SourceGraphic" in2="blur"/>
      <feComposite operator="in" in="color"/>
      <feComposite operator="in" in2="SourceGraphic"/>
    </filter>
  </defs>
  <g data-type="innerShadowGroup">
    <circle id="Ellipse_10-2" data-name="Ellipse 10" cx="27" cy="27" r="27" fill="#fff"/>
    <g transform="matrix(1, 0, 0, 1, 0, 0)" filter="url(#Ellipse_10)">
      <circle id="Ellipse_10-3" data-name="Ellipse 10" cx="27" cy="27" r="27" fill="#fff"/>
    </g>
  </g>
  <g id="Component_13_1" data-name="Component 13 – 1" transform="translate(10.347 10.787)">
    <path id="Path_3" data-name="Path 3" d="M16.213,2.882a49.713,49.713,0,0,1,6.485.18,8.355,8.355,0,0,1,3.062.54,6.327,6.327,0,0,1,3.062,3.062,8.355,8.355,0,0,1,.54,3.062c0,1.621.18,2.162.18,6.485a49.712,49.712,0,0,1-.18,6.485,8.355,8.355,0,0,1-.54,3.062,6.327,6.327,0,0,1-3.062,3.062,8.355,8.355,0,0,1-3.062.54c-1.621,0-2.162.18-6.485.18a49.712,49.712,0,0,1-6.485-.18,8.355,8.355,0,0,1-3.062-.54A6.327,6.327,0,0,1,3.6,25.761a8.355,8.355,0,0,1-.54-3.062c0-1.621-.18-2.162-.18-6.485a49.713,49.713,0,0,1,.18-6.485A8.355,8.355,0,0,1,3.6,6.665a6.47,6.47,0,0,1,1.261-1.8A3.046,3.046,0,0,1,6.665,3.6a8.355,8.355,0,0,1,3.062-.54,49.713,49.713,0,0,1,6.485-.18m0-2.882A53.228,53.228,0,0,0,9.548.18,11.121,11.121,0,0,0,5.584.9,7.052,7.052,0,0,0,2.7,2.7,7.052,7.052,0,0,0,.9,5.584,8.208,8.208,0,0,0,.18,9.548,53.228,53.228,0,0,0,0,16.213a53.228,53.228,0,0,0,.18,6.665A11.121,11.121,0,0,0,.9,26.842a7.052,7.052,0,0,0,1.8,2.882,7.052,7.052,0,0,0,2.882,1.8,11.121,11.121,0,0,0,3.963.721,53.227,53.227,0,0,0,6.665.18,53.228,53.228,0,0,0,6.665-.18,11.121,11.121,0,0,0,3.963-.721,7.558,7.558,0,0,0,4.684-4.684,11.121,11.121,0,0,0,.721-3.963c0-1.8.18-2.342.18-6.665a53.227,53.227,0,0,0-.18-6.665,11.122,11.122,0,0,0-.721-3.963,7.052,7.052,0,0,0-1.8-2.882A7.052,7.052,0,0,0,26.842.9,11.121,11.121,0,0,0,22.878.18,53.228,53.228,0,0,0,16.213,0m0,7.926a8.153,8.153,0,0,0-8.287,8.287,8.287,8.287,0,1,0,8.287-8.287m0,13.691a5.308,5.308,0,0,1-5.4-5.4,5.308,5.308,0,0,1,5.4-5.4,5.308,5.308,0,0,1,5.4,5.4,5.308,5.308,0,0,1-5.4,5.4M24.86,5.584a1.982,1.982,0,1,0,1.982,1.982A2,2,0,0,0,24.86,5.584" fill-rule="evenodd"/>
  </g>
</svg>
