<svg id="Group_987" data-name="Group 987" xmlns="http://www.w3.org/2000/svg" xmlns:xlink="http://www.w3.org/1999/xlink" width="86.789" height="41.995" viewBox="0 0 86.789 41.995">
  <defs>
    <clipPath id="clip-path">
      <rect id="Rectangle_67" data-name="Rectangle 67" width="86.789" height="41.995" fill="none"/>
    </clipPath>
  </defs>
  <g id="Group_58" data-name="Group 58" clip-path="url(#clip-path)">
    <path id="Path_208" data-name="Path 208" d="M264.431.013c-7.752-.226-12.246,2.427-16.493,5.549-9.6,7.058-18.353,22.57-29.372,22.765,10.461,2.223,18.153-7.9,25.838-14.208,5.83-4.788,10.323-7.561,16.679-7.5a16.4,16.4,0,0,1,16.3,15.286q.051-.657.052-1.328c0-9.338-7.669-16.309-17.007-16.311,9.085-1.119,19.278,5.275,19.3,17.2.019,10.025-7.383,17.594-17.408,17.594a18.091,18.091,0,0,1-12.683-5.167,16.44,16.44,0,0,1-1.318-1.432A19.838,19.838,0,0,0,265.284,42c10.963,0,19.542-8.891,19.85-19.85C285.513,8.663,276.15.354,264.431.013" transform="translate(-198.356 0)" fill="#fca311"/>
    <path id="Path_209" data-name="Path 209" d="M20.714,41.982c7.752.226,12.246-2.427,16.493-5.549,9.6-7.058,18.353-22.57,29.372-22.765-10.461-2.223-18.153,7.9-25.838,14.208-5.83,4.788-10.323,7.561-16.679,7.5a16.4,16.4,0,0,1-16.3-15.286q-.051.657-.052,1.328c0,9.338,7.669,16.309,17.007,16.311-9.085,1.119-19.278-5.275-19.3-17.2C5.395,10.5,12.8,2.934,22.821,2.934A18.091,18.091,0,0,1,35.5,8.1a16.439,16.439,0,0,1,1.318,1.432A19.838,19.838,0,0,0,19.862,0C8.9,0,.32,8.891.012,19.85-.367,33.332,9,41.641,20.714,41.982" transform="translate(-0.001)" fill="#14213d"/>
  </g>
</svg>
