<svg id="Name_Logo" data-name="Name Logo" xmlns="http://www.w3.org/2000/svg" xmlns:xlink="http://www.w3.org/1999/xlink" width="183.774" height="38.374" viewBox="0 0 183.774 38.374">
  <defs>
    <clipPath id="clip-path">
      <rect id="Rectangle_68" data-name="Rectangle 68" width="183.774" height="38.374" fill="none"/>
    </clipPath>
  </defs>
  <g id="Group_60" data-name="Group 60" clip-path="url(#clip-path)">
    <path id="Path_210" data-name="Path 210" d="M5.022,1.059A12.767,12.767,0,0,1,9.927,0a7.089,7.089,0,0,1,4.041,1.452,10.489,10.489,0,0,1,2.55,3.06A35.244,35.244,0,0,1,18.912,10.2L23.7,23.778a37.693,37.693,0,0,0,3.355,7.239,22.168,22.168,0,0,0,3.119,4.041,8.389,8.389,0,0,0,2.943,1.9,7.846,7.846,0,0,0,2.531.549,9.193,9.193,0,0,0,1.785-.157l.039.392a11.632,11.632,0,0,1-3.688.628,7.878,7.878,0,0,1-3.61-.922,12.565,12.565,0,0,1-3.374-2.57q-3.375-3.413-5.729-10.4l-1.53-4.473H8.789L6.082,27a2.424,2.424,0,0,0-.2.942,1.663,1.663,0,0,0,.412,1,1.514,1.514,0,0,0,1.275.53h.314v.392H0v-.392H.353A3.42,3.42,0,0,0,2.2,28.9a4.269,4.269,0,0,0,1.491-1.707L13.419,3.884A6.256,6.256,0,0,0,8.161.863a8.815,8.815,0,0,0-3.021.589Zm4.2,17.774h9.927l-3.1-9.142A35.258,35.258,0,0,0,14.4,5.572Z" fill="#fca311"/>
    <path id="Path_211" data-name="Path 211" d="M156.764,62.043a3.086,3.086,0,0,1-1.126.769,6.622,6.622,0,0,1,4.092,1.909,5.3,5.3,0,0,1,1.4,3.722,5.186,5.186,0,0,1-2.142,4.312,8.985,8.985,0,0,1-5.63,1.648,8.064,8.064,0,0,1-5.466-1.717,6.074,6.074,0,0,1-1.978-4.848v-.33l.3-.055q.549,4.093,3.406,5.3V56.77a1.807,1.807,0,0,0-.563-1.222,1.718,1.718,0,0,0-1.222-.481h-.33v-.275h4.614a6.657,6.657,0,0,1,4.134,1.181,3.7,3.7,0,0,1,1.552,3.09,4.089,4.089,0,0,1-1.044,2.98m-5.356-6.372V73.249a14.013,14.013,0,0,0,2.087.137,5.677,5.677,0,0,0,4.106-1.415,5.3,5.3,0,0,0,1.016-5.809,3.956,3.956,0,0,0-1.14-1.456,8.191,8.191,0,0,0-5.109-1.4h-.027l-.027-.247h.027a3.43,3.43,0,0,0,2.4-.92,3.679,3.679,0,0,0,1-2.843q0-3.625-3.983-3.626Z" transform="translate(-117.598 -44.159)" fill="#fca311"/>
    <path id="Path_212" data-name="Path 212" d="M244.293,59.6a2.144,2.144,0,0,1-.11-.618q0-.261.028-.591t.123-.906a4.146,4.146,0,0,1,.371-1.14,8.573,8.573,0,0,1,.632-1.085,4.33,4.33,0,0,1,.92-.961,6.821,6.821,0,0,1,1.25-.769,7.988,7.988,0,0,1,3.543-.714A9.032,9.032,0,0,1,257.9,55.6a9.925,9.925,0,0,1,2.651,7.127,9.366,9.366,0,0,1-3.131,7.21,11.292,11.292,0,0,1-7.937,2.87,11.476,11.476,0,0,1-7.979-2.856,9.514,9.514,0,0,1-3.172-7.416,9.914,9.914,0,0,1,1.373-5.219,9.421,9.421,0,0,1,3.928-3.571l.165.247a6.541,6.541,0,0,0-2.568,3.406,14.128,14.128,0,0,0-.783,4.724,9.986,9.986,0,0,0,2.527,7.251,9.322,9.322,0,0,0,12.95-.014,9.567,9.567,0,0,0,2.513-6.908,9.877,9.877,0,0,0-1.991-6.262,6.71,6.71,0,0,0-5.617-2.554,7.258,7.258,0,0,0-2.939.577,5.348,5.348,0,0,0-3.158,3.351,3.97,3.97,0,0,0-.22,1.181,4.581,4.581,0,0,0,.055.8Z" transform="translate(-192.081 -42.562)" fill="#fca311"/>
    <path id="Path_213" data-name="Path 213" d="M374.358,59.6a2.143,2.143,0,0,1-.11-.618q0-.261.028-.591t.123-.906a4.147,4.147,0,0,1,.371-1.14,8.571,8.571,0,0,1,.632-1.085,4.331,4.331,0,0,1,.92-.961,6.823,6.823,0,0,1,1.25-.769,7.988,7.988,0,0,1,3.543-.714,9.032,9.032,0,0,1,6.853,2.788,9.925,9.925,0,0,1,2.651,7.127,9.366,9.366,0,0,1-3.131,7.21,11.292,11.292,0,0,1-7.937,2.87,11.476,11.476,0,0,1-7.979-2.856,9.514,9.514,0,0,1-3.172-7.416,9.914,9.914,0,0,1,1.373-5.219,9.422,9.422,0,0,1,3.928-3.571l.165.247A6.541,6.541,0,0,0,371.3,57.4a14.127,14.127,0,0,0-.783,4.724,9.986,9.986,0,0,0,2.527,7.251,9.322,9.322,0,0,0,12.95-.014,9.567,9.567,0,0,0,2.513-6.908,9.877,9.877,0,0,0-1.991-6.262,6.71,6.71,0,0,0-5.617-2.554,7.258,7.258,0,0,0-2.939.577,5.348,5.348,0,0,0-3.158,3.351,3.97,3.97,0,0,0-.22,1.181,4.579,4.579,0,0,0,.055.8Z" transform="translate(-296.905 -42.562)" fill="#fca311"/>
    <path id="Path_214" data-name="Path 214" d="M485.3,58.091a3.063,3.063,0,0,1-.385-3.749,3.612,3.612,0,0,1,1.511-1.236,5.325,5.325,0,0,1,2.362-.508H500.05a12,12,0,0,0,1.881-.165,7.63,7.63,0,0,0,1.442-.33v3.461l-.275-.028v-.467a1.67,1.67,0,0,0-1.566-1.648h-5.219V69.873a1.667,1.667,0,0,0,.879,1.483,1.836,1.836,0,0,0,.879.22h.357v.275h-6.015v-.275h.357a1.762,1.762,0,0,0,1.758-1.676V53.421h-5.74a3.626,3.626,0,0,0-3.186,1.4,2.5,2.5,0,0,0-.522,1.5,3.565,3.565,0,0,0,.439,1.634Z" transform="translate(-390.434 -41.992)" fill="#fca311"/>
    <path id="Path_215" data-name="Path 215" d="M576.846,46.9a8.938,8.938,0,0,1,3.433-.742,4.962,4.962,0,0,1,2.829,1.016,7.344,7.344,0,0,1,1.785,2.142A24.665,24.665,0,0,1,586.57,53.3l3.351,9.5a26.39,26.39,0,0,0,2.348,5.068,15.517,15.517,0,0,0,2.184,2.829,5.875,5.875,0,0,0,2.06,1.332,5.49,5.49,0,0,0,1.771.384,6.451,6.451,0,0,0,1.25-.11l.027.275a8.142,8.142,0,0,1-2.582.44,5.513,5.513,0,0,1-2.527-.646,8.8,8.8,0,0,1-2.362-1.8,18.85,18.85,0,0,1-4.01-7.278l-1.071-3.131h-7.526l-1.9,4.889a1.7,1.7,0,0,0-.137.659,1.164,1.164,0,0,0,.289.7,1.059,1.059,0,0,0,.893.371h.22v.275h-5.521v-.275h.247a2.392,2.392,0,0,0,1.291-.4,2.984,2.984,0,0,0,1.044-1.195l6.812-16.315a4.38,4.38,0,0,0-3.681-2.115,6.166,6.166,0,0,0-2.115.412Zm2.939,12.442h6.948l-2.17-6.4a24.689,24.689,0,0,0-1.154-2.884Z" transform="translate(-462.067 -37.2)" fill="#14213d"/>
    <path id="Path_216" data-name="Path 216" d="M686.253,74.54q5.85,2.032,8.775,2.76a21.331,21.331,0,0,0,5.026.728,13.137,13.137,0,0,0,4.628-.961l.137.219a11.83,11.83,0,0,1-6.757,2.307,18.49,18.49,0,0,1-7.937-2.17q-3.434-1.7-4.257-2.06a12.951,12.951,0,0,0-4.834-1.346v-.275h.357a1.69,1.69,0,0,0,1.222-.494,1.75,1.75,0,0,0,.536-1.236V56.8a1.771,1.771,0,0,0-.536-1.222,1.668,1.668,0,0,0-1.222-.508h-.357v-.275h6.015v.275h-.357a1.712,1.712,0,0,0-1.236.508,1.645,1.645,0,0,0-.522,1.222V72.645a3.9,3.9,0,0,0,.055.755,1.343,1.343,0,0,0,.357.591,2.253,2.253,0,0,0,.906.549" transform="translate(-548.869 -44.159)" fill="#14213d"/>
    <path id="Path_217" data-name="Path 217" d="M738.143,71.691a1.666,1.666,0,0,0,1.222-.508,1.767,1.767,0,0,0,.536-1.222V54.579a1.418,1.418,0,0,0-.522-1.112,1.824,1.824,0,0,0-1.236-.453h-.329l-.028-.275h5.576a11.5,11.5,0,0,0,1.854-.165,7.6,7.6,0,0,0,1.415-.33v3.461h-.275v-.494a1.621,1.621,0,0,0-1.538-1.62h-3.131v8.487H746.9a1.373,1.373,0,0,0,.934-.412,1.3,1.3,0,0,0,.384-.961V60.32h.275v4.34h-.275v-.412a1.3,1.3,0,0,0-.37-.934,1.325,1.325,0,0,0-.92-.412h-5.246v8.212h5.85a4.684,4.684,0,0,0,3.1-.906,6.714,6.714,0,0,0,1.785-2.691h.275l-1.593,4.449H737.786v-.275Z" transform="translate(-594.607 -42.106)" fill="#14213d"/>
    <path id="Path_218" data-name="Path 218" d="M826.193,62.043a3.085,3.085,0,0,1-1.126.769,6.623,6.623,0,0,1,4.093,1.909,5.3,5.3,0,0,1,1.4,3.722,5.186,5.186,0,0,1-2.142,4.312,8.985,8.985,0,0,1-5.63,1.648,8.064,8.064,0,0,1-5.466-1.717,6.074,6.074,0,0,1-1.978-4.848v-.33l.3-.055q.549,4.093,3.406,5.3V56.77a1.808,1.808,0,0,0-.563-1.222,1.719,1.719,0,0,0-1.222-.481h-.33v-.275h4.614a6.657,6.657,0,0,1,4.134,1.181,3.7,3.7,0,0,1,1.552,3.09,4.09,4.09,0,0,1-1.043,2.98m-5.356-6.372V73.249a14.014,14.014,0,0,0,2.088.137,5.678,5.678,0,0,0,4.106-1.415,5.3,5.3,0,0,0,1.016-5.809,3.958,3.958,0,0,0-1.14-1.456,8.192,8.192,0,0,0-5.109-1.4h-.027l-.028-.247h.028a3.429,3.429,0,0,0,2.4-.92,3.678,3.678,0,0,0,1-2.843q0-3.625-3.983-3.626Z" transform="translate(-657.114 -44.159)" fill="#14213d"/>
    <path id="Path_219" data-name="Path 219" d="M902.525,71.463h.357v.275h-6.015v-.275h.357a1.712,1.712,0,0,0,1.236-.508,1.645,1.645,0,0,0,.522-1.222V53.253l-2.939.165q-2.774.165-2.774,2a1.8,1.8,0,0,0,.481,1.264,2.142,2.142,0,0,0,1.524.577v.165a3.666,3.666,0,0,1-.769.082,2,2,0,0,1-1.813-.961,2.174,2.174,0,0,1-.357-1.208q0-2.334,3.543-2.719.027,0,2.733-.179a36.216,36.216,0,0,0,4.271-.481l.055.275a2.63,2.63,0,0,0-1.675.8,2.573,2.573,0,0,0-.495,1.675V69.732a1.766,1.766,0,0,0,.536,1.222,1.665,1.665,0,0,0,1.222.508" transform="translate(-719.163 -41.878)" fill="#14213d"/>
  </g>
</svg>
