<?xml version="1.0" encoding="UTF-8"?>
<svg id="Layer_2" data-name="Layer 2" xmlns="http://www.w3.org/2000/svg" viewBox="0 0 31.11 31.11">
  <defs>
    <style>
      .cls-1 {
        fill: #fca311;
        stroke: #734a08;
        stroke-miterlimit: 10;
        stroke-width: .92px;
      }

      .cls-2 {
        fill: #fff;
      }

      .cls-2, .cls-3 {
        stroke-width: 0px;
      }

      .cls-3 {
        fill: #734a08;
      }
    </style>
  </defs>
  <g id="SDC_Engineer" data-name="SDC Engineer">
    <g id="CarSim">
      <rect id="BC_White" data-name="BC White" class="cls-2" width="31.11" height="31.11" rx="8" ry="8"/>
      <g id="CarSim_Icon" data-name="CarSim Icon">
        <circle class="cls-1" cx="15.56" cy="15.56" r="11.63"/>
        <g>
          <path class="cls-3" d="M22.17,18.38c-.02-1.31-.03-2.61-.05-3.92-.05-.15-.19-.51-.57-.78-.23-.16-.45-.23-.59-.25-.4-.76-.81-1.52-1.21-2.27-.07-.11-.18-.25-.36-.39-.24-.18-.48-.25-.62-.28-2.15-.02-4.3-.04-6.45-.05-.1.04-.23.09-.36.18-.15.1-.26.2-.34.28-.45.79-.89,1.58-1.34,2.37-.15.06-.36.15-.57.31-.37.29-.54.64-.62.82-.02,1.31-.03,2.61-.05,3.92.13.02.25.04.38.05v1.78c.05.06.14.15.26.23.34.22.8.26,1.19.08.1-.04.27-.15.44-.36.02-.59.04-1.17.05-1.75,2.81,0,5.62-.02,8.43-.03,0,.55-.02,1.1-.02,1.65.04.12.13.31.31.46.37.31.97.32,1.34.02.18-.14.27-.31.31-.41,0-.57-.02-1.14-.02-1.7.15,0,.31.02.46.02ZM12.25,11.62s.07-.16.19-.25c.07-.04.14-.07.18-.08,1.96.01,3.91.02,5.87.04,0,0,.18.12.19.12.01,0,.27.18.29.19.3.57.6,1.14.9,1.7-2.86-.02-5.73-.03-8.59-.05.32-.56.64-1.12.97-1.68ZM11.06,16.34c-.55,0-.99-.44-.99-.99s.44-.99.99-.99.99.44.99.99-.44.99-.99.99ZM20.04,16.34c-.55,0-.99-.44-.99-.99s.44-.99.99-.99.99.44.99.99-.44.99-.99.99Z"/>
          <path class="cls-3" d="M22.36,13.08c-.42,0-.84.01-1.27.02,0-.09.03-.23.11-.39.1-.19.23-.31.3-.38.28,0,.56,0,.84,0,0,.25,0,.49,0,.74Z"/>
          <path class="cls-3" d="M10.02,13.09c-.42,0-.84-.01-1.27-.02,0-.25,0-.49,0-.74.28,0,.56,0,.84,0,.08.06.21.18.3.38.08.15.1.3.11.39Z"/>
        </g>
      </g>
    </g>
  </g>
</svg>