<?xml version="1.0" encoding="UTF-8"?>
<svg id="Layer_2" data-name="Layer 2" xmlns="http://www.w3.org/2000/svg" viewBox="0 0 31.11 31.11">
  <defs>
    <style>
      .cls-1 {
        fill: #fca311;
      }

      .cls-1, .cls-2 {
        stroke-width: 0px;
      }

      .cls-2 {
        fill: #fff;
      }
    </style>
  </defs>
  <g id="AI_Engineer" data-name="AI Engineer">
    <g id="PyTorch">
      <rect id="BC_White" data-name="BC White" class="cls-2" width="31.11" height="31.11" rx="8" ry="8"/>
      <g id="PyTorch-2" data-name="PyTorch">
        <path class="cls-1" d="M15.56,4.27s0,.07,0,.1c0,1.03,0,2.06,0,3.09,0,.06-.02.1-.06.14-1.67,1.66-3.33,3.32-4.99,4.99-1.01,1.02-1.66,2.23-1.9,3.65-.39,2.39.28,4.46,1.96,6.19.85.88,1.88,1.48,3.06,1.81.81.23,1.64.3,2.48.23,2.61-.23,4.67-1.88,5.67-3.84.4-.78.64-1.61.71-2.49.17-2.14-.5-3.99-1.98-5.54-.04-.05-.05-.07,0-.12.52-.52,1.05-1.04,1.57-1.56.05-.05.07-.05.11,0,1.19,1.23,2.01,2.67,2.42,4.34.13.51.21,1.03.25,1.56,0,.02,0,.05.01.07,0,0,0,0,0,0,0,0,0,0,.01,0v1.23s0,0-.01,0c0,0,0,0,0,0,0,.02-.01.05-.01.07-.04.59-.14,1.17-.29,1.74-.68,2.43-2.1,4.32-4.25,5.62-1.82,1.11-3.82,1.49-5.93,1.23-.8-.1-1.58-.3-2.33-.61-1.44-.59-2.66-1.48-3.66-2.68-1.35-1.62-2.07-3.49-2.18-5.59-.04-.85.04-1.69.23-2.52.39-1.68,1.17-3.16,2.38-4.38,1.72-1.75,3.47-3.48,5.21-5.22.48-.48.96-.95,1.43-1.43.02-.02.05-.02.03-.06.02,0,.03,0,.05,0Z"/>
        <path class="cls-1" d="M17.63,9.25c0-.68.55-1.22,1.22-1.22.68,0,1.22.55,1.22,1.23,0,.67-.55,1.22-1.22,1.22-.67,0-1.22-.55-1.22-1.22Z"/>
      </g>
    </g>
  </g>
</svg>