<?xml version="1.0" encoding="UTF-8"?>
<svg id="Layer_2" data-name="Layer 2" xmlns="http://www.w3.org/2000/svg" viewBox="0 0 31.11 31.11">
  <defs>
    <style>
      .cls-1 {
        fill: #fca311;
      }

      .cls-1, .cls-2, .cls-3 {
        stroke-width: 0px;
      }

      .cls-2 {
        fill: #fff;
      }

      .cls-3 {
        fill: #734a08;
      }
    </style>
  </defs>
  <g id="AI_Engineer" data-name="AI Engineer">
    <g id="SciPy">
      <rect id="BC_White" data-name="BC White" class="cls-2" width="31.11" height="31.11" rx="8" ry="8"/>
      <g id="SciPy_Logo" data-name="SciPy Logo">
        <path class="cls-1" d="M5.15,20.86c-.53-.92-.9-1.9-1.1-2.93-.78-4.14.33-7.69,3.37-10.61,1.58-1.52,3.51-2.41,5.66-2.79,5.04-.89,10.09,1.81,12.15,6.49.05.1.05.31.19.27.19-.05.43-.09.53-.32.11-.26.21-.52.29-.79.07-.22.2-.1.32-.08.16.03.13.12.08.23-.08.21-.15.42-.23.62-.05.11-.01.16.09.2.22.07.43.16.65.22.15.04.17.11.11.24-.05.1-.05.26-.25.17-.2-.09-.43-.13-.62-.23-.32-.17-.55.03-.8.15-.11.05-.04.14-.01.21.28.83.47,1.68.55,2.55.23,2.49-.28,4.82-1.61,6.95-1.72,2.75-4.17,4.51-7.37,5.11-3.9.73-7.3-.34-10.15-3.13-.42-.41-.8-.85-1.12-1.34,1.17-.87,2.34-1.75,3.51-2.62.52-.39.97-.32,1.37.21.55.73,1.08,1.48,1.65,2.2,1.02,1.28,2.37,1.81,3.98,1.55,1.94-.32,3.34-1.91,3.43-3.88.06-1.43-.46-2.61-1.7-3.41-.74-.48-1.55-.78-2.4-.98-.91-.21-1.83-.4-2.69-.78-.32-.14-.59-.34-.79-.62-.63-.86-.72-1.77-.28-2.73,1.03-2.23,3.72-2.38,5.04-.68.27.34.53.69.8,1.04.49.62.91,1.29,1.48,1.85.73.72,1.58,1.05,2.6.68.32-.12.62-.27.93-.42.17-.08.28-.03.37.11.04.06.07.12.11.17.11.13.33.17.45.06.5-.47,1-.94,1.49-1.42.11-.11.13-.25.06-.41-.09-.2-.18-.4-.26-.61-.08-.2-.22-.27-.42-.26-.65.06-1.31.12-1.96.18-.23.02-.34.2-.29.43q.1.4-.29.57s-.1.04-.14.06c-.86.36-1.44.2-2.01-.55-.59-.79-1.17-1.58-1.78-2.35-1.64-2.09-4.64-2.3-6.55-.46-.76.73-1.18,1.63-1.3,2.69-.14,1.25.18,2.33,1.08,3.21.59.58,1.33.88,2.1,1.13.89.29,1.82.44,2.72.71.57.17,1.13.39,1.53.85.68.79.85,1.72.47,2.69-.39,1.01-1.16,1.59-2.23,1.71-1,.11-1.83-.26-2.44-1.06-.54-.71-1.07-1.43-1.61-2.14-.85-1.13-2.2-1.32-3.33-.47-1.15.85-2.3,1.71-3.45,2.56Z"/>
        <path class="cls-3" d="M5.15,20.86c1.15-.85,2.3-1.71,3.45-2.56,1.13-.84,2.48-.65,3.33.47.54.71,1.07,1.43,1.61,2.14.61.8,1.45,1.17,2.44,1.06,1.07-.12,1.84-.7,2.23-1.71.37-.97.21-1.9-.47-2.69-.4-.46-.96-.67-1.53-.85-.89-.27-1.82-.42-2.72-.71-.77-.25-1.52-.55-2.1-1.13-.9-.89-1.22-1.96-1.08-3.21.12-1.06.54-1.96,1.3-2.69,1.9-1.84,4.9-1.63,6.55.46.61.77,1.19,1.56,1.78,2.35.56.75,1.14.91,2.01.55.05-.02.1-.04.14-.06q.39-.17.29-.57c-.06-.23.05-.4.29-.43.65-.07,1.31-.13,1.96-.18.2-.02.34.06.42.26.08.21.17.41.26.61.07.15.05.3-.06.41-.49.48-.99.95-1.49,1.42-.12.12-.35.08-.45-.06-.04-.05-.07-.11-.11-.17-.09-.15-.21-.19-.37-.11-.31.15-.61.3-.93.42-1.02.37-1.87.04-2.6-.68-.57-.56-.99-1.23-1.48-1.85-.27-.34-.53-.69-.8-1.04-1.32-1.7-4.01-1.55-5.04.68-.45.96-.35,1.88.28,2.73.21.28.48.48.79.62.86.39,1.78.57,2.69.78.85.2,1.66.51,2.4.98,1.25.8,1.77,1.97,1.7,3.41-.09,1.96-1.49,3.56-3.43,3.88-1.61.26-2.96-.27-3.98-1.55-.57-.71-1.1-1.46-1.65-2.2-.39-.53-.84-.6-1.37-.21-1.17.87-2.34,1.75-3.51,2.62-.3-.37-.54-.77-.75-1.2Z"/>
      </g>
    </g>
  </g>
</svg>