<svg xmlns="http://www.w3.org/2000/svg" width="455.944" height="477.5" viewBox="0 0 455.944 477.5">
  <path id="Top_Of_My_Picture" data-name="Top Of My Picture" d="M269.2,476.5H269.2c-7.515,0-15.334-.291-23.9-.89a219.9,219.9,0,0,1-34.521-5.159c-5.629-1.313-11.23-2.869-16.647-4.624-5.47-1.772-10.886-3.792-16.1-6a175.032,175.032,0,0,1-16.672-8.169c-5.064-2.807-10.2-5.932-15.694-9.555-10.2-6.726-20.1-14.162-29.671-21.353l-.286-.215c-1.325-1-2.7-2.025-4.041-3.034-6.072-4.551-11.462-8.46-16.478-11.953-5.993-4.173-11.58-7.846-17.082-11.229a144.133,144.133,0,0,1-17.823-13.025,172.377,172.377,0,0,1-16.576-16.209,187.064,187.064,0,0,1-14.742-18.758,184.512,184.512,0,0,1-12.322-20.671,167.165,167.165,0,0,1-9.316-21.949A141.776,141.776,0,0,1,1.6,281.114a116.14,116.14,0,0,1-1.545-22.6,100.644,100.644,0,0,1,.978-11.1,93.04,93.04,0,0,1,2.242-10.867A113.749,113.749,0,0,1,7.622,223.7c1.6-3.971,3.451-8.05,5.67-12.471,4.173-8.315,8.914-16.391,13.5-24.2,17.307-29.481,34.8-59.286,52-88.59,10.978-18.7,22.329-38.034,38.137-54.187a151.021,151.021,0,0,1,15.951-14.1,175.708,175.708,0,0,1,17.8-11.964,209.163,209.163,0,0,1,19.275-9.993C176.387,5.257,183.239,2.5,190.318,0H391.35a165.093,165.093,0,0,1,19.331,10.851,152.724,152.724,0,0,1,17.375,13.214,136.888,136.888,0,0,1,14.92,15.367,120.993,120.993,0,0,1,11.967,17.309V333.947a245.369,245.369,0,0,1-9.743,25.944,215.588,215.588,0,0,1-12.857,24.656c-2.433,4-5.016,7.922-7.677,11.665-2.721,3.828-5.6,7.571-8.553,11.127-3.02,3.635-6.2,7.174-9.461,10.518-3.328,3.417-6.828,6.726-10.4,9.836a263.74,263.74,0,0,1-20.806,16.444v0c-4.121,2.913-8.282,5.638-12.367,8.1s-8.264,4.763-12.385,6.816-8.331,3.933-12.525,5.594c-4.178,1.655-8.48,3.147-12.786,4.436-4.276,1.28-8.707,2.4-13.168,3.34-4.413.927-9.013,1.7-13.672,2.308-4.59.6-9.4,1.046-14.3,1.339C279.443,476.355,274.382,476.5,269.2,476.5Z" transform="translate(0.501 0.5)" fill="#fca311" stroke="rgba(0,0,0,0)" stroke-miterlimit="10" stroke-width="1"/>
</svg>
