<?xml version="1.0" encoding="UTF-8"?>
<svg xmlns="http://www.w3.org/2000/svg" xmlns:xlink="http://www.w3.org/1999/xlink" viewBox="0 0 500 500">
  <defs>
    <style>
      .cls-1, .cls-2, .cls-3, .cls-4, .cls-5, .cls-6, .cls-7, .cls-8, .cls-9, .cls-10, .cls-11, .cls-12, .cls-13, .cls-14, .cls-15, .cls-16, .cls-17, .cls-18, .cls-19, .cls-20, .cls-21, .cls-22, .cls-23, .cls-24, .cls-25 {
        stroke-width: 0px;
      }

      .cls-1, .cls-4, .cls-14 {
        fill: #74471b;
      }

      .cls-1, .cls-22 {
        opacity: .26;
      }

      .cls-26, .cls-25 {
        opacity: .18;
      }

      .cls-2, .cls-8 {
        fill: #473c2c;
      }

      .cls-3, .cls-9, .cls-16, .cls-17, .cls-18, .cls-24, .cls-25 {
        fill: #473f35;
      }

      .cls-3, .cls-27 {
        opacity: .37;
      }

      .cls-4, .cls-18 {
        opacity: .1;
      }

      .cls-5 {
        opacity: .67;
      }

      .cls-5, .cls-19 {
        fill: #e2e2e2;
      }

      .cls-28 {
        opacity: .31;
      }

      .cls-6, .cls-22 {
        fill: #dc903c;
      }

      .cls-7 {
        fill: #ddab62;
      }

      .cls-8, .cls-20, .cls-24 {
        opacity: .11;
      }

      .cls-29 {
        clip-path: url(#clippath-2);
      }

      .cls-30 {
        isolation: isolate;
      }

      .cls-10 {
        fill: #a0845d;
      }

      .cls-31 {
        stroke: #473f35;
        stroke-miterlimit: 10;
      }

      .cls-31, .cls-11 {
        fill: none;
      }

      .cls-32 {
        opacity: .35;
      }

      .cls-33 {
        opacity: .22;
      }

      .cls-34 {
        clip-path: url(#clippath-1);
      }

      .cls-35 {
        opacity: .44;
      }

      .cls-36 {
        clip-path: url(#clippath-4);
      }

      .cls-37 {
        opacity: .54;
      }

      .cls-38 {
        opacity: .48;
      }

      .cls-12 {
        fill: #a07e4d;
      }

      .cls-13 {
        mix-blend-mode: overlay;
        opacity: .2;
      }

      .cls-13, .cls-15, .cls-20 {
        fill: #fff;
      }

      .cls-39, .cls-16 {
        opacity: .23;
      }

      .cls-40 {
        opacity: .4;
      }

      .cls-17 {
        opacity: .38;
      }

      .cls-41 {
        clip-path: url(#clippath);
      }

      .cls-42 {
        opacity: .41;
      }

      .cls-43 {
        clip-path: url(#clippath-3);
      }

      .cls-21 {
        fill: #a08b6d;
      }

      .cls-44 {
        clip-path: url(#clippath-5);
      }

      .cls-23 {
        fill: #ecb751;
      }

      .cls-45 {
        opacity: .27;
      }
    </style>
    <clipPath id="clippath">
      <path class="cls-11" d="M272.75,359.81s-13.05,26.17-4.1,50.82l107.07-34.62s-9.03-16.85-.6-37.64l-102.38,21.43Z"/>
    </clipPath>
    <clipPath id="clippath-1">
      <path class="cls-11" d="M380.63,302.55l-134.74,21.46s-7.82,24.78,0,38.43l138.53-23.47s-3.29-17.45-3.79-36.41Z"/>
    </clipPath>
    <clipPath id="clippath-2">
      <path class="cls-11" d="M364.95,242.06l-104.59,22.06s-15.97,29.94,4.49,48.41l101.3-27.95-1.21-42.52Z"/>
    </clipPath>
    <clipPath id="clippath-3">
      <path class="cls-11" d="M360.67,200.25l-119.27,15.47s-13.97,26.45,3.49,37.43l116.77-18.96s-1-35.43-1-33.93Z"/>
    </clipPath>
    <clipPath id="clippath-4">
      <polygon class="cls-11" points="337.59 131.09 291.68 143.69 291.68 167.65 291.68 170.64 336.95 156.3 337.59 131.09"/>
    </clipPath>
    <clipPath id="clippath-5">
      <path class="cls-11" d="M256.13,118.37s-8.09,11.28-1.72,22.81l81.42-13.49,1.23-23.54-80.93,14.22Z"/>
    </clipPath>
  </defs>
  <g class="cls-30">
    <g id="Layer_2" data-name="Layer 2">
      <g id="BACKGROUND">
        <rect class="cls-15" width="500" height="500"/>
      </g>
      <g id="OBJECTS">
        <g>
          <ellipse class="cls-5" cx="248.18" cy="390.01" rx="215.53" ry="36.05"/>
          <g class="cls-32">
            <path class="cls-19" d="M248.18,353.96c-116.21,0-210.93,15.38-215.36,34.64-10.98-20.23-4.38-48.86,14.42-61.58,4.79-3.24,10.21-5.55,14.44-9.55,13.05-12.32,9.61-33.93,12.94-51.89,3.57-19.25,16.63-36.34,33.89-44.37,18.43-8.58,41.01-7.41,56.91-20.34,14.14-11.5,19.1-30.95,27.26-47.55,18.67-38.02,57.67-63.49,98.6-68.1,40.92-4.62,82.87,10.51,114.59,37.69,16.96,14.53,31.57,33,37.75,54.89,9.38,33.22-1.65,68.42-5.44,102.81-.52,4.69-.88,9.56.58,14.04,3.39,10.39,14.91,14.9,22.42,22.63,15.28,15.71,12.03,41.69,7.69,63.54l-5.18,9c-.68-19.81-96.91-35.84-215.52-35.84Z"/>
          </g>
        </g>
        <ellipse class="cls-5" cx="420.43" cy="391.86" rx="36.4" ry="6.33"/>
        <g>
          <polygon class="cls-19" points="97.67 110.96 93.03 97.32 79.27 93.06 93.39 88.19 97.87 73.94 102.51 87.58 116.27 91.85 101.85 97.06 97.67 110.96"/>
          <polygon class="cls-19" points="369.85 158.8 365.21 145.16 351.45 140.89 365.57 136.02 370.05 121.78 374.69 135.42 388.45 139.68 374.03 144.9 369.85 158.8"/>
          <polygon class="cls-15" points="411.7 167.72 409.33 160.77 402.32 158.6 409.51 156.11 411.8 148.85 414.17 155.81 421.18 157.98 413.83 160.64 411.7 167.72"/>
          <polygon class="cls-15" points="92.2 278.59 89.84 271.64 82.83 269.47 90.02 266.98 92.31 259.72 94.67 266.67 101.69 268.85 94.34 271.51 92.2 278.59"/>
          <polygon class="cls-19" points="387.23 184.75 384.87 177.8 377.86 175.63 385.05 173.14 387.34 165.88 389.7 172.84 396.72 175.01 389.37 177.67 387.23 184.75"/>
          <polygon class="cls-19" points="134.93 153.57 132.57 146.62 125.55 144.44 132.75 141.96 135.04 134.7 137.4 141.65 144.41 143.83 137.07 146.49 134.93 153.57"/>
          <path class="cls-19" d="M118.44,121.38c0,1.14-.93,2.07-2.07,2.07s-2.07-.93-2.07-2.07.93-2.07,2.07-2.07,2.07.93,2.07,2.07Z"/>
          <path class="cls-19" d="M438.97,219.42c0,1.14-.93,2.07-2.07,2.07s-2.07-.93-2.07-2.07.93-2.07,2.07-2.07,2.07.93,2.07,2.07Z"/>
          <path class="cls-19" d="M435.32,246.8c0,1.14-.93,2.07-2.07,2.07s-2.07-.93-2.07-2.07.93-2.07,2.07-2.07,2.07.93,2.07,2.07Z"/>
          <path class="cls-19" d="M411.58,242.06c0,1.14-.93,2.07-2.07,2.07s-2.07-.93-2.07-2.07.93-2.07,2.07-2.07,2.07.93,2.07,2.07Z"/>
          <path class="cls-19" d="M84.68,199.22c0,1.14-.93,2.07-2.07,2.07s-2.07-.93-2.07-2.07.93-2.07,2.07-2.07,2.07.93,2.07,2.07Z"/>
          <path class="cls-19" d="M72.28,184.07c0,1.14-.93,2.07-2.07,2.07s-2.07-.93-2.07-2.07.93-2.07,2.07-2.07,2.07.93,2.07,2.07Z"/>
          <path class="cls-19" d="M357.55,107.22c0,1.14-.93,2.07-2.07,2.07s-2.07-.93-2.07-2.07.93-2.07,2.07-2.07,2.07.93,2.07,2.07Z"/>
        </g>
        <g>
          <g>
            <g class="cls-38">
              <path class="cls-12" d="M138.13,273.94c-10.55-15.28-20.34-31.13-28.68-47.73-6.7-13.32-12.44-27.14-16.81-41.4.33-9.84.66-19.68.99-29.52.39-11.7.25-24.83-8-33.12-2.02-2.03-4.87-3.73-7.63-2.96-3.23.9-4.68,4.61-5.33,7.9-4.02,20.37,4.85,40.97,16.77,58.2,1.37,4.5,2.87,8.96,4.51,13.37,6.42,17.31,14.74,33.88,24.15,49.75,5.33,8.98,11.02,17.75,16.95,26.34.54.78,3.36-.42,3.08-.82Z"/>
            </g>
            <g class="cls-38">
              <path class="cls-12" d="M128.39,266.14c-5.04-12.75-9.44-25.78-12.67-39.11-2.6-10.69-4.42-21.6-5.18-32.58,1.88-7.02,3.76-14.04,5.64-21.07,2.23-8.35,4.32-17.82-.23-25.16-1.11-1.8-2.88-3.49-4.99-3.4-2.47.11-4.13,2.54-5.15,4.79-6.29,13.98-3.34,30.27,2.35,44.65.23,3.46.57,6.92,1.01,10.36,1.73,13.52,4.95,26.82,9.08,39.81,2.33,7.35,4.96,14.6,7.8,21.77.26.65,2.48.26,2.35-.08Z"/>
            </g>
            <g class="cls-38">
              <path class="cls-12" d="M166.73,268.2c-13.17-3.81-26.16-8.3-38.69-13.89-10.05-4.49-19.79-9.71-28.94-15.82-4.41-5.78-8.81-11.56-13.22-17.34-5.24-6.87-11.45-14.32-20.04-15.2-2.1-.22-4.53.14-5.75,1.87-1.43,2.02-.52,4.82.64,7.01,7.21,13.53,21.91,21.16,36.77,25.45,2.88,1.93,5.82,3.78,8.82,5.54,11.76,6.9,24.25,12.49,37.05,17.17,7.24,2.65,14.59,5,21.99,7.15.67.19,1.72-1.81,1.37-1.91Z"/>
            </g>
          </g>
          <g>
            <g class="cls-38">
              <path class="cls-12" d="M339.91,296.89c12.29-10.46,24.07-21.55,34.81-33.61,8.62-9.67,16.55-19.98,23.42-30.97l5.81-25c2.3-9.91,5.37-20.9,14.17-26,2.15-1.25,4.93-2.03,7.07-.77,2.51,1.48,2.89,4.92,2.7,7.83-1.2,18-13.28,33.3-27.16,45.08-2.16,3.47-4.42,6.87-6.79,10.21-9.28,13.09-19.99,25.12-31.46,36.33-6.49,6.34-13.24,12.42-20.15,18.3-.63.53-2.72-1.11-2.4-1.38Z"/>
            </g>
            <g class="cls-38">
              <path class="cls-12" d="M349.85,292.54c7.1-9.57,13.72-19.51,19.43-29.98,4.58-8.39,8.57-17.13,11.68-26.18,0-6.32,0-12.63,0-18.95,0-7.51.38-15.93,5.85-21.06,1.34-1.26,3.2-2.28,4.96-1.73,2.05.65,2.9,3.06,3.24,5.18,2.14,13.15-4,26.16-12.02,36.95-.97,2.85-2.04,5.68-3.18,8.47-4.49,10.96-10.19,21.4-16.57,31.37-3.61,5.64-7.45,11.14-11.44,16.52-.36.49-2.14-.34-1.96-.6Z"/>
            </g>
            <g class="cls-38">
              <path class="cls-12" d="M317.2,285.64c11.91-.24,23.83-1.08,35.6-2.96,9.44-1.51,18.8-3.7,27.85-6.77,5-3.86,10-7.72,15-11.58,5.94-4.59,12.83-9.44,20.24-8.25,1.81.29,3.77,1.14,4.4,2.86.74,2.02-.65,4.16-2.11,5.74-9.1,9.73-23.15,12.83-36.59,13.09-2.85.98-5.74,1.86-8.65,2.66-11.42,3.15-23.17,5.03-34.96,6.08-6.67.59-13.37.92-20.07,1.05-.61.01-1.04-1.91-.72-1.91Z"/>
            </g>
          </g>
        </g>
        <g>
          <path class="cls-6" d="M455.96,358.3c0-2.55-.31-5.03-.88-7.4h-.53c-1.02-4.43-14.34-7.93-30.63-7.93s-30.7,3.8-30.7,8.48c0,.14.01.28.04.42-.43,2.08-.68,4.23-.68,6.44,0,12.91,7.73,24.01,18.81,28.95-2.69.73-4.34,1.69-4.34,2.74,0,2.28,7.71,4.13,17.22,4.13s17.22-1.85,17.22-4.13c0-1.05-1.65-2.01-4.34-2.74,11.08-4.94,18.81-16.04,18.81-28.95Z"/>
          <path class="cls-8" d="M455.96,358.3c0-2.55-.31-5.03-.88-7.4h-.53c-.34-1.45-2-2.81-4.66-3.97,1.63,2.48,2.68,5.35,2.93,8.61.65,8.28-4.23,16.96-11.09,21.42-6.91,4.49-15.83,4.77-23.61,2.75-11.4-2.95-21.37-10.97-25.54-21.41h0c0,12.91,7.73,24.02,18.81,28.95-2.69.73-4.34,1.69-4.34,2.74,0,2.28,7.71,4.13,17.22,4.13s17.22-1.85,17.22-4.13c0-1.05-1.65-2.01-4.34-2.74,11.08-4.94,18.81-16.04,18.81-28.95Z"/>
          <ellipse class="cls-14" cx="423.92" cy="351.45" rx="24.85" ry="6.87"/>
          <g>
            <path class="cls-10" d="M424.12,354.79c-4.81-2.95-9.69-6-13.33-10.31s-5.93-10.15-4.64-15.65c.63-2.69,2.08-5.24,2.03-8-.12-5.83-6.42-9.23-9.89-13.92-4.17-5.64-4.16-13.23-3.97-20.24,2.56,7.65,11.33,10.9,17.51,16.09,6.84,5.75,10.73,14.39,12.4,23.17s1.3,17.8.94,26.72l-1.05,2.13Z"/>
            <g class="cls-26">
              <path class="cls-2" d="M416.95,317.26c-4.66-11.83-16.2-18.47-22.67-28.71-.11,6.47.21,13.23,4.01,18.37,3.47,4.68,9.77,8.09,9.89,13.92.06,2.76-1.4,5.31-2.03,8-1.29,5.49.99,11.34,4.64,15.65,2.87,3.38,6.49,5.99,10.25,8.38.75-12.15.33-24.41-4.08-35.61Z"/>
            </g>
            <path class="cls-10" d="M424.09,354.76c-6.29-7.58-7.93-18.73-4.09-27.8,2.65-6.25,7.68-11.66,8.34-18.41.33-3.36-.48-6.72-.57-10.09-.12-4.68,1.19-9.39,3.72-13.34-1.32,13.86,8.54,26.69,8.5,40.61-.03,10.72-15.9,29.02-15.9,29.02Z"/>
            <g class="cls-26">
              <path class="cls-2" d="M431.62,302.44c.28,10.92-1.29,21.16-3.82,31.74-1.36,5.69-1.82,10.67-.92,15.73,7.92-5.29,13.09-14.62,13.12-24.17.03-11.75-6.99-22.72-8.38-34.2-.29,3.62-.09,7.32,0,10.9Z"/>
            </g>
            <g>
              <path class="cls-10" d="M424.01,354.72c.05-8.93.45-18.78,6.57-25.29,5.13-5.47,13.45-7.5,17.65-13.71,3.65-5.41,3.2-12.49,4.71-18.84,1.54-6.47,5.29-12.39,10.47-16.55.58,6.5,1.16,12.99,1.73,19.49.69,7.75,1.35,15.75-1.04,23.16-2.54,7.85-8.35,14.32-15.07,19.12s-14.36,8.1-21.94,11.37l-3.08,1.26Z"/>
              <g class="cls-26">
                <path class="cls-2" d="M463.9,285.85c-2.44,6.51-3.48,13.56-5.66,20.14-3.31,10-8.82,18.25-16,25.92-6.38,6.81-11.38,12.18-13.5,20.83,7.03-3.04,14.06-6.21,20.29-10.65,6.72-4.79,12.53-11.26,15.07-19.12,2.39-7.41,1.73-15.41,1.04-23.16-.41-4.65-.83-9.31-1.24-13.96Z"/>
              </g>
            </g>
          </g>
        </g>
        <path class="cls-19" d="M105.2,361.08l-21.69,7.09s169.33,49.06,177.25,52.22c7.91,3.17,131.35-39.56,131.35-39.56l-34.82-11.08-252.09-8.68"/>
        <g>
          <path class="cls-9" d="M170.47,404.14l-105.48-24.8c-3.04-.71-6.1,1.19-6.82,4.22h0c-.71,3.04,1.19,6.1,4.22,6.82l105.48,24.8,2.6-11.04Z"/>
          <path class="cls-13" d="M58.12,385.89c.4,2.14,2.02,3.97,4.27,4.5l105.48,24.8.78-3.31-110.53-25.98Z"/>
          <rect class="cls-23" x="69.07" y="386.06" width="11.65" height="3.01" transform="translate(-319.52 371.78) rotate(-76.77)"/>
          <rect class="cls-23" x="116.99" y="397.33" width="11.65" height="3.01" transform="translate(-293.53 427.12) rotate(-76.77)"/>
          <rect class="cls-23" x="87.78" y="371.36" width="1.5" height="34.58" transform="translate(-310.06 385.9) rotate(-76.77)"/>
          <polygon class="cls-23" points="167.87 415.18 178.04 413.55 178.9 409.89 170.47 404.14 167.87 415.18"/>
        </g>
        <g>
          <path class="cls-7" d="M380.38,378.33l-8.56-4c-10.98-5.99-3.99-41.92-3.99-41.92l-98.17,28.41-166.32-41.38c-5.49,20.79-1,48.18-1,48.18l153.75,41.98-.05.17,13.47,3.49c114.78-33.44,110.86-34.93,110.86-34.93Z"/>
          <polygon class="cls-7" points="271.83 361.54 382.11 328.6 215.94 293.17 103.34 319.44 271.83 361.54"/>
          <path class="cls-3" d="M105.7,366.17c-.82-3.32-1.32-6.71-1.66-10.11-.35-3.4-.46-6.83-.39-10.26.1-3.43.43-6.85,1.03-10.22.64-3.37,1.59-6.68,2.95-9.82-.41,1.66-.97,3.27-1.24,4.95-.41,1.65-.63,3.33-.9,5-.41,3.36-.71,6.73-.78,10.12-.09,3.39-.01,6.78.14,10.17.08,1.7.2,3.39.35,5.08.11,1.7.31,3.39.5,5.08Z"/>
          <path class="cls-3" d="M260.99,407.89c-.82-3.32-1.32-6.71-1.66-10.11-.35-3.4-.46-6.83-.39-10.26.1-3.43.43-6.85,1.03-10.22.64-3.37,1.59-6.68,2.95-9.82-.41,1.66-.97,3.27-1.24,4.95-.41,1.65-.63,3.33-.9,5-.41,3.36-.71,6.73-.78,10.12-.09,3.39-.01,6.78.14,10.17.08,1.7.2,3.39.35,5.08.11,1.7.31,3.39.5,5.08Z"/>
          <path class="cls-3" d="M112.58,324.88c12,2.96,23.97,6.03,35.93,9.11l35.86,9.38,35.8,9.62,17.88,4.9,17.85,5-17.98-4.5-17.95-4.61-35.86-9.39-35.8-9.62c-11.92-3.25-23.84-6.52-35.73-9.9Z"/>
          <g class="cls-42">
            <path class="cls-15" d="M143.45,375.91l-32.96-9.65,1.88-37.71,32.42,8.57-1.35,38.78ZM111.62,365.91l30.72,8.98,1.32-37.39-30.24-8.01-1.8,36.42Z"/>
            <path class="cls-15" d="M127.59,352.54l-15.35-13.93,16.16-5.27,15.72,13.94-16.54,5.26ZM113.76,339.02l13.87,12.57,14.91-4.75-14.17-12.58-14.6,4.76Z"/>
            <path class="cls-15" d="M126.62,362.53l-15.4-14.15,16.22-5.23,15.78,14.16-16.6,5.21ZM112.75,348.81l13.91,12.77,14.97-4.7-14.22-12.78-14.66,4.72Z"/>
            <path class="cls-15" d="M126.27,370.78l-15.45-14.33,16.28-5.19,15.83,14.35-16.66,5.17ZM112.35,356.88l13.96,12.93,15.02-4.66-14.27-12.95-14.71,4.68Z"/>
          </g>
          <g class="cls-42">
            <path class="cls-15" d="M179.81,386.41l-32.96-9.65,1.88-37.71,32.42,8.57-1.35,38.78ZM147.97,376.41l30.72,8.98,1.32-37.39-30.24-8.01-1.8,36.42Z"/>
            <path class="cls-15" d="M163.95,363.04l-15.35-13.93,16.16-5.27,15.72,13.94-16.54,5.26ZM150.12,349.52l13.87,12.57,14.91-4.75-14.17-12.58-14.6,4.76Z"/>
            <path class="cls-15" d="M162.98,373.03l-15.4-14.15,16.22-5.23,15.78,14.16-16.6,5.21ZM149.1,359.31l13.91,12.77,14.97-4.7-14.22-12.78-14.66,4.72Z"/>
            <path class="cls-15" d="M162.62,381.28l-15.45-14.33,16.28-5.19,15.83,14.35-16.66,5.17ZM148.7,367.39l13.96,12.93,15.02-4.66-14.27-12.95-14.71,4.68Z"/>
          </g>
          <g class="cls-42">
            <path class="cls-15" d="M217.2,396.91l-32.96-9.65,1.88-37.71,32.42,8.57-1.35,38.78ZM185.36,386.91l30.72,8.98,1.32-37.39-30.24-8.01-1.8,36.42Z"/>
            <path class="cls-15" d="M201.34,373.55l-15.35-13.93,16.16-5.27,15.72,13.94-16.54,5.26ZM187.51,360.03l13.87,12.57,14.91-4.75-14.17-12.58-14.6,4.76Z"/>
            <path class="cls-15" d="M200.37,383.54l-15.4-14.15,16.22-5.23,15.78,14.16-16.6,5.21ZM186.49,369.82l13.91,12.77,14.97-4.7-14.22-12.78-14.66,4.72Z"/>
            <path class="cls-15" d="M200.02,391.78l-15.45-14.33,16.28-5.19,15.83,14.35-16.66,5.17ZM186.1,377.89l13.96,12.93,15.02-4.66-14.27-12.95-14.71,4.68Z"/>
          </g>
          <g class="cls-42">
            <path class="cls-15" d="M254.63,406.88l-32.96-9.65,1.88-37.71,32.42,8.57-1.35,38.78ZM222.8,396.88l30.72,8.98,1.32-37.39-30.24-8.01-1.8,36.42Z"/>
            <path class="cls-15" d="M238.77,383.51l-15.35-13.93,16.16-5.27,15.72,13.94-16.54,5.26ZM224.94,369.99l13.87,12.57,14.91-4.75-14.17-12.58-14.6,4.76Z"/>
            <path class="cls-15" d="M237.8,393.5l-15.4-14.15,16.22-5.23,15.78,14.16-16.6,5.21ZM223.93,379.78l13.91,12.77,14.97-4.7-14.22-12.78-14.66,4.72Z"/>
            <path class="cls-15" d="M237.45,401.75l-15.45-14.33,16.28-5.19,15.83,14.35-16.66,5.17ZM223.53,387.85l13.96,12.93,15.02-4.66-14.27-12.95-14.71,4.68Z"/>
          </g>
          <g class="cls-41">
            <path class="cls-15" d="M272.75,359.81s-13.05,26.17-4.1,50.82l107.07-34.62s-6.98-23.61,1.46-44.39l-104.43,28.18Z"/>
            <path class="cls-4" d="M354.44,378.83c-14.77,5.65-29.51,10.14-45.36,11.32-15.7,1.17-31.76-2.72-41.41-15.57-2.35,9.77-3.71,23.12.98,36.05l107.07-34.62s-.53-1.81-1.13-4.87c-6.77,2.41-13.45,5.12-20.15,7.68Z"/>
            <g class="cls-33">
              <rect class="cls-14" x="261.49" y="356.62" width="119" height=".8" transform="translate(-69.52 77.73) rotate(-12.47)"/>
              <rect class="cls-14" x="261.66" y="363.98" width="119" height=".8" transform="translate(-75.75 84.41) rotate(-13.41)"/>
              <rect class="cls-14" x="260.71" y="372.54" width="119" height=".8" transform="translate(-77.75 84.41) rotate(-13.41)"/>
              <rect class="cls-14" x="260.22" y="379.14" width="119" height=".8" transform="translate(-83.94 90.88) rotate(-14.32)"/>
              <rect class="cls-14" x="261.11" y="387.3" width="119" height=".8" transform="translate(-95.44 104.85) rotate(-16.2)"/>
            </g>
          </g>
          <path class="cls-20" d="M266.31,364.66l-163.49-42.58s-2.63,11.04-1.05,17.35l163.49,43.63,4.73-17.87-3.68-.53Z"/>
          <path class="cls-18" d="M102.34,367.61l167.18,45.64s-3.74-15.48-3.74-17.05l-164.01-41.53s-.96,10.11.57,12.94Z"/>
        </g>
        <g>
          <path class="cls-23" d="M133.11,278.59s-2.99,18.46-.5,30.44c0,0,103.8,56.39,111.28,58.39,7.49,2,150.71-25.45,150.71-25.45l-18.96-4.49-.9-33.76,17.37-3.16-120.77-48.41-138.23,26.45Z"/>
          <path class="cls-15" d="M380.63,302.55l-134.74,21.46s-7.82,24.78,0,38.43l138.53-23.47s-3.29-17.45-3.79-36.41Z"/>
          <path class="cls-4" d="M312.49,347.22c-23.3.88-48.78.07-69.36-10.41-1.14,8.12-1.36,18.42,2.76,25.61l138.53-23.47s-.05-.27-.14-.77c-23.7,4.71-47.66,8.12-71.79,9.03Z"/>
          <g class="cls-32">
            <g>
              <polygon class="cls-31" points="144.13 285.2 138.23 282.88 135.3 295.08 137.96 309.5 143.7 312.49 146.95 300.42 144.13 285.2"/>
              <polygon class="cls-9" points="142.35 292.21 139.75 291.09 138.41 296.51 139.61 303.01 142.18 304.26 143.58 298.88 142.35 292.21"/>
              <polygon class="cls-31" points="146.99 314.2 135.17 308.04 135.37 281.51 147.53 286.28 146.99 314.2"/>
            </g>
            <g>
              <polygon class="cls-31" points="180.53 299.5 172.49 296.34 168.05 310.08 171.15 326.79 178.89 330.82 183.84 317.3 180.53 299.5"/>
              <polygon class="cls-9" points="177.81 307.42 174.27 305.91 172.23 311.99 173.63 319.55 177.11 321.25 179.25 315.2 177.81 307.42"/>
              <polygon class="cls-31" points="183.36 333.15 167.41 324.84 168.63 294.54 185.2 301.03 183.36 333.15"/>
            </g>
            <g>
              <polygon class="cls-31" points="231.8 319.64 220.22 315.09 213.19 330.74 216.9 350.62 227.92 356.37 235.8 341.09 231.8 319.64"/>
              <polygon class="cls-9" points="227.43 328.72 222.35 326.54 219.13 333.46 220.81 342.49 225.78 344.9 229.17 338.06 227.43 328.72"/>
              <polygon class="cls-31" points="234.35 359.72 211.63 347.88 214.72 312.6 238.61 321.95 234.35 359.72"/>
            </g>
            <polygon class="cls-9" points="157.92 320.01 155.33 318.66 156.14 289.65 158.82 290.7 157.92 320.01"/>
            <polygon class="cls-9" points="197.48 340.65 194.08 338.87 196.38 305.41 199.93 306.8 197.48 340.65"/>
          </g>
          <path class="cls-20" d="M133.11,278.59l112.78,45.41s-3.62,13.75-3.35,16.98l-110.68-51.44s.6-9.79,1.24-10.96Z"/>
          <path class="cls-22" d="M132.61,309.03l111.28,58.39s-4.58-6.78-4.31-18.9l-107.72-49.28s.14,8.54.74,9.79Z"/>
          <g class="cls-34">
            <g>
              <g class="cls-35">
                <rect class="cls-14" x="239.03" y="318.77" width="146.15" height=".53" transform="translate(-48.01 55.39) rotate(-9.42)"/>
              </g>
              <g class="cls-35">
                <rect class="cls-14" x="239.51" y="324.76" width="146.15" height=".53" transform="translate(-48.99 55.55) rotate(-9.42)"/>
              </g>
              <g class="cls-35">
                <rect class="cls-14" x="238.95" y="331.39" width="146.15" height=".53" transform="translate(-50.08 55.55) rotate(-9.42)"/>
              </g>
              <g class="cls-35">
                <rect class="cls-14" x="239.24" y="338.01" width="146.15" height=".53" transform="translate(-51.21 55.76) rotate(-9.43)"/>
              </g>
              <g class="cls-35">
                <rect class="cls-14" x="239.52" y="345.25" width="146.15" height=".53" transform="translate(-52.41 55.91) rotate(-9.43)"/>
              </g>
            </g>
          </g>
        </g>
        <g>
          <path class="cls-21" d="M115.64,224.7s-10.98,21.96-.5,46.91l147.71,45.91,111.78-30.67-9.43-2.36-2.1-41.91,10.53-2.91-139.73-41.92-118.27,26.95Z"/>
          <path class="cls-15" d="M364.95,242.06l-104.59,22.06s-15.97,29.94,4.49,48.41l101.3-27.95-1.21-42.52Z"/>
          <path class="cls-4" d="M321.43,251.56c3.81,0,7.62-.14,11.42-.44,1.71-.14,3.41-.32,5.11-.51.3-.04.53-.06.69-.08.39-.06.77-.12,1.16-.18,6.42-1.1,12.77-2.44,19.08-4.1,2.05-.54,4.09-1.11,6.13-1.69l-.07-2.49-44.94,9.48c.47,0,.94.02,1.41.02Z"/>
          <path class="cls-4" d="M319.34,288.73c-14.97-.14-29.94-1.71-44.87-2.74-6.66-.46-13.32-1.14-19.79-2.49-.97,9.39.66,20.45,10.18,29.04l101.3-27.95-.06-2.11c-15.23,3.8-30.69,6.4-46.76,6.25Z"/>
          <path class="cls-17" d="M117.11,269.34c-1.55-3.28-2.46-6.83-3.08-10.41-.62-3.58-.86-7.23-.8-10.87.02-.91.1-1.82.14-2.72l.08-1.36.16-1.35.34-2.7.51-2.68c.3-1.79.85-3.53,1.28-5.29.52-1.73,1.14-3.44,1.75-5.14-.85,3.52-1.71,7.01-2.22,10.57l-.39,2.66-.26,2.68-.14,1.34-.07,1.34c-.04.89-.1,1.79-.12,2.68-.09,3.58.12,7.16.54,10.72.19,1.78.52,3.55.89,5.31.36,1.76.81,3.5,1.39,5.22Z"/>
          <path class="cls-17" d="M251.77,310.37c-1.55-3.28-2.46-6.83-3.08-10.41-.62-3.58-.86-7.23-.8-10.87.02-.91.1-1.82.14-2.72l.08-1.36.16-1.35.34-2.7.51-2.68c.3-1.79.85-3.53,1.28-5.29.53-1.73,1.14-3.44,1.75-5.14-.85,3.52-1.71,7.01-2.22,10.57l-.39,2.66-.26,2.68-.14,1.34-.07,1.34c-.04.89-.11,1.79-.12,2.68-.09,3.58.12,7.16.54,10.72.19,1.78.52,3.55.89,5.31.36,1.76.81,3.5,1.39,5.22Z"/>
          <g class="cls-39">
            <polygon class="cls-9" points="129.46 259.25 150.37 262.78 132.09 248.45 122.09 249.78 129.46 259.25"/>
            <polygon class="cls-9" points="132.35 247.78 152.17 263.26 139.45 239.63 128.88 235.18 132.35 247.78"/>
            <polygon class="cls-9" points="129.38 260.36 151.7 263.75 131.95 271.17 122.53 266.85 129.38 260.36"/>
          </g>
          <path class="cls-16" d="M161.48,241.72s-9.19,21.59-3.2,42.38l23.19,8s-5.2-34.78,5.2-42.78l-25.19-7.6Z"/>
          <path class="cls-16" d="M213.05,257.31s-9.59,23.59-3.2,43.18l7.2,2.8s-2-32.78,5.2-43.58l-9.19-2.4Z"/>
          <g class="cls-29">
            <g class="cls-45">
              <rect class="cls-14" x="254.25" y="255.38" width="122.86" height=".53" transform="translate(-46.88 72.45) rotate(-12.2)"/>
              <rect class="cls-14" x="252.35" y="261.61" width="122.86" height=".53" transform="translate(-49.62 74.86) rotate(-12.62)"/>
              <rect class="cls-14" x="251.14" y="267.82" width="122.86" height=".53" transform="translate(-54.12 80.7) rotate(-13.55)"/>
              <rect class="cls-14" x="250.61" y="273.67" width="122.86" height=".53" transform="translate(-55.5 80.73) rotate(-13.55)"/>
              <rect class="cls-14" x="250.76" y="279.5" width="122.86" height=".53" transform="translate(-56.86 80.93) rotate(-13.55)"/>
              <rect class="cls-14" x="251.59" y="284.98" width="122.86" height=".53" transform="translate(-58.12 81.28) rotate(-13.55)"/>
              <polygon class="cls-14" points="258.63 310.21 258.5 309.7 377.52 279.23 377.65 279.75 258.63 310.21"/>
              <rect class="cls-14" x="254.12" y="289.72" width="122.86" height=".53" transform="translate(-59.15 81.98) rotate(-13.55)"/>
            </g>
          </g>
          <path class="cls-20" d="M115.64,224.7l144.72,39.42s-5.73,13.97-6.53,20.77l-143.12-43.98s2.27-13.65,4.93-16.22Z"/>
          <path class="cls-18" d="M113.91,271.3l148.95,46.22s-8.32-3.24-11.03-17.84l-141.12-42.78s2,11.99,3.2,14.39Z"/>
        </g>
        <g>
          <path class="cls-9" d="M127.12,175.79s-3.49,29.94-.5,37.93l111.28,45.41,134.24-23.45-13.47-2.99-1.58-32.27,11.79-1.31-133.97-39.28-107.79,15.97Z"/>
          <path class="cls-15" d="M360.67,200.25l-119.27,15.47s-13.97,26.45,3.49,37.43l116.77-18.96s-1-35.43-1-33.93Z"/>
          <path class="cls-4" d="M313.79,240.39c-14.63-.06-29.47-1.33-44.05-2.59-8.68-.75-17.64-1.75-25.51-5.78-2.55-1.3-4.84-2.95-7.02-4.75-2.02,8.52-2.19,19.67,7.68,25.87l79.68-12.94c-3.6.13-7.2.2-10.79.18Z"/>
          <g class="cls-37">
            <path class="cls-23" d="M136.15,198.87c-.02.33-.43.43-.93.24-.5-.19-.89-.61-.87-.93.01-.32.43-.43.92-.24.5.19.89.61.87.94Z"/>
            <path class="cls-23" d="M150.5,194.92c-.02.34-.47.46-1,.26-.53-.19-.95-.63-.93-.96.02-.34.46-.46,1-.26.54.19.96.63.94.97Z"/>
            <path class="cls-23" d="M149.48,213.5c-.02.33-.46.43-.99.21-.53-.22-.94-.66-.92-.99.02-.33.46-.43.99-.21.53.21.94.66.92.99Z"/>
            <path class="cls-23" d="M164.71,209.99c-.02.35-.5.45-1.07.23-.57-.22-1.01-.68-.99-1.02.02-.35.5-.45,1.07-.23.57.22,1.01.68.99,1.02Z"/>
            <path class="cls-23" d="M131.39,181.84l-.65,15.01-.14.05.13.16-.62,14.25,38.3,16.17,2.13-32.02-39.15-13.62ZM151.04,189.94l7.4,9.65-8.7,3.46.31-5.63-1.13-.42-.3,5.46-7.11-8.79,9.53-3.74ZM140.85,192.86l-7.89-9.76,17.29,6.04-9.4,3.72ZM151.89,189.72l16.69,5.83-9.35,3.72-7.34-9.56ZM150.22,203.99l8.89-3.51,8.67,11.32-9.21,2.99-8.04-9.95,9.79,3.78.04-.73-10.13-3.9ZM148.24,203.22l-10.1-3.89-.03.69,9.75,3.77-8.1,3.23-7.82-9.6,8.83-3.46,7.47,9.26ZM148.5,204.67l-.34,6.34,1.12.45.36-6.51,8.14,10.09-9.09,2.94-8.25-10.13,8.06-3.19ZM147.81,218.08l-16.1-6.77,8.02-3.17,8.08,9.94ZM158.47,215.91l8.12,10.06-17.08-7.18,8.97-2.88ZM159.27,215.65l8.85-2.84-.84,12.75-8.01-9.91ZM159.91,200.16l9.29-3.67-.96,14.52-8.33-10.85ZM132.38,183.56l7.74,9.59-8.31,3.28.57-12.88ZM139.05,207.31l-7.87,3.13.54-12.15,7.33,9.02Z"/>
          </g>
          <g class="cls-37">
            <path class="cls-23" d="M193.46,219.71c-.02.33-.43.43-.93.24-.5-.19-.89-.61-.87-.93.01-.32.43-.43.92-.24.5.19.89.61.87.94Z"/>
            <path class="cls-23" d="M207.82,215.76c-.02.34-.47.46-1,.26-.53-.19-.95-.63-.93-.96.02-.34.46-.46,1-.26.54.19.96.63.94.97Z"/>
            <path class="cls-23" d="M206.79,234.34c-.02.33-.46.43-.99.21-.53-.22-.94-.66-.92-.99.02-.33.46-.43.99-.21.53.21.94.66.92.99Z"/>
            <path class="cls-23" d="M222.02,230.84c-.02.35-.5.45-1.07.23-.57-.22-1.01-.68-.99-1.02.02-.35.5-.45,1.07-.23.57.22,1.01.68.99,1.02Z"/>
            <path class="cls-23" d="M188.71,202.69l-.65,15.01-.14.05.13.16-.62,14.25,38.3,16.17,2.13-32.02-39.15-13.62ZM208.35,210.78l7.4,9.65-8.7,3.46.31-5.63-1.13-.42-.3,5.46-7.11-8.79,9.53-3.74ZM198.16,213.7l-7.89-9.76,17.29,6.04-9.4,3.72ZM209.21,210.56l16.69,5.83-9.35,3.72-7.34-9.56ZM207.53,224.83l8.89-3.51,8.67,11.32-9.21,2.99-8.04-9.95,9.79,3.78.04-.73-10.13-3.9ZM205.55,224.07l-10.1-3.89-.03.69,9.75,3.77-8.1,3.23-7.82-9.6,8.83-3.46,7.47,9.26ZM205.81,225.51l-.34,6.34,1.12.45.36-6.51,8.14,10.09-9.09,2.94-8.25-10.13,8.06-3.19ZM205.12,238.92l-16.1-6.77,8.02-3.17,8.08,9.94ZM215.79,236.76l8.12,10.06-17.08-7.18,8.97-2.88ZM216.59,236.5l8.85-2.84-.84,12.75-8.01-9.91ZM217.22,221l9.29-3.67-.96,14.52-8.33-10.85ZM189.69,204.4l7.74,9.59-8.31,3.28.57-12.88ZM196.37,228.15l-7.87,3.13.54-12.15,7.33,9.02Z"/>
          </g>
          <g class="cls-43">
            <g>
              <g class="cls-28">
                <rect class="cls-14" x="233.66" y="221.96" width="136.41" height=".53" transform="translate(-26.83 42.05) rotate(-7.63)"/>
              </g>
              <g class="cls-28">
                <rect class="cls-14" x="233.66" y="230.41" width="136.41" height=".53" transform="translate(-27.96 42.12) rotate(-7.63)"/>
              </g>
              <g class="cls-28">
                <polygon class="cls-14" points="234.4 249.15 234.32 248.62 369.34 229.1 369.41 229.63 234.4 249.15"/>
              </g>
              <g class="cls-28">
                <rect class="cls-14" x="233.66" y="213.51" width="136.41" height=".53" transform="translate(-22.98 36.86) rotate(-6.73)"/>
              </g>
            </g>
          </g>
          <path class="cls-23" d="M266.94,217.72s15.21,22.54,11.83,50.71l7.32-6.2,5.63,5.63s.56-38.31-9.58-51.27l-15.21,1.13Z"/>
          <path class="cls-20" d="M127.12,175.79s111.65,35.73,111.65,37.42-7.32,13.52-5.63,24.79l-107.05-42.26,1.04-19.95Z"/>
        </g>
        <g>
          <rect class="cls-6" x="153.95" y="173.63" width="203.11" height="32.44"/>
          <rect class="cls-24" x="153.95" y="199.12" width="203.11" height="6.95"/>
          <rect class="cls-20" x="153.95" y="173.63" width="203.11" height="11.97"/>
          <rect class="cls-1" x="164.96" y="173.63" width="17.85" height="32.44"/>
          <rect class="cls-1" x="195.56" y="173.63" width="3.03" height="32.44"/>
          <rect class="cls-1" x="211.34" y="173.63" width="101.62" height="32.44"/>
          <rect class="cls-1" x="325.71" y="173.63" width="12.61" height="32.44"/>
          <polygon class="cls-6" points="153.95 173.63 152.45 148.18 339.09 146.69 357.06 173.63 153.95 173.63"/>
        </g>
        <g>
          <g>
            <polygon class="cls-7" points="163.43 130.72 163.43 159.66 292.18 173.63 341.09 158.16 334.6 155.67 335.1 132.21 340.09 130.22 219.82 119.24 163.43 130.72"/>
            <polygon class="cls-15" points="337.59 131.09 291.68 143.69 291.68 167.65 291.68 170.64 336.95 156.3 337.59 131.09"/>
            <g>
              <rect class="cls-23" x="224.71" y="85.79" width="1.06" height="114.54" transform="translate(57.62 350.68) rotate(-83.5)"/>
              <rect class="cls-23" x="224.15" y="92.55" width="1.06" height="114.54" transform="translate(50.4 356.11) rotate(-83.5)"/>
              <rect class="cls-23" x="224.15" y="99.31" width="1.06" height="114.54" transform="translate(43.68 362.11) rotate(-83.5)"/>
              <rect class="cls-23" x="224.15" y="105.51" width="1.06" height="114.54" transform="translate(37.53 367.61) rotate(-83.5)"/>
            </g>
            <g class="cls-36">
              <g class="cls-27">
                <polygon class="cls-14" points="289.07 147.9 288.93 147.38 343.96 132.6 344.1 133.11 289.07 147.9"/>
              </g>
              <g class="cls-27">
                <polygon class="cls-14" points="289.63 154.66 289.5 154.15 344.53 139.36 344.66 139.87 289.63 154.66"/>
              </g>
              <g class="cls-27">
                <polygon class="cls-14" points="289.73 160.64 289.59 160.13 344.62 145.34 344.76 145.86 289.73 160.64"/>
              </g>
              <g class="cls-27">
                <polygon class="cls-14" points="290.29 166.84 290.15 166.33 345.18 151.54 345.32 152.05 290.29 166.84"/>
              </g>
            </g>
            <polygon class="cls-18" points="163.43 159.66 292.18 173.63 291.73 161.94 163.83 148.98 163.43 159.66"/>
            <polygon class="cls-20" points="163.43 130.72 291.68 143.69 291.73 150.67 163.83 139.4 163.43 130.72"/>
          </g>
          <path class="cls-4" d="M291.68,143.69v26.95l40.61-13.21s-40.09,11.96-40.61-13.74Z"/>
        </g>
        <g>
          <path class="cls-12" d="M144.89,99.48s-5.89,12.02-.74,23.54l106.92,20.35,90.49-14.47-6.87-1.23,1.23-23.54,5.4-1.23-106.43-17.66s-86.32,9.32-90,14.22Z"/>
          <g class="cls-44">
            <path class="cls-15" d="M256.13,118.37s-8.09,11.28-1.72,22.81l81.42-13.49,1.23-23.54-80.93,14.22Z"/>
            <path class="cls-4" d="M297.61,133.97c-9.25-.17-19.26-.43-28.24-2.85-5.85-1.57-10.81-4.68-15.72-7.97-1.7,4.36-3.04,11.14.76,18.01l43.44-7.2c-.08,0-.16,0-.24,0Z"/>
            <g class="cls-40">
              <rect class="cls-14" x="246.58" y="114.91" width="98.74" height=".53" transform="translate(-14.63 48.88) rotate(-9.22)"/>
            </g>
            <g class="cls-40">
              <rect class="cls-14" x="246.58" y="120.54" width="98.74" height=".53" transform="translate(-15.53 48.96) rotate(-9.22)"/>
            </g>
            <g class="cls-40">
              <rect class="cls-14" x="246.58" y="126.18" width="98.74" height=".53" transform="translate(-16.43 49.03) rotate(-9.22)"/>
            </g>
            <g class="cls-40">
              <rect class="cls-14" x="246.58" y="130.68" width="98.74" height=".53" transform="translate(-17.15 49.09) rotate(-9.22)"/>
            </g>
          </g>
          <g>
            <path class="cls-23" d="M254.28,98.66c5.18.87,5.87,2.15,1.53,2.85-4.34.7-12.07.56-17.26-.31-5.2-.87-5.88-2.15-1.53-2.86,4.35-.7,12.08-.56,17.27.31Z"/>
            <path class="cls-23" d="M232.16,98.12c-2.23.1-4.8.06-7.21-.09-1.21-.08-2.4-.19-3.36-.35-2.53-.41-2.96-1.01-4.05-1.54-2.24-1.09-8.13-2.06-14.72-2.43,5.61-.11,11.87-.18,17.2.39,5.76.63,8.32,1.78,11.05,2.8,1.03.39,2.16.77,3.17,1.15l-2.07.06Z"/>
            <path class="cls-23" d="M259.04,102.03c2.22-.1,4.78-.07,7.18.09,1.2.08,2.39.19,3.34.35,2.51.41,2.95,1,4.03,1.53,2.22,1.08,8.07,2.05,14.61,2.41-5.57.11-11.77.19-17.07-.38-5.73-.62-8.28-1.77-11-2.79-1.03-.38-2.15-.76-3.16-1.15l2.07-.06Z"/>
            <path class="cls-23" d="M242.68,97.36c-2.32-.21-4.35-.53-5.71-.91-.68-.19-1.2-.39-1.34-.6-.36-.53,1.86-.92,3.24-1.35,2.83-.88,2.05-2.13-1.95-3.12,5.21.61,10.86,1.31,12.87,2.27,2.17,1.04-.67,2-2.78,2.9-.8.34-1.49.69-2.31,1.03l-2.02-.21Z"/>
            <path class="cls-23" d="M248.53,102.79c2.31.21,4.35.53,5.7.91.68.19,1.2.39,1.33.6.36.53-1.85.92-3.23,1.35-2.83.88-2.05,2.13,1.94,3.12-5.21-.6-10.85-1.3-12.86-2.26-2.17-1.04.67-2,2.78-2.9.8-.34,1.49-.69,2.31-1.03l2.02.21Z"/>
            <path class="cls-23" d="M253.36,97.99c-1.29-.38-1.89-.81-1.67-1.2.11-.2.43-.39,1.08-.53,1.72-.39,5.22-.41,8.12-.55,5.94-.28,10.03-1.18,10.21-2.25,2.39.95,4.82,2,2.95,2.84-2.02.91-8.26,1.24-13.63,1.61-2.03.14-4,.3-6.04.43l-1.02-.35Z"/>
            <path class="cls-23" d="M237.85,102.17c1.3.38,1.89.81,1.67,1.2-.11.2-.43.39-1.08.53-1.72.39-5.23.41-8.14.55-5.96.28-10.07,1.19-10.25,2.26-2.4-.95-4.84-2-2.97-2.85,2.03-.91,8.3-1.25,13.69-1.62,2.03-.14,4.01-.3,6.05-.44l1.02.35Z"/>
            <path class="cls-23" d="M261.5,99.97c.69-.36,2.16-.66,4.13-.83.98-.09,2.11-.15,3.32-.14,3.18.02,6.13.44,9.12.74,6.13.6,13.57.65,18.6.12-2.38.79-5.2,1.64-10.56,1.84-5.81.22-12.4-.39-18.48-.88-2.29-.18-4.62-.35-6.91-.53l.78-.31Z"/>
            <path class="cls-23" d="M229.68,100.18c-.69.36-2.17.66-4.14.83-.99.09-2.12.15-3.34.14-3.19-.01-6.17-.44-9.17-.74-6.17-.6-13.69-.65-18.77-.12,2.4-.8,5.25-1.65,10.66-1.85,5.85-.22,12.49.4,18.6.88,2.3.18,4.64.35,6.94.54l-.79.31Z"/>
          </g>
          <path class="cls-23" d="M157.72,101.8s-7.2,14.12.53,23.99l9.06,1.6s-4.8-16.79,2.13-23.99l-11.73-1.6Z"/>
          <path class="cls-23" d="M221.42,114.16s-7.2,14.12.53,23.99l9.06,1.6s-4.8-16.79,2.13-23.99l-11.73-1.6Z"/>
          <path class="cls-20" d="M144.89,99.48l111.24,18.88s-4.39,6.74-4.79,12.01l-109.45-19.86s.73-9.09,3-11.03Z"/>
          <g class="cls-40">
            <rect class="cls-9" x="200.21" y="58.63" width="1.06" height="100.13" transform="translate(58.69 287.4) rotate(-79.95)"/>
          </g>
          <path class="cls-25" d="M250.58,139.5c-.26-.96-.48-1.92-.66-2.88l-107.63-18,1.86,4.41,106.92,20.35c-.66-1.25-.68-2.68-.5-3.88Z"/>
          <path class="cls-20" d="M159.32,95.51s41.29-7.13,75.57-10.25l63.06,10.25h-138.63Z"/>
        </g>
      </g>
    </g>
  </g>
</svg>