<?xml version="1.0" encoding="UTF-8"?>
<svg id="Layer_2" data-name="Layer 2" xmlns="http://www.w3.org/2000/svg" xmlns:xlink="http://www.w3.org/1999/xlink" viewBox="0 0 2475 2475">
  <defs>
    <style>
      .cls-1 {
        fill: url(#linear-gradient-38);
      }

      .cls-1, .cls-2, .cls-3, .cls-4, .cls-5, .cls-6, .cls-7, .cls-8, .cls-9, .cls-10, .cls-11, .cls-12, .cls-13, .cls-14, .cls-15, .cls-16, .cls-17, .cls-18, .cls-19, .cls-20, .cls-21, .cls-22, .cls-23, .cls-24, .cls-25, .cls-26, .cls-27, .cls-28, .cls-29, .cls-30, .cls-31, .cls-32, .cls-33, .cls-34, .cls-35, .cls-36, .cls-37, .cls-38, .cls-39, .cls-40, .cls-41, .cls-42, .cls-43, .cls-44, .cls-45, .cls-46, .cls-47, .cls-48, .cls-49, .cls-50, .cls-51, .cls-52, .cls-53, .cls-54, .cls-55, .cls-56, .cls-57, .cls-58, .cls-59, .cls-60, .cls-61, .cls-62, .cls-63, .cls-64 {
        stroke-width: 0px;
      }

      .cls-2 {
        fill: url(#linear-gradient-12);
      }

      .cls-3 {
        fill: url(#linear-gradient-17);
      }

      .cls-4 {
        fill: url(#linear-gradient-19);
      }

      .cls-5 {
        fill: url(#linear-gradient-33);
      }

      .cls-6 {
        fill: url(#linear-gradient);
      }

      .cls-7 {
        fill: #606060;
      }

      .cls-8 {
        fill: url(#linear-gradient-57);
      }

      .cls-9 {
        fill: url(#linear-gradient-21);
      }

      .cls-10 {
        fill: url(#linear-gradient-6);
      }

      .cls-11 {
        opacity: .68;
      }

      .cls-11, .cls-22, .cls-29 {
        fill: #fff;
      }

      .cls-12 {
        fill: url(#linear-gradient-42);
      }

      .cls-13 {
        fill: url(#linear-gradient-15);
      }

      .cls-14 {
        fill: url(#linear-gradient-11);
      }

      .cls-15 {
        fill: url(#linear-gradient-5);
      }

      .cls-16 {
        fill: url(#linear-gradient-31);
      }

      .cls-17 {
        fill: url(#linear-gradient-34);
      }

      .cls-18 {
        fill: url(#linear-gradient-41);
      }

      .cls-65 {
        opacity: .58;
      }

      .cls-19 {
        fill: url(#linear-gradient-40);
      }

      .cls-20 {
        fill: url(#linear-gradient-13);
      }

      .cls-21 {
        fill: url(#linear-gradient-23);
      }

      .cls-22 {
        opacity: .31;
      }

      .cls-23 {
        fill: url(#linear-gradient-25);
      }

      .cls-24 {
        fill: url(#linear-gradient-43);
      }

      .cls-25 {
        fill: url(#linear-gradient-16);
      }

      .cls-26 {
        fill: url(#linear-gradient-22);
      }

      .cls-27 {
        fill: url(#linear-gradient-54);
      }

      .cls-28 {
        fill: url(#linear-gradient-55);
      }

      .cls-30 {
        fill: url(#linear-gradient-35);
      }

      .cls-31 {
        fill: url(#linear-gradient-50);
      }

      .cls-32 {
        fill: url(#linear-gradient-32);
      }

      .cls-33 {
        fill: url(#linear-gradient-20);
      }

      .cls-66 {
        opacity: .78;
      }

      .cls-34 {
        fill: url(#linear-gradient-14);
      }

      .cls-35 {
        fill: url(#linear-gradient-2);
      }

      .cls-36 {
        fill: url(#linear-gradient-52);
      }

      .cls-37 {
        fill: url(#linear-gradient-45);
      }

      .cls-38 {
        fill: #4c4c4c;
      }

      .cls-39 {
        fill: #d3d3d3;
      }

      .cls-40 {
        fill: url(#linear-gradient-7);
      }

      .cls-41 {
        fill: url(#linear-gradient-39);
      }

      .cls-42 {
        fill: url(#linear-gradient-3);
      }

      .cls-43 {
        fill: url(#linear-gradient-9);
      }

      .cls-44 {
        fill: url(#linear-gradient-27);
      }

      .cls-45 {
        fill: url(#linear-gradient-53);
      }

      .cls-46 {
        fill: url(#linear-gradient-36);
      }

      .cls-47 {
        fill: url(#linear-gradient-48);
      }

      .cls-48 {
        fill: url(#linear-gradient-49);
      }

      .cls-49 {
        fill: url(#linear-gradient-8);
      }

      .cls-50 {
        fill: url(#linear-gradient-47);
      }

      .cls-51 {
        fill: url(#linear-gradient-24);
      }

      .cls-52 {
        fill: url(#linear-gradient-26);
      }

      .cls-53 {
        fill: url(#linear-gradient-18);
      }

      .cls-54 {
        fill: url(#linear-gradient-51);
      }

      .cls-55 {
        fill: url(#linear-gradient-30);
      }

      .cls-56 {
        fill: url(#linear-gradient-44);
      }

      .cls-57 {
        fill: #c2cae0;
      }

      .cls-58 {
        fill: url(#linear-gradient-29);
      }

      .cls-59 {
        fill: url(#linear-gradient-46);
      }

      .cls-60 {
        fill: url(#linear-gradient-28);
      }

      .cls-61 {
        fill: url(#linear-gradient-56);
      }

      .cls-62 {
        fill: url(#linear-gradient-10);
      }

      .cls-63 {
        fill: url(#linear-gradient-4);
      }

      .cls-64 {
        fill: url(#linear-gradient-37);
      }
    </style>
    <linearGradient id="linear-gradient" x1="330.83" y1="1194.65" x2="2112.68" y2="1194.65" gradientUnits="userSpaceOnUse">
      <stop offset="0" stop-color="#7f7f7f"/>
      <stop offset="1" stop-color="#cdd2df"/>
    </linearGradient>
    <linearGradient id="linear-gradient-2" x1="455.6" y1="1479.38" x2="903.76" y2="1479.38" xlink:href="#linear-gradient"/>
    <linearGradient id="linear-gradient-3" x1="446.02" y1="1571.79" x2="948.15" y2="1571.79" xlink:href="#linear-gradient"/>
    <linearGradient id="linear-gradient-4" x1="446.02" y1="1596.14" x2="936.36" y2="1596.14" xlink:href="#linear-gradient"/>
    <linearGradient id="linear-gradient-5" x1="446.02" y1="1614.07" x2="930.31" y2="1614.07" xlink:href="#linear-gradient"/>
    <linearGradient id="linear-gradient-6" x1="-5117.75" y1="1610.56" x2="-4523.45" y2="1610.56" gradientTransform="translate(-4133.25) rotate(-180) scale(1 -1)" gradientUnits="userSpaceOnUse">
      <stop offset="0" stop-color="#1c1c1c"/>
      <stop offset="1" stop-color="#e0e0e0"/>
    </linearGradient>
    <linearGradient id="linear-gradient-7" x1="1219.47" y1="1759.86" x2="1328.65" y2="827.85" gradientUnits="userSpaceOnUse">
      <stop offset="0" stop-color="#383838"/>
      <stop offset="1" stop-color="#706473"/>
    </linearGradient>
    <linearGradient id="linear-gradient-8" x1="1838.03" y1="710.76" x2="146.31" y2="2643" gradientTransform="matrix(1,0,0,1,0,0)" xlink:href="#linear-gradient-6"/>
    <linearGradient id="linear-gradient-9" x1="664.69" y1="1349.36" x2="668.77" y2="1349.36" xlink:href="#linear-gradient"/>
    <linearGradient id="linear-gradient-10" x1="660.58" y1="1096.77" x2="1088.58" y2="1096.77" xlink:href="#linear-gradient"/>
    <linearGradient id="linear-gradient-11" x1="1275.7" y1="1446.95" x2="1289.02" y2="1944.91" xlink:href="#linear-gradient-7"/>
    <linearGradient id="linear-gradient-12" x1="783.64" y1="1327.12" x2="1796.6" y2="1327.12" xlink:href="#linear-gradient"/>
    <linearGradient id="linear-gradient-13" x1="1277.16" y1="1228.85" x2="411.83" y2="1742.08" gradientTransform="matrix(1,0,0,1,0,0)" xlink:href="#linear-gradient-6"/>
    <linearGradient id="linear-gradient-14" x1="1466.25" y1="1193.23" x2="1720.54" y2="1193.23" xlink:href="#linear-gradient"/>
    <linearGradient id="linear-gradient-15" x1="1466.25" y1="1349.14" x2="1720.54" y2="1349.14" xlink:href="#linear-gradient"/>
    <linearGradient id="linear-gradient-16" x1="1466.25" y1="1505.06" x2="1720.54" y2="1505.06" xlink:href="#linear-gradient"/>
    <linearGradient id="linear-gradient-17" x1="783.64" y1="1098.15" x2="1796.6" y2="1098.15" xlink:href="#linear-gradient"/>
    <linearGradient id="linear-gradient-18" x1="1294.92" y1="1430.19" x2="1406.81" y2="1430.19" xlink:href="#linear-gradient"/>
    <linearGradient id="linear-gradient-19" x1="1331.22" y1="1429.79" x2="1389.34" y2="1429.79" xlink:href="#linear-gradient"/>
    <linearGradient id="linear-gradient-20" x1="4902.06" y1="1877.92" x2="5196.21" y2="2020.98" gradientTransform="translate(6514.95 1035.42) rotate(-162.47) scale(1 -1)" gradientUnits="userSpaceOnUse">
      <stop offset="0" stop-color="#fca311"/>
      <stop offset="1" stop-color="#e1817d"/>
    </linearGradient>
    <linearGradient id="linear-gradient-21" x1="1293.43" y1="1091.75" x2="1055.56" y2="1346.88" gradientTransform="translate(1227.29 -427.07) rotate(45)" gradientUnits="userSpaceOnUse">
      <stop offset="0" stop-color="#fca311"/>
      <stop offset="1" stop-color="#fca311"/>
    </linearGradient>
    <linearGradient id="linear-gradient-22" x1="1084.22" y1="1263.84" x2="1224.61" y2="1263.84" gradientTransform="matrix(1,0,0,1,0,0)" xlink:href="#linear-gradient-20"/>
    <linearGradient id="linear-gradient-23" x1="1276" y1="3157.38" x2="1570.13" y2="3300.43" gradientTransform="translate(2771.2 -1755.45) rotate(53.22)" xlink:href="#linear-gradient-20"/>
    <linearGradient id="linear-gradient-24" x1="1767.94" y1="812.68" x2="1680.06" y2="1244.06" xlink:href="#linear-gradient-7"/>
    <linearGradient id="linear-gradient-25" x1="1924.35" y1="568.23" x2="1759.25" y2="898.43" xlink:href="#linear-gradient-7"/>
    <linearGradient id="linear-gradient-26" x1="1836.6" y1="805.02" x2="1964.42" y2="1284.34" xlink:href="#linear-gradient-7"/>
    <linearGradient id="linear-gradient-27" x1="577.01" y1="1763.11" x2="608.5" y2="1763.11" gradientTransform="matrix(1,0,0,1,0,0)" xlink:href="#linear-gradient-20"/>
    <linearGradient id="linear-gradient-28" x1="678.93" y1="1763.11" x2="710.42" y2="1763.11" gradientTransform="matrix(1,0,0,1,0,0)" xlink:href="#linear-gradient-20"/>
    <linearGradient id="linear-gradient-29" x1="575.72" y1="1681.02" x2="711.63" y2="1681.02" gradientTransform="matrix(1,0,0,1,0,0)" xlink:href="#linear-gradient-20"/>
    <linearGradient id="linear-gradient-30" x1="805.57" y1="1685.02" x2="784.99" y2="1827.22" gradientTransform="matrix(1,0,0,1,0,0)" xlink:href="#linear-gradient-6"/>
    <linearGradient id="linear-gradient-31" x1="751.3" y1="1807.16" x2="771.68" y2="1807.16" gradientUnits="userSpaceOnUse">
      <stop offset="0" stop-color="#e1817d"/>
      <stop offset="1" stop-color="#e09e9c"/>
    </linearGradient>
    <linearGradient id="linear-gradient-32" x1="907.52" y1="1699.77" x2="886.94" y2="1841.97" gradientTransform="matrix(1,0,0,1,0,0)" xlink:href="#linear-gradient-6"/>
    <linearGradient id="linear-gradient-33" x1="746.18" y1="1705.79" x2="845.59" y2="1904.6" xlink:href="#linear-gradient-7"/>
    <linearGradient id="linear-gradient-34" x1="847.84" y1="1808.88" x2="872.17" y2="1808.88" xlink:href="#linear-gradient-31"/>
    <linearGradient id="linear-gradient-35" x1="602.73" y1="1585" x2="799.76" y2="1757.19" xlink:href="#linear-gradient-7"/>
    <linearGradient id="linear-gradient-36" x1="736.99" y1="1412.34" x2="683.74" y2="1523.28" xlink:href="#linear-gradient-31"/>
    <linearGradient id="linear-gradient-37" x1="719.63" y1="1566.54" x2="634.43" y2="1742.28" gradientTransform="matrix(1,0,0,1,0,0)" xlink:href="#linear-gradient-20"/>
    <linearGradient id="linear-gradient-38" x1="758.58" y1="1437.53" x2="739.44" y2="1475.81" gradientTransform="matrix(1,0,0,1,0,0)" xlink:href="#linear-gradient-21"/>
    <linearGradient id="linear-gradient-39" x1="815.17" y1="1583.64" x2="871.37" y2="1583.64" xlink:href="#linear-gradient-31"/>
    <linearGradient id="linear-gradient-40" x1="2619.36" y1="1568.88" x2="2621.14" y2="1638.99" gradientTransform="translate(-2123.67 -147.4) rotate(-7.5)" xlink:href="#linear-gradient-31"/>
    <linearGradient id="linear-gradient-41" x1="2603.46" y1="1877.49" x2="2658" y2="1947.71" gradientTransform="translate(-2123.67 -147.4) rotate(-7.5)" xlink:href="#linear-gradient-7"/>
    <linearGradient id="linear-gradient-42" x1="2599.64" y1="1569.38" x2="2601.42" y2="1639.49" gradientTransform="translate(-2123.67 -147.4) rotate(-7.5)" xlink:href="#linear-gradient-31"/>
    <linearGradient id="linear-gradient-43" x1="3996.13" y1="-7668.83" x2="3845.81" y2="-7523.5" gradientTransform="translate(-6208.26 -374.97) rotate(-177.17) scale(1.39 -1.39)" xlink:href="#linear-gradient-7"/>
    <linearGradient id="linear-gradient-44" x1="1236.41" y1="-7406" x2="1086.1" y2="-7260.67" gradientTransform="translate(7800.21 -7248.75) rotate(-62.23) scale(1.39 -1.39)" xlink:href="#linear-gradient-7"/>
    <linearGradient id="linear-gradient-45" x1="1907.63" y1="1099.31" x2="1914.14" y2="1143.09" gradientTransform="translate(19.66 448.59) rotate(9.25)" xlink:href="#linear-gradient-7"/>
    <linearGradient id="linear-gradient-46" x1="1639.73" y1="1599.32" x2="1740.13" y2="1841.86" xlink:href="#linear-gradient-31"/>
    <linearGradient id="linear-gradient-47" x1="-7220.8" y1="1598.8" x2="-7120.39" y2="1841.34" gradientTransform="translate(-5403.07) rotate(-180) scale(1 -1)" xlink:href="#linear-gradient-31"/>
    <linearGradient id="linear-gradient-48" x1="1728.91" y1="1630.8" x2="1723.7" y2="1841.66" xlink:href="#linear-gradient-7"/>
    <linearGradient id="linear-gradient-49" x1="1825.39" y1="1658.93" x2="1767.47" y2="1815.8" xlink:href="#linear-gradient-31"/>
    <linearGradient id="linear-gradient-50" x1="1709.35" y1="1611.65" x2="1651.4" y2="1768.61" xlink:href="#linear-gradient-31"/>
    <linearGradient id="linear-gradient-51" x1="1782.73" y1="1666.86" x2="1668.25" y2="1878.53" gradientTransform="matrix(1,0,0,1,0,0)" xlink:href="#linear-gradient-21"/>
    <linearGradient id="linear-gradient-52" x1="1701.28" y1="1631.48" x2="1701.28" y2="1718.01" gradientTransform="matrix(1,0,0,1,0,0)" xlink:href="#linear-gradient-21"/>
    <linearGradient id="linear-gradient-53" x1="1731.28" y1="1521.57" x2="1721.82" y2="1616.24" xlink:href="#linear-gradient-31"/>
    <linearGradient id="linear-gradient-54" x1="1728.31" y1="1490.26" x2="1734.81" y2="1551.8" xlink:href="#linear-gradient-31"/>
    <linearGradient id="linear-gradient-55" x1="1907.8" y1="1099.28" x2="1914.31" y2="1143.07" gradientTransform="translate(19.66 448.59) rotate(9.25)" xlink:href="#linear-gradient-7"/>
    <linearGradient id="linear-gradient-56" x1="1703.23" y1="1492.91" x2="1709.74" y2="1554.45" xlink:href="#linear-gradient-31"/>
    <linearGradient id="linear-gradient-57" x1="1728.33" y1="1614.49" x2="1724.95" y2="1775.97" gradientTransform="matrix(1,0,0,1,0,0)" xlink:href="#linear-gradient-6"/>
  </defs>
  <g id="Background">
    <rect class="cls-29" width="2475" height="2475"/>
  </g>
  <g id="Illustration">
    <g>
      <path class="cls-6" d="M609.3,740.7c-129.75,122.31,63.09,255.83-27.74,325.55-90.83,69.72-476.1,219.29-63.92,439.16,412.18,219.87,440.01,337.9,712.64,163.83,272.62-174.07,244.16-156.61,483.75-66.62,239.58,89.99,472.12-89.55,376.74-278.39-95.38-188.83-147.88-182.97-61.55-313.18,86.33-130.21-104.81-528.56-412.54-242.06-307.73,286.5-244.68,98.47-391.15-30.49-79.3-69.82-411.18-191.08-616.22,2.21Z"/>
      <g>
        <path class="cls-7" d="M669.91,670.03c-43.01,68.05-277.11,474.28,64.63,762.43,0,0,222.96-227.76-52.82-761.94-2.41-4.67-9-4.94-11.81-.49Z"/>
        <path class="cls-57" d="M678.5,751.09c-4.01,25.36-7.51,50.83-10.78,76.3-3.26,25.48-6.23,51.01-8.9,76.56-5.34,51.1-9.53,102.33-12.15,153.62-2.57,51.29-3.66,102.67-1.93,153.95.78,25.64,2.49,51.24,5.17,76.71,2.72,25.46,6.45,50.82,12.16,75.71h0c.41,1.79-.7,3.56-2.48,3.97-1.78.41-3.55-.7-3.96-2.48v-.02c-5.64-25.28-9.24-50.89-11.82-76.55-2.54-25.67-4.1-51.41-4.73-77.17-1.42-51.5,0-103.01,2.89-154.38,2.94-51.38,7.45-102.64,13.11-153.77,2.83-25.56,5.96-51.09,9.38-76.58,3.43-25.49,7.09-50.94,11.27-76.34.13-.76.85-1.28,1.61-1.15.76.13,1.27.84,1.15,1.6h0Z"/>
      </g>
      <g>
        <path class="cls-38" d="M371.46,745.07c-24.41,98.97-142.95,680.7,382.96,889.98,0,0,176.62-362.88-368.58-894.12-4.77-4.65-12.78-2.33-14.38,4.14Z"/>
        <path class="cls-57" d="M413.89,839.14c3.84,34,9.11,67.89,15.04,101.62,5.96,33.73,12.74,67.32,20.34,100.72,15.23,66.78,33.63,132.87,56.29,197.48,22.72,64.55,49.63,127.75,83.12,187.37,8.32,14.93,17.21,29.53,26.45,43.88,9.23,14.37,19.01,28.38,29.3,41.98,20.48,27.29,43.31,52.8,68.42,75.78l.02.02c1.35,1.23,1.44,3.32.21,4.67-1.23,1.35-3.32,1.44-4.67.21h-.01c-25.36-23.44-48.33-49.35-68.87-76.99-10.33-13.78-20.12-27.95-29.35-42.47-9.25-14.51-18.13-29.25-26.43-44.31-33.42-60.15-60.14-123.73-82.63-188.58-22.43-64.91-40.56-131.23-55.51-198.2-7.46-33.49-14.09-67.17-19.91-100.98-5.78-33.82-10.9-67.74-14.6-101.9-.08-.77.47-1.46,1.24-1.54.77-.08,1.46.47,1.54,1.24v.02Z"/>
      </g>
      <g>
        <path class="cls-7" d="M311.12,1288.36c4.88,51.79,44.63,351.59,310.89,353.93,0,0,20.71-206.07-305.17-358.57-2.85-1.33-6.04,1.26-5.72,4.64Z"/>
        <path class="cls-57" d="M345.52,1325.15c6.99,14.77,14.56,29.33,22.34,43.73,7.8,14.41,15.92,28.63,24.31,42.69,8.41,14.05,17.13,27.92,26.15,41.58,9.01,13.66,18.33,27.12,28.08,40.27,9.73,13.15,19.73,26.1,30.3,38.57,10.55,12.48,21.39,24.71,32.93,36.25,2.82,2.95,5.76,5.77,8.71,8.59,2.96,2.8,5.82,5.71,8.9,8.38l9.1,8.16,9.39,7.8c12.67,10.21,25.93,19.65,39.89,27.88l.04.02c1.57.93,2.09,2.95,1.17,4.52s-2.95,2.09-4.52,1.17l-.03-.02c-28.46-17.19-53.76-38.87-76.68-62.55-11.55-11.78-22.37-24.22-32.87-36.9-10.52-12.67-20.46-25.79-30.12-39.1-9.67-13.31-18.9-26.92-27.82-40.73-8.92-13.8-17.54-27.8-25.84-41.98-8.29-14.19-16.29-28.53-23.97-43.06-7.67-14.53-15.11-29.16-22-44.11-.32-.7-.02-1.53.68-1.86.7-.32,1.52-.02,1.85.67v.02Z"/>
      </g>
      <g>
        <path class="cls-38" d="M2112.68,1224.34c12.59,62.43,71.02,428.72-262.85,545.3,0,0-100.55-231.24,253.99-548.26,3.1-2.77,8.04-1.11,8.87,2.97Z"/>
        <path class="cls-57" d="M2085.94,1282.25c-3.19,21.25-7.29,42.29-11.77,63.27-4.5,20.97-9.51,41.83-15.05,62.55-5.54,20.72-11.6,41.31-18.2,61.73-1.69,5.09-3.28,10.22-5.05,15.28l-5.27,15.21c-3.7,10.07-7.32,20.18-11.33,30.14-3.83,10.03-8.1,19.89-12.27,29.78l-6.59,14.7c-2.15,4.92-4.61,9.71-6.89,14.57-9.38,19.33-19.44,38.37-30.79,56.67l-4.2,6.9-4.44,6.75-4.44,6.75-2.22,3.37-2.36,3.28-9.45,13.12-10.03,12.69c-13.68,16.68-28.62,32.39-45.1,46.47-1.39,1.19-3.47,1.02-4.66-.36-1.19-1.39-1.02-3.47.36-4.66l.02-.02.04-.03c16.21-13.65,31-28.97,44.6-45.29l9.98-12.44,9.43-12.88,2.35-3.22,2.22-3.32,4.44-6.64,4.44-6.64,4.2-6.8c11.37-18.03,21.49-36.84,30.95-55.97,2.31-4.81,4.78-9.54,6.96-14.42l6.66-14.57c4.22-9.81,8.54-19.58,12.42-29.53,4.06-9.88,7.74-19.92,11.5-29.92l5.36-15.11c1.81-5.03,3.42-10.13,5.15-15.18,6.73-20.29,12.92-40.77,18.59-61.39,5.67-20.62,10.83-41.39,15.47-62.27,4.62-20.88,8.87-41.88,12.19-62.97v-.03c.12-.76.84-1.28,1.6-1.16.76.12,1.28.83,1.17,1.59Z"/>
      </g>
      <g>
        <path class="cls-7" d="M2165.11,1528.77c-9.94,44.66-77.48,301.95-310.11,274.82,0,0,4.51-182.12,305.63-279.5,2.63-.85,5.13,1.76,4.48,4.68Z"/>
        <path class="cls-57" d="M2133.29,1558.49c-7.65,12.31-15.74,24.26-24.02,36.11-8.29,11.84-16.84,23.49-25.62,34.97-8.79,11.47-17.84,22.76-27.13,33.83-9.29,11.08-18.84,21.96-28.73,32.52-9.88,10.57-19.99,20.95-30.56,30.86-10.55,9.92-21.36,19.61-32.73,28.64-22.6,18.18-47.07,34.36-73.83,46.28-1.67.74-3.62,0-4.36-1.67-.74-1.67,0-3.62,1.67-4.36,0,0,.01,0,.02,0l.06-.03c26.14-11.3,50.41-26.92,72.93-44.64,11.33-8.79,22.14-18.27,32.71-27.99,10.59-9.71,20.74-19.91,30.68-30.3,9.95-10.39,19.56-21.11,28.93-32.03,9.37-10.92,18.51-22.06,27.39-33.39,8.87-11.34,17.53-22.86,25.92-34.57,8.37-11.71,16.59-23.58,24.31-35.69v-.02c.43-.65,1.29-.84,1.94-.43.65.41.84,1.27.44,1.92Z"/>
      </g>
      <g>
        <g>
          <g>
            <path class="cls-35" d="M455.6,1517.77h448.16s0-76.79,0-76.79h-448.16c9.59,0,9.59,76.79,0,76.79Z"/>
            <path class="cls-39" d="M903.76,1498.56v-35.14c0-12.39-8.86-22.43-19.78-22.43h-426.48c-8.59,0-15.56-5.96-15.56-13.32,0-2.23,2.12-4.05,4.73-4.05h466.11c10.69,0,27.66,14.39,27.66,32.14v49.08c0,16.73-16.48,30.3-26.55,30.3h-464.77c-3.96,0-7.18-2.75-7.18-6.15,0-6.2,5.87-11.22,13.1-11.22h431.77c9.36,0,16.95-8.6,16.95-19.22Z"/>
          </g>
          <path class="cls-38" d="M891.33,1458.39h-420.21c-.91,0-1.65-.74-1.65-1.65s.74-1.65,1.65-1.65h420.21c.91,0,1.65.74,1.65,1.65s-.74,1.65-1.65,1.65Z"/>
          <path class="cls-38" d="M891.33,1469.79h-420.21c-.91,0-1.65-.74-1.65-1.65s.74-1.65,1.65-1.65h420.21c.91,0,1.65.74,1.65,1.65s-.74,1.65-1.65,1.65Z"/>
          <path class="cls-38" d="M891.33,1481.19h-420.21c-.91,0-1.65-.74-1.65-1.65s.74-1.65,1.65-1.65h420.21c.91,0,1.65.74,1.65,1.65s-.74,1.65-1.65,1.65Z"/>
          <path class="cls-38" d="M891.33,1492.59h-420.21c-.91,0-1.65-.74-1.65-1.65s.74-1.65,1.65-1.65h420.21c.91,0,1.65.74,1.65,1.65s-.74,1.65-1.65,1.65Z"/>
          <path class="cls-38" d="M891.33,1503.98h-420.21c-.91,0-1.65-.74-1.65-1.65s.74-1.65,1.65-1.65h420.21c.91,0,1.65.74,1.65,1.65s-.74,1.65-1.65,1.65Z"/>
        </g>
        <g>
          <rect class="cls-39" x="309.79" y="1683.83" width="711.49" height="150.16" rx="17.84" ry="17.84"/>
          <rect class="cls-38" x="390.2" y="1701.09" width="83.58" height="115.64" rx="6.43" ry="6.43"/>
        </g>
        <g>
          <path class="cls-38" d="M964.57,1543.48v25.86c0,4.44-2.31,8.66-6.34,11.56l-3.98,2.87c-3.27,2.36-2.58,6.73,1.3,8.31h0c2.56,1.04,3.04,3.92.91,5.5l-5.02,3.73c-3.28,2.44-3.29,6.71-.01,9.16l3.6,2.69c3.11,2.32,3.02,6.4-.19,8.63l-3.87,2.68c-2.68,1.86-3.13,5.16-1.02,7.48l2.13,2.33c1.53,1.67,2.35,3.72,2.35,5.82v40.84H429.81v-139.91l534.77,2.46Z"/>
          <path class="cls-42" d="M447.98,1573.43h498.2c1.09,0,1.97-.73,1.97-1.64s-.88-1.64-1.97-1.64h-498.2c-1.09,0-1.97.73-1.97,1.64s.88,1.64,1.97,1.64Z"/>
          <path class="cls-63" d="M447.98,1597.78h486.41c1.09,0,1.97-.73,1.97-1.64s-.88-1.64-1.97-1.64h-486.41c-1.09,0-1.97.73-1.97,1.64s.88,1.64,1.97,1.64Z"/>
          <path class="cls-15" d="M447.98,1615.71h480.36c1.09,0,1.97-.73,1.97-1.64s-.88-1.64-1.97-1.64h-480.36c-1.09,0-1.97.73-1.97,1.64s.88,1.64,1.97,1.64Z"/>
          <path class="cls-10" d="M420.29,1532.1h555.76c4.23,0,8.02,2.58,8.42,6.09.46,4.03-3.33,7.42-8.07,7.42H461.07c-9.05,0-16.87,5.28-18.75,12.66-8.43,33.07-7.79,67.49.15,103.01,1.84,8.24,10.49,14.21,20.54,14.21h502.86c4.23,0,8.02,2.58,8.42,6.09.46,4.03-3.33,7.42-8.07,7.42H423.97c-12.96,0-24.13-7.71-26.44-18.35-9.36-43.09-10.18-84.45,0-123.58,2.28-8.77,11.69-14.98,22.46-14.98h.3Z"/>
        </g>
      </g>
      <g>
        <g>
          <path class="cls-40" d="M1922.21,1744.15c0,13.87-10.43,25.21-23.17,25.21H645.84c-12.75,0-23.17-11.35-23.17-25.21l-10.43-784.25c0-13.87,15-40.94,42.5-38.9l1224.76-34.51c15.99-.45,31.46,6.25,42.78,18.55,11.33,12.29,17.52,29.1,17.14,46.5l-17.21,792.62Z"/>
          <path class="cls-49" d="M1899.33,1719.96c0,13.13-9.87,23.88-21.92,23.88H676.06c-12.06,0-21.92-10.74-21.92-23.88l-9.84-711.95c1.16-42.84,35.65-58.24,56.56-57.33,0,0,957.26-27.97,1173.82-34.29,11.24-.33,22.1,4.39,30.06,13.03,7.96,8.64,12.33,20.47,12.05,32.71l-17.46,757.84Z"/>
          <g>
            <path class="cls-43" d="M667.12,1379.89c-.9,0-1.64-.72-1.65-1.63l-.78-57.74c-.01-.91.72-1.66,1.63-1.67.9-.03,1.66.72,1.67,1.63l.78,57.74c.01.91-.72,1.66-1.63,1.67h-.02Z"/>
            <path class="cls-62" d="M665.21,1238.4c-.9,0-1.64-.72-1.65-1.63l-2.98-221.14c.06-15.41,4.64-27.55,13.6-36.11,14.87-14.2,36.93-13.45,37.85-13.42l374.85-10.95c.96-.04,1.67.69,1.7,1.6.03.91-.69,1.67-1.6,1.7l-374.95,10.95c-1.01-.04-21.7-.74-35.56,12.5-8.28,7.91-12.51,19.25-12.57,33.7l2.98,221.11c.01.91-.72,1.66-1.63,1.67h-.02Z"/>
          </g>
          <g class="cls-65">
            <path class="cls-39" d="M707.07,1680.46c1.26-58.84.79-579.92-2.31-624.92-3.1-45,61.26-53.44,160.08-58.51,98.81-5.06,932.55-25.12,954.02-27.01,48.25-4.26,58.24,74.28,53.41,244.78-3.63,128.1-9.64,339.12-12.4,436.16-.82,28.9-22.51,51.82-49.06,51.9-200.63.6-969.59,3-1020.78,4.66-58.91,1.91-83.45-3.74-82.95-27.07Z"/>
          </g>
        </g>
        <rect class="cls-14" x="546.41" y="1765.56" width="1477.46" height="68.91" rx="6.66" ry="6.66"/>
        <g>
          <path class="cls-2" d="M1771.24,1609.39h-962.86c-13.87,0-24.74-11.48-24.74-26.13v-494.48c0-14.32,10.79-25.74,24.57-26l962.72-17.91c6.75-.1,13.19,2.52,18.08,7.46,4.82,4.87,7.58,11.63,7.58,18.54v512.39c0,14.41-11.38,26.13-25.36,26.13ZM808.27,1066.07c-11.96.22-21.33,10.19-21.33,22.7v494.48c0,12.8,9.42,22.83,21.44,22.83h962.86c12.16,0,22.06-10.24,22.06-22.83v-512.39c0-6.05-2.42-11.96-6.63-16.22-4.25-4.29-9.79-6.56-15.67-6.48l-962.72,17.91Z"/>
          <rect class="cls-20" x="825.22" y="1132.38" width="600.85" height="372.68" rx="18.52" ry="18.52"/>
          <g>
            <path class="cls-34" d="M1694.16,1255.72h-204.2c-13.29,0-23.71-10.47-23.71-23.83v-77.7c0-13.16,10.41-23.46,23.71-23.46h204.2c14.06,0,26.38,10.96,26.38,23.46v77.7c0,12.69-12.33,23.83-26.38,23.83ZM1489.96,1134.03c-11.63,0-20.4,8.67-20.4,20.16v77.7c0,10.09,7.63,20.53,20.4,20.53h204.2c12.08,0,23.08-9.78,23.08-20.53v-77.7c0-10.74-10.79-20.16-23.08-20.16h-204.2Z"/>
            <path class="cls-13" d="M1694.16,1411.64h-204.2c-13.51,0-23.71-9.94-23.71-23.13v-77.7c0-15.13,12.05-24.17,23.71-24.17h204.2c13.81,0,26.38,11.52,26.38,24.17v77.7c0,12.54-12.08,23.13-26.38,23.13ZM1489.96,1289.95c-12.77,0-20.4,10.61-20.4,20.86v77.7c0,11.3,8.77,19.82,20.4,19.82h204.2c12.3,0,23.08-9.26,23.08-19.82v-77.7c0-10.92-11-20.86-23.08-20.86h-204.2Z"/>
            <path class="cls-25" d="M1694.16,1567.56h-204.2c-13.74,0-23.71-9.43-23.71-22.42v-77.7c0-11.96,9.06-24.87,23.71-24.87h204.2c13.81,0,26.38,11.85,26.38,24.87v77.7c0,12.36-11.84,22.42-26.38,22.42ZM1489.96,1445.86c-12.6,0-20.4,11.19-20.4,21.57v77.7c0,11.08,8.58,19.12,20.4,19.12h204.2c12.51,0,23.08-8.76,23.08-19.12v-77.7c0-11.09-11.22-21.57-23.08-21.57h-204.2Z"/>
          </g>
          <path class="cls-7" d="M1212.43,1529.49c-57.47-.14-317.99-.74-375.58-.2-6.2.06-11.63,5.09-11.63,11.29v6.3c0,6.14,4.93,11.15,11.07,11.29l375.02,8.61c3.04.07,6.81-1.09,8.99-3.21,2.17-2.13,4.23-5.04,4.23-8.08v-14.71c0-6.23-5.86-11.28-12.09-11.29Z"/>
          <path class="cls-3" d="M1794.95,1099.81h-1009.65c-.91,0-1.65-.74-1.65-1.65s.74-1.65,1.65-1.65h1009.65c.91,0,1.65.74,1.65,1.65s-.74,1.65-1.65,1.65Z"/>
          <path class="cls-29" d="M1673.13,1084.59h-1.65c-6.22,0-11.29-5.06-11.29-11.29v-1.65c0-6.22,5.06-11.29,11.29-11.29h1.65c6.22,0,11.29,5.06,11.29,11.29v1.65c0,6.22-5.06,11.29-11.29,11.29ZM1671.48,1063.68c-4.4,0-7.98,3.58-7.98,7.98v1.65c0,4.4,3.58,7.98,7.98,7.98h1.65c4.4,0,7.98-3.58,7.98-7.98v-1.65c0-4.4-3.58-7.98-7.98-7.98h-1.65Z"/>
          <path class="cls-29" d="M1716.86,1084.59h-1.65c-6.22,0-11.29-5.06-11.29-11.29v-1.65c0-6.22,5.06-11.29,11.29-11.29h1.65c6.22,0,11.29,5.06,11.29,11.29v1.65c0,6.22-5.06,11.29-11.29,11.29ZM1715.22,1063.68c-4.4,0-7.98,3.58-7.98,7.98v1.65c0,4.4,3.58,7.98,7.98,7.98h1.65c4.4,0,7.98-3.58,7.98-7.98v-1.65c0-4.4-3.58-7.98-7.98-7.98h-1.65Z"/>
          <path class="cls-29" d="M1762.49,1084.59h-1.65c-6.22,0-11.29-5.06-11.29-11.29v-1.65c0-6.22,5.06-11.29,11.29-11.29h1.65c6.22,0,11.29,5.06,11.29,11.29v1.65c0,6.22-5.06,11.29-11.29,11.29ZM1760.85,1063.68c-4.4,0-7.98,3.58-7.98,7.98v1.65c0,4.4,3.58,7.98,7.98,7.98h1.65c4.4,0,7.98-3.58,7.98-7.98v-1.65c0-4.4-3.58-7.98-7.98-7.98h-1.65Z"/>
          <g>
            <path class="cls-53" d="M1350.89,1486.13c-30.89,0-55.97-25.08-55.97-55.91s25.08-55.97,55.91-55.97,55.97,25.08,55.97,55.91v.06c0,30.83-25.08,55.91-55.91,55.91ZM1350.89,1377.55c-29.07,0-52.67,23.6-52.67,52.61s23.6,52.67,52.61,52.67,52.67-23.6,52.67-52.61v-.06c0-29.01-23.6-52.61-52.61-52.61Z"/>
            <path class="cls-4" d="M1335.44,1458.29c-1.56,0-2.85-1.25-2.89-2.82l-1.32-49.39c-.04-1.63.74-3.13,2.11-4.03,1.36-.89,3.06-1.02,4.53-.32l48.79,22.82c1.61.75,2.64,2.32,2.69,4.1.05,1.78-.9,3.4-2.47,4.24l-43.07,22.96c-1.41.75-3.17.22-3.92-1.19-.75-1.41-.22-3.17,1.19-3.92l41.07-21.9-45.09-21.09,1.27,47.56c.04,1.6-1.22,2.93-2.82,2.97-.03,0-.05,0-.08,0Z"/>
          </g>
          <g>
            <path class="cls-33" d="M1092.13,1362.48c18.64-48.86,70.11-75.95,117.83-60.87,5.12,1.62,10,3.66,14.61,6.08,16.02,19.05,22.27,45.62,14.21,71.11-12.51,39.6-54.76,61.57-94.36,49.05-29.94-9.46-49.78-35.91-52.29-65.37Z"/>
            <circle class="cls-9" cx="1129.17" cy="1267.93" r="110.09" transform="translate(-565.84 1169.81) rotate(-45)"/>
            <path class="cls-26" d="M1105.24,1198.08c43.32,23.71,58.95,78.54,34.92,122.45-7.01,12.8-16.61,23.25-27.78,31.06,38.65,9.67,80.67-7.78,100.95-44.81,24.04-43.91,8.41-98.74-34.92-122.45-30.7-16.8-67.05-13.47-94.19,5.51,7.18,1.8,14.24,4.52,21.02,8.24Z"/>
            <path class="cls-21" d="M1054.18,1334.07c39.98-33.7,48.6-91.22,18.64-131.3-3.22-4.3-6.75-8.23-10.55-11.79-23.26-8.85-50.41-5.99-71.82,10.02-33.27,24.86-40.08,71.99-15.21,105.26,18.8,25.15,50.32,35.17,78.95,27.82Z"/>
            <path class="cls-22" d="M1061.25,1202.67c4.53,6,10,15.16,12.61,26.87,1.93,8.67-5.28,16.62-14.12,15.7-22.43-2.34-62.1-1.15-69.84,34.66-1.25,5.78-9.43,6.04-11.1.37-8.19-27.72-6.49-80.25,65.57-85.29,6.55-.46,12.92,2.44,16.88,7.69Z"/>
            <path class="cls-11" d="M1172.35,1419.04c-.74,0-1.41-.5-1.6-1.24-.23-.88.31-1.78,1.19-2.01,28.83-7.39,46.87-23,53.61-46.4,5.04-17.47,1.57-32.91,1.53-33.07-.21-.89.35-1.78,1.24-1.98.89-.21,1.77.35,1.98,1.24.15.65,14.17,65.04-57.55,83.41-.14.04-.28.05-.41.05Z"/>
          </g>
          <g class="cls-66">
            <path class="cls-7" d="M1176.66,1285.32c.77,0,1.54-.28,2.14-.85l42.36-40.12c3.68-3.49,8.51-5.41,13.58-5.41h144.17c1.72,0,3.12-1.4,3.12-3.12s-1.4-3.12-3.12-3.12h-144.17c-6.68,0-13.02,2.53-17.87,7.12l-42.36,40.12c-1.25,1.18-1.3,3.16-.12,4.41.61.65,1.44.97,2.27.97Z"/>
            <path class="cls-7" d="M1256.88,1219.59h122.03c1.72,0,3.12-1.4,3.12-3.12s-1.4-3.12-3.12-3.12h-122.03c-1.72,0-3.12,1.4-3.12,3.12s1.4,3.12,3.12,3.12Z"/>
            <path class="cls-7" d="M1276.73,1200.24h102.18c1.72,0,3.12-1.4,3.12-3.12s-1.4-3.12-3.12-3.12h-102.18c-1.72,0-3.12,1.4-3.12,3.12s1.4,3.12,3.12,3.12Z"/>
          </g>
          <g class="cls-66">
            <path class="cls-7" d="M1094.54,1346.64c-.84,0-1.68.31-2.33.93l-46.03,43.6c-4,3.79-9.24,5.88-14.76,5.88h-156.66c-1.87,0-3.39,1.52-3.39,3.39s1.52,3.39,3.39,3.39h156.66c7.26,0,14.15-2.75,19.42-7.74l46.03-43.6c1.36-1.29,1.42-3.43.13-4.79-.67-.7-1.56-1.06-2.46-1.06Z"/>
            <path class="cls-7" d="M1007.37,1418.07h-132.61c-1.87,0-3.39,1.52-3.39,3.39s1.52,3.39,3.39,3.39h132.61c1.87,0,3.39-1.52,3.39-3.39s-1.52-3.39-3.39-3.39Z"/>
            <path class="cls-7" d="M985.79,1439.09h-111.03c-1.87,0-3.39,1.52-3.39,3.39s1.52,3.39,3.39,3.39h111.03c1.87,0,3.39-1.52,3.39-3.39s-1.52-3.39-3.39-3.39Z"/>
          </g>
        </g>
      </g>
      <g>
        <path class="cls-51" d="M1540.26,799.95l-44.34,97.08s24.56,162.2,195.44,225.41c170.88,63.22,246.92-18.92,246.92-18.92l54.38-143.09-452.41-160.48Z"/>
        <path class="cls-23" d="M1819.63,665.54l-357.47,68.18c-18.41,3.51-25.56,26.45-12.48,40.02,63.83,66.23,208.58,220.15,260.91,306.72,5.6,9.26,16.69,13.43,26.91,10.16l365.93-116.96c16.55-5.29,21.94-26.37,9.98-39.11-63.07-67.17-223.78-235.6-278.14-266.46-4.75-2.7-10.29-3.58-15.64-2.56Z"/>
        <path class="cls-52" d="M1795.94,847.92s175.4,135.73,187.16,164.21c11.77,28.49-27.67,149.7-27.67,149.7,20.03,107.35,14.33,221.47-40.36,276.57,0,0-48.8-143.17-16.45-198.79,32.35-55.63,44.94-78.49,44.94-78.49,0,0,35.46-129.8,29.59-149.33,0,0-193.66-157.72-177.22-163.86Z"/>
        <path class="cls-7" d="M1505.89,771.09l162.4,194.28,40.6,48.57,10.15,12.14,5.08,6.07c1.63,1.92,3.37,3.66,5.32,5.21,7.8,6.16,18.43,8.53,28.13,6.19l122.97-30.05c.86-.21,1.73.32,1.94,1.18.21.86-.31,1.72-1.17,1.94l-122.8,30.88c-10.86,2.7-22.85.12-31.69-6.77-2.2-1.72-4.22-3.71-6.01-5.8l-5.12-6.04-10.23-12.07-40.93-48.3-163.7-193.18c-1.18-1.39-1.01-3.48.38-4.66,1.39-1.18,3.48-1.01,4.66.38v.02Z"/>
        <path class="cls-7" d="M1935.98,1223.89l-.41.37-.47.47-.94.95-1.82,2.09c-1.2,1.41-2.28,2.97-3.43,4.45l-3.1,4.76c-.97,1.63-1.85,3.32-2.79,4.98-.98,1.64-1.73,3.4-2.53,5.14-.78,1.75-1.64,3.46-2.36,5.24l-2.01,5.41c-.66,1.81-1.4,3.59-1.87,5.46l-1.6,5.56c-.52,1.86-1.13,3.69-1.46,5.6-.77,3.79-1.62,7.57-2.34,11.37l-1.55,11.54c-.12.96-.29,1.92-.36,2.89l-.19,2.91-.37,5.82c-.74,7.76-.36,15.56-.42,23.36-.04,1.95.1,3.9.24,5.84l.39,5.84c.28,3.89.48,7.8.83,11.69,1.03,7.75,1.9,15.52,3.06,23.26l4.3,23.1v.06c.13.62-.28,1.22-.91,1.34-.61.11-1.21-.29-1.33-.89l-4.85-23.12c-1.35-7.76-2.41-15.58-3.62-23.37-.44-3.92-.73-7.86-1.1-11.79l-.53-5.9c-.19-1.97-.38-3.93-.38-5.91-.12-7.9-.68-15.81-.12-23.73l.24-5.94.12-2.97c.06-.99.2-1.97.3-2.96l1.32-11.84c.65-3.92,1.43-7.83,2.14-11.75.3-1.97.88-3.89,1.37-5.82l1.53-5.79c.45-1.95,1.17-3.82,1.81-5.72l1.97-5.68c.71-1.88,1.57-3.7,2.35-5.55.8-1.85,1.56-3.71,2.55-5.48.95-1.78,1.85-3.59,2.84-5.36l3.21-5.18c1.21-1.65,2.35-3.35,3.65-4.96l2-2.4,1.1-1.17.56-.59.67-.63c1.33-1.25,3.42-1.19,4.67.14,1.25,1.33,1.19,3.42-.14,4.67-.01.01-.02.02-.03.03l-.19.17Z"/>
        <path class="cls-7" d="M1937.22,1273.35l-.67,7.5-.66,8.32-1.23,16.68-2.33,33.38-4.47,66.79c-.06.99-.92,1.74-1.91,1.68-.98-.06-1.72-.9-1.68-1.87l2.96-66.88,1.58-33.44.86-16.73.47-8.38.28-4.21.15-2.12c.08-.88.23-1.9.4-2.83.31-1.75,1.97-2.92,3.72-2.61,1.66.29,2.79,1.8,2.65,3.44l-.12,1.3Z"/>
      </g>
      <g>
        <g>
          <path class="cls-44" d="M594.32,1687.53c-3.09,4.57-15.38,108.16-17.3,146.41-.13,2.59,1.94,4.74,4.53,4.74h0c2.23,0,4.13-1.63,4.48-3.83l22.47-144.03-14.18-3.29Z"/>
          <path class="cls-60" d="M693.11,1687.53c3.09,4.57,15.38,108.16,17.3,146.41.13,2.59-1.94,4.74-4.53,4.74h0c-2.23,0-4.13-1.63-4.48-3.83l-22.48-144.03,14.18-3.29Z"/>
          <path class="cls-58" d="M575.73,1679.45v1.13c-.08,8.13,6.92,14.79,15.68,14.94l103.88,1.77c8.64.15,15.84-6.1,16.26-14.1l.05-1.03c.44-8.34-6.65-15.37-15.66-15.53l-103.93-1.86c-8.89-.16-16.22,6.44-16.29,14.69Z"/>
        </g>
        <g>
          <g>
            <path class="cls-39" d="M777.83,1830.18c-18.47,0-26.64-1.58-30.29-3.03.71,3.03,3.41,5.43,6.82,5.43h65.33c2.2,0,3.59-2.11,3.06-4.01-7.45.6-23.26,1.61-44.93,1.61Z"/>
            <path class="cls-55" d="M822.75,1828.56c-.11-.38-.26-.76-.53-1.11-4.98-6.35-14.97-16.33-28.57-16.14-19.92.28-26.87,2.44-42.35.12l-3.65,12.11c-.37,1.23-.38,2.47-.11,3.61,3.65,1.44,11.82,3.03,30.29,3.03,21.66,0,37.48-1.02,44.93-1.61Z"/>
          </g>
          <path class="cls-16" d="M755.78,1798.39l-4.48,15.25s9.93,4.52,18.67.89l1.72-13.21-15.9-2.93Z"/>
          <g>
            <path class="cls-39" d="M891.19,1820.58c-14.4,11.57-21.75,15.46-25.5,16.62,2.44,1.91,6.04,2.07,8.7-.06l50.93-40.92c1.71-1.38,1.48-3.88-.11-5.03-5.43,5.13-17.13,15.82-34.02,29.39Z"/>
            <path class="cls-32" d="M925.2,1791.18c-.32-.23-.68-.43-1.11-.53-7.84-1.81-21.85-3.29-32.33,5.37-15.35,12.7-19.42,18.72-32.94,26.62l4.7,11.68c.48,1.19,1.24,2.15,2.16,2.87,3.75-1.17,11.11-5.06,25.5-16.62,16.89-13.57,28.58-24.26,34.02-29.39Z"/>
          </g>
          <path class="cls-5" d="M659.88,1624.68s110.56,9.03,133.24,19.7c22.68,10.68-18.51,160.32-18.51,160.32,0,0-6.17,2.97-19.91-1.3,0,0,14.09-110.43,3.61-134.38l-119.71-19.58,21.29-24.77Z"/>
          <path class="cls-17" d="M847.84,1801.63c1.03.94,10.99,21.02,10.99,21.02,0,0,11.09-2.4,13.35-9.41l-9.98-18.13-14.36,6.52Z"/>
          <path class="cls-30" d="M593.29,1623.76s-3.6,8.67-3.46,20.19c.2,15.93,13.01,28.86,28.93,29.66l130.7,5.96c2.76.13,5.1,2.04,5.79,4.71,3.07,11.88,18.08,48.36,91.47,121.16,1.95,1.94,4.99,2.27,7.32.8l10.45-6.6c1.1-.69,1.45-2.13.79-3.25l-76.1-129.95c-4-6.6-10.42-11.36-17.89-13.27l-111.4-28.48-66.59-.92Z"/>
          <path class="cls-46" d="M722.1,1420.75s-14,24.76-28.28,36.75l29.51,16.46s6.65-26.21,21.84-33.88l-23.07-19.33Z"/>
          <path class="cls-64" d="M590.92,1624.68s35.28,8.6,68.96,0c0,0,47.13-63.35,65.36-80.6,0,0,29.08,45.89,93.81,52.4l3.61-8.07s-51.53-23.76-67.4-60.26c-15.86-36.5-22.24-52.07-36.67-61.59-8.99-5.93-14.37-9.98-17.15-12.2-1.52-1.21-3.62-1.35-5.29-.34-15.32,9.33-87.39,58.7-105.24,170.65Z"/>
          <path class="cls-1" d="M723.33,1542.58c-.5,0-.99-.22-1.31-.65-11.18-14.58-17.41-30.65-17.67-31.33-.33-.85.1-1.81.95-2.13.85-.33,1.81.1,2.13.95.06.16,6.33,16.31,17.21,30.5.55.72.42,1.76-.31,2.32-.3.23-.65.34-1,.34Z"/>
          <path class="cls-41" d="M815.17,1584.2l7.29-1.94,22.12-5.12c2.66-.62,5.46-.14,7.78,1.31l19.02,11.97-52.53-.09-3.68-6.13Z"/>
          <g>
            <path class="cls-19" d="M744.33,1383.63s13.61,22.62,15.97,35.12c2.36,12.5,6.15,20.32-8.08,24.77s-27.45-1.18-35.75-12.85c0,0-12.96-17.96-11.67-26.18s39.53-20.86,39.53-20.86Z"/>
            <path class="cls-18" d="M720.26,1421l1.84-.24s-9.64-14.56-3.33-18.17c6.3-3.61,32-12.47,36.46-22.59,4.3-9.75-2.13-20.77-9.89-23.07-.49-.15-1.01.14-1.19.62l-.46,1.23c-.31.84-1.49.88-1.85.05h0c-.34-.78-1.46-.81-1.81-.04-1.37,3.03-5.5,8.21-17.85,12.21-17.53,5.68-28.45,14.52-27.11,26.98.09.79-.7,1.33-1.42,1.01-1.43-.63-3.61-.73-6.13,2.03-4.39,4.8-.95,15.29,11.03,22.72.57.35.67,1.16.16,1.59-1.79,1.53-4.31,4.96,3.79,8.01,8.29,3.12,12.82,2.06,14.49,1.39.45-.18.71-.65.61-1.12l-2.13-10.91c-.11-.56.28-1.11.85-1.18l3.92-.52Z"/>
            <path class="cls-12" d="M721.01,1423.24s-6-14.8-12.31-9.6c-6.31,5.2,5.83,16.7,11.43,16.55l.88-6.95Z"/>
          </g>
        </g>
        <g>
          <path class="cls-24" d="M794.87,1600.72c.09,0,.17,0,.26,0l112.22-.11c2.77,0,5.02-2.25,5.02-5.02,0-2.77-2.26-5.06-5.03-5.01l-112.22.11c-2.77,0-5.02,2.25-5.02,5.02,0,2.68,2.12,4.87,4.77,5Z"/>
          <path class="cls-56" d="M950.81,1490.82c-.04.08-.08.15-.11.23l-47.22,101.8c-1.17,2.52-.08,5.5,2.43,6.67,2.51,1.17,5.54.08,6.66-2.45l47.22-101.8c1.17-2.52.08-5.5-2.43-6.67-2.43-1.13-5.31-.13-6.55,2.22Z"/>
        </g>
        <g>
          <path class="cls-38" d="M844.84,1606.35c-.49,2.03-47.31,177.65-59.19,222.17-1.37,5.13,2.45,10.17,7.7,10.17h0c3.66,0,6.85-2.52,7.74-6.12l51.98-210.75-8.24-15.47Z"/>
          <path class="cls-38" d="M870.48,1606.35c.49,2.03,47.31,177.65,59.19,222.17,1.37,5.13-2.45,10.17-7.7,10.17h0c-3.66,0-6.85-2.52-7.74-6.12l-51.98-210.75,8.24-15.47Z"/>
          <path class="cls-38" d="M872.43,1600.61h-29.16v23.42c0,3.37,2.7,6.09,6.02,6.09h4v52.6c0,2.55,2.04,4.61,4.56,4.61h0c2.52,0,4.56-2.07,4.56-4.61v-52.6h2.03c4.41,0,7.99-3.62,7.99-8.09v-21.43Z"/>
          <path class="cls-7" d="M771.56,1594.98h162.84c2.28,0,4.26,1.56,4.83,3.79l2.27,8.91c.82,3.21-1.59,6.33-4.86,6.31l-167.09-.97c-3.24-.02-5.6-3.11-4.81-6.28l1.98-7.94c.56-2.24,2.55-3.82,4.84-3.82Z"/>
        </g>
      </g>
      <g>
        <g>
          <path class="cls-37" d="M1706.19,1488.93c-.24.46-15.55,11.73-15.55,11.73,0,0,3.38,24.19,17.11,33.74,15.1,10.5,36.41-8.65,36.41-8.65,0,0,16.97,4.03,25.99-31.28,2.07-8.1-9.88-8.79-24.3-7.3-18.6,1.92-39.66,1.76-39.66,1.76Z"/>
          <path class="cls-7" d="M1677.57,1571.46c5.99-4.12,12.61-7.22,19.63-9.13,2.64-.72,16.88,3.42,25.68,3.22,12.08-.28,24.38-5.78,34.34-3.29,9.89,2.47,17.99,5.69,22.67,9.01,13.99,9.95,22.21,28.51,27.22,46.89-9.48,9.73-21.41,14.06-21.41,14.06l-2.2,89.36-52.84,27.03-60.31-30.28,2.16-87.32s-19.15-8.92-20.56-12.16c-1.41-3.24,8.73-35.76,25.62-47.38Z"/>
          <path class="cls-59" d="M1652.84,1618.45s-25.66,71.15,32.86,100.39c12.15-1.61,7.48-21.79,7.48-21.79,0,0-25.43-5.63-17.79-64.98-7.03-5.78-22.54-13.62-22.54-13.62Z"/>
          <path class="cls-50" d="M1805.87,1618.45s17.66,74.27-32.86,100.39c-12.15-1.61-7.48-21.79-7.48-21.79,0,0,20.49-10.09,17.79-64.98,7.03-5.78,22.54-13.62,22.54-13.62Z"/>
          <rect class="cls-47" x="1669.65" y="1645.59" width="115.87" height="78.25" rx="7.4" ry="7.4"/>
          <g>
            <path class="cls-38" d="M1836.33,1747.03c-13.26-3.04-43.91-1.41-43.91-1.41l-1.25,3.38-2.06,16.78s29.19,5.26,43.57,5.25c1.47,0,2.81-.22,4.04-.6.44-.39.87-.8,1.27-1.24,6.1-6.67,4.34-16.46-1.66-22.15Z"/>
            <path class="cls-48" d="M1783.62,1744.68l5.19.22c2.79.12,5.42,1.48,7.29,3.77,1.87,2.29,2.84,5.32,2.67,8.41-.13,2.46-1.14,4.77-2.81,6.4-1.67,1.63-3.85,2.46-6.07,2.31l-7.94-.57,1.67-20.55Z"/>
          </g>
          <g>
            <path class="cls-38" d="M1609.12,1745.42c13.33-2.64,43.93-.06,43.93-.06l1.16,3.41,1.64,16.84s-29.31,4.36-43.69,3.91c-1.47-.05-2.8-.31-4.02-.73-.43-.41-.85-.83-1.24-1.28-5.93-6.85-3.93-16.58,2.22-22.09Z"/>
            <path class="cls-31" d="M1661.87,1744.69l-5.19.06c-2.79.03-5.45,1.31-7.38,3.54-1.93,2.23-2.97,5.24-2.88,8.33.07,2.47,1.02,4.8,2.65,6.48,1.63,1.68,3.79,2.58,6.01,2.49l7.95-.32-1.15-20.59Z"/>
          </g>
          <path class="cls-54" d="M1840.04,1694.43c-6.01-13.84-20.72-16.09-33.24-9.62-.22.29-79.5,40.92-149.41,58.72,2,6.42,3.03,13.24,3.25,19.96.04,1.5.02,2.97-.07,4.42,53.61-2.75,111.8-20.63,161.8-36.35,15.51-5,24.33-21.8,17.67-37.14Z"/>
          <path class="cls-36" d="M1784,1764.55c-.21-7.74,1.29-14.94,4.51-21.6.09-.31.2-.6.3-.9-3.99-1.24-9.15-2.91-15.93-5.21-49.65-16.99-87.52-34.15-123.67-53.89-14.04-7.67-30.01-2.53-34.5,14.09-4.01,14.83,4.8,27.5,18.17,31.95,40.01,13.31,19.18,9.62,32.25,13.82,35.1,10.85,78.77,20.74,118.95,23.44-.03-.56-.06-1.12-.08-1.68Z"/>
          <path class="cls-45" d="M1697.2,1562.33s5.34,23.14,31.26,22.66c26.4-.48,28.76-22.73,28.76-22.73l-17.25-3.69-1.44-19.22-25.94,1.92-.48,18.26-14.91,2.81Z"/>
          <path class="cls-27" d="M1716.23,1484.89s-29.73,57.59,5.54,71.56c24.88,9.86,40.47-38.24,35.82-51.27-7.19-20.14-11.93-17.75-11.93-17.75l-29.43-2.54Z"/>
          <path class="cls-28" d="M1764.74,1479.65c14.69,4.04,2.14,35.89-19.98,28.36-22.11-7.53-30.8-7.42-34.25-1.35-3.45,6.07-4.19,27.64-11.66,16.98-8.2-11.68-12.77-35.14-2.72-42.7,8.98-6.76,11.08-17.23,21.85-16.87,14.3.48,25.36-5.86,31.81-1.29,7.41,5.25,4.14,13.9,14.94,16.87Z"/>
          <path class="cls-61" d="M1709.16,1511.61s-6.34-6.82-7.36,1.4c-1.02,8.22,2.24,18.81,6.06,13.01,3.82-5.8,1.29-14.41,1.29-14.41Z"/>
        </g>
        <path class="cls-8" d="M1734.41,1666.78c.61,4.15-1.61,7.92-5.76,8.53-4.15.61-8.01-2.25-8.63-6.4-.61-4.15,1.29-8.27,5.44-8.89,4.15-.61,8.34,2.61,8.95,6.76Z"/>
      </g>
      <g>
        <path class="cls-29" d="M663.9,1310.81l-4.79,1.48c-.48.15-.99-.12-1.14-.6s.12-.99.6-1.14c0,0,.02,0,.02,0l.07-.02,4.72-1.29.06-.02c.44-.12.9.14,1.02.58.12.43-.13.88-.56,1.02Z"/>
        <path class="cls-29" d="M647.59,1314.42l-5.02.35c-.65.05-1.21-.44-1.26-1.09-.05-.65.44-1.21,1.09-1.26.01,0,.02,0,.03,0h.08s4.87-.19,4.87-.19h.07c.61-.03,1.12.45,1.14,1.05.02.59-.43,1.1-1.02,1.14Z"/>
        <path class="cls-29" d="M630.84,1314.35l-4.99-.69c-.79-.11-1.34-.84-1.23-1.63.11-.79.84-1.34,1.63-1.23.01,0,.03,0,.04,0l.09.02,4.8.82h.08c.74.14,1.24.85,1.11,1.59-.12.73-.81,1.22-1.53,1.12Z"/>
        <path class="cls-29" d="M614.43,1310.92l-4.78-1.61c-.87-.29-1.33-1.23-1.04-2.09.29-.87,1.23-1.33,2.09-1.04.01,0,.02,0,.03.01l.09.03,4.58,1.66.08.03c.83.3,1.25,1.21.95,2.04-.3.81-1.19,1.24-2,.97Z"/>
        <path class="cls-29" d="M598.86,1304.65l-4.45-2.37c-.9-.48-1.25-1.6-.77-2.5s1.6-1.25,2.5-.77c.01,0,.02.01.03.02l.08.05,4.25,2.39.07.04c.86.48,1.17,1.58.68,2.44-.48.85-1.55,1.16-2.4.7Z"/>
        <path class="cls-29" d="M584.48,1295.98l-4.04-3.02c-.91-.68-1.09-1.96-.41-2.87.68-.91,1.96-1.09,2.87-.41.01,0,.02.02.03.02l.08.06,3.82,3,.07.06c.86.68,1.01,1.93.34,2.79-.67.85-1.89,1.01-2.75.36Z"/>
        <path class="cls-29" d="M571.56,1285.2l-3.55-3.62c-.87-.89-.86-2.31.03-3.18.89-.87,2.31-.86,3.18.03.01.01.02.02.03.03l.08.08,3.32,3.55.07.08c.82.88.78,2.27-.1,3.09-.87.81-2.23.78-3.05-.07Z"/>
        <path class="cls-29" d="M560.41,1272.59l-3-4.06c-.8-1.09-.57-2.62.51-3.42,1.09-.8,2.62-.57,3.42.51,0,.01.02.03.03.04l.06.08,2.8,3.98.05.07c.76,1.08.5,2.57-.58,3.32-1.06.75-2.52.5-3.29-.53Z"/>
        <path class="cls-29" d="M550.99,1258.67l-2.5-4.37c-.73-1.27-.29-2.88.98-3.61,1.27-.73,2.88-.29,3.61.98,0,.01.02.03.02.04l.05.09,2.32,4.28.04.08c.68,1.26.21,2.82-1.04,3.5-1.24.67-2.78.22-3.47-.99Z"/>
        <path class="cls-29" d="M543.19,1243.8l-2.05-4.6c-.64-1.43,0-3.11,1.44-3.75,1.43-.64,3.11,0,3.75,1.44,0,.02.01.03.02.05l.04.08,1.88,4.5.03.07c.59,1.42-.08,3.05-1.5,3.64-1.4.58-3-.06-3.61-1.44Z"/>
        <path class="cls-29" d="M536.88,1228.27l-1.63-4.75c-.53-1.56.3-3.26,1.86-3.79,1.56-.53,3.26.3,3.79,1.86,0,0,0,.02,0,.03l.03.08,1.51,4.65.02.07c.5,1.55-.34,3.22-1.89,3.72-1.54.5-3.18-.33-3.71-1.85Z"/>
        <path class="cls-29" d="M531.87,1212.31l-1.29-4.85c-.44-1.66.55-3.36,2.21-3.81,1.66-.44,3.36.55,3.81,2.21,0,0,0,.02,0,.03l.02.07,1.19,4.76v.06c.43,1.65-.57,3.32-2.22,3.73-1.63.41-3.28-.57-3.72-2.19Z"/>
        <path class="cls-29" d="M527.91,1196.09l-1.01-4.9c-.36-1.75.76-3.46,2.51-3.82,1.75-.36,3.46.76,3.82,2.51,0,0,0,.02,0,.03v.06s.94,4.82.94,4.82v.05c.34,1.73-.79,3.41-2.53,3.74-1.72.33-3.38-.78-3.73-2.49Z"/>
        <path class="cls-29" d="M524.79,1179.71l-.79-4.93c-.29-1.83.95-3.55,2.78-3.84,1.83-.29,3.55.95,3.84,2.78,0,.01,0,.02,0,.03v.06s.72,4.86.72,4.86v.04c.27,1.81-.98,3.5-2.8,3.76-1.8.26-3.47-.97-3.75-2.75Z"/>
        <path class="cls-29" d="M522.39,1163.23l-.59-4.96c-.23-1.91,1.14-3.63,3.04-3.86,1.91-.23,3.63,1.14,3.86,3.04,0,.01,0,.02,0,.03v.06s.51,4.89.51,4.89v.04c.2,1.89-1.17,3.58-3.06,3.77-1.87.19-3.55-1.15-3.77-3.02Z"/>
        <path class="cls-29" d="M520.67,1146.66l-.38-4.99c-.15-1.98,1.33-3.71,3.31-3.86,1.98-.15,3.71,1.33,3.86,3.31,0,.01,0,.02,0,.03v.06s.31,4.9.31,4.9v.04c.12,1.96-1.37,3.65-3.33,3.77-1.94.12-3.62-1.35-3.77-3.28Z"/>
        <path class="cls-29" d="M519.64,1130.02l-.17-5c-.07-2.05,1.54-3.77,3.59-3.84,2.05-.07,3.77,1.54,3.84,3.59,0,.01,0,.02,0,.03v.07s.1,4.91.1,4.91v.05c.04,2.03-1.58,3.71-3.61,3.75-2.01.04-3.68-1.55-3.75-3.56Z"/>
        <path class="cls-29" d="M519.32,1113.35l.04-5c.02-2.12,1.75-3.83,3.87-3.81,2.12.02,3.83,1.75,3.81,3.87,0,.01,0,.02,0,.04v.07s-.11,4.91-.11,4.91v.05c-.05,2.1-1.79,3.76-3.89,3.72-2.08-.05-3.73-1.76-3.72-3.83Z"/>
        <path class="cls-29" d="M519.7,1096.68l.25-5c.11-2.19,1.97-3.87,4.16-3.76,2.19.11,3.87,1.97,3.76,4.16,0,.01,0,.02,0,.04v.07s-.32,4.89-.32,4.89v.05c-.15,2.16-2.01,3.8-4.18,3.66-2.14-.14-3.77-1.98-3.66-4.12Z"/>
        <path class="cls-29" d="M520.79,1080.02l.47-4.99c.21-2.25,2.21-3.89,4.45-3.68s3.89,2.21,3.68,4.45c0,.01,0,.03,0,.04v.08s-.54,4.87-.54,4.87v.05c-.25,2.22-2.25,3.83-4.47,3.58-2.2-.24-3.8-2.21-3.59-4.4Z"/>
        <path class="cls-29" d="M522.63,1063.43l.7-4.96c.32-2.3,2.45-3.9,4.75-3.58,2.3.32,3.9,2.45,3.58,4.75,0,.01,0,.03,0,.04v.08s-.76,4.84-.76,4.84v.06c-.36,2.28-2.49,3.83-4.77,3.48-2.25-.35-3.8-2.45-3.49-4.7Z"/>
        <path class="cls-29" d="M525.21,1046.92l.92-4.93c.44-2.35,2.7-3.9,5.05-3.46,2.35.44,3.9,2.7,3.46,5.05,0,.01,0,.03,0,.04l-.02.08-.97,4.8v.06c-.48,2.32-2.75,3.82-5.07,3.35-2.3-.47-3.79-2.7-3.36-5Z"/>
        <path class="cls-29" d="M528.6,1030.54l1.18-4.88c.57-2.36,2.94-3.81,5.3-3.24,2.36.57,3.81,2.94,3.24,5.3v.03s-.02.06-.02.06l-1.18,4.74-.02.06c-.59,2.34-2.96,3.77-5.31,3.19-2.33-.58-3.76-2.94-3.19-5.27Z"/>
        <path class="cls-29" d="M532.81,1014.35l1.42-4.82c.7-2.36,3.18-3.71,5.54-3.01,2.36.7,3.71,3.18,3.01,5.54v.03s-.03.06-.03.06l-1.42,4.68-.02.07c-.71,2.35-3.19,3.67-5.54,2.96-2.33-.71-3.66-3.17-2.97-5.5Z"/>
        <path class="cls-29" d="M537.84,998.37l1.67-4.74c.83-2.36,3.41-3.59,5.77-2.76,2.36.83,3.59,3.41,2.76,5.77v.03s-.04.07-.04.07l-1.66,4.59-.02.07c-.85,2.34-3.43,3.55-5.76,2.7-2.33-.84-3.54-3.4-2.72-5.73Z"/>
        <path class="cls-29" d="M543.71,982.67l1.93-4.65c.97-2.34,3.65-3.45,5.99-2.48,2.34.97,3.45,3.65,2.48,5.99v.03s-.04.07-.04.07l-1.9,4.49-.03.07c-.98,2.32-3.66,3.41-5.99,2.42-2.31-.98-3.39-3.64-2.43-5.95Z"/>
        <path class="cls-29" d="M550.45,967.31l2.19-4.54c1.12-2.31,3.9-3.28,6.21-2.16s3.28,3.9,2.16,6.21l-.02.03-.04.07-2.16,4.37-.04.07c-1.13,2.29-3.91,3.24-6.2,2.1-2.28-1.13-3.22-3.88-2.12-6.17Z"/>
        <path class="cls-29" d="M558.07,952.35l2.46-4.4c1.27-2.27,4.14-3.08,6.41-1.81,2.27,1.27,3.08,4.14,1.81,6.41l-.02.03-.04.07-2.41,4.23-.04.07c-1.28,2.25-4.15,3.04-6.4,1.75-2.24-1.28-3.03-4.12-1.77-6.37Z"/>
        <path class="cls-29" d="M566.59,937.86l2.73-4.24c1.43-2.22,4.38-2.86,6.6-1.43,2.22,1.43,2.86,4.38,1.43,6.6l-.02.03-.05.08-2.67,4.07-.05.08c-1.44,2.2-4.39,2.81-6.58,1.37-2.19-1.43-2.8-4.36-1.39-6.55Z"/>
        <path class="cls-29" d="M576.03,923.93l3.01-4.05c1.59-2.14,4.61-2.58,6.75-.99,2.14,1.59,2.58,4.61.99,6.75h0s-.06.09-.06.09l-2.91,3.89-.06.08c-1.59,2.13-4.61,2.56-6.74.97s-2.57-4.6-.98-6.73Z"/>
        <path class="cls-29" d="M586.39,910.66l3.28-3.84c1.74-2.03,4.79-2.28,6.83-.54,2.03,1.74,2.28,4.79.54,6.83h0s-.06.08-.06.08l-3.16,3.68-.06.08c-1.74,2.03-4.79,2.26-6.82.52-2.03-1.74-2.27-4.78-.53-6.81Z"/>
        <path class="cls-29" d="M597.63,898.12l3.54-3.61c1.88-1.92,4.96-1.95,6.88-.07,1.92,1.88,1.95,4.96.07,6.88h0s-.07.08-.07.08l-3.41,3.46-.07.07c-1.88,1.91-4.96,1.93-6.87.05-1.91-1.88-1.94-4.95-.06-6.86Z"/>
        <path class="cls-29" d="M609.73,886.38l3.78-3.35c2.02-1.79,5.11-1.6,6.9.42,1.79,2.02,1.6,5.11-.42,6.9h0s-.08.08-.08.08l-3.64,3.2-.08.07c-2.02,1.78-5.11,1.59-6.89-.44-1.78-2.02-1.6-5.1.43-6.88Z"/>
        <path class="cls-29" d="M622.61,875.52l4.01-3.08c2.15-1.65,5.23-1.24,6.88.91,1.65,2.15,1.24,5.23-.91,6.88h-.01s-.08.07-.08.07l-3.86,2.94-.08.06c-2.15,1.64-5.23,1.23-6.87-.93-1.64-2.15-1.24-5.22.92-6.86Z"/>
        <path class="cls-29" d="M636.23,865.6l4.21-2.79c2.27-1.51,5.33-.89,6.84,1.38,1.51,2.27.89,5.33-1.38,6.84h-.01s-.08.06-.08.06l-4.05,2.67-.08.05c-2.27,1.5-5.33.87-6.82-1.4-1.5-2.27-.88-5.32,1.39-6.82Z"/>
        <path class="cls-29" d="M650.47,856.61l4.38-2.51c2.37-1.36,5.4-.54,6.76,1.84,1.36,2.37.54,5.4-1.84,6.76h-.01s-.08.05-.08.05l-4.22,2.4-.08.05c-2.37,1.35-5.4.52-6.75-1.85-1.35-2.37-.54-5.39,1.84-6.74Z"/>
        <path class="cls-29" d="M665.25,848.57l4.53-2.23c2.47-1.21,5.45-.2,6.66,2.27,1.21,2.47.2,5.45-2.27,6.66h-.01s-.08.05-.08.05l-4.37,2.14-.08.04c-2.47,1.21-5.44.18-6.65-2.28-1.21-2.47-.2-5.44,2.27-6.64Z"/>
        <path class="cls-29" d="M680.49,841.46l4.65-1.95c2.55-1.07,5.48.13,6.54,2.67,1.07,2.55-.13,5.48-2.67,6.54h-.01s-.08.04-.08.04l-4.49,1.87-.08.03c-2.55,1.06-5.47-.14-6.53-2.69-1.06-2.55.13-5.46,2.68-6.52Z"/>
        <path class="cls-29" d="M696.12,835.3l4.76-1.67c2.6-.91,5.44.46,6.35,3.06s-.46,5.44-3.06,6.35l-.07.02-4.59,1.62-.08.03c-2.6.92-5.45-.44-6.37-3.04-.92-2.6.44-5.45,3.04-6.37h.01Z"/>
        <path class="cls-29" d="M712.08,830.05l4.83-1.4c2.63-.76,5.38.75,6.15,3.39.76,2.63-.75,5.38-3.39,6.15l-.06.02-4.67,1.37-.08.02c-2.63.77-5.39-.74-6.16-3.37-.77-2.63.74-5.39,3.37-6.17h.01Z"/>
        <path class="cls-29" d="M728.27,825.69l4.9-1.14c2.66-.62,5.31,1.03,5.93,3.69.62,2.66-1.03,5.31-3.69,5.93h-.06s-4.75,1.13-4.75,1.13l-.08.02c-2.66.63-5.32-1.02-5.95-3.68-.63-2.66,1.02-5.32,3.68-5.95h.01Z"/>
        <path class="cls-29" d="M744.67,822.18l4.96-.89c2.67-.48,5.23,1.3,5.71,3.97.48,2.67-1.3,5.23-3.97,5.71h-.06s-4.81.89-4.81.89h-.07c-2.67.5-5.24-1.27-5.73-3.95-.49-2.67,1.29-5.24,3.96-5.73h.01Z"/>
        <path class="cls-29" d="M761.22,819.51l4.99-.64c2.68-.34,5.13,1.55,5.48,4.23.34,2.68-1.55,5.13-4.23,5.48h-.06s-4.85.64-4.85.64h-.07c-2.68.36-5.14-1.53-5.5-4.21-.35-2.68,1.54-5.14,4.22-5.5h.01Z"/>
        <path class="cls-29" d="M777.88,817.66l5.01-.4c2.68-.21,5.03,1.79,5.24,4.47.21,2.68-1.79,5.03-4.47,5.24h-.06s-4.87.4-4.87.4h-.07c-2.68.23-5.04-1.77-5.26-4.46-.22-2.68,1.78-5.04,4.46-5.26h.01Z"/>
        <path class="cls-29" d="M794.6,816.62l5.01-.16c2.68-.09,4.91,2.01,5,4.69.09,2.68-2.01,4.91-4.69,5h-.05s-4.88.17-4.88.17h-.06c-2.68.1-4.93-2-5.02-4.68-.09-2.68,2-4.93,4.68-5.02h.01Z"/>
        <path class="cls-29" d="M811.32,816.34l5.02.06c2.66.03,4.8,2.21,4.77,4.88-.03,2.66-2.21,4.8-4.88,4.77h-.05s-4.89-.04-4.89-.04h-.06c-2.67-.02-4.81-2.2-4.79-4.87.02-2.67,2.2-4.81,4.87-4.79h.01Z"/>
        <path class="cls-29" d="M828.03,816.78l5.01.26c2.65.14,4.68,2.4,4.54,5.05-.14,2.65-2.4,4.68-5.05,4.54h-.04s-4.89-.25-4.89-.25h-.06c-2.65-.14-4.69-2.39-4.56-5.04.13-2.65,2.39-4.69,5.04-4.56h.01Z"/>
        <path class="cls-29" d="M844.7,817.89l4.99.46c2.63.24,4.56,2.57,4.32,5.19-.24,2.63-2.57,4.56-5.19,4.32h-.04s-4.88-.44-4.88-.44h-.05c-2.63-.24-4.58-2.56-4.34-5.19.23-2.63,2.56-4.58,5.19-4.34h.01Z"/>
        <path class="cls-29" d="M861.3,819.63l4.96.64c2.6.34,4.44,2.72,4.11,5.32-.34,2.6-2.72,4.44-5.32,4.11h-.04s-4.87-.62-4.87-.62h-.05c-2.61-.34-4.46-2.72-4.13-5.33s2.71-4.46,5.32-4.13h.01Z"/>
        <path class="cls-29" d="M877.81,821.97l4.94.81c2.58.42,4.32,2.86,3.9,5.44-.42,2.58-2.86,4.32-5.44,3.9h-.03s-4.84-.79-4.84-.79h-.05c-2.58-.42-4.34-2.86-3.92-5.44.42-2.58,2.85-4.34,5.43-3.92h.01Z"/>
        <path class="cls-29" d="M894.23,824.86l4.9.97c2.55.5,4.21,2.98,3.71,5.53-.5,2.55-2.98,4.21-5.53,3.71h-.03s-4.82-.94-4.82-.94h-.04c-2.56-.51-4.22-2.98-3.73-5.54.5-2.56,2.97-4.22,5.53-3.73h.01Z"/>
        <path class="cls-29" d="M910.53,828.26l4.87,1.11c2.52.58,4.1,3.09,3.52,5.61-.58,2.52-3.09,4.1-5.61,3.52h-.03s-4.79-1.09-4.79-1.09h-.04c-2.53-.58-4.11-3.09-3.54-5.62.57-2.53,3.08-4.11,5.61-3.54h.01Z"/>
        <path class="cls-29" d="M926.72,832.13l4.84,1.25c2.49.64,3.99,3.19,3.35,5.68-.64,2.49-3.19,3.99-5.68,3.35h-.02s-4.77-1.22-4.77-1.22h-.04c-2.5-.65-4.01-3.19-3.37-5.69s3.18-4.01,5.68-3.37h.01Z"/>
        <path class="cls-29" d="M942.8,836.44l4.8,1.37c2.46.7,3.89,3.27,3.18,5.73-.7,2.46-3.27,3.89-5.73,3.18h-.02s-4.74-1.35-4.74-1.35h-.03c-2.47-.71-3.9-3.28-3.21-5.74.7-2.47,3.27-3.9,5.73-3.21h.01Z"/>
        <path class="cls-29" d="M958.75,841.15l4.76,1.49c2.43.76,3.79,3.35,3.03,5.78-.76,2.43-3.35,3.79-5.78,3.03h-.02s-4.71-1.46-4.71-1.46h-.03c-2.44-.76-3.81-3.35-3.05-5.79.75-2.44,3.34-3.81,5.78-3.05h.01Z"/>
        <path class="cls-29" d="M974.58,846.22l4.72,1.59c2.4.81,3.7,3.41,2.89,5.82s-3.41,3.7-5.82,2.89h-.01s-4.67-1.56-4.67-1.56h-.03c-2.41-.81-3.71-3.42-2.91-5.83.8-2.41,3.41-3.71,5.82-2.91h.01Z"/>
        <path class="cls-29" d="M990.28,851.62l4.69,1.68c2.38.85,3.61,3.47,2.76,5.84-.85,2.38-3.47,3.61-5.84,2.76h-.01s-4.64-1.65-4.64-1.65h-.03c-2.38-.86-3.63-3.47-2.78-5.85.85-2.38,3.46-3.63,5.84-2.78h.01Z"/>
        <path class="cls-29" d="M1005.87,857.33l4.65,1.77c2.35.89,3.52,3.52,2.63,5.87-.89,2.35-3.52,3.52-5.87,2.63h-.01s-4.6-1.74-4.6-1.74h-.02c-2.35-.9-3.54-3.52-2.65-5.88.89-2.35,3.51-3.54,5.87-2.65h.01Z"/>
        <path class="cls-29" d="M1021.34,863.34l4.62,1.86c2.32.93,3.44,3.57,2.51,5.88-.93,2.32-3.57,3.44-5.88,2.51h-.01s-4.58-1.83-4.58-1.83h-.02c-2.32-.94-3.46-3.57-2.53-5.9.93-2.32,3.56-3.46,5.89-2.53h.01Z"/>
        <path class="cls-29" d="M1036.7,869.63l4.58,1.94c2.29.97,3.36,3.61,2.39,5.9-.97,2.29-3.61,3.36-5.9,2.39h-.01s-4.55-1.91-4.55-1.91h-.02c-2.29-.97-3.37-3.62-2.41-5.91.96-2.29,3.61-3.37,5.9-2.41h.01Z"/>
        <path class="cls-29" d="M1051.94,876.2l4.55,2.02c2.26,1,3.28,3.65,2.27,5.91-1,2.26-3.65,3.28-5.91,2.27h0s-4.51-2-4.51-2h-.02c-2.27-1.01-3.29-3.66-2.29-5.92,1-2.27,3.65-3.29,5.91-2.29h.01Z"/>
        <path class="cls-29" d="M1067.06,883.03l4.51,2.1c2.23,1.04,3.2,3.69,2.16,5.92-1.04,2.23-3.69,3.2-5.92,2.16h0s-4.48-2.07-4.48-2.07h-.02c-2.24-1.04-3.21-3.69-2.18-5.93,1.03-2.24,3.68-3.21,5.92-2.18h.01Z"/>
        <path class="cls-29" d="M1082.06,890.12l4.48,2.17c2.2,1.07,3.12,3.72,2.05,5.92-1.07,2.2-3.72,3.12-5.92,2.05h0s-4.44-2.14-4.44-2.14h-.02c-2.21-1.07-3.14-3.72-2.07-5.93,1.06-2.21,3.72-3.14,5.92-2.07h.01Z"/>
        <path class="cls-29" d="M1096.94,897.44l4.44,2.24c2.17,1.1,3.04,3.75,1.95,5.92-1.1,2.17-3.75,3.04-5.92,1.95h0s-4.41-2.22-4.41-2.22h-.02c-2.18-1.1-3.06-3.75-1.97-5.93,1.09-2.18,3.74-3.06,5.92-1.97h.01Z"/>
        <path class="cls-29" d="M1111.7,905.01l4.39,2.32c2.12,1.12,2.93,3.75,1.81,5.87-1.11,2.11-3.72,2.92-5.83,1.83h-.02s-4.38-2.27-4.38-2.27h-.02c-2.14-1.12-2.98-3.75-1.87-5.89,1.11-2.14,3.74-2.98,5.88-1.87l.03.02Z"/>
        <path class="cls-29" d="M1126.31,912.83l4.36,2.38c2.07,1.13,2.83,3.73,1.7,5.79-1.12,2.06-3.7,2.82-5.76,1.72h-.02s-4.35-2.34-4.35-2.34h-.02c-2.09-1.13-2.88-3.73-1.76-5.82,1.12-2.09,3.72-2.88,5.81-1.76l.03.02Z"/>
        <path class="cls-29" d="M1140.81,920.84l4.32,2.44c2.02,1.14,2.73,3.7,1.59,5.72-1.13,2.01-3.67,2.72-5.68,1.61h-.02s-4.32-2.4-4.32-2.4h-.01c-2.04-1.14-2.78-3.7-1.65-5.74,1.13-2.04,3.69-2.78,5.73-1.65l.03.02Z"/>
        <path class="cls-29" d="M1155.2,929.06l4.29,2.5c1.97,1.15,2.63,3.67,1.49,5.64-1.14,1.96-3.64,2.63-5.61,1.51h-.02s-4.29-2.46-4.29-2.46h-.01c-1.99-1.14-2.68-3.67-1.55-5.66,1.13-1.99,3.67-2.68,5.66-1.55l.03.02Z"/>
        <path class="cls-29" d="M1169.47,937.46l4.26,2.55c1.92,1.15,2.54,3.64,1.39,5.56-1.14,1.91-3.61,2.53-5.52,1.41h-.01s-4.26-2.51-4.26-2.51h-.01c-1.94-1.15-2.59-3.64-1.45-5.58,1.14-1.94,3.64-2.59,5.57-1.45l.03.02Z"/>
        <path class="cls-29" d="M1183.64,946.04l4.23,2.61c1.87,1.15,2.45,3.6,1.3,5.47-1.15,1.86-3.57,2.45-5.44,1.32h-.01s-4.23-2.56-4.23-2.56h-.01c-1.89-1.15-2.5-3.61-1.36-5.5s3.6-2.5,5.49-1.36l.03.02Z"/>
        <path class="cls-29" d="M1197.7,954.78l4.2,2.66c1.82,1.15,2.37,3.56,1.21,5.39-1.15,1.81-3.54,2.36-5.36,1.23h-.01s-4.2-2.61-4.2-2.61h-.01c-1.84-1.15-2.41-3.57-1.27-5.41,1.14-1.84,3.56-2.41,5.41-1.27l.03.02Z"/>
        <path class="cls-29" d="M1211.67,963.69l4.17,2.7c1.78,1.15,2.28,3.52,1.13,5.3-1.14,1.77-3.5,2.28-5.27,1.15h-.01s-4.17-2.66-4.17-2.66h-.01c-1.8-1.15-2.33-3.53-1.19-5.32,1.14-1.8,3.52-2.33,5.32-1.19l.03.02Z"/>
        <path class="cls-29" d="M1225.54,972.75l4.14,2.74c1.73,1.15,2.2,3.48,1.06,5.21-1.14,1.72-3.45,2.2-5.18,1.08h-.01s-4.15-2.7-4.15-2.7h0c-1.75-1.14-2.25-3.48-1.11-5.24,1.14-1.75,3.48-2.25,5.23-1.11l.03.02Z"/>
        <path class="cls-29" d="M1239.32,981.94l4.12,2.78c1.69,1.14,2.13,3.43.99,5.12-1.13,1.68-3.41,2.12-5.09,1.01h-.01s-4.12-2.74-4.12-2.74h0c-1.71-1.14-2.17-3.44-1.04-5.14,1.13-1.71,3.43-2.17,5.14-1.04l.03.02Z"/>
        <path class="cls-29" d="M1253,991.27l4.09,2.82c1.64,1.13,2.05,3.38.92,5.02-1.13,1.63-3.36,2.05-5,.94h0s-4.1-2.78-4.1-2.78h0c-1.66-1.13-2.1-3.39-.97-5.05s3.38-2.1,5.05-.97l.03.02Z"/>
        <path class="cls-29" d="M1266.6,1000.71l4.06,2.86c1.6,1.12,1.98,3.33.86,4.93-1.12,1.59-3.31,1.98-4.9.88h0s-4.07-2.82-4.07-2.82h0c-1.62-1.12-2.03-3.34-.91-4.96,1.12-1.62,3.33-2.03,4.95-.91l.03.02Z"/>
        <path class="cls-29" d="M1280.11,1010.27l4.04,2.89c1.56,1.11,1.92,3.28.8,4.83-1.11,1.55-3.26,1.91-4.82.82l-4.05-2.84c-1.58-1.1-1.96-3.28-.86-4.86,1.1-1.58,3.28-1.96,4.86-.86l.03.02Z"/>
        <path class="cls-29" d="M1293.54,1019.93l4.01,2.91c1.52,1.1,1.86,3.22.76,4.74-1.09,1.51-3.2,1.85-4.72.77l-4.03-2.87c-1.54-1.09-1.9-3.22-.81-4.76,1.09-1.54,3.22-1.9,4.76-.81l.03.02Z"/>
        <path class="cls-29" d="M1306.91,1029.64l4.01,2.91c1.48,1.08,1.82,3.15.74,4.63-1.07,1.48-3.13,1.81-4.61.76l-4.04-2.88c-1.5-1.07-1.85-3.16-.78-4.66,1.07-1.5,3.16-1.85,4.66-.78l.03.02Z"/>
        <path class="cls-29" d="M1320.28,1039.31l4.02,2.88h0c1.46,1.05,1.79,3.08.75,4.53-1.04,1.45-3.05,1.79-4.51.76l-4.06-2.86c-1.48-1.04-1.83-3.08-.79-4.55,1.04-1.48,3.08-1.83,4.55-.79l.03.02Z"/>
        <path class="cls-29" d="M1333.71,1048.86l4.05,2.83h.01c1.44,1.01,1.79,2.99.78,4.43-1,1.43-2.96,1.78-4.4.8l-4.1-2.81c-1.45-1-1.82-2.99-.83-4.44,1-1.45,2.99-1.82,4.44-.83l.02.02h.01Z"/>
        <path class="cls-29" d="M1347.26,1058.22l4.09,2.76h.02c1.42.97,1.79,2.89.84,4.31-.95,1.41-2.86,1.79-4.28.85l-4.15-2.74c-1.44-.95-1.83-2.89-.88-4.32.95-1.44,2.89-1.83,4.32-.88l.02.02h.02Z"/>
        <path class="cls-29" d="M1360.97,1067.3l4.15,2.66h.02c1.41.91,1.82,2.79.92,4.19-.9,1.4-2.75,1.81-4.16.93l-4.22-2.65c-1.43-.89-1.86-2.78-.96-4.2.89-1.43,2.78-1.86,4.2-.96h.02s.02.03.02.03Z"/>
        <path class="cls-29" d="M1374.88,1076.04l4.23,2.54.03.02c1.38.83,1.82,2.62.99,3.99-.82,1.36-2.59,1.81-3.96,1.01l-4.31-2.51c-1.41-.82-1.88-2.62-1.06-4.03.82-1.41,2.62-1.88,4.03-1.06,0,0,.02,0,.02.01l.04.02Z"/>
        <path class="cls-29" d="M1389.06,1084.34l4.31,2.38.03.02c1.35.75,1.84,2.44,1.09,3.79-.74,1.34-2.41,1.83-3.75,1.11l-4.4-2.35c-1.38-.74-1.9-2.45-1.16-3.82.74-1.38,2.45-1.9,3.82-1.16,0,0,.02,0,.02.01l.04.02Z"/>
        <path class="cls-29" d="M1403.52,1092.07l4.4,2.19.03.02c1.32.66,1.85,2.26,1.2,3.58-.65,1.31-2.23,1.84-3.54,1.21l-4.49-2.16c-1.35-.65-1.91-2.26-1.27-3.61.65-1.35,2.26-1.91,3.61-1.27,0,0,.02,0,.02.01l.05.02Z"/>
        <path class="cls-29" d="M1418.3,1099.14l4.49,1.97.04.02c1.29.57,1.87,2.07,1.31,3.36-.56,1.28-2.04,1.86-3.32,1.32l-4.6-1.94c-1.31-.55-1.93-2.07-1.38-3.38.55-1.31,2.07-1.93,3.38-1.38,0,0,.01,0,.02,0l.05.02Z"/>
        <path class="cls-29" d="M1433.41,1105.43l4.6,1.72.04.02c1.25.47,1.89,1.87,1.42,3.12-.47,1.24-1.84,1.88-3.09,1.43l-4.71-1.69c-1.28-.46-1.95-1.87-1.49-3.15.46-1.28,1.87-1.95,3.15-1.49,0,0,.01,0,.02,0l.05.02Z"/>
        <path class="cls-29" d="M1448.86,1110.8l4.7,1.4h.05c1.22.38,1.91,1.66,1.55,2.88-.36,1.21-1.63,1.9-2.84,1.56l-4.81-1.36c-1.24-.35-1.97-1.65-1.62-2.89.35-1.24,1.65-1.97,2.89-1.62,0,0,.01,0,.02,0l.06.02Z"/>
        <path class="cls-29" d="M1464.64,1115.1l4.79,1.07h.05c1.18.27,1.92,1.44,1.65,2.62-.26,1.17-1.41,1.9-2.58,1.66l-4.9-1.02c-1.2-.25-1.97-1.43-1.72-2.63.25-1.2,1.43-1.97,2.63-1.72,0,0,.01,0,.02,0h.06Z"/>
        <path class="cls-29" d="M1480.69,1118.27l4.86.72h.05c1.13.18,1.91,1.23,1.74,2.35-.17,1.12-1.2,1.89-2.32,1.74l-4.96-.66c-1.15-.15-1.96-1.21-1.8-2.36.15-1.15,1.21-1.96,2.36-1.8,0,0,.01,0,.02,0h.06Z"/>
        <path class="cls-29" d="M1496.93,1120.26l4.9.35h.05c1.07.08,1.88,1.01,1.8,2.08-.08,1.06-.99,1.86-2.05,1.8l-4.99-.29c-1.09-.06-1.93-1-1.86-2.09.06-1.09,1-1.93,2.09-1.86,0,0,.01,0,.02,0h.06Z"/>
        <path class="cls-29" d="M1513.27,1120.98l4.91-.05h.05c1.01,0,1.83.8,1.84,1.8,0,1-.79,1.81-1.78,1.84l-5,.12c-1.03.02-1.88-.79-1.9-1.81-.02-1.03.79-1.88,1.81-1.9,0,0,.01,0,.02,0h.06Z"/>
        <path class="cls-29" d="M1529.61,1120.33l4.88-.48h.05c.94-.1,1.77.59,1.86,1.52.09.93-.58,1.75-1.5,1.86l-4.97.56c-.95.11-1.81-.58-1.92-1.53-.11-.95.58-1.81,1.53-1.92,0,0,.01,0,.02,0h.06Z"/>
        <path class="cls-29" d="M1545.83,1118.2l4.82-.93h.05c.85-.17,1.67.38,1.83,1.23.16.84-.38,1.65-1.21,1.83l-4.89,1.05c-.87.19-1.73-.37-1.92-1.24-.19-.87.37-1.73,1.24-1.92,0,0,.02,0,.02,0h.06Z"/>
        <path class="cls-29" d="M1561.76,1114.52l4.69-1.43h.04c.74-.24,1.53.18,1.75.92.22.73-.18,1.51-.91,1.74l-4.75,1.55c-.76.25-1.58-.17-1.83-.93-.25-.76.17-1.58.93-1.83,0,0,.01,0,.02,0l.05-.02Z"/>
        <path class="cls-29" d="M1577.21,1109.14l4.5-1.95.04-.02c.63-.27,1.36.02,1.63.64.27.62,0,1.34-.62,1.62l-4.55,2.08c-.65.3-1.41.01-1.71-.64-.3-.65-.01-1.41.64-1.71,0,0,.01,0,.02,0l.05-.02Z"/>
        <path class="cls-29" d="M1591.94,1102.01l4.24-2.48.03-.02c.51-.3,1.17-.13,1.48.39.3.51.13,1.16-.37,1.46l-4.26,2.61c-.53.33-1.22.16-1.55-.37-.33-.53-.16-1.22.37-1.55,0,0,0,0,.01,0l.04-.02Z"/>
      </g>
    </g>
  </g>
</svg>