<?xml version="1.0" encoding="UTF-8"?>
<svg id="Layer_2" data-name="Layer 2" xmlns="http://www.w3.org/2000/svg" viewBox="0 0 31.11 31.11">
  <defs>
    <style>
      .cls-1 {
        fill: #fca311;
      }

      .cls-1, .cls-2 {
        stroke-width: 0px;
      }

      .cls-2 {
        fill: #fff;
      }
    </style>
  </defs>
  <g id="UI_UX_Desginer" data-name="UI &amp;amp; UX Desginer">
    <g id="Preimire_Pro" data-name="Preimire Pro">
      <rect id="BC_White" data-name="BC White" class="cls-2" width="31.11" height="31.11" rx="8" ry="8"/>
      <g id="Logo">
        <path class="cls-1" d="M5.2,15.56c0-2.52,0-5.04,0-7.56,0-.3,0-.31.3-.31,1.63-.02,3.26-.11,4.89-.08,1.19.02,2.35.21,3.42.77,1.55.81,2.43,2.09,2.66,3.82.15,1.16.04,2.29-.49,3.35-.65,1.29-1.71,2.1-3.08,2.53-1.22.38-2.49.44-3.76.39-.18,0-.37,0-.55-.02-.11,0-.15.02-.15.14,0,.25,0,.5,0,.75,0,1.28,0,2.55,0,3.83,0,.25-.05.3-.3.3-.89,0-1.78,0-2.67,0-.25,0-.28-.03-.28-.29,0-2.54,0-5.09,0-7.63ZM9.66,10.59c-.34,0-.68,0-1.03,0-.13,0-.17.04-.17.18,0,1.57,0,3.14,0,4.7,0,.14.03.19.18.19.45,0,.9,0,1.35,0,.58,0,1.15-.1,1.69-.3.68-.25,1.22-.67,1.45-1.39.1-.3.12-.61.13-.93,0-1.12-.57-1.91-1.63-2.26-.65-.21-1.31-.23-1.98-.2Z"/>
        <path class="cls-1" d="M21.82,13.1c.3-.33.58-.6.9-.84.86-.64,1.81-1.02,2.9-1.03.24,0,.29.04.29.28,0,.9,0,1.8,0,2.7,0,.3-.03.33-.32.32-.83-.02-1.63.12-2.41.4-.37.13-.73.3-1.02.57-.09.09-.14.18-.14.31,0,2.43,0,4.86,0,7.29,0,.07,0,.14,0,.21,0,.12-.06.18-.18.18-.14,0-.27,0-.41,0-.82,0-1.63,0-2.45,0-.31,0-.35-.04-.35-.34,0-2.85,0-5.7,0-8.56,0-.97-.01-1.95-.1-2.92-.01-.14.04-.21.19-.21.83,0,1.67,0,2.5,0,.24,0,.35.07.41.3.12.41.17.84.18,1.31Z"/>
      </g>
    </g>
  </g>
</svg>