<?xml version="1.0" encoding="UTF-8"?>
<svg id="Layer_2" data-name="Layer 2" xmlns="http://www.w3.org/2000/svg" viewBox="0 0 31.11 31.11">
  <defs>
    <style>
      .cls-1 {
        fill: #fca311;
      }

      .cls-1, .cls-2 {
        stroke-width: 0px;
      }

      .cls-2 {
        fill: #fff;
      }
    </style>
  </defs>
  <g id="Full_Stack_Devloper" data-name="Full Stack Devloper">
    <g id="Django">
      <rect id="BC_White" data-name="BC White" class="cls-2" width="31.11" height="31.11" rx="8" ry="8"/>
      <g>
        <path class="cls-1" d="M14.61,3.57c1.31,0,2.61,0,3.92,0,0,.03,0,.07,0,.1,0,5.4,0,10.8,0,16.2,0,.55,0,1.09,0,1.64,0,.05-.01.06-.06.07-.23.04-.46.08-.69.12-.86.15-1.72.27-2.59.33-.78.06-1.55.08-2.33.05-.67-.03-1.33-.1-1.98-.24-.71-.15-1.39-.39-2.03-.74-.63-.35-1.16-.81-1.59-1.39-.37-.49-.63-1.04-.8-1.63-.16-.53-.25-1.07-.28-1.62,0-.03.01-.06-.02-.08v-1.08s.02-.04.02-.06c.05-.75.2-1.48.48-2.17.31-.78.77-1.47,1.38-2.05.6-.57,1.31-.99,2.09-1.28.71-.26,1.44-.4,2.19-.44.76-.05,1.51-.02,2.25.17.04.01.05,0,.05-.04,0,0,0-.02,0-.03,0-1.93,0-3.86,0-5.79,0-.02,0-.04,0-.05ZM14.75,15.86c0-1.01,0-2.03,0-3.04,0-.06-.02-.09-.08-.1-.33-.1-.67-.16-1.02-.17-.52-.02-1.03.03-1.52.2-.5.18-.91.48-1.22.9-.29.4-.46.85-.54,1.33-.08.42-.09.85-.06,1.28.03.38.1.75.24,1.11.23.59.62,1.05,1.19,1.35.42.22.87.31,1.33.34.54.03,1.07,0,1.6-.08.09-.01.08,0,.08-.1,0-1.01,0-2.02,0-3.03Z"/>
        <path class="cls-1" d="M20.79,27.55s-.03-.03-.05-.04c-.38-.18-.77-.36-1.15-.54-.77-.36-1.55-.73-2.32-1.09-.02-.01-.04-.02-.08-.04.12-.06.24-.11.35-.17.52-.26,1.02-.54,1.48-.89.74-.56,1.23-1.3,1.54-2.18.19-.54.28-1.11.34-1.68.09-.84.11-1.69.12-2.54.02-2.83,0-5.66,0-8.49,0-.11-.02-.1.1-.1,1.25,0,2.5,0,3.75,0,.03,0,.05,0,.08,0v10.07s-.02.02-.02.03c0,.04,0,.08,0,.12-.02.87-.07,1.73-.21,2.59-.11.65-.29,1.28-.58,1.87-.24.5-.52.96-.89,1.38-.41.47-.9.84-1.42,1.16-.3.19-.61.36-.93.52-.01,0-.04,0-.04.04h-.08Z"/>
        <path class="cls-1" d="M24.56,3.57s0,.05,0,.07c0,1.28,0,2.56,0,3.84q0,.08-.08.08c-1.25,0-2.51,0-3.76,0q-.08,0-.08-.08c0-1.3,0-2.61,0-3.91,1.31,0,2.61,0,3.92,0Z"/>
      </g>
    </g>
  </g>
</svg>