<?xml version="1.0" encoding="UTF-8"?>
<svg id="Layer_2" data-name="Layer 2" xmlns="http://www.w3.org/2000/svg" viewBox="0 0 31.11 31.11">
  <defs>
    <style>
      .cls-1 {
        fill: #fca311;
      }

      .cls-1, .cls-2, .cls-3 {
        stroke-width: 0px;
      }

      .cls-2 {
        fill: #fff;
      }

      .cls-3 {
        fill: #734a08;
      }
    </style>
  </defs>
  <g id="Full_Stack_Devloper" data-name="Full Stack Devloper">
    <g id="Javascript">
      <rect id="BC_White" data-name="BC White" class="cls-2" width="31.11" height="31.11" rx="8" ry="8"/>
      <g>
        <path class="cls-1" d="M22.37,25.71c-4.49,0-8.98,0-13.47,0-1.93,0-3.49-1.56-3.49-3.49,0-4.49,0-8.99,0-13.48,0-1.84,1.49-3.33,3.33-3.33,4.46,0,8.93,0,13.39,0,1.97,0,3.57,1.6,3.57,3.57,0,3.75,0,7.5,0,11.25,0,.71,0,1.43,0,2.14,0,1.84-1.49,3.33-3.33,3.33ZM20.87,24.09c.48,0,.89-.04,1.28-.15,1.01-.3,1.73-.89,1.92-1.97.2-1.13-.11-2.09-1.08-2.78-.31-.22-.65-.41-1-.57-.41-.18-.82-.36-1.22-.54-.22-.1-.43-.21-.59-.39-.45-.46-.24-1.23.38-1.39.47-.12.88-.01,1.22.35.09.1.18.21.24.33.05.09.09.09.17.03.42-.28.84-.55,1.27-.81.09-.05.1-.1.04-.19-.43-.7-1.03-1.18-1.85-1.34-.39-.08-.78-.09-1.18-.05-1.71.15-2.72,1.56-2.33,3.23.19.81.71,1.34,1.4,1.74.4.24.83.41,1.25.59.34.15.69.29,1,.5.31.21.47.51.42.88-.05.37-.29.59-.62.72-.41.16-.83.15-1.25.04-.55-.14-.92-.51-1.22-.96-.06-.09-.09-.12-.2-.05-.44.26-.88.51-1.32.76-.1.06-.11.1-.05.2.24.41.53.77.91,1.06.73.55,1.58.76,2.4.77ZM16.45,18.19c0-1.11,0-2.21,0-3.32,0-.13-.03-.16-.16-.16-.51,0-1.03.01-1.54,0-.18,0-.21.05-.21.22,0,2.06,0,4.12,0,6.18,0,.24,0,.47-.08.7-.1.31-.3.5-.62.56-.52.1-.95-.03-1.26-.48-.08-.11-.15-.22-.22-.34-.05-.09-.09-.12-.19-.06-.44.27-.88.54-1.32.8-.09.06-.11.1-.06.2.39.73.96,1.24,1.77,1.48.69.2,1.38.2,2.07,0,.88-.25,1.44-.83,1.68-1.72.09-.35.13-.7.13-1.06,0-1,0-2,0-3Z"/>
        <path class="cls-3" d="M20.87,24.09c-.83,0-1.67-.21-2.4-.77-.38-.29-.68-.64-.91-1.06-.05-.09-.05-.14.05-.2.44-.25.88-.5,1.32-.76.1-.06.14-.03.2.05.3.46.67.82,1.22.96.42.11.84.11,1.25-.04.33-.13.57-.35.62-.72.05-.38-.11-.67-.42-.88-.31-.21-.66-.35-1-.5-.42-.19-.85-.36-1.25-.59-.69-.4-1.21-.94-1.4-1.74-.39-1.67.62-3.08,2.33-3.23.4-.04.79-.02,1.18.05.82.16,1.42.63,1.85,1.34.05.09.04.13-.04.19-.43.27-.85.54-1.27.81-.08.05-.12.05-.17-.03-.06-.12-.15-.23-.24-.33-.34-.36-.76-.46-1.22-.35-.62.16-.83.92-.38,1.39.17.17.38.29.59.39.41.18.82.36,1.22.54.35.16.69.34,1,.57.97.69,1.28,1.65,1.08,2.78-.19,1.08-.91,1.67-1.92,1.97-.39.12-.8.15-1.28.15Z"/>
        <path class="cls-3" d="M16.45,18.19c0,1,0,2,0,3,0,.36-.03.71-.13,1.06-.24.89-.8,1.47-1.68,1.72-.69.19-1.38.19-2.07,0-.8-.23-1.38-.74-1.77-1.48-.05-.1-.04-.14.06-.2.44-.26.88-.53,1.32-.8.1-.06.14-.04.19.06.06.12.14.23.22.34.31.45.74.58,1.26.48.32-.06.52-.25.62-.56.07-.23.08-.47.08-.7,0-2.06,0-4.12,0-6.18,0-.17.04-.22.21-.22.51.01,1.03,0,1.54,0,.13,0,.16.04.16.16,0,1.11,0,2.21,0,3.32Z"/>
      </g>
    </g>
  </g>
</svg>