<svg id="Adobe_Ai_Logo" data-name="Adobe Ai Logo" xmlns="http://www.w3.org/2000/svg" width="70.825" height="70.825" viewBox="0 0 70.825 70.825">
  <g id="Group_347" data-name="Group 347">
    <path id="Path_336" data-name="Path 336" d="M53.537,70.825H17.288A17.288,17.288,0,0,1,0,53.537V17.288A17.288,17.288,0,0,1,17.288,0H53.537A17.288,17.288,0,0,1,70.825,17.288V53.537A17.288,17.288,0,0,1,53.537,70.825" fill="#fff"/>
    <path id="Path_337" data-name="Path 337" d="M120.006,168.523h-14.12l-2.684,8.053H94.639l14.549-39.084h7.463l14.63,39.084h-8.563ZM108.061,162h9.771l-4.912-14.63Z" transform="translate(-83.439 -120.884)" fill="#fca311"/>
    <path id="Path_338" data-name="Path 338" d="M409.389,129.795a3.82,3.82,0,0,1,1.168-2.872,5.032,5.032,0,0,1,6.349,0,4.1,4.1,0,0,1-.014,5.771,4.976,4.976,0,0,1-6.308,0,3.808,3.808,0,0,1-1.194-2.9m8.241,36.561h-7.785V137.311h7.785Z" transform="translate(-358.461 -110.663)" fill="#fca311"/>
  </g>
</svg>
