<svg id="Adobe_Ps_Logo" data-name="Adobe Ps Logo" xmlns="http://www.w3.org/2000/svg" xmlns:xlink="http://www.w3.org/1999/xlink" width="71.333" height="71.333" viewBox="0 0 71.333 71.333">
  <defs>
    <clipPath id="clip-path">
      <rect id="Rectangle_203" data-name="Rectangle 203" width="71.333" height="71.333" fill="none"/>
    </clipPath>
  </defs>
  <g id="Group_340" data-name="Group 340" clip-path="url(#clip-path)">
    <path id="Path_333" data-name="Path 333" d="M53.921,71.333H17.412A17.412,17.412,0,0,1,0,53.921V17.412A17.412,17.412,0,0,1,17.412,0H53.921A17.412,17.412,0,0,1,71.333,17.412V53.921A17.412,17.412,0,0,1,53.921,71.333" fill="#fff"/>
    <path id="Path_334" data-name="Path 334" d="M105.423,181.864v10.8H99.107V162.011h11.958a13.835,13.835,0,0,1,6.074,1.263,9.311,9.311,0,0,1,4.032,3.59,10.012,10.012,0,0,1,1.41,5.295,8.8,8.8,0,0,1-3.084,7.105q-3.084,2.6-8.537,2.6Zm0-5.116h5.642a5.548,5.548,0,0,0,3.821-1.179A4.288,4.288,0,0,0,116.2,172.2a5.056,5.056,0,0,0-1.326-3.642,4.955,4.955,0,0,0-3.663-1.432h-5.79Z" transform="translate(-86.768 -141.84)" fill="#fca311"/>
    <path id="Path_335" data-name="Path 335" d="M324.815,226.786a2.294,2.294,0,0,0-1.032-1.958,10.614,10.614,0,0,0-3.516-1.326,31.76,31.76,0,0,1-4.179-1.253,10.151,10.151,0,0,1-2.79-1.568,5.7,5.7,0,0,1-1.621-2.095,6.959,6.959,0,0,1-.526-2.832,6.309,6.309,0,0,1,2.632-5.2,10.738,10.738,0,0,1,6.779-2.042,12.051,12.051,0,0,1,7.316,2.053,6.593,6.593,0,0,1,2.789,5.611h-6.084a2.82,2.82,0,0,0-1.084-2.253,4.407,4.407,0,0,0-2.916-.905,4.455,4.455,0,0,0-2.632.716,2.129,2.129,0,0,0-1.011,1.79,1.988,1.988,0,0,0,1.053,1.737,12.837,12.837,0,0,0,3.495,1.274q4.905,1.074,7.021,2.969a6.523,6.523,0,0,1,2.116,5.116,6.1,6.1,0,0,1-2.59,5.19,11.7,11.7,0,0,1-7.074,1.905,14.682,14.682,0,0,1-5.516-.99,8.464,8.464,0,0,1-3.8-2.821,7.155,7.155,0,0,1-1.337-4.337h6.105a3.224,3.224,0,0,0,1.211,2.821,6.258,6.258,0,0,0,3.632.863,4.445,4.445,0,0,0,2.6-.674,2.087,2.087,0,0,0,.958-1.789" transform="translate(-271.674 -182.551)" fill="#fca311"/>
  </g>
</svg>
