<?xml version="1.0" encoding="UTF-8"?>
<svg id="Layer_2" data-name="Layer 2" xmlns="http://www.w3.org/2000/svg" viewBox="0 0 31.11 31.11">
  <defs>
    <style>
      .cls-1 {
        fill: #fca311;
      }

      .cls-1, .cls-2 {
        stroke-width: 0px;
      }

      .cls-2 {
        fill: #fff;
      }
    </style>
  </defs>
  <g id="UI_UX_Desginer" data-name="UI &amp;amp; UX Desginer">
    <g id="After_Effect" data-name="After Effect">
      <rect id="BC_White" data-name="BC White" class="cls-2" width="31.11" height="31.11" rx="8" ry="8"/>
      <g id="Logo">
        <path class="cls-1" d="M15.38,22.17c-.39,0-.79-.02-1.18,0-.23.01-.32-.08-.39-.29-.3-.91-.63-1.82-.93-2.73-.06-.17-.13-.21-.3-.21-1.44,0-2.88,0-4.32,0-.19,0-.26.07-.31.24-.28.9-.58,1.8-.86,2.7-.07.23-.19.3-.42.29-.72-.01-1.44,0-2.16,0-.31,0-.35-.04-.24-.34.46-1.32.92-2.64,1.38-3.95.93-2.66,1.85-5.32,2.78-7.98.11-.35.21-.7.28-.99.04-.15.1-.27.31-.27,1,0,1.85.01,2.86,0,.22,0,.31.07.38.27.59,1.68,1.19,3.36,1.78,5.03.93,2.61,1.86,5.23,2.79,7.84.02.06.04.11.06.17.04.14,0,.22-.17.22-.44,0-.89,0-1.33,0ZM10.38,11.12c-.05.22-.1.44-.17.66-.42,1.48-.88,2.94-1.36,4.4-.04.11-.13.23.12.23.95-.01,1.91,0,2.86,0,.17,0,.2-.04.15-.2-.15-.44-.28-.89-.42-1.34-.39-1.24-.8-2.48-1.18-3.74Z"/>
        <path class="cls-1" d="M23.49,17.79c-1.04,0-1.92,0-2.81,0-.22,0-.24.06-.2.26.25,1.1.96,1.74,2.2,1.92,1.06.15,2.08-.02,3.09-.35.22-.07.25-.01.25.19,0,.58,0,1.16,0,1.73,0,.24-.09.37-.31.45-1.64.56-3.3.66-4.96.16-1.41-.42-2.37-1.41-2.85-2.79-.63-1.84-.52-3.65.48-5.34.84-1.42,2.11-2.2,3.79-2.24.73-.02,1.43.03,2.12.29,1.35.51,2.08,1.54,2.44,2.88.23.85.17,1.71.09,2.57-.02.19-.12.23-.3.25-1.06.13-2.12-.03-3.04.03ZM22.2,15.88c.29,0,.59,0,.88,0,.27,0,.54,0,.8,0,.2,0,.32-.08.29-.33-.09-.65-.41-1.14-1.01-1.4-1.22-.53-2.53.24-2.71,1.57-.02.14.03.17.16.17.53,0,1.06,0,1.58,0Z"/>
      </g>
    </g>
  </g>
</svg>