<?xml version="1.0" encoding="UTF-8"?>
<svg id="Layer_2" data-name="Layer 2" xmlns="http://www.w3.org/2000/svg" viewBox="0 0 31.11 31.11">
  <defs>
    <style>
      .cls-1 {
        fill: #fca311;
      }

      .cls-1, .cls-2 {
        stroke-width: 0px;
      }

      .cls-2 {
        fill: #fff;
      }
    </style>
  </defs>
  <g id="UI_UX_Desginer" data-name="UI &amp;amp; UX Desginer">
    <g id="Audition">
      <rect id="BC_White" data-name="BC White" class="cls-2" width="31.11" height="31.11" rx="8" ry="8"/>
      <g id="Logo">
        <path class="cls-1" d="M10.32,8.73c.41,0,.83.01,1.24,0,.28-.01.41.09.5.36.92,2.79,1.85,5.57,2.78,8.35.47,1.41.95,2.83,1.42,4.24.14.41.04.53-.39.53-.64,0-1.27,0-1.91,0-.32,0-.48-.12-.58-.43-.31-.99-.65-1.97-.96-2.96-.07-.21-.15-.29-.37-.29-1.14.01-2.27.01-3.41,0-.24,0-.33.08-.39.3-.3,1-.63,2-.93,3.01-.09.29-.25.38-.53.37-.55,0-1.1,0-1.65,0-.52,0-.61-.12-.45-.6,1.04-3.19,2.09-6.38,3.13-9.57.26-.79.56-1.56.74-2.37.03-.16.04-.32.05-.49.03-.41.06-.45.46-.45.41,0,.83,0,1.24,0ZM10.32,11.66c-.44,1.48-.88,2.96-1.33,4.44-.06.18,0,.21.16.21.76,0,1.52,0,2.28,0,.34,0,.34,0,.25-.32-.42-1.39-.85-2.78-1.27-4.17-.02-.06-.01-.14-.09-.16Z"/>
        <path class="cls-1" d="M23.85,21.62c-1.14.77-2.35.93-3.62.61-1.28-.32-1.9-1.23-2.14-2.46-.08-.42-.11-.84-.11-1.26,0-1.97,0-3.93,0-5.9,0-.36.09-.46.46-.46.63,0,1.25,0,1.88,0,.34,0,.42.09.42.43,0,1.93,0,3.85,0,5.78,0,.3.03.6.11.88.14.51.48.82,1.01.9.57.08,1.09-.06,1.54-.42.16-.12.21-.27.21-.47,0-2.2,0-4.39,0-6.59,0-.45.06-.51.52-.51.59,0,1.18,0,1.76,0,.41,0,.49.08.49.53,0,2.44,0,4.88,0,7.31,0,.61.04,1.21.08,1.82.02.31-.05.38-.35.39-.59,0-1.18,0-1.76,0-.39,0-.43-.28-.51-.58Z"/>
      </g>
    </g>
  </g>
</svg>