<?xml version="1.0" encoding="UTF-8"?>
<svg id="Layer_2" data-name="Layer 2" xmlns="http://www.w3.org/2000/svg" viewBox="0 0 31.11 31.11">
  <defs>
    <style>
      .cls-1 {
        fill: #fca311;
      }

      .cls-1, .cls-2, .cls-3 {
        stroke-width: 0px;
      }

      .cls-2 {
        fill: #fff;
      }

      .cls-3 {
        fill: #734a08;
      }
    </style>
  </defs>
  <g id="UI_UX_Desginer" data-name="UI &amp;amp; UX Desginer">
    <g id="Blender">
      <rect id="BC_White" data-name="BC White" class="cls-2" width="31.11" height="31.11" rx="8" ry="8"/>
      <g id="Logo">
        <path class="cls-1" d="M13.03,11.79c-.09,0-.17,0-.24,0-1.28,0-2.55,0-3.83,0-.27,0-.54.01-.81-.01-.34-.03-.64-.15-.85-.43-.26-.34-.25-.79.01-1.16.34-.48.82-.74,1.39-.75,1-.02,2-.01,2.99-.01,2.13,0,4.27,0,6.4,0,.03,0,.05,0,.09-.02-.1-.08-.2-.16-.3-.24-.93-.75-1.85-1.51-2.78-2.27-.28-.23-.37-.53-.26-.87.09-.26.28-.44.51-.57.49-.28,1.26-.31,1.85.16,1.12.89,2.27,1.75,3.4,2.62.93.71,1.86,1.43,2.79,2.14.47.36.95.71,1.4,1.09.96.83,1.69,1.82,2.14,3.01.25.66.4,1.35.44,2.06.09,1.45-.27,2.8-1.02,4.04-.78,1.29-1.86,2.25-3.2,2.94-.97.5-2,.79-3.09.91-1.35.14-2.66-.02-3.94-.47-.88-.31-1.7-.76-2.43-1.35-1.02-.83-1.81-1.84-2.3-3.08-.27-.69-.46-1.4-.42-2.15,0-.15.03-.29.04-.44,0-.02.02-.06-.01-.07-.03-.01-.05.02-.07.03-.52.42-1.04.84-1.55,1.27-.97.79-1.93,1.58-2.9,2.37-.33.28-.7.48-1.13.55-.49.07-.95-.01-1.31-.39-.18-.18-.28-.4-.32-.65-.08-.55.13-1.01.48-1.41.25-.29.57-.49.87-.72,1.02-.79,2.05-1.58,3.08-2.37,1.15-.88,2.29-1.76,3.44-2.63.46-.35.91-.7,1.37-1.05.02-.02.04-.03.05-.07ZM19.1,11.78c-.26,0-.57.03-.87.08-1.28.23-2.34.82-3.16,1.83-.61.77-.93,1.65-.93,2.63,0,1.2.45,2.23,1.3,3.07.99.98,2.2,1.45,3.59,1.49.77.02,1.52-.11,2.24-.42,1.17-.5,2.06-1.31,2.57-2.49.44-1.01.46-2.05.08-3.09-.43-1.16-1.24-1.98-2.32-2.54-.76-.39-1.57-.57-2.48-.57Z"/>
        <path class="cls-3" d="M19.14,19.09c-.9-.02-1.77-.37-2.43-1.16-.92-1.09-.85-2.63.14-3.65,1.24-1.27,3.4-1.33,4.69-.13,1.33,1.23,1.2,3.23-.27,4.29-.6.44-1.28.64-2.13.65Z"/>
      </g>
    </g>
  </g>
</svg>