<?xml version="1.0" encoding="UTF-8"?>
<svg id="Layer_2" data-name="Layer 2" xmlns="http://www.w3.org/2000/svg" viewBox="0 0 31.11 31.11">
  <defs>
    <style>
      .cls-1 {
        fill: #fca311;
      }

      .cls-1, .cls-2, .cls-3 {
        stroke-width: 0px;
      }

      .cls-2 {
        fill: #fff;
      }

      .cls-3 {
        fill: #734a08;
      }
    </style>
  </defs>
  <g id="UI_UX_Desginer" data-name="UI &amp;amp; UX Desginer">
    <g id="Cinema_4D" data-name="Cinema 4D">
      <rect id="BC_White" data-name="BC White" class="cls-2" width="31.11" height="31.11" rx="8" ry="8"/>
      <g id="Logo">
        <path class="cls-1" d="M25.55,14.05c-.12-.79-.33-1.57-.68-2.29-.25-.52-.72-.68-1.23-.39-.34.19-.59.45-.76.8-.43.91-.55,1.9-.69,2.88-.28,1.94-.84,3.79-1.9,5.44-1.16,1.81-2.77,3.06-4.95,3.43-2.64.45-4.82-.41-6.59-2.4-.68-.77-1.23-1.62-1.53-2.61-.37-1.22-.25-2.44.08-3.65.5-1.82,1.7-3.08,3.2-4.12,1.47-1,3.12-1.57,4.84-1.94.88-.18,1.77-.35,2.64-.57.52-.13,1-.36,1.4-.74.4-.38.44-.82.04-1.2-.24-.23-.55-.42-.86-.52-.79-.27-1.61-.41-2.46-.46h-1.08c-5.46.29-9.53,4.73-9.58,9.75-.05,5.02,3.95,9.61,9.48,9.95h1.26c.42-.06.82-.09,1.21-.16.39-.07.79-.17,1.17-.29,2.75-.87,4.81-2.56,6.12-5.15.92-1.82,1.18-3.76.88-5.77Z"/>
        <path class="cls-2" d="M23.91,10.58c-.26.14-.51.25-.73.4-.67.44-1,1.11-1.17,1.86-.18.8-.27,1.61-.42,2.41-.38,2.01-1.05,3.91-2.25,5.59-.08.11-.22.21-.35.23-3.74.81-7.86-1.26-9.04-5.2-.35-1.17-.38-2.36-.08-3.55.03-.11.11-.22.2-.29,1.12-.89,2.37-1.53,3.74-1.9,1.13-.3,2.29-.49,3.44-.78.68-.17,1.36-.39,2.01-.65.66-.27,1.08-.75.9-1.6,1.72.71,2.95,1.86,3.73,3.48Z"/>
        <path class="cls-2" d="M23.91,10.58c-.26.14-.51.25-.73.4-.67.44-1,1.11-1.17,1.86-.18.8-.27,1.61-.42,2.41-.38,2.01-1.05,3.91-2.25,5.59-.08.11-.22.21-.35.23-3.74.81-7.86-1.26-9.04-5.2-.35-1.17-.38-2.36-.08-3.55.03-.11.11-.22.2-.29,1.12-.89,2.37-1.53,3.74-1.9,1.13-.3,2.29-.49,3.44-.78.68-.17,1.36-.39,2.01-.65.66-.27,1.08-.75.9-1.6,1.72.71,2.95,1.86,3.73,3.48Z"/>
        <path class="cls-3" d="M23.91,10.58c-.26.14-.51.25-.73.4-.67.44-1,1.11-1.17,1.86-.18.8-.27,1.61-.42,2.41-.38,2.01-1.05,3.91-2.25,5.59-.08.11-.22.21-.35.23-3.74.81-7.86-1.26-9.04-5.2-.35-1.17-.38-2.36-.08-3.55.03-.11.11-.22.2-.29,1.12-.89,2.37-1.53,3.74-1.9,1.13-.3,2.29-.49,3.44-.78.68-.17,1.36-.39,2.01-.65.66-.27,1.08-.75.9-1.6,1.72.71,2.95,1.86,3.73,3.48Z"/>
      </g>
    </g>
  </g>
</svg>