<?xml version="1.0" encoding="UTF-8"?>
<svg id="Layer_2" data-name="Layer 2" xmlns="http://www.w3.org/2000/svg" viewBox="0 0 31.11 31.11">
  <defs>
    <style>
      .cls-1 {
        fill: #fca311;
      }

      .cls-1, .cls-2 {
        stroke-width: 0px;
      }

      .cls-2 {
        fill: #fff;
      }
    </style>
  </defs>
  <g id="UI_UX_Desginer" data-name="UI &amp;amp; UX Desginer">
    <g id="Indesign">
      <rect id="BC_White" data-name="BC White" class="cls-2" width="31.11" height="31.11" rx="8" ry="8"/>
      <g id="Indesign_Logo" data-name="Indesign Logo">
        <g>
          <path class="cls-1" d="M24.11,14.75c0,2.48,0,4.95,0,7.43,0,.27.04.54.06.8.02.21-.07.32-.26.41-1.2.51-2.45.76-3.74.88-1.23.11-2.42,0-3.57-.42-1.95-.7-3.12-2.09-3.54-4.09-.43-2.03-.14-3.95,1.15-5.64,1.11-1.45,2.65-2.16,4.41-2.45.62-.1,1.25-.07,1.88-.06.45,0,.45.01.45-.45,0-1.31.01-2.62,0-3.93,0-.34.1-.41.42-.4.78.02,1.57.02,2.35,0,.31,0,.4.09.4.4-.01,2.51,0,5.02,0,7.53,0,0,.01,0,.02,0ZM20.93,17.93c0-.91,0-1.81,0-2.72,0-.67,0-.7-.64-.74-1.47-.1-2.71.34-3.49,1.66-.65,1.09-.53,2.26-.13,3.4.27.77.81,1.31,1.57,1.6.73.27,1.49.26,2.25.2.39-.03.47-.19.46-.54-.02-.95,0-1.9,0-2.85Z"/>
          <path class="cls-1" d="M6.94,16.04c0-2.44,0-4.89,0-7.33q0-.59.58-.59c.71,0,1.41,0,2.12,0q.54,0,.54.52c0,3.74,0,7.49,0,11.23,0,1.22,0,2.44,0,3.67,0,.42-.03.44-.44.44-.78,0-1.57,0-2.35,0-.41,0-.44-.03-.44-.44,0-2.5,0-5,0-7.5Z"/>
        </g>
      </g>
    </g>
  </g>
</svg>