<svg id="Adobe_XD_Logo" data-name="Adobe XD Logo" xmlns="http://www.w3.org/2000/svg" width="70.825" height="70.825" viewBox="0 0 70.825 70.825">
  <g id="Group_350" data-name="Group 350">
    <path id="Path_339" data-name="Path 339" d="M53.537,70.825H17.288A17.288,17.288,0,0,1,0,53.537V17.288A17.288,17.288,0,0,1,17.288,0H53.537A17.288,17.288,0,0,1,70.825,17.288V53.537A17.288,17.288,0,0,1,53.537,70.825" fill="#fff"/>
    <path id="Path_340" data-name="Path 340" d="M81.45,164.3l5.934-10.911h7.5l-9.216,15.692,9.455,15.953H87.536L81.45,173.947l-6.086,11.085H67.779l9.455-15.953-9.216-15.692h7.5Z" transform="translate(-57.296 -133.144)" fill="#fca311"/>
    <path id="Path_341" data-name="Path 341" d="M319.259,159.584q0-5.5,2.467-8.759a8,8,0,0,1,6.749-3.26,7.2,7.2,0,0,1,5.673,2.565v-12h6.3v33.385h-5.673l-.3-2.5a7.392,7.392,0,0,1-6.042,2.934,7.982,7.982,0,0,1-6.662-3.271q-2.51-3.271-2.51-9.1m6.281.468a9.281,9.281,0,0,0,1.152,5.072,3.752,3.752,0,0,0,3.347,1.763,4.2,4.2,0,0,0,4.108-2.46v-9.3a4.143,4.143,0,0,0-4.064-2.46q-4.543,0-4.543,7.379" transform="translate(-280.108 -119.629)" fill="#fca311"/>
  </g>
</svg>
