<svg xmlns="http://www.w3.org/2000/svg" xmlns:xlink="http://www.w3.org/1999/xlink" width="445" height="702" viewBox="0 0 445 702">
  <defs>
    <clipPath id="clip-path">
      <rect id="Rectangle_498" data-name="Rectangle 498" width="445" height="702" transform="translate(-987 6418)" fill="red"/>
    </clipPath>
    <clipPath id="clip-path-2">
      <path id="Path_222" data-name="Path 222" d="M166.153,225.213l44.041-27.594-44.046,31.525c-7.493,5.363-15.182,7.024-19.136,4.134-1.983-1.45-2.787-3.91-2.363-7.078l.5-2.072a6.675,6.675,0,0,0,2.191,3.56,9.108,9.108,0,0,0,5.976,1.893c3.712,0,8.24-1.489,12.836-4.369m.792,5.047,47.5-34-47,38.154c-9.239,7.5-17.275,8.392-21.143,5.952-2.182-1.379-3.234-3.847-3.077-7.1l.391-2.451a7.089,7.089,0,0,0,2.587,3.567,9.639,9.639,0,0,0,5.785,1.682c4.31,0,9.643-2,14.956-5.807m1.364,5.22,50.68-41.138-49.595,45.48c-9.751,8.944-18.678,10.491-23.2,8.059-2.4-1.292-3.724-3.75-3.859-7.074l.218-2.9a7.575,7.575,0,0,0,3.019,3.616,10.151,10.151,0,0,0,5.488,1.425c5,0,11.293-2.636,17.249-7.471m2.011,5.353,53.521-49.082-51.764,53.561c-8.663,8.96-19.057,13.27-25.278,10.479-2.649-1.188-4.27-3.623-4.726-7l-.043-3.344a8.143,8.143,0,0,0,3.513,3.646,10.912,10.912,0,0,0,5.223,1.2c5.71,0,12.935-3.389,19.553-9.46m2.743,5.43,55.853-57.791-53.336,62.344c-8.9,10.4-20.136,15.847-27.335,13.241a8.882,8.882,0,0,1-5.672-6.742l-.417-3.925a8.85,8.85,0,0,0,4.082,3.652,11.861,11.861,0,0,0,4.889.976c6.5,0,14.708-4.277,21.935-11.756m3.56,5.445,57.537-67.256L180,256.267c-8.992,11.921-21.05,18.647-29.323,16.352a9.708,9.708,0,0,1-6.736-6.53l-.891-4.319,0-.039a9.679,9.679,0,0,0,4.737,3.615,13.057,13.057,0,0,0,4.456.742c7.4,0,16.635-5.316,24.389-14.38m4.467,5.385L239.5,179.644l-54.092,81.932c-8.908,13.494-21.728,21.646-31.171,19.829a10.752,10.752,0,0,1-7.94-6.228l-1.406-4.454-.057-.274a10.71,10.71,0,0,0,5.47,3.493,13.927,13.927,0,0,0,3.728.485c8.408,0,18.982-6.63,27.056-17.334m5.463,5.24,58.285-88.284-52.922,92.6c-8.62,15.084-22.106,24.816-32.806,23.671a12.072,12.072,0,0,1-9.321-5.829l-1.982-4.528-.163-.517a11.973,11.973,0,0,0,6.334,3.309,15.461,15.461,0,0,0,2.932.273c9.551,0,21.314-8.076,29.642-20.692m6.554,4.994L250.1,167.609,199.612,271.363c-8.1,16.648-22.118,28.085-34.128,27.866a13.744,13.744,0,0,1-10.925-5.29l-2.63-4.564-.323-.737a13.545,13.545,0,0,0,7.359,3.043,17.206,17.206,0,0,0,1.854.1c10.876,0,23.89-9.757,32.289-24.452M83.84,259.212c-9.883-6.679-15.914-19.205-16.549-34.369-.869-20.763,8.269-41.988,23.282-54.073l7.57-6.094C85.314,175.7,76.719,193.894,75.891,212.369c-.662,14.744,3.883,27.4,12.464,34.732l83.715,71.491.37.4.226.24Zm117,12.751,54.321-111.638L208.586,275.6c-7.331,18.14-21.732,31.454-35.026,32.378a15.87,15.87,0,0,1-12.8-4.556l-3.365-4.56-.535-.928a15.478,15.478,0,0,0,8.594,2.663c.131,0,.261,0,.395,0,12.42,0,26.753-11.707,34.991-28.639m-111.6-25.9c-8.258-7.053-12.629-19.311-11.984-33.629.887-19.78,10.836-39.214,25.345-49.509l5.719-4.057c-11.628,9.552-20.2,25.4-22.425,42.064-1.867,13.982,1.153,26.391,8.283,34.045L163.32,309.2l.238.322Zm5.941-12.019c-6.85-7.355-9.741-19.357-7.928-32.931,2.479-18.575,12.99-36.108,26.784-44.671l4.5-2.791c-10.677,8.136-19.264,21.933-22.629,36.909-2.99,13.3-1.351,25.47,4.5,33.4l55.762,75.56Zm78.468,75.308c13.8-.959,28.683-14.624,36.2-33.232L259.93,152.195l-41,127.03c-6.294,19.5-20.84,34.779-35.374,37.15-5.775.941-10.873-.286-15-3.566l-4.18-4.488-.806-1.092a17.525,17.525,0,0,0,8.634,2.169c.478,0,.963-.015,1.451-.05m-72.143-86.212c-5.613-7.605-7.169-19.372-4.265-32.283,3.859-17.16,14.685-32.724,27.582-39.65l3.335-1.791c-9.755,6.8-17.994,18.423-22.287,31.836-4.052,12.657-3.678,24.6,1.026,32.754l43.267,75.066Zm138.9-56.923a6.8,6.8,0,0,0-4.3-6.078l-31.474-13.286,33.069,10.108a5.888,5.888,0,0,1,4.38,4.995c.483,2.953-.577,7.118-3.212,11.48a14.936,14.936,0,0,0,1.54-7.219m-132.324,47.1c-4.51-7.824-4.842-19.361-.907-31.652,5.064-15.819,15.693-29.065,27.746-34.569l2.532-1.156c-8.828,5.586-16.808,15.41-21.716,27.075-5.057,12.026-5.859,23.717-2.2,32.078l32.165,73.491ZM168.846,163.8c2.814-6.952,10.263-14.086,18.115-17.346a19.4,19.4,0,0,1,7.259-1.651,9.215,9.215,0,0,1,3.592.657L235.579,161.4a5.438,5.438,0,0,1,3.467,4.925c.43,5.354-4.465,14.4-14.389,20.616L165.425,224.05c-7.055,4.421-13.808,5.434-17.2,2.587-1.8-1.508-2.379-3.945-1.716-7.012l.991-3.064Zm74.591-2.068a7.244,7.244,0,0,0-5.33-6.082l-36.867-11.27,38.38,7.729a6.529,6.529,0,0,1,5.428,5.04c.8,3.246-.175,8.068-3.06,13.192a15.94,15.94,0,0,0,1.448-8.608M114.8,204.545c-3.509-8.019-2.7-19.316,2.21-31C122.936,159.459,133.4,148.14,144.32,144l1.863-.706c-7.911,4.492-15.486,12.635-20.734,22.572-6.006,11.366-7.9,22.777-5.21,31.312l22.409,70.988Zm49.163-38.917c3.634-11.245,17.833-22.335,27.424-22.335a10.886,10.886,0,0,1,1.949.168,21.7,21.7,0,0,0-6.9,1.724c-8.165,3.391-15.921,10.831-18.861,18.1l-14.2,35.087Zm19.812,152.1c15.022-2.451,30.013-18.112,36.459-38.084l44.032-136.422L230.731,282.074c-4.995,20.683-19.407,37.991-35.048,42.094-6.5,1.7-12.619.868-17.709-2.337l-4.949-4.226-1.134-1.218a19.847,19.847,0,0,0,8.072,1.658,23.619,23.619,0,0,0,3.814-.316m62.6-160.912a7.824,7.824,0,0,0-6.488-6.056l-42.641-8.586,44.008,4.665c3.373.356,5.669,2.1,6.64,5.05,1.13,3.431.379,8.751-2.518,14.519a16.664,16.664,0,0,0,1-9.592m-87.643,11.177c3.044-12.575,18.691-26.02,29.4-26.02a11.76,11.76,0,0,1,1.34.075c-10.08,1.261-23.2,11.946-26.819,23.155l-12.922,39.971Zm-37.19,28.776c-2.547-8.066-.636-19.377,5.114-30.26,6.494-12.291,16.582-21.753,26.328-24.693l1.09-.329c-16.444,8.278-30.589,32.225-27.185,48.73l13.962,67.719Zm31.635-25.814c2.224-13.93,19.291-30.067,31.273-30.067.21,0,.418,0,.625.015-11.057,2.076-24.726,14.585-27.675,26.767l-10.88,44.95Zm-24.946,18.986c-3.65-17.7,14.687-45.466,32.7-49.512l.576-.13c-15.311,6.736-29.749,28.083-28.077,43.849l6.77,63.856ZM249.2,151.461c-1.152-3.5-3.849-5.568-7.8-5.987L192.548,140.3l50,.867c3.928.069,6.706,1.8,8.033,5.006,1.609,3.885,1.041,10.066-2.224,16.867,1.537-4.29,1.9-8.343.838-11.576M147.318,174.573c1.144-15.207,19.378-34.281,32.784-34.485-12.073,3.019-26.175,17.512-28.276,30.651l-7.976,49.934ZM134.8,184.006c-1.806-17.031,16.907-41.853,33.369-44.265l.162-.024c-14.207,5.345-28.717,24.253-28.525,39.2l.764,59.506Zm6.376-5.1c-.208-16.153,18.373-38,33.265-39.228-13.124,4.125-27.436,20.754-28.492,34.794l-4.126,54.842Zm102.248-43.8q.521-.034,1.017-.035c4.032,0,7,1.686,8.616,4.913,2.079,4.146,1.814,11.083-1.563,18.842,1.609-4.978,1.823-9.627.356-13.171-1.551-3.751-4.761-5.774-9.275-5.853l-55.442-.963Zm-47.394,190.4c16.108-4.225,30.924-21.946,36.032-43.1l35.976-148.953L244.07,283.978c-3.5,21.979-17.131,40.9-33.919,47.089-7.364,2.713-14.531,2.5-20.734-.519l-5.924-4-1.513-1.292a22.572,22.572,0,0,0,7.216,1.157,26.96,26.96,0,0,0,6.835-.916m47.762-196.839-.1-.678.1.678c5.241-.768,9.209.839,11.465,4.646,2.935,4.951,2.6,12.512-.5,20.539,1.521-5.546,1.449-10.655-.468-14.48-1.991-3.968-5.885-5.968-10.952-5.632l.045.685-.045-.685-62.395,4.14Zm-33.167,203.7c17.239-6.351,31.223-25.705,34.8-48.161L271.1,122.9,259.018,284.75c-1.694,22.681-14.5,43.575-31.878,51.99-8.293,4.016-16.665,4.637-24.193,1.9l-6.984-3.674-1.957-1.323a25.753,25.753,0,0,0,5.995.7,30.757,30.757,0,0,0,10.625-1.991m32.943-210.485-.15-.67.15.67c6-1.35,10.687.129,13.55,4.274,3.6,5.221,3.672,13.619.628,22.612,1.48-6.307,1.125-12.049-1.309-16.154-2.526-4.263-7.09-6.146-12.844-5.3l-69.647,10.208Zm-.912-7.094a20.208,20.208,0,0,1,5.841-.929,12.353,12.353,0,0,1,10.064,4.66c4.359,5.475,4.947,14.76,2.043,24.774,1.377-7.124.661-13.542-2.357-17.916-3.16-4.577-8.482-6.293-14.979-4.832l-77.182,17.335Zm-14.919,223.2c17.8-8.62,30.919-29.967,32.649-53.123l12.933-173.205L275.64,284.19c.314,23.462-11.014,45.693-28.861,56.634-9.233,5.66-18.944,7.377-28.028,5.083l-8.173-3.247-2.449-1.288a29.55,29.55,0,0,0,4.343.318,35,35,0,0,0,15.266-3.716M259.51,110.395c5.25,5.751,6.539,15.683,3.913,26.661,1.132-7.829-.091-14.762-3.786-19.4-3.9-4.9-10.072-6.391-17.376-4.19l.2.657-.2-.657L157.354,139.07l83.6-31.651-.243-.639.243.639c7.592-2.873,14.183-1.817,18.557,2.976M247.5,341.99c18.251-11.188,29.835-33.882,29.514-57.819L274.534,99.723l19.447,182.353c2.517,23.6-7.234,47.489-24.842,60.861-10.038,7.621-21.493,10.746-32.453,9.053l-9.154-2.6-3.007-1.194q1.081.069,2.169.069a39.759,39.759,0,0,0,20.8-6.279m-9.15-242.123a24.952,24.952,0,0,1,10.3-2.479,15.787,15.787,0,0,1,11.216,4.433c6.213,5.944,8.3,16.791,6.018,28.872.864-8.719-.918-16.358-5.36-21.224-4.781-5.237-11.9-6.419-20.056-3.333l-92.684,35.091Zm21.178-7.055c7.341,6.122,10.4,17.509,8.653,30.6.421-9.428-2.072-17.513-7.365-22.576-5.811-5.558-13.992-6.343-23.036-2.212l.284.624-.284-.624L137.3,144.506l97.427-52.318-.325-.6.325.6c9.433-5.066,18.239-4.845,24.8.624m10.444,251.216c17.982-13.654,27.943-38.029,25.375-62.1L274.579,87.214l39.5,190.964c4.929,23.833-2.681,48.564-19.861,64.543-10.745,10-23.744,14.89-36.765,14.082L246.926,354.9,243.1,353.81c9.225-.129,18.527-3.448,26.869-9.783m-40-259.556c10.225-6.345,20.578-6.742,28.4-1.082,8.564,6.193,12.766,18.448,11.647,32.679-.074-10.346-3.379-19.109-9.615-24.31-6.912-5.765-16.509-6.048-26.325-.778l-108.1,58.048Zm65.182,259.255c17.53-16.3,25.3-41.528,20.27-65.826L273.293,74.227,335.95,272.248a70.564,70.564,0,0,1-13.993,67.607c-11.182,12.7-25.71,19.714-41.023,20.083l-11.967-1.047-4.521-.82c10.96-1,21.626-5.9,30.707-14.344m-71.2-266.908c6.455-4.581,13.128-6.9,19.429-6.9A24.122,24.122,0,0,1,256.27,73.59c10.175,6.319,15.686,19.3,15.2,34.937-.656-11.394-4.943-20.929-12.3-26.249-8.3-6-19.2-5.625-29.925,1.03l.362.581-.362-.581L113.837,154.954Zm99.028,263.941a71.943,71.943,0,0,0,14.273-68.928L270.812,61.843c-.109-.348-.222-.692-.336-1.037l89.108,203.213a70.525,70.525,0,0,1-7.343,70.043c-11.139,15.523-27.564,25.124-45.43,27H293.757l-5.261-.46c12.882-2.136,24.9-8.94,34.49-19.839m-69.92-277.3c11.54,6.066,18.609,19.415,19.341,35.822-1.551-11.925-6.927-21.588-15.412-26.858-9.9-6.15-22.23-4.954-33.831,3.274l.4.559-.4-.559-121.35,86.1q-.556.394-1.1.806L216.555,69.348l-.429-.533.429.533c11.975-9.64,25.284-11.785,36.511-5.886m-4.49-10.392c13.29,5.77,22.216,19.763,24.154,37.306-2.519-12.8-9.216-22.974-19.027-28.127-11.733-6.167-25.587-3.968-38.007,6.03L89.711,169.7c-15.338,12.35-24.676,34.014-23.791,55.2.654,15.6,6.9,28.525,17.152,35.448l99.595,67.293.445.38q.306.261.617.512L79.138,273.506c-11.763-6.188-19.69-18.993-21.748-35.128C54.645,216.871,62.741,194,78.01,180.106L207.636,62.2l-.462-.507.462.507c12.722-11.571,27.643-14.9,40.94-9.125m104.78,281.791a71.886,71.886,0,0,0,7.484-71.393L266.955,49.363q-.554-1.264-1.148-2.493L384.944,253.22A71.893,71.893,0,0,1,322.684,361.06h-7.723a66.173,66.173,0,0,0,38.395-26.2M242.585,42.5c15.542,5.376,26.449,19.614,29.795,38.555-3.674-13.68-11.932-24.322-23.257-29.24-13.813-6-29.271-2.582-42.409,9.369L77.086,179.094c-15.59,14.182-23.856,37.52-21.057,59.457,2.116,16.585,10.3,29.767,22.469,36.168l116.75,61.424.544.368q.549.37,1.106.715l-121.573-48.3c-13.944-5.538-24.05-18.6-27.725-35.842-4.767-22.353,1.9-46.123,17.405-62.032L197.069,55.516l-.491-.478.491.478C210.2,42.044,227.211,37.178,242.585,42.5m-7.739-10.641c17.579,4.56,30.867,18.818,36.13,38.5C265.89,56.181,256.037,45.7,243.034,41.2c-15.891-5.5-33.441-.5-46.948,13.358L64.024,190.1C48.2,206.331,41.4,230.577,46.259,253.373c3.775,17.695,14.184,31.118,28.559,36.828l135.207,53.715.618.325q.859.452,1.73.853L72.609,305.457c-16.462-4.67-29.083-17.945-34.623-36.423A69.987,69.987,0,0,1,51.67,203.727L184.722,49.485l-.519-.449.519.449c13.521-15.675,32.257-22.265,50.125-17.628M71.216,323.04c-19.362-3.511-34.884-16.9-42.592-36.742a70.769,70.769,0,0,1,9.51-68.054L170.47,44.292c11.625-15.283,28.136-23.783,45.446-23.783a53.489,53.489,0,0,1,9.153.794c20.114,3.493,36.28,17.858,43.657,38.63-6.737-14.918-18.632-25.537-33.534-29.4-18.383-4.769-37.638,1.982-51.508,18.06L50.631,202.832a71.378,71.378,0,0,0-13.958,66.6c5.677,18.934,18.641,32.547,35.563,37.346L227.074,350.69l.745.3q1.239.492,2.494.9Zm.168,18.565c-22.325-1.953-41.676-15.652-51.76-36.645a70.518,70.518,0,0,1,4.932-70.252L154.191,40.157C166.618,21.508,186.2,10.8,207.386,10.8q2.749,0,5.533.244c22.969,2.008,42.488,16.186,52.393,38-8.695-15.577-22.965-26.135-40.008-29.095-21.044-3.653-41.945,5.137-55.925,23.51l.545.415-.545-.415L37.043,217.413a72.14,72.14,0,0,0-9.7,69.381c7.883,20.294,23.785,34,43.624,37.593l175.645,31.846.859.243q1.7.483,3.412.834ZM198.033,1.371a71.16,71.16,0,0,1,62.258,35.947l.29.5A63.845,63.845,0,0,0,213.039,9.681c-23.781-2.08-46.2,9.029-59.99,29.717l.571.381-.571-.381L23.415,233.947a71.879,71.879,0,0,0-5.028,71.607c10.3,21.433,30.065,35.42,52.877,37.416l197.518,17.281.972.176q2.266.41,4.526.632H73.38A71.893,71.893,0,0,1,11.118,253.22l124.653-215.9-.595-.342.595.342A71.163,71.163,0,0,1,198.033,1.371m0-1.371a72.515,72.515,0,0,0-63.449,36.633L9.932,252.534A73.265,73.265,0,0,0,73.38,362.43H293.692l1.092.1q2.8.245,5.575.244a63.2,63.2,0,0,0,6.541-.339h15.784a73.265,73.265,0,0,0,63.448-109.9L261.48,36.633A72.515,72.515,0,0,0,198.033,0Z" transform="translate(0 0)" fill="#fca311"/>
    </clipPath>
  </defs>
  <g id="Mask_Group_1" data-name="Mask Group 1" transform="translate(987 -6418)" clip-path="url(#clip-path)">
    <path id="Subtraction_2" data-name="Subtraction 2" d="M205.069,542.735a327.162,327.162,0,0,1-45.969-3.527c-15.752-2.226-31.817-5.146-49.113-8.929-15.21-3.326-31.061-7.255-48.458-12.011-18.3-5-34.319-9.8-48.977-14.662-3.955-1.312-7.588-2.571-11.106-3.85-.47-.171-.957-.349-1.446-.53V0A81.532,81.532,0,0,1,10.064,7.958a88.69,88.69,0,0,1,8.585,9.21A117.146,117.146,0,0,1,32.237,38.663a221.031,221.031,0,0,1,10.24,24.457c3.047,8.5,5.871,17.424,8.6,26.055,3.51,11.09,7.138,22.557,11.333,33.455,11.524,29.949,25.969,53.417,44.157,71.745a194.146,194.146,0,0,0,20.53,17.89,267.869,267.869,0,0,0,22.414,15.216c15.433,9.452,31.969,17.85,47.961,25.972,10.1,5.128,20.536,10.43,30.592,15.943,11.277,6.183,20.867,11.983,29.318,17.733a266.348,266.348,0,0,1,36,29.387,251.193,251.193,0,0,1,30.156,35.328,202.305,202.305,0,0,1,11.108,17.6,157.783,157.783,0,0,1,8.976,18.793,125,125,0,0,1,6.049,19.822A104.359,104.359,0,0,1,352,428.742a88.577,88.577,0,0,1-2.127,20.037,96.664,96.664,0,0,1-6.354,18.905,108.291,108.291,0,0,1-9.958,17.372,119.176,119.176,0,0,1-12.938,15.437,132.542,132.542,0,0,1-33.573,24.413A153.417,153.417,0,0,1,247.8,538.629a195.145,195.145,0,0,1-21.268,3.142C219.661,542.41,212.438,542.734,205.069,542.735Z" transform="translate(-987 6577)" fill="#14213d" stroke="rgba(0,0,0,0)" stroke-miterlimit="10" stroke-width="1"/>
    <g id="Group_1033" data-name="Group 1033" transform="translate(-512.079 6499.605) rotate(103)" opacity="0.7">
      <g id="Group_70" data-name="Group 70" transform="translate(0 0)" clip-path="url(#clip-path-2)">
        <rect id="Rectangle_80" data-name="Rectangle 80" width="402.685" height="362.769" transform="translate(-3.311 0)" fill="#fca311"/>
      </g>
    </g>
  </g>
</svg>
