<?xml version="1.0" encoding="UTF-8"?>
<svg id="Layer_2" data-name="Layer 2" xmlns="http://www.w3.org/2000/svg" viewBox="0 0 658.93 685.27">
  <defs>
    <style>
      .cls-1 {
        fill: #fff;
        stroke-width: 0px;
      }
    </style>
  </defs>
  <g id="Layer_1-2" data-name="Layer 1">
    <g>
      <path class="cls-1" d="M512.77,297.93c-3.18,1.33-6.48,1.96-9.72,1.96-9.85,0-19.2-5.81-23.24-15.46l-17.98-42.9-226.33-1.63c-13.91-.1-25.1-11.46-25-25.37.1-13.84,11.35-25,25.18-25h.18l259.58,1.87,30.82,73.57c5.38,12.83-.66,27.59-13.49,32.96Z"/>
      <path class="cls-1" d="M422.92,147.14c-12.86,5.27-27.58-.88-32.85-13.75-5.36-13.06-10.89-26.55-17.88-38.01-25.94-41.51-69.95-49.39-102.51-42.92-42.36,8.42-74.09,40.06-80.85,80.61l-.02.11c-5.46,31.87-9.71,70.85-13.82,108.56-2.55,23.43-4.96,45.57-7.63,65.96-1.66,12.68-12.49,21.92-24.94,21.92-1.09,0-2.19-.07-3.3-.22-13.79-1.8-23.51-14.45-21.7-28.24,2.6-19.85,4.98-41.72,7.5-64.88,4.19-38.44,8.52-78.18,14.24-111.56,10.25-61.37,57.62-109.12,120.7-121.66,29.01-5.76,58.38-3.36,84.93,6.96,28.96,11.26,53.24,31.6,70.2,58.81l.12.19c9.11,14.91,15.73,31.03,21.56,45.26,5.28,12.87-.88,27.58-13.75,32.86Z"/>
      <path class="cls-1" d="M618.02,354.86l-.41-.28c-44.26-30.64-91.78-33.97-145.29-10.17-43.87,19.51-87.4,55.14-133.48,92.86-82.67,67.66-175.65,143.77-288.29,137.97-.62-13.31.72-29.28,4.02-48.08l.1-.62c10.74-71.65,21.7-144.49,32.29-214.93,7.01-46.56,14.01-93.12,21.01-139.67,2.06-13.76-7.42-26.58-21.17-28.65-13.75-2.07-26.58,7.41-28.64,21.17l-21,139.65c-10.59,70.36-21.53,143.09-32.25,214.66-6.27,35.82-11.3,87.49,16.55,123.9,17.83,23.31,46.29,36.9,84.6,40.39l1.43.09c48.62,1.66,97.75,2.12,146.47,2.12,31.05,0,61.94-.19,92.42-.37,40.16-.25,81.69-.5,122.36-.31,30.19.41,58.65-5.67,82.32-17.62,28.55-14.41,49.3-37.07,60.03-65.55,10.23-25.67,10.71-54.91,1.33-82.38-.62-1.82-1.28-3.61-1.97-5.38,24.37-12.27,40.76-32.48,46.4-58.2,8.09-36.89-7.87-78.25-38.83-100.6ZM607.65,444.66c-2.71,12.36-11.26,21.25-25.47,26.54-6.59-6.29-13.92-11.73-21.85-16.18-39.3-23.31-89.39-23.78-127.79-1.2-20.76,11.8-36.93,29.37-52.57,46.37-6.22,6.76-12.66,13.75-19.22,20.19l-.38.37c-19.08,19.52-44.71,35.55-76.15,47.67-12.98,5-19.45,19.57-14.45,32.55,5,12.98,19.58,19.45,32.56,14.45,38.13-14.7,69.71-34.63,93.86-59.25,7.42-7.29,14.24-14.7,20.84-21.88,13.66-14.83,26.55-28.85,40.52-36.75l.41-.23c22.53-13.32,53.43-12.86,76.89,1.15l.68.4c27.7,15.37,40.84,53.87,28.71,84.07l-.22.57c-17.98,48.09-77.01,51-94.67,50.72h-.25c-40.98-.19-82.69.06-123.02.31-77.57.47-157.77.96-236.14-1.69-12.34-1.18-22.55-3.59-30.77-7.3,45.26-2.5,90.59-15.75,137.22-39.98,56.93-29.58,108.69-71.94,154.35-109.32,43.39-35.51,84.37-69.05,122.05-85.81,37.01-16.46,66.61-14.8,95.93,5.41,14.34,10.48,22.65,31.87,18.93,48.82Z"/>
    </g>
  </g>
</svg>