<svg xmlns="http://www.w3.org/2000/svg" xmlns:xlink="http://www.w3.org/1999/xlink" width="1920" height="1080" viewBox="0 0 1920 1080">
  <defs>
    <clipPath id="clip-path">
      <path id="Path_223" data-name="Path 223" d="M244.212,430.815c-43.878-28.354-73.093-69.1-79.994-112.013-5.067-31.7,2.371-61.127,21.67-85.061,25.335-31.48,67.058-47.543,112.551-47.543,38.273,0,79.132,11.427,115.248,34.606,43.878,28.354,73.093,69.1,79.992,112.012,5.068,31.7-2.371,61.128-21.669,85.061C446.6,449.319,404.881,465.4,359.418,465.4c-38.249,0-79.149-11.386-115.206-34.586M184.918,232.879c-19.514,24.256-27.061,54.011-21.885,86.03,6.9,43.231,36.331,84.413,80.533,112.876,36.224,23.394,77.406,34.821,115.893,34.821,45.819,0,87.972-16.171,113.522-47.974,19.514-24.257,27.06-54.013,21.885-86.03-6.9-43.233-36.33-84.414-80.532-112.876-36.28-23.383-77.426-34.852-115.928-34.851-45.819,0-87.887,16.252-113.487,48" transform="translate(-161.448 -184.876)" fill="none"/>
    </clipPath>
    <linearGradient id="linear-gradient" x1="-0.525" y1="1.745" x2="-0.521" y2="1.745" gradientUnits="objectBoundingBox">
      <stop offset="0" stop-color="#fca311"/>
      <stop offset="0.356" stop-color="#fca611"/>
      <stop offset="0.615" stop-color="#fcaf11"/>
      <stop offset="0.843" stop-color="#fcbf11"/>
      <stop offset="1" stop-color="#fccf11"/>
    </linearGradient>
    <clipPath id="clip-path-2">
      <path id="Path_224" data-name="Path 224" d="M392.573,197.056c46.9,20.376,82.8,56.493,98.538,99.076,12.4,33.528,11.1,68.674-3.666,99.075-34.714,71.477-133.9,98.86-221.006,61.02-46.9-20.376-82.8-56.493-98.537-99.075-12.4-33.528-11.1-68.675,3.666-99.076l-.647-.323.647.323c34.714-71.477,133.9-98.86,221.006-61.02M170.382,257.428c-14.985,30.726-16.279,66.3-3.773,100.155,15.955,42.907,52.071,79.346,99.289,99.83a204.083,204.083,0,0,0,81.4,17.142c61.126,0,116.864-28.677,141.335-78.809,14.987-30.725,16.279-66.3,3.773-100.154-15.955-42.907-52.071-79.346-99.291-99.829a205.069,205.069,0,0,0-81.447-17.1c-61.191,0-116.925,28.625-141.284,78.763" transform="translate(-158.099 -178.665)" fill="none"/>
    </clipPath>
    <linearGradient id="linear-gradient-2" x1="-0.5" y1="1.547" x2="-0.496" y2="1.547" xlink:href="#linear-gradient"/>
    <clipPath id="clip-path-3">
      <path id="Path_225" data-name="Path 225" d="M292.474,479.2c-47.435-11.428-88.511-40.644-112.552-80.1-21.024-34.5-27.491-74.173-18.328-111.69,17.249-70.075,84.738-116.325,160.742-116.325a187.574,187.574,0,0,1,44.525,5.39c47.435,11.428,88.51,40.644,112.551,80.1,21.024,34.5,27.492,74.172,18.329,111.689-17.172,69.953-84.651,116.266-160.646,116.266a190.583,190.583,0,0,1-44.62-5.331M160.193,287.088l.647.216-.647-.216c-9.272,37.84-2.7,77.946,18.543,112.767,24.149,39.782,65.547,69.213,113.414,80.749a190.483,190.483,0,0,0,44.955,5.39c76.652-.108,144.679-46.789,162.036-117.4,9.272-37.84,2.7-77.945-18.543-112.767-24.149-39.781-65.547-69.213-113.414-80.749a192.244,192.244,0,0,0-44.859-5.341c-76.663,0-144.772,46.734-162.132,117.355" transform="translate(-156.095 -169.733)" fill="none"/>
    </clipPath>
    <linearGradient id="linear-gradient-3" x1="-0.481" y1="1.608" x2="-0.478" y2="1.608" xlink:href="#linear-gradient"/>
    <clipPath id="clip-path-4">
      <path id="Path_226" data-name="Path 226" d="M322.1,498.62c-95.194-4.528-169.258-84.2-165.055-177.561,1.94-44.524,21.454-85.815,54.659-116.11a172.646,172.646,0,0,1,116.973-45.063c2.91,0,5.82.107,8.625.215,95.195,4.528,169.258,84.2,165.053,177.56-1.94,44.524-21.454,85.816-54.659,116.11a172.364,172.364,0,0,1-116.857,45.059q-4.355,0-8.739-.211M210.73,203.872a167.627,167.627,0,0,0-55.089,117.079c-4.2,94.118,70.4,174.433,166.455,179.069,2.911.109,5.822.215,8.732.215a173.724,173.724,0,0,0,117.943-45.493,167.633,167.633,0,0,0,55.09-117.081c4.2-94.116-70.4-174.433-166.456-179.069q-4.4-.211-8.767-.21A173.722,173.722,0,0,0,210.73,203.872" transform="translate(-155.472 -158.383)" fill="none"/>
    </clipPath>
    <linearGradient id="linear-gradient-4" x1="-0.483" y1="1.526" x2="-0.48" y2="1.526" xlink:href="#linear-gradient"/>
    <clipPath id="clip-path-5">
      <path id="Path_227" data-name="Path 227" d="M230.572,482.35c-39.458-29.324-65.008-73.417-71.908-124.194C144.973,257.677,210.627,163.777,304.959,148.9a157,157,0,0,1,25.55-2.048c35.038,0,69.321,11.428,98.429,33.1,39.458,29.323,65.008,73.417,71.908,124.194C514.537,404.619,448.882,498.52,354.551,513.4A163.931,163.931,0,0,1,329,515.407c-35.064,0-69.267-11.359-98.431-33.058M304.743,147.5C209.657,162.483,143.462,257.031,157.261,358.37c6.9,51.1,32.666,95.624,72.448,125.164a166.074,166.074,0,0,0,99.4,33.312,160.6,160.6,0,0,0,25.767-2.048c95.087-14.985,161.28-109.532,147.481-210.872-6.9-51.1-32.665-95.626-72.447-125.165-29.4-21.854-63.884-33.315-99.261-33.313a165.456,165.456,0,0,0-25.9,2.048" transform="translate(-155.442 -145.449)" fill="none"/>
    </clipPath>
    <linearGradient id="linear-gradient-5" x1="-0.441" y1="1.444" x2="-0.438" y2="1.444" xlink:href="#linear-gradient"/>
    <clipPath id="clip-path-6">
      <path id="Path_228" data-name="Path 228" d="M266.624,517.545c-46.25-22.1-82.581-65.871-99.507-120.206-32.665-104.467,13.8-218.2,103.6-253.673a150.755,150.755,0,0,1,55.522-10.673,155,155,0,0,1,66.841,15.415c46.249,22.1,82.582,65.873,99.506,120.207,32.667,104.467-13.8,218.2-103.6,253.672a150.176,150.176,0,0,1-55.515,10.678,154.716,154.716,0,0,1-66.847-15.422m3.558-375.388C179.623,177.948,132.727,292.549,165.609,397.77c17.033,54.767,53.579,98.86,100.262,121.176a156.45,156.45,0,0,0,67.6,15.525,153.534,153.534,0,0,0,56.06-10.674C480.085,488.005,526.981,373.4,494.1,268.184c-17.034-54.765-53.581-98.86-100.261-121.176a156.312,156.312,0,0,0-67.6-15.6,152.213,152.213,0,0,0-56.06,10.749" transform="translate(-155.104 -131.408)" fill="none"/>
    </clipPath>
    <linearGradient id="linear-gradient-6" x1="-0.389" y1="1.37" x2="-0.387" y2="1.37" xlink:href="#linear-gradient"/>
    <clipPath id="clip-path-7">
      <path id="Path_229" data-name="Path 229" d="M306.619,545.811c-50.994-13.154-96.272-52.718-123.98-108.564-51.963-104.681-28.029-235.776,53.366-292.267,34.822-24.257,76.543-31.8,117.511-21.239,50.993,13.152,96.273,52.719,123.979,108.563,51.963,104.682,28.03,235.776-53.365,292.268a141.3,141.3,0,0,1-81.251,25.895,145.064,145.064,0,0,1-36.259-4.657M235.034,143.687C152.993,200.61,128.843,332.674,181.131,438c27.921,56.276,73.524,96.165,125.056,109.424a147.281,147.281,0,0,0,36.655,4.636,143.1,143.1,0,0,0,82.149-26.09c82.043-56.922,106.191-188.986,53.9-294.315-27.921-56.277-73.525-96.165-125.057-109.426a147.174,147.174,0,0,0-36.529-4.652,143.491,143.491,0,0,0-82.275,26.106" transform="translate(-153.512 -117.581)" fill="none"/>
    </clipPath>
    <linearGradient id="linear-gradient-7" x1="-0.371" y1="1.304" x2="-0.369" y2="1.304" xlink:href="#linear-gradient"/>
    <clipPath id="clip-path-8">
      <path id="Path_230" data-name="Path 230" d="M348.779,566.627C295.845,563.5,243.558,530.727,205.5,476.5c-71.045-101.016-72.555-245.8-3.45-322.992,27.49-30.618,63.5-47.221,102.31-47.221,2.7,0,5.391.108,8.086.216,52.933,3.127,105.113,35.9,143.277,90.127,71.045,101.017,72.555,245.8,3.45,322.994-27.422,30.647-63.508,47.248-102.281,47.246-2.69,0-5.4-.081-8.114-.242m-148.021-414.2c-69.644,77.621-68.242,223.486,3.235,325.042,38.379,54.658,91.1,87.755,144.57,90.882,2.8.108,5.5.215,8.192.215,39.351,0,75.79-16.818,103.6-47.76C530,443.186,528.6,297.323,457.125,195.767c-38.379-54.659-91.1-87.756-144.57-90.883q-4.1-.24-8.168-.239c-39.279,0-75.795,16.723-103.629,47.783" transform="translate(-149.441 -104.645)" fill="none"/>
    </clipPath>
    <linearGradient id="linear-gradient-8" x1="-0.379" y1="1.256" x2="-0.376" y2="1.256" xlink:href="#linear-gradient"/>
    <clipPath id="clip-path-9">
      <path id="Path_231" data-name="Path 231" d="M235.477,513.382C146.428,420.344,117.319,266.07,170.47,169.366c22.962-41.722,58.863-67.81,101.231-73.31a135.753,135.753,0,0,1,17.465-1.077c47.005,0,96.6,24.041,138.427,67.811C516.641,255.829,545.749,410.1,492.6,506.805c-22.963,41.723-58.863,67.811-101.231,73.31a133.656,133.656,0,0,1-17.343,1.118c-47.027,0-96.631-24.113-138.548-67.852M271.484,94.441c-42.907,5.606-79.345,31.91-102.524,74.171-53.581,97.349-24.257,252.594,65.223,346.064,42.262,44.093,92.284,68.35,139.827,68.35a158.367,158.367,0,0,0,17.573-1.078c42.908-5.607,79.346-31.911,102.525-74.172,53.581-97.35,24.257-252.593-65.224-346.063-42.163-44.176-92.157-68.421-139.7-68.419a136,136,0,0,0-17.7,1.147" transform="translate(-142.164 -93.294)" fill="none"/>
    </clipPath>
    <linearGradient id="linear-gradient-9" x1="-0.311" y1="1.216" x2="-0.308" y2="1.216" xlink:href="#linear-gradient"/>
    <clipPath id="clip-path-10">
      <path id="Path_232" data-name="Path 232" d="M272.288,546.342C167.174,465.594,109.066,306.9,142.81,192.731c15.093-50.994,46.9-86.786,89.372-100.585a130.114,130.114,0,0,1,40.537-6.253c39.026,0,81.5,15.956,121.283,46.465C499.008,213.108,557.116,371.8,523.373,485.97c-15.093,50.994-46.9,86.786-89.372,100.584a130.864,130.864,0,0,1-40.524,6.242c-39.1,0-81.518-15.987-121.188-46.454M231.537,90.206c-43.124,14.015-75.251,50.239-90.56,101.879C107.126,307.008,165.449,466.564,271.1,547.744c40,30.833,82.8,46.9,122.254,46.9a130.409,130.409,0,0,0,41.074-6.36c43.124-14.015,75.251-50.238,90.56-101.879,33.959-114.924-24.365-274.479-130.018-355.659-40.028-30.754-82.792-46.88-122.3-46.88a132.82,132.82,0,0,0-41.135,6.345" transform="translate(-131.355 -83.861)" fill="none"/>
    </clipPath>
    <linearGradient id="linear-gradient-10" x1="-0.276" y1="1.187" x2="-0.274" y2="1.187" xlink:href="#linear-gradient"/>
    <clipPath id="clip-path-11">
      <path id="Path_233" data-name="Path 233" d="M314.721,573.776C196.132,509.414,108.916,352.122,120.235,223.184c5.284-60.372,31.48-106.191,73.741-128.831,19.083-10.242,40.428-15.309,63.177-15.309,30.724,0,64.036,9.271,97.889,27.6C473.63,171.112,560.846,328.3,549.528,457.235c-5.284,60.372-31.48,106.191-73.74,128.831-19.1,10.282-40.429,15.386-63.2,15.383-30.7,0-64.007-9.286-97.87-27.673M192.9,92.628c-42.8,23.07-69.32,69.321-74.711,130.448C106.866,352.66,194.515,510.815,313.75,575.5c34.176,18.543,67.811,27.922,98.86,27.922,23.071,0,44.74-5.175,64.039-15.632,42.8-23.071,69.32-69.32,74.711-130.448C562.679,327.757,475.03,169.6,355.8,104.918c-34.172-18.537-67.735-27.867-98.733-27.865-23.083,0-44.747,5.176-64.166,15.575" transform="translate(-117.202 -77.053)" fill="none"/>
    </clipPath>
    <linearGradient id="linear-gradient-11" x1="-0.269" y1="1.166" x2="-0.266" y2="1.166" xlink:href="#linear-gradient"/>
    <clipPath id="clip-path-12">
      <path id="Path_234" data-name="Path 234" d="M361.976,594.261c-128.723-44.2-244.4-193.839-257.878-333.774-6.684-69.212,12.183-125.164,53.258-157.508C180.967,84.33,210.29,74.95,243.172,74.95c21.669,0,44.955,4.205,69.1,12.4,128.723,44.2,244.4,193.839,257.877,333.774,6.684,69.212-12.182,125.165-53.257,157.508-23.555,18.624-52.89,28.029-85.75,28.029-21.732,0-45.008-4.114-69.169-12.4M156.169,101.471c-41.505,32.773-60.7,89.374-54.011,159.232,13.477,140.582,129.8,291.083,259.17,335.391C385.694,604.5,409.2,608.6,431.081,608.6c33.313,0,63.068-9.486,87.11-28.46,41.5-32.774,60.7-89.373,54.011-159.233C558.726,280.324,442.4,129.824,313.031,85.515c-24.417-8.352-47.925-12.5-69.888-12.5-33.313,0-63.063,9.55-86.974,28.457" transform="translate(-100.855 -73.014)" fill="none"/>
    </clipPath>
    <linearGradient id="linear-gradient-12" x1="-0.225" y1="1.155" x2="-0.223" y2="1.155" xlink:href="#linear-gradient"/>
    <clipPath id="clip-path-13">
      <path id="Path_235" data-name="Path 235" d="M412.139,606.379C277.378,586,135.287,450.274,95.4,303.762c-20.483-75.142-10.566-142.631,27.167-185,26.629-29.863,65.332-45.6,111.15-45.6a218.965,218.965,0,0,1,32.991,2.588c134.759,20.377,276.85,156.107,316.739,302.617,20.484,75.142,10.565,142.631-27.168,185-26.594,29.919-65.322,45.568-111.126,45.567a221.872,221.872,0,0,1-33.012-2.553M121.056,117.363C82.892,160.27,72.758,228.4,93.457,304.3c40.106,147.266,182.951,283.643,318.465,304.126a223.127,223.127,0,0,0,33.313,2.588c46.466,0,85.708-15.956,112.66-46.25,38.164-42.908,48.3-111.042,27.6-186.939C545.389,230.56,402.544,94.184,267.028,73.7a221.909,221.909,0,0,0-33.461-2.62c-46.284,0-85.5,15.945-112.51,46.282" transform="translate(-82.927 -71.081)" fill="none"/>
    </clipPath>
    <linearGradient id="linear-gradient-13" x1="-0.157" y1="1.149" x2="-0.155" y2="1.149" xlink:href="#linear-gradient"/>
    <clipPath id="clip-path-14">
      <path id="Path_236" data-name="Path 236" d="M95.362,351.908c-36.007-79.455-37.84-155.784-5.067-209.363C116.168,100.391,162.2,75.6,219.881,73.007c136.161-6.144,301.432,109.21,368.6,257.231,36.008,79.454,37.841,155.782,5.068,209.363-25.875,42.153-71.908,66.948-129.586,69.536v0c-3.541.162-7.082.242-10.66.242-134.012-.01-292.518-113.2-357.936-257.472M219.773,70.853c-58.54,2.694-105.113,27.706-131.417,70.613C55.15,195.693,56.982,272.776,93.314,352.879c65.762,145,225.319,258.738,360.078,258.738q5.338,0,10.674-.323c58.54-2.7,105.113-27.707,131.417-70.615,33.205-54.227,31.373-131.31-4.959-211.411C524.779,184.438,365.214,70.61,230.434,70.611q-5.357,0-10.661.242" transform="translate(-64.696 -70.611)" fill="none"/>
    </clipPath>
    <linearGradient id="linear-gradient-14" x1="-0.111" y1="1.147" x2="-0.109" y2="1.147" xlink:href="#linear-gradient"/>
    <clipPath id="clip-path-15">
      <path id="Path_237" data-name="Path 237" d="M104.243,403.877C52.063,323.883,36.322,240.871,61.335,175.97c18.543-48.189,57.246-81.179,112.013-95.626A242.486,242.486,0,0,1,234.582,72.8c123.333,0,269.305,82.688,349.621,205.589,52.18,79.887,67.919,162.9,42.908,227.8-18.543,48.191-57.246,81.18-112.013,95.626a240.564,240.564,0,0,1-61.249,7.564c-123.345-.005-269.318-82.628-349.607-205.5M172.809,78.187c-55.414,14.556-94.765,48.084-113.523,97.028C34.059,240.871,49.8,324.637,102.409,405.171c80.749,123.548,227.475,206.56,351.562,206.56a241.887,241.887,0,0,0,61.775-7.655c55.412-14.555,94.762-48.083,113.521-97.027,25.227-65.655,9.489-149.421-43.122-229.954C505.4,153.587,358.628,70.56,234.511,70.57a242.721,242.721,0,0,0-61.7,7.617" transform="translate(-47.512 -70.57)" fill="none"/>
    </clipPath>
    <linearGradient id="linear-gradient-15" x1="-0.065" y1="1.148" x2="-0.063" y2="1.148" xlink:href="#linear-gradient"/>
    <clipPath id="clip-path-16">
      <path id="Path_238" data-name="Path 238" d="M122.782,458.157C55.079,382.368,24.137,295.8,37.722,220.548c9.7-53.689,41.182-95.95,91.1-122.039C163.425,80.4,203.961,71.773,246.976,71.773c110.073,0,236.639,56.275,322.778,152.764,67.7,75.79,98.645,162.359,85.06,237.609-9.7,53.689-41.183,95.95-91.1,122.039-34.605,18.113-75.142,26.738-118.157,26.738-110.073,0-236.639-56.384-322.778-152.765m5.067-361.8c-50.562,26.52-82.473,69.32-92.392,123.762-13.8,75.9,17.466,163.223,85.6,239.55,86.569,96.919,213.782,153.519,324.609,153.519,43.339,0,84.2-8.625,119.236-26.952l-.539-1.079.539,1.079c50.562-26.521,82.473-69.321,92.391-123.765,13.8-75.9-17.464-163.221-85.6-239.549C484.986,125.983,357.79,69.37,246.986,69.37c-43.358,0-84.208,8.669-119.138,26.984" transform="translate(-32.257 -69.37)" fill="none"/>
    </clipPath>
    <linearGradient id="linear-gradient-16" x1="-0.04" y1="1.145" x2="-0.038" y2="1.145" xlink:href="#linear-gradient"/>
    <clipPath id="clip-path-17">
      <path id="Path_239" data-name="Path 239" d="M150.9,512.921C70.147,446.186,23.144,360.372,22.065,277.251c-.755-59.509,22.1-111.257,66.195-149.529C134.724,87.4,198.654,67.781,267.868,67.781c92.823,0,195.133,35.253,277.067,102.957,80.748,66.733,127.752,152.548,128.83,235.668.754,59.509-22.1,111.257-66.194,149.529l.863.971-.863-.971c-46.369,40.338-110.309,59.925-179.522,59.923-92.83,0-195.135-35.249-277.153-102.938M86.642,125.89C42.01,164.7,18.831,216.988,19.585,277.251c1.186,83.768,48.406,170.338,129.8,237.5,82.473,68.027,185.322,103.5,278.684,103.5,69.859,0,134.436-19.728,181.225-60.588,44.633-38.811,67.812-91.1,67.056-151.362-1.186-83.767-48.4-170.337-129.8-237.5C464.074,100.755,361.292,65.364,267.9,65.371c-69.82,0-134.4,19.795-181.26,60.519" transform="translate(-19.567 -65.371)" fill="none"/>
    </clipPath>
    <linearGradient id="linear-gradient-17" x1="-0.033" y1="1.134" x2="-0.031" y2="1.134" xlink:href="#linear-gradient"/>
    <clipPath id="clip-path-18">
      <path id="Path_240" data-name="Path 240" d="M188.583,566.343C98.349,513.085,36.251,432.876,18.032,346.2,4.339,281.19,16.63,219.632,53.5,168.315,104.924,96.838,195.376,59.428,294.128,59.428c71.476,0,147.373,19.622,215.832,60.049,90.235,53.257,152.333,133.467,170.552,220.144,13.692,65.008,1.4,126.567-35.469,177.884-51.425,71.477-141.877,108.886-240.628,108.886-71.477,0-147.373-19.621-215.833-60.049M51.451,166.914c-36.763,51.209-49.483,115.139-35.9,179.932C33.879,434.17,96.516,515.026,187.29,568.715c68.781,40.643,145.11,60.372,217.018,60.372,99.615,0,190.82-37.841,242.783-109.964l-1.077-.755,1.077.755c36.763-51.209,49.484-115.14,35.9-179.932-18.329-87.324-80.964-168.18-171.738-221.869C442.376,76.619,366.129,56.9,294.183,56.9c-99.558.007-190.851,37.788-242.732,110.009" transform="translate(-10.251 -56.905)" fill="none"/>
    </clipPath>
    <linearGradient id="linear-gradient-18" x1="-0.005" y1="1.113" x2="-0.003" y2="1.113" xlink:href="#linear-gradient"/>
    <clipPath id="clip-path-19">
      <path id="Path_241" data-name="Path 241" d="M235.018,616.747C140.039,579.985,65,510.34,29.1,425.712c-29-68.243-29.862-141.337-2.587-205.807C72.875,110.373,190.385,45.688,319.863,45.688A401.745,401.745,0,0,1,465.081,73.072c94.979,36.763,170.012,106.406,205.913,191.036,29,68.241,29.863,141.337,2.587,205.805-46.312,109.56-163.777,174.236-293.3,174.227a403.342,403.342,0,0,1-145.261-27.392M24.038,218.613C-3.454,283.836-2.591,357.685,26.625,426.574c36.116,85.384,111.8,155.567,207.424,192.545a404.817,404.817,0,0,0,146.186,27.6c130.556,0,249.038-65.223,295.826-175.835,27.492-65.223,26.629-139.072-2.587-207.961-36.117-85.384-111.8-155.567-207.424-192.545A405.6,405.6,0,0,0,319.836,42.8c-130.561,0-249.08,65.284-295.8,175.816" transform="translate(-4.047 -42.796)" fill="none"/>
    </clipPath>
    <linearGradient id="linear-gradient-19" x1="0.004" y1="1.081" x2="0.006" y2="1.081" xlink:href="#linear-gradient"/>
    <clipPath id="clip-path-20">
      <path id="Path_242" data-name="Path 242" d="M289.468,661.357C198.262,643.568,118.807,594.3,65.874,522.393,12.94,450.593-7.22,364.885,9.058,281.011,38.382,130.187,179.179,26.475,339.49,26.475a375.6,375.6,0,0,1,72.124,7.008c188.232,36.654,313.936,207.206,280.3,380.345-29.323,150.824-170.12,254.536-330.431,254.536a374.59,374.59,0,0,1-72.016-7.007M6.363,280.579C-10.131,365.1,10.244,451.671,63.609,524.118S197.076,646.264,288.928,664.16a380.934,380.934,0,0,0,72.555,7.007c161.6,0,303.587-104.682,333.127-256.907l-1.4-.323,1.4.323c33.96-174.648-92.823-346.71-282.565-383.582a379.812,379.812,0,0,0-72.478-7.016c-161.594,0-303.609,104.716-333.2,256.916" transform="translate(-0.785 -23.663)" fill="none"/>
    </clipPath>
    <linearGradient id="linear-gradient-20" x1="0.014" y1="1.041" x2="0.015" y2="1.041" xlink:href="#linear-gradient"/>
    <clipPath id="clip-path-21">
      <path id="Path_243" data-name="Path 243" d="M2.911,350.592c0-191.682,156-347.681,347.681-347.681,191.791,0,347.681,156,347.681,347.681s-156,347.681-347.681,347.681S2.911,542.275,2.911,350.592M350.592,0C157.292,0,0,157.292,0,350.592S157.292,701.184,350.592,701.184c193.407,0,350.7-157.292,350.7-350.592S544,0,350.592,0Z" transform="translate(0 0)" fill="none"/>
    </clipPath>
    <linearGradient id="linear-gradient-21" x1="0" y1="1" x2="0.002" y2="1" xlink:href="#linear-gradient"/>
    <clipPath id="clip-path-22">
      <path id="Path_267" data-name="Path 267" d="M530.3,145.918c18.917,19.286,14.466,61.2-11.87,114.98C466.506,367.721,344.477,491.233,246.557,536.483c-43.766,20.4-77.149,22.253-93.839,5.193-18.917-19.287-14.466-61.2,11.868-114.981C216.514,319.873,338.542,196.361,436.462,151.11L436.09,150l.372,1.113c43.768-20.4,77.149-22.254,93.84-5.192m-94.581,2.967c-98.292,45.25-220.691,169.5-272.988,276.325-26.706,54.895-30.786,97.92-11.5,117.578,7.79,8.16,19.289,12.24,33.753,12.24,17.061,0,38.2-5.564,62.683-17.063,98.289-45.25,220.689-169.5,272.987-276.326,26.706-54.894,30.785-97.918,11.5-117.577-7.964-8.133-19.407-12.163-33.77-12.163-17.08,0-38.287,5.7-62.666,16.985" transform="translate(-139.241 -131.9)" fill="none"/>
    </clipPath>
    <linearGradient id="linear-gradient-22" x1="-0.398" y1="1.376" x2="-0.395" y2="1.376" gradientUnits="objectBoundingBox">
      <stop offset="0"/>
      <stop offset="1" stop-color="#14213d"/>
    </linearGradient>
    <clipPath id="clip-path-23">
      <path id="Path_268" data-name="Path 268" d="M140.648,542.531c-18.917-21.884-11.5-67.506,20.4-125.368,60.828-110.53,193.242-232.93,294.871-272.616,21.512-8.531,40.058-12.611,55.636-12.611,16.32,0,28.56,4.452,36.719,13.724,18.917,21.884,11.5,67.5-20.4,125.366C467.046,381.557,334.631,503.957,233,543.644c-21.309,8.487-40.066,12.666-55.5,12.666-16.271,0-28.857-4.643-36.851-13.779m314.53-399.838c-102,40.057-234.785,162.457-295.984,273.357-32.64,58.6-39.688,105.338-20.03,127.963,8.16,9.644,21.513,14.466,38.2,14.466,15.95,0,34.865-4.452,56.749-12.611,102-40.058,234.785-162.457,295.984-273.358,32.639-58.6,39.688-105.339,20.029-127.964-8.411-9.748-21.448-14.571-38.254-14.571-15.806,0-34.945,4.268-56.7,12.717" transform="translate(-128.255 -129.976)" fill="none"/>
    </clipPath>
    <linearGradient id="linear-gradient-23" x1="-0.337" y1="1.379" x2="-0.334" y2="1.379" xlink:href="#linear-gradient-22"/>
    <clipPath id="clip-path-24">
      <path id="Path_269" data-name="Path 269" d="M128.589,542.261c-19.286-24.851-8.531-74.553,29.673-136.123,70.471-113.869,212.9-233.671,317.5-267.053,18.174-5.934,34.5-8.9,48.218-8.9,18.917,0,33.382,5.564,42.283,16.692,19.288,24.85,8.532,74.551-29.672,136.122-70.473,113.868-212.9,233.671-317.5,267.053-18.33,5.9-34.572,8.814-48.359,8.814-19.128,0-33.519-5.609-42.143-16.6m346.8-405.4C370.05,170.612,227.252,290.786,156.407,405.027c-38.573,62.311-49.33,113.125-29.3,138.718,8.9,11.5,24.109,17.433,43.766,17.433,13.724,0,30.415-2.968,48.959-8.9C325.169,518.522,467.97,398.349,538.813,284.11c38.575-62.313,49.33-113.126,29.3-138.719-9.115-11.5-24.068-17.29-43.826-17.289-14.009,0-30.436,2.911-48.9,8.759" transform="translate(-117.229 -128.101)" fill="none"/>
    </clipPath>
    <linearGradient id="linear-gradient-24" x1="-0.284" y1="1.37" x2="-0.281" y2="1.37" xlink:href="#linear-gradient-22"/>
    <clipPath id="clip-path-25">
      <path id="Path_270" data-name="Path 270" d="M116.6,540.783c-19.658-28.189-5.193-81.97,39.686-147.249C236.4,277.068,388.846,160.6,496.038,134.27c14.837-3.71,28.189-5.564,39.686-5.564,22.256,0,38.576,7.047,48.22,20.4,19.658,28.189,5.193,81.97-39.688,147.251C464.139,412.82,311.7,529.286,204.5,555.621c-14.75,3.656-28,5.468-39.62,5.468-22.566,0-38.981-6.839-48.285-20.306M495.3,132.045c-107.563,26.333-260.376,143.17-340.863,260.006C109.181,458.071,94.716,512.965,114.746,541.9c9.644,14.094,26.7,21.14,50.072,21.14,11.5,0,25.221-1.853,40.057-5.562C312.439,531.141,465.253,414.3,545.738,297.469c45.251-66.023,59.716-120.917,39.688-149.847-9.589-14.014-26.5-21.02-49.787-21.019-11.843,0-25.337,1.814-40.344,5.441" transform="translate(-105.93 -126.604)" fill="none"/>
    </clipPath>
    <linearGradient id="linear-gradient-25" x1="-0.238" y1="1.364" x2="-0.235" y2="1.364" xlink:href="#linear-gradient-22"/>
    <clipPath id="clip-path-26">
      <path id="Path_271" data-name="Path 271" d="M104.549,537.561c-19.286-31.9,0-90.873,51.185-158.378,89.76-118.69,251.847-229.963,360.893-248.508a160.13,160.13,0,0,1,28.56-2.6c27.076,0,46.363,8.159,56.377,24.479,19.286,31.9,0,90.873-51.185,158.377C460.62,429.626,298.533,540.9,189.487,559.443a177.835,177.835,0,0,1-28.832,2.58c-27.164,0-46.3-8.209-56.105-24.463M516.256,128.82v0C406.839,147.366,244.01,259.008,153.881,378.07c-52.3,68.989-71.214,127.592-51.187,160.6,10.015,17.063,30.045,25.592,57.863,25.592,8.9,0,18.545-1.113,29.3-2.6C299.275,543.123,462.1,431.48,552.234,312.419c52.3-68.989,71.215-127.592,51.185-160.6-10.419-16.9-30.24-25.667-58.171-25.666a172.963,172.963,0,0,0-28.992,2.669" transform="translate(-94.872 -126.151)" fill="none"/>
    </clipPath>
    <linearGradient id="linear-gradient-26" x1="-0.197" y1="1.36" x2="-0.195" y2="1.36" xlink:href="#linear-gradient-22"/>
    <clipPath id="clip-path-27">
      <path id="Path_272" data-name="Path 272" d="M92.437,532.5c-18.916-35.605,4.822-99.031,63.426-169.133C256.007,243.564,427,138.226,537.156,128.583v0c41.17-3.709,69.359,6.677,81.228,29.3,18.915,35.608-4.821,99.032-63.426,169.133C454.813,446.821,283.825,552.159,173.665,561.8q-8.2.738-15.7.736c-32.665,0-55.234-10.417-65.529-30.039M537.156,126.357C426.256,136,254.525,241.709,154.38,361.883c-58.975,70.842-83.083,135.01-63.8,171.73,10.755,20.4,33.751,31.154,67.5,31.154,5.193,0,10.385-.371,15.95-.741,110.9-9.644,282.631-115.352,382.775-235.525,58.974-70.844,83.083-135.011,63.8-171.73-10.624-20.6-33.82-31.148-67.411-31.148q-7.664,0-16.044.734" transform="translate(-84.058 -125.623)" fill="none"/>
    </clipPath>
    <linearGradient id="linear-gradient-27" x1="-0.163" y1="1.358" x2="-0.16" y2="1.358" xlink:href="#linear-gradient-22"/>
    <clipPath id="clip-path-28">
      <path id="Path_273" data-name="Path 273" d="M80.567,525.455c-17.8-40.43,11.128-107.564,77.149-179.891C267.876,225.39,447.394,127.47,557.925,127.47c40.058.372,67.135,12.983,77.518,37.092,17.8,40.429-11.127,107.563-77.149,179.889C448.136,464.626,268.618,562.545,158.086,562.545c-40.057,0-66.762-12.981-77.519-37.09m76.036-181C89.84,417.149,60.911,485.4,79.085,526.567c10.755,24.851,38.2,38.2,79.373,38.2,110.9,0,291.163-98.289,401.693-218.835,66.762-72.7,95.693-140.944,77.52-182.115-11.128-24.851-38.575-38.2-79.375-38.2-110.9,0-291.163,98.291-401.692,218.835" transform="translate(-73.757 -125.617)" fill="none"/>
    </clipPath>
    <linearGradient id="linear-gradient-28" x1="-0.134" y1="1.358" x2="-0.132" y2="1.358" xlink:href="#linear-gradient-22"/>
    <clipPath id="clip-path-29">
      <path id="Path_274" data-name="Path 274" d="M142.88,561.385c-38.575-3.709-63.8-19.286-73.069-44.879-16.32-45.251,17.8-116.465,91.615-189.9,113.5-113.5,287.452-199.178,399.1-199.178,6.306,0,12.611.372,18.545.744,38.575,3.708,63.8,19.286,73.068,44.879,16.321,45.25-17.8,116.464-91.613,189.9C446.736,476.383,272.783,562.219,161.1,562.208c-6.271,0-12.364-.272-18.219-.824m16.692-235.9C85.39,399.3,50.895,471.255,67.586,517.618c9.644,26.7,35.608,42.653,74.923,46.363,5.935.371,12.24.741,18.545.741,112.385,0,286.712-86.049,400.951-199.546,74.182-73.812,108.676-145.767,91.986-192.131-9.643-26.705-35.606-42.655-74.923-46.364q-9.108-.883-18.882-.878c-112.4,0-286.669,86.089-400.614,199.685" transform="translate(-63.453 -125.804)" fill="none"/>
    </clipPath>
    <linearGradient id="linear-gradient-29" x1="-0.108" y1="1.358" x2="-0.106" y2="1.358" xlink:href="#linear-gradient-22"/>
    <clipPath id="clip-path-30">
      <path id="Path_275" data-name="Path 275" d="M127.142,559.267C90.051,551.851,66.685,533.3,58.9,505.859,44.8,454.672,84.859,380.12,166.087,306.31,281.44,201.343,447.606,127.531,559.62,127.531a192.465,192.465,0,0,1,39.688,3.709c37.09,7.419,60.457,25.964,68.247,53.411C681.648,235.837,641.59,310.39,560.362,384.2,445.009,489.167,278.843,562.977,166.829,562.977a192.285,192.285,0,0,1-39.686-3.709m37.463-254.442C82.633,379.378,42.2,455.043,56.67,506.6c7.79,28.189,32.269,47.105,70.1,54.895a193.669,193.669,0,0,0,40.058,3.708c112.386-.372,279.293-74.182,395.017-179.52,81.971-74.552,122.4-150.217,107.934-201.773-7.788-28.189-32.27-47.476-70.1-54.894a203.99,203.99,0,0,0-39.884-3.643c-112.53,0-279.292,74.092-395.188,179.452" transform="translate(-53.78 -125.373)" fill="none"/>
    </clipPath>
    <linearGradient id="linear-gradient-30" x1="-0.087" y1="1.357" x2="-0.085" y2="1.357" xlink:href="#linear-gradient-22"/>
    <clipPath id="clip-path-31">
      <path id="Path_276" data-name="Path 276" d="M111.992,554.983c-35.608-11.5-57.12-33.01-63.054-62.683C37.81,435.551,84.173,358.033,172.82,284.593,287.8,188.9,444.325,126.957,555.226,126.957q35.605,0,64.537,8.9c35.608,11.5,57.12,33.011,63.054,62.683,11.127,56.749-35.236,134.268-123.881,207.709C443.76,501.874,287.324,563.777,176.249,563.774c-23.779,0-45.487-2.839-64.257-8.791m58.974-272.246C81.95,356.92,35.215,435.181,46.341,492.672c5.935,30.413,28.189,52.668,64.537,64.167,18.918,5.934,40.8,8.9,64.91,8.9,111.643,0,268.536-62.311,383.888-158.007C648.693,333.552,695.429,255.291,684.3,197.8c-5.933-30.416-28.187-52.67-64.536-64.168-18.921-6.044-40.788-8.924-64.779-8.921-111.46.008-268.345,62.19-384.02,158.026" transform="translate(-44.722 -124.712)" fill="none"/>
    </clipPath>
    <linearGradient id="linear-gradient-31" x1="-0.07" y1="1.355" x2="-0.069" y2="1.355" xlink:href="#linear-gradient-22"/>
    <clipPath id="clip-path-32">
      <path id="Path_277" data-name="Path 277" d="M96.3,548.627c-33.752-15.579-53.782-40.429-57.12-72.7-6.677-62.684,46.363-142.8,141.685-214.385,112.386-84.567,257.04-135.752,365.344-135.752,35.607,0,67.135,5.564,92.728,17.063,33.751,15.577,53.782,40.429,57.118,72.7,6.677,62.683-46.363,142.8-141.687,214.385C441.735,514.624,297.321,565.612,188.847,565.6c-35.479,0-67.133-5.46-92.546-16.977m83.082-289.308C83.319,331.646,29.909,412.5,36.956,475.93c3.709,33.01,23.739,58.974,58.6,74.551,25.964,11.5,57.861,17.062,93.468,17.062,109.047,0,253.7-51.184,366.828-135.753,96.065-72.327,149.474-153.184,142.428-216.608-3.71-33.012-23.738-58.975-58.6-74.553-25.71-11.662-57.693-17.185-93.547-17.185-108.979,0-253.72,51.034-366.749,135.875" transform="translate(-36.336 -123.444)" fill="none"/>
    </clipPath>
    <linearGradient id="linear-gradient-32" x1="-0.058" y1="1.349" x2="-0.056" y2="1.349" xlink:href="#linear-gradient-22"/>
    <clipPath id="clip-path-33">
      <path id="Path_278" data-name="Path 278" d="M81.505,540.242c-32.64-19.658-50.072-48.959-50.814-83.825C29.208,387.8,88.924,305.828,190.553,237.211,298.116,164.142,429.045,123.342,532.9,123.342c49.331,0,92.727,9.272,124.253,28.931,32.642,19.658,50.072,48.959,50.816,83.825,1.482,68.617-58.234,150.588-159.862,219.205-107.638,72.681-238.457,113.644-342.3,113.643-49.307,0-92.538-9.239-124.3-28.7M189.441,235.357c-102,68.988-162.087,151.7-160.6,221.06.744,35.606,18.918,65.28,51.928,85.679,31.9,19.659,75.666,28.932,125.366,28.932,104.225,0,235.527-40.8,343.461-113.868,102-68.989,162.086-151.7,160.6-221.062-.741-35.606-18.917-65.278-51.926-85.68-32.03-19.673-75.73-29.026-125.594-29.025-104.312,0-235.577,40.938-343.232,113.964" transform="translate(-28.81 -121.393)" fill="none"/>
    </clipPath>
    <linearGradient id="linear-gradient-33" x1="-0.051" y1="1.338" x2="-0.049" y2="1.338" xlink:href="#linear-gradient-22"/>
    <clipPath id="clip-path-34">
      <path id="Path_279" data-name="Path 279" d="M67.993,530.156C36.836,505.306,22,471.925,24.6,433.349c4.822-74.181,71.586-156.892,178.035-221.431,99.776-60.458,215.869-92.355,312.676-92.355,65.28,0,122.029,14.465,159.49,44.509,31.156,24.851,45.991,58.232,43.395,96.806-4.821,74.182-71.584,156.894-178.035,221.432-99.954,60.5-215.794,92.537-312.713,92.535-65.281,0-121.982-14.535-159.45-44.689M201.519,210.063C94.327,274.971,27.564,358.427,22.372,433.349c-2.6,39.317,12.609,73.44,44.136,98.662,37.833,30.413,94.953,44.879,160.6,44.879,97.177,0,213.642-31.9,314.158-92.727C648.463,419.254,715.226,335.8,720.419,260.877c2.6-39.315-12.611-73.439-44.138-98.66-37.807-30.336-94.934-44.958-160.673-44.957-97.427,0-213.76,32.121-314.088,92.8" transform="translate(-22.087 -117.26)" fill="none"/>
    </clipPath>
    <linearGradient id="linear-gradient-34" x1="-0.036" y1="1.32" x2="-0.034" y2="1.32" xlink:href="#linear-gradient-22"/>
    <clipPath id="clip-path-35">
      <path id="Path_280" data-name="Path 280" d="M54.314,517.9c-28.931-30.413-40.8-68.988-34.123-111.272,12.611-79,86.051-161.343,196.58-220.318,90.129-48.218,190.275-72.327,277.809-72.327,82.712,0,154.668,21.512,196.58,65.28,28.931,30.415,40.8,68.988,34.124,111.272-12.611,79-86.05,161.344-196.58,220.318-90.216,48.063-190.308,72.294-277.992,72.289-82.834,0-154.6-21.638-196.4-65.242M215.659,184.084C104.386,243.428,30.576,326.512,17.965,406.258c-7.047,43.4,5.192,82.341,34.865,113.5,42.283,44.137,114.61,66.021,198.065,66.021,88.275,0,188.42-24.479,278.922-72.7C641.089,453.732,714.9,370.65,727.51,290.906c7.048-43.4-5.192-82.341-34.865-113.5-42.268-44.074-114.682-65.981-198.233-65.976-88.01,0-188.372,24.321-278.753,72.652" transform="translate(-16.022 -111.432)" fill="none"/>
    </clipPath>
    <linearGradient id="linear-gradient-35" x1="-0.021" y1="1.295" x2="-0.019" y2="1.295" xlink:href="#linear-gradient-22"/>
    <clipPath id="clip-path-36">
      <path id="Path_281" data-name="Path 281" d="M42.2,504.307C14.757,467.217,6.97,423.078,18.838,375.974,39.98,292.891,120.1,212.4,232.85,160.1c78.634-36.349,162.457-54.151,238.865-54.151,101.257,0,189.533,31.154,234.414,91.244,27.448,37.09,35.236,81.227,23.366,128.333C708.355,408.613,628.239,489.1,515.482,541.4c-78.73,36.5-162.8,54.229-239.262,54.229-101.493,0-189.593-31.244-234.015-91.32M231.74,157.88c-113.5,52.3-193.614,133.9-215.126,217.352-12.24,47.475-4.08,92.726,23.737,130.188,44.879,60.829,133.9,92.356,236.268,92.356,76.779,0,160.974-17.8,239.607-54.523,113.5-52.3,193.613-133.9,215.126-217.352,12.24-47.848,4.081-92.727-23.738-130.189-44.931-60.615-133.79-92.165-236.057-92.157-76.706,0-160.969,17.762-239.816,54.325" transform="translate(-11.085 -103.555)" fill="none"/>
    </clipPath>
    <linearGradient id="linear-gradient-36" x1="-0.01" y1="1.263" x2="-0.008" y2="1.263" xlink:href="#linear-gradient-22"/>
    <clipPath id="clip-path-37">
      <path id="Path_282" data-name="Path 282" d="M31,488.346C6.145,443.838,2.435,392.652,20.981,340.724,51.394,255.418,137.445,177.9,250.943,133.388c65.278-25.964,133.526-38.2,197.323-38.2,120.545,0,225.882,43.766,270.762,123.512,24.851,44.509,28.559,95.694,10.014,147.621C698.627,451.627,612.577,529.147,499.08,573.656,433.569,599.3,365.6,611.509,301.848,611.507,181.159,611.5,75.653,567.711,31,488.346M249.831,131.534C135.591,176.413,49.17,254.3,18.755,340.354.21,392.652,3.549,444.208,29.14,489.459c45.251,80.116,151.33,124.253,272.618,124.253,64.165,0,132.413-12.611,198.064-38.2,114.24-44.879,200.661-122.77,231.075-208.82,18.545-52.3,15.207-103.854-10.385-149.1C675.369,137.49,569.423,93.291,448.144,93.3c-64.061,0-132.418,12.339-198.313,38.237" transform="translate(-6.997 -93.297)" fill="none"/>
    </clipPath>
    <linearGradient id="linear-gradient-37" x1="-0.003" y1="1.224" x2="-0.001" y2="1.224" xlink:href="#linear-gradient-22"/>
    <clipPath id="clip-path-38">
      <path id="Path_283" data-name="Path 283" d="M21.361,469.931C-.9,416.519,1.331,358.288,27.667,301.167,67.352,215.489,158.6,142.79,271.351,106.441a512.173,512.173,0,0,1,155.41-24.479c139.09,0,261.119,60.087,303.4,161.343,22.254,53.411,20.028,111.644-6.3,168.763-39.688,85.68-130.931,158.377-243.687,194.726a512.1,512.1,0,0,1-155.41,24.48c-139.09,0-261.119-60.087-303.4-161.344M270.608,104.217c-113.5,36.719-204.74,109.788-244.8,196.21C-.9,358.288-3.121,417.263,19.505,471.042,62.159,573.044,184.928,633.5,325.131,633.5a514.448,514.448,0,0,0,155.781-24.48c113.5-36.719,204.741-109.788,244.8-196.209,26.705-57.862,28.93-116.836,6.3-170.617C689.528,140.057,566.673,79.521,426.536,79.531a512.374,512.374,0,0,0-155.927,24.686" transform="translate(-4.02 -79.531)" fill="none"/>
    </clipPath>
    <linearGradient id="linear-gradient-38" x1="0.003" y1="1.181" x2="0.004" y2="1.181" xlink:href="#linear-gradient-22"/>
    <clipPath id="clip-path-39">
      <path id="Path_284" data-name="Path 284" d="M12.95,450.612C-5.6,387.186,3.676,320.793,39.283,258.481,88.614,172.8,181.341,107.893,293.726,80.075A469.03,469.03,0,0,1,407.6,65.981c157.264,0,294.871,80.115,331.221,205.483,18.545,63.426,9.272,129.817-26.336,192.129C663.149,549.273,570.423,614.181,458.037,642a468.96,468.96,0,0,1-113.867,14.1c-156.894,0-294.5-80.116-331.219-205.483M293.725,77.479C180.97,105.667,87.872,170.948,38.171,257,1.822,319.681-7.08,386.816,11.465,450.61,48.184,576.719,186.9,657.576,344.911,657.576A471.971,471.971,0,0,0,459.15,643.482C571.905,615.294,665,550.014,714.706,463.964c36.349-62.683,45.25-129.818,26.705-193.614C704.5,144.329,566.171,63.456,408.029,63.467a477.839,477.839,0,0,0-114.3,14.012" transform="translate(-2.067 -63.467)" fill="none"/>
    </clipPath>
    <linearGradient id="linear-gradient-39" x1="0.009" y1="1.135" x2="0.01" y2="1.135" xlink:href="#linear-gradient-22"/>
    <clipPath id="clip-path-40">
      <path id="Path_285" data-name="Path 285" d="M6.995,427.788C-6.357,353.979,11.447,277.2,57.438,211.55c57.491-81.972,152.815-139.462,261.49-158.007a419.216,419.216,0,0,1,73.81-6.306c174.326,0,325.284,104.6,353.1,255.927,13.352,73.81-4.451,150.589-50.443,216.239-57.49,81.97-152.814,139.461-261.489,158.007a419.239,419.239,0,0,1-73.81,6.3c-174.327,0-325.285-104.967-353.1-255.927M318.927,51.317C209.51,69.862,113.816,127.724,55.954,210.436,9.591,276.829-8.583,354.349,5.141,428.53,33.329,580.6,185.03,685.94,360.47,685.94a512.075,512.075,0,0,0,74.18-5.935C544.067,661.459,639.76,603.6,697.622,520.885c45.994-66.391,64.168-143.911,50.444-218.093C720.043,150.617,568.072,45.1,392.734,45.11a444.4,444.4,0,0,0-73.807,6.207" transform="translate(-0.675 -45.11)" fill="none"/>
    </clipPath>
    <linearGradient id="linear-gradient-40" x1="0.011" y1="1.088" x2="0.013" y2="1.088" xlink:href="#linear-gradient-22"/>
    <clipPath id="clip-path-41">
      <path id="Path_286" data-name="Path 286" d="M3.084,403.464C-13.234,213.931,140.691,45.539,346.546,27.365c12.239-1.113,24.479-1.484,36.349-1.484,86.792,0,169.875,27.446,235.9,79,76.036,58.6,122.4,141.687,130.559,233.3s-23,181.374-87.9,252.216c-64.91,71.215-155.412,114.983-255.184,123.884-11.871,1.113-23.739,1.484-35.608,1.484-190.647,0-351.992-133.9-367.571-312.3M346.546,25.51C149.951,42.774.209,196.588,0,375.358v.779q.019,13.754,1.231,27.7C16.808,582.984,179.266,717.993,371.025,717.993c11.87,0,24.109-.741,35.979-1.482,100.145-8.532,191.387-52.669,256.667-124.253s96.806-161.716,88.647-254.073S697.795,162.375,621.017,103.4C553.63,51.639,470.253,23.88,383.154,23.881q-18.206,0-36.608,1.629" transform="translate(0 -23.881)" fill="none"/>
    </clipPath>
    <linearGradient id="linear-gradient-41" x1="0.017" y1="1.043" x2="0.019" y2="1.043" xlink:href="#linear-gradient-22"/>
    <clipPath id="clip-path-42">
      <path id="Path_287" data-name="Path 287" d="M2.319,376.469C2.319,169.875,170.34,1.854,376.935,1.854S751.552,170.246,751.552,376.469c0,206.6-168.021,374.617-374.617,374.617S2.319,583.065,2.319,376.469M376.935,0C169.228,0,.094,169.134.094,376.841S169.228,753.682,376.935,753.682,753.776,584.549,753.776,376.841,584.644,0,376.935,0Z" transform="translate(-0.094)" fill="none"/>
    </clipPath>
    <linearGradient id="linear-gradient-42" x1="0" y1="1" x2="0.002" y2="1" xlink:href="#linear-gradient-22"/>
  </defs>
  <g id="Group_1033" data-name="Group 1033" transform="translate(987 -5603)">
    <rect id="Rectangle_498" data-name="Rectangle 498" width="1920" height="1080" transform="translate(-987 5603)" fill="#fff"/>
    <g id="Group_1031" data-name="Group 1031" transform="translate(-954.645 5695.408)">
      <g id="Group_77" data-name="Group 77" transform="translate(183.09 209.659)">
        <g id="Group_76" data-name="Group 76" clip-path="url(#clip-path)">
          <rect id="Rectangle_84" data-name="Rectangle 84" width="342.183" height="281.731" transform="translate(-3.59 -0.001)" fill="url(#linear-gradient)"/>
        </g>
      </g>
      <g id="Group_79" data-name="Group 79" transform="translate(179.292 202.615)">
        <g id="Group_78" data-name="Group 78" clip-path="url(#clip-path-2)">
          <rect id="Rectangle_85" data-name="Rectangle 85" width="350.807" height="334.851" transform="translate(-3.996 -19.449)" fill="url(#linear-gradient-2)"/>
        </g>
      </g>
      <g id="Group_81" data-name="Group 81" transform="translate(177.02 192.486)">
        <g id="Group_80" data-name="Group 80" clip-path="url(#clip-path-3)">
          <rect id="Rectangle_86" data-name="Rectangle 86" width="357.492" height="316.261" transform="translate(-5.173)" fill="url(#linear-gradient-3)"/>
        </g>
      </g>
      <g id="Group_83" data-name="Group 83" transform="translate(176.313 179.614)">
        <g id="Group_82" data-name="Group 82" clip-path="url(#clip-path-4)">
          <rect id="Rectangle_87" data-name="Rectangle 87" width="356.628" height="341.853" transform="translate(-4.036)" fill="url(#linear-gradient-4)"/>
        </g>
      </g>
      <g id="Group_85" data-name="Group 85" transform="translate(176.279 164.947)">
        <g id="Group_84" data-name="Group 84" clip-path="url(#clip-path-5)">
          <rect id="Rectangle_88" data-name="Rectangle 88" width="372.692" height="371.401" transform="translate(-11.98 -0.002)" fill="url(#linear-gradient-5)"/>
        </g>
      </g>
      <g id="Group_87" data-name="Group 87" transform="translate(175.896 149.023)">
        <g id="Group_86" data-name="Group 86" clip-path="url(#clip-path-6)">
          <rect id="Rectangle_89" data-name="Rectangle 89" width="394.254" height="403.063" transform="translate(-22.377 -0.001)" fill="url(#linear-gradient-6)"/>
        </g>
      </g>
      <g id="Group_89" data-name="Group 89" transform="translate(174.091 133.343)">
        <g id="Group_88" data-name="Group 88" clip-path="url(#clip-path-7)">
          <rect id="Rectangle_90" data-name="Rectangle 90" width="402.34" height="438.887" transform="translate(-24.669 -4.405)" fill="url(#linear-gradient-7)"/>
        </g>
      </g>
      <g id="Group_91" data-name="Group 91" transform="translate(169.474 118.673)">
        <g id="Group_90" data-name="Group 90" clip-path="url(#clip-path-8)">
          <rect id="Rectangle_91" data-name="Rectangle 91" width="398.89" height="463.922" transform="translate(-18.327 0)" fill="url(#linear-gradient-8)"/>
        </g>
      </g>
      <g id="Group_93" data-name="Group 93" transform="translate(161.222 105.8)">
        <g id="Group_92" data-name="Group 92" clip-path="url(#clip-path-9)">
          <rect id="Rectangle_92" data-name="Rectangle 92" width="432.312" height="489.734" transform="translate(-26.786 -0.002)" fill="url(#linear-gradient-9)"/>
        </g>
      </g>
      <g id="Group_95" data-name="Group 95" transform="translate(148.964 95.103)">
        <g id="Group_94" data-name="Group 94" clip-path="url(#clip-path-10)">
          <rect id="Rectangle_93" data-name="Rectangle 93" width="451.823" height="510.778" transform="translate(-24.229 0)" fill="url(#linear-gradient-10)"/>
        </g>
      </g>
      <g id="Group_97" data-name="Group 97" transform="translate(132.913 87.382)">
        <g id="Group_96" data-name="Group 96" clip-path="url(#clip-path-11)">
          <rect id="Rectangle_94" data-name="Rectangle 94" width="455.813" height="526.371" transform="translate(-10.336 -0.002)" fill="url(#linear-gradient-11)"/>
        </g>
      </g>
      <g id="Group_99" data-name="Group 99" transform="translate(114.375 82.802)">
        <g id="Group_98" data-name="Group 98" clip-path="url(#clip-path-12)">
          <rect id="Rectangle_95" data-name="Rectangle 95" width="483.412" height="535.586" transform="translate(-5.381 -0.001)" fill="url(#linear-gradient-12)"/>
        </g>
      </g>
      <g id="Group_101" data-name="Group 101" transform="translate(94.043 80.61)">
        <g id="Group_100" data-name="Group 100" clip-path="url(#clip-path-13)">
          <rect id="Rectangle_96" data-name="Rectangle 96" width="533.435" height="539.935" transform="translate(-10.169 -0.001)" fill="url(#linear-gradient-13)"/>
        </g>
      </g>
      <g id="Group_103" data-name="Group 103" transform="translate(73.369 80.076)">
        <g id="Group_102" data-name="Group 102" clip-path="url(#clip-path-14)">
          <rect id="Rectangle_97" data-name="Rectangle 97" width="573.539" height="544.754" transform="translate(-9.546 -3.748)" fill="url(#linear-gradient-14)"/>
        </g>
      </g>
      <g id="Group_105" data-name="Group 105" transform="translate(53.882 80.03)">
        <g id="Group_104" data-name="Group 104" clip-path="url(#clip-path-15)">
          <rect id="Rectangle_98" data-name="Rectangle 98" width="620.435" height="541.17" transform="translate(-13.454 -0.01)" fill="url(#linear-gradient-15)"/>
        </g>
      </g>
      <g id="Group_107" data-name="Group 107" transform="translate(36.581 78.669)">
        <g id="Group_106" data-name="Group 106" clip-path="url(#clip-path-16)">
          <rect id="Rectangle_99" data-name="Rectangle 99" width="649.436" height="543.815" transform="translate(-10.6 0)" fill="url(#linear-gradient-16)"/>
        </g>
      </g>
      <g id="Group_109" data-name="Group 109" transform="translate(22.19 74.134)">
        <g id="Group_108" data-name="Group 108" clip-path="url(#clip-path-17)">
          <rect id="Rectangle_100" data-name="Rectangle 100" width="658.276" height="552.884" transform="translate(-0.736 -0.007)" fill="url(#linear-gradient-17)"/>
        </g>
      </g>
      <g id="Group_111" data-name="Group 111" transform="translate(11.625 64.533)">
        <g id="Group_110" data-name="Group 110" clip-path="url(#clip-path-18)">
          <rect id="Rectangle_101" data-name="Rectangle 101" width="694.608" height="572.188" transform="translate(-8.283 -0.006)" fill="url(#linear-gradient-18)"/>
        </g>
      </g>
      <g id="Group_113" data-name="Group 113" transform="translate(4.589 48.533)">
        <g id="Group_112" data-name="Group 112" clip-path="url(#clip-path-19)">
          <rect id="Rectangle_102" data-name="Rectangle 102" width="707.006" height="603.921" transform="translate(-7.5 0)" fill="url(#linear-gradient-19)"/>
        </g>
      </g>
      <g id="Group_115" data-name="Group 115" transform="translate(0.89 26.835)">
        <g id="Group_114" data-name="Group 114" clip-path="url(#clip-path-20)">
          <rect id="Rectangle_103" data-name="Rectangle 103" width="738.702" height="647.505" transform="translate(-10.916 0)" fill="url(#linear-gradient-20)"/>
        </g>
      </g>
      <g id="Group_117" data-name="Group 117">
        <g id="Group_116" data-name="Group 116" clip-path="url(#clip-path-21)">
          <rect id="Rectangle_104" data-name="Rectangle 104" width="701.291" height="701.184" transform="translate(0 0)" fill="url(#linear-gradient-21)"/>
        </g>
      </g>
    </g>
    <g id="Group_1032" data-name="Group 1032" transform="translate(153.895 5855.575)" opacity="0.44">
      <g id="Group_183" data-name="Group 183" transform="translate(174.321 165.13)">
        <g id="Group_182" data-name="Group 182" clip-path="url(#clip-path-22)">
          <rect id="Rectangle_128" data-name="Rectangle 128" width="419.496" height="429.881" transform="translate(-7.295 -3.045)" fill="url(#linear-gradient-22)"/>
        </g>
      </g>
      <g id="Group_185" data-name="Group 185" transform="translate(160.567 162.722)">
        <g id="Group_184" data-name="Group 184" clip-path="url(#clip-path-23)">
          <rect id="Rectangle_129" data-name="Rectangle 129" width="450.282" height="428.504" transform="translate(-8.749 0)" fill="url(#linear-gradient-23)"/>
        </g>
      </g>
      <g id="Group_187" data-name="Group 187" transform="translate(146.763 160.374)">
        <g id="Group_186" data-name="Group 186" clip-path="url(#clip-path-24)">
          <rect id="Rectangle_130" data-name="Rectangle 130" width="481.066" height="433.078" transform="translate(-10.151 -0.001)" fill="url(#linear-gradient-24)"/>
        </g>
      </g>
      <g id="Group_189" data-name="Group 189" transform="translate(132.618 158.5)">
        <g id="Group_188" data-name="Group 188" clip-path="url(#clip-path-25)">
          <rect id="Rectangle_131" data-name="Rectangle 131" width="510.738" height="436.435" transform="translate(-11.214 -0.001)" fill="url(#linear-gradient-25)"/>
        </g>
      </g>
      <g id="Group_191" data-name="Group 191" transform="translate(118.774 157.933)">
        <g id="Group_190" data-name="Group 190" clip-path="url(#clip-path-26)">
          <rect id="Rectangle_132" data-name="Rectangle 132" width="540.782" height="438.115" transform="translate(-12.205 -0.001)" fill="url(#linear-gradient-26)"/>
        </g>
      </g>
      <g id="Group_193" data-name="Group 193" transform="translate(105.235 157.272)">
        <g id="Group_192" data-name="Group 192" clip-path="url(#clip-path-27)">
          <rect id="Rectangle_133" data-name="Rectangle 133" width="568.6" height="439.895" transform="translate(-12.761 -0.75)" fill="url(#linear-gradient-27)"/>
        </g>
      </g>
      <g id="Group_195" data-name="Group 195" transform="translate(92.339 157.264)">
        <g id="Group_194" data-name="Group 194" clip-path="url(#clip-path-28)">
          <rect id="Rectangle_134" data-name="Rectangle 134" width="594.933" height="439.153" transform="translate(-12.847 0)" fill="url(#linear-gradient-28)"/>
        </g>
      </g>
      <g id="Group_197" data-name="Group 197" transform="translate(79.438 157.498)">
        <g id="Group_196" data-name="Group 196" clip-path="url(#clip-path-29)">
          <rect id="Rectangle_135" data-name="Rectangle 135" width="619.785" height="438.918" transform="translate(-12.558 0)" fill="url(#linear-gradient-29)"/>
        </g>
      </g>
      <g id="Group_199" data-name="Group 199" transform="translate(67.329 156.959)">
        <g id="Group_198" data-name="Group 198" clip-path="url(#clip-path-30)">
          <rect id="Rectangle_136" data-name="Rectangle 136" width="642.04" height="439.83" transform="translate(-11.575 0)" fill="url(#linear-gradient-30)"/>
        </g>
      </g>
      <g id="Group_201" data-name="Group 201" transform="translate(55.989 156.131)">
        <g id="Group_200" data-name="Group 200" clip-path="url(#clip-path-31)">
          <rect id="Rectangle_137" data-name="Rectangle 137" width="660.214" height="441.03" transform="translate(-9.507 -0.002)" fill="url(#linear-gradient-31)"/>
        </g>
      </g>
      <g id="Group_203" data-name="Group 203" transform="translate(45.49 154.544)">
        <g id="Group_202" data-name="Group 202" clip-path="url(#clip-path-32)">
          <rect id="Rectangle_138" data-name="Rectangle 138" width="675.42" height="444.099" transform="translate(-6.427 0)" fill="url(#linear-gradient-32)"/>
        </g>
      </g>
      <g id="Group_205" data-name="Group 205" transform="translate(36.068 151.976)">
        <g id="Group_204" data-name="Group 204" clip-path="url(#clip-path-33)">
          <rect id="Rectangle_139" data-name="Rectangle 139" width="684.323" height="449.636" transform="translate(-1.456 -0.001)" fill="url(#linear-gradient-33)"/>
        </g>
      </g>
      <g id="Group_207" data-name="Group 207" transform="translate(27.652 146.802)">
        <g id="Group_206" data-name="Group 206" clip-path="url(#clip-path-34)">
          <rect id="Rectangle_140" data-name="Rectangle 140" width="703.239" height="459.632" transform="translate(-2.313 -0.001)" fill="url(#linear-gradient-34)"/>
        </g>
      </g>
      <g id="Group_209" data-name="Group 209" transform="translate(20.059 139.506)">
        <g id="Group_208" data-name="Group 208" clip-path="url(#clip-path-35)">
          <rect id="Rectangle_141" data-name="Rectangle 141" width="723.641" height="474.349" transform="translate(-5.104 -0.005)" fill="url(#linear-gradient-35)"/>
        </g>
      </g>
      <g id="Group_211" data-name="Group 211" transform="translate(13.878 129.644)">
        <g id="Group_210" data-name="Group 210" clip-path="url(#clip-path-36)">
          <rect id="Rectangle_142" data-name="Rectangle 142" width="739.218" height="494.229" transform="translate(-6.712 -0.008)" fill="url(#linear-gradient-36)"/>
        </g>
      </g>
      <g id="Group_213" data-name="Group 213" transform="translate(8.759 116.802)">
        <g id="Group_212" data-name="Group 212" clip-path="url(#clip-path-37)">
          <rect id="Rectangle_143" data-name="Rectangle 143" width="749.23" height="520.422" transform="translate(-6.786 -0.006)" fill="url(#linear-gradient-37)"/>
        </g>
      </g>
      <g id="Group_215" data-name="Group 215" transform="translate(5.033 99.568)">
        <g id="Group_214" data-name="Group 214" clip-path="url(#clip-path-38)">
          <rect id="Rectangle_144" data-name="Rectangle 144" width="757.762" height="553.98" transform="translate(-7.141 -0.01)" fill="url(#linear-gradient-38)"/>
        </g>
      </g>
      <g id="Group_217" data-name="Group 217" transform="translate(2.588 79.457)">
        <g id="Group_216" data-name="Group 216" clip-path="url(#clip-path-39)">
          <rect id="Rectangle_145" data-name="Rectangle 145" width="767.036" height="594.121" transform="translate(-9.147 -0.011)" fill="url(#linear-gradient-39)"/>
        </g>
      </g>
      <g id="Group_219" data-name="Group 219" transform="translate(0.845 56.475)">
        <g id="Group_218" data-name="Group 218" clip-path="url(#clip-path-40)">
          <rect id="Rectangle_146" data-name="Rectangle 146" width="770.373" height="640.836" transform="translate(-9.258 -0.005)" fill="url(#linear-gradient-40)"/>
        </g>
      </g>
      <g id="Group_221" data-name="Group 221" transform="translate(0 29.897)">
        <g id="Group_220" data-name="Group 220" clip-path="url(#clip-path-41)">
          <rect id="Rectangle_147" data-name="Rectangle 147" width="773.711" height="694.113" transform="translate(-13.234 -0.001)" fill="url(#linear-gradient-41)"/>
        </g>
      </g>
      <g id="Group_223" data-name="Group 223" transform="translate(0.118)">
        <g id="Group_222" data-name="Group 222" clip-path="url(#clip-path-42)">
          <rect id="Rectangle_148" data-name="Rectangle 148" width="753.682" height="753.682" transform="translate(0 0)" fill="url(#linear-gradient-42)"/>
        </g>
      </g>
    </g>
  </g>
</svg>
