<?xml version="1.0" encoding="UTF-8"?>
<svg id="Layer_2" data-name="Layer 2" xmlns="http://www.w3.org/2000/svg" viewBox="0 0 31.11 31.11">
  <defs>
    <style>
      .cls-1 {
        fill: #fca311;
      }

      .cls-1, .cls-2, .cls-3 {
        stroke-width: 0px;
      }

      .cls-2 {
        fill: #fff;
      }

      .cls-3 {
        fill: #734a08;
      }
    </style>
  </defs>
  <g id="Android_Developer" data-name="Android Developer">
    <g id="Android">
      <rect id="BC_White" data-name="BC White" class="cls-2" width="31.11" height="31.11" rx="8" ry="8"/>
      <g id="Andriod">
        <path class="cls-1" d="M15.56,21.53H5.2s0,0-.01,0c-.22,0-.23,0-.2-.21.08-.7.22-1.38.42-2.06.15-.5.33-.98.56-1.45.33-.67.72-1.3,1.18-1.89.33-.43.7-.83,1.1-1.2.39-.37.81-.7,1.26-1,.24-.16.49-.32.74-.46.09-.05.11-.09.05-.19-.35-.59-.69-1.19-1.03-1.79-.21-.37-.42-.74-.63-1.1-.14-.24-.02-.46.12-.55.18-.12.41-.06.54.16.26.44.51.88.76,1.32.31.53.61,1.07.92,1.6.05.08.11.12.21.07.99-.45,2.04-.71,3.11-.84.78-.09,1.57-.09,2.36-.02.68.06,1.35.19,2.01.38.43.12.86.28,1.27.46.12.05.18.04.25-.07.45-.79.9-1.58,1.36-2.37.11-.2.23-.39.35-.58.09-.15.3-.21.46-.15.16.06.27.26.22.43-.06.24-.22.43-.34.65-.37.66-.75,1.31-1.13,1.96-.08.14-.17.28-.25.43-.05.08-.05.13.05.19.83.47,1.58,1.04,2.26,1.71.7.69,1.27,1.47,1.75,2.33.48.87.83,1.78,1.04,2.75.1.45.17.9.21,1.35.01.12-.03.14-.14.14-.86,0-1.72,0-2.58,0-2.62,0-5.25,0-7.87,0h0ZM20.42,18.5c.48,0,.89-.38.89-.86,0-.5-.39-.89-.88-.9-.47,0-.88.4-.88.87,0,.48.39.88.88.89ZM10.69,18.5c.48,0,.88-.38.88-.86,0-.48-.39-.89-.87-.89-.49,0-.89.39-.89.87,0,.48.39.88.88.88Z"/>
        <path class="cls-3" d="M20.42,18.5c-.49,0-.88-.4-.88-.89,0-.47.41-.87.88-.87.49,0,.88.4.88.9,0,.47-.4.86-.89.86Z"/>
        <path class="cls-3" d="M10.69,18.5c-.49,0-.88-.4-.88-.88,0-.48.41-.88.89-.87.48,0,.88.41.87.89,0,.48-.4.86-.88.86Z"/>
      </g>
    </g>
  </g>
</svg>