<svg id="Dart_Logo" data-name="Dart Logo" xmlns="http://www.w3.org/2000/svg" xmlns:xlink="http://www.w3.org/1999/xlink" width="40.381" height="40.381" viewBox="0 0 40.381 40.381">
  <defs>
    <clipPath id="clip-path">
      <rect id="Rectangle_221" data-name="Rectangle 221" width="40.381" height="40.381" fill="none"/>
    </clipPath>
    <clipPath id="clip-path-2">
      <rect id="Rectangle_220" data-name="Rectangle 220" width="18.498" height="18.497" fill="none"/>
    </clipPath>
  </defs>
  <g id="Group_381" data-name="Group 381">
    <g id="Group_378" data-name="Group 378">
      <g id="Group_377" data-name="Group 377" clip-path="url(#clip-path)">
        <path id="Path_360" data-name="Path 360" d="M30.524,40.381H9.857A9.857,9.857,0,0,1,0,30.524V9.857A9.857,9.857,0,0,1,9.857,0H30.524a9.857,9.857,0,0,1,9.857,9.857V30.524a9.857,9.857,0,0,1-9.857,9.857" fill="#fff"/>
        <path id="Path_361" data-name="Path 361" d="M187.624,116.906,193,122.286a4.356,4.356,0,0,0-3.078-1.276H175.08l9.289-4.634a2.82,2.82,0,0,1,3.254.529" transform="translate(-164.199 -110.129)" fill="#c17d0d"/>
        <path id="Path_362" data-name="Path 362" d="M193.007,176.349l5.626,5.626v11.6h-5.052l-18.5-18.5h14.844a4.356,4.356,0,0,1,3.078,1.276" transform="translate(-164.202 -164.192)" fill="#fca311"/>
        <path id="Path_363" data-name="Path 363" d="M116.905,187.624,122.285,193a4.356,4.356,0,0,1-1.276-3.078V175.081l-4.634,9.289a2.82,2.82,0,0,0,.529,3.254" transform="translate(-110.128 -164.199)" fill="#fca311"/>
        <path id="Path_364" data-name="Path 364" d="M175.075,175.082l18.5,18.5H176.923L176.35,193a4.356,4.356,0,0,1-1.276-3.078V175.082Z" transform="translate(-164.193 -164.2)" fill="#fca311"/>
        <path id="Path_365" data-name="Path 365" d="M213.853,396.4v5.052h-11.6L197.2,396.4Z" transform="translate(-184.474 -367.025)" fill="#c17d0d"/>
        <g id="Group_376" data-name="Group 376" transform="translate(10.881 10.882)" opacity="0.3">
          <g id="Group_375" data-name="Group 375" transform="translate(0 0)">
            <g id="Group_374" data-name="Group 374" clip-path="url(#clip-path-2)">
              <path id="Path_366" data-name="Path 366" d="M175.075,175.082l18.5,18.5H176.923L176.35,193a4.356,4.356,0,0,1-1.276-3.078V175.082Z" transform="translate(-175.074 -175.082)" fill="#855609"/>
            </g>
          </g>
        </g>
      </g>
    </g>
  </g>
</svg>
