<?xml version="1.0" encoding="UTF-8"?>
<svg id="Layer_2" data-name="Layer 2" xmlns="http://www.w3.org/2000/svg" viewBox="0 0 31.11 31.11">
  <defs>
    <style>
      .cls-1 {
        fill: #fca311;
      }

      .cls-1, .cls-2, .cls-3, .cls-4, .cls-5 {
        stroke-width: 0px;
      }

      .cls-2 {
        fill: #d88c0f;
      }

      .cls-3 {
        opacity: .5;
      }

      .cls-3, .cls-5 {
        fill: #734a08;
      }

      .cls-4 {
        fill: #fff;
      }
    </style>
  </defs>
  <g id="Industrial_Designer" data-name="Industrial Designer">
    <g id="Sketch">
      <rect id="BC_White" data-name="BC White" class="cls-4" width="31.11" height="31.11" rx="8" ry="8"/>
      <g id="Sketch_Icon" data-name="Sketch Icon">
        <rect class="cls-1" x="4.81" y="4.81" width="21.49" height="21.49" rx="4.92" ry="4.92"/>
        <path class="cls-3" d="M26.3,20.8v.59c0,2.72-2.2,4.92-4.92,4.92h-6.9l1.69-16.2,10.12,10.69Z"/>
        <path class="cls-3" d="M26.3,20.8v.59c0,2.72-2.2,4.92-4.92,4.92h-6.9l1.69-16.2,10.12,10.69Z"/>
        <g>
          <path class="cls-2" d="M14.9,10.12c-1.13,3.29-2.26,6.59-3.4,9.88-.08.22-.12.45-.12.68l-.07,5.62h8.49c0-1.93-.02-3.86-.02-5.8,0-.25-.04-.49-.13-.73-1.16-3.23-2.31-6.45-3.47-9.68-.22-.61-1.08-.6-1.29,0Z"/>
          <path class="cls-5" d="M14.44,26.3c.01-1.86.02-3.72.03-5.58-.11-.92-1.19-2.67-2.21-1.65-.3.3-.87,1.01-.88,1.6-.02,1.87-.04,3.75-.07,5.62h3.12Z"/>
          <path class="cls-1" d="M14.44,26.3c.01-1.86.02-3.72.03-5.58.04-1.31.51-1.72.9-1.85.73-.25,1.69.36,1.81,1.35,0,2.03.02,4.05.02,6.08h-2.77Z"/>
          <path class="cls-5" d="M17.21,26.3c0-2.03-.02-4.05-.02-6.08.14-1.12,1.12-1.71,1.76-1.51.5.15.7.82.83,1.61.03,2.36.02,3.99.03,5.98h-2.59Z"/>
          <path class="cls-5" d="M16.95,12.26h-2.79c.25-.71.49-1.43.74-2.15.21-.61,1.07-.61,1.28,0,.26.72.51,1.44.77,2.15Z"/>
        </g>
      </g>
    </g>
  </g>
</svg>