<?xml version="1.0" encoding="UTF-8"?>
<svg id="Layer_2" data-name="Layer 2" xmlns="http://www.w3.org/2000/svg" viewBox="0 0 31.11 31.11">
  <defs>
    <style>
      .cls-1 {
        fill: #fca311;
      }

      .cls-1, .cls-2 {
        stroke-width: 0px;
      }

      .cls-2 {
        fill: #fff;
      }
    </style>
  </defs>
  <g id="Flutter_Developer" data-name="Flutter Developer">
    <g id="Git">
      <rect id="BC_White" data-name="BC White" class="cls-2" width="31.11" height="31.11" rx="8" ry="8"/>
      <path id="Git-2" data-name="Git" class="cls-1" d="M26.27,15.82c-.01.07-.03.14-.06.21,0,0,0,0,0,.01-.04.11-.09.21-.17.31-.02.02-.04.05-.05.07-.03.04-.06.07-.09.1l-9.38,9.38s-.05.05-.07.06c-.05.05-.11.09-.17.12-.08.05-.17.1-.26.13-.07.03-.15.05-.23.06-.16.03-.31.03-.47,0-.09-.02-.17-.04-.25-.07-.17-.07-.33-.17-.47-.31l-9.38-9.38c-.15-.15-.26-.33-.32-.51-.03-.07-.05-.14-.06-.22-.03-.15-.03-.31,0-.45.02-.16.08-.31.17-.45.02-.04.05-.07.07-.11.04-.06.09-.12.14-.17l6.41-6.41h0c.06-.02.11.01.18.09.71.72,1.42,1.43,2.13,2.14.11.1.13.19.09.34-.2.75.08,1.47.73,1.85.16.09.21.19.21.37,0,1.78,0,3.56,0,5.34,0,.21-.06.33-.24.44-.63.37-.9,1.11-.71,1.82.18.67.81,1.16,1.49,1.18.77.02,1.4-.41,1.63-1.11.22-.69-.02-1.45-.63-1.85-.17-.11-.21-.23-.21-.41,0-1.74,0-3.48,0-5.23,0-.09-.03-.18.03-.26.1.01.14.09.2.15.61.61,1.21,1.22,1.82,1.82.14.13.16.25.11.43-.16.61.01,1.15.47,1.57.45.42.99.55,1.58.37.83-.26,1.32-1.11,1.11-1.93-.21-.86-1.02-1.38-1.89-1.23-.15.03-.26.05-.4-.08-.69-.71-1.4-1.4-2.09-2.1-.09-.08-.12-.15-.09-.29.25-1.23-.72-2.22-1.95-1.97-.14.03-.22,0-.31-.1-.72-.73-1.45-1.46-2.18-2.18-.08-.07-.11-.13-.09-.19l1.94-1.94c.2-.2.44-.33.7-.38.17-.03.35-.03.52,0,.08.02.17.04.25.08,0,0,0,0,.01,0,.16.07.31.17.44.29l9.38,9.38c.15.15.26.33.32.52.02.06.04.12.05.18.03.17.03.35,0,.52Z"/>
    </g>
  </g>
</svg>