<svg id="Widgets_Logo" data-name="Widgets Logo" xmlns="http://www.w3.org/2000/svg" xmlns:xlink="http://www.w3.org/1999/xlink" width="40.381" height="40.381" viewBox="0 0 40.381 40.381">
  <defs>
    <clipPath id="clip-path">
      <rect id="Rectangle_224" data-name="Rectangle 224" width="40.381" height="40.381" fill="none"/>
    </clipPath>
  </defs>
  <g id="Group_388" data-name="Group 388" clip-path="url(#clip-path)">
    <path id="Path_376" data-name="Path 376" d="M30.524,40.381H9.857A9.857,9.857,0,0,1,0,30.524V9.857A9.857,9.857,0,0,1,9.857,0H30.524a9.857,9.857,0,0,1,9.857,9.857V30.524a9.857,9.857,0,0,1-9.857,9.857" fill="#fff"/>
    <path id="Path_377" data-name="Path 377" d="M122.432,316.535v8.188a1.023,1.023,0,0,1-1.024,1.024H113.22a1.024,1.024,0,0,1-1.024-1.024v-8.188a1.025,1.025,0,0,1,1.024-1.024h8.188a1.024,1.024,0,0,1,1.024,1.024" transform="translate(-104.288 -293.273)" fill="#fca311"/>
    <path id="Path_378" data-name="Path 378" d="M311.225,316.535v8.188a1.023,1.023,0,0,1-1.024,1.024h-8.188a1.024,1.024,0,0,1-1.024-1.024v-8.188a1.025,1.025,0,0,1,1.024-1.024H310.2a1.023,1.023,0,0,1,1.024,1.024" transform="translate(-279.775 -293.273)" fill="#fca311"/>
    <path id="Path_379" data-name="Path 379" d="M298.757,118.336a1.023,1.023,0,0,1-.3.723l-5.118,5.118a1.023,1.023,0,0,1-1.448,0l-5.118-5.118a1.024,1.024,0,0,1,0-1.447l5.118-5.118a1.023,1.023,0,0,1,1.448,0l5.118,5.118a1.023,1.023,0,0,1,.3.723" transform="translate(-266.284 -104.287)" fill="#fca311"/>
    <path id="Path_380" data-name="Path 380" d="M122.432,127.742v8.188a1.023,1.023,0,0,1-1.024,1.024H113.22a1.024,1.024,0,0,1-1.024-1.024v-8.188a1.025,1.025,0,0,1,1.024-1.024h8.188a1.024,1.024,0,0,1,1.024,1.024" transform="translate(-104.288 -117.787)" fill="#fca311"/>
  </g>
</svg>
