<?xml version="1.0" encoding="UTF-8"?>
<svg id="Layer_2" data-name="Layer 2" xmlns="http://www.w3.org/2000/svg" viewBox="0 0 31.11 31.11">
  <defs>
    <style>
      .cls-1 {
        fill: #fca311;
      }

      .cls-1, .cls-2, .cls-3 {
        stroke-width: 0px;
      }

      .cls-2 {
        fill: #fff;
      }

      .cls-3 {
        fill: #734a08;
      }
    </style>
  </defs>
  <g id="Layer_5" data-name="Layer 5">
    <g id="Keras">
      <rect id="BC_White" data-name="BC White" class="cls-2" width="31.11" height="31.11" rx="8" ry="8"/>
      <g id="Keras_Logo" data-name="Keras Logo">
        <path class="cls-1" d="M5.94,25.17V5.95h19.23v19.22H5.94ZM14.56,15.85c.1.13.18.23.26.34,1.07,1.57,2.14,3.13,3.19,4.71.18.27.36.38.68.35.31-.03.63.04.93-.02.18-.04.4-.2.48-.36.07-.14.05-.41-.04-.55-.58-.89-1.2-1.75-1.8-2.63-.76-1.1-1.51-2.2-2.3-3.36.15-.12.29-.22.4-.33,1.12-1.11,2.22-2.22,3.35-3.32.22-.21.21-.39.11-.65-.1-.26-.24-.36-.51-.34-.23.02-.46.03-.69,0-.43-.05-.73.11-1.03.42-.95.99-1.93,1.95-2.9,2.94-.49.5-.95,1.01-1.43,1.52-.05-.03-.09-.06-.14-.09,0-.16,0-.31,0-.47,0-1.19,0-2.39,0-3.58,0-.48-.24-.71-.71-.73-.18,0-.36,0-.54,0-.46.01-.71.27-.72.74,0,3.36,0,6.71,0,10.07,0,.5.24.73.76.73.15,0,.29,0,.44,0,.56,0,.77-.21.77-.76,0-.98,0-1.96,0-2.95,0-.18.06-.39.18-.51.38-.4.81-.76,1.26-1.18Z"/>
        <path class="cls-3" d="M14.56,15.85c-.45.42-.87.78-1.26,1.18-.12.12-.18.34-.18.51-.02.98,0,1.96,0,2.95,0,.55-.21.76-.77.76-.15,0-.29,0-.44,0-.51,0-.76-.23-.76-.73,0-3.36,0-6.71,0-10.07,0-.47.26-.72.72-.74.18,0,.36,0,.54,0,.48.01.71.25.71.73,0,1.19,0,2.39,0,3.58,0,.16,0,.31,0,.47.05.03.09.06.14.09.48-.51.94-1.02,1.43-1.52.96-.98,1.95-1.94,2.9-2.94.3-.31.6-.48,1.03-.42.23.03.46.02.69,0,.27-.02.41.08.51.34.1.26.11.44-.11.65-1.12,1.1-2.23,2.21-3.35,3.32-.12.11-.25.21-.4.33.79,1.16,1.55,2.26,2.3,3.36.6.88,1.22,1.74,1.8,2.63.09.14.11.41.04.55-.09.16-.3.32-.48.36-.3.06-.62,0-.93.02-.31.03-.5-.09-.68-.35-1.05-1.58-2.12-3.15-3.19-4.71-.07-.11-.15-.21-.26-.34Z"/>
      </g>
    </g>
  </g>
</svg>