<?xml version="1.0" encoding="UTF-8"?>
<svg id="Layer_2" data-name="Layer 2" xmlns="http://www.w3.org/2000/svg" viewBox="0 0 31.11 31.11">
  <defs>
    <style>
      .cls-1 {
        fill: #fca311;
      }

      .cls-1, .cls-2, .cls-3, .cls-4 {
        stroke-width: 0px;
      }

      .cls-2 {
        fill: #d88c0f;
      }

      .cls-3 {
        fill: #fff;
      }

      .cls-4 {
        fill: #734a08;
      }
    </style>
  </defs>
  <g id="Industrial_Designer" data-name="Industrial Designer">
    <g id="Solidworks">
      <rect id="BC_White" data-name="BC White" class="cls-3" width="31.11" height="31.11" rx="8" ry="8"/>
      <g id="Solidworks_Logo" data-name="Solidworks Logo">
        <path class="cls-1" d="M14.19,5.71c.3-.09.61-.18.9-.29.07,0,.13-.03.19-.06.18-.08.37-.08.55,0,.07.03.15.06.23.06.28.12.58.2.87.28.18.06.37.11.55.17.09.04.19.07.29.09.26.1.53.18.8.25.18.07.36.13.55.18.36.11.73.23,1.09.34.18.06.37.12.55.17.36.12.72.24,1.09.34.18.06.37.12.55.18.18.06.36.13.55.17h0s.01,0,.01,0c.17.07.35.12.53.17h0s.02,0,.03,0c.18.06.35.11.53.17.18.06.36.11.55.17.23.08.47.16.7.24-.05.02-.1.04-.15.06-.69.22-1.38.43-2.07.65-.87.28-1.74.56-2.61.83-.9.28-1.8.56-2.7.85-.73.23-1.47.46-2.2.69-.52-.16-1.03-.32-1.55-.48-.36-.11-.73-.22-1.09-.34-.45-.14-.9-.29-1.36-.44-.49-.16-.99-.31-1.48-.46-.59-.19-1.17-.39-1.76-.56-.54-.16-1.08-.34-1.62-.51-.09-.03-.18-.06-.27-.09-.2-.06-.41-.11-.6-.2.05-.02.09-.04.14-.06.15-.04.29-.07.43-.14.06,0,.11-.02.17-.04.16-.05.32-.1.47-.15.19-.05.37-.11.55-.17,0,0,.02,0,.03-.01h0c.16-.03.31-.08.46-.14.03,0,.06-.01.08-.03.19-.04.37-.1.55-.17.19-.05.37-.1.55-.18.37-.1.73-.22,1.09-.34.19-.06.38-.12.58-.18.36-.1.71-.21,1.07-.34.19-.05.37-.1.55-.18.37-.1.73-.22,1.09-.34.18-.06.37-.12.55-.17Z"/>
        <path class="cls-2" d="M14.74,25.49c-.18-.09-.36-.17-.55-.23-.37-.17-.74-.33-1.12-.47-.34-.16-.69-.3-1.04-.44-.19-.09-.38-.17-.58-.24-.05-.03-.1-.05-.15-.06-.12-.07-.25-.12-.39-.17-.18-.09-.36-.16-.55-.23-.36-.16-.72-.32-1.09-.46,0,0,0,0,0,0-.01,0-.02-.01-.04-.02-.16-.07-.32-.13-.48-.2-.01,0-.03-.01-.04-.02-.18-.09-.36-.16-.54-.23-.18-.08-.37-.15-.55-.23-.07-.04-.14-.07-.21-.09-.1-.06-.22-.11-.33-.14-.17-.09-.34-.16-.52-.22-.22-.09-.43-.19-.65-.28-.08-.03-.11-.07-.11-.16,0-.1,0-.2,0-.3.01-.18.01-.36,0-.55.01-.18.01-.37,0-.55.01-.18.01-.36,0-.55.01-.18.01-.37,0-.55.01-.18.01-.36,0-.55.01-.18.01-.37,0-.55.01-.18.01-.36,0-.55.01-.18.01-.37,0-.55.01-.18.01-.36,0-.55.01-.18.01-.37,0-.55.01-.18.01-.36,0-.55.01-.18.01-.37,0-.55.01-.18.01-.36,0-.55.01-.18.01-.37,0-.55.01-.18.01-.36,0-.55.01-.18.01-.37,0-.55.01-.18.01-.36,0-.55.01-.18.01-.37,0-.55.01-.18.01-.36,0-.55.01-.18.01-.37,0-.55.01-.18.01-.36,0-.55.01-.18.01-.37,0-.55.01-.18.01-.36,0-.55.03-.11-.03-.24.04-.35.19.1.4.15.6.2.09.03.18.06.27.09.54.17,1.08.34,1.62.51.59.18,1.18.38,1.76.56.49.16.99.31,1.48.46.45.14.9.29,1.36.44.36.12.73.22,1.09.34.52.16,1.03.32,1.55.48,0,.05,0,.11,0,.16,0,4.73,0,9.47,0,14.2-.09-.03-.18-.06-.27-.09-.02-.02-.05-.03-.08-.03-.15-.08-.31-.14-.47-.2ZM10.09,12.47c-.76,0-1.25.37-1.45,1.02-.06.19-.08.38-.08.58-.02.74.23,1.39.68,1.98.38.5.86.9,1.36,1.28.32.24.63.49.9.8.33.37.45.81.37,1.3-.06.42-.36.63-.77.55-.4-.07-.76-.24-1.06-.51-.41-.37-.59-.84-.62-1.39,0-.09-.03-.14-.12-.17-.28-.09-.55-.19-.82-.29-.1-.04-.11-.01-.11.09.01.36.07.72.2,1.06.48,1.24,1.34,2.07,2.65,2.38.97.23,1.63-.23,1.74-1.23.1-.86-.12-1.64-.63-2.33-.4-.54-.9-.96-1.44-1.36-.38-.28-.75-.57-1.03-.96-.24-.33-.32-.69-.23-1.09.08-.38.33-.56.71-.53.21.01.41.07.6.17.63.32.9.86.93,1.54,0,.09.03.13.11.15.29.09.57.18.86.28.11.04.14.02.13-.1-.06-.98-.43-1.81-1.16-2.47-.51-.47-1.12-.73-1.74-.76Z"/>
        <path class="cls-4" d="M15.56,25.81c0-4.73,0-9.47,0-14.2,0-.05,0-.11,0-.16.73-.23,1.47-.46,2.2-.69.9-.28,1.8-.56,2.7-.85.87-.28,1.74-.56,2.61-.83.69-.22,1.38-.43,2.07-.65.05-.02.1-.04.15-.06.04.11,0,.23.02.34-.01.18-.01.36,0,.55-.01.18-.01.37,0,.55-.01.18-.01.36,0,.55-.01.18-.01.37,0,.55-.01.18-.01.36,0,.55-.01.18-.01.37,0,.55-.01.18-.01.36,0,.55-.01.18-.01.37,0,.55-.01.18-.01.36,0,.55-.01.18-.01.37,0,.55-.01.18-.01.36,0,.55-.01.18-.01.37,0,.55-.01.18-.01.36,0,.55-.01.18-.01.37,0,.55-.01.18-.01.36,0,.55-.01.18-.01.37,0,.55-.01.18-.01.36,0,.55-.01.18-.01.37,0,.55-.01.18-.01.36,0,.55-.01.18-.01.37,0,.55-.01.18-.01.36,0,.55-.01.18-.01.37,0,.55-.01.18-.01.36,0,.55,0,.1-.01.21,0,.31,0,.08-.02.11-.09.14-.22.09-.44.19-.66.28-.16.06-.31.12-.46.19-.02,0-.05,0-.06.03h0c-.1.02-.19.06-.27.11-.02,0-.04.02-.06.02h0s0,0,0,0l-.2.08c-.19.07-.37.14-.55.23-.18.07-.36.14-.54.23-.02,0-.04.01-.06.02-.16.07-.32.13-.48.2-.4.15-.79.32-1.17.49-.17.06-.34.13-.5.21-.13.04-.26.09-.37.16-.06.01-.12.03-.17.07-.18.08-.37.15-.55.23-.37.15-.73.31-1.1.46-.38.15-.77.31-1.14.48-.17.06-.33.13-.49.21-.16.06-.32.12-.47.2-.03,0-.06.01-.08.03-.09.03-.18.06-.28.09ZM19.04,19.3s-.02,0-.03,0c-.04-.24-.07-.48-.11-.72-.25-1.69-.51-3.37-.76-5.06-.01-.09-.04-.1-.12-.07-.24.09-.49.17-.74.26-.19.06-.18.06-.15.26.3,1.74.6,3.48.89,5.22.14.8.28,1.61.41,2.41.02.1.04.12.14.08.25-.11.5-.21.76-.31.06-.03.1-.06.12-.13.17-1.03.35-2.06.52-3.09.18-1.08.37-2.17.55-3.25.04.02.04.05.04.08.05.25.09.5.14.75.29,1.53.58,3.06.87,4.58.02.09.04.11.13.07.24-.1.48-.2.72-.3.07-.03.1-.07.11-.14.13-.89.26-1.78.39-2.67.22-1.54.45-3.08.67-4.62.06-.4.11-.79.17-1.21-.28.1-.55.19-.81.28-.09.03-.13.08-.14.17-.06.51-.13,1.01-.2,1.52-.19,1.5-.39,2.99-.59,4.49,0,.05,0,.11-.07.13,0-.03-.01-.05-.02-.07-.18-.98-.35-1.96-.53-2.93-.15-.83-.3-1.66-.45-2.49-.02-.1-.05-.11-.14-.08-.2.08-.41.15-.62.22-.06.02-.09.05-.11.12-.31,1.9-.62,3.81-.93,5.71-.04.26-.09.52-.13.78Z"/>
        <path class="cls-4" d="M10.09,12.47c.62.03,1.23.29,1.74.76.73.66,1.1,1.5,1.16,2.47,0,.12-.02.14-.13.1-.28-.1-.57-.19-.86-.28-.08-.03-.11-.07-.11-.15-.04-.68-.3-1.22-.93-1.54-.19-.1-.39-.16-.6-.17-.38-.03-.63.16-.71.53-.08.4,0,.76.23,1.09.28.39.65.68,1.03.96.53.39,1.04.82,1.44,1.36.51.7.73,1.48.63,2.33-.12.99-.77,1.46-1.74,1.23-1.31-.31-2.17-1.15-2.65-2.38-.13-.34-.19-.69-.2-1.06,0-.1.01-.12.11-.09.27.1.55.2.82.29.09.03.11.07.12.17.02.54.21,1.02.62,1.39.3.27.66.44,1.06.51.42.08.71-.13.77-.55.07-.49-.04-.92-.37-1.3-.27-.3-.58-.55-.9-.8-.5-.38-.98-.78-1.36-1.28-.44-.58-.7-1.23-.68-1.98,0-.2.03-.39.08-.58.19-.65.68-1.02,1.45-1.02Z"/>
        <path class="cls-1" d="M19.04,19.3c.04-.26.09-.52.13-.78.31-1.9.62-3.81.93-5.71.01-.07.04-.1.11-.12.21-.07.42-.14.62-.22.09-.03.12-.02.14.08.15.83.3,1.66.45,2.49.18.98.35,1.96.53,2.93,0,.02.01.04.02.07.08-.02.07-.08.07-.13.2-1.5.39-2.99.59-4.49.07-.51.13-1.01.2-1.52.01-.09.04-.14.14-.17.27-.08.53-.18.81-.28-.06.42-.12.81-.17,1.21-.22,1.54-.45,3.08-.67,4.62-.13.89-.26,1.78-.39,2.67-.01.07-.04.11-.11.14-.24.1-.48.19-.72.3-.09.04-.11.02-.13-.07-.29-1.53-.58-3.06-.87-4.58-.05-.25-.09-.5-.14-.75,0-.03,0-.07-.04-.08-.18,1.08-.37,2.17-.55,3.25-.18,1.03-.35,2.06-.52,3.09-.01.08-.05.11-.12.13-.25.1-.51.2-.76.31-.1.04-.12.02-.14-.08-.13-.81-.27-1.61-.41-2.41-.3-1.74-.6-3.48-.89-5.22-.03-.2-.04-.2.15-.26.25-.09.49-.17.74-.26.08-.03.11-.02.12.07.25,1.69.51,3.37.76,5.06.04.24.07.48.11.72.01,0,.02,0,.03,0Z"/>
      </g>
    </g>
  </g>
</svg>