<?xml version="1.0" encoding="UTF-8"?>
<svg id="Layer_2" data-name="Layer 2" xmlns="http://www.w3.org/2000/svg" xmlns:xlink="http://www.w3.org/1999/xlink" viewBox="0 0 31.11 31.11">
  <defs>
    <style>
      .cls-1 {
        fill: url(#linear-gradient);
      }

      .cls-1, .cls-2, .cls-3, .cls-4, .cls-5 {
        stroke-width: 0px;
      }

      .cls-2 {
        fill: #fff;
      }

      .cls-3 {
        fill: url(#linear-gradient-2);
      }

      .cls-4 {
        fill: url(#linear-gradient-3);
      }

      .cls-5 {
        fill: #d48600;
      }
    </style>
    <linearGradient id="linear-gradient" x1="-312.87" y1="537.06" x2="-312.89" y2="536.98" gradientTransform="translate(50415.76 129554.41) scale(161.1 -241.22)" gradientUnits="userSpaceOnUse">
      <stop offset="0" stop-color="#8b6211"/>
      <stop offset="1" stop-color="#bc7800"/>
    </linearGradient>
    <linearGradient id="linear-gradient-2" x1="-313.44" y1="537.02" x2="-313.44" y2="537.02" gradientTransform="translate(70442.07 129552.98) scale(224.69 -241.21)" gradientUnits="userSpaceOnUse">
      <stop offset="0" stop-color="#000" stop-opacity=".3"/>
      <stop offset=".07" stop-color="#000" stop-opacity=".2"/>
      <stop offset=".32" stop-color="#000" stop-opacity=".1"/>
      <stop offset=".62" stop-color="#000" stop-opacity=".05"/>
      <stop offset="1" stop-color="#000" stop-opacity="0"/>
    </linearGradient>
    <linearGradient id="linear-gradient-3" x1="-313.46" y1="537.06" x2="-313.44" y2="536.98" gradientTransform="translate(53228.78 129554.41) scale(169.75 -241.22)" gradientUnits="userSpaceOnUse">
      <stop offset="0" stop-color="#f4a53c"/>
      <stop offset="1" stop-color="#df9b28"/>
    </linearGradient>
  </defs>
  <g id="Full_Stack_Devloper" data-name="Full Stack Devloper">
    <g id="Azure">
      <rect id="BC_White" data-name="BC White" class="cls-2" width="31.11" height="31.11" rx="8" ry="8"/>
      <g>
        <path class="cls-1" d="M12.24,6.17h5.89l-6.12,18.13c-.13.38-.49.64-.89.64h-4.59c-.3,0-.59-.15-.76-.39-.18-.25-.22-.56-.13-.85L11.35,6.81c.13-.38.49-.64.89-.64h0Z"/>
        <path class="cls-5" d="M20.8,18.33h-9.35c-.18,0-.34.11-.4.27-.07.17-.02.35.11.48l6.01,5.61c.17.16.41.25.64.25h5.29l-2.3-6.61Z"/>
        <path class="cls-3" d="M12.24,6.17c-.41,0-.77.26-.89.65l-5.69,16.86c-.1.29-.06.61.12.86.18.25.46.4.77.4h4.71c.36-.06.65-.31.77-.66l1.13-3.34,4.05,3.78c.17.14.38.22.6.22h5.27l-2.31-6.61h-6.74s4.13-12.16,4.13-12.16h-5.91Z"/>
        <path class="cls-4" d="M19.77,6.81c-.13-.38-.49-.64-.89-.64h-6.57c.4,0,.76.26.89.64l5.7,16.89c.1.29.05.6-.13.85-.18.25-.46.39-.76.39h6.57c.3,0,.59-.15.76-.39s.22-.56.13-.85l-5.7-16.89Z"/>
      </g>
    </g>
  </g>
</svg>