<?xml version="1.0" encoding="UTF-8"?>
<svg id="Layer_2" data-name="Layer 2" xmlns="http://www.w3.org/2000/svg" viewBox="0 0 31.11 31.11">
  <defs>
    <style>
      .cls-1 {
        fill: #664008;
      }

      .cls-1, .cls-2, .cls-3 {
        stroke-width: 0px;
      }

      .cls-2 {
        fill: #fca311;
      }

      .cls-3 {
        fill: #fff;
      }
    </style>
  </defs>
  <g id="Full_Stack_Devloper" data-name="Full Stack Devloper">
    <g id="Devops">
      <rect id="BC_White" data-name="BC White" class="cls-3" width="31.11" height="31.11" rx="8" ry="8"/>
      <g>
        <path class="cls-2" d="M15.51,17.31c-.28.3-.55.61-.83.91-.44.49-.88.98-1.32,1.47-.02.02-.03.04-.06.05-.02-.03,0-.06,0-.09,0-.51.01-1.02.03-1.52,0-.07-.02-.09-.09-.09-.48,0-.97-.01-1.45-.02-.03,0-.06,0-.09,0,.01-.05.04-.07.06-.09.71-.78,1.42-1.57,2.13-2.35.01-.02.03-.03.04-.05.35-.38.7-.76,1.04-1.15.18-.2.35-.4.53-.59.21-.23.43-.46.64-.7.53-.59,1.06-1.17,1.59-1.76.04-.04.07-.05.12-.05.5.05,1,.1,1.5.14.05,0,.06.02.06.07-.03.52-.07,1.03-.1,1.55,0,.05-.03.07-.06.1-.71.79-1.41,1.57-2.12,2.36-.02.02-.03.04-.04.05-.2.22-.4.44-.59.65-.33.37-.66.73-.98,1.1Z"/>
        <path class="cls-2" d="M24.22,13.14c.28.02.56.03.84.05.28.02.55.03.83.05.07,0,.08-.02.09-.08.04-.49.08-.98.13-1.46.03-.01.04.02.06.03.76.95,1.3,2,1.51,3.21.25,1.43-.1,2.72-.98,3.86-.26.34-.56.65-.87.94-.03.03-.05.03-.09.03-.54-.04-1.07-.08-1.61-.11-.05,0-.07-.02-.07-.07.05-.55.1-1.11.15-1.66,0-.06.03-.1.06-.14.44-.56.77-1.18.91-1.89.19-.95-.07-1.78-.73-2.49-.08-.09-.17-.17-.25-.25,0,0,0-.01,0-.02Z"/>
        <path class="cls-1" d="M4.87,19.36s.07-.01.1-.01c.47,0,.93,0,1.4,0,.09,0,.12-.03.13-.11.05-.41.1-.83.15-1.24,0-.01,0-.03,0-.04,0-.02,0-.06.03-.07.02,0,.04.02.06.04.53.45,1.14.75,1.83.87.79.14,1.54.02,2.27-.3.05-.02.11-.04.15-.07.18-.13.38-.12.58-.1.37.03.75.06,1.12.08.07,0,.15.02.22.02.08,0,.1.03.1.1,0,.29,0,.57,0,.86,0,.15,0,.31,0,.46,0,.08-.03.13-.08.17-.46.39-.98.67-1.54.88-.68.26-1.39.37-2.12.33-.77-.03-1.5-.22-2.2-.52-.77-.33-1.48-.78-2.14-1.29-.02-.02-.05-.03-.06-.06Z"/>
        <path class="cls-2" d="M23.84,18.19c-.03.29-.05.56-.08.82-.03.27-.05.55-.08.82,0,.07.03.07.08.08.47.04.95.07,1.42.11.04,0,.07,0,.14.02-.17.1-.32.18-.47.26-.69.37-1.42.65-2.19.78-1.37.24-2.66.02-3.88-.65-.53-.29-1.02-.65-1.45-1.09-.04-.04-.05-.08-.05-.14.03-.48.06-.95.09-1.43,0-.07.03-.08.09-.07.53.05,1.06.09,1.6.14.09,0,.16.03.22.09.56.43,1.17.75,1.87.87.74.13,1.45.03,2.13-.29.18-.08.36-.18.54-.31Z"/>
        <path class="cls-1" d="M13.52,11.61s-.08.02-.11.02c-.44-.03-.87-.06-1.31-.09-.08,0-.09.03-.09.09-.05.5-.09,1.01-.14,1.51,0,.02.01.06-.02.07-.02,0-.04-.02-.05-.04-.55-.55-1.22-.89-1.99-.99-.58-.08-1.14.01-1.69.2-.28.1-.54.22-.8.36-.03.02-.07.03-.11.03-.44-.02-.88-.04-1.32-.06-.1,0-.2,0-.3,0-.06,0-.09-.02-.08-.09.03-.5.06-1.01.09-1.51,0-.07.05-.09.1-.12.41-.24.85-.43,1.29-.6.66-.24,1.33-.4,2.03-.46,1.55-.11,2.93.31,4.11,1.33.13.12.26.24.4.36Z"/>
        <path class="cls-1" d="M5.19,11.3c-.02.21-.04.4-.06.6-.03.31-.06.63-.09.94,0,.06.02.08.08.09.49.04.98.07,1.47.11.06,0,.12.01.19.02-.1.11-.19.21-.27.32-.44.55-.68,1.17-.71,1.87-.04.79.16,1.51.52,2.21.03.05.04.1.03.16-.05.47-.09.93-.14,1.4,0,.06-.02.09-.1.09-.49-.05-.99-.09-1.48-.14-.06,0-.11-.03-.14-.09-.56-.82-.94-1.72-1.07-2.71-.1-.78-.03-1.55.21-2.3.3-.95.8-1.78,1.48-2.5.02-.02.04-.05.09-.06Z"/>
        <path class="cls-2" d="M19.6,12.76c.02-.26.04-.53.06-.79.02-.25.03-.49.06-.74,0-.06-.02-.06-.07-.07-.38-.03-.77-.06-1.15-.09-.15-.01-.29-.02-.44-.04,0-.04.04-.04.06-.05.86-.47,1.76-.83,2.73-1,1.51-.27,2.94-.06,4.25.77.27.17.51.36.73.58.04.04.04.07.04.12-.05.47-.1.94-.14,1.41,0,.07-.03.09-.11.09-.55-.03-1.09-.05-1.64-.07-.06,0-.1-.04-.14-.07-.43-.37-.92-.6-1.48-.68-.53-.08-1.05-.01-1.56.13-.41.11-.79.28-1.16.48-.01,0-.03.02-.05.01Z"/>
        <path class="cls-1" d="M15.5,13.78c-.18.2-.35.4-.53.59-.35.38-.7.76-1.04,1.15-.43-.48-.86-.96-1.29-1.44-.11-.13-.22-.25-.34-.38-.04-.04-.05-.08-.04-.13.03-.43.05-.87.08-1.3,0-.1.01-.21.02-.31,0-.05.03-.07.08-.06.47.05.94.09,1.41.14.07,0,.13.03.18.09.49.55.98,1.1,1.47,1.64Z"/>
        <path class="cls-1" d="M15.51,17.31c.33-.37.65-.73.98-1.1.2-.22.4-.44.59-.65.56.62,1.11,1.24,1.67,1.86-.04.03-.08.02-.11.02-.47,0-.93,0-1.4,0-.09,0-.13.02-.13.12-.04.42-.09.83-.13,1.25,0,.02,0,.04,0,.05,0,.02,0,.04-.02.05-.02,0-.03-.01-.04-.03-.1-.11-.19-.21-.28-.32-.37-.41-.73-.82-1.1-1.23,0,0-.01-.01-.02-.02Z"/>
        <path class="cls-2" d="M6.94,15.6c0-.29,0-.57,0-.86,0-.07.02-.09.09-.09.25,0,.5-.03.75,0,.28.03.54.11.74.33.19.2.24.46.22.73-.04.49-.35.72-.79.82-.31.07-.62.06-.93.04-.06,0-.07-.04-.07-.09,0-.29,0-.58,0-.88ZM7.44,15.6c0,.14,0,.28,0,.43,0,.05.01.07.07.07.1,0,.21,0,.31-.02.22-.04.38-.23.38-.48,0-.24-.15-.44-.37-.48-.1-.02-.21-.02-.31-.02-.06,0-.08.02-.08.08,0,.14,0,.28,0,.42Z"/>
        <path class="cls-1" d="M19.87,16.5c-.52,0-.94-.42-.94-.93,0-.52.42-.93.94-.93.52,0,.94.42.93.94,0,.52-.42.93-.94.93ZM19.87,16.03c.27,0,.48-.2.48-.47,0-.27-.21-.47-.48-.47-.27,0-.48.21-.48.48,0,.26.21.47.48.47Z"/>
        <path class="cls-1" d="M21.49,16.55c0,.24,0,.24-.24.24-.23,0-.2.02-.2-.21,0-.46,0-.92,0-1.38,0-.11,0-.11.12-.11.08,0,.15,0,.23,0,.07,0,.11.02.1.1,0,.06.01.08.07.04.41-.29.73-.05.85.29.1.27.06.53-.15.75-.18.19-.46.22-.68.08-.02-.01-.04-.05-.07-.03-.03.02-.02.05-.02.07,0,.05,0,.11,0,.16ZM21.49,15.76c0,.16.11.3.25.3.15,0,.28-.14.28-.3,0-.15-.13-.28-.27-.28-.14,0-.25.12-.25.28Z"/>
        <path class="cls-2" d="M9.91,15.96c-.14,0-.28,0-.43,0-.06,0-.06.02-.03.06.09.16.27.21.43.12.18-.1.24-.09.38.07.07.08.07.12,0,.18-.18.15-.4.22-.64.18-.5-.07-.77-.44-.68-.94.05-.27.3-.51.6-.56.47-.08.82.18.86.66q.02.23-.21.23c-.09,0-.18,0-.27,0ZM9.66,15.69c.06,0,.13,0,.19,0,.06,0,.06-.02.04-.07-.05-.09-.13-.14-.23-.14-.11,0-.18.05-.23.15-.02.05,0,.06.04.06.06,0,.12,0,.19,0Z"/>
        <path class="cls-2" d="M11.27,15.9s.04-.08.05-.12c.07-.21.14-.42.2-.63.02-.05.04-.07.1-.07.13,0,.25,0,.38,0,.05,0,.08,0,.05.07-.18.45-.35.91-.52,1.36-.02.04-.04.05-.08.05-.12,0-.25,0-.37,0-.04,0-.06-.02-.08-.05-.17-.45-.34-.9-.52-1.36-.02-.06,0-.07.05-.07.13,0,.26,0,.39,0,.06,0,.08.02.09.07.07.22.14.44.21.67,0,.03.02.05.03.09Z"/>
        <path class="cls-1" d="M23.16,16.42c-.18,0-.34-.04-.5-.11-.12-.05-.13-.11-.06-.22.01-.02.03-.04.04-.06.04-.07.09-.08.16-.04.09.05.18.08.28.1.03,0,.06,0,.1,0,.03,0,.05-.02.06-.05,0-.03-.01-.05-.04-.07-.08-.06-.17-.07-.26-.09-.25-.06-.35-.17-.34-.38,0-.21.16-.37.38-.41.21-.03.4.01.6.09.06.03.08.06.04.12,0,.01-.01.03-.02.04-.08.18-.12.19-.3.11-.06-.03-.11-.05-.18-.04-.03,0-.07,0-.08.05,0,.04.02.06.05.08.07.04.15.05.23.07.12.04.23.1.3.21.12.2.06.44-.15.54-.1.05-.21.07-.31.06Z"/>
      </g>
    </g>
  </g>
</svg>