<?xml version="1.0" encoding="UTF-8"?>
<svg id="Layer_2" data-name="Layer 2" xmlns="http://www.w3.org/2000/svg" viewBox="0 0 31.11 31.11">
  <defs>
    <style>
      .cls-1 {
        fill: #fca311;
      }

      .cls-1, .cls-2 {
        stroke-width: 0px;
      }

      .cls-2 {
        fill: #fff;
      }
    </style>
  </defs>
  <g id="Full_Stack_Devloper" data-name="Full Stack Devloper">
    <g id="Devops">
      <rect id="BC_White" data-name="BC White" class="cls-2" width="31.11" height="31.11" rx="8" ry="8"/>
      <g>
        <path class="cls-1" d="M22.85,15.02c-.78-1.56-.51-2.98.48-4.34.96.6,1.71,1.32,1.96,2.45.05.21.13.23.31.21.65-.08,1.31-.08,1.93.12.3.1.58.29.86.45.05.03.07.17.05.23-.54,1.36-1.63,2.1-3.1,2.12-.07,0-.14,0-.21,0-.21-.03-.32.06-.4.26-.66,1.55-1.59,2.91-2.83,4.06-1.63,1.51-3.57,2.42-5.74,2.89-1.08.23-2.18.34-3.29.35-1.56.01-3.08-.21-4.47-.98-1.76-.97-2.77-2.51-3.26-4.42-.23-.88-.3-1.77-.21-2.67.03-.25.1-.34.37-.34,5.28,0,10.55.01,15.83,0,.48,0,.95-.16,1.43-.25.1-.02.18-.08.28-.13Z"/>
        <path class="cls-1" d="M15.41,7.29h2.37c0,.21,0,.42,0,.62,0,.45,0,.89,0,1.34,0,.12,0,.22-.17.22-.73,0-1.46,0-2.2,0v-2.18Z"/>
        <path class="cls-1" d="M12.01,12.13h-2.39c0-.37,0-.72,0-1.08,0-.28,0-.57,0-.85,0-.15.05-.22.2-.22.67,0,1.34,0,2,0,.06,0,.17.08.18.12.01.66,0,1.33,0,2.01Z"/>
        <path class="cls-1" d="M14.89,12.13h-2.39c0-.19,0-.38,0-.56,0-.45,0-.91,0-1.36,0-.17.06-.23.22-.23.65,0,1.3,0,1.95,0,.07,0,.21.09.21.14.01.66,0,1.31,0,2Z"/>
        <path class="cls-1" d="M17.78,12.13h-2.39c0-.68,0-1.35,0-2.01,0-.04.1-.12.15-.12.69,0,1.39,0,2.08,0,.05,0,.14.1.14.15.01.65,0,1.3,0,1.98Z"/>
        <path class="cls-1" d="M6.76,12.65h2.37c0,.53,0,1.04,0,1.55q0,.58-.58.58c-.52,0-1.05,0-1.57,0-.19,0-.25-.06-.25-.25.01-.56,0-1.11,0-1.67,0-.07.01-.13.02-.21Z"/>
        <path class="cls-1" d="M9.62,12.65h2.39c0,.53,0,1.04,0,1.55q0,.58-.58.58c-.52,0-1.05,0-1.57,0-.19,0-.25-.06-.25-.25.01-.62,0-1.23,0-1.88Z"/>
        <path class="cls-1" d="M12.51,12.65h2.39c0,.16,0,.31,0,.46,0,.49,0,.98,0,1.46,0,.16-.05.21-.21.21-.66,0-1.32,0-1.98,0-.07,0-.2-.09-.2-.15-.01-.65,0-1.3,0-1.98Z"/>
        <path class="cls-1" d="M16.57,14.79c-.33,0-.65,0-.98,0-.15,0-.21-.06-.21-.21,0-.58,0-1.16,0-1.75,0-.15.06-.19.2-.19.67,0,1.34,0,2,0,.14,0,.2.05.2.2,0,.58,0,1.16,0,1.75,0,.16-.06.21-.21.21-.33,0-.67,0-1,0Z"/>
        <path class="cls-1" d="M19.5,12.64c.32,0,.64,0,.95,0,.16,0,.23.04.23.22,0,.57,0,1.15,0,1.72,0,.16-.07.21-.22.21-.64,0-1.29,0-1.93,0-.16,0-.24-.05-.23-.22,0-.57,0-1.15,0-1.72,0-.16.07-.21.22-.2.33,0,.65,0,.98,0Z"/>
      </g>
    </g>
  </g>
</svg>