<?xml version="1.0" encoding="UTF-8"?>
<svg id="Layer_2" data-name="Layer 2" xmlns="http://www.w3.org/2000/svg" viewBox="0 0 31.11 31.11">
  <defs>
    <style>
      .cls-1 {
        fill: #fca311;
      }

      .cls-1, .cls-2, .cls-3, .cls-4 {
        stroke-width: 0px;
      }

      .cls-2 {
        fill: #fff;
      }

      .cls-3 {
        fill: #cc830e;
      }

      .cls-4 {
        fill: #734a08;
      }
    </style>
  </defs>
  <g id="Full_Stack_Devloper" data-name="Full Stack Devloper">
    <g id="Html">
      <rect id="BC_White" data-name="BC White" class="cls-2" y="0" width="31.11" height="31.11" rx="8" ry="8"/>
      <g id="Html_Logo" data-name="Html Logo">
        <path class="cls-1" d="M6.69,5.5c5.91,0,11.82,0,17.74-.01-.53,6.05-1.07,12.09-1.6,18.14-2.43.67-4.85,1.33-7.28,2-2.41-.68-4.82-1.35-7.23-2.03-.54-6.03-1.08-12.07-1.62-18.1Z"/>
        <path class="cls-3" d="M15.58,6.98c2.41,0,4.81,0,7.22-.01-.46,5.16-.91,10.33-1.37,15.49-1.96.55-3.91,1.09-5.87,1.64,0-5.71,0-11.41.01-17.12Z"/>
        <path class="cls-4" d="M21.13,9.21c-3.7-.01-7.4-.02-11.1-.03.17,2.25.35,4.49.52,6.74h7.71c-.08.96-.15,1.92-.23,2.88-.84.23-1.67.45-2.51.68-.83-.23-1.65-.45-2.48-.68-.03-.58-.06-1.17-.09-1.75-.77,0-1.54.01-2.3.02.11,1.15.22,2.31.33,3.46,1.51.44,3.03.89,4.54,1.33,1.51-.43,3.03-.85,4.54-1.28.21-2.29.43-4.58.64-6.88-2.7-.01-5.39-.02-8.09-.03-.05-.74-.1-1.49-.16-2.23,2.82,0,5.64-.01,8.45-.02.08-.73.15-1.47.23-2.2Z"/>
      </g>
    </g>
  </g>
</svg>