<?xml version="1.0" encoding="UTF-8"?>
<svg id="Layer_2" data-name="Layer 2" xmlns="http://www.w3.org/2000/svg" viewBox="0 0 31.11 31.11">
  <defs>
    <style>
      .cls-1 {
        fill: #fca311;
      }

      .cls-1, .cls-2, .cls-3 {
        stroke-width: 0px;
      }

      .cls-2 {
        fill: #fff;
      }

      .cls-3 {
        fill: #734a08;
      }
    </style>
  </defs>
  <g id="Full_Stack_Devloper" data-name="Full Stack Devloper">
    <g id="PHP_Icon" data-name="PHP Icon">
      <rect id="BC_White" data-name="BC White" class="cls-2" width="31.11" height="31.11" rx="8" ry="8"/>
      <g id="PHP_Logo" data-name="PHP Logo">
        <path class="cls-1" d="M3.99,15.86v-.59s0,0,0,0c0,0,0,0,0,0,.01-.1.03-.21.05-.31.11-.54.33-1.02.65-1.47.35-.49.78-.91,1.25-1.28.56-.43,1.17-.79,1.81-1.1,1.32-.62,2.72-1.02,4.16-1.27.49-.09.98-.15,1.48-.2.31-.03.61-.05.92-.07.16,0,.31-.01.47-.02.01,0,.03.01.04-.02.49,0,.97,0,1.46,0,0,0,0,0,0,0,0,0,0,0,0,0,.02,0,.04,0,.05,0,.19,0,.38.02.57.03.52.03,1.03.08,1.54.15.62.08,1.23.19,1.84.34.91.21,1.8.49,2.65.86.68.29,1.33.64,1.94,1.07.53.38,1.01.81,1.41,1.32.28.36.51.76.65,1.19.08.23.13.47.16.72,0,.01,0,.03.02.03v.58s0,0,0,0c0,0,0,0,0,0-.02.05-.02.1-.02.15-.08.54-.28,1.03-.57,1.48-.33.5-.74.93-1.2,1.31-.42.35-.87.64-1.35.9-.79.43-1.62.77-2.48,1.04-.7.22-1.4.39-2.12.52-.41.07-.82.14-1.23.18-.35.04-.71.07-1.06.1-.35.03-.7.04-1.06.05-.79.01-1.58,0-2.37-.08-.48-.04-.95-.1-1.43-.17-.5-.08-1-.18-1.5-.29-.79-.19-1.56-.42-2.31-.73-.79-.33-1.55-.72-2.25-1.22-.57-.41-1.09-.89-1.49-1.47-.23-.32-.41-.67-.53-1.05-.07-.22-.12-.44-.14-.67,0,0,0-.03-.02-.03ZM10.03,12.71c-.47,0-.94,0-1.41,0-.12,0-.12,0-.14.11-.16.81-.32,1.61-.48,2.42-.15.74-.29,1.48-.44,2.22-.11.54-.21,1.08-.32,1.61,0,.04,0,.05.04.05.47,0,.93,0,1.4,0,.04,0,.05,0,.06-.05.04-.2.07-.4.11-.6.06-.33.12-.65.19-.98,0-.02.01-.04.04-.04.48,0,.96,0,1.43,0,.19,0,.39,0,.57-.05.73-.16,1.31-.54,1.72-1.16.44-.66.59-1.39.47-2.16-.08-.51-.35-.89-.81-1.13-.35-.18-.72-.25-1.11-.26-.45,0-.89,0-1.34,0ZM20.57,17.46h0c.19,0,.38,0,.56,0,.31,0,.62-.03.91-.13.66-.23,1.16-.65,1.51-1.24.21-.35.33-.74.38-1.15.04-.32.04-.64-.04-.95-.1-.43-.34-.77-.73-.99-.36-.2-.75-.29-1.15-.29-.95,0-1.89,0-2.84,0-.04,0-.06.01-.06.05-.21,1.06-.42,2.12-.63,3.19-.21,1.04-.41,2.09-.62,3.13-.01.05-.01.05.04.05.47,0,.93,0,1.4,0,.04,0,.05-.01.06-.05.1-.52.2-1.04.3-1.57,0-.03.02-.05.06-.05.28,0,.56,0,.84,0ZM17.16,17.46c.25,0,.5,0,.75,0,.03,0,.05,0,.05-.04.02-.13.04-.26.06-.39.16-.94.32-1.89.48-2.83.03-.19.04-.37-.01-.56-.08-.32-.29-.53-.57-.68-.34-.18-.72-.25-1.1-.25-.43,0-.85,0-1.28,0-.04,0-.05,0-.04-.05.1-.52.2-1.04.3-1.57,0-.05,0-.05-.04-.05-.47,0-.93,0-1.4,0-.04,0-.06.01-.06.05-.13.66-.26,1.32-.39,1.98-.16.81-.32,1.61-.48,2.42-.13.64-.25,1.28-.38,1.93,0,.03,0,.04.04.04.47,0,.95,0,1.42,0,.03,0,.04,0,.05-.04.04-.18.07-.37.11-.55.2-.98.39-1.95.58-2.93,0-.03.02-.04.05-.04.39,0,.79,0,1.18,0,.08,0,.16,0,.24.03.14.03.21.12.23.25.02.12-.01.25-.03.37-.08.44-.17.89-.25,1.33-.1.51-.19,1.02-.29,1.53-.01.05,0,.06.04.06.25,0,.49,0,.74,0Z"/>
        <path class="cls-3" d="M10.03,12.71c.45,0,.89,0,1.34,0,.39,0,.76.08,1.11.26.46.24.73.62.81,1.13.12.78-.03,1.51-.47,2.16-.42.61-.99,1-1.72,1.16-.19.04-.38.05-.57.05-.48,0-.96,0-1.43,0-.03,0-.04.02-.04.04-.06.33-.12.65-.19.98-.04.2-.08.4-.11.6,0,.04-.02.05-.06.05-.47,0-.93,0-1.4,0-.04,0-.05,0-.04-.05.11-.54.21-1.08.32-1.61.15-.74.29-1.48.44-2.22.16-.81.32-1.61.48-2.42.02-.12.02-.11.14-.11.47,0,.94,0,1.41,0ZM10.36,13.9c-.18,0-.35,0-.53,0-.05,0-.06.02-.06.06-.06.36-.12.72-.18,1.08-.07.4-.13.79-.2,1.19,0,.04,0,.05.04.05.25,0,.49,0,.74,0,.2,0,.39-.03.58-.08.4-.11.69-.35.84-.74.11-.27.16-.55.17-.84,0-.24-.1-.44-.31-.57-.18-.11-.39-.14-.6-.15-.16,0-.33,0-.49,0Z"/>
        <path class="cls-3" d="M20.57,17.46c-.28,0-.56,0-.84,0-.04,0-.05.01-.06.05-.1.52-.2,1.04-.3,1.57,0,.04-.02.05-.06.05-.47,0-.93,0-1.4,0-.05,0-.05,0-.04-.05.21-1.04.41-2.09.62-3.13.21-1.06.42-2.12.63-3.19,0-.04.02-.05.06-.05.95,0,1.89,0,2.84,0,.4,0,.79.09,1.15.29.39.22.63.56.73.99.07.31.07.63.04.95-.05.41-.17.79-.38,1.15-.35.6-.85,1.01-1.51,1.24-.3.1-.6.14-.91.13-.19,0-.38,0-.56,0h0ZM20.97,13.9c-.16,0-.31,0-.47,0-.11,0-.11,0-.13.11-.12.74-.25,1.47-.37,2.21,0,.04,0,.05.04.05.24,0,.49,0,.73,0,.2,0,.39-.03.58-.08.4-.11.69-.35.84-.74.11-.27.16-.55.17-.84,0-.27-.12-.47-.35-.59-.17-.09-.36-.12-.55-.12-.16,0-.32,0-.49,0Z"/>
        <path class="cls-3" d="M17.16,17.46c-.25,0-.49,0-.74,0-.05,0-.05,0-.04-.06.1-.51.19-1.02.29-1.53.08-.44.17-.89.25-1.33.02-.12.05-.24.03-.37-.02-.13-.1-.22-.23-.25-.08-.02-.16-.03-.24-.03-.39,0-.79,0-1.18,0-.03,0-.05.01-.05.04-.19.98-.39,1.95-.58,2.93-.04.18-.07.37-.11.55,0,.03-.02.04-.05.04-.47,0-.95,0-1.42,0-.03,0-.04,0-.04-.04.13-.64.25-1.28.38-1.93.16-.81.32-1.61.48-2.42.13-.66.26-1.32.39-1.98,0-.04.02-.05.06-.05.47,0,.93,0,1.4,0,.04,0,.05,0,.04.05-.1.52-.2,1.04-.3,1.57,0,.04,0,.05.04.05.43,0,.85,0,1.28,0,.38,0,.76.07,1.1.25.28.15.48.37.57.68.05.18.04.37.01.56-.16.94-.32,1.89-.48,2.83-.02.13-.05.26-.06.39,0,.04-.02.04-.05.04-.25,0-.5,0-.75,0Z"/>
        <path class="cls-1" d="M10.36,13.9c.16,0,.33,0,.49,0,.21,0,.41.04.6.15.21.13.32.32.31.57,0,.29-.06.57-.17.84-.16.39-.44.63-.84.74-.19.05-.38.08-.58.08-.24,0-.49,0-.74,0-.04,0-.05-.01-.04-.05.07-.4.13-.79.2-1.19.06-.36.12-.72.18-1.08,0-.04.02-.06.06-.06.18,0,.35,0,.53,0Z"/>
        <path class="cls-1" d="M20.97,13.9c.16,0,.32,0,.49,0,.19,0,.38.03.55.12.24.13.36.33.35.59,0,.29-.06.57-.17.84-.16.39-.44.64-.84.74-.19.05-.38.08-.58.08-.24,0-.49,0-.73,0-.04,0-.05-.01-.04-.05.12-.74.25-1.47.37-2.21.02-.11.02-.11.13-.11.16,0,.31,0,.47,0Z"/>
      </g>
    </g>
  </g>
</svg>