<?xml version="1.0" encoding="UTF-8"?>
<svg id="Layer_2" data-name="Layer 2" xmlns="http://www.w3.org/2000/svg" viewBox="0 0 31.11 31.11">
  <defs>
    <style>
      .cls-1 {
        fill: #fca311;
      }

      .cls-1, .cls-2, .cls-3 {
        stroke-width: 0px;
      }

      .cls-2 {
        fill: #fff;
      }

      .cls-3 {
        fill: #fbfcfc;
      }
    </style>
  </defs>
  <g id="Full_Stack_Devloper" data-name="Full Stack Devloper">
    <g id="Javascript">
      <rect id="BC_White" data-name="BC White" class="cls-2" width="31.11" height="31.11" rx="8" ry="8"/>
      <g>
        <path class="cls-3" d="M22.02,20.09c-.07.56-.13,1.1-.2,1.64-.12.94-.23,1.88-.4,2.81-.05.28-.14.56-.25.82-.24.57-.63,1-1.18,1.28-.73.36-1.5.57-2.32.51-.66-.05-1.21-.34-1.62-.86-.39-.5-.62-1.06-.69-1.69-.16-1.33-.17-2.67-.18-4.02,0-.06.01-.12-.02-.2-.05.04-.1.07-.14.11-.53.42-1.14.63-1.81.67-.46.02-.92-.03-1.36-.15-.21-.06-.41-.15-.6-.27-.1-.07-.2-.15-.27-.25-.19-.26-.16-.56.07-.78.13-.12.29-.19.46-.25.28-.1.58-.14.87-.22.07-.02.14-.04.21-.05.32-.08.58-.24.77-.52.08-.12.18-.23.28-.36-.11-.06-.21-.04-.31-.05-.32-.04-.63-.14-.93-.28-.13-.06-.13-.06-.23.05-.59.64-1.17,1.29-1.72,1.96-.19.23-.4.45-.66.61-.27.17-.57.25-.89.23-.25-.02-.47-.11-.68-.25-.28-.18-.5-.41-.7-.66-.41-.52-.72-1.11-.99-1.71-.53-1.17-.91-2.38-1.25-3.62-.33-1.19-.6-2.4-.8-3.62-.19-1.15-.19-2.3.1-3.44.17-.68.46-1.3.93-1.83.61-.7,1.4-1.1,2.29-1.29.77-.17,1.55-.17,2.34-.09,1,.11,1.96.34,2.9.67.08.03.14.02.22-.03.74-.48,1.57-.7,2.45-.74.68-.03,1.34.03,2,.18.08.02.15.01.23-.01.64-.21,1.3-.33,1.97-.4.59-.06,1.19-.06,1.78,0,1.81.2,3.32.96,4.47,2.39.27.33.37.73.43,1.14.09.67.04,1.33-.06,1.99-.32,2.11-1.04,4.09-1.98,6-.37.75-.78,1.47-1.23,2.17-.01.02-.03.04-.04.06-.04.06-.02.08.04.11.14.07.3.11.45.13.4.06.79.03,1.19-.02.29-.03.58-.09.87-.15.14-.03.28-.03.42-.02.4.04.6.4.43.76-.09.19-.23.35-.39.48-.53.45-1.12.79-1.8.95-.67.16-1.35.24-2.04.16-.15-.02-.29-.05-.45-.08ZM14.39,17.75c.15,0,.27-.01.39.01.65.14,1.15.76,1.11,1.43-.02.48-.02.95-.03,1.43,0,1.24.01,2.48.14,3.72.04.43.15.83.36,1.2.36.66.91.97,1.66.93.57-.03,1.11-.18,1.62-.44.42-.21.71-.54.89-.96.13-.3.2-.61.26-.94.12-.72.22-1.45.3-2.18.11-.95.27-1.9.29-2.86,0-.09.02-.18.03-.27.09-.5.35-.87.85-1.04.04-.01.08-.02.12-.06-.04-.08-.1-.15-.16-.22-.26-.32-.5-.65-.67-1.03-.12-.28-.27-.55-.42-.81-.45-.8-.87-1.61-1.18-2.48-.2-.58-.35-1.17-.31-1.8.04-.76.49-1.34,1.22-1.58.49-.16.99-.16,1.49-.13.05,0,.11.03.16,0,.02-.07-.02-.13-.05-.19-.19-.49-.44-.95-.73-1.39-.64-.97-1.45-1.77-2.46-2.34-1.18-.66-2.46-.91-3.8-.8-.69.06-1.34.27-1.92.67-.65.45-1.11,1.05-1.45,1.74-.41.83-.63,1.71-.74,2.62-.02.14-.06.27-.03.42.07,0,.12-.05.17-.07.53-.26,1.08-.45,1.67-.52.31-.03.62-.02.93.07.65.19,1.02.65,1.18,1.29.14.56.22,1.14.27,1.72.09,1.03-.02,2.03-.43,2.98-.22.52-.45,1.03-.63,1.57-.03.1-.06.21-.1.34ZM12.5,5.55s-.01-.02-.02-.03c-.05-.02-.1-.04-.16-.05-.69-.21-1.39-.37-2.11-.45-.73-.09-1.47-.09-2.19.05-.59.12-1.14.34-1.61.72-.58.47-.92,1.09-1.12,1.79-.29,1.04-.3,2.1-.14,3.17.19,1.23.47,2.45.8,3.65.32,1.18.69,2.34,1.18,3.45.26.58.55,1.15.95,1.65.15.18.3.35.5.48.33.22.62.21.93-.02.14-.1.26-.22.37-.36.56-.67,1.14-1.33,1.73-1.97.03-.03.08-.06.08-.13-.03-.02-.06-.05-.09-.08-.37-.35-.65-.76-.84-1.23-.28-.68-.3-1.38-.21-2.09.08-.62.1-1.24.08-1.87-.02-.59-.08-1.17-.03-1.76.07-.83.2-1.64.46-2.43.3-.91.73-1.75,1.41-2.44.02-.02.03-.04.03-.06ZM19.05,4.82c.02.06.08.07.12.09,1.08.51,1.97,1.26,2.7,2.19.59.75,1.06,1.57,1.36,2.48.05.16.09.33.1.5,0,.57-.08,1.13-.17,1.7-.07.47-.09.95-.04,1.43.05.49.12.97.15,1.46.05.79-.08,1.55-.46,2.25-.07.13-.07.13.05.23.04-.02.06-.06.08-.1,1.35-2.2,2.34-4.54,2.84-7.08.14-.72.22-1.44.16-2.17-.03-.44-.16-.84-.47-1.18-.69-.77-1.51-1.33-2.5-1.65-.97-.31-1.97-.38-2.97-.28-.31.03-.63.07-.94.14ZM14.89,13.54c0-.63-.07-1.2-.18-1.77-.04-.22-.08-.45-.16-.66-.12-.3-.32-.5-.63-.59-.11-.03-.21-.05-.32-.06-.83-.02-1.55.28-2.24.71-.08.05-.09.12-.08.21.04.37.04.73.04,1.1,0,.62-.02,1.24-.1,1.85-.05.37-.06.73.02,1.1.17.81.6,1.44,1.31,1.86.32.19.67.29,1.04.31.09,0,.13-.02.15-.11.18-.61.41-1.19.67-1.76.32-.71.48-1.46.46-2.19ZM22.29,16.37c.1-.17.14-.34.19-.5.15-.57.12-1.14.06-1.71-.04-.39-.09-.78-.12-1.17-.04-.57.03-1.13.12-1.7.04-.24.07-.48.09-.73.02-.18,0-.18-.17-.2-.29-.03-.57-.03-.86-.01-.18.01-.36.05-.54.11-.43.14-.66.44-.71.89-.04.36.02.71.1,1.05.18.7.48,1.35.79,1.99.32.64.71,1.24,1,1.9,0,.02.03.04.06.08ZM11.63,20.16c.13.11.27.15.4.19.42.11.84.16,1.27.12.77-.08,1.37-.45,1.82-1.07.07-.1.1-.21.08-.33-.03-.17-.09-.34-.22-.45-.25-.23-.46-.24-.66,0-.04.04-.07.08-.11.12-.12.15-.24.29-.36.44-.23.3-.53.51-.89.62-.23.08-.47.13-.71.19-.2.05-.41.08-.63.18ZM25.81,18.55s-.08,0-.11,0c-.43.09-.86.14-1.29.16-.54.01-1.08-.02-1.55-.33-.04-.03-.07-.03-.12-.02-.42.11-.6.19-.66.71,0,.05,0,.11,0,.16,0,.14.01.15.14.19.16.05.33.07.51.08.4.02.79-.01,1.19-.07.65-.1,1.25-.34,1.77-.75.05-.04.11-.06.13-.13Z"/>
        <path class="cls-1" d="M14.39,17.75c.04-.13.07-.23.1-.34.17-.54.4-1.05.63-1.57.41-.96.52-1.96.43-2.98-.05-.58-.13-1.16-.27-1.72-.16-.64-.54-1.09-1.18-1.29-.3-.09-.61-.1-.93-.07-.59.06-1.14.25-1.67.52-.05.03-.1.07-.17.07-.03-.14.01-.28.03-.42.11-.91.33-1.79.74-2.62.34-.7.81-1.3,1.45-1.74.58-.4,1.22-.62,1.92-.67,1.34-.11,2.62.14,3.8.8,1.02.57,1.82,1.38,2.46,2.34.29.44.54.9.73,1.39.02.06.06.12.05.19-.05.04-.11.01-.16,0-.5-.03-1-.02-1.49.13-.73.23-1.17.81-1.22,1.58-.03.62.11,1.21.31,1.8.31.87.73,1.68,1.18,2.48.15.27.3.53.42.81.17.38.41.71.67,1.03.06.07.12.14.16.22-.04.04-.08.05-.12.06-.49.17-.76.54-.85,1.04-.02.09-.03.18-.03.27-.02.96-.18,1.91-.29,2.86-.08.73-.18,1.46-.3,2.18-.05.32-.13.63-.26.94-.18.43-.47.75-.89.96-.51.26-1.05.4-1.62.44-.74.05-1.3-.27-1.66-.93-.21-.38-.31-.78-.36-1.2-.13-1.24-.15-2.48-.14-3.72,0-.48,0-.95.03-1.43.03-.67-.46-1.29-1.11-1.43-.12-.03-.24,0-.39-.01Z"/>
        <path class="cls-1" d="M12.5,5.55s-.01.05-.03.06c-.68.69-1.11,1.53-1.41,2.44-.26.79-.39,1.6-.46,2.43-.05.59.01,1.17.03,1.76.02.63,0,1.25-.08,1.87-.1.72-.07,1.42.21,2.09.19.47.47.88.84,1.23.03.03.06.06.09.08,0,.07-.05.1-.08.13-.59.64-1.17,1.3-1.73,1.97-.11.13-.23.26-.37.36-.32.23-.61.24-.93.02-.2-.13-.36-.3-.5-.48-.4-.5-.69-1.07-.95-1.65-.49-1.12-.86-2.28-1.18-3.45-.33-1.2-.61-2.42-.8-3.65-.17-1.06-.15-2.12.14-3.17.2-.71.54-1.32,1.12-1.79.47-.38,1.02-.6,1.61-.72.73-.15,1.46-.14,2.19-.05.72.08,1.42.24,2.11.45.05.02.1.03.16.05,0,0,.02.02.02.03Z"/>
        <path class="cls-1" d="M19.05,4.82c.31-.07.62-.11.94-.14,1.01-.09,2.01-.03,2.97.28.98.32,1.81.88,2.5,1.65.31.35.44.74.47,1.18.05.73-.02,1.46-.16,2.17-.5,2.54-1.49,4.88-2.84,7.08-.02.04-.04.08-.08.1-.12-.1-.12-.1-.05-.23.39-.7.51-1.46.46-2.25-.03-.49-.1-.97-.15-1.46-.05-.48-.03-.95.04-1.43.09-.56.17-1.12.17-1.7,0-.17-.04-.34-.1-.5-.3-.91-.77-1.73-1.36-2.48-.73-.93-1.62-1.68-2.7-2.19-.04-.02-.1-.02-.12-.09Z"/>
        <path class="cls-1" d="M14.89,13.54c.02.73-.14,1.48-.46,2.19-.26.57-.49,1.16-.67,1.76-.03.09-.06.11-.15.11-.37-.02-.72-.12-1.04-.31-.71-.42-1.14-1.06-1.31-1.86-.08-.36-.07-.73-.02-1.1.08-.61.11-1.23.1-1.85,0-.37,0-.73-.04-1.1,0-.08,0-.15.08-.21.68-.44,1.41-.73,2.24-.71.11,0,.22.02.32.06.31.09.51.3.63.59.08.21.12.44.16.66.11.57.18,1.14.18,1.77ZM13.6,10.84c-.18,0-.31.01-.42.07-.13.07-.16.16-.11.29.16.47.77.61,1.13.26.19-.19.17-.36-.06-.49-.18-.1-.38-.13-.53-.14Z"/>
        <path class="cls-1" d="M22.29,16.37s-.05-.06-.06-.08c-.29-.66-.68-1.26-1-1.9-.32-.64-.62-1.29-.79-1.99-.09-.35-.14-.69-.1-1.05.05-.45.29-.74.71-.89.17-.06.35-.1.54-.11.29-.02.57-.02.86.01.18.02.19.02.17.2-.02.24-.05.49-.09.73-.09.56-.16,1.13-.12,1.7.03.39.08.78.12,1.17.06.57.09,1.15-.06,1.71-.04.16-.09.33-.19.5ZM21.56,10.67c-.2.01-.38.04-.55.13-.21.12-.23.25-.05.42.32.3.86.17,1.01-.24.04-.11.01-.18-.1-.24-.1-.05-.21-.05-.32-.06Z"/>
        <path class="cls-1" d="M11.63,20.16c.22-.1.42-.13.63-.18.24-.05.48-.11.71-.19.36-.12.65-.32.89-.62.12-.15.24-.3.36-.44.03-.04.07-.08.11-.12.2-.24.41-.23.66,0,.13.12.19.28.22.45.02.12,0,.23-.08.33-.45.62-1.05.99-1.82,1.07-.43.04-.85,0-1.27-.12-.13-.04-.27-.08-.4-.19Z"/>
        <path class="cls-1" d="M25.81,18.55c-.02.07-.08.1-.13.13-.52.4-1.12.65-1.77.75-.39.06-.79.09-1.19.07-.17,0-.34-.03-.51-.08-.13-.04-.14-.06-.14-.19,0-.05,0-.11,0-.16.06-.52.24-.6.66-.71.05-.01.08,0,.12.02.47.31,1.01.35,1.55.33.43-.01.86-.07,1.29-.16.03,0,.07,0,.11,0Z"/>
        <path class="cls-3" d="M13.6,10.84c.15,0,.35.04.53.14.23.13.25.3.06.49-.35.35-.97.21-1.13-.26-.05-.13-.01-.22.11-.29.12-.06.24-.08.42-.07Z"/>
        <path class="cls-3" d="M21.56,10.67c.1.01.22,0,.32.06.11.06.14.13.1.24-.15.41-.69.54-1.01.24-.18-.17-.16-.3.05-.42.17-.09.36-.12.55-.13Z"/>
      </g>
    </g>
  </g>
</svg>