<?xml version="1.0" encoding="UTF-8"?>
<svg id="Layer_2" data-name="Layer 2" xmlns="http://www.w3.org/2000/svg" viewBox="0 0 31.11 31.11">
  <defs>
    <style>
      .cls-1 {
        fill: #34657b;
      }

      .cls-1, .cls-2, .cls-3, .cls-4, .cls-5, .cls-6, .cls-7, .cls-8, .cls-9 {
        stroke-width: 0px;
      }

      .cls-2 {
        fill: #fca311;
      }

      .cls-3 {
        fill: #d88c0f;
      }

      .cls-4 {
        fill: #cdd9de;
      }

      .cls-5 {
        fill: #35a1c9;
      }

      .cls-6 {
        fill: #fff;
      }

      .cls-7 {
        fill: #6ca7bb;
      }

      .cls-8 {
        fill: #734a08;
      }

      .cls-9 {
        fill: #32657c;
      }
    </style>
  </defs>
  <g id="Industrial_Designer" data-name="Industrial Designer">
    <g id="_3D_Max_Pro" data-name="3D Max Pro">
      <rect id="BC_White" data-name="BC White" class="cls-6" x="0" width="31.11" height="31.11" rx="8" ry="8"/>
      <g id="_3D_Max_Pro_Icon" data-name="3D Max Pro Icon">
        <path class="cls-8" d="M8.85,19.96c1.87,0,3.75,0,5.62,0,3.07,0,6.14,0,9.21,0q.55,0,.55-.54c0-3.73,0-7.47,0-11.2.06-.04.13-.07.2-.07.36-.04.7.08,1.06.12.14.02.2.11.2.25,0,.08,0,.17,0,.25,0,5.69,0,11.38,0,17.07,0,.48.04.43-.45.43-5.42,0-10.83,0-16.25,0-.14,0-.28-.04-.42.03h-.43c-.74-.23-.95-.5-.95-1.28,0-1.16,0-2.32,0-3.48,0-.19.03-.38.06-.56,0-.15.06-.27.19-.35.36-.24.74-.45,1.11-.67.1-.06.2-.05.3,0Z"/>
        <path class="cls-1" d="M24.14,8.15h1.42c0,5.9,0,11.81,0,17.71,0,.26-.05.31-.31.31-5.62,0-11.23,0-16.85,0,.16-.11.34-.07.52-.07,5.34,0,10.67,0,16.01,0q.55,0,.55-.55c0-5.59,0-11.17,0-16.76,0-.55,0-.54-.55-.56-.27,0-.55.07-.8-.07Z"/>
        <path class="cls-7" d="M5.43,6.73s.05.01.07.02c.13.07.15.2.16.34.01.18.01.36.01.53,0,4.4,0,8.79,0,13.19,0,.3,0,.59-.09.88-.03.06-.09.08-.15.07,0-5.01,0-10.01,0-15.02Z"/>
        <path class="cls-3" d="M5.58,21.68c-.09-.11-.08-.24-.08-.37,0-4.85,0-9.71,0-14.56,1.04-.63,2.09-1.26,3.13-1.89.08.13.07.27.07.41,0,4.84,0,9.69,0,14.53-.48.33-1.02.57-1.49.94-.54.31-1.09.62-1.63.93Z"/>
        <path class="cls-2" d="M11.76,21.33q.92-.1,1.14.78c.13.52.27,1.05.47,1.58.18-.67.35-1.35.54-2.02.03-.12,0-.33.18-.35.27-.03.54-.01.81.01.07,0,.05.12.06.19,0,.9,0,1.8,0,2.7,0,.34-.24.21-.4.22-.17.02-.36.05-.35-.25.02-.5,0-1-.07-1.51-.13.48-.28.96-.38,1.45-.06.28-.2.31-.44.31-.25,0-.41-.02-.47-.32-.11-.53-.26-1.05-.4-1.58-.18.02-.09.16-.09.24-.01.47-.01.95,0,1.42,0,.19-.1.23-.24.2-.14-.03-.39.13-.39-.15,0-.98-.06-1.96.03-2.93Z"/>
        <path class="cls-2" d="M15.39,24.41c.28-.99.57-1.98.85-2.97.03-.12.11-.13.21-.14.84-.09.85-.09,1.09.73.21.7.42,1.41.64,2.11.07.22.06.3-.21.31-.35.02-.6-.04-.62-.45-.01-.21-.14-.27-.34-.25-.16.02-.33,0-.5,0-.13,0-.18.06-.22.17-.21.58-.22.58-.9.49Z"/>
        <path class="cls-2" d="M18.65,21.37c.9-.36,1.03.37,1.31.89.16-.13.22-.3.3-.45q.32-.59,1.07-.46c-.24.38-.46.76-.7,1.11-.13.18-.12.32,0,.51.28.46.54.94.85,1.47-.29,0-.52,0-.75,0-.16,0-.19-.12-.24-.22-.16-.3-.31-.61-.5-.96-.16.29-.31.53-.41.79-.12.31-.31.45-.64.39-.11-.02-.23,0-.42,0,.3-.5.56-.96.84-1.41.12-.18.12-.33,0-.51-.24-.37-.46-.77-.7-1.16Z"/>
        <path class="cls-4" d="M11.76,21.33c0,.9,0,1.79,0,2.69,0,.2,0,.38.29.37.29,0,.28-.19.28-.39,0-.46,0-.92,0-1.38,0-.02-.06-.29.12-.07-.13.51-.04,1.03-.05,1.55,0,.27-.06.38-.35.37-.27,0-.37-.07-.37-.36.02-.83,0-1.66,0-2.49,0-.1-.04-.22.06-.3Z"/>
        <path class="cls-9" d="M16.4,21.19h.76s0,.02,0,.03h-.75s0-.02,0-.03Z"/>
        <path class="cls-9" d="M12.54,21.23h-.62v-.03h.61v.03Z"/>
        <path class="cls-9" d="M14.82,21.23h-.64s0-.02,0-.03h.64s0,.02,0,.03Z"/>
        <path class="cls-9" d="M19.3,21.23h-.55s0-.02,0-.03h.54s0,.02.01.03Z"/>
        <path class="cls-8" d="M16.83,21.96c.09.35.2.7.25,1.06.04.28-.21.13-.33.15-.1.02-.29.08-.24-.17.08-.35.16-.69.24-1.04h.07Z"/>
        <path class="cls-2" d="M8.63,4.81h14.66c.81.25.95.43.95,1.31,0,.67.02,1.34-.01,2.02.03,3.58,0,7.16.01,10.74,0,.23,0,.45-.01.68-.01.29-.16.43-.45.44-.17,0-.33.01-.5.01-4.61,0-9.22,0-13.83,0-.27,0-.55.06-.8-.1-.18-.21-.13-.47-.13-.72,0-2.39,0-4.78,0-7.17,0-2.11,0-4.21,0-6.32,0-.25,0-.5.05-.74,0-.05.02-.09.05-.13Z"/>
        <path class="cls-8" d="M17.84,12.02c.21.08.42.15.61.25.62.32,1.01.8,1.01,1.54.02,1.57-.64,2.41-2.18,2.75-.88.19-1.75.15-2.59-.16-.86-.32-1.4-.94-1.61-1.84-.06-.23-.04-.35.25-.34.46.02.92.01,1.39,0,.17,0,.25.05.31.21.3.78,1.41,1.04,2.05.5.6-.51.4-1.74-.34-2.02-.37-.14-.77-.14-1.16-.13-.24.01-.31-.08-.3-.31.02-.32-.09-.69.04-.95.16-.31.57-.09.87-.14.9-.14,1.06-.64.87-1.48-.1-.4-.48-.49-.85-.5-.52-.01-.91.17-1.02.59-.09.34-.27.38-.56.36-.39-.02-.78-.02-1.17,0-.25,0-.34-.05-.28-.32.16-.7.53-1.25,1.16-1.59,1.24-.67,2.53-.69,3.78-.05,1.01.52,1.19,1.35,1.01,2.35-.09.52-.49.82-.94,1.05-.11.06-.26.06-.33.19Z"/>
        <path class="cls-5" d="M14.89,10.48h-1.63s0-.02,0-.03h1.63s0,.02,0,.03Z"/>
      </g>
    </g>
  </g>
</svg>