<?xml version="1.0" encoding="UTF-8"?>
<svg id="Layer_2" data-name="Layer 2" xmlns="http://www.w3.org/2000/svg" viewBox="0 0 31.11 31.11">
  <defs>
    <style>
      .cls-1 {
        fill: #fca311;
      }

      .cls-1, .cls-2, .cls-3, .cls-4 {
        stroke-width: 0px;
      }

      .cls-2 {
        fill: #d88c0f;
      }

      .cls-3 {
        fill: #fff;
      }

      .cls-4 {
        fill: #734a08;
      }
    </style>
  </defs>
  <g id="Mechanical_Engineer" data-name="Mechanical Engineer">
    <g id="Keras">
      <rect id="BC_White" data-name="BC White" class="cls-3" width="31.11" height="31.11" rx="8" ry="8"/>
      <g id="Ansys_Logo" data-name="Ansys Logo">
        <path class="cls-4" d="M15.55,25.77c-5.65,0-10.24-4.59-10.23-10.22.01-5.65,4.59-10.21,10.24-10.21,5.65,0,10.24,4.59,10.23,10.22,0,5.64-4.6,10.21-10.24,10.21ZM10.93,21.01c.41,0,.82-.01,1.22,0,.25,0,.38-.07.47-.31,1.35-3.42,2.7-6.83,4.07-10.24.14-.35.02-.37-.28-.37-.72.01-1.44.01-2.15,0-.24,0-.37.06-.47.3-1.41,3.43-2.82,6.85-4.24,10.27-.09.23-.11.35.21.34.39-.02.78,0,1.17,0ZM17.34,10.46c-.5,1.24-.96,2.39-1.42,3.55-.04.11,0,.22.04.33.86,2.14,1.71,4.27,2.56,6.41.06.14.1.26.29.26.94,0,1.88,0,2.88,0-1.46-3.53-2.89-6.99-4.36-10.55Z"/>
        <path class="cls-1" d="M10.93,21.01c-.39,0-.78-.02-1.17,0-.32.02-.3-.11-.21-.34,1.42-3.42,2.83-6.85,4.24-10.27.1-.24.23-.31.47-.3.72.01,1.44.01,2.15,0,.3,0,.42.02.28.37-1.37,3.41-2.72,6.82-4.07,10.24-.1.24-.23.32-.47.31-.41-.02-.82,0-1.22,0Z"/>
        <path class="cls-2" d="M17.34,10.46c1.47,3.56,2.9,7.02,4.36,10.55-1,0-1.94,0-2.88,0-.19,0-.23-.12-.29-.26-.85-2.14-1.7-4.28-2.56-6.41-.04-.11-.09-.22-.04-.33.46-1.15.92-2.3,1.42-3.55Z"/>
      </g>
    </g>
  </g>
</svg>