<?xml version="1.0" encoding="UTF-8"?>
<svg id="Layer_2" data-name="Layer 2" xmlns="http://www.w3.org/2000/svg" viewBox="0 0 31.11 31.11">
  <defs>
    <style>
      .cls-1 {
        fill: #fca311;
      }

      .cls-1, .cls-2, .cls-3, .cls-4 {
        stroke-width: 0px;
      }

      .cls-2 {
        fill: #d88c0f;
      }

      .cls-3 {
        fill: #fff;
      }

      .cls-4 {
        fill: #734a08;
      }
    </style>
  </defs>
  <g id="Industrial_Designer" data-name="Industrial Designer">
    <g id="AutoCAD">
      <rect id="BC_White" data-name="BC White" class="cls-3" width="31.11" height="31.11" rx="8" ry="8"/>
      <g id="AutoCAD_Logo" data-name="AutoCAD Logo">
        <path class="cls-1" d="M9.16,5.52h13.85c-.04.05,0,.08.04.1.42.24.58.6.57,1.08-.01.65,0,1.3,0,1.96,0,.16-.02.31-.02.47,0,3.35,0,6.71,0,10.06q0,.45-.45.45c-4.55,0-9.09,0-13.64,0-.12,0-.24,0-.37-.01,0-1.33,0-2.65,0-3.98,0-3.38,0-6.75,0-10.13ZM12.78,16.5c.63,0,1.21,0,1.8,0,.16,0,.17-.12.2-.22.11-.42.22-.84.32-1.26.04-.16.1-.22.27-.22.64,0,1.27,0,1.91,0,.18,0,.26.06.3.23.1.41.24.81.34,1.22.05.21.15.26.35.26.47-.01.94-.01,1.4,0,.24,0,.31-.03.23-.29-.74-2.42-1.47-4.84-2.19-7.26-.06-.2-.14-.26-.35-.26-.67.01-1.34.02-2.01,0-.26,0-.36.07-.43.32-.42,1.5-.85,3-1.28,4.5-.28.98-.56,1.97-.86,2.99Z"/>
        <path class="cls-4" d="M9.16,19.62c.12,0,.24.01.37.01,4.55,0,9.09,0,13.64,0q.45,0,.45-.45c0-3.35,0-6.71,0-10.06,0-.16.01-.31.02-.47.46,0,.92,0,1.39.01,0,5.55,0,11.1,0,16.64,0,.24-.05.29-.29.29-5.48,0-10.96,0-16.44,0,.02-.06-.01-.11-.06-.14-.4-.26-.49-.65-.48-1.1.01-1.28,0-2.56,0-3.84.43-.36.94-.58,1.4-.89ZM18.04,22.51c0,.13,0,.27,0,.4.02.35-.05.71.04,1.06.42.04.85.05,1.26,0,.64-.09.99-.51,1.01-1.17,0-.23,0-.47,0-.7-.03-.61-.42-1.01-1.04-1.05-.34-.02-.69,0-1.03-.01-.2,0-.24.07-.24.25.01.41,0,.82,0,1.23ZM17.67,23.99c-.24-.79-.46-1.54-.68-2.28-.23-.75-.23-.75-1.03-.68-.12.01-.18.05-.21.16-.25.87-.5,1.73-.74,2.6-.02.06-.07.15.04.19.29.13.66-.04.72-.35.04-.23.14-.34.38-.3.09.01.18.01.27,0,.24-.03.39.04.41.3.02.3.18.4.47.35.11-.02.22,0,.38,0ZM13.17,22.51s0,0,0,0c0-.14,0-.29,0-.43,0-.25.03-.49.31-.56.26-.07.45,0,.59.28.12.24.41.12.6.08.15-.03.05-.23,0-.34-.17-.43-.63-.64-1.27-.57-.52.06-.9.38-.96.87-.05.44-.05.89,0,1.33.06.49.44.82.95.88.63.07,1.1-.13,1.27-.56.05-.12.17-.27.01-.38-.14-.1-.58.01-.63.15-.09.25-.28.3-.51.27-.25-.03-.36-.21-.37-.44,0-.19,0-.38,0-.57Z"/>
        <path class="cls-2" d="M9.16,19.62c-.46.31-.97.53-1.4.89-.12.06-.24.12-.35.18-.45.24-.84.56-1.32.75,0-4.71,0-9.41,0-14.12.95-.56,1.9-1.13,2.85-1.69.03-.02.11-.06.02-.11h.2c0,3.38,0,6.75,0,10.13,0,1.33,0,2.65,0,3.98Z"/>
        <path class="cls-4" d="M12.78,16.5c.29-1.02.57-2,.86-2.99.43-1.5.86-3,1.28-4.5.07-.25.18-.33.43-.32.67.02,1.34.01,2.01,0,.2,0,.29.06.35.26.72,2.42,1.45,4.85,2.19,7.26.08.26,0,.3-.23.29-.47-.01-.94-.01-1.4,0-.2,0-.3-.05-.35-.26-.1-.41-.23-.81-.34-1.22-.04-.17-.12-.23-.3-.23-.64.01-1.27,0-1.91,0-.16,0-.23.05-.27.22-.1.42-.21.84-.32,1.26-.03.11-.04.22-.2.22-.59,0-1.18,0-1.8,0ZM16.34,10.12h-.07c-.24,1.02-.47,2.04-.72,3.05-.03.14,0,.18.14.18.47,0,.93,0,1.43,0-.27-1.1-.52-2.16-.78-3.23Z"/>
        <path class="cls-1" d="M18.04,22.51c0-.41,0-.82,0-1.23,0-.18.04-.26.24-.25.34.02.69,0,1.03.01.62.04,1,.44,1.04,1.05.01.23.01.47,0,.7-.02.66-.36,1.07-1.01,1.17-.42.06-.84.04-1.26,0-.09-.35-.02-.7-.04-1.06,0-.13,0-.27,0-.4ZM19.59,22.51s0,0,.01,0c0-.13,0-.27,0-.4-.02-.42-.24-.59-.66-.56-.13.01-.17.06-.17.18,0,.51,0,1.02,0,1.54,0,.09,0,.16.13.18.35.05.63-.13.68-.48.02-.15,0-.31,0-.47Z"/>
        <path class="cls-1" d="M17.67,23.99c-.16,0-.28-.01-.38,0-.28.04-.45-.06-.47-.35-.02-.26-.17-.33-.41-.3-.09.01-.18.01-.27,0-.24-.04-.33.07-.38.3-.06.31-.43.48-.72.35-.12-.05-.06-.13-.04-.19.24-.87.49-1.74.74-2.6.03-.11.09-.15.21-.16.8-.07.8-.08,1.03.68.22.75.45,1.49.68,2.28ZM16.28,21.53c-.11.47-.2.84-.29,1.21.11.07.21.03.31.05.25.04.3-.06.23-.29-.09-.29-.15-.58-.24-.97Z"/>
        <path class="cls-1" d="M13.17,22.51c0,.19,0,.38,0,.57.01.24.12.41.37.44.23.03.42-.02.51-.27.05-.13.49-.25.63-.15.16.12.04.26-.01.38-.17.43-.64.64-1.27.56-.51-.06-.89-.4-.95-.88-.05-.44-.05-.89,0-1.33.06-.49.44-.81.96-.87.64-.07,1.1.13,1.27.57.04.11.14.32,0,.34-.19.03-.48.15-.6-.08-.14-.28-.33-.35-.59-.28-.28.07-.31.31-.31.56,0,.14,0,.29,0,.43,0,0,0,0,0,0Z"/>
        <path class="cls-1" d="M16.34,10.12c.26,1.06.52,2.13.78,3.23-.5,0-.97,0-1.43,0-.14,0-.17-.04-.14-.18.24-1.01.48-2.03.72-3.04h.07Z"/>
        <path class="cls-4" d="M19.59,22.51c0,.16.02.31,0,.47-.05.35-.33.53-.68.48-.13-.02-.13-.09-.13-.18,0-.51,0-1.02,0-1.54,0-.12.03-.17.17-.18.42-.04.64.14.66.56,0,.13,0,.27,0,.4,0,0,0,0-.01,0Z"/>
        <path class="cls-4" d="M16.28,21.53c.1.39.16.68.24.97.07.23.03.33-.23.29-.1-.02-.2.02-.31-.05.09-.37.18-.74.29-1.21Z"/>
      </g>
    </g>
  </g>
</svg>