<?xml version="1.0" encoding="UTF-8"?>
<svg id="Layer_2" data-name="Layer 2" xmlns="http://www.w3.org/2000/svg" viewBox="0 0 31.11 31.11">
  <defs>
    <style>
      .cls-1 {
        fill: #fca311;
      }

      .cls-1, .cls-2, .cls-3, .cls-4 {
        stroke-width: 0px;
      }

      .cls-2 {
        fill: #d88c0f;
      }

      .cls-3 {
        fill: #fff;
      }

      .cls-4 {
        fill: #734a08;
      }
    </style>
  </defs>
  <g id="Industrial_Designer" data-name="Industrial Designer">
    <g id="Catia">
      <rect id="BC_White" data-name="BC White" class="cls-3" x="0" width="31.11" height="31.11" rx="8" ry="8"/>
      <g id="Catia_Logo" data-name="Catia Logo">
        <path class="cls-4" d="M7.45,14.25c-.25,0-.5,0-.75,0-.08,0-.16,0-.24,0-.11-.02-.24-.01-.27-.15-.03-.14.1-.19.19-.23.42-.19.86-.27,1.31-.33,1.08-.15,2.17-.17,3.23.13.29.08.57.18.83.33.39.24.56.59.47,1.04-.14.69-.48,1.29-.91,1.84-.64.81-1.45,1.43-2.33,1.95-1.24.73-2.56,1.28-3.98,1.6-.1.02-.2.04-.31.05-.18.01-.22-.04-.14-.2.18-.35.35-.7.54-1.04.64-1.17,1.28-2.33,2.06-3.41.14-.2.3-.39.48-.55.07-.07.15-.13.24-.17.07-.03.14-.05.21,0,.07.05.09.13.08.21-.02.14-.09.26-.16.39-.54.94-1.08,1.88-1.57,2.85-.06.12-.12.24-.16.37-.09.25.05.4.31.35.1-.02.2-.05.3-.09,1.05-.5,2.03-1.1,2.85-1.94.38-.39.7-.83.92-1.33.06-.13.11-.26.14-.4.12-.45-.03-.74-.46-.93-.35-.15-.73-.21-1.1-.25-.59-.06-1.18-.08-1.77-.07Z"/>
        <path class="cls-2" d="M12.78,18.24c.79-.03,1.57-.06,2.35-.18.19-.03.37-.06.55-.12.37-.11.48-.38.3-.73-.22-.42-.52-.78-.81-1.15-.49-.63-1.06-1.2-1.54-1.84-.19-.25-.36-.52-.47-.82-.19-.53-.06-.93.4-1.24.49-.34,1.05-.46,1.62-.51.86-.07,1.71,0,2.55.18.16.03.32.08.46.17.08.05.19.1.17.22-.02.12-.14.12-.24.13-.21.01-.41.02-.62.02-.7.01-1.39.02-2.08.13-.23.04-.46.08-.67.17-.3.13-.36.33-.17.6.41.58.87,1.12,1.31,1.67.38.49.76.97,1.11,1.48.18.27.34.55.42.87.11.44,0,.8-.37,1.07-.48.36-1.03.52-1.62.58-1.25.14-2.49.02-3.72-.19-.2-.03-.4-.1-.59-.2-.06-.03-.12-.07-.11-.15.01-.08.07-.1.14-.12.13-.04.27-.03.4-.04.4,0,.81,0,1.21,0Z"/>
        <path class="cls-1" d="M11.89,7.07c.63,0,1.3.08,1.95.3.39.14.74.34.85.78.07.28.02.56-.08.82-.25.69-.7,1.25-1.24,1.74-1,.91-2.17,1.53-3.42,2.01-.04.01-.08.02-.12.03-.02,0-.05,0-.06-.02-.02-.03,0-.06.02-.08.04-.04.09-.07.13-.1.97-.71,1.9-1.48,2.68-2.4.28-.33.52-.68.71-1.06.07-.15.14-.31.12-.49-.02-.22-.15-.35-.34-.44-.33-.17-.7-.21-1.06-.25-.77-.1-1.55-.11-2.32-.11-.1,0-.19-.02-.29-.03-.07-.01-.13-.03-.14-.12,0-.08.05-.12.11-.15.27-.14.56-.21.85-.27.53-.1,1.06-.15,1.65-.16Z"/>
        <path class="cls-4" d="M12.12,23.97c0-.09.05-.12.08-.15.89-1.06,1.79-2.11,2.68-3.17.08-.09.16-.13.28-.13.23,0,.46,0,.7,0,.13,0,.19.03.21.17.15,1.04.32,2.09.48,3.13.02.13-.02.16-.14.16-.22,0-.44,0-.66,0-.12,0-.16-.04-.17-.15-.11-.77-.22-1.53-.33-2.3,0-.04,0-.09-.06-.14-.3.37-.59.74-.92,1.16.26,0,.46,0,.67,0,.12,0,.17.03.18.16.04.4.04.39-.36.4-.2,0-.39.01-.58.03-.3.03-.55.16-.7.42-.21.36-.5.49-.9.43-.14-.02-.29,0-.45,0Z"/>
        <path class="cls-4" d="M22.1,23.97c.3-.35.56-.66.82-.98.66-.78,1.32-1.56,1.97-2.34.09-.1.17-.15.31-.15.23.01.46,0,.7,0,.12,0,.18.03.19.16.16,1.04.32,2.08.48,3.11.02.14-.02.2-.17.19-.18-.01-.37-.01-.55,0-.17.01-.23-.04-.26-.21-.09-.71-.2-1.43-.31-2.14-.01-.08-.03-.15-.05-.28-.32.41-.62.78-.95,1.19.26,0,.47,0,.68,0,.13,0,.17.04.18.17.03.39.03.39-.35.39-.18,0-.37.01-.55.03-.3.02-.57.13-.73.4-.22.39-.53.53-.97.46-.13-.02-.27,0-.46,0Z"/>
        <path class="cls-4" d="M11.99,23.27c-.16.2-.32.4-.48.6-.04.05-.09.08-.16.09-.59.12-1.19.14-1.78-.03-.76-.21-1.04-.71-.86-1.47.13-.55.44-.99.89-1.32.95-.71,2.01-.85,3.14-.54.22.06.22.07.08.24-.01.01-.03.03-.04.04-.18.26-.35.36-.71.25-.84-.25-1.74.14-2.18.85-.11.18-.18.37-.21.58-.06.47.25.81.78.86.45.04.89,0,1.33-.11.06-.02.13-.05.2-.03h0Z"/>
        <path class="cls-4" d="M19.14,20.51c.54,0,1.08,0,1.61,0,.06,0,.14-.03.17.03.02.05-.05.09-.07.14-.2.37-.5.49-.92.46-.49-.04-.49,0-.65.45-.26.74-.52,1.48-.77,2.22-.04.13-.1.17-.24.17-.21,0-.42,0-.62,0-.14,0-.15-.04-.11-.16.29-.82.57-1.64.85-2.46.08-.22.07-.23-.16-.23-.31,0-.62,0-.93,0-.2,0-.21-.01-.15-.19q.14-.42.58-.42c.46,0,.93,0,1.39,0Z"/>
        <path class="cls-4" d="M20.92,23.97c-.11,0-.22,0-.33,0-.14.01-.17-.03-.12-.16.21-.57.4-1.14.6-1.71.17-.47.34-.94.5-1.42.04-.13.11-.18.25-.17.19.01.39.01.59,0,.15,0,.19.03.13.18-.34.95-.67,1.91-1.01,2.86-.15.42-.15.41-.61.41Z"/>
        <path class="cls-4" d="M12,23.27s0,0,0,0c0,0,0,0,0,0Z"/>
      </g>
    </g>
  </g>
</svg>