<?xml version="1.0" encoding="UTF-8"?>
<svg id="Layer_2" data-name="Layer 2" xmlns="http://www.w3.org/2000/svg" viewBox="0 0 31.11 31.11">
  <defs>
    <style>
      .cls-1 {
        fill: #fca311;
      }

      .cls-1, .cls-2, .cls-3, .cls-4, .cls-5, .cls-6 {
        stroke-width: 0px;
      }

      .cls-2 {
        fill: #d88c0f;
      }

      .cls-3 {
        fill: #45303e;
      }

      .cls-4 {
        fill: #fff;
      }

      .cls-5 {
        fill: #734a08;
      }

      .cls-6 {
        fill: #fbb040;
      }
    </style>
  </defs>
  <g id="SDC_Engineer" data-name="SDC Engineer">
    <g id="MATLAB">
      <rect id="BC_White" data-name="BC White" class="cls-4" width="31.11" height="31.11" rx="8" ry="8"/>
      <g id="Matlab_Logo" data-name="Matlab Logo">
        <path class="cls-3" d="M22.03,19.13s.04,0,.06,0c-.02-.01-.04-.01-.06,0Z"/>
        <path class="cls-1" d="M26.57,22.03s-.09-.06-.13-.08c-.39-.25-.73-.56-1.07-.87-.52-.47-1-.96-1.57-1.37-.14-.1-.29-.19-.44-.28,0,0-.01,0-.02-.01,0,0-.01,0-.02-.01-.1-.04-.19-.08-.28-.13-.28-.11-.57-.16-.86-.16-.03,0-.06,0-.08,0-.02-.01-.04-.01-.06,0-.39.05-.75.21-1.08.42-.5.31-.91.73-1.31,1.15-.35.37-.7.75-1.02,1.15-.18.23-.37.46-.57.68-.13.14-.24.29-.37.43-.03.03-.05.07-.09.08-.08.12-.18.22-.29.32-.13.13-.25.26-.38.39-.04.05-.09.1-.15.14-.23.24-.49.45-.75.64-.47.36-.98.64-1.55.8-.05.03-.1.04-.15.04-.04.01-.09.03-.13.04-.02,0-.04.01,0,.03h-.06c0-.07-.05-.13-.07-.2-.01-.04-.03-.09-.05-.13-.06-.13-.11-.25-.16-.38-.14-.34-.29-.68-.43-1.03-.1-.23-.2-.46-.3-.69-.05-.08-.08-.18-.12-.26-.05-.09-.09-.18-.13-.28-.04-.07-.07-.13-.1-.21-.07-.12-.13-.24-.18-.37-.05-.08-.1-.16-.13-.25-.1-.17-.19-.35-.29-.52-.15-.22-.29-.45-.46-.65-.06-.07-.14-.13-.19-.21-.09-.08-.18-.16-.27-.24-.03-.02-.05-.04-.08-.06-.15-.08-.3-.16-.47-.2-.07-.01-.15-.03-.22-.04h-.12c-.07,0-.14.02-.22.03-.26.07-.51.15-.75.25-.02,0-.04.01-.06,0,0,0,2.21-1.03,3.84-2.54.21-.19.42-.49.64-.87,1.37-2.33,3.02-7.73,4.1-9.8l.45-.68c.18-.18.38-.35.63-.42.03,0,.06,0,.07-.04h.23s.04.03.06.04h.04s.02.01.03.01c.07.01.15.04.21.09.24.12.43.31.59.52.41.5.7,1.06.97,1.64.6,1.27,1.06,2.6,1.53,3.92.58,1.65,1.12,3.32,1.74,4.96.34.91.72,1.8,1.09,2.71.01.03.02.06.03.09.03.07.06.13.08.2,0,.01,0,.02.01.03.08.2.15.39.24.59.21.47.4.95.63,1.42.03.05.04.1.05.16Z"/>
        <path class="cls-6" d="M18.36,6.12l-.45.68c.14-.26.27-.48.39-.62.02-.02.04-.04.06-.06Z"/>
        <path class="cls-5" d="M13.81,16.6c-.22.38-.43.68-.64.87-1.63,1.5-3.84,2.54-3.84,2.54-.19-.11-.36-.25-.53-.37-.91-.65-1.83-1.31-2.73-1.97-.48-.35-.96-.69-1.44-1.04-.03-.02-.05-.04-.09-.07.16-.07.31-.14.46-.2.53-.23,1.06-.45,1.59-.68,1.37-.59,2.73-1.17,4.1-1.75.02-.01.05-.01.07-.03l3.05,2.69Z"/>
        <path class="cls-2" d="M18.3,6.18c-.12.14-.25.36-.39.62-1.09,2.07-2.74,7.47-4.1,9.8l-3.05-2.69c.26-.32.52-.65.78-.97.04-.05.08-.09.11-.13.04-.07.1-.12.15-.18.11-.15.25-.28.38-.41.41-.42.87-.76,1.46-.89.47-.1.85-.36,1.21-.66.52-.43.95-.94,1.35-1.47.56-.73,1.04-1.52,1.55-2.29.17-.26.34-.51.55-.74Z"/>
        <path class="cls-6" d="M18.36,6.12l-.45.68c.14-.26.27-.48.39-.62.02-.02.04-.04.06-.06Z"/>
      </g>
    </g>
  </g>
</svg>