<?xml version="1.0" encoding="UTF-8"?>
<svg id="Layer_2" data-name="Layer 2" xmlns="http://www.w3.org/2000/svg" viewBox="0 0 31.11 31.11">
  <defs>
    <style>
      .cls-1 {
        fill: #fca311;
      }

      .cls-1, .cls-2, .cls-3, .cls-4, .cls-5 {
        stroke-width: 0px;
      }

      .cls-2 {
        fill: #d88c0f;
      }

      .cls-3 {
        fill: #010101;
      }

      .cls-4 {
        fill: #fff;
      }

      .cls-5 {
        fill: #734a08;
      }
    </style>
  </defs>
  <g id="Industrial_Designer" data-name="Industrial Designer">
    <g id="Maya">
      <rect id="BC_White" data-name="BC White" class="cls-4" width="31.11" height="31.11" rx="8" ry="8"/>
      <g id="Maya_Icon" data-name="Maya Icon">
        <path class="cls-1" d="M8.57,4.59c4.97,0,9.95,0,14.92,0,.02.01.03.02.05.04,0-.01,0-.02,0-.04.04,0,.07,0,.11,0-.01.01-.04.02-.04.03,0,.01.01.04.03.04.63.27.75.79.73,1.41-.02.65,0,1.31,0,1.96,0,.11,0,.22,0,.33,0,3.65,0,7.31,0,10.96,0,.13-.01.26,0,.38.03.25-.08.33-.32.3-.07,0-.15,0-.22,0-5.09,0-10.18,0-15.27,0,0-5.14,0-10.28,0-15.43ZM16.5,14.77h-.07c-.15-.6-.31-1.21-.46-1.82-.39-1.56-.78-3.12-1.17-4.68-.04-.15-.08-.24-.26-.24-.76.01-1.52,0-2.28,0-.17,0-.22.06-.22.23,0,2.71,0,5.41,0,8.12,0,.19.07.23.24.23.44,0,.88-.02,1.32,0,.23,0,.29-.07.29-.29,0-1.63,0-3.25,0-4.88,0-.1,0-.21,0-.31.07.03.09.05.1.09.45,1.7.9,3.41,1.34,5.11.05.2.12.29.34.28.5-.02,1.01-.01,1.51,0,.17,0,.26-.05.31-.22.3-1.17.6-2.33.9-3.5.12-.48.25-.96.38-1.48.1.14.08.25.08.35,0,1.53,0,3.05,0,4.58,0,.19.04.28.25.27.52-.01,1.04,0,1.56,0,.16,0,.22-.05.22-.22,0-2.71,0-5.41,0-8.12,0-.18-.07-.23-.24-.23-.71,0-1.43,0-2.14,0-.17,0-.24.07-.28.22-.3,1.17-.61,2.33-.92,3.5-.27,1-.53,2.01-.8,3.01Z"/>
        <path class="cls-5" d="M8.57,20.01c5.09,0,10.18,0,15.27,0,.07,0,.15,0,.22,0,.23.03.35-.05.32-.3-.01-.13,0-.26,0-.38,0-3.65,0-7.31,0-10.96,0-.11,0-.22,0-.33.38,0,.77,0,1.15,0,.43,0,.37-.04.37.39,0,6.04,0,12.07,0,18.11H7.69c.04-.05,0-.08-.04-.11-.49-.28-.62-.72-.62-1.25.02-1.3,0-2.59,0-3.89,0-.1.05-.22-.07-.3.53-.32,1.06-.64,1.6-.97ZM20.56,24.77c-.02-.08-.03-.15-.05-.22-.27-.92-.56-1.83-.82-2.75-.06-.21-.16-.28-.36-.26-.19.02-.38.02-.57,0-.19-.02-.25.07-.3.23-.22.81-.46,1.61-.69,2.42-.18.63-.18.63.48.59.12,0,.17-.04.2-.16.17-.55.17-.55.75-.55.05,0,.11,0,.16,0,.15-.02.2.05.24.19.15.53.16.53.72.52.07,0,.14,0,.23-.01ZM15.33,24.78c-.25-.83-.49-1.64-.74-2.44-.08-.26-.07-.61-.27-.75-.21-.15-.55-.03-.83-.05-.03,0-.05,0-.08,0-.1,0-.15.04-.18.13-.29,1.03-.58,2.05-.88,3.11.19,0,.35-.02.51,0,.24.03.33-.07.37-.3.08-.41.1-.41.53-.41.52,0,.52,0,.68.51.03.09.02.21.17.2.23,0,.45,0,.71,0ZM15.04,21.54c.24.46.44.9.69,1.31.26.43.37.87.34,1.38-.03.56,0,.55.55.56.18,0,.28-.04.25-.24-.1-.74.1-1.4.5-2.02.15-.24.27-.5.4-.75.03-.07.1-.13.06-.24-.15,0-.31.01-.46,0-.22-.02-.34.05-.42.27-.13.35-.29.69-.47,1.09-.19-.43-.35-.8-.51-1.18-.04-.09-.07-.19-.21-.18-.23,0-.45,0-.73,0Z"/>
        <path class="cls-2" d="M8.57,20.01c-.53.32-1.06.64-1.6.97-.58.34-1.15.69-1.75,1.05,0-.08,0-.11,0-.15,0-5.02,0-10.04,0-15.06,0-.16.06-.24.19-.32.97-.58,1.94-1.16,2.91-1.75.06-.03.18-.03.15-.16h.11c0,5.14,0,10.28,0,15.43Z"/>
        <path class="cls-3" d="M23.54,4.59s0,.02,0,.04c-.02-.01-.03-.02-.05-.04.02,0,.04,0,.05,0Z"/>
        <path class="cls-5" d="M16.5,14.77c.27-1,.53-2.01.8-3.01.31-1.16.62-2.33.92-3.5.04-.15.1-.22.28-.22.71.01,1.43,0,2.14,0,.17,0,.24.05.24.23,0,2.71,0,5.41,0,8.12,0,.17-.06.22-.22.22-.52,0-1.04-.01-1.56,0-.22,0-.25-.08-.25-.27,0-1.53,0-3.05,0-4.58,0-.1.03-.21-.08-.35-.14.53-.26,1-.38,1.48-.3,1.17-.61,2.33-.9,3.5-.05.18-.13.23-.31.22-.5,0-1.01-.01-1.51,0-.22,0-.29-.09-.34-.28-.44-1.71-.89-3.41-1.34-5.11,0-.03-.03-.06-.1-.09,0,.1,0,.21,0,.31,0,1.63,0,3.25,0,4.88,0,.22-.06.3-.29.29-.44-.02-.88-.01-1.32,0-.17,0-.24-.04-.24-.23,0-2.71,0-5.41,0-8.12,0-.16.05-.23.22-.23.76,0,1.52,0,2.28,0,.18,0,.23.09.26.24.39,1.56.78,3.12,1.17,4.68.15.61.31,1.21.46,1.82h.07Z"/>
        <path class="cls-1" d="M20.56,24.77c-.09,0-.16.01-.23.01-.57,0-.57,0-.72-.52-.04-.14-.09-.21-.24-.19-.05,0-.11,0-.16,0-.58,0-.59,0-.75.55-.04.12-.08.16-.2.16-.66.04-.66.04-.48-.59.23-.81.46-1.61.69-2.42.05-.17.11-.25.3-.23.19.02.38.02.57,0,.21-.02.31.05.36.26.27.92.55,1.84.82,2.75.02.07.03.14.05.22ZM19.08,22.17s-.04.06-.05.07c-.06.26-.13.51-.19.77-.12.5-.12.49.39.46.15,0,.16-.07.13-.19-.09-.36-.18-.72-.27-1.12Z"/>
        <path class="cls-1" d="M15.33,24.78c-.26,0-.48,0-.71,0-.15,0-.15-.11-.17-.2-.16-.51-.16-.51-.68-.51-.43,0-.44,0-.53.41-.05.23-.13.33-.37.3-.16-.02-.33,0-.51,0,.3-1.06.59-2.08.88-3.11.03-.09.08-.14.18-.13.03,0,.05,0,.08,0,.28.01.62-.1.83.05.2.14.19.49.27.75.25.8.49,1.6.74,2.44ZM13.84,22.2s-.03,0-.05,0c-.03.13-.06.26-.1.4-.03.14-.06.28-.1.42-.13.5-.12.51.4.46.11,0,.15-.03.12-.14-.09-.38-.18-.75-.27-1.13Z"/>
        <path class="cls-1" d="M15.04,21.54c.28,0,.5,0,.73,0,.14,0,.17.09.21.18.16.37.33.75.51,1.18.17-.4.34-.74.47-1.09.08-.22.2-.29.42-.27.15.02.31,0,.46,0,.04.11-.03.17-.06.24-.13.25-.24.51-.4.75-.4.62-.61,1.28-.5,2.02.03.2-.06.24-.25.24-.56,0-.58,0-.55-.56.03-.5-.08-.95-.34-1.38-.25-.41-.45-.85-.69-1.31Z"/>
        <path class="cls-5" d="M19.08,22.17c.1.39.18.76.27,1.12.03.12.03.18-.13.19-.51.03-.51.04-.39-.46.06-.26.13-.51.19-.77,0-.02.02-.03.05-.07Z"/>
        <path class="cls-5" d="M13.84,22.2c.09.38.18.76.27,1.13.03.11-.01.13-.12.14-.51.05-.52.04-.4-.46.03-.14.07-.28.1-.42.03-.13.06-.26.1-.4.02,0,.03,0,.05,0Z"/>
      </g>
    </g>
  </g>
</svg>